<?xml version="1.0" encoding="utf-8" ?>
<svg baseProfile="full" height="300mm" version="1.1" viewBox="0,0,200,300" width="200mm" xmlns="http://www.w3.org/2000/svg" xmlns:ev="http://www.w3.org/2001/xml-events" xmlns:xlink="http://www.w3.org/1999/xlink"><defs /><rect fill="#222222" height="300" width="200" x="0" y="0" /><text fill="#FFFFFF" style="font-size:12px; font-family:Arial; font-weight:bold;" x="10" y="20">Over 10km Runs</text><text fill="#FFFFFF" style="font-size:4px; font-family:Arial" x="10" y="280">Runner</text><text fill="#FFFFFF" style="font-size:9px; font-family:Arial" x="10" y="290">yihong0618</text><text fill="#FFFFFF" style="font-size:4px; font-family:Arial" x="65" y="280">SPECIAL TRACKS</text><rect fill="yellow" height="2.6" width="2.6" x="65" y="283" /><text fill="#FFFFFF" style="font-size:3px; font-family:Arial" x="70" y="285.5">Over 20.0 km</text><rect fill="red" height="2.6" width="2.6" x="65" y="287" /><text fill="#FFFFFF" style="font-size:3px; font-family:Arial" x="70" y="289.5">Over 40.0 km</text><text fill="#FFFFFF" style="font-size:4px; font-family:Arial" x="120" y="280">STATISTICS</text><text fill="#FFFFFF" style="font-size:3px; font-family:Arial" x="120" y="285">Number: 5</text><text fill="#FFFFFF" style="font-size:3px; font-family:Arial" x="120" y="290">Weekly: 1.2</text><text fill="#FFFFFF" style="font-size:3px; font-family:Arial" x="141" y="285">Total: 317.5 km</text><text fill="#FFFFFF" style="font-size:3px; font-family:Arial" x="141" y="290">Avg: 63.5 km</text><text fill="#FFFFFF" style="font-size:3px; font-family:Arial" x="167" y="285">Min: 18.7 km</text><text fill="#FFFFFF" style="font-size:3px; font-family:Arial" x="167" y="290">Max: 108.1 km</text><polyline fill="none" opacity="1" points="74.42412600840908,37.50073538340803 74.53476757585304,37.85644228644378 74.61774875142146,38.37383266883262 74.71456012292765,38.90738966787467 74.8252016903134,39.4894497263449 74.93584325769916,40.07150757013005 75.0603150211391,40.669731379675795 75.12946600071155,41.20328037127911 75.22627737221774,41.73682750212902 75.33691893960349,42.28654078164254 75.41990011523012,42.820084134538774 75.51671148673631,43.434465084486874 75.62735305418028,44.09734702651622 75.73799462156603,44.80872933023784 75.87629658088554,45.520108326294576 75.94544756051619,46.296154367752024 75.95927775639575,46.78118114480458 75.98693814827129,47.10453147527005 76.13907030347036,47.848234641962335 76.22205147903878,48.769774855318246 76.27737226273166,49.62664060029783 76.31886285054497,50.16015835707367 76.24971187085612,50.30566287699912 76.22205147903878,50.54817010264378 76.20822128310101,51.16252002080728 76.47099500574404,52.003205385335605 76.6784479446942,52.77921854531451 76.85824049176881,53.6037282156758 77.06569343060255,54.49290033215948 77.2731463695527,55.26890086606727 77.17633499810472,55.80239895042905 77.67422205145704,56.222729464483564 77.9231655781623,56.88555600613472 78.15827890892979,57.49988048114756 78.40722243557684,58.065703473825124 78.18593930080533,58.534526654199 77.60507107182639,58.68002321125823 77.01037264696788,58.874018405520474 76.29120245866943,59.165010735727265 75.62735305418028,59.391337721128366 74.96350364963291,59.58533201368118 74.79754129849607,59.82782453348045 74.61774875142146,60.054150538679096 74.85286208224716,60.7331265459361 75.14329619664932,61.46059749658161 75.36457933147904,62.25272859900724 75.59969266230473,62.99635814772046 75.97310795233352,63.72381834033877 76.6784479446942,64.04713287162303 76.95505186315859,64.7260911641497 77.32846715324558,65.46970869525103 77.6465616596397,66.19715713182813 77.97848636191338,66.87610588652024 78.28275067225331,67.57121696752438 78.614675374527,68.2663248917379 78.9327698808629,68.97759484869312 79.25086438719882,69.6565312697494 79.56895889359294,70.3516297237511 79.90088359586662,71.01439507733448 80.24663849401986,71.69332246396516 80.53707260848023,72.38841166855127 80.86899731075391,73.09966247106786 81.17326162121026,73.81090996875719 81.50518632348394,74.48982495184464 81.80945063382387,75.08791422795912 82.22435651166597,75.50819178076927 82.50096043030499,76.1224415130273 82.62543219368672,76.44572985585546 82.36265847098548,76.8336749659793 81.79562043794431,77.0923044932133 81.15943142521428,77.36709788713779 80.4126008451567,77.72271213526255 79.69343065691646,78.1268182327185 78.86361890123226,78.46626653015846 78.04763734142762,78.88653480799985 77.35612754512113,79.29063783324091 77.02420284290565,79.45227874464763 76.27737226273166,79.80788814902189 75.54437187855365,80.14733271901787 74.94967345369514,80.43828460852092 74.21667306951713,80.79389172251103 73.38686131389113,81.19798971309501 72.68152132158866,81.50510347248928 71.99001152510755,81.84454427934543 71.58893584326142,82.00618249429681 71.11870918166824,82.23247570850071 70.52401075675152,82.52342363524076 69.97080291970633,82.86286218427995 69.36227429891005,83.25079103310418 68.67076450248715,83.75186434137868 67.9101037264918,84.30142672928923 67.20476373413112,84.80249659904803 66.54091432958376,85.19042053325393 65.94621590466704,85.61067035277665 65.31002689199522,85.98242884698266 64.97810218977975,86.12789931643056 64.97810218977975,86.11173593773856 64.5355359200621,86.38651314299204 63.88551671151072,86.67745317574008 63.18017671915004,86.95222936567734 62.50249711872311,87.17851526947925 61.783326930424664,87.43712732152198 60.995005762553774,87.74422856594902 60.386477141757496,87.92202374165936 59.62581636576215,88.1806345378136 58.78217441414017,88.48773429093126 57.96619285439374,88.77867033096845 57.150211294705514,89.06960581828025 56.417210910469294,89.32821467616304 55.58739915478509,89.60298610912287 54.757587399100885,89.91008300945396 54.03841721091885,90.12020158641099 53.416058394126594,90.29799400325282 52.890510948956944,90.49194913158135 52.544756050629076,90.58892660359561 51.90856703801546,90.83137001503201 51.27237802540185,91.08997589745559 50.525547445286065,91.39706981547351 49.723396081419196,91.6395119473309 48.935074913548306,91.91427923267474 48.09143296192633,92.20520876212686 47.30311179411365,92.52846314656199 46.52862082212232,92.83555417970638 45.76796004612697,93.09415667728172 44.97963887825608,93.36892135241942 44.17748751438921,93.64368553458189 43.333845562825445,93.9022866673622 42.711486746091396,94.12856230030593 42.46254321932793,94.16088736343954 41.78486361884279,94.41948762284301 40.99654245103011,94.72657486359822 40.22205147903878,95.03366148853092 39.44756050716387,95.30842268359265 38.85286208218895,95.48620907652366 38.064540914376266,95.712482368981 37.15174798312364,96.03572934964905 36.377257011132315,96.40746253389807 35.78255858627381,96.84384381613927 35.31233192473883,97.28022385487566 34.96657702646917,97.66811617874191 34.70380330388434,97.9913590313954 34.12293507496361,98.4115737198008 33.36227429891005,98.81562521748128 32.58778332697693,99.0095695576747 31.882443334616255,99.12270364274445 31.301575105637312,99.20351365224633 30.789857856289018,99.25199963754858 30.001536688418128,99.46210539633466 29.019592777534854,99.62372501462232 28.162120630033314,99.80150639776548 27.276988090598024,99.9469637395232 26.40568574721692,100.07625903842563 25.575873991590925,100.22171611928206 24.690741452155635,100.36717306190985 23.805608912778553,100.51262986641086 23.031117940845434,100.6580865328142 22.28428736072965,100.78738123131916 21.42681521322811,100.91667582075752 20.5555128697888,101.06213210332498 19.753361505980138,101.17526467209973 18.89588935842039,101.27223537878308 18.1075681905495,101.48233836592408 17.25009604304796,101.59547062423371 16.46177487517707,101.74092626213678 15.631963119492866,101.88638176191307 14.81598155980464,101.98335201831651 14.290434114460368,102.09648390654183 14.0,102.14496897593199 14.428736073721666,102.16113066229445 14.663849404489156,102.69446535600582 14.995774106821045,103.2762829036219 15.134076066082343,103.50254468638741 15.452170572418254,104.03587470884668 15.631963119492866,104.4883956957492 15.631963119492866,104.76313992829819 15.839416058326606,105.19949740234006 15.894736842077691,105.31262691487791 15.701114099123515,104.86010836328205 15.604302727617323,104.52071857216652 15.410679984663147,104.16516655583109 15.28620822133962,103.90658275273745 15.17556665383745,103.6479985130718 14.954283519007731,103.2762829036219 14.677679600485135,102.75911185931182 14.650019208609592,102.48436403171218 15.217057241592556,102.37123243001406 15.950057625828777,102.24193906859728 16.62773722631391,102.12880728782329 17.38839800230926,101.99951372177748 18.149058778362814,101.87022004653409 18.937379946233705,101.72476453143463 19.71187091822503,101.61163236861466 20.486361890099943,101.53082362969872 21.233192470215727,101.3692060240428 22.007683442207053,101.23991181666497 22.699193238571752,101.11061750017689 23.390703034994658,100.99748488364276 24.16519400686957,100.86819036255474 24.99500576261198,100.73889573221095 25.797157126420643,100.59343914259807 26.571648098353762,100.48030614401796 27.332308874407317,100.35101118622697 28.05147906258935,100.23787800861464 28.784479446767364,100.10858284613641 29.489819439069834,100.01161140263139 30.181329235550947,99.91463989773183 30.6653860930237,99.84999219367455 30.997310795239173,99.8661541222391 31.467537456774153,99.73685864591971 32.04840568569489,99.62372501462232 32.62927391467383,99.52675326408644 33.389934690785594,99.34897156206716 34.10910487896763,99.02573157497682 34.717633499763906,98.65400474633498 35.16019976948155,98.2661149197229 35.54744525544811,97.81357554685383 35.94852093741065,97.34487264374911 36.40491740300786,96.92465502824052 37.04110641562147,96.6175721953914 37.8155973876128,96.32665104887565 38.54859777179081,96.11654098820873 39.295428351906594,95.79329417810368 40.11140991165303,95.51853385308641 40.94122166733723,95.22761061855999 41.78486361884279,94.93668683138094 42.64233576646075,94.62960001197644 43.40299654239789,94.37100010745053 44.191317710326985,94.11239976619254 44.96580868231831,93.83763642510166 45.712639262434095,93.57903518310923 46.41797925467836,93.30427088495344 47.09565885516349,93.06183138897177 47.81482904340373,92.8517168485705 48.533999231643975,92.59311394156248 49.26699961576378,92.33451059779327 50.027660391817335,92.07590681729198 50.70533999230247,91.84962815110339 50.995774106821045,91.78497704213078 51.54898194386624,91.60718635191733 51.90856703801546,91.44555827254953 52.171340760658495,91.38090699301392 52.69688820588635,91.18695299069805 53.33307721861638,90.99299874271674 54.052247406798415,90.70206691003114 54.78524779097643,90.42729744942335 55.545908566971775,90.15252749575302 56.29273914714577,89.86159406611114 57.02573953132378,89.60298610912287 57.78640030726092,89.32821467616304 58.42258931999095,89.10193194934982 58.97579715709435,88.92413814371685 59.29389166343026,88.7948334281391 59.819439108716324,88.63320238010783 60.48328851320548,88.3907554881007 61.13330772181507,88.16447137587238 61.72800614667358,87.95435011506197 62.26738378795562,87.74422856594902 62.86208221287234,87.55026995690423 63.52593161736149,87.32398460252443 64.23127160966396,87.03304579832184 64.79830964270514,86.77443306376517 65.24087591242278,86.5643098953733 65.83557433722308,86.25720628429553 66.47176334995311,85.80463141892687 67.06646177486982,85.40054558722477 67.66116019972833,85.01262218538614 68.21436803688994,84.57620718353428 68.6431041106116,84.22060885479732 69.18248175183544,83.84884608257562 69.68036880524596,83.5094097195688 70.19208605453605,83.18613629323954 70.8144448712701,82.83053473586915 71.49212447175523,82.47493235253205 72.26661544368835,82.1516567417857 73.05493661155924,81.76372510789952 73.88474836724345,81.40812024661864 74.65923933917657,81.02018672865233 75.29542835184839,80.71307199640432 75.94544756051619,80.40595664805733 76.69227814057376,80.05034863295441 77.42527852475177,79.74323195515899 78.17210910480935,79.40378648912883 78.91893968498334,79.096668514263 79.5827890894725,78.78954992319632 80.26046868995763,78.46626653015846 80.97963887819787,78.1268182327185 81.62965808674926,77.83586195010867 82.27967729535885,77.48024796480604 83.06799846328795,77.10846882413898 83.88398002303438,76.75285314912617 84.54782942752354,76.46189425502962 84.8382635419839,76.31641460067476 85.43296196690062,75.99312598477991 85.98616980400402,75.65367220327607 85.51594314246904,75.37887573357148 84.89358432573499,75.68600116725429 84.29888590087648,75.9446326335019 83.66269688814646,76.26792135182768 83.01267767959507,76.60737377124315 82.55628121393966,76.26792135182768 82.27967729535885,75.57284976336814 81.82328082981985,74.8131167426327 81.4775259316084,74.02105064244824 81.14560122933472,73.26130991980608 80.73069535149261,72.48540060895903 80.38494045328116,71.79031184475753 80.05301575100748,71.17604472821404 79.74875144060934,70.44861995471001 79.41682673839387,69.7050266131846 79.07107184018241,68.94526446779491 78.73914713790873,68.18549855108722 78.3795620437595,67.49039025988895 78.0614675374236,66.85994047498389 77.74337303108769,66.18099164855084 77.5497502880753,65.61519865914306 77.3699577410589,65.24339069865528 77.2316557817976,65.03323797366465 76.95505186315859,64.56443470105296 76.69227814057376,63.96630430284131 76.12524010753259,63.65915535214299 75.69650403375272,63.02868978523475 75.43373031116789,62.22039679753652 75.22627737221774,61.49292945858906 74.9220130618778,60.7816247168812 74.72839031886542,60.19964565098053 75.0603150211391,59.6823290677421 75.86246638494777,59.43983631735318 76.63695735682268,59.2458418403985 77.41144832887221,58.954849663816276 78.15827890892979,58.696189486872754 78.76680752972607,58.46986147336429 78.53169419901678,57.59687885704625 78.42105263157282,57.19271855193074 78.14444871299202,56.449060801489395 77.84018440259388,55.624566462269286 77.53592009219574,54.83240104993456 77.28697656549048,53.959397682279814 77.1348444102332,53.16722364950692 77.01037264696788,52.391212457281654 76.96888205915457,51.566696253357804 76.95505186315859,51.11401880111953 76.95505186315859,50.871512472309405 76.6784479446942,50.240994218576816 76.49865539756138,49.545804414272425 76.4433346138685,48.559599505824735 76.4018440261134,47.65422546873742 76.37418363423785,47.15303396587842 76.33269304648275,46.55483550684585 76.24971187085612,45.90813183908176 76.19439108716324,45.2452577426302 76.08374951971928,44.56621300741972 75.95927775639575,43.93566876887053 75.83480599307222,43.28895402980561 75.73799462156603,42.60990061155462 75.59969266230473,41.78533169445291 75.40606991923414,40.68589955824427 75.28159815591061,39.81281546851096 75.12946600071155,38.89122130131 75.00499423744623,38.034295427729376 74.79754129849607,37.19353330160084 74.47944679216016,36.158742802756024 74.16135228576604,35.30180162220495 73.9538993468741,34.832907246018294 73.94006915099453,34.71972562956216 73.62197464465862,34.71972562956216 73.2623895505094,35.18862035262282 72.55704955820693,35.47965773368196 71.85170956590446,35.81920064504084 71.10487898578867,36.142574145662365 70.41336918942397,36.43360971171933 69.569727237802,36.77315050568723 68.78140606993111,37.14502765337238 68.10372646944597,37.419892790174345 67.633499807911,37.11269054595323" stroke="#4dd2ff" stroke-dasharray="none" stroke-linecap="round" stroke-linejoin="round" stroke-width="0.5"><title>2024-05-25 18.7km</title><desc>1716643451000</desc></polyline><polyline fill="none" opacity="1" points="180.34348061098717,104.93840602354067 180.43042764737038,104.85878450796554 180.43456798244733,104.85878450796554 180.46769066295383,104.9046272322812 180.55049736427463,104.84430783927382 180.4614801603675,104.86843561538626 180.50702384608303,104.851546174752 180.5173746837463,104.71401741265618 180.69540909156785,104.808116127846 180.58983054738928,105.01561450373629 180.5153045162151,105.15555421613863 180.52358518633991,105.22552375433406 180.5090940136215,105.37028764307252 180.616742725324,105.45473282575949 180.64365490324417,105.48851081237262 180.59190071492048,105.56089204590717 180.55049736427463,105.65016192149415 180.4594099928363,105.72495533537403 180.42835747983918,105.87212876510421 180.44698898762726,105.98311138691497 180.41179613957502,105.80698654304615 180.52979568894807,105.6236222647949 180.45319949023542,105.5922571766514 180.40144530191174,105.50057436705538 180.4759713330859,105.34616039129651 180.52772552141687,105.16520519952792 180.39109446425573,105.27377848474316 180.2006390512397,105.25688934056416 179.89011392133398,105.15314146965648 179.66653582780418,105.07352069447188 179.68930767066195,104.77674993205437 179.87976308366342,104.48962662130725 180.0971306746069,104.20249974031685 180.32484910319909,103.95638814339327 180.4594099928363,103.8260927065221 180.39937513437326,103.74405446163837 180.13232352265914,103.54860923324122 179.85699124079838,103.2566447609006 179.6168518070117,102.95743766933265 179.47815058231208,102.90435213516139 179.27734433164005,102.70166079096816 178.96681920172705,102.38314222596091 178.6769957471406,102.04290163155747 178.407873967888,101.74367880838872 178.11184001071524,101.41549447783109 177.84271823146264,101.1548741854258 177.66468382364837,101.00284432256194 177.41005321712146,100.77600425275341 177.1719839508587,100.52985612295925 177.0167213859022,100.36334266422091 176.93391468458867,100.28129211228588 176.66272273780487,99.99893945450094 176.52402151310525,99.82276895215546 176.36461861308635,99.69969013199807 176.10791783902823,99.45111717994041 175.89676075068564,99.22667522399388 175.63384947403392,98.95154984838337 175.38128903504548,98.6788346160065 175.1080269207232,98.41335651507143 174.86581731939077,98.16235622872773 174.61946738299594,97.90169919517575 174.3813981167259,97.6796556957961 174.12055700761266,97.42140676397503 173.91975075693335,97.22349441110782 173.74585668418877,97.05937068440835 173.45810339713353,96.75766961148474 173.07926273864723,96.36424548514515 172.75838677107822,96.03598463768503 172.49754566195043,95.78254475848007 172.35884443725809,95.71737405375279 172.00484578916075,95.51944708096744 171.6570576436643,95.33600105306687 171.25751530984417,95.12600183536415 170.89937632668443,94.92565597195426 170.5557285162431,94.75427439447958 170.1893088629513,94.57564998655289 169.7939068642081,94.37529934240592 169.43576788103383,94.19184421405589 169.11075157839514,94.02045718354566 168.73812142250972,93.85631066445603 168.38619294195087,93.68009324798186 168.03012412632233,93.48697672459457 167.67405531068653,93.31075648584192 167.4173545366284,93.17557292416859 167.17721510282718,93.06211468036781 166.86047947032785,92.89796133951495 166.48370897937275,92.70966636245066 166.10900865594158,92.51171357478233 165.7425890026425,92.31375908765767 165.38030968442035,92.12063112090254 165.00353919346526,91.93232979577078 164.65161071289913,91.76092597045863 164.28933139466972,91.59193503604001 163.9374029141036,91.37948753249111 163.54200091535313,91.1839375318632 163.19214260232548,91.01494236803046 162.91059981787112,90.86767414368296 162.55246083471138,90.68177684506918 162.19432185155893,90.49829232706361 161.98730509828601,90.39206378070048 161.89414755930193,90.36067798013755 161.5422190787358,90.17960521936584 161.13853640986054,89.97438770432927 160.74727474617248,89.776411428953 160.3642937526165,89.56636157036519 159.9895934291926,89.38045377688104 159.5921212628964,89.17281472839022 159.20914026935498,88.97483156795533 158.85514162125037,88.80340575037917 158.49079213548976,88.61990627920386 158.1347233198685,88.43640534699625 157.84697003281326,88.31809476075614 157.71033897565212,88.4702082600761 157.63995327954035,88.65370892314604 157.56749741590465,88.80823466410402 157.48469071459112,88.95068716375317 157.42465585614264,89.06658007326769 157.37704200288863,89.18247240003438 157.3439193223603,89.26939126269826 157.3998138457464,89.10521091360533 157.40602434834727,89.09555320958862 157.42258568861143,89.11245418895669 157.53230456783785,88.85652374568053 157.62960244187707,88.64163655599987 157.4971117197856,88.55954429170379 157.27146345871734,88.50642561193672 156.90090347035584,88.43640534699625 156.59244850797404,88.3398253221294 156.44546661316417,88.31809476075614 156.00659109621483,88.2698045510133 155.54494373642228,88.25773198277057 155.09778754934814,88.22875779317656 154.67961370773992,88.09837348920337 154.40014109082404,87.96315935777966 154.12066847390815,87.82794443299463 153.76045932320267,87.65651008416899 153.34021531406324,87.4609284949529 152.91169063478446,87.31605217345168 152.48523612303688,87.18807733179892 152.0898341242937,87.07458961346492 151.837273685298,86.97075993473118 151.59713425149675,86.83553918659891 151.23278476574342,86.62304783625041 150.85601427478832,86.42021335559184 150.46889294616267,86.27774521233732 150.0776312824819,86.13286145132952 149.74640447724232,85.96865875411095 149.41517767200276,85.8068696578539 149.04047734857886,85.6595681492945 148.6637068576165,85.5581468910259 148.32419938225212,85.43016228504348 148.05507760299952,85.33839929972055 147.9474288913043,85.14279803214413 147.8604818549211,84.98341799358968 147.82942934193852,84.62360142757643 147.89567470297334,84.23721496437429 148.03644609521143,83.85082201980003 148.09234061858297,83.46200757653241 148.14823514197633,83.12148767283361 147.89774487051181,82.95001829774992 147.54374622241448,82.74232128868425 147.39262399252766,82.49839566547416 147.37192231719382,82.25446745864792 147.00550266390928,82.05159450675637 146.66599518853764,81.86562606414736 146.33269821576687,81.6748257115305 146.29543520018342,81.41156693334415 146.30578603783943,80.97199052189353 146.3078562053779,80.5952040613447 146.3140667079715,80.31985621008243 146.3161368755027,80.06865880674195 146.32027721057239,79.88508974030628 146.3140667079715,79.63388759327427 146.31820704304118,79.22326279687877 146.33683855083655,78.67011546299 146.34304905343743,78.25222678554746 146.35754022615583,77.79084954937571 146.3596103936943,77.36086662658454 146.3616805612255,76.93087567064504 146.3761717339512,76.52744988503764 146.37824190148967,76.33660528289874 146.25817218458542,76.26654800650613 145.87519119103672,76.22547984878292 145.45287701435882,76.18924317815436 145.10301870133117,76.1675011483967 144.64137134152406,76.13368017237553 144.2418290077112,76.09744335719552 143.82779550116538,76.06845386397436 143.40548132448748,76.03221694608146 143.09288602704328,76.00564317003591 142.77615039454395,75.98631676817604 142.4304324165787,75.9645745466787 142.03503041782096,75.92350585004169 141.64583892167138,75.8921003266878 141.30012094370613,75.86552638882495 140.90264877742447,75.83895242028666 140.5403694591878,75.80754678153062 140.46377326047514,75.45241849912964 140.4761942656769,75.09003705094074 140.48861527087138,74.6889949286251 140.48861527087138,74.37733688621665 140.50103627607314,73.96661828959441 140.50931694619067,73.57763685824466 140.51552744879882,73.25871549844305 140.51345728126034,73.16448788692105 140.50931694619067,72.88421886360993 140.52173795139242,72.84072853670659 140.51345728126034,72.54112627262293 140.50517661113554,72.3647456955041 140.5507202968438,72.20044476309704 140.5341589565869,71.94432626311209 140.5279484539933,71.64954483670772 140.5382992916493,71.20978191601534 140.5279484539933,70.7965904110115 140.5258782864621,70.45105029461592 140.5403694591878,70.09342288843072 140.51966778385395,69.75753802995132 140.5238081189309,69.36606891005795 140.51966778385395,69.10991884169016 140.49896610853466,68.85134936908798 140.50103627607314,68.6169427548266 140.50103627607314,68.91176305758927 140.47826443321537,69.10750231802194 140.3788963916304,69.29599040132052 140.03938891626603,69.38298438016864 139.64812725258525,69.34915342750719 139.50114535775356,69.20899609333355 139.29826893955033,69.07367096002599 138.98360347457492,69.05433873310358 139.02086649017292,69.05675526236337 139.3665844681309,69.09541969587917 139.7412847915548,69.17033185080618 140.1035641097842,69.22832819021642 140.4306505799541,69.25007677978647 140.45963292542,69.55938782691192 140.45549259035033,69.85902893610364 140.23605483187566,69.98468372310344 139.96072255002218,69.96776869561836 139.61914490711933,69.96051939431527 139.2009710655111,69.94360434905502 138.82834090961842,69.93152216624367 138.42465824073588,69.91702353849723 138.00855456665886,69.90010846124096 137.60694206530752,69.89044269722217 137.20325939642498,69.87836048648387 136.77059438209108,69.87111115699554 136.35242054047558,69.84936315481355 136.20129831058148,69.64396434195442 136.1909474729182,69.22591167899736 136.18059663525491,68.81993418832826 136.1764563001925,68.6894399010962 136.15368445733475,68.401866542481 136.13298278200818,68.11428958682882 136.10814077161194,67.7445425009173 136.07294792355242,67.39170640332304 136.04189541056985,67.08478292783366 136.0315445728993,66.8793594148392 135.99635172484705,66.5047588708876 135.95701854172512,66.12773538505462 135.93631686639128,65.77487446884152 135.9094046884711,65.43409268828327 135.88249251055822,65.22140362598839 135.84108915988327,64.87336273277651 135.81210681442462,64.45280628753608 135.78519463651173,64.0999196535995 135.7458614533898,63.69385161565333 135.6920370975422,63.302279211327914 135.63614257414883,62.94212339240221 135.61958123389195,62.64239209794505 135.52849386245362,62.270139723877946 135.46845900399785,61.92447140423792 135.41049431308784,61.55945935095042 135.35874012476415,61.24037121551737 135.32147710916615,60.96237415127325 135.29042459619086,60.628773233089305 135.27386325591942,60.336264093575664 135.24902124553046,59.98089673866343 135.22417923513422,59.630358926988265 135.20554772733885,59.30399132729872 135.13723219876556,58.929267252457066 135.0564956649905,58.5690428615726 134.97575913120818,58.24266017847913 134.89088226237072,57.92110825790587 134.7977247233939,57.59713409986398 134.68800584416022,57.25623098300275 134.58242729998892,56.94191866005349 134.4975504311442,56.68321221204678 134.38990171944897,56.330206187731164 134.30916518566664,56.0473138805628 134.20151647396415,55.65077520601699 134.1166396051267,55.40656200430931 134.0027803908306,55.08497035955406 133.86200899860705,54.722267609588016 133.7999039726201,54.499807087317095 133.64878174273326,54.226564582240826 133.53492252843716,53.90012015667344 133.45832632971724,53.65830647750772 133.28650242450385,53.305253930437175 133.14366086474183,52.944941279019986 133.0049596400495,52.594296018894966 132.86625841536443,52.255736890554545 132.75860970366193,51.98004933905577 132.64682065688248,51.697103407754184 132.53503161012486,51.399643666522024 132.44808457374165,51.17231411005014 132.2700501659274,51.271468768023624 131.90984101523645,51.40206205395407 131.54342136194464,51.53023622291039 131.22461556190683,51.660828036019666 130.8913185891288,51.73337872213415 130.78159970990237,51.37545977821355 130.69879300858884,50.9764219408371 130.62012664234499,50.64025740690704 130.5414602761084,50.25088081859212 130.46279390985728,49.86875326926929 130.3510048630851,49.48903794360194 130.2350754812578,49.145595738727934 130.18332129293412,48.94726761633865 130.03840956564818,48.60139861707103 129.9100591786264,48.22166231068695 129.78584912665974,47.834663427898704 129.653358404561,47.44282040575308 129.57055170324747,47.20335748521029 129.43392064608634,46.81392254730781 129.30350009153335,46.42448099576359 129.1813602070979,46.05196549651555 129.05300982006884,45.681862935900426 128.94536110836634,45.36739201342789 128.81908088886848,45.02872619627851 128.6928006693779,44.648930721941724 128.57480112001213,44.30299688463856 128.4795734135041,44.0126987271542 128.36157386413834,43.67643209929338 128.24150414723408,43.31112966889668 128.1731886186608,43.117589598190534 128.03862772903085,42.74985896162434 127.93718951992923,42.428089814920895 127.82333030562586,42.11841298685249 127.68462908093352,41.72163343570173 127.5459278562339,41.31758866274322 127.423787971813,40.954668123033116 127.31613926010323,40.640132339345655 127.18571870555024,40.25784457433656 127.06978932370839,39.91910325047138 126.94971960681141,39.568258742710896 126.86898307303636,39.30451692029237 126.79859737692459,39.06012958584142 126.64333481196809,38.67055626668116 126.53154576520319,38.34872983237619 126.41561638337589,38.00996028030022 126.30175716907252,37.6760253901266 126.17754711710586,37.31788690937174 126.0533370651392,36.96216274015569 125.95603919110727,36.61127294309881 125.88772366251942,36.31361738383748 125.79870645861229,35.96513766714088 125.71382958978211,35.61181254081566 125.61653171573562,35.26332214492504 125.56270735988073,34.93660758225997 125.52751451183576,34.79623989416359 125.27495407283277,34.885784898004204 125.01204279617377,34.96806918740913 124.63320213769475,35.07213418882384 124.2378001389443,35.19555950765425 123.90243299863505,35.304463648295496 123.53394317780476,35.41820742002892 123.18822519983951,35.56341141406483 122.82180554655497,35.70861448743926 122.45745606078708,35.810256091017436 122.15314143347496,35.9385174707877 121.9585456854038,36.006277909738856 121.80949362304091,36.08371816590443 121.51552983339207,36.173258135679134 121.16567152035714,36.25311781338496 120.83651488265605,36.32813725696542 120.72679600342963,36.04015805403287 120.6853926527765,35.68441403914585 120.6419191345849,35.41336727104499 120.6005157839245,35.15441780862966 120.5363405904136,34.76719819609934 120.48044606702751,34.44773708635512 120.3727973553323,34.106489614072416 120.2610083085674,34.058085305438 119.97325502151216,34.20571812687558 119.64202821627259,34.33882887115033 119.38532744221448,34.348509622361235" stroke="red" stroke-dasharray="none" stroke-linecap="round" stroke-linejoin="round" stroke-width="0.5"><title>2024-05-01 58.8km</title><desc>1714551575000</desc></polyline><polyline fill="none" opacity="1" points="19.230600350660097,114.1203490085627 19.501613088257727,114.0024561084465 19.60875765892706,114.21859263509396 19.665481255164195,114.47156806161547 19.70539785992878,114.73927692151119 19.753717960418726,115.02171870565871 19.802038060923223,115.31152496822324 19.848257287492743,115.63325480641106 19.87136690078478,115.82727293774224 19.896577387989964,116.17355443826818 19.896577387989964,116.29143632519663 19.921787875216978,116.38967077426241 20.199103234612267,116.32336256668168 20.552050055659493,116.24477481645044 20.85667677620222,116.17355443826818 21.16340437069448,116.09251029420193 21.26424631955888,116.04584838608571 21.533158183214255,115.94024477443963 21.833583155894303,115.83955251181033 22.15711774185911,115.66272601929268 22.472248832084006,115.48344222975356 22.75796768721193,115.32626078333124 23.06679615563189,115.33362868738004 23.375624624051852,115.24766966146308 23.63613299197459,115.18135819566487 23.963869325809355,115.09048662041096 24.257991676677193,115.00943869946059 24.55001315361733,114.92102246332615 24.78321016038535,114.88418226565045 24.85884162203729,115.18135819566487 24.947078327299096,115.54238499809799 25.026911536828266,115.87393528467692 25.10674474635016,116.20302496604927 25.17817446011759,116.4977281887077 25.209687569149537,116.6426225696614 25.291621652613685,116.89066000665116 25.40506884509523,117.20991221792247 25.49120467641478,117.47022231433039 25.5878448774165,117.74771949012029 25.67608158267103,118.01539061840231 25.781125279427215,118.29533694159545 25.89247159795923,118.63421482270132 25.987010925033246,118.95589867617309 26.037431899465446,119.09095545600758 26.127769478669506,119.30950021971148 26.213905309981783,119.55505368332342 26.308444637063076,119.83498146870807 26.38617697264999,120.08298484916122 26.440799694959424,120.24995593224958 26.5416416438311,120.48076692590439 26.604667861873168,120.66492299048696 26.6424835926955,120.81470218094364 26.73702291976224,121.08970408462119 26.837864868633915,121.41380929637671 26.94500943930325,121.74036528256329 27.054254883914837,122.05955091320538 27.11307935408695,122.21177636359243 27.22652654657577,122.53095552508603 27.325267621512467,122.85258548043203 27.396697335294448,123.06127429388471 27.482833166628552,123.24295479524517 27.55216200646828,123.44918499617052 27.640398711730086,123.73397607748848 27.724433669121936,124.00648841693146 27.81056950045604,124.27163249411933 27.87359571849811,124.48276357960822 27.92191581899533,124.60305834125211 28.03116126360692,124.90502000272681 28.140406708225782,125.21679744346147 28.25595477463503,125.58012336323918 28.379906336791464,125.94589845713017 28.487050907468074,126.27484564448059 28.59839722601464,126.59887862597134 28.722348788171075,126.95236400548674 28.82739248490543,127.27884226005335 28.953444920996844,127.6372266497765 29.0752956092183,127.97842309830594 29.20134804530244,128.3245237381161 29.310593489914027,128.66816467179888 29.413536312713404,128.93325564000043 29.440847673875396,128.9970733851751 29.531185253079457,128.95780094730617 29.564799236024555,129.03389123550005 29.827408477874997,128.94798282749252 30.169850929254608,128.8252559803459 30.510192506691965,128.70989215403824 30.66985892574303,128.8669831809766 30.80431485756708,129.1443444370616 30.972384772358055,129.43397478775478 31.127849443531886,129.71132928829684 31.283314114705718,130.00095258493275 31.424072668349254,130.03531443187603 31.474493642774178,130.3200249268957 31.554326852303348,130.68572554060302 31.655168801175023,131.05142041027284 31.741304632509127,131.34348131498336 31.80433085054392,131.4760119457187 31.913576295148232,131.71898280957248 32.018619991889864,131.974222198598 32.12366368863877,132.25400062244807 32.264422242267756,132.60494599785125 32.38837380443147,132.92643677007436 32.50602274477569,133.21602007860383 32.648882172339654,133.54731860015636 32.74552237334137,133.777997750567 32.62577255906217,133.83198615797482 32.56694808888278,133.8663423520684 32.59425945003022,133.83689418880567 32.57535158461542,133.8270781261017 32.7644302387489,133.8172620592759 32.86947393549053,134.0896563784081 32.991324623719265,134.40867270200397 33.136284925218206,134.75467777509766 33.28964872245706,135.13257815298675 33.41570115854847,135.4736647886184 33.514442233477894,135.78284692001034 33.61738505628455,136.1460079925364 33.71402525729354,136.48217231827766 33.795959340750414,136.67110926269015 33.903103911427024,137.0268954534149 33.99554236455879,137.34341791163206 34.09638431342319,137.6844721819507 34.18672189262725,138.01816073738337 34.279160345766286,138.32730910538885 34.37369967282575,138.67080248202 34.447230260549986,138.9995699718911 34.51025647858478,139.3087053210984 34.55857657908928,139.59820931093236 34.57748444450408,139.83618871125327 34.59849318386114,140.15021966508903 34.62790541893628,140.5623788713765 34.657317654025974,140.75864259860646 34.66992289764312,140.93773180778953 34.70773862845817,141.32534483656127 34.74975610715774,141.68596636061739 34.80858057732985,142.04658230628957 34.859001551769325,142.39247399266242 34.91782602194144,142.75553208672318 34.9409356352262,142.91743454921925 34.982953113918484,143.11367845109453 35.03127321443026,143.4129472214645 35.0795933149202,143.7539126968186 35.10270292821224,143.94524365742654 35.1279134154247,144.19789623862926 35.134216037229635,144.34016541946767 35.16783002018201,144.48243373236073 35.19724225527898,144.82338357049593 35.22035186856374,145.15206430714534 35.23295711216633,145.48564599013298 35.23295711216633,145.57394622524225 35.26026847332105,145.72601806872262 35.29178158234572,146.00563145138585 35.31699206955818,146.29259959552292 35.33589993496571,146.54522674901818 35.3632112961277,146.83218825475888 35.38422003547021,147.1559354591427 35.40102702695731,147.393837737789 35.43464100990968,147.69305159209398 35.455649749259464,147.95302116949279 35.47455761466699,148.14677019691408 35.501868975828984,148.46804668357254 35.52497858911374,148.72555517726505 35.539684706651315,148.9315599259553 35.550189076326205,149.0664430022698 35.54808820239123,149.34846873313472 35.55228995025391,149.64030046601874 35.560693446001096,149.93948551248832 35.57539956353867,150.21659610910865 35.59850917682343,150.4618239810461 35.60271092470066,150.88851433550553 35.604811798621085,151.27596203719077 35.60691267256334,151.6560468870939 35.60691267256334,152.02141294032663 35.609013546505594,152.45052684065377 35.61531616831053,152.75212788980207 35.60691267256334,153.12238076004542 35.57750043748092,153.27440341674264 35.636324907653034,153.44849266246456 35.6489301512629,153.73046544701538 35.66993889060541,154.04185752138073 35.68674588209251,154.31646755788643 35.70355287356506,154.62785181654908 35.70355287356506,154.9784606176545 35.684645008150255,155.27512549116727 35.65733364699554,155.62082112586722 35.636324907653034,155.85373373874972 35.617417042245506,155.9591565787432 35.73926773045969,155.96896333036057 36.077508433962066,156.0081902956481 36.4199508853344,156.05232055283705 36.76449421065627,156.08174067795335 37.16155938433076,156.12832246693324 37.47879134849063,156.15774249630704 37.821233799862966,156.19206581706203 38.10695265500544,156.18961415297053 38.407377627678216,156.22148576613654 38.70780260035099,156.24109904492252 39.016631068778224,156.263163963873 39.32125778932823,156.2852288619706 39.64269150135078,156.31219704245086 39.913704238941136,156.33426189421152 40.08597590159479,156.33916519177365 40.401106991826964,156.36858495552588 40.724641577784496,156.39800468221983 41.058680533424194,156.43477928846005 41.350702010357054,156.45194075155268 41.66163135271199,156.47645710553115 41.93054321636737,156.50832832722335 42.1532358534605,156.49116690556548 42.51248529631266,156.52794136510784 42.846524251945084,156.5647157667372 43.188966703324695,156.59413524634874 43.548216146176856,156.6284579257226 43.875952480004344,156.65297409439336 44.25200891433633,156.68484507518224 44.61966185293568,156.7069095748684 44.865464103306294,156.7240708379868 45.11336722761189,156.74123208849596 45.28563889027282,156.75349011686012 45.54824813212326,156.76574813878324 45.86337922234088,156.79271576436804 45.9095984489104,157.10406700459316 45.90119495317049,157.39580180156008 45.89699320530781,157.7316600385857 45.88858970956062,158.06996491317295 45.882287087755685,158.3665905179787 45.87388359201577,158.72694878828224 45.869681844145816,159.04562834102035 45.86758097022539,159.4035248097207 45.86758097022539,159.7099386625523 45.865480096283136,160.0089947076267 45.8591774744782,160.26637594367457 45.865480096283136,160.4453155131032 45.85287485267327,160.84976291518615 45.84657223086833,161.3350905567695 45.8402696090634,161.81060382285068 45.82556349152583,162.23708687161525 45.81505912184366,162.6415032626919 45.810857373973704,162.9699332429118 45.76463814741146,163.31796594634216 45.674300568214676,163.67334610553917 45.53144114064344,163.9870565144629 45.3570686040548,164.27380375194844 45.29824413388269,164.3791886048366 45.36757297372969,164.3228200216945 45.45791055292648,164.39634423359894 45.64698920705996,164.52378565305662 45.882287087755685,164.71249570957298 46.15119895141106,164.8840489844515 46.27515051356022,164.9771773778648 46.49784315066063,165.19774314554707 46.75835151858337,165.38644776160436 47.00205289501173,165.5800522132031 47.262561262941745,165.65112179947027 47.46004341281514,165.6462204556301 47.537775748402055,165.73444448754344 47.65542468874628,165.94274990852864 47.710047411048436,166.02607155725673 48.03358199701324,166.07508415309348 48.3550157090358,166.21231887481372 48.68065116893558,166.29073835413146 48.953764780460915,166.39856470873383 49.21637402231863,166.5284457938069 49.43696578547679,166.62891934580512 49.66596104436758,166.74164525606466 49.90966242081049,166.8519200771807 50.20378477167833,166.95729330922222 50.51681498796097,167.07001763638618 50.68908665062918,167.15578578214263 50.922283657389926,167.2783111589324 51.1911955210453,167.44249415727427 51.40548466239852,167.56501803176616 51.67229565211164,167.6973430951457 52.03364596890606,167.81251430009252 52.34667618520325,167.9056310298165 52.645000283941044,167.9962969630178 52.95172787842603,168.0845121281909 53.21013537240651,168.21438384911744 53.4181218919548,168.3123997647035 53.60299879821832,168.39816335385513 53.79838007415674,168.491277751682 54.067291937812115,168.62359757399827 54.388725649841945,168.77796975383717 54.75217684056406,168.90048663162816 55.09882103980635,168.93234091472004 55.40134688642138,168.96174482983588 55.65135088466923,168.96419515443267 55.96017935308191,168.97399645023143 56.1891746119727,169.01320159235001 56.38245501398342,169.03280413876746 56.69548523026606,169.118565086148 56.99170845507615,169.16022028998304 57.33835265431844,169.26558312146517 57.45600159466994,169.30968835186286 57.77743530669977,169.45670518582847 58.07575940544484,169.60127083810403 58.35097389090515,169.7115321756337 58.5022368142163,169.77768872866363 58.718626829497225,169.85854648380518 59.025354423989484,169.98105770143957 59.34678813600476,170.11826950340583 59.68082709164446,170.24812993176965 59.97074769464962,170.3681889317104 60.27537441519962,170.4416941377549 60.643027353791695,170.62790629266965 61.00017592271615,170.80431644050987 61.32581138260139,170.96847468868327 61.592622372336336,171.09833039732257 61.817415883349895,171.22573529772308 62.084226873084845,171.36538987217864 62.34893698886299,171.49279331818798 62.605243608908495,171.62264611652063 62.83213799387886,171.73044789212508 63.11365510112955,171.88479956967967 63.388869586604415,172.0440502331876 63.655680576317536,172.17389997194368 63.94770205325767,172.32334877924404 64.26493401741754,172.4825964577958 64.54645112468279,172.6344932335178 64.8090603665405,172.76433969551908 65.09057747380575,172.9162346422363 65.39520419435576,173.0681286029212 65.676721301621,173.20287242016275 65.9750454003588,173.35231465544712 66.27126862516889,173.50420578544254 66.55488660636911,173.64874642913674 66.78178099132492,173.76878798000507 67.02128061989788,173.88882891510366 67.30910034896806,174.02601780123223 67.59271833017556,174.17545477988278 67.88473980710842,174.332240092368 68.20827439307322,174.49147410024852 68.5065984918183,174.64825729562654 68.813326086296,174.8148382898944 69.10534756324341,174.98876718041356 69.39946991411125,175.12594961891773 69.7482149872958,175.30477551901095 70.07805219506554,175.4713518406752 70.39108241134818,175.63547735107932 70.64738903140096,175.7677567756291 70.95621749981365,175.92208182613285 71.2755503379085,176.08620417611564 71.58017705845123,176.23317843822952 71.86799678752868,176.37770222943072 72.18522875168128,176.58101384888687 72.36590391008212,176.7402325589428 72.42472838025424,176.7843237025645 72.67893412636477,176.95578847168144 72.95414861183235,177.2129832706196 73.17894212285319,177.4407820186134 73.38692864240147,177.65878089543003 73.58441079227487,177.8473850274877 73.82391042083327,178.09477255959246 74.09912490630086,178.37644825029201 74.37013764389121,178.65567124264635 74.64535212935152,178.9422387461782 74.90375962333928,179.20431023044512 75.15586449551483,179.4614803309887 75.4058684937554,179.71374920934977 75.65587249199598,179.95866785050202 75.89327124663396,180.20603307808415 76.12646825340198,180.43625183355834 76.33655564688524,180.6787138207037 76.5571474100434,180.87953902060872 76.6768972243226,180.99954350105145 76.71681382908719,181.03383038252832 76.74832693810458,181.05832098142673 76.85757238271617,181.16852835955433 77.05085278471961,181.369349359642 77.15379560751899,181.46731019827712 77.34287426165974,181.6730266258637 77.52565029398829,181.87384330057284 77.7609481746913,182.1040456633582 77.9668338203046,182.32689898708668 78.09288625638146,182.4322025672991 78.32188151527953,182.6354616276294 78.56558289172244,182.89994065610335 78.80298164636042,183.1521725033981 79.04878389673831,183.40195282159584 79.29878789497161,183.66642319707353 79.34290624761343,183.73988666043806 79.47316043156752,183.85987648856099 79.65383558996109,184.023943218157 79.88283084886643,184.2492270048424 80.10342261201731,184.4671625198025 80.31140913155832,184.6924420450341 80.35552748418559,184.79283765749278 80.44376418944739,184.86384892852766 80.51939565109933,185.0621896145567 80.647548961133,185.21890205575437 80.76729877541948,185.35602458209723 80.71477692703775,185.4147911334694 80.58242186915595,185.59108990336426 80.47107555060938,185.738004531775 80.41435195436497,185.8286014268524" stroke="red" stroke-dasharray="none" stroke-linecap="round" stroke-linejoin="round" stroke-width="0.5"><title>2024-05-01 52.5km</title><desc>1714541844000</desc></polyline><polyline fill="none" opacity="1" points="186.0,148.30394220046128 185.80136019505153,148.3376928763555 185.52303349159774,148.37684354870726 185.23893237521406,148.38089361141647 184.97330938021332,148.3795435906577 184.81624534839648,148.38089361141647 184.58411394841823,148.38764371307298 184.28037982805836,148.38764371307298 184.01475683305762,148.38764371307298 183.74451430771296,148.40114390568942 183.48697549082863,148.40654397874823 183.20864878737484,148.40114390568942 182.9511099704905,148.36604337521476 182.7212883356915,148.345793025308 182.43603233671456,148.37009344134276 182.20736558450153,148.4564945462971 181.99486718850676,148.47674472075505 181.7869883228559,148.46189459595917 181.66341588606156,148.18378907061924 181.5918131656581,148.0123326478115 181.49711279353505,147.79497119803636 181.43128448607604,147.5897569944218 181.34004876171093,147.38183924200257 181.29847298858658,147.25627688248915 181.18529449506605,146.98219561680799 181.08828435776377,146.74726413674307 180.9866546901103,146.52448029322386 180.69562427820347,145.73998018731072 180.51315282946598,145.74268078668774 180.41036827922653,145.50772650416638 180.34569485436077,145.4510127537951 180.16784293597448,145.6225035615853 179.94379571410536,145.60629980425438 179.78095726935135,145.53743360621957 179.62851276787114,145.51177747670044 179.35249582958932,145.52122974093982 179.16771461568715,145.56173936558025 178.91825997690466,145.64545884926974 178.7912228923451,145.69406991050255 178.61799050430272,145.75078258139638 178.3465930963721,145.84800371695565 178.08558963172254,145.9479246683468 177.97010137303732,146.01678865273607 177.76453227255843,146.1248098409369 177.68138072629517,146.18017034577315 177.4065186706066,146.31519496088367 177.28410111639096,146.34625042043717 177.0242525343274,146.42591408006865 176.85679455922218,146.47317194842253 176.57384832542448,146.56228631013073 176.41562941101438,146.61764491870144 176.22391890158178,146.7810189255615 175.97330938021332,146.93088911064024 175.82894905684952,146.9808454482336 175.61298601308954,147.07670706238696 175.32888489670586,147.19957089621857 175.12331579622696,147.29003032623314 174.92583087386447,147.38993999701142 174.742204542541,147.4709472645509 174.594379571412,147.5506039100528 174.35300911074592,147.73016706880298 174.14397536250908,147.87867604511212 174.00192480431724,147.94347942104196 173.72359810087073,148.04473403789598 173.53073270884488,148.11628681656657 173.3043757218038,148.1635384318497 173.0075708969598,148.22024013951977 172.85050686513569,148.22429025186648 172.57333504427515,148.2364405812059 172.31810599256278,148.1621883881271 172.16104196073866,148.11223666998467 171.93699473886954,147.96238034376984 171.71987681252358,147.8030716910771 171.52354677274707,148.0042322874533 171.30527396381513,148.118986913576 171.11009880661732,148.20133959825853 170.82484280764766,148.30529222920995 170.5303477479829,148.41329406685054 170.29590658283269,148.49429484599295 170.15501090722682,148.55774509766343 169.96214551520825,148.66709479199199 169.7773643012988,148.719744311069 169.51751571923523,148.74809396225555 169.29115873220144,148.8020931238525 169.18952906454797,148.81154295367105 168.95046836905385,148.88579137336455 168.71718208648963,149.00998776558754 168.50006416014367,149.13283300959938 168.21711792634596,149.26377663978292 168.09123572437238,149.34477202806283 167.83485179006675,149.46896395977092 167.57962273836165,149.6228522878846 167.40177081996808,149.73354274657322 167.27357885282254,149.7969868455657 167.00333632747788,149.86043062962653 166.69729244193877,149.96032020457733 166.45245733350748,150.0318622582081 166.20531245989696,150.09530487642314 165.9396894649035,150.18034448775325 165.67291158732405,150.31667665233 165.40613370973733,150.45435716460997 165.26870268189668,150.51239850485217 165.04003592968365,150.61498255471815 164.82407288592367,150.7094671355062 164.63929167201422,150.78100499641914 164.46028487104195,150.8646902879109 164.4152444501524,150.88763615923745 164.27550365712523,150.92677902115156 164.05261131784937,151.0455566271321 163.81239573976927,151.1751309387264 163.5767996920331,151.29795537584232 163.32157064032072,151.43967441400946 163.08366482741258,151.55439819913954 162.92313614782324,151.6353790747562 162.69331451302423,151.74605210865047 162.51430771205196,151.83917867548917 162.29372513794806,151.93635350036948 162.18747593995067,151.71096076259528 162.07083279866492,151.47341681061152 161.95187989220722,151.2655622322618 161.84332092903787,151.1143931436809 161.6978057230881,150.91193174280943 161.57538816887245,150.72026532884502 161.4864622096793,150.61903190821977 161.28320287437964,150.73241328544646 161.0545361221666,150.85659173525437 160.90555626844434,150.92677902115156 160.62491979982588,151.01586232909358 160.37200051327818,150.99696592170494 160.21840112921927,150.93352777833297 159.94238419094472,150.76615754877002 159.61208777107822,150.66087515260915 159.29103041190683,150.60958341472178 159.01732323880424,150.58798683193618 158.75170024381805,150.5569416802582 158.5103297831447,150.49350135324403 158.33478762992308,150.48675236375584 158.14076735531853,150.46245597209236 157.87629924291105,150.43950933756878 157.59912742204324,150.40981363173887 157.32311048377596,150.38686690271516 157.04824842808011,150.3598706981802 156.80341331964883,150.32612536233137 156.5655075067407,150.31397701962214 156.32182728089538,150.33692387949577 156.09893494161952,150.44490854939613 156.00538945207518,150.3949657529547 155.89336584114062,150.21678986226925 155.75939946105063,149.99811605638934 155.63813678942824,149.8077858097713 155.54690106506314,149.66739856336062 155.4291030411914,149.47706339165688 155.33555755164707,149.306974244083 155.18542281535338,149.0950345987585 155.0225843705848,148.8412423733189 154.87706916463503,148.61714504771862 154.76735531887243,148.4375943545101 154.56871551392396,148.4551445335237 154.43474913384125,148.5361450473638 154.22456050301844,148.6468449192016 154.0109072244304,148.7359441194485 153.84922366226238,148.80479307594214 153.60669831900304,148.90334093680121 153.35377903246263,149.00728785685624 153.1135634543898,149.13418295077736 153.04080585140764,149.1746811197636 152.8652636981933,149.25162728726445 152.63775182856625,149.34342210913383 152.43680225843855,149.41496761601684 152.2127550365767,149.4959620460977 152.10188630822813,149.51756047409435 151.74618247144826,149.9360228122532 151.59258308738208,149.98731725298967 150.79686898498767,149.91982452503999 150.61901706660137,149.94142223675954 150.3730270755841,149.98326769936375 150.0866161940212,150.0278127186948 149.8325420248948,150.05615946834587 149.59463621198665,150.07910679107044 149.36827922494558,150.0912553570097 149.12921852945146,150.10340391139835 148.8832285384342,150.10340391139835 148.56332606184878,150.1128527790579 148.42358526883618,150.12500131292109 148.22841011163837,150.11960196596192 147.90504298729502,150.12095180291726 147.6082381624583,150.13445016461355 147.28833568587288,150.13310032908612 146.96496856152953,150.11825212886743 146.6600795585764,150.1128527790579 146.38290773771587,150.11420261672174 146.09303220839502,150.1101531032955 145.81239573976927,150.1088032652042 145.5294495059643,150.1074534269692 145.25227768510376,150.11150294124582 144.9970486333914,150.1088032652042 144.7187219299376,150.1128527790579 144.45771846529533,150.10610358858867 144.1724624663184,150.1074534269692 143.9576543051444,150.09935439455512 143.73822661362647,150.1074534269692 143.42294366739225,150.1101531032955 143.13075837289944,150.1128527790579 142.85474143462488,150.11555245424825 142.58218914410827,150.11555245424825 142.34543821377883,150.1128527790579 142.19068394713395,150.10610358858867 141.87078147054854,150.1088032652042 141.59938406262518,150.1128527790579 141.31874759399216,150.11150294124582 141.1201077890437,150.11825212886743 140.87873732837033,150.1101531032955 140.56229949955014,150.11555245424825 140.28628256127558,150.12500131292109 140.06223533940647,150.11960196596192 139.75503657128138,150.12365147639503 139.45476709867944,150.12365147639503 139.18105992557685,150.122301639728 138.9304504042084,150.12365147639503 138.67868600025395,150.12365147639503 138.41306300526048,150.12905082164434 138.19363531374256,150.13040065760197 137.92916720133508,150.12770098554756 137.61850378544477,150.12905082164434 137.38406262029457,150.13984950529994 137.13460798151937,150.13714983524096 136.81355062235525,150.13175049341407 136.50404208905093,150.12500131292109 136.3793147696706,150.14119934011433 136.04093417169497,150.14119934011433 135.8342101886301,150.14254917478956 135.62517644039326,150.14119934011433 135.28910560759687,150.1438990093211 135.01077890414308,150.1357999999982 134.7359168484545,150.13849967034093 134.47491338380496,150.1438990093211 134.19658668035845,150.15199801350627 133.92865392018575,150.15334784703919 133.66649557295023,150.15334784703919 133.46785576799448,150.162796677776 133.21031695111014,150.162796677776 132.93083536507038,150.15739734678027 132.68831002181832,150.15739734678027 132.4700372128791,150.1587471797411 132.17207750544912,150.162796677776 131.89721544976055,150.162796677776 131.8186834338485,150.16819600648614 131.77364301295893,149.97516858826475 131.63736686770426,149.95492078805455 131.36019504683645,149.94682165898848 131.15347106377158,149.92252424100116 130.96291543693224,149.93062338546315 130.6672654946742,149.91982452503999 130.38316437829053,149.91307523264277 130.11292185294587,149.89282733406526 129.8345951494921,149.87797885472537 129.5655075067334,149.86717994982519 129.27909662517777,149.87122954023107 128.9961503913728,149.8806785795232 128.7224432182702,149.89147747302195 128.46952393172978,149.89957663715813 128.19697164121317,149.90227635739302 127.93712305915687,149.9090256554946 127.69575259848352,149.91712480851038 127.4809444373168,149.9211743830947 127.35506223534321,149.92792367121274 127.06634158860834,149.9346729557683 126.79032465032651,149.9427720925296 126.67599127422,149.98866710391485 126.67252662645478,150.30182866536052 126.65866803540848,150.57718852685866 126.6424996791975,150.85929125338134 126.59745925830794,151.08874821024529 126.55472860259033,151.25476449949656 126.42884640061675,151.5274044599537 126.29603490312002,151.80678690308196 126.17592711407633,152.06591878479594 126.05928397279786,152.33989105284854 125.99461054792482,152.62465403654096 125.99923007827601,152.90941067965105 126.06043885538384,153.27243246724447 126.11471833696851,153.56797047766668 126.16206852303003,153.83381390448903 126.07545232900884,154.0200359586188 125.80059027332027,154.05512096968323 125.52803798280365,154.0956035551908 125.26472475298215,154.13068835900322 125.06839471319836,154.17117070537643 124.96676504555217,154.17791775065052 124.71731040677696,154.21165292365095 124.49095341973589,154.25618321579623 124.24380854613264,154.2777736046737 124.13524958295602,154.2737254095382 124.14217887847917,154.2777736046737 124.3708456306922,154.28317119620442 124.63069421276305,154.23459279047438 124.8882330296401,154.19680945848904 125.10650583857205,154.1684718862698 125.29244193506747,154.14283307636651 125.55344539971702,154.10504947337267 125.8225330424757,154.06591633834523 125.99461054792482,154.04162674604504 125.96342871808156,153.9012859764007 125.90221994097374,153.65298699679806 125.85833440266288,153.46945856624188 125.81675862953853,153.3021215256831 125.76132426536788,153.08889857619306 125.69087642756494,152.79469905048336 125.63197741562908,152.53153318984732 125.57423328628647,152.27106113365608 125.53612216091278,152.11045654811733 125.4587450275867,151.84052833089027 125.34556653406617,151.62323197611386 125.2046708584603,151.38703609749518 125.16771461567987,151.11574287559233 125.20813550622552,150.90653272822692 125.27511869627051,150.67572272253528 125.33979212113627,150.44355874665325 125.41485948928312,150.18574380905102 125.47606826639094,149.97516858826475 125.53150263056887,149.77133926900115 125.390606954963,149.65794936638213 125.14115231618052,149.59450457719686 124.89169767739804,149.5310594730563 124.61799050429545,149.45951461608183 124.36391633516905,149.39741875517575 124.10522263569874,149.3339726726208 123.86731682278332,149.26917634830443 123.67214166559279,149.22327875314113 123.39150519697432,149.1463324149463 123.12819196715282,149.07478540410466 122.93186192736903,149.02483725343882 122.66508404978958,148.9546395225052 122.38444758116384,148.88174147069185 122.13037341203744,148.81829282783656 121.84627229564649,148.74539399818514 121.61298601308954,148.69409457246184 121.38316437829053,148.62794500897598 121.14872321314033,148.48079475179657 120.98126523803512,148.31744248151972 120.78724496343057,148.1270872011828 120.5897600410608,147.9326788812141 120.40844347490929,147.75986900217595 120.20402925702365,147.61405884849773 119.91992814063997,147.5344025986633 119.66123444116238,147.55735445040318 119.51340947003337,147.6073083381134 119.28705248299957,147.76391926046654 119.05376620042807,147.9637304086118 118.83895803926862,148.118986913576 118.60451687411842,148.22429025186648 118.3573720005079,148.28639181376002 118.12408571795095,148.30934231459833 117.92775567817444,148.31609245405343 117.7475939946089,148.32554264330793 117.48774541255261,148.345793025308 117.23136147824698,148.36334333041486 116.99114590016688,148.3795435906577 116.73014243551734,148.3997938870707 116.47029385345377,148.42004415139036 116.26472475298215,148.42544421646016 116.01065058385575,148.45109449435404 115.73925317592511,148.4753947101235 115.50250224560295,148.50104488774286 115.25073784165579,148.52129499159855 114.99897343770135,148.53209503386734 114.74374438598898,148.5820451106083 114.50237392531562,148.69679454737252 114.30488900294586,148.86284190788865 114.15244450147293,149.06263587190915 114.06929295520968,149.23137834073714 114.0196330039762,149.43116654309415 114.00230976517196,149.72679335580324 114.02425253432739,150.0237631778964 114.04735018606152,150.31127738633586 114.06813807263097,150.60148470045533 114.08892595919315,150.86873956231557 114.11433337610652,151.14813639877593 114.13396638008271,151.4437235063051 114.15244450147293,151.759548754565 114.15013473630097,152.04027575979035 114.14782497112901,152.31154936628445 114.12588220197358,152.63140189763453 114.10393943281815,152.93505196194747 114.08661619402119,153.20630658941172 114.06467342486576,153.4883513203813 114.04388553830358,153.75824476144044 114.02309765174141,154.05242212609483 114.03695624278043,154.33714698622225" stroke="red" stroke-dasharray="none" stroke-linecap="round" stroke-linejoin="round" stroke-width="0.5"><title>2024-04-21 79.4km</title><desc>1713660889000</desc></polyline><polyline fill="none" opacity="1" points="19.29986581661069,194.29196473651973 19.63835262329667,194.38365537089703 20.27404735780874,194.149602232299 20.45154653692589,194.84451587692456 20.565063453803305,195.51045493851416 20.645557267591357,196.1739618600095 20.63523754786729,196.48278759704408 21.252356786899327,196.36697843511683 21.846772642536962,196.45624804931322 21.96441744729964,196.77713324008255 21.916946736608224,197.29102268652787 21.694040790738654,197.53951906898874 21.85915630620002,197.31756126411346 21.956161671536393,196.79402180942816 21.537181051062362,196.29218470588967 21.857092362246476,196.17878729428048 22.24098593569215,196.04367474944956 22.887000389921013,195.76379622039713 23.605252882167406,195.47426309735056 24.18728507414926,195.30295427069723 24.95713616496505,195.10751587060804 25.442162991625082,195.0616720530361 25.62585400257376,195.79516208831228 25.790969518020574,196.46831148391902 25.968468697152275,197.09077606141 26.205822250609344,197.76629981550286 26.451431579858763,198.4972905110517 26.69291302122292,199.22584541738615 26.96948150960816,200.00744802259214 27.19651534336299,200.66841207214748 27.417357345279015,201.31488395794622 27.69186188972526,202.11088764483975 27.927151499265165,202.81279516183713 28.1087785662603,203.348256502386 28.298661409040506,203.8812933938425 28.50092791546922,204.51320337749894 28.732089637116587,205.1788606485734 28.96737924664194,205.8758505668775 29.21092463194509,206.56799599568694 29.419382970205334,207.16848149967336 29.662928355508484,207.88229114067508 29.875514581653988,208.51650195795446 30.042694041054347,208.96502066279754 30.663941167971643,208.71905988171238 31.192310817430553,208.71423709486044 31.5617567832669,209.37012677088933 31.894051758128626,209.8909669374516 32.10870192821312,210.55405646849067 32.27381744367449,211.1930154663587 32.55657776389853,211.8343676817076 32.84346597200056,212.57937456032778 33.18608066657907,213.38462979388714 33.35119618203316,213.8161770726947 33.63189255831094,214.49602834221514 33.84035089657118,215.02880546906636 34.04055345906818,215.6314795756989 34.215988694246334,216.25342261439073 34.45540619164967,216.9910540782621 34.701015520891815,217.77446016048088 34.91153780309833,218.58917404857675 35.04775810335559,219.14113828518202 35.07665331855969,219.78467803980857 35.11586825348786,220.40650826172532 35.16540290811827,220.9777095166446 35.29955926442926,221.845329737851 35.40275646158989,222.50325316103408 35.51008154664305,223.14910832375426 35.598831136201625,223.88410790466696 35.6586855105561,224.36606204211057 35.69996438941598,225.0504194982168 35.768074539540976,225.74680451858512 35.82586496994918,226.47690172833427 35.87539962459414,226.97084869503124 35.93731794288033,227.6984975165924 35.97859682174749,228.20687421045295 36.0054280930126,228.66223523062217 36.02400358849991,229.38501192687363 36.05083485976502,229.98489927903938 36.0632185234208,230.94131372006632 36.06734641130606,231.81578369819363 36.0632185234208,232.49028321450533 36.108625290165946,232.98169179913384 36.14371233720158,233.73805502588766 36.14577628115512,234.50402803352517 36.094177682563895,235.06524359290052 36.17260755240568,235.3735450100994 36.936266811404494,235.44821113635226 37.68754240673297,235.51083415164612 38.38102757165325,235.56382272337942 39.01672230616532,235.61199404602849 39.78244550909585,235.66739094202057 40.385117140511284,235.73242191013196 41.10956146458193,235.7830014245519 41.7824071900759,235.8383979076425 42.49033996259095,235.89620279086375 43.154929912307125,235.94437341563025 43.75347365584457,235.99254393925912 44.30454668868333,236.03589732405453 44.95056114291219,236.08888468311125 45.49957023180468,236.12742086737853 46.05889904042124,236.16836549224718 46.182735677015444,236.7439910133362 46.1662241254744,237.59415626826012 46.149712573918805,238.36963364977055 46.15384046181134,238.95483680956568 46.13526496632403,239.658024161532 46.118753414768435,240.7296209915039 46.09811397534213,241.64224491669665 46.05889904042124,242.5066758129742 45.81122576723283,243.23864756030707 45.4871865681489,243.78038794059466 45.30762344508548,244.12468740683835 45.476866848439386,243.88391909203347 45.84424887032219,243.6961180541457 46.387066127390426,244.09820301577383 46.90305211320083,244.519541978887 47.50365980066999,244.8734607344686 47.91851253326604,245.19366824264398 48.548015435939305,245.41275501828568 49.24975637663738,245.6390622407198 49.96388098098396,245.9953712210845 50.63672670647793,246.2313025044641 51.303380600133096,246.59482453468627 51.74093671609444,246.84519397838085 52.47157287198934,247.0763018122725 53.09488394284563,247.26648255682812 53.505608787549136,247.46388368987573 53.951420679281,247.68054151770775 54.593307245617325,247.983859044376 55.276472690828086,248.09940752508555 55.94312658448325,248.1258873034094 56.47149623394944,248.18847574904248 57.21657999744639,248.36420393506523 57.833699236478424,248.60733249698387 58.4528824194349,248.87212305371577 59.146367584355175,249.14894628245384 59.862556132662576,249.44502308852861 60.49205903534312,249.66647641732197 61.21031152757496,250.0347582061222 61.74074512098741,250.31397445248513 62.16798151721741,250.5209774109917 62.72937426978024,250.8074086625602 63.32998195725668,251.13234735741025 63.862479494608124,251.4139571772448 64.4218083032174,251.6859360357612 65.0224159907084,251.99642124138518 65.62302367817756,252.29486818379883 66.25871841268236,252.61256551008773 66.78089623030974,252.8869369405711 67.39388758144923,253.1925924853913 68.07086119483574,253.5367509517091 68.64670155498607,253.8423978578303 69.13585626952408,254.10231486476368 69.68486535842385,254.3814817107468 70.23800233520888,254.67508456442192 70.67968633905548,254.89889405782196 71.25346275526681,255.1900837939229 71.77564057290147,255.45479853625875 72.19668513732177,255.77485865542985 72.68996773974504,256.1622938928904 73.1151401920506,256.5954435739968 73.55063236407295,257.0237724592389 74.16775160309044,257.6614383267497 74.70644097228069,258.20524506336915 75.24100245356385,258.74422666645114 75.70745378473657,259.2086069389934 76.11817862944008,259.66575970995837 76.43602599667793,259.96170113422704 76.67750743803481,260.18305320728723 76.97677930980717,260.5439487603653 77.0882322827456,260.70033507560584 77.48450951984705,261.0419753288825 77.89317042060429,261.41248085664665 78.38232513514231,261.9177060546335 79.00357226205233,262.562453532797 79.45763992956199,263.0147282989037 79.93234703649796,263.5151070471584 80.06443944886996,263.7243968551338 80.17795636573283,263.95774071948654 80.3533916009037,264.1189149973052 80.61138459382346,264.3859325862595 80.62170431353297,264.50620976777645 80.69807023942849,264.7154905657135 80.55359416340798,264.88387603352567 80.45452485413261,265.0883424459644 80.32656032965315,265.4082686009442 80.27496173107647,265.70894702520127 80.17589242179383,265.96632463740207 80.21510735671473,265.692109137226 80.32656032965315,265.4130794866451 80.23781074010185,265.14126286868304 80.55359416340798,264.62889184556843 80.61138459382346,264.36668817890495 80.50818739664828,264.23438244285717 80.27289778712293,264.00585256235354 80.43182147076004,263.7268024740479 80.32036849782162,263.6233606336773 79.95505041987781,263.35152288387144 79.51130247208494,262.8872262058394 79.191391160879,262.562453532797 78.68159700691467,262.0548366946623 78.20688989997143,261.57607880165415 77.81474055075523,261.1670817585418 77.30701034072263,260.68349352349105 76.87771000053908,260.233578925463 76.46285726795031,259.80049774096733 76.06864397479512,259.4010934233429 75.71158167262911,259.0522104846805 75.26164189299743,258.5830147427132 74.79312661788572,258.1138094314574 74.35763444587064,257.6806883422105 73.91595044201677,257.23312131578314 73.5588881398362,256.88179916193985 73.21627344526496,256.5232525269639 72.7683976095941,256.07806939647344 72.3267136057475,255.66416167448187 71.9944186308785,255.44035962888302 71.38349122368527,255.10104269573094 70.687942114826,254.72802894235247 70.03986371666542,254.41517403190846 69.43512814129645,254.10472148998633 68.87167144479463,253.81833131967323 68.21740121480252,253.50787071898594 67.58996225606097,253.1757454351955 67.14208642037556,252.94229218308828 66.41970604025846,252.586090900586 65.78607524969266,252.2611727552994 65.19991516981827,251.94106372122587 64.58485987473978,251.62817088364136 63.99250796303386,251.31768070390717 63.426987322600326,251.0264419170344 62.8655945700375,250.76167618118416 62.22783589157916,250.4271042073542 61.643739755658316,250.14788933540513 61.06170756366919,249.83978622956784 60.467291708017,249.53408609687176 60.01116009656835,249.29096734027735 59.443575512188545,249.00692434688244 58.89250247934251,248.72047065365587 58.376516493539384,248.4653072138608 57.806867965213314,248.17643952273284 57.590153851168,248.21254818273155 57.25579493236728,248.34976057320273 56.651059357012855,248.2269916308378 56.14952097881178,248.12829455446808 55.47461130937154,248.0897785072175 54.77699825657328,248.01996800701454 54.318802701178356,247.82738621714998 53.94935673534201,247.6492466243726 53.35906876758236,247.36518333536515 52.81212362262886,247.15815194594143 52.26517847767536,246.99445138699048 51.80491897833417,246.85000874862635 51.377682582096895,246.6213060471946 50.74611573546281,246.26019188284954 50.16821143135894,246.0531505349427 49.650161501609546,245.8099949413081 49.10940818848758,245.54998413203066 48.52531205257401,245.38867965064128 48.01758184253413,245.2249664813953 47.81531533609086,244.93124287055434 47.43761359449854,244.85901517773164 46.97735409515735,244.5604716376747 46.54392586706672,244.1824714267932 46.13732891026302,243.9055883437377 45.68326124275336,243.57573196565136 45.43352402562596,243.86947291287834 45.02692706880771,243.8815113961391 44.52126080272137,243.5733242374481 44.06719313521171,243.23623979675722 43.617253355594585,242.90637380374756 43.14873808049015,242.54279338724155 42.66783914172265,242.21773317351654 42.2261551378615,241.83247066453623 41.7824071900759,241.56278306166314 41.33865924228303,241.33161973775168 40.878399742949114,241.1173099936641 40.444971514865756,240.97042238433824 39.990903847356094,240.81149374847155 39.534772235914716,240.669420248616 39.09308823206811,240.5490182892354 38.65966000399203,240.43583987160673 38.279894318431616,240.37804642185802 37.63181592026376,240.36359803668347 37.06216739193769,240.3298851025811 36.478071256002295,240.3058044050449 35.91255061556876,240.2480106279072 35.91048667162249,239.82659327074543 35.91667850345402,239.42924981887518 35.92080639133928,239.04875691477355 35.933190054995066,238.45873962070254 35.949701606543385,237.9529984382334 35.960021326260176,237.45447122172664 36.00336414906633,236.92462366028303 36.04670697187976,236.4357080114478 36.094177682563895,235.90583692390646 36.12926472959225,235.4891569733918 36.18086332818348,234.97612444255174 36.21182248733385,234.48475858596976 36.21595037521911,233.98615600202538 36.18499121606874,233.50681286486542 36.16641572057415,232.9407414859179 36.16022388874262,232.5914564309278 36.158159944810905,232.09522161905807 36.156096000864636,231.50743445441185 36.151968112979375,230.87867822686349 36.14784022508684,230.339042275049 36.13132867353852,229.8162578344236 36.11688106595102,229.4018764443863 36.094177682563895,228.70560247505273 36.07766613102285,228.3032476677945 36.0260675324389,227.67681295191142 35.97240498991596,227.098550325185 35.9311261110488,226.61906316594286 35.877463568525854,226.00703985532346 35.83412074572698,225.3974098355102 35.78665003502101,224.90101926247917 35.726795660673815,224.28172079993055 35.67313311815087,223.67686450835754 35.605022968033154,223.16838730245217 35.53897676184715,222.7249666874268 35.46880266777589,222.29840723474808 35.38211702215631,221.8139995796373 35.29955926442926,221.26932998029224 35.22525728247274,220.66921440578335 35.18604234755185,220.1799519191518 35.15095530052349,219.65452539120088 35.095228814047005,219.0784705261849 34.977584009291604,218.4831182607577 34.8537473726974,217.99862989071335 34.701015520891815,217.46110094474716 34.540027893322986,216.96694885057332 34.37491237786162,216.45832262765907 34.240756021565176,216.024414546544 34.10040783342265,215.501303312436 33.90639710275718,214.94925130123738 33.72270609181578,214.42611549092362 33.49360831411468,213.9439520796077 33.37183562145947,213.55339226864635 33.13654601194139,213.0374573602312 32.92189584184962,212.51909982491088 32.71343750357482,211.9934974021162 32.50910705319984,211.46788290328914 32.28826505127654,211.13755935500012 31.784662729129195,211.36661633709627 31.27280463121133,211.55468246036617 30.77952202878805,211.62942625949472 30.655685392193845,211.01459097631232 30.53184875559964,210.45278585660708 30.422459726607485,209.95365986142133 30.273855762701714,209.39424000342115 30.116996023003594,208.92161601130647 29.951880507564056,208.45621651513102 29.797084711812204,208.01733370120382 29.605137925093004,207.4458088383326 29.42763874598313,206.92732455781152 29.233628015317663,206.3533608046273 29.045809116483724,205.8083230616121 28.878629657083366,205.2946251517169 28.680491038539913,204.73991491478046 28.48854425180616,204.1779556000547 28.32549268029834,203.69798799208002 28.15005744512746,203.2035384583778 27.96636643417878,202.68013388144573 27.80331486267096,202.19289857021613 27.627879627492803,201.68153152525156 27.419421289225284,201.08090184283174 27.254305773771193,200.59122017669688 27.08712631437811,200.10152801442746 26.905499247368425,199.57081529625248 26.76721500317217,199.12934941391177 26.58352399222349,198.62756362429172 26.375065653963247,198.01961607189878 26.19550253089983,197.47679208193586 25.98498024869332,196.86398860650843 25.842568116604525,196.31631174208633 25.716667536071327,195.79033657297623 25.568063572165556,195.24745958642598 25.52265680540586,194.82038728541374 25.037629978753102,194.94344283552527 24.42257468367461,195.11234153026453 23.86324587506533,195.27641335156477 23.396794543899887,195.44530958310497 22.792058968538186,195.66246004496497 22.300840310046624,195.86754469597145 21.99537660645001,195.97129270013647 22.013952101944597,195.97853091539218 21.68372107102914,196.10399294861236 21.031514784976025,196.24393055701512 20.68477220251225,196.0074837534794 20.63523754786729,195.5538850721914 20.567127397749573,195.14129546676486 20.45773836875742,194.48258432654075 20.29675074118859,194.00482589376406 19.797276306926506,194.26300972283934" stroke="red" stroke-dasharray="none" stroke-linecap="round" stroke-linejoin="round" stroke-width="0.5"><title>2024-04-05 108.1km</title><desc>1712276378000</desc></polyline></svg>