<?xml version="1.0" encoding="utf-8" ?>
<svg baseProfile="full" height="300mm" version="1.1" viewBox="0,0,200,300" width="200mm" xmlns="http://www.w3.org/2000/svg" xmlns:ev="http://www.w3.org/2001/xml-events" xmlns:xlink="http://www.w3.org/1999/xlink"><defs /><rect fill="#222222" height="300" width="200" x="0" y="0" /><text fill="#FFFFFF" style="font-size:12px; font-family:Arial; font-weight:bold;" x="10" y="20">Over 10km Runs</text><text fill="#FFFFFF" style="font-size:4px; font-family:Arial" x="10" y="280">Runner</text><text fill="#FFFFFF" style="font-size:9px; font-family:Arial" x="10" y="290">yihong0618</text><text fill="#FFFFFF" style="font-size:4px; font-family:Arial" x="65" y="280">SPECIAL TRACKS</text><rect fill="yellow" height="2.6" width="2.6" x="65" y="283" /><text fill="#FFFFFF" style="font-size:3px; font-family:Arial" x="70" y="285.5">Over 20.0 km</text><rect fill="red" height="2.6" width="2.6" x="65" y="287" /><text fill="#FFFFFF" style="font-size:3px; font-family:Arial" x="70" y="289.5">Over 40.0 km</text><text fill="#FFFFFF" style="font-size:4px; font-family:Arial" x="120" y="280">STATISTICS</text><text fill="#FFFFFF" style="font-size:3px; font-family:Arial" x="120" y="285">Number: 5</text><text fill="#FFFFFF" style="font-size:3px; font-family:Arial" x="120" y="290">Weekly: 1.2</text><text fill="#FFFFFF" style="font-size:3px; font-family:Arial" x="141" y="285">Total: 317.5 km</text><text fill="#FFFFFF" style="font-size:3px; font-family:Arial" x="141" y="290">Avg: 63.5 km</text><text fill="#FFFFFF" style="font-size:3px; font-family:Arial" x="167" y="285">Min: 18.7 km</text><text fill="#FFFFFF" style="font-size:3px; font-family:Arial" x="167" y="290">Max: 108.1 km</text><polyline fill="none" opacity="1" points="72.37725701113231,35.964718804942095 73.05493661155924,35.7060197583196 73.5389934690902,35.511995186287095 73.88474836724345,35.77069456099707 74.07837111019762,36.32042927959992 74.28582404914778,36.96717347810045 74.43795620434685,37.59774643898709 74.56242796772858,37.93728464898595 74.63157894735923,38.47084317069675 74.7422205148032,39.02056818600977 74.85286208224716,39.58645952072402 74.96350364963291,40.1846852270246 75.0603150211391,40.76674042562081 75.15712639258709,41.30028907889209 75.25393776409328,41.83383587145363 75.35074913559947,42.383548802361474 75.43373031116789,42.933259758065105 75.53054168261588,43.54764025351324 75.64118325005984,44.22668950962543 75.7518248175038,44.95423893946281 75.8901267767651,45.63328195249778 75.97310795233352,46.425494991999585 75.94544756051619,46.79734867757361 76.06991932383971,47.20153644113452 76.13907030347036,48.009908765074215 76.23588167491835,48.93144800470327 76.29120245866943,49.772145627532154 76.31886285054497,50.19249270678847 76.22205147903878,50.33799719593662 76.23588167491835,50.66134000974125 76.31886285054497,51.308023587524076 76.48482520162361,52.148708152613835 76.7199385323911,52.924720574723324 76.89973107952392,53.765396257527755 77.0933538225363,54.65456743455434 77.2731463695527,55.38206728179648 77.30080676142825,55.83473210783268 77.71571263927035,56.335895174823236 77.97848636191338,57.01488767948467 78.1997694967431,57.59687885704625 78.42105263157282,58.17886782127607 78.08912792929914,58.5830255219189 77.49442950444063,58.712355760711944 76.88590088358615,58.92251716562896 76.1667306952877,59.19734318270639 75.51671148673631,59.43983631735318 74.88052247406449,59.61766437187907 74.79754129849607,59.84399068784842 74.63157894735923,60.16731341576087 74.89435266994406,60.8624549676606 75.18478678446263,61.60609127175121 75.39223972341279,62.382055736583425 75.65501344599761,63.12568465688673 76.11140991159482,63.788481301264255 76.7199385323911,64.17645849291875 77.02420284290565,64.87158183495922 77.38378793693846,65.61519865914306 77.70188244333258,66.32648093633179 78.03380714560626,67.00542911737284 78.33807145594619,67.70053961107624 78.66999615827808,68.37948169690208 78.98809066455578,69.10691630395013 79.32001536688767,69.7696870471409 79.62427967734402,70.46478498725628 79.94237418362172,71.143714811682 80.28812908183318,71.82264162469073 80.60622358811088,72.50156542635523 80.93814829038456,73.22898044371686 81.22858240490314,73.92406267506885 81.56050710717682,74.6029771562753 81.90626200533006,75.15257238809136 82.27967729535885,75.6213432324439 82.54245101806009,76.21942808758467 82.68075297732139,76.55888061450969 82.25201690354152,76.88216803560499 81.69880906643812,77.14079748095537 81.03495966194896,77.43175508458808 80.2742988858954,77.8035334401211 79.55512869759696,78.17531089269323 78.7114867460914,78.54708744243544 77.9231655781623,78.98351963135065 77.32846715324558,79.30680193207809 76.89973107952392,79.51693506147421 76.12524010753259,79.85638027651294 75.41990011523012,80.21198874221591 74.83903188625118,80.48677653633058 74.06454091431806,80.85854747267149 73.24855935451342,81.2626452925906 72.55704955820693,81.56975892235641 71.86553976172581,81.90919958581799 71.5474452553899,82.03851011680672 71.00806761428248,82.28096706802899 70.42719938530354,82.58807865499693 69.87399154820014,82.92751706071431 69.23780253552832,83.34777309175115 68.53246254322585,83.84884608257562 67.77180176717229,84.39840812240436 67.09412216668716,84.89947767475678 66.4302727621398,85.27123789580946 65.82174414134352,85.67532406881219 65.21321552054724,86.04708240601758 64.99193238565931,86.12789931643056 64.92278140602866,86.12789931643056 64.42489435261814,86.435003186838 63.76104494812898,86.72594312744332 63.05570495582651,87.00071923040377 62.39185555133736,87.21084179988247 61.631194775225595,87.48561703262385 60.856703803292476,87.79271817975678 60.26200537843397,87.95435011506197 59.47368421050487,88.24528716862551 58.630042258882895,88.5523867920565 57.81406069919467,88.82715961727081 57.0119093353278,89.11809501238167 56.265078755270224,89.37670378839539 55.43526699958602,89.65147513432021 54.619285439897794,89.9585719374154 53.913945447595324,90.15252749575302 53.31924702267861,90.33031987503637 52.83519016514765,90.50811204787169 52.4479446792393,90.65357821751968 51.7979254705715,90.86369577421283 51.134076066024136,91.1384644517093 50.38724548596656,91.44555827254953 49.585094122216105,91.68800032761646 48.7967729542288,91.97893028699036 47.95313100266503,92.26985969362431 47.16480983479414,92.59311394156248 46.39031886286102,92.8840421812638 45.615827890869696,93.1426445969555 44.84133691893658,93.41740918511641 44.039185555127915,93.70833585871151 43.181713407626376,93.95077433112601 42.65616596234031,94.1447248327604 42.33807145594619,94.20937494536338 41.63273146370193,94.46797512283956 40.85824049176881,94.79122473053576 40.08374951983569,95.08214879409934 39.30925854778616,95.35690990212606 38.71456012292765,95.51853385308641 37.9124087591772,95.76096945955942 37.02727621974191,96.10037866393395 36.25278524780879,96.48827397626883 35.69957741070539,96.90849278923997 35.22935074917041,97.37719702796312 34.96657702646917,97.68427833754686 34.62082212831592,98.0560075200483 34.02612370339921,98.50854617646837 33.21014214371098,98.86411132554349 32.44948136765743,99.02573157497682 31.744141375354957,99.15502765165002 31.273914713819977,99.20351365224633 30.6653860930237,99.31664759399428 29.835574337281287,99.49442933360115 28.85363042645622,99.67221086686186 27.996158278896473,99.83383026340744 27.11102573951939,99.97928757448972 26.253553591959644,100.10858284613641 25.42374183627544,100.23787800861464 24.524779101077,100.399496808197 23.63964656164171,100.54495358205168 22.9066461774637,100.6904102176486 22.13215520553058,100.80354306101799 21.26085286209127,100.9489994510659 20.417210910469294,101.0782939040364 19.60122935072286,101.17526467209973 18.74375720327953,101.30455893398903 17.94160583941266,101.49850012225215 17.08413369191112,101.62779411127849 16.309642719978,101.77324971846247 15.49366116017336,101.91870518751966 14.691509796422906,102.01567542349221 14.248943526705261,102.09648390654183 14.013830195937771,102.14496897593199 14.497887053410523,102.24193906859728 14.73300038423622,102.79143510074937 15.03726469463436,103.35709072157624 15.189396849775221,103.59951391954382 15.50749135616934,104.1328436042968 15.64579331537243,104.55304144184629 15.659623511310201,104.82778555847472 15.867076450260356,105.28030420553114 15.867076450260356,105.26414284831844 15.659623511310201,104.77930133837799 15.57664233574178,104.45607281241973 15.369189396791626,104.1005206459522 15.27237802540185,103.85809824104945 15.134076066082343,103.56719084864017 14.88513253943529,103.16315188691078 14.650019208609592,102.7106269843789 14.691509796422906,102.4682023794594 15.35535920097027,102.33890909988258 16.06069919327274,102.22577739076223 16.76603918557521,102.11264559804113 17.526699961628765,101.98335201831651 18.28736073768232,101.8378966106684 19.075681905495003,101.7086027990299 19.85017287748633,101.59547062423371 20.610833653481677,101.51466187684855 21.385324625473004,101.35304425410868 22.14598540152656,101.20758824776567 22.823665001953486,101.09445570292883 23.52900499419775,100.98132307453488 24.317326162126847,100.85202853969531 25.14713791781105,100.70657205754833 25.93545908568194,100.57727729075123 26.709950057673268,100.44798241484386 27.470610833610408,100.33484930884151 28.175950825971086,100.2055542282178 28.89512101415312,100.09242094315414 29.614291202451568,99.99544948944822 30.291970802936703,99.89847797430411 30.734537072654348,99.8661541222391 31.121782558620907,99.83383026340744 31.550518632342573,99.70453475980321 32.14521705725929,99.60756306044641 32.753745678055566,99.51059129970963 33.51440645410912,99.3004856074549 34.23357664234936,98.96108349562564 34.814444871328305,98.58935651015781 35.22935074917041,98.20146651974937 35.60276603914099,97.71660265010723 36.03150211297907,97.26406165336084 36.50172877451405,96.86000606200832 37.165578179003205,96.55292309948709 37.94006915099453,96.31048874676344 38.673069535172544,96.05189168077777 39.44756050716387,95.7448070977116 40.2635420668521,95.47004668567388 41.0933538225363,95.1629609358788 41.93699577410007,94.88819947979937 42.794467921659816,94.58111256315897 43.54129850171739,94.33867508867115 44.32961966964649,94.06391215357871 45.1041106415214,93.78914872549649 45.850941221637186,93.53054740163498 46.542451018001884,93.25578301647329 47.22013061848702,93.02950609382242 47.93930080672726,92.80322883679764 48.67230119090527,92.54462584783323 49.391471379145514,92.28602242219495 50.15213215519907,92.02741855979548 50.80215136386687,91.81730260004406 51.07875528233126,91.76881426064938 51.64579331537243,91.57486074966437 51.936227429891005,91.42939545524132 52.240491740289144,91.34858134303067 52.793699577392545,91.1546272997657 53.4575489818817,90.94451014233346 54.19054936605971,90.65357821751968 54.923549750237726,90.37880866986234 55.68421052634949,90.10403862917155 56.431041106407065,89.81310510748881 57.16404149052687,89.5544970685296 57.924702266580425,89.27972554857843 58.51940069149714,89.0857688846736 59.07260852860054,88.87564888817724 59.3215520553058,88.7948334281391 59.94391087209806,88.58471303238184 60.607760276587214,88.34226606361335 61.24394928931724,88.11598187971686 61.82481751823798,87.92202374165936 62.36419515940361,87.7119021481194 62.97272378025809,87.51794349812553 63.65040338068502,87.27549484018527 64.36957356886705,86.9845559438545 64.83980023046024,86.74210644124832 65.35151747986674,86.51581989244733 65.94621590466704,86.1763894421747 66.58240491739707,85.72381433787814 67.17710334225558,85.33589175513771 67.77180176717229,84.93180468630453 68.28351901646238,84.5115530033654 68.739915482176,84.15595452448179 69.27929312328342,83.78419159528858 69.77718017663574,83.44475508890173 70.28889742604224,83.13764522042766 70.93891663465183,82.7658798185148 71.61659623507876,82.44260482213576 72.41874759888742,82.08700153775862 73.19323857087875,81.69906974001788 74.03688052244252,81.34346472859033 74.78371110250009,80.9555310466967 75.40606991923414,80.6645801402774 76.08374951971928,80.34130070677202 76.83058009983506,79.98569254144968 77.56358048407128,79.69473979178292 78.31041106412886,79.33913012457197 79.05724164424464,79.03201201996126 79.69343065691646,78.72489329919335 80.39877064921893,78.40160976960033 81.1041106415214,78.0783255573042 81.74029965425143,77.77120492330869 82.41797925473657,77.39942648925353 83.26162120630033,77.0276471524121 84.02228198229568,76.70436003855139 84.64464079902973,76.41340105231211 84.94890510948608,76.25175693210622 85.57126392622013,75.92846817965619 86.0,75.58901425474323 85.39147137920372,75.44353377082734 84.78294275834924,75.73449460047414 84.18824433343252,76.00929043175711 83.5520553207607,76.34874342469266 82.91586630808888,76.63970253382286 82.50096043030499,76.13860594636935 82.21052631578641,75.42736926404177 81.74029965425143,74.66763552128396 81.42220514791552,73.8917333389254 81.07645024970407,73.11582722362073 80.66154437180376,72.33991717531171 80.31578947365051,71.67715756116377 79.98386477131862,71.04672502118046 79.69343065691646,70.3192996330763 79.34767575870501,69.57570566321374 79.01575105643133,68.78361246096028 78.66999615827808,68.0561763173464 78.32424126012484,67.37723279738566 78.00614675373072,66.74678254641185 77.70188244333258,66.05166772106895 77.52208989625797,65.5505364700366 77.35612754512113,65.21105952897051 77.19016519392608,64.96857553863083 76.89973107952392,64.46744074120943 76.63695735682268,63.83697850396857 76.00076834420906,63.626823847793275 75.64118325005984,62.86703152921109 75.39223972341279,62.09106952333241 75.18478678446263,61.34743557583715 74.88052247406449,60.66846229408111 74.70072992698988,60.10264892480336 75.1986169804004,59.64999672322301 76.0284287360846,59.40750392158225 76.77525931614218,59.18117696007539 77.5497502880753,58.90635091395234 78.28275067225331,58.66385693398479 78.79446792165982,58.34053102960752 78.49020361120347,57.467547675565584 78.3795620437595,57.06338702881476 78.08912792929914,56.2873955949035 77.77103342296323,55.47906700013846 77.48059930850286,54.670734135390376 77.24548597773537,53.797729845391586 77.10718401841586,53.03788872410951 77.01037264696788,52.245709920607624 76.94122166727902,51.42119293262658 76.96888205915457,51.11401880111953 76.94122166727902,50.75834272065549 76.60929696500534,50.12782400054857 76.48482520162361,49.36796465466614 76.42950441798894,48.38175859990588 76.37418363423785,47.508718427372514 76.37418363423785,47.088363974995445 76.33269304648275,46.44166256231256 76.23588167491835,45.77879077749094 76.18056089128368,45.11591612068878 76.05608912790194,44.43687081136159 75.94544756051619,43.80632603977574 75.82097579713445,43.15961075395171 75.7103342297487,42.48055676158401 75.55820207454963,41.57514674986305 75.3784095274168,40.55655408157327 75.25393776409328,39.651132682847674 75.10180560889421,38.745705925291986 74.97733384557068,37.87261076235154 74.7422205148032,36.983342048028135 74.41029581252951,35.98088748080772 74.10603150213137,35.18862035262282 73.9538993468741,34.81673844883335 73.91240875906078,34.687388009464485 73.55282366502797,34.80056964987307 73.15174798312364,35.25329537407379 72.43257779482519,35.54433263205283 71.71340760664316,35.88387539985706 70.98040722246515,36.191080111806514 70.2612370341667,36.49828420682752 69.41759508254472,36.8539934407745 68.6431041106116,37.177364753893926 67.99308490206022,37.452229832604644 67.57817902415991,36.983342048028135 67.24625432188623,36.46594696266402 66.83134844410233,36.62763311486924 66.1951594313723,36.918667758087395 65.57280061463825,37.209701847619726 65.69727237796178,37.662420441862196 66.13983864773763,37.613914942296105" stroke="#4dd2ff" stroke-dasharray="none" stroke-linecap="round" stroke-linejoin="round" stroke-width="0.5"><title>2024-05-25 18.7km</title><desc>1716643451000</desc></polyline><polyline fill="none" opacity="1" points="180.43870831750246,105.34133493791705 180.32070876813668,105.17485617888269 180.45112932268967,104.93840602354067 180.53807635907287,104.85878450796554 180.54221669414983,104.85878450796554 180.57533937465632,104.9046272322812 180.65814607597713,104.84430783927382 180.56912887207,104.86843561538626 180.61467255778552,104.851546174752 180.6250233954488,104.71401741265618 180.80305780327035,104.808116127846 180.69747925909178,105.01561450373629 180.6229532279176,105.15555421613863 180.6312338980424,105.22552375433406 180.616742725324,105.37028764307252 180.7243914370265,105.45473282575949 180.75130361494666,105.48851081237262 180.69954942662298,105.56089204590717 180.65814607597713,105.65016192149415 180.5670587045388,105.72495533537403 180.53600619154167,105.87212876510421 180.55463769932976,105.98311138691497 180.5194448512775,105.80698654304615 180.63744440065057,105.6236222647949 180.56084820193792,105.5922571766514 180.50909401361423,105.50057436705538 180.5836200447884,105.34616039129651 180.63537423311936,105.16520519952792 180.49874317595823,105.27377848474316 180.3082877629422,105.25688934056416 179.99776263303647,105.15314146965648 179.77418453950668,105.07352069447188 179.79695638236444,104.77674993205437 179.98741179536592,104.48962662130725 180.20477938630938,104.20249974031685 180.43249781490158,103.95638814339327 180.5670587045388,103.8260927065221 180.50702384607575,103.74405446163837 180.23997223436163,103.54860923324122 179.96463995250087,103.2566447609006 179.7245005187142,102.95743766933265 179.58579929401458,102.90435213516139 179.38499304334255,102.70166079096816 179.07446791342954,102.38314222596091 178.7846444588431,102.04290163155747 178.5155226795905,101.74367880838872 178.21948872241774,101.41549447783109 177.95036694316514,101.1548741854258 177.77233253535087,101.00284432256194 177.51770192882395,100.77600425275341 177.2796326625612,100.52985612295925 177.1243700976047,100.36334266422091 177.04156339629117,100.28129211228588 176.77037144950737,99.99893945450094 176.63167022480775,99.82276895215546 176.47226732478885,99.69969013199807 176.21556655073073,99.45111717994041 176.00440946238814,99.22667522399388 175.74149818573642,98.95154984838337 175.48893774674798,98.6788346160065 175.2156756324257,98.41335651507143 174.97346603109327,98.16235622872773 174.72711609469843,97.90169919517575 174.4890468284284,97.6796556957961 174.22820571931516,97.42140676397503 174.02739946863585,97.22349441110782 173.85350539589126,97.05937068440835 173.56575210883602,96.75766961148474 173.18691145034973,96.36424548514515 172.86603548278072,96.03598463768503 172.60519437365292,95.78254475848007 172.46649314896058,95.71737405375279 172.11249450086325,95.51944708096744 171.7647063553668,95.33600105306687 171.36516402154666,95.12600183536415 171.00702503838693,94.92565597195426 170.6633772279456,94.75427439447958 170.2969575746538,94.57564998655289 169.9015555759106,94.37529934240592 169.54341659273632,94.19184421405589 169.21840029009763,94.02045718354566 168.84577013421222,93.85631066445603 168.49384165365336,93.68009324798186 168.13777283802483,93.48697672459457 167.78170402238902,93.31075648584192 167.5250032483309,93.17557292416859 167.28486381452967,93.06211468036781 166.96812818203034,92.89796133951495 166.59135769107525,92.70966636245066 166.21665736764407,92.51171357478233 165.85023771434498,92.31375908765767 165.48795839612285,92.12063112090254 165.11118790516775,91.93232979577078 164.75925942460162,91.76092597045863 164.3969801063722,91.59193503604001 164.04505162580608,91.37948753249111 163.64964962705562,91.1839375318632 163.29979131402797,91.01494236803046 163.0182485295736,90.86767414368296 162.66010954641388,90.68177684506918 162.30197056326142,90.49829232706361 162.0949538099885,90.39206378070048 162.00179627100442,90.36067798013755 161.6498677904383,90.17960521936584 161.24618512156303,89.97438770432927 160.85492345787497,89.776411428953 160.471942464319,89.56636157036519 160.0972421408951,89.38045377688104 159.6997699745989,89.17281472839022 159.31678898105747,88.97483156795533 158.96279033295286,88.80340575037917 158.59844084719225,88.61990627920386 158.242372031571,88.43640534699625 157.95461874451576,88.31809476075614 157.81798768735462,88.4702082600761 157.74760199124285,88.65370892314604 157.67514612760715,88.80823466410402 157.59233942629362,88.95068716375317 157.53230456784513,89.06658007326769 157.48469071459112,89.18247240003438 157.4515680340628,89.26939126269826 157.5074625574489,89.10521091360533 157.51367306004977,89.09555320958862 157.53023440031393,89.11245418895669 157.63995327954035,88.85652374568053 157.73725115357956,88.64163655599987 157.6047604314881,88.55954429170379 157.37911217041983,88.50642561193672 157.00855218205834,88.43640534699625 156.70009721967654,88.3398253221294 156.55311532486667,88.31809476075614 156.11423980791733,88.2698045510133 155.65259244812478,88.25773198277057 155.20543626105064,88.22875779317656 154.7872624194424,88.09837348920337 154.50778980252653,87.96315935777966 154.22831718561065,87.82794443299463 153.86810803490516,87.65651008416899 153.44786402576574,87.4609284949529 153.01933934648696,87.31605217345168 152.59288483473938,87.18807733179892 152.1974828359962,87.07458961346492 151.94492239700048,86.97075993473118 151.70478296319925,86.83553918659891 151.3404334774459,86.62304783625041 150.96366298649082,86.42021335559184 150.57654165786516,86.27774521233732 150.18527999418438,86.13286145132952 149.85405318894482,85.96865875411095 149.52282638370525,85.8068696578539 149.14812606028136,85.6595681492945 148.77135556931898,85.5581468910259 148.4318480939546,85.43016228504348 148.162726314702,85.33839929972055 148.0550776030068,85.14279803214413 147.96813056662359,84.98341799358968 147.93707805364102,84.62360142757643 148.00332341467583,84.23721496437429 148.14409480691393,83.85082201980003 148.19998933028546,83.46200757653241 148.25588385367882,83.12148767283361 148.0053935822143,82.95001829774992 147.65139493411698,82.74232128868425 147.50027270423016,82.49839566547416 147.47957102889632,82.25446745864792 147.11315137561178,82.05159450675637 146.77364390024013,81.86562606414736 146.44034692746936,81.6748257115305 146.40308391188591,81.41156693334415 146.41343474954192,80.97199052189353 146.4155049170804,80.5952040613447 146.421715419674,80.31985621008243 146.4237855872052,80.06865880674195 146.42792592227488,79.88508974030628 146.421715419674,79.63388759327427 146.42585575474368,79.22326279687877 146.44448726253904,78.67011546299 146.45069776513992,78.25222678554746 146.46518893785833,77.79084954937571 146.4672591053968,77.36086662658454 146.469329272928,76.93087567064504 146.4838204456537,76.52744988503764 146.48589061319217,76.33660528289874 146.36582089628791,76.26654800650613 145.98283990273922,76.22547984878292 145.56052572606131,76.18924317815436 145.21066741303366,76.1675011483967 144.74902005322656,76.13368017237553 144.3494777194137,76.09744335719552 143.93544421286788,76.06845386397436 143.51313003618998,76.03221694608146 143.20053473874577,76.00564317003591 142.88379910624644,75.98631676817604 142.5380811282812,75.9645745466787 142.14267912952346,75.92350585004169 141.75348763337388,75.8921003266878 141.40776965540863,75.86552638882495 141.01029748912697,75.83895242028666 140.64801817089028,75.80754678153062 140.57142197217763,75.45241849912964 140.5838429773794,75.09003705094074 140.59626398257387,74.6889949286251 140.59626398257387,74.37733688621665 140.60868498777563,73.96661828959441 140.61696565789316,73.57763685824466 140.62317616050132,73.25871549844305 140.62110599296284,73.16448788692105 140.61696565789316,72.88421886360993 140.62938666309492,72.84072853670659 140.62110599296284,72.54112627262293 140.61282532283803,72.3647456955041 140.6583690085463,72.20044476309704 140.6418076682894,71.94432626311209 140.6355971656958,71.64954483670772 140.6459480033518,71.20978191601534 140.6355971656958,70.7965904110115 140.6335269981646,70.45105029461592 140.64801817089028,70.09342288843072 140.62731649555644,69.75753802995132 140.6314568306334,69.36606891005795 140.62731649555644,69.10991884169016 140.60661482023716,68.85134936908798 140.60868498777563,68.6169427548266 140.60868498777563,68.91176305758927 140.58591314491787,69.10750231802194 140.4865451033329,69.29599040132052 140.14703762796853,69.38298438016864 139.75577596428775,69.34915342750719 139.60879406945605,69.20899609333355 139.40591765125282,69.07367096002599 139.09125218627742,69.05433873310358 139.12851520187542,69.05675526236337 139.4742331798334,69.09541969587917 139.84893350325729,69.17033185080618 140.2112128214867,69.22832819021642 140.53829929165659,69.25007677978647 140.5672816371225,69.55938782691192 140.56314130205283,69.85902893610364 140.34370354357816,69.98468372310344 140.06837126172468,69.96776869561836 139.72679361882183,69.96051939431527 139.3086197772136,69.94360434905502 138.9359896213209,69.93152216624367 138.53230695243838,69.91702353849723 138.11620327836135,69.90010846124096 137.71459077701002,69.89044269722217 137.31090810812748,69.87836048648387 136.87824309379357,69.87111115699554 136.46006925217807,69.84936315481355 136.30894702228397,69.64396434195442 136.2985961846207,69.22591167899736 136.2882453469574,68.81993418832826 136.284105011895,68.6894399010962 136.26133316903724,68.401866542481 136.24063149371068,68.11428958682882 136.21578948331444,67.7445425009173 136.18059663525491,67.39170640332304 136.14954412227235,67.08478292783366 136.1391932846018,66.8793594148392 136.10400043654954,66.5047588708876 136.06466725342761,66.12773538505462 136.04396557809378,65.77487446884152 136.0170534001736,65.43409268828327 135.99014122226072,65.22140362598839 135.94873787158576,64.87336273277651 135.91975552612712,64.45280628753608 135.89284334821423,64.0999196535995 135.8535101650923,63.69385161565333 135.7996858092447,63.302279211327914 135.74379128585133,62.94212339240221 135.72722994559444,62.64239209794505 135.6361425741561,62.270139723877946 135.57610771570035,61.92447140423792 135.51814302479033,61.55945935095042 135.46638883646665,61.24037121551737 135.42912582086865,60.96237415127325 135.39807330789336,60.628773233089305 135.38151196762192,60.336264093575664 135.35666995723295,59.98089673866343 135.3318279468367,59.630358926988265 135.31319643904135,59.30399132729872 135.24488091046805,58.929267252457066 135.164144376693,58.5690428615726 135.08340784291067,58.24266017847913 134.99853097407322,57.92110825790587 134.9053734350964,57.59713409986398 134.7956545558627,57.25623098300275 134.69007601169142,56.94191866005349 134.6051991428467,56.68321221204678 134.49755043115147,56.330206187731164 134.41681389736914,56.0473138805628 134.30916518566664,55.65077520601699 134.2242883168292,55.40656200430931 134.1104291025331,55.08497035955406 133.96965771030955,54.722267609588016 133.90755268432258,54.499807087317095 133.75643045443576,54.226564582240826 133.64257124013966,53.90012015667344 133.56597504141973,53.65830647750772 133.39415113620635,53.305253930437175 133.25130957644433,52.944941279019986 133.112608351752,52.594296018894966 132.97390712706692,52.255736890554545 132.86625841536443,51.98004933905577 132.75446936858498,51.697103407754184 132.64268032182736,51.399643666522024 132.55573328544415,51.17231411005014 132.37769887762988,51.271468768023624 132.01748972693895,51.40206205395407 131.65107007364713,51.53023622291039 131.33226427360933,51.660828036019666 130.99896730083128,51.73337872213415 130.88924842160486,51.37545977821355 130.80644172029133,50.9764219408371 130.72777535404748,50.64025740690704 130.6491089878109,50.25088081859212 130.57044262155978,49.86875326926929 130.4586535747876,49.48903794360194 130.3427241929603,49.145595738727934 130.29097000463662,48.94726761633865 130.14605827735068,48.60139861707103 130.0177078903289,48.22166231068695 129.89349783836224,47.834663427898704 129.7610071162635,47.44282040575308 129.67820041494997,47.20335748521029 129.54156935778883,46.81392254730781 129.41114880323585,46.42448099576359 129.2890089188004,46.05196549651555 129.16065853177133,45.681862935900426 129.05300982006884,45.36739201342789 128.92672960057098,45.02872619627851 128.8004493810804,44.648930721941724 128.68244983171462,44.30299688463856 128.5872221252066,44.0126987271542 128.46922257584083,43.67643209929338 128.34915285893658,43.31112966889668 128.28083733036328,43.117589598190534 128.14627644073335,42.74985896162434 128.04483823163173,42.428089814920895 127.93097901732835,42.11841298685249 127.79227779263601,41.72163343570173 127.6535765679364,41.31758866274322 127.5314366835155,40.954668123033116 127.42378797180572,40.640132339345655 127.29336741725274,40.25784457433656 127.17743803541089,39.91910325047138 127.05736831851391,39.568258742710896 126.97663178473886,39.30451692029237 126.90624608862709,39.06012958584142 126.75098352367058,38.67055626668116 126.63919447690569,38.34872983237619 126.52326509507839,38.00996028030022 126.40940588077501,37.6760253901266 126.28519582880836,37.31788690937174 126.1609857768417,36.96216274015569 126.06368790280976,36.61127294309881 125.99537237422192,36.31361738383748 125.90635517031478,35.96513766714088 125.8214783014846,35.61181254081566 125.72418042743811,35.26332214492504 125.67035607158323,34.93660758225997 125.63516322353826,34.79623989416359 125.38260278453527,34.885784898004204 125.11969150787627,34.96806918740913 124.74085084939725,35.07213418882384 124.34544885064679,35.19555950765425 124.01008171033754,35.304463648295496 123.64159188950725,35.41820742002892 123.295873911542,35.56341141406483 122.92945425825746,35.70861448743926 122.56510477248958,35.810256091017436 122.26079014517745,35.9385174707877 122.0661943971063,36.006277909738856 121.9171423347434,36.08371816590443 121.62317854509456,36.173258135679134 121.27332023205963,36.25311781338496 120.94416359435854,36.32813725696542 120.83444471513212,36.04015805403287 120.793041364479,35.68441403914585 120.74956784628739,35.41336727104499 120.70816449562699,35.15441780862966 120.6439893021161,34.76719819609934 120.58809477873001,34.44773708635512 120.48044606703479,34.106489614072416 120.3686570202699,34.058085305438 120.08090373321465,34.20571812687558 119.74967692797509,34.33882887115033 119.49297615391697,34.348509622361235 119.34185392403742,34.31220678419777 119.19694219673693,34.41627476627764 119.37083626948879,34.387232586297614" stroke="red" stroke-dasharray="none" stroke-linecap="round" stroke-linejoin="round" stroke-width="0.5"><title>2024-05-01 58.8km</title><desc>1714551575000</desc></polyline><polyline fill="none" opacity="1" points="19.080515115922026,114.35467357346715 19.35460176633933,114.23481897395686 19.63287294577458,114.11985581566296 19.91114412519528,114.0024460432578 20.01784961505473,114.24704906357329 20.072248492237122,114.50877143219077 20.114093782372947,114.79984236583914 20.164308130537393,115.08846371060645 20.220799272225122,115.40398631686367 20.250090975336207,115.69749185646106 20.2814749429308,115.97142700220684 20.302397588005988,116.24291309983164 20.304489852511324,116.36275730106354 20.450948367993988,116.33829935119866 20.821279185722233,116.27226275750581 21.16441056488111,116.1988885435585 21.50126515050215,116.10839335935998 21.618431962895556,116.04969359125425 21.88205729076435,115.94941447635574 22.195896966812143,115.83935153309358 22.52856702342251,115.66569560276366 22.86123708003288,115.47736305068975 23.160430904528766,115.31348802476532 23.488916432121187,115.31837983338664 23.792294785635022,115.24744850721254 24.089396345625573,115.15939552402051 24.41788187322527,115.06400441419646 24.73172154927306,114.9783966731975 25.037192167284957,114.88545076729861 25.183650682774896,114.97595073309276 25.273618056577106,115.33305525303513 25.36776995938999,115.712167035741 25.453552804181527,116.05213941789407 25.533058855442505,116.38966101605001 25.585365468119562,116.62200998079243 25.64394887430535,116.80055023228851 25.76111568669876,117.13072378184552 25.85317532501358,117.41197901724081 25.955696285847807,117.70545909816428 26.047755924155354,117.98670735142878 26.15655367852014,118.27773455582064 26.273720490913547,118.63234259174351 26.369964658231765,118.96249001914111 26.426455799919495,119.09699317704508 26.518515438219765,119.34398785050871 26.612667341039923,119.6032071496411 26.708911508358142,119.89665945812158 26.788417559626396,120.14364560238391 26.849093230332073,120.29281417601305 26.95998324919492,120.581367050474 26.9704445717216,120.67918076827482 27.06668873905437,120.93593981201957 27.169209699895873,121.26360912410746 27.280099718765996,121.60594524488079 27.397266531159403,121.94583110209715 27.46631125987915,122.14144660043348 27.57720127874927,122.44220220669195 27.685999033121334,122.77963067779274 27.759228290859028,123.01680571959696 27.85128792917385,123.20507696209643 27.924517186904268,123.42513231921112 28.01657682521909,123.72342624400153 28.10445193450869,124.01682635782163 28.19651157282351,124.28821815518313 28.234172333941387,124.44958474390478 28.32204744323826,124.64762402137421 28.44339878464234,124.9727959537704 28.5563810680178,125.3199669650985 28.675640144916542,125.71113933738525 28.801176015324017,126.07052313438726 28.914158298721304,126.4054540366742 29.039694169121503,126.76727176227178 29.158953246027522,127.12419452468566 29.282396851944213,127.48844564948013 29.414209515874973,127.84780188798686 29.54392991530767,128.21204164168012 29.661096727708355,128.57627567203053 29.76780221756053,128.8573919837272 29.80127844967501,128.93561504679928 29.893338087968004,128.89650354825062 29.937275642623717,128.98450432718892 30.240653996130277,128.86716988104672 30.598431226826506,128.74250138130083 30.929009018931538,128.63983270161407 31.060821682869573,128.8916146063002 31.21774152089347,129.18739373903009 31.387214945956657,129.48805791533232 31.554596106507233,129.77894068379828 31.719885002567025,129.99160056648907 31.797298789322667,130.1089293219702 31.870528047067637,130.4755778561448 31.973049007901864,130.86910749842718 32.075569968743366,131.2137459850819 32.12369205241703,131.35795489558586 32.24504339381383,131.60237472963854 32.3601179417019,131.87612188535968 32.46682343156135,132.1620864452616 32.61328194703674,132.52870251772583 32.743002346476715,132.86354013356686 32.86853821690602,133.17637674962498 33.014996732381405,133.51120501537298 33.09241051914432,133.69939104302466 32.92921388758987,133.76293403222735 32.93549068111315,133.78004173035333 32.94385973914905,133.75560215775113 32.979428235768864,133.74093840182286 33.16354751237668,133.853360293675 33.27652979575214,134.17107139012842 33.4229883112348,134.537655709697 33.579908149265975,134.90423423635366 33.72427440025058,135.28791355664544 33.833072154615365,135.61049253366218 33.93768537995493,135.97461038420442 34.04857539882505,136.3582720037648 34.12808145008603,136.54643493802178 34.24106373346149,136.91542535302142 34.33730790078698,137.2477560688185 34.44192112614837,137.60451756947077 34.53398076444137,137.9514995211266 34.63859398980276,138.27648495387803 34.73065362810303,138.64056097363755 34.803882885848,138.98019721213677 34.86874308556435,139.30028149212558 34.9064038466895,139.56660779585218 34.92732649175014,139.8549209001976 34.954525930355885,140.2434049281219 34.977540839929134,140.6098933343328 34.99846348498977,140.74182774420296 35.0361242461222,141.06433092286716 35.073785007240076,141.46012415549012 35.13236841344042,141.83880889511602 35.18676729063009,142.20527211729677 35.24953522582655,142.5839447039798 35.27673466442502,142.78671522771947 35.31857995456812,142.97971203330053 35.36879430273257,143.2924123133198 35.41900865089701,143.64663801258575 35.44202356047754,143.85428504839 35.46922299905418,144.12300198576304 35.460853941040114,144.22071646482982 35.51106828920456,144.43812970573526 35.540359992293816,144.79966631922798 35.561282637369004,145.1538690301586 35.569651695397624,145.4005863476068 35.58429754694953,145.50318089628308 35.61568151455867,145.7474518073559 35.64288095313532,146.05522949795522 35.66589586271584,146.32636360871402 35.693095301314315,146.60482237441101 35.71401794637495,146.92968671587005 35.73912512046081,147.22279350149984 35.7642322945394,147.50612654591532 35.79143173313787,147.80411101986283 35.810262113700446,147.9897387602432 35.83746155229892,148.32679586604354 35.86047646187217,148.59301867467548 35.87721457792213,148.80550625053365 35.88558363595075,148.97158714085163 35.87930684242747,149.25978351583763 35.889768164961424,149.57484156516512 35.906506281018665,149.87768403602604 35.906506281018665,150.1243511968405 35.9357979841152,150.51022130619822 35.93789024862781,150.91318008837152 35.94207477763848,151.3307845455256 35.93998251312587,151.70198220890416 35.94207477763848,152.1439927473166 35.95044383567438,152.49808352420405 35.94207477763848,152.8643786524044 35.91696760355262,153.09147873355505 35.969274216236954,153.2355518284876 35.986012332294194,153.53834660954635 36.00275044834416,153.8631140480793 36.021580828906735,154.15124978228414 36.04041120947659,154.48333399602416 36.036226680451364,154.84227262881723 36.01739629988151,155.1572550279161 35.98182780326897,155.4942082199832 35.96718195172434,155.73349085556583 35.96508968721173,155.8042985103475 36.19314651847526,155.80918178893626 36.55720054269477,155.8506896155577 36.914977773383725,155.89219736808627 37.297862178165815,155.93858829796045 37.668192995901336,155.97277102917542 38.02178569757234,156.00695371014626 38.35027122516476,156.03136988008737 38.65155731417326,156.04357795544092 38.96958151922445,156.0655524749327 39.291790253308136,156.0875269736589 39.607722193861264,156.10950145162496 39.944576779482304,156.13635911872007 40.2312170169389,156.1607751527972 40.41952082255739,156.1656583565382 40.748006350157084,156.1973991558607 41.09532225831936,156.23158150668314 41.43008457943506,156.25843903279747 41.74183199097024,156.28529652789985 42.061948460541316,156.31215399198845 42.27535944025294,156.32436191995475 42.618490819397266,156.32924508934775 42.98463710811484,156.3756351474458 43.32567622275383,156.4122588121645 43.70228383401263,156.4415577024156 44.060061064701586,156.4684149860641 44.42202282440849,156.50015537220315 44.82373760975315,156.5294541517269 45.12293143424904,156.5465450894044 45.363541852544586,156.5636360145254 45.564399245224195,156.57584381049674 45.82384004408232,156.58805160005068 46.15651010068541,156.61735026885617 46.20463218434452,156.94695774977845 46.19417086181784,157.24726272147745 46.187894068294554,157.60860014984974 46.179525010265934,157.9455178302651 46.1732482167572,158.27754787163576 46.16697142322664,158.64375198028029 46.16278689420869,158.99041989167927 46.164879158721305,159.34196517450255 46.16069462971063,159.666651585203 46.15860236519802,159.957156638382 46.15441783618735,160.17686393358235 46.15232557167474,160.49421525311482 46.14186424914806,160.9848806972459 46.131402926606825,161.48285892784952 46.123033868578204,161.95397558182412 46.11048028153891,162.38358660037375 46.10629575252824,162.73996245047965 46.06235819787253,163.09633284410302 45.96820629506692,163.46978363473136 45.81756325055903,163.79685326185609 45.63344397394394,164.10195138316885 45.608336799865356,164.1483259475135 45.673196999581705,164.12635906013566 45.78408701845183,164.21910799920443 46.018420643231366,164.37287516298602 46.26740011956281,164.57057430975692 46.48081109927443,164.69993210208486 46.67329943391087,164.87078091492003 46.926463439252984,165.08800116655584 47.187996502630995,165.28813488548803 47.44743730149639,165.4467762452532 47.69850904233317,165.43945436013382 47.780107358099485,165.4858262603393 47.92238134457148,165.68839716246657 47.97050342823786,165.80798638577835 48.28225083978032,165.85435755200706 48.623289954419306,165.99102992578446 48.96223680454568,166.07644975201038 49.246784777489665,166.19115588286513 49.52087142789969,166.32538574401406 49.75729731719912,166.43032855104502 49.99163094197138,166.54503293866765 50.25734853436734,166.6597367612667 50.57746500393114,166.77199952990668 50.893396944484266,166.90378556772885 51.04613225348294,166.979440178402 51.32231116842013,167.1405104663172 51.57338290924963,167.2869370340468 51.818177856563125,167.42360099993675 52.15921697120211,167.54562172036276 52.521178730909014,167.6578802185013 52.83292614245147,167.75549586399575 53.157227141040494,167.84334959511943 53.43549832046119,167.97512957042272 53.659370622706774,168.08250529529323 53.85395122184855,168.17279813531604 54.05899314353883,168.26797129044644 54.341448851977475,168.4070698176074 54.686672495627136,168.57057053304197 55.06746463589661,168.6828240910745 55.421057337574894,168.7145478246457 55.71397436855477,168.74627151501045 55.994337812488084,168.73895066722434 56.324915604593116,168.7657937645272 56.48392770711507,168.83168123584073 56.77893700260756,168.84388259896332 57.08022309160879,168.91221011433845 57.45892296736565,168.99273871443074 57.63258092144679,169.05862554378837 57.9129443653801,169.1806376986333 58.23933762846718,169.33437210376178 58.53225465944706,169.46126322937198 58.72892752310145,169.54423013007363 58.92560038675583,169.61987616435363 59.247809120832244,169.7443255572125 59.584663706453284,169.88829559399346 59.93407187912089,170.02250414899027 60.23326570361678,170.14695139092146 60.57012028925237,170.2396763546658 60.95718922303786,170.4348855982862 61.31915098273748,170.61789277863136 61.64763651033718,170.77649783876586 61.92590768975788,170.92290155131377 62.15814905003208,171.05222406547 62.43432796495472,171.18642591555 62.716783673393365,171.3255070172072 62.95739409169619,171.44994729917926 63.22938847760088,171.58902682782355 63.526490037598705,171.7573851465022 63.81103801054269,171.89402288766723 64.09767824799928,172.04773938874314 64.4345328336276,172.2185343117253 64.73163439361815,172.3795683782082 65.01199783755146,172.51620247100618 65.30491486853134,172.67479460981122 65.62293907358253,172.83338566928614 65.92004063357308,172.97245694093544 66.23388030962087,173.13348579757258 66.54144319214538,173.28963392927653 66.83017569411459,173.44090143415633 67.05823252537812,173.5555713077938 67.3281346467702,173.6946382698443 67.62732847126608,173.84102364920182 67.92652229576197,174.00204650455453 68.25500782336167,174.17038739112468 68.58349335095409,174.32896827352852 68.89733302700188,174.5046258376151 69.20908043853706,174.69004071909148 69.52082785008679,174.8388594911812 69.87023602273985,175.01695283837762 70.2238287244254,175.19504482488992 70.55022198751249,175.363377095533 70.82430863792251,175.50731242083748 71.14651737199893,175.6683237654779 71.48127969311463,175.8415316975843 71.79511936916242,175.990343118483 72.10895904520294,176.15135112693497 72.42907551477401,176.3611477724753 72.53578100463346,176.49287958499735 72.68014725561079,176.56362414007162 72.96887975758,176.78561428127432 73.23041282095073,177.05151177813605 73.46265418122493,177.29057299384476 73.67606516092928,177.4954806564201 73.89156840515352,177.71990126831588 74.18239317162079,178.012620559497 74.45438755753275,178.2955790480646 74.7493968530107,178.6053658697747 75.02348350342072,178.8834387244151 75.28710883130407,179.15662987894393 75.55073415918741,179.4176220106565 75.81435948707076,179.67617208367847 76.06333896338765,179.93471929046427 76.30813391070842,180.17862912237615 76.51945262590743,180.43473170072684 76.76215530873014,180.64205077601218 76.8521226825178,180.73229497432294 76.88978344364295,180.7640023124659 76.94209005632001,180.80790470950342 77.09482536532596,180.96156244843223 77.27057558391971,181.14936497697272 77.41075730588636,181.28838665406693 77.59069205348351,181.49082024612835 77.82293341375043,181.74203057437808 78.05099024501396,181.97128812468873 78.21418687656114,182.1151826703317 78.41504426923348,182.29809818443755 78.67239280358626,182.56637167763074 78.92555680893565,182.82732566126106 79.1808130787831,183.09071550744193 79.44443840666645,183.3687348971671 79.49883728384884,183.45409106268926 79.63901900580822,183.58334409034796 79.82523054692865,183.75161582711917 80.0742100232601,183.99792444207924 80.30226685452362,184.22228250190165 80.50730877620663,184.4539543216615 80.52404689225659,184.51735883987567 80.63075238211604,184.64172874063115 80.71444296239497,184.83681744569003 80.86927053591353,185.00264156271805 80.90274676802073,185.0757988868354 80.79394901366322,185.21967428857897 80.65795182069996,185.38549568527378 80.58472256296955,185.50986095961525 80.50940104071924,185.6708032720835 80.42361819593498,185.85125242388676 80.44872537000629,185.91953011750775 80.62029105958936,185.99268456760365" stroke="red" stroke-dasharray="none" stroke-linecap="round" stroke-linejoin="round" stroke-width="0.5"><title>2024-05-01 52.5km</title><desc>1714541844000</desc></polyline><polyline fill="none" opacity="1" points="186.0,148.14894626553905 185.78262328077835,148.18928097857588 185.58364882349997,148.22558211099295 185.32141659079207,148.26726106124352 185.04538266162126,148.28205033336053 184.7820002875378,148.28205033336053 184.57957540614734,148.26188313985404 184.38060094886896,148.29011720181097 184.09536588872288,148.29146167939234 183.82508266641526,148.28742824622805 183.55134901998827,148.30087301846197 183.29946805961663,148.30893987498348 183.01653328222164,148.3116288260171 182.75200076676265,148.278016897214 182.54152489577245,148.2591941783012 182.2528394115143,148.24843832642546 181.98830689606257,148.34255172210032 181.7812814491772,148.37481901181127 181.58000670916226,148.38691922435646 181.4327886136016,148.19331444284944 181.32697560742236,147.9351701518235 181.2545167010103,147.78996168654248 181.15790482579905,147.54256566950062 181.09924761585717,147.37315040446992 181.032539416301,147.20507747578085 180.94627881344059,146.98590704107028 180.8450663727417,146.743873952767 180.7507547802743,146.50855959066575 180.65299276369478,146.33240713337545 180.298749221256,145.72056094326126 180.15958211530233,145.51077833043018 180.11242631907226,145.34805994636372 179.96980878899922,145.47312467464326 179.74898164566548,145.56591383954583 179.55115732976265,145.46505601961144 179.4556955959124,145.44622913796502 179.17506110126124,145.43009178865304 178.98988834044576,145.4542978049385 178.74605836968112,145.53229465511413 178.5344323573081,145.60087769708207 178.44242104759178,145.6304624245322 178.18478938036424,145.72862943618566 177.90185460296198,145.82948516585293 177.76958834523975,145.88596402511303 177.58901614990464,145.99757627132567 177.4694014472625,146.05136495588522 177.2646762831282,146.18449097195298 177.05305027076247,146.24500233681374 176.867877509947,146.30416872631758 176.63324867015035,146.37140292577442 176.42622322327225,146.43863676983528 176.2283989073694,146.50318092578618 176.03747543969075,146.61747706512142 175.83505055830028,146.79631484602396 175.59467101164773,146.88506048058116 175.44170220923115,146.94422389300325 175.17946997651597,147.05582685371064 174.91723774380807,147.17684100590577 174.76196865864767,147.2534827069021 174.52043897062686,147.37180582985366 174.41922652992798,147.406764723758 174.18689797287516,147.56945677394287 173.94881870896643,147.73349128026894 173.82345329946838,147.82491943149307 173.59687544927874,147.9015572285589 173.32314180285175,148.00911827043 173.13911918340455,148.0534869353096 172.855034264634,148.10457793352543 172.68251305889862,148.11398941081825 172.42488139167108,148.14894626553905 172.17070014855562,148.0924774524883 171.9464225811098,148.0292858645562 171.7877030718373,147.93785918184403 171.56227536301594,147.7523147768734 171.35640005751338,147.83702016698135 171.15167489337182,147.97685005334188 170.92279676043836,148.09113295388215 170.680116931042,148.1771805780918 170.3960320122642,148.2807058547869 170.1453011932681,148.36809666653608 169.99118224948324,148.42321979295866 169.79795849906805,148.5200208029746 169.6265874347082,148.60203219359482 169.38045718119247,148.6342988253473 169.1458283414031,148.6840430556831 168.973307135675,148.7122761809942 168.82838932285813,148.75260910849556 168.5558058177994,148.87226270797328 168.37293333972048,148.98115994987802 168.09344898643758,149.1303879902507 167.92092778070946,149.2177729673449 167.70470120285609,149.3186010415384 167.4401686873971,149.46110335751473 167.231993099158,149.60091539997302 167.13308094120293,149.66947651343162 166.8777495567192,149.738037257599 166.59826520342904,149.82407374739796 166.2854267503717,149.91683118651326 166.09680356543686,149.9611932010639 165.80926822255424,150.04319530579505 165.55968754492642,150.16283677329466 165.2779029088997,150.29995257796963 165.14103608568257,150.37523121528466 164.90525710451766,150.4760501215378 164.68903052667156,150.5741797568553 164.5038577658488,150.6387029405032 164.3106340154336,150.73011022421542 164.21057171611028,150.77581361997272 164.14731394067348,150.7986652563277 163.93453778693947,150.89275979739614 163.68725739205547,151.02717936405315 163.46412996597792,151.13336981832344 163.2053481573821,151.2704751708743 162.95001677289838,151.41967637707967 162.80394881871325,151.47881871370737 162.57392054440425,151.59172604812284 162.35539368380705,151.71000884850946 162.1587195092725,151.80275254852404 162.02990367566235,151.68715884769335 161.92064024536376,151.4492475797315 161.78377342214662,151.21133186652696 161.69406239516684,151.08497934140814 161.5548952892059,150.87259673999506 161.4214788901154,150.67230863580244 161.32026644941652,150.5271313959529 161.16499736425612,150.5728355203828 160.94762064503448,150.71129113121697 160.7739492979381,150.79328840440485 160.541620740878,150.89141559456402 160.25063497388328,150.90216921325646 160.1114678679296,150.8578104776052 159.85613648344588,150.71935646019756 159.5478985958689,150.57149128377296 159.1936550534374,150.52041018734417 158.93257296209777,150.47470587470525 158.65998945703905,150.4652961429092 158.40005750707496,150.42362438993223 158.2275363013323,150.39270654957636 158.03316240954882,150.363132892885 157.79048258015246,150.34162473577635 157.51789907509374,150.31205096041504 157.23841472181084,150.28650991731683 156.96238079264003,150.26365736163643 156.71164997364394,150.2381162214424 156.47817127522285,150.21795212719917 156.23549144582648,150.213919304515 155.99971246466157,150.29995257796963 155.86284564144444,150.33624769082144 155.76163320074556,150.17627956454362 155.63626779124752,149.9759805048934 155.50975224037393,149.77433397264758 155.40738965830678,149.60763709409184 155.29582594527164,149.43959367620573 155.16816025302978,149.25944866818827 155.07039823645027,149.07795671599342 154.9093784444267,148.82789689783112 154.7587099247612,148.59665441368088 154.61034168783226,148.36809666653608 154.48497627833422,148.31028435057215 154.2756505487123,148.40305282318423 154.15488570470188,148.49582061950514 153.8903531892429,148.61413219009137 153.74428523505776,148.67597643694535 153.53380936406757,148.77277552431497 153.29803038290265,148.84134109905608 153.03119758470712,148.9851931631665 152.90238175109698,149.06316836881706 152.77701634159166,149.1236660440818 152.54928835002647,149.21373982776186 152.34571332726046,149.29171363318983 152.13178703215817,149.36699823342678 151.96271625054214,149.42615010693135 151.630325394166,149.8146635346502 151.4888580054685,149.88053487779416 150.6745579144117,149.8617145288199 150.54344179805048,149.82272943171847 150.31916423060466,149.86440315180425 150.0385297359462,149.9087653490751 149.77744764460658,149.9410286681632 149.53361767383467,149.96791470493554 149.30703982364503,149.9827020009543 149.06090957013657,149.99480068492358 148.83778214405902,149.99480068492358 148.5364451047135,150.005555061015 148.28456414434913,150.02437519731848 148.19485311736935,150.01630942802603 147.89236593664828,150.0122765414635 147.57032635261567,150.03109666782802 147.26668903052632,150.0257194917058 146.94004888100608,150.01630942802603 146.6398619830361,150.00958794970848 146.3408252264344,150.00824365362132 146.06824172137567,150.005555061015 145.77495567163714,150.00152217104733 145.49892174246634,150.005555061015 145.22403795467108,150.00689935738774 144.96295586332417,150.00286646784753 144.6938227823848,150.00689935738774 144.4212392773261,150.005555061015 144.14980591364292,150.00152217104733 143.85997028801648,150.00152217104733 143.71620261657517,150.00152217104733 143.41256529447855,150.0042107645031 143.11352853788412,150.005555061015 142.83404418460123,150.00689935738774 142.5649111036546,150.0109322456574 142.32913212248968,150.01362083712593 142.12095653423603,150.00689935738774 141.86217472564022,150.0042107645031 141.5941917860764,150.005555061015 141.2894043226188,150.00689935738774 141.06397661379742,150.00824365362132 140.8834044184623,150.01496513264465 140.5498634207106,150.00958794970848 140.26347821919626,150.02168660812367 140.03920065174316,150.0176537232628 139.76316672257235,150.0189980183568 139.44917812813947,150.02034231331072 139.16739349211275,150.02034231331072 138.91896295586048,150.0189980183568 138.6682321368644,150.01630942802603 138.4083001869003,150.02303090279293 138.16792064024776,150.02303090279293 137.92409066947585,150.02437519731848 137.6285043369935,150.02437519731848 137.3777735179974,150.0351295484288 137.1362438299766,150.03109666782802 136.83375664925552,150.02706378594849 136.515167489335,150.02437519731848 136.3483969904628,150.00286646784753 136.06086164758017,150.0391624277545 135.80898068720853,150.0378181347878 135.62955863324896,150.0391624277545 135.3086691905919,150.0378181347878 135.0188335649582,150.0391624277545 134.74970048401883,150.0324409615023 134.47366655484802,150.0351295484288 134.21373460487666,150.04722818256596 133.93540039296204,150.04722818256596 133.67546844299068,150.04722818256596 133.42588776537013,150.04857247453856 133.22921359083557,150.0606710958964 132.95087937892822,150.0552939322688 132.6897972875813,150.05260534960144 132.4908228303102,150.0552939322688 132.1952364978206,150.0566382233883 131.92610341688123,150.05932680520436 131.75358221115312,150.06335967686027 131.71217712177167,149.95447169364797 131.6535199118225,149.85499296887247 131.38668711362698,149.84827140537254 131.13480615325534,149.83482826773434 130.97263621987076,149.82810669358787 130.7069535630435,149.82272943171847 130.4102170891856,149.81331921797664 130.1433842909828,149.79718740680437 129.8696506445558,149.7810555751912 129.593616715385,149.768956688059 129.31873292758974,149.76492372313078 129.03579815018747,149.77433397264758 128.75516365552903,149.7837442152104 128.49983227105258,149.79181013187008 128.23069919010595,149.79987604341932 127.9696170987736,149.80390899727536 127.72233670388232,149.8092862670992 127.49000814683677,149.81869648382235 127.35774188910727,149.81869648382235 127.11966262519854,149.82810669358787 126.83557770642801,149.83751689639666 126.61820098720636,149.84289415202238 126.62280155268672,150.07814686200618 126.60784971486282,150.37791972981813 126.60094886663137,150.65348945735968 126.56184405999375,150.9142670234305 126.53309052571421,151.0594398488838 126.4215268126718,151.32424157280093 126.29271097905439,151.59575843440234 126.16619542818808,151.86592540672336 126.04888100828975,152.12264592519568 125.95916998130997,152.41027428560847 125.9407677193667,152.68445602099928 125.98792351559678,153.0285188678372 126.04658072554594,153.35241328968004 126.09488666315156,153.62119908808745 126.12479033881391,153.88460366853087 125.84530598552374,153.92223244973775 125.57387262184056,153.96120499881908 125.31164038912539,153.99614580353955 125.06551013561693,154.03108651243565 124.99305122921942,154.0499007006074 124.76302295490314,154.07946579731924 124.53184453921858,154.11843786543523 124.28456414434186,154.1587536725201 124.1419466142761,154.16412910382496 124.04993530454522,154.15472209755262 124.23740834810451,154.16547296129647 124.50309100493178,154.13053262095582 124.76762352039077,154.0875289936057 124.97119854314951,154.05930778427592 125.20007667608297,154.02839876899907 125.41170268845599,153.99883355378006 125.68313605213916,153.9585172406405 125.90166291272908,153.92760798083782 125.93501701250352,153.85772589963108 125.87635980255436,153.61985517319954 125.81540230986866,153.38869970359974 125.7854986342063,153.24220947301 125.73834283796896,153.07018209734724 125.66703407293971,152.77988063255452 125.60377629750292,152.50704498384766 125.54741937029758,152.248988154548 125.50371399817959,152.043345375032 125.4462069295987,151.81484950308095 125.33579335793183,151.5823171418224 125.21387837255315,151.36187791906286 125.10231465950346,151.10110952081413 125.14602003162872,150.88200617075836 125.20582738295343,150.64139139938743 125.26908515838295,150.43437840375736 125.34039392341947,150.16955817069447 125.40595198160008,149.95312739173914 125.46805961566133,149.73669293283 125.44390664685488,149.57806161341705 125.17822399002762,149.51353305340854 124.9424450088627,149.45303723128382 124.6664110796919,149.38178622757368 124.41107969520817,149.3199454104606 124.1534480279879,149.25407116607312 123.90501749173563,149.18954096342804 123.71524416542525,149.14383187193198 123.44841136722971,149.07257913718968 123.1896295586339,148.99998160094674 122.95155029471789,148.93679451935986 122.73532371687179,148.88167361751493 122.44203766712599,148.80504172315068 122.19245698950544,148.74454253322347 121.911822494847,148.66925425075897 121.664542099963,148.61816551969423 121.43566396702954,148.55632099188733 121.19413427900872,148.4447311921549 121.00896151818597,148.278016897214 120.83298988834576,148.10323343619802 120.62941486557975,147.90290174719303 120.44769252886908,147.72945767023066 120.26021948530979,147.56676766605597 120.00028753533843,147.4592028845036 119.7242536061749,147.44710178966852 119.51492787655297,147.5022289062572 119.34700723630522,147.60038147379055 119.11467867925239,147.7980288669787 118.88810082906275,147.9795390745594 118.66957396846556,148.09516644926498 118.42459385632537,148.17314710870323 118.18881487516046,148.20541482798944 117.959936742227,148.2148262307055 117.83227104998514,148.2228931417767 117.55508697943878,148.24171591438335 117.30665644318651,148.25650521618627 117.06397661379015,148.27667241821382 116.81209565342579,148.29415063411852 116.55101356207888,148.3129733013211 116.32558585325751,148.33045146736367 116.09210715483641,148.34255172210032 115.82527435664088,148.37078560507143 115.57454353763751,148.3896081589155 115.33761441510433,148.4164974732539 115.08803373747651,148.42859764616514 114.8292519288807,148.46086471769013 114.58082139262842,148.5522876426785 114.36919538026268,148.70017627781635 114.19437389179075,148.8964621755904 114.1069631475475,149.04703560684447 114.03450424114271,149.252726790186 114.0,149.51756609799213 114.01610197919945,149.8160078511819 114.03910480663035,150.09965546428066 114.0632577754368,150.39942782560502 114.07935975462897,150.6642432770186 114.10466286481096,150.93980680715504 114.12766569224186,151.22746188586825 114.14721809556067,151.53527250605657 114.15411894378485,151.84979619612477 114.15066851967276,152.08097959599945 114.13571668183431,152.40758620016095 114.11041357166687,152.71402428693636 114.09086116834806,152.99491938993106 114.07130876503652,153.26908854059639 114.05060622034216,153.54190786729032 114.03105381703062,153.82681639528528 114.02070254468708,154.1130624148509 114.09546173384297,154.39392667134143 114.23117841568455,154.62506390341332 114.26338237408345,154.6358143703037" stroke="red" stroke-dasharray="none" stroke-linecap="round" stroke-linejoin="round" stroke-width="0.5"><title>2024-04-21 79.4km</title><desc>1713660889000</desc></polyline><polyline fill="none" opacity="1" points="19.343208639416844,194.40778442399642 19.425766397151165,194.29196473651973 19.764253203837143,194.38365537089703 20.399947938349214,194.149602232299 20.577447117466363,194.84451587692456 20.69096403434378,195.51045493851416 20.77145784813183,196.1739618600095 20.761138128407765,196.48278759704408 21.3782573674398,196.36697843511683 21.972673223077436,196.45624804931322 22.090318027840112,196.77713324008255 22.0428473171487,197.29102268652787 21.81994137127913,197.53951906898874 21.985056886740495,197.31756126411346 22.082062252076867,196.79402180942816 21.663081631602836,196.29218470588967 21.98299294278695,196.17878729428048 22.366886516232626,196.04367474944956 23.012900970461487,195.76379622039713 23.73115346270788,195.47426309735056 24.313185654689732,195.30295427069723 25.083036745505524,195.10751587060804 25.568063572165556,195.0616720530361 25.751754583114234,195.79516208831228 25.91687009856105,196.46831148391902 26.09436927769275,197.09077606141 26.33172283114982,197.76629981550286 26.577332160399237,198.4972905110517 26.818813601763395,199.22584541738615 27.095382090148632,200.00744802259214 27.322415923903463,200.66841207214748 27.54325792581949,201.31488395794622 27.817762470265734,202.11088764483975 28.05305207980564,202.81279516183713 28.234679146800772,203.348256502386 28.42456198958098,203.8812933938425 28.626828496009693,204.51320337749894 28.85799021765706,205.1788606485734 29.093279827182414,205.8758505668775 29.336825212485564,206.56799599568694 29.545283550745808,207.16848149967336 29.788828936048958,207.88229114067508 30.001415162194462,208.51650195795446 30.16859462159482,208.96502066279754 30.789841748512117,208.71905988171238 31.318211397971027,208.71423709486044 31.687657363807375,209.37012677088933 32.0199523386691,209.8909669374516 32.234602508753596,210.55405646849067 32.39971802421496,211.1930154663587 32.682478344439005,211.8343676817076 32.96936655254103,212.57937456032778 33.31198124711955,213.38462979388714 33.47709676257364,213.8161770726947 33.75779313885141,214.49602834221514 33.966251477111655,215.02880546906636 34.16645403960865,215.6314795756989 34.34188927478681,216.25342261439073 34.581306772190146,216.9910540782621 34.82691610143229,217.77446016048088 35.0374383836388,218.58917404857675 35.173658683896065,219.14113828518202 35.20255389910017,219.78467803980857 35.241768834028335,220.40650826172532 35.29130348865874,220.9777095166446 35.42545984496974,221.845329737851 35.52865704213036,222.50325316103408 35.635982127183524,223.14910832375426 35.7247317167421,223.88410790466696 35.78458609109657,224.36606204211057 35.825864969956456,225.0504194982168 35.89397512008145,225.74680451858512 35.951765550489654,226.47690172833427 36.00130020513461,226.97084869503124 36.0632185234208,227.6984975165924 36.10449740228796,228.20687421045295 36.13132867355307,228.66223523062217 36.14990416904038,229.38501192687363 36.17673544030549,229.98489927903938 36.189119103961275,230.94131372006632 36.193246991846536,231.81578369819363 36.189119103961275,232.49028321450533 36.23452587070642,232.98169179913384 36.26961291774205,233.73805502588766 36.271676861695596,234.50402803352517 36.22007826310437,235.06524359290052 36.298508132946154,235.3735450100994 37.06216739194497,235.44821113635226 37.81344298727345,235.51083415164612 38.50692815219372,235.56382272337942 39.142622886705794,235.61199404602849 39.908346089636325,235.66739094202057 40.51101772105176,235.73242191013196 41.235462045122404,235.7830014245519 41.908307770616375,235.8383979076425 42.616240543131426,235.89620279086375 43.2808304928476,235.94437341563025 43.87937423638505,235.99254393925912 44.430447269223805,236.03589732405453 45.07646172345267,236.08888468311125 45.625470812345156,236.12742086737853 46.18479962096171,236.16836549224718 46.30863625755592,236.7439910133362 46.292124706014874,237.59415626826012 46.27561315445928,238.36963364977055 46.279741042351816,238.95483680956568 46.261165546864504,239.658024161532 46.24465399530891,240.7296209915039 46.224014555882604,241.64224491669665 46.18479962096171,242.5066758129742 45.9371263477733,243.23864756030707 45.613087148689374,243.78038794059466 45.43352402562596,244.12468740683835 45.60276742897986,243.88391909203347 45.970149450862664,243.6961180541457 46.5129667079309,244.09820301577383 47.0289526937413,244.519541978887 47.62956038121047,244.8734607344686 48.04441311380651,245.19366824264398 48.67391601647978,245.41275501828568 49.37565695717785,245.6390622407198 50.08978156152443,245.9953712210845 50.762627287018404,246.2313025044641 51.42928118067357,246.59482453468627 51.86683729663491,246.84519397838085 52.59747345252981,247.0763018122725 53.2207845233861,247.26648255682812 53.63150936808961,247.46388368987573 54.077321259821474,247.68054151770775 54.7192078261578,247.983859044376 55.40237327136856,248.09940752508555 56.069027165023726,248.1258873034094 56.59739681448991,248.18847574904248 57.34248057798686,248.36420393506523 57.9595998170189,248.60733249698387 58.578782999975374,248.87212305371577 59.27226816489565,249.14894628245384 59.98845671320305,249.44502308852861 60.61795961588359,249.66647641732197 61.33621210811543,250.0347582061222 61.86664570152789,250.31397445248513 62.29388209775789,250.5209774109917 62.85527485032071,250.8074086625602 63.45588253779715,251.13234735741025 63.9883800751486,251.4139571772448 64.54770888375788,251.6859360357612 65.14831657124887,251.99642124138518 65.74892425871803,252.29486818379883 66.38461899322283,252.61256551008773 66.90679681085021,252.8869369405711 67.51978816198971,253.1925924853913 68.19676177537622,253.5367509517091 68.77260213552654,253.8423978578303 69.26175685006456,254.10231486476368 69.81076593896432,254.3814817107468 70.36390291574935,254.67508456442192 70.80558691959595,254.89889405782196 71.37936333580728,255.1900837939229 71.90154115344194,255.45479853625875 72.32258571786224,255.77485865542985 72.81586832028552,256.1622938928904 73.24104077259108,256.5954435739968 73.67653294461343,257.0237724592389 74.29365218363091,257.6614383267497 74.83234155282116,258.20524506336915 75.36690303410433,258.74422666645114 75.83335436527705,259.2086069389934 76.24407920998055,259.66575970995837 76.5619265772184,259.96170113422704 76.80340801857528,260.18305320728723 77.10267989034764,260.5439487603653 77.21413286328607,260.70033507560584 77.61041010038753,261.0419753288825 78.01907100114477,261.41248085664665 78.50822571568278,261.9177060546335 79.1294728425928,262.562453532797 79.58354051010247,263.0147282989037 80.05824761703843,263.5151070471584 80.19034002941044,263.7243968551338 80.3038569462733,263.95774071948654 80.47929218144418,264.1189149973052 80.73728517436393,264.3859325862595 80.74760489407345,264.50620976777645 80.82397081996896,264.7154905657135 80.67949474394845,264.88387603352567 80.58042543467309,265.0883424459644 80.45246091019362,265.4082686009442 80.40086231161695,265.70894702520127 80.3017930023343,265.96632463740207 80.3410079372552,265.692109137226 80.45246091019362,265.4130794866451 80.36371132064232,265.14126286868304 80.67949474394845,264.62889184556843 80.73728517436393,264.36668817890495 80.63408797718876,264.23438244285717 80.3987983676634,264.00585256235354 80.55772205130052,263.7268024740479 80.44626907836209,263.6233606336773 80.08095100041828,263.35152288387144 79.63720305262541,262.8872262058394 79.31729174141947,262.562453532797 78.80749758745515,262.0548366946623 78.3327904805119,261.57607880165415 77.9406411312957,261.1670817585418 77.4329109212631,260.68349352349105 77.00361058107956,260.233578925463 76.58875784849079,259.80049774096733 76.1945445553356,259.4010934233429 75.83748225316958,259.0522104846805 75.3875424735379,258.5830147427132 74.91902719842619,258.1138094314574 74.48353502641112,257.6806883422105 74.04185102255724,257.23312131578314 73.68478872037667,256.88179916193985 73.34217402580543,256.5232525269639 72.89429819013458,256.07806939647344 72.45261418628797,255.66416167448187 72.12031921141897,255.44035962888302 71.50939180422574,255.10104269573094 70.81384269536647,254.72802894235247 70.1657642972059,254.41517403190846 69.56102872183692,254.10472148998633 68.9975720253351,253.81833131967323 68.343301795343,253.50787071898594 67.71586283660145,253.1757454351955 67.26798700091604,252.94229218308828 66.54560662079894,252.586090900586 65.91197583023313,252.2611727552994 65.32581575035874,251.94106372122587 64.71076045528025,251.62817088364136 64.11840854357433,251.31768070390717 63.5528879031408,251.0264419170344 62.991495150577975,250.76167618118416 62.353736472119635,250.4271042073542 61.76964033619879,250.14788933540513 61.18760814420966,249.83978622956784 60.593192288557475,249.53408609687176 60.13706067710882,249.29096734027735 59.56947609272902,249.00692434688244 59.018403059882985,248.72047065365587 58.50241707407986,248.4653072138608 57.93276854575379,248.17643952273284 57.71605443170847,248.21254818273155 57.381695512907754,248.34976057320273 56.77695993755333,248.2269916308378 56.27542155935225,248.12829455446808 55.60051188991201,248.0897785072175 54.90289883711375,248.01996800701454 54.44470328171883,247.82738621714998 54.07525731588248,247.6492466243726 53.48496934812283,247.36518333536515 52.938024203169334,247.15815194594143 52.39107905821584,246.99445138699048 51.930819558874646,246.85000874862635 51.50358316263737,246.6213060471946 50.87201631600328,246.26019188284954 50.294112011899415,246.0531505349427 49.77606208215002,245.8099949413081 49.23530876902805,245.54998413203066 48.65121263311448,245.38867965064128 48.1434824230746,245.2249664813953 47.941215916631336,244.93124287055434 47.56351417503902,244.85901517773164 47.103254675697826,244.5604716376747 46.66982644760719,244.1824714267932 46.263229490803496,243.9055883437377 45.809161823293834,243.57573196565136 45.55942460616643,243.86947291287834 45.15282764934818,243.8815113961391 44.647161383261846,243.5733242374481 44.193093715752184,243.23623979675722 43.74315393613506,242.90637380374756 43.27463866103062,242.54279338724155 42.793739722263126,242.21773317351654 42.35205571840197,241.83247066453623 41.908307770616375,241.56278306166314 41.4645598228235,241.33161973775168 41.00430032348959,241.1173099936641 40.57087209540623,240.97042238433824 40.11680442789657,240.81149374847155 39.66067281645519,240.669420248616 39.218988812608586,240.5490182892354 38.785560584532504,240.43583987160673 38.40579489897209,240.37804642185802 37.757716500804236,240.36359803668347 37.188067972478166,240.3298851025811 36.60397183654277,240.3058044050449 36.038451196109236,240.2480106279072 36.03638725216297,239.82659327074543 36.0425790839945,239.42924981887518 36.04670697187976,239.04875691477355 36.05909063553554,238.45873962070254 36.07560218708386,237.9529984382334 36.08592190680065,237.45447122172664 36.1292647296068,236.92462366028303 36.17260755242023,236.4357080114478 36.22007826310437,235.90583692390646 36.255165310132725,235.4891569733918 36.30676390872395,234.97612444255174 36.33772306787432,234.48475858596976 36.34185095575958,233.98615600202538 36.31089179660921,233.50681286486542 36.292316301114624,232.9407414859179 36.286124469283095,232.5914564309278 36.28406052535138,232.09522161905807 36.28199658140511,231.50743445441185 36.27786869351985,230.87867822686349 36.27374080562731,230.339042275049 36.25722925407899,229.8162578344236 36.242781646491494,229.4018764443863 36.22007826310437,228.70560247505273 36.203566711563326,228.3032476677945 36.151968112979375,227.67681295191142 36.09830557045643,227.098550325185 36.05702669158927,226.61906316594286 36.00336414906633,226.00703985532346 35.96002132626745,225.3974098355102 35.912550615561486,224.90101926247917 35.85269624121429,224.28172079993055 35.799033698691346,223.67686450835754 35.73092354857363,223.16838730245217 35.664877342387626,222.7249666874268 35.594703248316364,222.29840723474808 35.50801760269678,221.8139995796373 35.42545984496974,221.26932998029224 35.35115786301321,220.66921440578335 35.31194292809232,220.1799519191518 35.276855881063966,219.65452539120088 35.22112939458748,219.0784705261849 35.10348458983208,218.4831182607577 34.97964795323787,217.99862989071335 34.82691610143229,217.46110094474716 34.66592847386346,216.96694885057332 34.50081295840209,216.45832262765907 34.36665660210565,216.024414546544 34.226308413963125,215.501303312436 34.03229768329766,214.94925130123738 33.848606672356254,214.42611549092362 33.619508894655155,213.9439520796077 33.49773620199994,213.55339226864635 33.262446592481865,213.0374573602312 33.04779642239009,212.51909982491088 32.8393380841153,211.9934974021162 32.635007633740315,211.46788290328914 32.41416563181701,211.13755935500012 31.91056330966967,211.36661633709627 31.398705211751803,211.55468246036617 30.905422609328525,211.62942625949472 30.78158597273432,211.01459097631232 30.657749336140114,210.45278585660708 30.54836030714796,209.95365986142133 30.39975634324219,209.39424000342115 30.242896603544068,208.92161601130647 30.07778108810453,208.45621651513102 29.922985292352678,208.01733370120382 29.731038505633478,207.4458088383326 29.553539326523605,206.92732455781152 29.359528595858137,206.3533608046273 29.1717096970242,205.8083230616121 29.00453023762384,205.2946251517169 28.806391619080387,204.73991491478046 28.614444832346635,204.1779556000547 28.451393260838813,203.69798799208002 28.275958025667933,203.2035384583778 28.092267014719255,202.68013388144573 27.929215443211433,202.19289857021613 27.753780208033277,201.68153152525156 27.545321869765758,201.08090184283174 27.380206354311667,200.59122017669688 27.213026894918585,200.10152801442746 27.0313998279089,199.57081529625248 26.893115583712643,199.12934941391177 26.709424572763965,198.62756362429172 26.50096623450372,198.01961607189878 26.321403111440304,197.47679208193586 26.110880829233793,196.86398860650843 25.968468697145,196.31631174208633 25.8425681166118,195.79033657297623 25.69396415270603,195.24745958642598 25.648557385946333,194.82038728541374 25.163530559293577,194.94344283552527 24.548475264215085,195.11234153026453 23.989146455605805,195.27641335156477 23.52269512444036,195.44530958310497 22.91795954907866,195.66246004496497 22.426740890587098,195.86754469597145 22.121277186990483,195.97129270013647 22.13985268248507,195.97853091539218 21.809621651569614,196.10399294861236 21.1574153655165,196.24393055701512 20.810672783052723,196.0074837534794 20.761138128407765,195.5538850721914 20.693027978290047,195.14129546676486 20.583638949297892,194.48258432654075 20.422651321729063,194.00482589376406 19.92317688746698,194.26300972283934 19.442277948692208,194.26542264204545 19.264778769582335,194.42708764811323" stroke="red" stroke-dasharray="none" stroke-linecap="round" stroke-linejoin="round" stroke-width="0.5"><title>2024-04-05 108.1km</title><desc>1712276378000</desc></polyline></svg>