<?xml version="1.0" encoding="utf-8" ?>
<svg baseProfile="full" height="300mm" version="1.1" viewBox="0,0,200,300" width="200mm" xmlns="http://www.w3.org/2000/svg" xmlns:ev="http://www.w3.org/2001/xml-events" xmlns:xlink="http://www.w3.org/1999/xlink"><defs /><rect fill="#222222" height="300" width="200" x="0" y="0" /><text fill="#FFFFFF" style="font-size:12px; font-family:Arial; font-weight:bold;" x="10" y="20">Over 10km Runs</text><text fill="#FFFFFF" style="font-size:4px; font-family:Arial" x="10" y="280">Runner</text><text fill="#FFFFFF" style="font-size:9px; font-family:Arial" x="10" y="290">yihong0618</text><text fill="#FFFFFF" style="font-size:4px; font-family:Arial" x="65" y="280">SPECIAL TRACKS</text><rect fill="yellow" height="2.6" width="2.6" x="65" y="283" /><text fill="#FFFFFF" style="font-size:3px; font-family:Arial" x="70" y="285.5">Over 20.0 km</text><rect fill="red" height="2.6" width="2.6" x="65" y="287" /><text fill="#FFFFFF" style="font-size:3px; font-family:Arial" x="70" y="289.5">Over 40.0 km</text><text fill="#FFFFFF" style="font-size:4px; font-family:Arial" x="120" y="280">STATISTICS</text><text fill="#FFFFFF" style="font-size:3px; font-family:Arial" x="120" y="285">Number: 5</text><text fill="#FFFFFF" style="font-size:3px; font-family:Arial" x="120" y="290">Weekly: 1.2</text><text fill="#FFFFFF" style="font-size:3px; font-family:Arial" x="141" y="285">Total: 317.5 km</text><text fill="#FFFFFF" style="font-size:3px; font-family:Arial" x="141" y="290">Avg: 63.5 km</text><text fill="#FFFFFF" style="font-size:3px; font-family:Arial" x="167" y="285">Min: 18.7 km</text><text fill="#FFFFFF" style="font-size:3px; font-family:Arial" x="167" y="290">Max: 108.1 km</text><polyline fill="none" opacity="1" points="74.28582404914778,36.96717347810045 74.43795620434685,37.59774643898709 74.56242796772858,37.93728464898595 74.63157894735923,38.47084317069675 74.7422205148032,39.02056818600977 74.85286208224716,39.58645952072402 74.96350364963291,40.1846852270246 75.0603150211391,40.76674042562081 75.15712639258709,41.30028907889209 75.25393776409328,41.83383587145363 75.35074913559947,42.383548802361474 75.43373031116789,42.933259758065105 75.53054168261588,43.54764025351324 75.64118325005984,44.22668950962543 75.7518248175038,44.95423893946281 75.8901267767651,45.63328195249778 75.97310795233352,46.425494991999585 75.94544756051619,46.79734867757361 76.06991932383971,47.20153644113452 76.13907030347036,48.009908765074215 76.23588167491835,48.93144800470327 76.29120245866943,49.772145627532154 76.31886285054497,50.19249270678847 76.22205147903878,50.33799719593662 76.23588167491835,50.66134000974125 76.31886285054497,51.308023587524076 76.48482520162361,52.148708152613835 76.7199385323911,52.924720574723324 76.89973107952392,53.765396257527755 77.0933538225363,54.65456743455434 77.2731463695527,55.38206728179648 77.30080676142825,55.83473210783268 77.71571263927035,56.335895174823236 77.97848636191338,57.01488767948467 78.1997694967431,57.59687885704625 78.42105263157282,58.17886782127607 78.08912792929914,58.5830255219189 77.49442950444063,58.712355760711944 76.88590088358615,58.92251716562896 76.1667306952877,59.19734318270639 75.51671148673631,59.43983631735318 74.88052247406449,59.61766437187907 74.79754129849607,59.84399068784842 74.63157894735923,60.16731341576087 74.89435266994406,60.8624549676606 75.18478678446263,61.60609127175121 75.39223972341279,62.382055736583425 75.65501344599761,63.12568465688673 76.11140991159482,63.788481301264255 76.7199385323911,64.17645849291875 77.02420284290565,64.87158183495922 77.38378793693846,65.61519865914306 77.70188244333258,66.32648093633179 78.03380714560626,67.00542911737284 78.33807145594619,67.70053961107624 78.66999615827808,68.37948169690208 78.98809066455578,69.10691630395013 79.32001536688767,69.7696870471409 79.62427967734402,70.46478498725628 79.94237418362172,71.143714811682 80.28812908183318,71.82264162469073 80.60622358811088,72.50156542635523 80.93814829038456,73.22898044371686 81.22858240490314,73.92406267506885 81.56050710717682,74.6029771562753 81.90626200533006,75.15257238809136 82.27967729535885,75.6213432324439 82.54245101806009,76.21942808758467 82.68075297732139,76.55888061450969 82.25201690354152,76.88216803560499 81.69880906643812,77.14079748095537 81.03495966194896,77.43175508458808 80.2742988858954,77.8035334401211 79.55512869759696,78.17531089269323 78.7114867460914,78.54708744243544 77.9231655781623,78.98351963135065 77.32846715324558,79.30680193207809 76.89973107952392,79.51693506147421 76.12524010753259,79.85638027651294 75.41990011523012,80.21198874221591 74.83903188625118,80.48677653633058 74.06454091431806,80.85854747267149 73.24855935451342,81.2626452925906 72.55704955820693,81.56975892235641 71.86553976172581,81.90919958581799 71.5474452553899,82.03851011680672 71.00806761428248,82.28096706802899 70.42719938530354,82.58807865499693 69.87399154820014,82.92751706071431 69.23780253552832,83.34777309175115 68.53246254322585,83.84884608257562 67.77180176717229,84.39840812240436 67.09412216668716,84.89947767475678 66.4302727621398,85.27123789580946 65.82174414134352,85.67532406881219 65.21321552054724,86.04708240601758 64.99193238565931,86.12789931643056 64.92278140602866,86.12789931643056 64.42489435261814,86.435003186838 63.76104494812898,86.72594312744332 63.05570495582651,87.00071923040377 62.39185555133736,87.21084179988247 61.631194775225595,87.48561703262385 60.856703803292476,87.79271817975678 60.26200537843397,87.95435011506197 59.47368421050487,88.24528716862551 58.630042258882895,88.5523867920565 57.81406069919467,88.82715961727081 57.0119093353278,89.11809501238167 56.265078755270224,89.37670378839539 55.43526699958602,89.65147513432021 54.619285439897794,89.9585719374154 53.913945447595324,90.15252749575302 53.31924702267861,90.33031987503637 52.83519016514765,90.50811204787169 52.4479446792393,90.65357821751968 51.7979254705715,90.86369577421283 51.134076066024136,91.1384644517093 50.38724548596656,91.44555827254953 49.585094122216105,91.68800032761646 48.7967729542288,91.97893028699036 47.95313100266503,92.26985969362431 47.16480983479414,92.59311394156248 46.39031886286102,92.8840421812638 45.615827890869696,93.1426445969555 44.84133691893658,93.41740918511641 44.039185555127915,93.70833585871151 43.181713407626376,93.95077433112601 42.65616596234031,94.1447248327604 42.33807145594619,94.20937494536338 41.63273146370193,94.46797512283956 40.85824049176881,94.79122473053576 40.08374951983569,95.08214879409934 39.30925854778616,95.35690990212606 38.71456012292765,95.51853385308641 37.9124087591772,95.76096945955942 37.02727621974191,96.10037866393395 36.25278524780879,96.48827397626883 35.69957741070539,96.90849278923997 35.22935074917041,97.37719702796312 34.96657702646917,97.68427833754686 34.62082212831592,98.0560075200483 34.02612370339921,98.50854617646837 33.21014214371098,98.86411132554349 32.44948136765743,99.02573157497682 31.744141375354957,99.15502765165002 31.273914713819977,99.20351365224633 30.6653860930237,99.31664759399428 29.835574337281287,99.49442933360115 28.85363042645622,99.67221086686186 27.996158278896473,99.83383026340744 27.11102573951939,99.97928757448972 26.253553591959644,100.10858284613641 25.42374183627544,100.23787800861464 24.524779101077,100.399496808197 23.63964656164171,100.54495358205168 22.9066461774637,100.6904102176486 22.13215520553058,100.80354306101799 21.26085286209127,100.9489994510659 20.417210910469294,101.0782939040364 19.60122935072286,101.17526467209973 18.74375720327953,101.30455893398903 17.94160583941266,101.49850012225215 17.08413369191112,101.62779411127849 16.309642719978,101.77324971846247 15.49366116017336,101.91870518751966 14.691509796422906,102.01567542349221 14.248943526705261,102.09648390654183 14.013830195937771,102.14496897593199 14.497887053410523,102.24193906859728 14.73300038423622,102.79143510074937 15.03726469463436,103.35709072157624 15.189396849775221,103.59951391954382 15.50749135616934,104.1328436042968 15.64579331537243,104.55304144184629 15.659623511310201,104.82778555847472 15.867076450260356,105.28030420553114 15.867076450260356,105.26414284831844 15.659623511310201,104.77930133837799 15.57664233574178,104.45607281241973 15.369189396791626,104.1005206459522 15.27237802540185,103.85809824104945 15.134076066082343,103.56719084864017 14.88513253943529,103.16315188691078 14.650019208609592,102.7106269843789 14.691509796422906,102.4682023794594 15.35535920097027,102.33890909988258 16.06069919327274,102.22577739076223 16.76603918557521,102.11264559804113 17.526699961628765,101.98335201831651 18.28736073768232,101.8378966106684 19.075681905495003,101.7086027990299 19.85017287748633,101.59547062423371 20.610833653481677,101.51466187684855 21.385324625473004,101.35304425410868 22.14598540152656,101.20758824776567 22.823665001953486,101.09445570292883 23.52900499419775,100.98132307453488 24.317326162126847,100.85202853969531 25.14713791781105,100.70657205754833 25.93545908568194,100.57727729075123 26.709950057673268,100.44798241484386 27.470610833610408,100.33484930884151 28.175950825971086,100.2055542282178 28.89512101415312,100.09242094315414 29.614291202451568,99.99544948944822 30.291970802936703,99.89847797430411 30.734537072654348,99.8661541222391 31.121782558620907,99.83383026340744 31.550518632342573,99.70453475980321 32.14521705725929,99.60756306044641 32.753745678055566,99.51059129970963 33.51440645410912,99.3004856074549 34.23357664234936,98.96108349562564 34.814444871328305,98.58935651015781 35.22935074917041,98.20146651974937 35.60276603914099,97.71660265010723 36.03150211297907,97.26406165336084 36.50172877451405,96.86000606200832 37.165578179003205,96.55292309948709 37.94006915099453,96.31048874676344 38.673069535172544,96.05189168077777 39.44756050716387,95.7448070977116 40.2635420668521,95.47004668567388 41.0933538225363,95.1629609358788 41.93699577410007,94.88819947979937 42.794467921659816,94.58111256315897 43.54129850171739,94.33867508867115 44.32961966964649,94.06391215357871 45.1041106415214,93.78914872549649 45.850941221637186,93.53054740163498 46.542451018001884,93.25578301647329 47.22013061848702,93.02950609382242 47.93930080672726,92.80322883679764 48.67230119090527,92.54462584783323 49.391471379145514,92.28602242219495 50.15213215519907,92.02741855979548 50.80215136386687,91.81730260004406 51.07875528233126,91.76881426064938 51.64579331537243,91.57486074966437 51.936227429891005,91.42939545524132 52.240491740289144,91.34858134303067 52.793699577392545,91.1546272997657 53.4575489818817,90.94451014233346 54.19054936605971,90.65357821751968 54.923549750237726,90.37880866986234 55.68421052634949,90.10403862917155 56.431041106407065,89.81310510748881 57.16404149052687,89.5544970685296 57.924702266580425,89.27972554857843 58.51940069149714,89.0857688846736 59.07260852860054,88.87564888817724 59.3215520553058,88.7948334281391 59.94391087209806,88.58471303238184 60.607760276587214,88.34226606361335 61.24394928931724,88.11598187971686 61.82481751823798,87.92202374165936 62.36419515940361,87.7119021481194 62.97272378025809,87.51794349812553 63.65040338068502,87.27549484018527 64.36957356886705,86.9845559438545 64.83980023046024,86.74210644124832 65.35151747986674,86.51581989244733 65.94621590466704,86.1763894421747 66.58240491739707,85.72381433787814 67.17710334225558,85.33589175513771 67.77180176717229,84.93180468630453 68.28351901646238,84.5115530033654 68.739915482176,84.15595452448179 69.27929312328342,83.78419159528858 69.77718017663574,83.44475508890173 70.28889742604224,83.13764522042766 70.93891663465183,82.7658798185148 71.61659623507876,82.44260482213576 72.41874759888742,82.08700153775862 73.19323857087875,81.69906974001788 74.03688052244252,81.34346472859033 74.78371110250009,80.9555310466967 75.40606991923414,80.6645801402774 76.08374951971928,80.34130070677202 76.83058009983506,79.98569254144968 77.56358048407128,79.69473979178292 78.31041106412886,79.33913012457197 79.05724164424464,79.03201201996126 79.69343065691646,78.72489329919335 80.39877064921893,78.40160976960033 81.1041106415214,78.0783255573042 81.74029965425143,77.77120492330869 82.41797925473657,77.39942648925353 83.26162120630033,77.0276471524121 84.02228198229568,76.70436003855139 84.64464079902973,76.41340105231211 84.94890510948608,76.25175693210622 85.57126392622013,75.92846817965619 86.0,75.58901425474323 85.39147137920372,75.44353377082734 84.78294275834924,75.73449460047414 84.18824433343252,76.00929043175711 83.5520553207607,76.34874342469266 82.91586630808888,76.63970253382286 82.50096043030499,76.13860594636935 82.21052631578641,75.42736926404177 81.74029965425143,74.66763552128396 81.42220514791552,73.8917333389254 81.07645024970407,73.11582722362073 80.66154437180376,72.33991717531171 80.31578947365051,71.67715756116377 79.98386477131862,71.04672502118046 79.69343065691646,70.3192996330763 79.34767575870501,69.57570566321374 79.01575105643133,68.78361246096028 78.66999615827808,68.0561763173464 78.32424126012484,67.37723279738566 78.00614675373072,66.74678254641185 77.70188244333258,66.05166772106895 77.52208989625797,65.5505364700366 77.35612754512113,65.21105952897051 77.19016519392608,64.96857553863083 76.89973107952392,64.46744074120943 76.63695735682268,63.83697850396857 76.00076834420906,63.626823847793275 75.64118325005984,62.86703152921109 75.39223972341279,62.09106952333241 75.18478678446263,61.34743557583715 74.88052247406449,60.66846229408111 74.70072992698988,60.10264892480336 75.1986169804004,59.64999672322301 76.0284287360846,59.40750392158225 76.77525931614218,59.18117696007539 77.5497502880753,58.90635091395234 78.28275067225331,58.66385693398479 78.79446792165982,58.34053102960752 78.49020361120347,57.467547675565584 78.3795620437595,57.06338702881476 78.08912792929914,56.2873955949035 77.77103342296323,55.47906700013846 77.48059930850286,54.670734135390376 77.24548597773537,53.797729845391586 77.10718401841586,53.03788872410951 77.01037264696788,52.245709920607624 76.94122166727902,51.42119293262658 76.96888205915457,51.11401880111953 76.94122166727902,50.75834272065549 76.60929696500534,50.12782400054857 76.48482520162361,49.36796465466614 76.42950441798894,48.38175859990588 76.37418363423785,47.508718427372514 76.37418363423785,47.088363974995445 76.33269304648275,46.44166256231256 76.23588167491835,45.77879077749094 76.18056089128368,45.11591612068878 76.05608912790194,44.43687081136159 75.94544756051619,43.80632603977574 75.82097579713445,43.15961075395171 75.7103342297487,42.48055676158401 75.55820207454963,41.57514674986305 75.3784095274168,40.55655408157327 75.25393776409328,39.651132682847674 75.10180560889421,38.745705925291986 74.97733384557068,37.87261076235154 74.7422205148032,36.983342048028135 74.41029581252951,35.98088748080772 74.10603150213137,35.18862035262282 73.9538993468741,34.81673844883335 73.91240875906078,34.687388009464485 73.55282366502797,34.80056964987307 73.15174798312364,35.25329537407379 72.43257779482519,35.54433263205283 71.71340760664316,35.88387539985706 70.98040722246515,36.191080111806514 70.2612370341667,36.49828420682752 69.41759508254472,36.8539934407745 68.6431041106116,37.177364753893926 67.99308490206022,37.452229832604644 67.57817902415991,36.983342048028135 67.24625432188623,36.46594696266402" stroke="#4dd2ff" stroke-dasharray="none" stroke-linecap="round" stroke-linejoin="round" stroke-width="0.5"><title>2024-05-25 18.7km</title><desc>1716643451000</desc></polyline><polyline fill="none" opacity="1" points="180.33934027593205,105.00355069572288 180.44905915516574,104.84189506027906 180.5173746837536,104.87808671876519 180.484252003218,104.9022144595856 180.5774095421948,104.84913339651393 180.52565535387112,104.88773781812597 180.521515018816,104.83948228102781 180.5277255214096,104.79122664310125 180.68712842143577,104.75744763654257 180.6891985889597,104.91186554884553 180.55463769933704,105.14107773348769 180.58154987726448,105.18450715420659 180.5173746837536,105.34374766473047 180.61053222272312,105.46197096990363 180.6891985889597,105.46197096990363 180.6436549032369,105.53676499326684 180.60432172012224,105.61397147298521 180.53600619154167,105.69359038484981 180.45319949022814,105.80939922121797 180.484252003218,105.99517468323575 180.4635503278987,105.86006540451308 180.53393602401047,105.69600307486144 180.50081334348215,105.59466987725136 180.4200768097071,105.55847934177473 180.484252003218,105.40165303268441 180.58776037986536,105.19657086769075 180.48632217075647,105.20380909275627 180.33312977333844,105.30031854349 180.02260464341816,105.18450715420659 179.7948862148187,105.09040997275952 179.6686059953281,104.89980168663351 179.86527191093046,104.5620109857955 180.04951682135288,104.30383904717382 180.3082877629422,104.00947125872881 180.42835747984645,103.88882763827496 180.47390116556198,103.77059627865128 180.27309491488268,103.63788688850946 179.9915521304356,103.35074941554194 179.70172867585643,103.0201749614389 179.60236063428601,102.94054683079048 179.39948421606823,102.76922477009248 179.10759059395787,102.50138069101376 178.80327596664574,102.14425041811955 178.5507155276573,101.84502890868134 178.2215588899562,101.47823596059425 177.97934928862378,101.25381371701587 177.78475354054535,101.0704132741248 177.51770192882395,100.84840026192796 177.26100115475128,100.58294711809322 177.1078087573478,100.42126052526146 177.014651218371,100.32955717816367 176.78486262223305,100.0978839414056 176.56749503129686,99.83966207231788 176.4764076598658,99.74554310250642 176.2362682260573,99.54041068446531 176.0023392948642,99.29424937588738 175.76219986107026,99.04567205654894 175.5013587519352,98.76571769475231 175.23637730775954,98.50748091852984 174.98381686875655,98.24924125222242 174.7353967648378,97.98617170448779 174.49732749856776,97.74482085737327 174.23648638943996,97.49864039235581 174.01497846344137,97.28383372298049 173.84936506082158,97.12212401189208 173.60715545949643,96.87352329013265 173.24487614125974,96.48734209867507 172.90536866590264,96.14218718773918 172.58035236326396,95.84530155938592 172.47684398662386,95.74151137326771 172.17045919177326,95.58703209189844 171.80403953848145,95.39634530222429 171.4376198851969,95.20082936208382 171.04842838904005,94.98600129467741 170.7027104110748,94.8122063377923 170.34871176297747,94.63841007130031 169.9657307694215,94.44047383932957 169.58481994339672,94.24977757013403 169.2701544784286,94.08080487477855 168.8975243225359,93.91665878522508 168.53938533936162,93.7428557698804 168.18538669127156,93.54973977208465 167.82517754056607,93.3711060342921 167.49809107040346,93.19971290402282 167.29728481973143,93.10073882603683 167.01574203528435,92.95589794619082 166.64932238199253,92.77001748407383 166.28083256115497,92.57930740066695 165.8916410650054,92.38376757612787 165.54178275197773,92.18581199053187 165.16087192595296,91.9950970750233 164.79238210512995,91.81645129284334 164.4528746297583,91.6426324464228 164.0905953115289,91.44949885788628 163.705544150449,91.24670684862394 163.3370543296187,91.07771214492459 163.03895020490745,90.9183731467765 162.72014440486964,90.74696178278282 162.34544408143847,90.5562349642114 162.03491895153275,90.40413523106872 161.97902442813938,90.3703351540862 161.70990264889406,90.24479157709538 161.30829014754272,90.04198896990056 160.91081798126106,89.84159892690695 160.5278369877051,89.62913529187244 160.16348750194447,89.44081361447206 159.75980483306193,89.24283275610287 159.37682383949868,89.03760690051786 159.00833401868294,88.86135264827499 158.65226520304714,88.68026810860647 158.2879157172938,88.49435316764357 157.93598723672767,88.3205092685912 157.78900534189597,88.37604287888826 157.69998813799612,88.58610358568512 157.62753227434587,88.75994548134986 157.5550764107029,88.890326042585 157.49297138470865,89.00139038337329 157.43293652626744,89.13659842369634 157.37704200288135,89.25973362748118 157.43086635873624,89.1341840013647 157.43293652626744,89.10762533897287 157.46398903926456,89.10762533897287 157.52195373018185,88.95551604661705 157.6668654574678,88.6706102265216 157.6171814366753,88.590932544932 157.41430501847935,88.52815599573114 157.06444670544442,88.46537927553072 156.70423755474621,88.3663848693177 156.58209767031803,88.3108512357503 156.19911667676934,88.2770480889285 155.73746931696223,88.26256101082618 155.2841026272872,88.23841586041635 154.84108677529002,88.15873668459972 154.5305616453843,88.00662112940154 154.25936969859322,87.87865012275688 153.92607272582245,87.7192890078004 153.5182497218775,87.52129336008511 153.0938653776684,87.35468594824306 152.66741086592083,87.23154056526255 152.2492370243126,87.10839452418259 151.94906273207016,87.00456499777465 151.7337653086579,86.88866171800873 151.39425783329352,86.69548828948246 151.02162767740083,86.48299564755143 150.63036601372005,86.32121016298152 150.24738502016407,86.18840033405831 149.86440402660082,86.01212428785038 149.57665073956014,85.8672388564919 149.2081609187444,85.69337513616665 148.82725009271235,85.60402799173607 148.46704094201414,85.45913999394361 148.14616497443785,85.37703639072242 148.03230576014903,85.22248763792959 147.93707805364102,85.03654479562101 147.86255202246684,84.75159051453556 147.89153436791094,84.36279127581838 148.02816542507935,83.98364532558662 148.12339313158736,83.59000311794807 148.1710069848341,83.21084444683402 148.0447267653435,83.0200552389797 147.69486845230858,82.80752869091884 147.38848365746526,82.60949082414481 147.49820253669168,82.31001569332875 147.1628353963897,82.11921902262839 146.81711741842446,81.92600559327184 146.47968011059857,81.74003613645618 146.33269821577414,81.52749777533609 146.33890871837502,81.12173727480877 146.34097888590622,80.69906248332154 146.35132972356223,80.409223856077 146.35339989109343,80.1507813362914 146.3596103936943,79.92132059303185 146.35339989109343,79.69910379871544 146.35339989109343,79.38992903850158 146.3678910638264,78.82712369909314 146.3761717339512,78.39716013414363 146.39480324174656,77.93820139958734 146.39687340928504,77.50580558794718 146.4010137443547,77.06373890231225 146.40308391188591,76.66997836568225 146.42792592228216,76.31969492536336 146.31613687550998,76.31244762547612 146.0594361014446,76.23272717605687 145.62677108711068,76.1989062959019 145.2893337792775,76.17958005635774 144.8318267545401,76.14092752856232 144.39916174020618,76.10710651349109 144.01618074663565,76.0829486151506 143.58144556477055,76.04188012976374 143.26678009978787,76.01289056653695 142.88172893870797,75.99114837015986 142.60225632179208,75.9742377587736 142.19857365290227,75.94041649870996 141.80938215674541,75.90417937920392 141.46987468138832,75.87760545529818 141.0661920124985,75.84378405320786 140.6894215215434,75.81721005955478 140.50103627606586,75.59495363824499 140.50310644360434,75.19392031626921 140.52173795139242,74.82670295141907 140.5196677838685,74.51504677435878 140.53415895660146,74.10433063611526 140.54450979426474,73.69843924910128 140.55072029685107,73.36743918599495 140.55072029685107,73.18381665921333 140.54243962672626,73.01227323757485 140.55072029685107,72.88663499046925 140.55693079944467,72.64985335182246 140.53415895660146,72.41790162824691 140.56935180464643,72.20769335839032 140.5734921397161,72.05063994893499 140.56521146958403,71.7437786543378 140.57142197217763,71.35234334437882 140.56521146958403,70.93432173751899 140.56314130205283,70.57670184674498 140.56314130205283,70.19974513068337 140.56107113452163,69.89044269722217 140.55486063192075,69.47239451546011 140.56935180464643,69.19933003879669 140.54865012931987,68.96734351082159 140.54243962672626,68.64594164076334 140.53415895660146,68.7812692915486 140.5465799617814,69.09300317068664 140.50103627606586,69.25490979690221 140.19258131369133,69.39989983784108 139.81167048767384,69.35156992577868 139.53426803828188,69.29599040132052 139.45146133697563,69.10025274549662 139.09953285641677,69.04950567384185 139.02914716029773,69.05433873310358 139.27135676163016,69.06883790482061 139.65433775517886,69.14375014634606 140.01868724094675,69.20657958008451 140.35819471630384,69.25007677978647 140.49896610853466,69.4264812461679 140.49482577347226,69.76720384983855 140.39131739683944,69.99193301679588 140.0455994188669,69.97260156188531 139.7868284772776,69.96051939431527 139.38521597592626,69.95085365568957 138.9711824693877,69.93152216624367 138.59441197841807,69.91943997709495 138.2052204822685,69.90252490161583 137.77255546794186,69.89527557974361 137.38129380423925,69.88560981369119 136.95276912496047,69.87594404357696 136.53045494828984,69.8638618252262 136.236491158641,69.76478739524464 136.2323508235786,69.36606891005795 136.22199998591532,68.9238457762458 136.21785965084564,68.72085526015871 136.20336847811996,68.49853025762786 136.18059663525491,68.24237052396347 136.15575462486595,67.86537553607195 136.1205617768137,67.51979136623777 136.08950926381658,67.15970163455131 136.0750180910909,66.98569652133301 136.04603574563225,66.63043199192543 136.00670256251033,66.25099374352067 135.97979038458288,65.89330099673134 135.95080803912424,65.55010407448026 135.92803619626648,65.31566379418291 135.89905385080783,64.99662781859115 135.8597206676859,64.59057562587623 135.82866815469606,64.20143554189053 135.79761564170622,63.82920842562453 135.7500017884522,63.42313560362709 135.68996693000372,63.05573019984695 135.6402829092185,62.73424565210735 135.5885287209021,62.41759106097379 135.52228335985274,62.02357963610666 135.46638883646665,61.670655690079 135.40842414554936,61.337065057950895 135.3773716325668,61.090494955376926 135.3338981143752,60.7206348388645 135.31940694164223,60.45471865673062 135.29456493125326,60.111440487540676 135.27179308838822,59.73914709625387 135.24902124553046,59.42245121449014 135.19519688967557,59.0428939081703 135.1227410260326,58.69475939827316 135.03993432472635,58.35387257671573 134.9550574558889,58.022651456112726 134.86604025197448,57.701096454615254 134.76667221041134,57.37228367613534 134.6507428285695,57.03863060232834 134.57621679739532,56.80893907425161 134.44579624282778,56.40999569539781 134.3774807142545,56.17787999395841 134.2677618350208,55.76683601489458 134.19323580383934,55.525042000897884 134.08351692460565,55.20103402913446 133.9489560349757,54.845587187614 133.82681615054753,54.52882379945186 133.73779894663312,54.345050669726334 133.59702755440958,53.99684491497101 133.50179984790157,53.696996837386905 133.39001080113667,53.433417469303095 133.22439739851689,53.05376113242528 133.08983650889422,52.715208782790796 132.95113528420188,52.371814868694855 132.83313573484338,52.071945557583604 132.72134668806393,51.79141910586259 132.61162780883024,51.50121571906311 132.5184702698607,51.25212155133886 132.38804971530044,51.201335029913025 132.06924391525536,51.35853104123089 131.70696459703322,51.4842870748671 131.36745712166157,51.631807697338445 131.0300198138284,51.709195185587305 130.84784507094446,51.51330760012752 130.76296820209973,51.10701690614951 130.68430183585588,50.75876201338542 130.61598630728258,50.38389840873424 130.52282876830577,50.00177307512422 130.42760106179776,49.60271134357572 130.30960151243198,49.25201499991272 130.22058430852485,48.973872707956616 130.1232864344929,48.73200710379206 129.99700621499505,48.34501683213057 129.8707259954972,47.97495127744696 129.73202477080486,47.57101669925214 129.63886723183532,47.29527284130563 129.51879751493107,46.94937892798589 129.38009629023873,46.54300738551319 129.25588623827934,46.18500744097037 129.12546568371909,45.78346031211004 129.0198871395478,45.47382880851728 128.8956770875884,45.12306931945568 128.77974770575383,44.7868189783112 128.6513973187175,44.42153424195385 128.54788894209196,44.109465188108516 128.4360998953125,43.79739188599706 128.318100345954,43.436929838549986 128.24150414723408,43.202263580196814 128.12143443034438,42.86114648734838 128.01171555111068,42.54663686820095 127.88957566666795,42.20551001766944 127.77157611730217,41.86679748298957 127.62666439001623,41.45307752418921 127.49831400298717,41.06112541038601 127.39687579389283,40.76836668012402 127.26024473672442,40.371563753142254 127.1525960250292,40.047341626426714 127.02424563799286,39.67472247144906 126.92694776396092,39.39888360923214 126.8565620678346,39.13272015536131 126.73028184834402,38.79880163113012 126.60400162884616,38.45035972110236 126.49014241455006,38.116431250784444 126.37835336778517,37.789757384873155 126.25207314828731,37.4195213716157 126.13407359892153,37.085577873695 126.02021438461816,36.722590288482024 125.94982868850639,36.42009623967169 125.86288165213773,36.071618143143496 125.77800478328572,35.7182946595949 125.68691741184739,35.38916651074396 125.59375987287058,35.016471572473165 125.59997037547146,34.79623989416359 125.38881328713614,34.861583580144725 125.16523519360635,34.93660758225997 124.80088570784574,35.03099226804261 124.4013433740256,35.14957760387733 124.05562539606035,35.26332214492504 123.67471457003558,35.37948619947019 123.34762809986569,35.5222703758991 122.98741894916748,35.64811331875171 122.61271862574358,35.79331585507862 122.30426366336906,35.909477221295674 122.05998389450542,35.99175783255487 121.91921250228188,36.057098107381535 121.66044156069256,36.14421818383926 121.32507442039059,36.22165797359048 120.97107577228599,36.30151748252865 120.78062035927724,36.173258135679134 120.73714684108563,35.78847578536988 120.69367332290858,35.50532992693843 120.65226997225545,35.24638150440296 120.59223511379969,34.89788554734878 120.53841075795208,34.537283453031705 120.44939355403767,34.20571812687558 120.34588517740485,34.00242022400198 120.12023691633658,34.15005340435164 119.78486977603461,34.297685632815046 119.48676565131609,34.41143440550513 119.34392409156862,34.27832408331051" stroke="red" stroke-dasharray="none" stroke-linecap="round" stroke-linejoin="round" stroke-width="0.5"><title>2024-05-01 58.8km</title><desc>1714551575000</desc></polyline><polyline fill="none" opacity="1" points="19.21893602358614,114.15703021116133 19.498067480235477,114.03680405104569 19.653373704233672,114.12513353549184 19.726829350722255,114.39748066338507 19.768804005849233,114.65019631142968 19.812877393742383,114.93725832189557 19.859049514387152,115.2120493998591 19.9157152988264,115.53345269456622 19.913616566067503,115.75426154001434 19.961887419471168,116.07075055643145 19.978677281520504,116.25475381536671 19.978677281520504,116.37987519853777 20.161267031362513,116.33816814572856 20.515952867237502,116.27438074358906 20.841256444538885,116.20568642222679 21.164461289074097,116.11981823472524 21.279891590675106,116.06339039574596 21.517048392197466,115.97016149175033 21.81296971089614,115.85485154003436 22.115187227864226,115.72236705876458 22.442589537909953,115.54081302325176 22.744807054885314,115.36661795191503 23.0239385115201,115.36416449087119 23.363933218111924,115.26847930796976 23.605287485137524,115.20959592248619 23.932689795175975,115.12372405093629 24.22651238112303,115.03539836598065 24.524532432573324,114.94952585009196 24.80576262197428,114.86365301657497 24.893909397767857,115.06729379097487 24.9841549062985,115.42304748434071 25.070202949318627,115.77143547330706 25.15205352682824,116.09283102449444 25.225509173316823,116.40931542600993 25.27587875948666,116.63011594221825 25.32834707840084,116.7944882965403 25.439579914505885,117.10605658110762 25.529825423043803,117.37836874487402 25.628465862617304,117.65803737303577 25.71661263838905,117.93034306429217 25.815253077969828,118.20755188474504 25.924387181301427,118.52400746700005 26.023027620874927,118.85517729626554 26.085989603569033,119.04897078404065 26.165741448334302,119.21577907357096 26.25598695687222,119.46844228946247 26.344133732651244,119.74072675599018 26.432280508437543,120.01055506064586 26.501538689408335,120.2239625000293 26.572895603130746,120.38585649109336 26.665239844420284,120.63850698046372 26.679930973725277,120.72435846301778 26.77227521502209,120.98926960929384 26.86881692182942,121.30323446369403 26.97585229242395,121.62945907557514 27.087085128528997,121.95322634192053 27.152145843989274,122.14944673187892 27.254983749066014,122.41434162981932 27.36621658517106,122.7356452771528 27.441770964411262,123.0299653301081 27.52152280916198,123.15259758529464 27.58868225738115,123.34880784752568 27.678927765926346,123.63821496041601 27.769173274464265,123.90309288795106 27.853122584732773,124.20230321185227 27.93077569673187,124.43283968644755 27.94966429154738,124.53584460619095 28.062995860396768,124.7958073737118 28.17422869650909,125.10236350500054 28.287560265365755,125.44815396859485 28.402990566995868,125.82581994515931 28.51842086861143,126.15933804323504 28.62545623920596,126.47813763458907 28.747182739098207,126.82635988477159 28.860514307954872,127.16476806000537 28.978043342336605,127.51052784716376 29.103967307739367,127.85628249245747 29.225693807617063,128.19957989019895 29.339025376495556,128.5502284281847 29.450258212593326,128.83711875355948 29.49852906599699,129.00140478198773 29.557293583187857,128.93274807545458 29.611860634860932,128.9695284791651 29.79025291918515,128.98178860080225 30.128148893010803,128.84692690723205 30.470242332361522,128.73168084023018 30.69690547008213,128.77091360801933 30.824928168243787,129.0455411291423 30.982333125000878,129.32752136983618 31.137639348991797,129.6070462337484 31.29504430574889,129.89147159397362 31.456646728016494,130.02387531648128 31.513312512448465,130.1930567538475 31.584669426178152,130.54612709376306 31.683309865729825,130.92125845730152 31.779851572551706,131.25470347909868 31.82602369320375,131.3920029810597 31.939355262067693,131.61756468919884 32.05268683092436,131.8872551648874 32.14922853773896,132.13732899396382 32.283547434162756,132.47565989557734 32.411570132324414,132.8090826368334 32.527000433939975,133.08611407394346 32.667615528640454,133.434237397365 32.79353949405049,133.7137129157545 32.74526864063955,133.79461309718135 32.60885101145686,133.84364337326406 32.65082566659112,133.8240312752223 32.64452946832171,133.81422522001048 32.75366357166786,133.79461309718135 32.89637739912723,133.97602460261805 33.00970896799117,134.28245974391393 33.15242279544327,134.63546802441851 33.30143282117206,134.9884709497128 33.43994918311364,135.35372528405787 33.542787088197656,135.65769096348595 33.641427527756605,136.00332453314877 33.748462898351136,136.3759166746022 33.8177210793292,136.55485683285042 33.92475644991646,136.89067232041452 34.02339688948268,137.2191294971326 34.1241360618078,137.55738652128457 34.21857903586351,137.8882853756586 34.30462707888364,138.21182637417223 34.40536625120876,138.5329118588943 34.487216828718374,138.87360077514677 34.550178811419755,139.18242239134634 34.606844595851726,139.49123991125452 34.63412812169554,139.7191740247672 34.650917983744876,140.01818098370677 34.67820150958141,140.41276625744104 34.69709010439692,140.7093135218347 34.72017616471567,140.83920493588084 34.75795335433213,141.16760641152905 34.793631811196974,141.54501731332857 34.84819886287005,141.90526746862088 34.9027659145504,142.2557095515749 34.95943169898237,142.6159487140667 34.99720888860611,142.86590730762146 35.02449241443537,143.00313833600921 35.07276326784631,143.28249900272385 35.12103412124998,143.6084155460503 35.150416379838134,143.82650752835252 35.17769990568195,144.07155226353825 35.198687233249075,144.2920903213453 35.18819356946915,144.37540415539843 35.24485935388657,144.67680171350548 35.27214287973038,145.01250009459363 35.2847352762692,145.35554453810255 35.2847352762692,145.51481345568754 35.31201880210574,145.6275261856481 35.343499793467345,145.88725344406157 35.36868458654499,146.18373102116493 35.38967191410484,146.44100189468918 35.414856707189756,146.7056204012697 35.43374530200526,147.0118880693135 35.461028827834525,147.3181517122648 35.48201615540165,147.55825959363756 35.51349714675598,147.86941612714145 35.52399081054318,148.01396774914247 35.551274336372444,148.3373681313351 35.57645912945736,148.61176493664243 35.59534772427287,148.8371598958238 35.601643922535004,148.9645560825429 35.614236319073825,149.2242461530077 35.607940120804415,149.51333169640202 35.61213758631493,149.81711264157093 35.63102618113044,150.09394182957476 35.64781604318705,150.30707356641506 35.66040843972587,150.74557986187028 35.66250717247749,151.11058719201174 35.664605905236385,151.50498466248973 35.66040843972587,151.85528241162137 35.664605905236385,152.28396130749388 35.67300083627197,152.61710060739824 35.66670463800256,152.9649321505476 35.64361857766926,153.2049818798896 35.68559323280351,153.317657431342 35.704481827611744,153.6066922261325 35.72546915518615,153.90552104430026 35.73806155172497,154.1774029539538 35.754851413774304,154.46642709419757 35.76114761205099,154.83627479555253 35.75275268101541,155.135087860579 35.723370422419976,155.4706356741517 35.70028436210123,155.73515171616236 35.677198301775206,155.87720538969734 35.73176535345556,155.94088434186415 36.02348920663644,155.95313027427437 36.37187884425657,155.99231721478827 36.71187355084112,156.02905491173988 37.0917441798083,156.07558924482692 37.42964015364123,156.1049793020975 37.76753612747416,156.1392676554624 38.080247308214894,156.16131014172788 38.36567496314092,156.17110679559846 38.66789248010173,156.19314925178332 38.9743074625876,156.2151916871353 39.27442624679679,156.23233578912004 39.59553235857311,156.25927649535333 39.91244100483891,156.2813188682303 40.057253565049905,156.30581036921467 40.357372349259094,156.31560696241286 40.67008353001438,156.34744586188572 41.018473167627235,156.37928471790838 41.3080982880565,156.3988778384737 41.61661200328672,156.4258183523907 41.89994092545385,156.4527588351939 42.088826873550715,156.44296229959218 42.45190764046856,156.46990276259748 42.7981985453298,156.51398708950546 43.12769958813442,156.54582571823994 43.4865828895272,156.57766430352422 43.82447886336013,156.602155493405 44.170769768214086,156.6315448873338 44.55483786269906,156.6609342442316 44.84866044863884,156.67562890879708 45.069027388090035,156.69277267242796 45.2809993965202,156.70501821016114 45.49926760321978,156.71726374147147 45.811978783975064,156.73930568163087 45.95679134418606,156.94747853383706 45.95259387867554,157.2609588537871 45.94419894764724,157.57198594617694 45.93580401661893,157.92464157079303 45.929507818342245,158.2209661344732 45.9274090855979,158.56871412894907 45.921112887321215,158.89931481141866 45.91481668905908,159.24705269743754 45.916915421803424,159.56539974011503 45.91271795629291,159.87149857067016 45.91061922353401,160.13596472756944 45.91061922353401,160.32696619942362 45.90432302527188,160.65999066828226 45.89592809424357,161.13013477077038 45.88543443045637,161.60516659013774 45.87913823218696,162.0581518467152 45.86654583564814,162.46950381593888 45.864447102889244,162.82698237912336 45.832966111534915,163.15262589519443 45.7511155340253,163.5125423920399 45.629389034133055,163.83817634677507 45.463589146354934,164.12952919381496 45.327171517172246,164.35722258566602 45.39642969813576,164.2568419016079 45.471984077390516,164.31804968713368 45.61259917208372,164.42087840562453 45.86024963737873,164.5971551553048 46.11209756819153,164.7807753545967 46.269502524941345,164.8787055372013 46.475178335094824,165.0745646704072 46.724927533141454,165.2728703692519 46.97257799844374,165.46627800907117 47.22022846373875,165.60582429876558 47.45738526524656,165.59847977798927 47.532939644479484,165.63520235876786 47.66935727366945,165.82860699804405 47.71972685983201,165.95835857989732 47.97367352338915,165.9999768591333 48.296878367924364,166.11993501374855 48.620083212459576,166.20806714290484 48.918103263917146,166.30354324087966 49.1783461257437,166.43574027069735 49.415502927258785,166.5434558158704 49.64636353049718,166.65606699106684 49.87092793546617,166.76622957189647 50.15005939211551,166.86415142979604 50.460671840104624,166.97920908828564 50.712519770917424,167.0942661800509 50.880418391447165,167.1799466249031 51.1511549170682,167.3366186256244 51.382015520306595,167.47370576427238 51.61917232180713,167.60344820808132 51.95077209737792,167.7185022252288 52.294964269472985,167.82376391476282 52.59298432092328,167.91433754704303 52.90149803616805,168.00001498412166 53.1764320272996,168.1224107777125 53.3947002339919,168.2301185456472 53.58778364761383,168.31579482462257 53.77037339745584,168.4039186694954 54.015925129977404,168.5238644797828 54.320241379704385,168.67073606186568 54.67702594835282,168.81760672065138 55.031711784235085,168.86901123311145 55.3528178960114,168.89593736116512 55.59836962855479,168.91062432703075 55.89429094724619,168.908176500021 56.19860719697317,168.94734170127958 56.32662989512755,168.98895465567875 56.628847412102914,169.03301535014543 56.91427506701439,169.09176281352484 57.285750764953264,169.17498813376733 57.42846459240536,169.23373524016824 57.70339858353691,169.35122900984788 58.016109764292196,169.49564762563932 58.29524122093426,169.62293108934318 58.519805625903246,169.71105000420175 58.673013117142546,169.77224349956487 58.95844077205402,169.88483911230105 59.279546883830335,170.01456816734208 59.60904792664223,170.14674419966832 59.91966037463135,170.28136716775953 60.19039690025238,170.3205300673926 60.55767513268074,170.50655294436365 60.927052097860724,170.69502198060763 61.256553140665346,170.86146090457987 61.54198079556954,170.99607975537765 61.79382872638962,171.133145424923 62.03098552789015,171.26531513065856 62.295425855241774,171.39258895564126 62.561964915345015,171.52475719413815 62.79282551858341,171.6397919044648 63.05096964765835,171.77440627204487 63.3342985698182,171.9359424897193 63.60713382818358,172.0681076555902 63.875771621045715,172.21250948247143 64.19477900007041,172.37649013630835 64.48230538774078,172.5306798509282 64.75933811162395,172.6652890876594 65.0300746372377,172.80234496859157 65.32599595594365,172.9638740823193 65.61352234361402,173.10092821257058 65.90734492956108,173.24287628607271 66.20536498101137,173.39461292871238 66.49289136868174,173.5414539031717 66.74054183396947,173.6736099915488 66.96720497169736,173.78373949450906 67.24004023007001,173.92078881808447 67.52546788498148,174.0651792005774 67.81089553989295,174.2193577770322 68.12990291891765,174.38087709989668 68.43841663416242,174.53260635641345 68.73853541836434,174.70146517771173 69.03445673706301,174.87766438666404 69.3324767885133,175.01960167266407 69.65987909856631,175.18600980722658 70.00197253790975,175.3573110615962 70.31258498589887,175.518822523396 70.58542024428607,175.66320303726934 70.87714409745968,175.81002976420677 71.19615147649165,175.97153809899464 71.51096138999128,176.1281511765028 71.78589538112283,176.26273970196235 72.11959388943797,176.45360937346595 72.38193548403069,176.63713643462324 72.38613294954848,176.7129938658618 72.6106973545102,176.82310905402665 72.89612500942894,177.07025458855423 73.12488687990117,177.3076097224839 73.34105635384913,177.53517475392255 73.54253469849937,177.72114023232461 73.75870417243277,177.94380747840114 74.03783562908939,178.22519711988753 74.29597975816432,178.49434926154026 74.577209947558,178.79041304026578 74.83955154214345,179.0571119137294 75.08930074019736,179.32380774654303 75.3453461365134,179.56848014824936 75.5950953345673,179.81559667646798 75.84064706709614,180.06026393474713 76.0673102048313,180.29269546009527 76.29397334255191,180.53491111895164 76.48705675616657,180.75021182170894 76.68433763529902,180.9214723295736 76.72211482492276,180.9508311479167 76.75149708351819,180.98018992941252 76.82915019551729,181.05603327777862 77.00334501432371,181.23463115928826 77.12717024696758,181.3618507366591 77.29926633302239,181.54044628392148 77.47555988458771,181.7337193814783 77.7001242895567,181.97592012343193 77.91629376349738,182.1936540041861 78.06740252197778,182.32576121400234 78.25628847008193,182.49701019082022 78.50393893537694,182.75143492814095 78.74109573688474,182.9985178428742 78.98454873666924,183.2504908020146 79.23849540022638,183.5171388431918 79.36232063287753,183.66636256798847 79.42318388282001,183.72751955738568 79.62046476195246,183.91098956678798 79.81774564108491,184.09935061358556 80.04860624432331,184.33418823723514 80.2584795199873,184.55679255947143 80.3592186923197,184.7182405236581 80.41168701123388,184.75982542499878 80.51662364907679,184.92616429159352 80.61106662312523,185.0973942431665 80.7621753816129,185.25150012870108 80.76007664885401,185.3004224198903 80.64044888172066,185.45941916019365 80.51452491631062,185.61352266255017 80.4452667353471,185.73093417396558 80.37390982161742,185.88014378671505" stroke="red" stroke-dasharray="none" stroke-linecap="round" stroke-linejoin="round" stroke-width="0.5"><title>2024-05-01 52.5km</title><desc>1714541844000</desc></polyline><polyline fill="none" opacity="1" points="186.0,148.27449084507225 185.80261955528113,148.30957299867805 185.5279029129233,148.35140159432285 185.24856918415026,148.36084674211997 184.9888580726838,148.359497435722 184.806483158849,148.34330574779233 184.58948009682354,148.36624396629668 184.29398656555713,148.36759327198797 184.02734982444963,148.3635453544939 183.75494172531035,148.37973701675583 183.4986934286644,148.38783284019064 183.21705115667282,148.3837849291167 182.95503150198783,148.34600436387336 182.7414912547829,148.33116196838 182.449460538337,148.33386058702217 182.19898359972285,148.42966117950346 181.99006043894042,148.4525992428953 181.7765201917282,148.467441497256 181.65185885823303,148.2178194702774 181.560671401312,147.99652883647286 181.47871811725054,147.8197634409671 181.39099347515003,147.58227325570078 181.3205829071594,147.39740567893477 181.2697949564681,147.26651241844957 181.16821905509278,147.00877021984434 181.0689516969287,146.76991547415946 180.9696843387719,146.54050275389727 180.669573721083,145.71053406172905 180.50335860974155,145.7496720092504 180.38216009105236,145.52968819397302 180.33945204161137,145.416320820922 180.1697741154494,145.57287549977445 179.94699969539943,145.60796507813575 179.7519277938918,145.52024095134584 179.6434262628827,145.5026960536352 179.35832117606333,145.4959480096286 179.18633470670466,145.52563937656032 178.93124068165343,145.61066427247533 178.76156275549874,145.67139599419443 178.63343860717578,145.71188364812315 178.36333905124775,145.8090534935509 178.0886224088972,145.91027129589565 177.96626961860602,145.97235115087642 177.77235198870767,146.0870631319567 177.67423890215287,146.13834580180173 177.4283790499685,146.27734779187267 177.2737066546906,146.31783352375442 177.0393895185698,146.3920570320397 176.85124324670323,146.4433384765789 176.5949949500573,146.5243087590352 176.41377430783177,146.58773512156768 176.22793657918373,146.7213343010153 175.99131089985167,146.89136759821486 175.8031646279851,146.9588405012055 175.62194398575957,147.03440972920816 175.3495358866203,147.15181103544455 175.1048303060379,147.26381357421633 174.940923737915,147.34477865303234 174.71584077463922,147.44733368248217 174.59233371274604,147.50535787373428 174.36609647786827,147.6753807297473 174.12831652691966,147.84000387748165 174.00596373662847,147.91286918329206 173.74394408195076,148.00192621463157 173.52924956313655,148.0855852843506 173.31801785914286,148.13011327538425 173.01444442662614,148.19083301293085 172.85515494492574,148.19892895612338 172.5804383025752,148.2178194702774 172.32534427753126,148.149003891338 172.15104926494678,148.09907863136596 171.95020600541466,147.9762886480621 171.73089440017793,147.7995229723656 171.52889686903654,147.9506510300189 171.3199737082541,148.07209192308164 171.12143899193325,148.16924380599175 170.83979671993438,148.26909358212015 170.54892027509777,148.37568910311893 170.30075187969487,148.4579964282966 170.15993074369908,148.51601602727806 169.96255029898748,148.6185616506009 169.788255286403,148.68602542742337 169.53085271814052,148.71705864509659 169.30346121166076,148.7710292788288 169.16264007566497,148.79126820767488 168.97911089022818,148.84523852780967 168.71131987751141,148.97071864058398 168.52201933405013,149.0867529166071 168.22998861759697,149.22842124302042 168.09493883963296,149.3093738669204 167.85485034548037,149.4213574842188 167.5951392340139,149.57381552962124 167.39891306089703,149.7006376500094 167.2915658014972,149.76134992155858 167.0249290603897,149.82745851130767 166.72828125750675,149.91920047720214 166.43855908427213,150.00689438754125 166.2296359234897,150.0568121907172 165.96069063917093,150.13775956504924 165.6940538980707,150.26862340203115 165.4135658976884,150.41297680136904 165.2889045641714,150.4696384375984 165.0488160700188,150.57351745136384 164.83181300799333,150.67334843495883 164.64482100773603,150.74080136067278 164.46360036551778,150.82983867735675 164.39203552591061,150.86356477165646 164.30084806899686,150.89594173842852 164.07230229090055,151.00116631385572 163.82413389549765,151.13606834809252 163.58635394455632,151.25478096012012 163.33818554915342,151.38833133040498 163.08655433893,151.5272761937931 162.93303621526866,151.59337564704765 162.7067989803836,151.70399029381315 162.50710999246076,151.80920821563996 162.2901069304353,151.91442527120216 162.18275967102818,151.73231828106327 162.06848678198003,151.49624980191038 161.93574554723455,151.26422396145063 161.841095275493,151.1293232802036 161.70258268271573,150.92831862316234 161.56984144797025,150.72865986032502 161.48673389229225,150.60454608386135 161.2974333488237,150.68414092700095 161.07350465716445,150.81769726161565 160.91306090385478,150.88919654378333 160.65565833559958,150.9863270031392 160.37517033521726,150.98093088587757 160.23665774243273,150.93506379715473 159.96886672971596,150.77182958692265 159.6479792231039,150.64771622981334 159.31785754363955,150.59645166526025 159.044295172891,150.5600267180771 158.77304134536826,150.54113966754085 158.51794732031703,150.48987467535153 158.35173220898287,150.47098752111378 158.1578145790918,150.44265673740483 157.89925773922732,150.41972224743404 157.62454109687678,150.39004225812369 157.3475159113077,150.36710767370278 157.0704907257459,150.3414748541618 156.82578514515626,150.31719108294328 156.58915946583147,150.2956054697761 156.34560815685109,150.30504918002316 156.11475383554352,150.40218408026522 155.99932667489338,150.39813680750103 155.89313368708827,150.22815019356858 155.76154672394478,150.01768744259152 155.63688539044233,149.82071275251838 155.54338939031732,149.67230515787196 155.4279622296599,149.48881702079143 155.31138079740776,149.31477069026732 155.19133655032783,149.11643593417193 155.02973852541618,148.86277883274852 154.88083748817735,148.63610226685705 154.74578771020606,148.42291468243002 154.59111531493545,148.41077097871676 154.42720874680526,148.4930780777895 154.24945091940754,148.6010210102504 153.99897398079338,148.70761376074643 153.85930711639958,148.76563222571895 153.63076133831055,148.86952509746607 153.38143867129838,148.9626231866423 153.12865318947297,149.09080060488577 153.04439136220026,149.1447696593159 152.88279333728133,149.2149290891548 152.6496304727698,149.30802466072691 152.4487872132304,149.38223078975807 152.2271670647824,149.46183324891354 152.08980874359986,149.5023088853559 151.75276143450174,149.90301076638934 151.59693476761458,149.96776948653223 150.7993330875106,149.92864446570002 150.63888933420822,149.91110562435915 150.40226365486888,149.95427811357513 150.11600429645478,149.99879959026657 149.8586017281923,150.02982961862472 149.6150504192192,150.0527648085381 149.39227599916194,150.06625607748447 149.15103323340009,150.07839820735626 148.9213331837018,150.0770490823861 148.60159994869173,150.08919120199607 148.4053737755894,150.10672979884384 148.26916972601612,150.0986350648309 147.95520784903783,150.0959368190197 147.6424002436761,150.11347540660518 147.3284383666978,150.1080789206826 147.000625230452,150.0959368190197 146.70166888436506,150.09323857263917 146.41194671112316,150.09188944923335 146.1291501675296,150.08919120199607 145.84058226588968,150.08514383007878 145.56355708032788,150.08514383007878 145.28768616636808,150.08919120199607 145.02682078329963,150.086492954194 144.75325841255108,150.08919120199607 144.48777594305284,150.08379470581804 144.20613367106125,150.08379470581804 143.94988537441532,150.0810964568691 143.7744360902143,150.08379470581804 143.46162848485255,150.086492954194 143.16613495357888,150.08919120199607 142.8879554964151,150.09188944923335 142.61785594048706,150.09323857263917 142.38123026114772,150.09188944923335 142.21270660659502,150.08784207816552 141.90797890247632,150.086492954194 141.6413421613688,150.09054032568838 141.3423858152819,150.086492954194 141.12769129646767,150.0945876959022 140.92453949371702,150.08784207816552 140.59557208585466,150.09188944923335 140.3116212706591,150.10133331007 140.09461820863362,150.0986350648309 139.7968161341414,150.09998418752184 139.4909341584207,150.10133331007 139.21044615803112,150.10672979884384 138.96343203423748,150.10133331007 138.71064655241207,150.09998418752184 138.4474726261251,150.10538067686502 138.21892684803606,150.10672979884384 137.96383282299212,150.10672979884384 137.65795084726415,150.1080789206826 137.42363371113606,150.11887189024674 137.1685396860994,150.11347540660518 136.86034916716017,150.1080789206826 136.5417702037521,150.10672979884384 136.41249178382714,150.11077716392992 136.0823701043555,150.11887189024674 135.85497859787574,150.12022101080493 135.6691408692277,150.12022101080493 135.33093928851304,150.12022101080493 135.04929701652873,150.11482452772816 134.77458037417819,150.11482452772816 134.50101800342964,150.11887189024674 134.23553553392412,150.12966485069683 133.96197316317557,150.12966485069683 133.69995350850513,150.1310139701127 133.47371627362008,150.1350613275008 133.24978758195357,150.14180692030186 132.96929958157125,150.13775956504924 132.7176683713551,150.1350613275008 132.51105375378393,150.1364104463446 132.20978886447847,150.14045780202832 131.93853503694845,150.14045780202832 131.81156516022747,150.1458542742721 131.77001138239575,149.99070478786416 131.678823925482,149.93539016749764 131.40064446831093,149.92594618398743 131.17440723343316,149.90166162289552 130.99780367763742,149.9084073389422 130.71269859081804,149.90166162289552 130.42182214597415,149.8922176144497 130.1517225900534,149.87467872309662 129.87700594769558,149.8571398076665 129.6034435769543,149.84769576630242 129.32180130496272,149.84634661697146 129.04015903297113,149.8571398076665 128.76082530419808,149.86658384204566 128.50457700754487,149.87467872309662 128.2356317232261,149.88142445339145 127.97476634015766,149.8854718898565 127.73121503117727,149.8935667589385 127.49920643826772,149.90031247926072 127.38031646279705,149.90301076638934 127.11367972168955,149.91110562435915 126.83319172129995,149.92054961884241 126.661205251934,149.9326918872075 126.66697660996579,150.22410286567174 126.65197107907443,150.507412722146 126.64158263462741,150.7880181967912 126.59772031357716,151.03893902700293 126.56540070859046,151.1819347152914 126.44420218990854,151.4584784405506 126.31376949836704,151.73501618133832 126.18910816486459,151.99940764524035 126.0713724610032,152.26379363970136 125.99403626336425,152.55245373526577 125.98711063373048,152.8289678068959 126.04251567083702,153.18640396278442 126.09907497955282,153.4952747044863 126.1464001154236,153.76232723442808 126.11869759687397,153.98891288552113 125.84167241129762,154.0239793536639 125.56811004055635,154.06578924767837 125.30493611426937,154.09950680455677 125.06946470653929,154.13457296939123 124.9990541385414,154.14940862556523 124.75665710117028,154.18042857829641 124.5304198662925,154.22358664821968 124.27763438446709,154.25595510506355 124.16220722380967,154.25325773678833 124.11026500151638,154.25325773678833 124.31918816229881,154.2626985232573 124.57889927376527,154.21819189744656 124.84322747166152,154.17907988626575 125.05561344726448,154.14940862556523 125.25183962036681,154.12513208832115 125.49885374416772,154.08736849432717 125.77126184329973,154.04690737699002 125.95594530034577,154.02263064512954 125.96633374480734,153.91743094107733 125.907465892873,153.67196159872492 125.85783221379097,153.47369445846016 125.8185869791705,153.30509753240767 125.76664475688449,153.1149175311566 125.69623418887932,152.82222363241453 125.63505779373372,152.55515146242033 125.57849848501792,152.29346927727966 125.5427160652107,152.1221589656834 125.47461404043133,151.85777004123156 125.35572406495339,151.6311466096913 125.22644564502843,151.40586814404105 125.15141799060075,151.14011538711384 125.19066322522121,150.92831862316234 125.25761097839859,150.68818810917037 125.3222501883647,150.47098752111378 125.3926607563626,150.21061176341846 125.45845423793799,149.992053921952 125.51847636147431,149.78428559349595 125.4342145342016,149.64802011459415 125.17334915112588,149.58191059620003 124.93326065697329,149.5211974718004 124.65969828622474,149.44969053297427 124.4034499895788,149.38762758233133 124.14489314971433,149.3228659210199 123.90018756913196,149.26080235414884 123.70396139602235,149.21088144021633 123.43386184009432,149.13802353998562 123.17415072862786,149.06651445599164 122.95253058017988,149.00849735781685 122.71128781441075,148.94643226335938 122.42502845599665,148.87222360235137 122.17570578899176,148.80880858673663 121.89175497378164,148.73594839284578 121.64704939320654,148.68332688319606 121.42196642993076,148.6212602085143 121.18303220738017,148.49172878536137 121.00527437998244,148.3257647293758 120.82059092292911,148.14360657534326 120.61974766339699,147.943904279874 120.4373727495622,147.76983689371355 120.24345511967113,147.61600792618265 119.96873847732058,147.5202012291411 119.70325600782235,147.52559880864828 119.52665245201933,147.57822508925165 119.32465492087795,147.7064164035537 119.0926463279684,147.9074717674912 118.87102617951314,148.07613993295945 118.64248040143138,148.1881343640589 118.40008336406027,148.25829904936654 118.16230341311893,148.28528536414342 117.93952899304713,148.293381247453 117.79639931384736,148.3014771256294 117.5274540295286,148.3203674880906 117.27466854769591,148.33655920510046 117.03227151032479,148.35679882249224 116.77486894207686,148.37433979828165 116.5151578306104,148.3945793558014 116.30277185500745,148.40672307490786 116.05691200282308,148.42831188037144 115.78450390367652,148.44990064934245 115.53979832310142,148.47014008710175 115.29509274251177,148.4957766622174 115.04461580389761,148.50792028510295 114.78605896404042,148.5483989446475 114.54250765506004,148.65094430795125 114.3370473091054,148.80880858673663 114.16967792615469,149.0125450708947 114.0888789137025,149.16770643839482 114.0288567901589,149.36334199781868 114.00115427160927,149.6507184550137 114.02077688891586,149.95023069891158 114.04270804944099,150.23354662877318 114.06694775317737,150.5316961318049 114.08426182727271,150.79746154307577 114.10965580261109,151.07536260893175 114.13043269153422,151.3667475267357 114.15120958045009,151.6797091119106 114.15351812366134,151.98861626398593 114.15120958045009,152.2273734448636 114.13158696314349,152.55245373526577 114.10734725939983,152.85864213234436 114.0888789137025,153.13380077836337 114.06810202477936,153.41434859407036 114.04847940747277,153.6841003033469 114.02654824694764,153.97542575677926 114.02654824694764,154.26134983990323 114.11658143225941,154.5351296443414" stroke="red" stroke-dasharray="none" stroke-linecap="round" stroke-linejoin="round" stroke-width="0.5"><title>2024-04-21 79.4km</title><desc>1713660889000</desc></polyline><polyline fill="none" opacity="1" points="19.264778769582335,194.28955182011669 19.500068379107688,194.44880375574212 20.1976814319205,194.15925395555132 20.461866256649955,194.70456969116276 20.573319229588378,195.3439719941125 20.662068819146953,195.95440352227888 20.626981772104045,196.43212116096947 21.118200430595607,196.4200577072461 21.77659854848025,196.36456573800206 21.98505688674777,196.6178975436178 22.011888158005604,197.26689668015024 21.760086996931932,197.50574302044697 21.788982212136034,197.36340055274013 21.99537660646456,196.93878046288228 21.7332557256741,196.32113714626576 21.80755770763062,196.1980890211289 22.20796283261734,196.07262750493646 22.781739248821395,195.82170240443338 23.495863853182527,195.5297572303498 24.094407596719975,195.36327442669608 24.856002911765245,195.15094677076013 25.438035103747097,194.979635518157 25.629981890466297,195.6503961845974 25.790969518042402,196.31631174208633 25.956085033496493,196.95808154734004 26.187246755136584,197.62878409966106 26.43079214043246,198.33324182999968 26.674337525742885,199.08833848898757 26.948842070181854,199.84823484604385 27.190323511538736,200.55021187615785 27.38227029825066,201.1170848007605 27.685670057908283,201.9878707048756 27.918895723494643,202.65360153294932 28.094330958665523,203.2035384583778 28.290405633269984,203.76069790023394 28.505055803369032,204.38055196713867 28.719705973460805,205.01727171594212 28.959123470878694,205.74561877096312 29.194413080404047,206.42088669997065 29.429702689922124,207.11783875287801 29.642288916074904,207.7134868184512 29.871386693776003,208.38146234531087 30.044757985000615,208.9409069776957 30.575191578420345,208.7721104700213 31.171671377996972,208.6129583358943 31.516350016521756,209.23026952082364 31.865156542924524,209.84997531732552 32.092190376679355,210.3563372379558 32.298584771000606,211.14479276845123 32.53593832447223,211.684881178453 32.81044286892575,212.40819389683202 33.14686573167273,213.22068791220954 33.3553240699257,213.71974263276024 33.64221227802773,214.4357586555252 33.83415906476148,214.9155009646729 34.034361627243925,215.49166059681556 34.232500245794654,216.18351513138987 34.445086471947434,216.85606447625105 34.69069580118958,217.60572880808468 34.901218083403364,218.40839684252205 35.05188599124813,219.0013407411916 35.11380430954887,219.66657659344492 35.14476346869924,220.31010158139907 35.18191445968114,220.76320945006773 35.30781504020706,221.65252808461082 35.419268013145484,222.36829605078128 35.53072098608391,223.04548353529208 35.619470575635205,223.74915892930403 35.68138889392867,224.2600330017558 35.72679566068109,224.89138050414113 35.78665003504284,225.55403569708324 35.856824129106826,226.34196802264887 35.904294839805516,226.893745479485 35.96002132626745,227.563571002971 36.001300205127336,228.07676940029523 36.038451196109236,228.6164586058203 36.04670697187976,229.218775304651 36.06734641131334,229.79216609821196 36.09624162651744,230.7196796679873 36.10036951440998,231.66401857293386 36.106561346226954,232.26866413316566 36.13958444933087,232.82752553352657 36.16847966453497,233.56221484497473 36.18705516002228,234.37636764182753 36.143712337208854,234.92313451335394 36.116881065958296,235.37836218686243 36.82274989452708,235.4361682292074 37.5698976019703,235.50601700269362 38.29640586999449,235.55177987691786 38.89288566957839,235.59754265985066 39.66273676040146,235.6577567088516 40.333518541941885,235.7420561119543 40.99191665982653,235.76855014609828 41.66682632925949,235.8263552053013 42.35411966236279,235.88656865377743 43.07856398642616,235.9347392987729 43.63995673898171,235.98050131783566 44.21579709913203,236.0262632456288 44.868003385192424,236.0816591413586 45.38398937099555,236.12019533776038 45.94951001142908,236.15632296310832 46.21988666799734,236.61152616847357 46.20543906040257,237.42557076110643 46.18892750885425,238.22513674528636 46.20131117251731,238.78626129774057 46.17241595730593,239.52798428855385 46.15796834970388,240.49844927798222 46.135264966331306,241.47850503608606 46.12288130266825,242.30441634714225 45.90616718863748,243.12548240052092 45.58212798954628,243.6816717568454 45.326198940587346,244.10301836187136 45.466547128722596,243.9802267208688 45.76169111260242,243.61425558263545 46.290060762068606,244.0115266132707 46.81223857971054,244.4328671665662 47.394270771685115,244.88549869147027 47.8937452059472,245.07329000383288 48.44275429483969,245.3501590099113 49.12179185215791,245.5596142144841 49.883387167217734,245.9375917618945 50.490186686503876,246.1711161828207 51.21463101058907,246.52019465337617 51.67282656597672,246.7922314389998 52.384887226391584,247.04259873129558 53.004070409355336,247.22555771942098 53.41066736616631,247.40129327034447 53.89775813676533,247.63721011558846 54.475662440861925,247.91164094883788 55.179467325506266,248.09218576206695 55.8481851631077,248.11866554870358 56.38068270045915,248.18125401401267 57.103063080583524,248.32809551339233 57.72843809537153,248.542337984838 58.35794099805207,248.82879389868685 59.02253094777552,249.08154615127933 59.75935893550195,249.3872523039572 60.38060606241197,249.59907780403046 61.10505038647534,249.96495361448433 61.67057102691615,250.25620585223805 62.11844686260156,250.48487237804147 62.65713623177726,250.7544552547588 63.245360255597916,251.06735998593285 63.77785779294936,251.35378442866386 64.33512265761965,251.62817088364136 64.93779428903508,251.93143631279963 65.5218904249632,252.22988409890604 66.16171304736781,252.54758232325003 66.73136157569388,252.84361535345306 67.2886264403569,253.12279748278524 67.96972794162139,253.474177068294 68.55588802149578,253.77982480623905 69.08425767095468,254.05899556764416 69.60230760070408,254.32131672873402 70.16782824115216,254.61251377878943 70.66317478751444,254.874828625414 71.17503288543958,255.1299209275112 71.67657126363338,255.38019741723656 72.20700485704583,255.738761872366 72.61772970173479,256.0491923552672 73.06147764953494,256.5064079167205 73.45156305480486,256.88901816430734 74.0913856772022,257.5459378956657 74.62594715849264,258.089747362661 75.1687644155536,258.635950125823 75.65172729828191,259.1195813953418 76.08721947029699,259.57432988241635 76.4504736043018,259.93523498296963 76.58875784850534,260.0555354252065 76.96439564616594,260.4789879785294 77.07997650698235,260.6907113330544 77.44323064097989,260.96258051114455 77.804420831053,261.3066227431009 78.36787752754753,261.86237240711125 78.9168866164473,262.430137426265 79.38127400367375,262.90887755444965 79.84978927877819,263.36836248376676 80.05824761704571,263.68831254123506 80.18827608546417,263.8903839705454 80.35132765697927,264.0708033907267 80.55359416342253,264.2776825856272 80.66091924846842,264.47493776103147 80.7021981273283,264.67940780524077 80.62996008931077,264.85019903847933 80.51437922848709,265.02820545432587 80.38022287218337,265.35053789416816 80.31211272205837,265.6608387411743 80.14286931871902,265.98797309044676 80.26670595531323,265.76186602153575 80.31624060994363,265.45397197448256 80.22129918855353,265.2519142685687 80.5308907800354,264.70105746830814 80.62376825747924,264.4099880728354 80.57629754678783,264.2680603387198 80.35958343275706,264.0635866410721 80.39054259189288,263.7893484776141 80.46071668596414,263.6522281707694 80.08714283224253,263.4429377066517 79.63720305261813,262.9858599623276 79.31729174142674,262.6634944110283 78.81988125111093,262.15828558418616 78.35549386388448,261.68674734031265 77.9282574676472,261.24647587075196 77.44323064097989,260.77491894395644 76.98916297347023,260.3129762584449 76.58462996060553,259.8991447276512 76.18835272351134,259.4853057538603 75.81477886978973,259.11476919397865 75.38960641748417,258.6912915324774 74.923155086326,258.2124636504068 74.49179080218892,257.78175065911637 74.03565919073299,257.31734158269865 73.65795744912612,256.9419574457552 73.33804613792745,256.61469448160824 72.88604241436406,256.1671067119423 72.45261418628797,255.7315425089473 72.15747020241542,255.51736703013194 71.55479857098544,255.17564472033882 70.86131340606516,254.79781907247525 70.21736289578257,254.48496511156372 69.58992393704102,254.16488703874347 69.03059512843174,253.87609096892993 68.39283644998795,253.57525787224404 67.74682199575182,253.23832013084393 67.26798700093059,252.98561358426377 66.60546099514613,252.65588753259726 65.93880710149097,252.31893631677121 65.36090279739437,252.00845546725577 64.7561672220254,251.70037730111108 64.15555953455623,251.38988809671173 63.57971917439136,251.08420858136924 63.00181487030204,250.8074086625602 62.403271126764594,250.49450039236763 61.79234371957136,250.19362303811067 61.23301491096208,249.90959120138723 60.62002355982986,249.59667070704563 60.1370606771161,249.33429562385754 59.594243420040584,249.0622889346305 59.03904249932384,248.77583593158124 58.5189286256209,248.51585868644543 57.96991953672841,248.24865678597962 57.670647664963326,248.19810472554127 57.4126546720654,248.38586896082234 56.80998304064269,248.2655074480772 56.33321198975318,248.14755255388081 55.652110488495964,248.0945930166563 54.95036954779789,248.04885513627232 54.42199989833898,247.86108814689942 54.07732125982875,247.6925780037909 53.53037611486798,247.42777385326553 52.973111250204965,247.19426220632886 52.41584638553468,247.02815453859694 51.88747673607577,246.86926781955117 51.538670209673,246.6959356000316 50.90916730698518,246.33241516985436 50.3209432831718,246.091669996782 49.792573633705615,245.86536723351674 49.26214004029316,245.60776456621716 48.68217179225758,245.43201529423095 48.13522664730408,245.249042020645 47.871041822574625,245.00347033623802 47.59447333418211,244.85901517773164 47.10944650752208,244.63992312003575 46.655378840019694,244.24988593298076 46.26735737868876,243.9826344064113 45.80090604752331,243.64074053181503 45.53465727884759,243.75871857075617 45.16933920090378,243.94892678579527 44.64509743932285,243.6287019223364 44.19515765970573,243.30124932400759 43.74315393613506,242.97619984728044 43.28289443680114,242.6174361940375 42.79786761014111,242.2851534479487 42.36237543812604,241.89748416633847 41.91656354639417,241.61575766224087 41.460431934930966,241.37496303827902 41.00430032348959,241.15102177139852 40.552296599926194,240.98968638665065 40.13537992339843,240.85002200365307 39.660672816447914,240.6935005647174 39.22105275654758,240.57309873162922 38.791752416364034,240.459920432726 38.426434338412946,240.3804544851664 37.809315099388186,240.37082223040306 37.214899243743275,240.33710930691268 36.63286705175415,240.3082124759312 36.03638725216297,240.2889479017431 35.9455737186654,239.91328547344528 35.95176555049693,239.4942701271484 35.953829494428646,239.1426766356617 35.96414921415271,238.60323505438828 35.98272470963275,238.05173925895906 35.99510837330308,237.55321418753374 36.030195420338714,237.03300256590774 36.07560218708386,236.53204689448648 36.11894500989729,236.02385472538663 36.15609600087191,235.59513409460124 36.19737487973907,235.08451255285763 36.240717702545226,234.58351433361713 36.25516531015455,234.09454879005352 36.222142207057914,233.57184995829084 36.20769459944859,233.06359220624472 36.220078263111645,232.687811460175 36.19531093578553,232.17712519196357 36.18911910396855,231.63029285313314 36.19118304790754,231.00876713677826 36.178799384244485,230.38240634761496 36.16435177663516,229.91503368820486 36.158159944810905,229.5632933415236 36.13545656144561,228.8381129913596 36.11894500989729,228.37793681853327 36.069410355259606,227.86715454167097 36.02193964456819,227.23347957640908 35.97859682175476,226.73712877430626 35.92287033529283,226.14197553311533 35.87539962459414,225.5130721135938 35.83412074573425,225.043190476983 35.77220242743351,224.39738871012196 35.72060382885684,223.79976488822103 35.65455762267811,223.26478195255004 35.5905753604311,222.8237731111767 35.52659309819137,222.42372496014104 35.439907452579064,221.8959399028936 35.35115786302049,221.3777829244682 35.27272799317143,220.7969511667343 35.227321226426284,220.29805071782175 35.19636206727591,219.75093483157616 35.15301924446976,219.1989852950901 35.03743838364608,218.59881545947246 34.915665691005415,218.10468792289248 34.76912567103864,217.5647510062372 34.608138043455256,217.0657801227935 34.443022528001165,216.56679836269177 34.31299405958271,216.14012417247613 34.15819826383813,215.5736235501081 33.98069908472826,215.0625556385312 33.75366525097343,214.50326069395487 33.56584635213221,214.04520723872156 33.419306332165434,213.6088425243961 33.21497588179045,213.13871653086971 33.00445359958394,212.63482717667102 32.79186737343116,212.0947611933443 32.58547297910991,211.58602666392653 32.41003774393903,211.11103681943132 31.93120274910325,211.32562736143154 31.40076915569807,211.52333821385764 30.886847113841213,211.68247009781953 30.713475822609325,211.14961504281928 30.58963918601512,210.57093486021768 30.482314100969234,210.0694001926513 30.34196591282671,209.4955153024348 30.164466733716836,208.99395705135794 30.022054601628042,208.58402146522712 29.861066974059213,208.10896927022077 29.677375963110535,207.56156186294538 29.504004671878647,207.0454917771567 29.3038021093962,206.46188446768792 29.12423898632551,205.93614281374175 28.921972479896795,205.35250718343923 28.75892090837442,204.88462323092608 28.560782289830968,204.2840777305937 28.391538886491617,203.8065242627672 28.216103651320736,203.27589759493821 28.03241264037206,202.76455478534626 27.871425012795953,202.29179370640486 27.712501329166116,201.82867132884166 27.49372327119636,201.18221398063906 27.330671699673985,200.71183239872153 27.151108576617844,200.18595844645824 26.975673341446964,199.6697217830715 26.835325153311715,199.23067020685266 26.659889918126282,198.74818621478516 26.44523974803451,198.12817932168764 26.267740568924637,197.590183048138 26.0716658943129,197.02322258695858 25.904486434919818,196.4297084707341 25.780649798325612,195.90132316768722 25.634109778351558,195.36810003228857 25.582511179767607,194.9096629466403 25.196553662390215,194.90001154063975 24.577370479426463,195.08097472428926 24.015977726870915,195.23298269008592 23.55365428359073,195.3994664437978 22.95511054006056,195.60937901166835 22.406101451160794,195.80240035940187 22.038719429263438,195.99059460239187 22.018079989837133,195.97853091539218 21.79311010002857,196.0822784152715 21.20695002015418,196.23186700386395 20.73224291321094,196.14259651245084 20.676516426741728,195.61661734166046 20.618725996333524,195.24263395532944 20.51759274311189,194.6128803456868 20.34834933977254,194.04584594956577 19.95413604661735,194.20992543569992 19.405126957717584,194.36676501855254" stroke="red" stroke-dasharray="none" stroke-linecap="round" stroke-linejoin="round" stroke-width="0.5"><title>2024-04-05 108.1km</title><desc>1712276378000</desc></polyline></svg>