<?xml version="1.0" encoding="utf-8" ?>
<svg baseProfile="full" height="300mm" version="1.1" viewBox="0,0,200,300" width="200mm" xmlns="http://www.w3.org/2000/svg" xmlns:ev="http://www.w3.org/2001/xml-events" xmlns:xlink="http://www.w3.org/1999/xlink"><defs /><rect fill="#222222" height="300" width="200" x="0" y="0" /><text fill="#FFFFFF" style="font-size:12px; font-family:Arial; font-weight:bold;" x="10" y="20">Over 10km Runs</text><text fill="#FFFFFF" style="font-size:4px; font-family:Arial" x="10" y="280">Runner</text><text fill="#FFFFFF" style="font-size:9px; font-family:Arial" x="10" y="290">yihong0618</text><text fill="#FFFFFF" style="font-size:4px; font-family:Arial" x="65" y="280">SPECIAL TRACKS</text><rect fill="yellow" height="2.6" width="2.6" x="65" y="283" /><text fill="#FFFFFF" style="font-size:3px; font-family:Arial" x="70" y="285.5">Over 20.0 km</text><rect fill="red" height="2.6" width="2.6" x="65" y="287" /><text fill="#FFFFFF" style="font-size:3px; font-family:Arial" x="70" y="289.5">Over 40.0 km</text><text fill="#FFFFFF" style="font-size:4px; font-family:Arial" x="120" y="280">STATISTICS</text><text fill="#FFFFFF" style="font-size:3px; font-family:Arial" x="120" y="285">Number: 5</text><text fill="#FFFFFF" style="font-size:3px; font-family:Arial" x="120" y="290">Weekly: 1.2</text><text fill="#FFFFFF" style="font-size:3px; font-family:Arial" x="141" y="285">Total: 317.5 km</text><text fill="#FFFFFF" style="font-size:3px; font-family:Arial" x="141" y="290">Avg: 63.5 km</text><text fill="#FFFFFF" style="font-size:3px; font-family:Arial" x="167" y="285">Min: 18.7 km</text><text fill="#FFFFFF" style="font-size:3px; font-family:Arial" x="167" y="290">Max: 108.1 km</text><polyline fill="none" opacity="1" points="74.3688052247162,37.322881621774286 74.49327698809793,37.75943139492301 74.60391855548369,38.228316800654284 74.68689973105211,38.76187430728169 74.79754129849607,39.32776659888623 74.9220130618778,39.89365679725597 75.04648482520133,40.52421769531793 75.11563580483198,41.05776719446294 75.21244717633817,41.59131483279634 75.30925854778616,42.12486061031814 75.39223972341279,42.674572495539906 75.48905109486077,43.27278612632654 75.59969266230473,43.9195009337418 75.7103342297487,44.61471630273445 75.83480599307222,45.342263887345325 75.93161736457841,46.06980801228201 75.98693814827129,46.71651099668816 75.90395697270287,46.95902391112759 76.12524010753259,47.62189058259537 76.19439108716324,48.511097461072495 76.24971187085612,49.416466427763226 76.33269304648275,50.07932245286065 76.27737226273166,50.28949571488192 76.20822128310101,50.43500011184369 76.18056089128368,51.11401880111953 76.4433346138685,51.77686747230473 76.62312716094311,52.55288178018236 76.80291970801773,53.345058993436396 77.02420284290565,54.26656610182545 77.21782558580162,55.09106775795226 77.14867460622918,55.7053994370508 77.59124087588862,56.044897464773385 77.84018440259388,56.70772477675928 78.1029581251787,57.3543828020629 78.35190165194217,57.90403997511021 78.29658086819109,58.45369517385552 77.78486361884279,58.64769065497967 77.17633499810472,58.82551962998696 76.48482520162361,59.084179588389816 75.80714560119668,59.32667290234531 75.14329619664932,59.552999648672994 74.79754129849607,59.746993736276636 74.67306953511434,59.924821433844045 74.76988090667874,60.53913370841474 75.0603150211391,61.28277158353012 75.32308874378214,62.042571767335176 75.53054168261588,62.78620233718539 75.82097579713445,63.545995057036635 76.56780637725024,63.88547569133516 76.87207068764837,64.53210338790086 77.2316557817976,65.27572186152975 77.5497502880753,66.00317122015986 77.89550518628675,66.68212083536491 78.21359969262267,67.37723279738566 78.53169419901678,68.07234160252847 78.84978870529449,68.76744725090975 79.1678832116304,69.47871487913653 79.4859777179663,70.15764907738776 79.81790242023999,70.82041527087858 80.1359969265759,71.51550843943551 80.45409143297002,72.19443360337755 80.77218593924772,72.88952053248067 81.09028044564184,73.61693370626017 81.40837495191954,74.31201417588454 81.7126392624341,74.94243326772994 82.1690357279731,75.34654670467717 82.43180945055792,75.97696153607103 82.57011140987743,76.30025018611923 82.51479062612634,76.78518188100134 81.96158278902294,77.04381149017718 81.35305416828487,77.28627635187877 80.63388397998642,77.60956223681569 79.88705339992885,78.02983286661038 79.09873223205796,78.36928137909854 78.25509028037777,78.75722161460726 77.52208989625797,79.22598142086645 77.21782558580162,79.35529421825777 76.48482520162361,79.71090384796844 75.73799462156603,80.05034863295441 75.08797541295644,80.3736286808562 74.43795620434685,80.68074409401743 73.60814444866264,81.08484238326491 72.86131386860507,81.42428412188019 72.18363426811993,81.74756126850843 71.61659623507876,81.99001868047344 71.27084133692551,82.16782053853967 70.6761429120088,82.44260482213576 70.1229350749054,82.7658798185148 69.54206684586825,83.13764522042766 68.86438724549953,83.60639161437575 68.11755666538374,84.13979093765374 67.3983864770853,84.65702487032104 66.72070687665837,85.07727615398471 66.11217825586209,85.49752628407441 65.47598924313206,85.88544845725119 64.99193238565931,86.11173593773856 65.00576258159708,86.09557255735854 64.67383787938161,86.27336964762071 64.06530925852712,86.59663655543409 63.35996926622465,86.88757618890668 62.68228966573952,87.11386218827101 61.99077986937482,87.35631110219401 61.20245870150393,87.66341250867117 60.538609296956565,87.87353416875703 59.86092969652964,88.09981871095079 59.017287744849455,88.40691862619133 58.20130618516123,88.69785481976578 57.35766423359746,88.98879046057118 56.61083365348168,89.26356250264507 55.82251248561079,89.53833405155456 54.96504033805104,89.82926809541823 54.232039953931235,90.07171270961408 53.582020745263435,90.24950518280093 53.01498271228047,90.44346037255309 52.73837879369967,90.5242749624158 52.102189781027846,90.76671847621037 51.466000768356025,91.02532446775876 50.73300038417801,91.30009285525011 49.944679216248915,91.59102355163486 49.156358048378024,91.83346537640318 48.32654629269382,92.124395059378 47.510564733005594,92.43148690286034 46.74990395689383,92.73857813050563 45.97541298501892,93.02950609382242 45.18709181714803,93.2881082638487 44.41260084521491,93.56287259100645 43.568958893592935,93.82147386028373 42.80829811748117,94.09623723040568 42.57318478671368,94.12856230030593 41.99231655779295,94.37100010745053 41.203995389922056,94.62960001197644 40.42950441798894,94.95284927851753 39.655013446114026,95.22761061855999 38.96350364963291,95.48620907652366 38.299654245143756,95.6478328909725 37.42835190158803,95.93875532709353 36.58470995002426,96.294326442905 35.93469074147288,96.73070804757299 35.450633884000126,97.15092619525967 35.00806761428248,97.61962969198066 34.814444871328305,97.86206197222054 34.28889742598403,98.29843910945056 33.59738762967754,98.71865295527095 32.78140606993111,98.96108349562564 32.07606607762864,99.09037962694129 31.384556281205732,99.18735165377439 30.997310795239173,99.2196756490739 30.25048021512339,99.42978145217057 29.3238570879912,99.57523914705962 28.397233960800804,99.75302058643138 27.512101421423722,99.91463989773183 26.64079907798441,100.06009713205276 25.797157126420643,100.18939233545098 24.939684978860896,100.31868742972438 24.040722243546043,100.46414428026765 23.22474068379961,100.62576284111128 22.50557049555937,100.73889573221095 21.6619285439956,100.86819036255474 20.79062620055629,101.01364669116447 19.974644640868064,101.14294108955073 19.13100268918788,101.23991181666497 18.328851325437427,101.43385308679717 17.48520937381545,101.5631471304223 16.66922781401081,101.7086027990299 15.867076450260356,101.85405832945253 15.03726469463436,101.96719031315297 14.345754898153245,102.08032221329631 14.055320783751085,102.14496897593199 14.262773722643033,102.11264559804113 14.594698424916714,102.5490106237412 14.926623127190396,103.14699030629708 15.078755282389466,103.43789849684981 15.369189396791626,103.89042125051492 15.604302727617323,104.40758847469988 15.604302727617323,104.69849427083682 15.7564348828746,105.03788366803201 15.90856703807367,105.34494961741439 15.7564348828746,104.98939951446664 15.604302727617323,104.61768716068764 15.466000768356025,104.26213536941214 15.300038417219184,103.95506724908773 15.2032270457712,103.72880613485177 15.03726469463436,103.37325228002737 14.746830580057576,102.88840478412749 14.580868228978943,102.5166873310809 15.009604302758817,102.41971741238376 15.7564348828746,102.27426241917419 16.434114483301528,102.16113066229445 17.180945063359104,102.03183712353348 17.94160583941266,101.90254347557493 18.716096811403986,101.75708799115091 19.504417979333084,101.64395585219609 20.278908951149788,101.5631471304223 21.02573953132378,101.41769132364425 21.800230503315106,101.27223537878308 22.51940069149714,101.14294108955073 23.197080291982275,101.02980849693995 23.957741067977622,100.90051400304947 24.773722627782263,100.77121940001962 25.58970418747049,100.64192468780675 26.364195159403607,100.51262986641086 27.12485593551537,100.38333493591927 27.857856319635175,100.27020178217208 28.590856703813188,100.14090664697869 29.296196696115658,100.04393522393366 30.001536688418128,99.9469637395232 30.568574721517507,99.84999219367455 30.87283903185744,99.88231604911562 31.356895889388397,99.76918252525502 31.882443334616255,99.65604891782277 32.4633115635952,99.55907718774688 33.16865155589767,99.41361947756377 33.90165194007568,99.12270364274445 34.57933154050261,98.76713909402315 35.04955820203759,98.37924955398194 35.450633884000126,97.95903477682441 35.82404917408712,97.47417013959785 36.28044563962612,97.0377906535432 36.847483672667295,96.69838352689112 37.594314252841286,96.39130024028418 38.34114483289886,96.18119026835484 39.08797541301465,95.8741059446038 39.87629658088554,95.58318338567915 40.719938532449305,95.30842268359265 41.56358048407128,95.01749904996541 42.39339223969728,94.72657486359822 43.19554360356415,94.43565012453473 43.970034575497266,94.17704989243066 44.758355743368156,93.91844922363816 45.50518632348394,93.64368553458189 46.23818670766195,93.36892135241942 46.90203611215111,93.12648195878137 47.607376104511786,92.9002048450493 48.34037648863159,92.65776470923447 49.05954667693004,92.39916147469194 49.82020745292539,92.14055780333001 50.5532078371034,91.89811646481394 50.92662312713219,91.78497704213078 51.41067998460494,91.65567474244745 51.83941605838481,91.47788390207279 52.06069919327274,91.41323263620143 52.572416442562826,91.25160435213184 53.125624279724434,91.0576501860196 53.85862466384424,90.78288136346964 54.59162504802225,90.49194913158135 55.35228582407581,90.21717929388979 56.09911640413338,89.94240896315023 56.832116788311396,89.66763813928992 57.56511717248941,89.39286682239617 58.27045716479188,89.15042113327945 58.82366500189528,88.97262738393329 59.29389166343026,88.81099652354897 59.63964656164171,88.68169171242334 60.303495966189075,88.4715711614117 60.96734537073644,88.21296085663198 61.56204379565315,88.0190028413781 62.12908182863612,87.80888138097362 62.69611986167729,87.59875963217928 63.34613907028688,87.38863759500964 64.03764886670979,87.13002546112693 64.70149827119894,86.80675967947172 65.07491356122773,86.64512653269048 65.66961198614445,86.35418643856246 66.2919708028785,85.917775260692 66.91432961967075,85.49752628407441 67.49519784859149,85.12576661241474 68.0898962735082,84.68935193307698 68.51863234722987,84.31759029910609 69.04417979251593,83.94582776234893 69.55589704186423,83.59022796954378 70.05378409521654,83.26695471383573 70.62082212831592,82.94368077552645 71.32616212061839,82.555751148524 72.03150211292086,82.24863949668361 72.8474836726673,81.86070810855017 73.64963503647596,81.50510347248928 74.46561659616418,81.13333410627092 75.12946600071155,80.79389172251103 75.7518248175038,80.50294050882803 76.48482520162361,80.14733271901787 77.2316557817976,79.80788814902189 77.96465616597561,79.51693506147421 78.7114867460914,79.19365320446377 79.43065693427343,78.87037066480843 80.05301575100748,78.5632516197511 80.78601613518549,78.20763932415866 81.46369573567063,77.91668319517339 82.09988474834245,77.59339795880078 82.83288513252046,77.20545477396809 83.66269688814646,76.8175106060371 84.3818670764449,76.52655183488969 84.72762197459815,76.38107224192936 85.25316941988422,76.09011264125002 85.9031886284356,75.76682354741206 85.7233960814192,75.31421766898711 85.04571648093406,75.6213432324439 84.45101805607555,75.87997480790364 83.84248943527928,76.17093480800395 83.19247022661148,76.52655183488969 82.63926238950808,76.47805865258852 82.36265847098548,75.78298801829806 81.97541298501892,75.00709148938768 81.54667691123905,74.23119102763303 81.24241260089912,73.47145134799939 80.84133691893658,72.69554310235253 80.48175182478735,71.95196067624784 80.14982712257188,71.35385914704239 79.83173261617776,70.65876524437044 79.51363810978364,69.93133801258227 79.1678832116304,69.15541182148445 78.83595850935671,68.37948169690208 78.4763734153239,67.66820896042918 78.15827890892979,67.03775990802387 77.8263542066561,66.37497733485361 77.57741067989264,65.71219189158 77.41144832887221,65.32421859302849 77.28697656549048,65.13023157489079 77.05186323472299,64.7099255255307 76.77525931614218,64.16029279622308 76.33269304648275,63.67532110174943 75.77948520932114,63.27117684909899 75.51671148673631,62.41438750391535 75.26776796003105,61.70308704505442 75.04648482520133,60.94328517577378 74.76988090667874,60.36130672461877 74.85286208224716,59.746993736276636 75.64118325005984,59.50450108831865 76.4433346138685,59.31050669339311 77.19016519392608,59.03568087948952 77.97848636191338,58.760854572057724 78.62850557046477,58.59919180776342 78.64233576640254,57.823208161687944 78.42105263157282,57.25738427249598 78.22742988856044,56.659225314710056 77.9231655781623,55.81856552998943 77.60507107182639,55.042567783501 77.35612754512113,54.20189911736816 77.17633499810472,53.361225832632044 77.01037264696788,52.61754946154542 76.9965424509719,51.809201480369666 76.95505186315859,51.11401880111953 76.96888205915457,51.00084922883252 76.83058009983506,50.40266581335163 76.52631578943692,49.7559784091427 76.47099500574404,48.86677876545582 76.41567422205117,47.88056948025769 76.37418363423785,47.2500389010238 76.34652324242052,46.732678536267485 76.27737226273166,46.102143226438784 76.20822128310101,45.40693461635965 76.11140991159482,44.76022609643405 75.98693814827129,44.08117920845689 75.86246638494777,43.4668008556182 75.76565501338337,42.787748226721305 75.64118325005984,42.044020460598404 75.44756050710566,40.976926480885595 75.30925854778616,40.07150757013005 75.17095658852486,39.133746620456805 75.04648482520133,38.26065367215779 74.85286208224716,37.43606131222623 74.56242796772858,36.41744108371495 74.2305032654549,35.47965773368196 73.98155973874964,34.89758241784875 73.9538993468741,34.78440084923932 73.77410679985769,34.655050382585614 73.4006915097707,35.09160776925273 72.76450249709887,35.39881407226494 72.04533230885863,35.72218846157193 71.29850172880106,36.06173083464091 70.60699193231994,36.36893518936995 69.79101037263172,36.67613892717054 68.98885900882306,37.06418487202609 68.26968882058281,37.33905015409982 67.71648098347941,37.29054455195728 67.41221667308128,36.62763311486924" stroke="#4dd2ff" stroke-dasharray="none" stroke-linecap="round" stroke-linejoin="round" stroke-width="0.5"><title>2024-05-25 18.7km</title><desc>1716643451000</desc></polyline><polyline fill="none" opacity="1" points="180.33934027593205,104.96253370132945 180.43249781490886,104.8539589527445 180.4676906629611,104.86361006218249 180.47183099803078,104.90704000472397 180.56291836946912,104.84189506027906 180.4739011655547,104.8756739433029 180.50909401361423,104.84913339651393 180.51530451620783,104.73573253480936 180.6933389240221,104.79605221142629 180.62709356298728,104.97459753077055 180.5194448512848,105.15072872292876 180.54221669414255,105.20863457487212 180.50495367854455,105.36063674537945 180.61053222272312,105.46438368412055 180.65814607596985,105.4788599641015 180.60639188765344,105.55124122787674 180.56912887205544,105.63809844496245 180.48425200322527,105.71530458590314 180.43249781490886,105.85041471150726 180.46148016036022,105.99517468323575 180.4262873123007,105.82387528492836 180.53600619154167,105.65016192149415 180.4739011655547,105.5922571766514 180.401445301919,105.522288749582 180.4739011655547,105.37028764307252 180.54842719673616,105.17726892309292 180.42007680971437,105.24965113214057 180.24204240189283,105.27136575061559 179.93358743951103,105.1627924540553 179.71000934598123,105.08317171215458 179.6810270005226,104.8153544746674 179.87355258106254,104.51375476801331 180.07849916680425,104.23627955868506 180.32277893566788,103.9684524985023 180.44905915517302,103.84780866372785 180.4262873123007,103.74888024882421 180.17786720838194,103.5799770974063 179.90046475899726,103.28801302173451 179.637553482331,102.96467659635528 179.51748376544128,102.9284819385557 179.32288801737013,102.73061680623869 179.01236288744985,102.42416380285431 178.7163289302698,102.0718584731203 178.45548782115657,101.77987532386214 178.1428925237051,101.43479956761257 177.88826191718545,101.18624530233501 177.7081573418327,101.03180246888769 177.44524606518098,100.80254948247966 177.1947557937092,100.54916195349506 177.04570373135357,100.38264863404402 176.96496719757852,100.29818489682475 176.7020559209268,100.0327254245567 176.53437235076854,99.82518225579588 176.40395179620828,99.71417002726594 176.14932118968864,99.47766393359598 175.93402376628364,99.25080887238437 175.67525282469433,98.98292396042962 175.4206222181674,98.70779567859972 175.14736010383785,98.44231791087986 174.9051505025127,98.1961448878501 174.65466023105546,97.92583422939788 174.41659096478543,97.70137743677151 174.15782002320339,97.44795585289285 173.9508032699232,97.2428030080755 173.7789793647098,97.0810930093885 173.50571725038026,96.79870118920917 173.13308709449484,96.40769142374666 172.80807079186343,96.07219010741028 172.5099666671449,95.80185456156141 172.3961074528488,95.72944271666711 172.05659997747716,95.54117085607504 171.70467149691103,95.35531122997418 171.31548000076873,95.15013977373565 170.94699017993116,94.944966492405 170.6012722019732,94.77358505841767 170.24106305127498,94.59737465059516 169.84980138758692,94.39702419518471 169.4833817342951,94.21115534891578 169.16250576671155,94.03976846192018 168.78780544329493,93.87562208028066 168.4358769627288,93.7018187556605 168.08187831463147,93.50628844970925 167.72166916394053,93.3324823414714 167.43391587689257,93.17798692329052 167.2165482859491,93.07659874257115 166.91016349110578,92.91727355791409 166.53753333521308,92.728978738558 166.16697334685887,92.53585424963421 165.79227302344225,92.33789996976157 165.4320638727295,92.1423580979208 165.05322321425047,91.95405695023328 164.69094389602105,91.77541085005942 164.3410855829934,91.61366251128675 163.98501676736487,91.40121520795401 163.59375510366954,91.20325118598885 163.23561612051708,91.03667038707317 162.95200316853152,90.88457382377055 162.60628519056627,90.70350517811858 162.24400587233686,90.51519227794233 162.00179627100442,90.39689236160666 161.93141057488538,90.36792086098103 161.59604343459068,90.20374833631831 161.19443093324662,89.99611670417289 160.7990289344816,89.79814061542493 160.4181181084641,89.5856765798053 160.0475581201099,89.40218333662779 159.64594561875856,89.19695889990908 159.2608944576641,88.99414707311007 158.90275547450437,88.82272139920133 158.54461649135192,88.63680760737043 158.18233717311523,88.45572130340406 157.86974187567102,88.3060222178101 157.73311081850989,88.43640534699625 157.6544444522806,88.63197865773145 157.58405875616882,88.79133346164963 157.5074625574489,88.92895717834472 157.44535753146192,89.04485019711683 157.3936033431528,89.16798589105565 157.3501298249539,89.27180567087089 157.41430501847935,89.10521091360533 157.41223485094815,89.10038206210265 157.43500669380592,89.11003976408938 157.52402389771305,88.88791159445464 157.64616378214123,88.64646550361795 157.53230456783785,88.56678773855492 157.32114747950254,88.51366907548254 156.95265765867225,88.44606332722287 156.61315018330788,88.34706883803847 156.4930804664109,88.31326574434388 156.0686961222018,88.2698045510133 155.60704876240197,88.25773198277057 155.1578224078039,88.23358682730577 154.72722756098665,88.1152751998543 154.4415444414699,87.977646624091 154.1662121596164,87.84484634197725 153.81428367905755,87.6782412693974 153.39610983744933,87.4802452690019 152.96758515817055,87.33053984658727 152.54320081396145,87.20256508539387 152.13951814507163,87.0866628015483 151.87246653335023,86.98283317723144 151.64267793722684,86.85485648492067 151.28246878652863,86.64719467930263 150.9098386306432,86.44194570678337 150.51857696694788,86.29223353833004 150.1293854707983,86.15459407355593 149.77952715776337,85.98556202697546 149.46693186031916,85.82618781863312 149.09430170442647,85.66922729346516 148.71546104594017,85.57746526035407 148.37181323550612,85.43740671568412 148.07784944587183,85.3528882164428 147.97020073416206,85.16936126469591 147.88325369778613,85.00756655515397 147.8356398445394,84.66706949910986 147.88739403284126,84.27826883381931 148.03230576013448,83.89429154964273 148.10062128870777,83.50547784017726 148.15237547703873,83.15046828617051 147.9474288913043,82.97416899119708 147.5913600756685,82.76405710994186 147.38434332239558,82.53945263436799 147.4216063379863,82.27620374034814 147.0551866846945,82.07333097994342 146.71567920931557,81.88494753069972 146.38031206902087,81.69656254035726 146.3057860378467,81.45504106749286 146.31406670797878,81.017880759342 146.3161368755027,80.63143379664507 146.3244175456348,80.35125569279808 146.326487713166,80.09764326238837 146.33062804823567,79.90199747867518 146.326487713166,79.63871842964545 146.32855788070447,79.28848016556003 146.34511922096135,78.72084131791235 146.3554700586319,78.30295356135684 146.3658208962952,77.83916173535545 146.36789106381912,77.40917971511408 146.37617173395847,76.97435826725996 146.38445240409055,76.57576472313667 146.39480324174656,76.31969492536336 146.27266335731838,76.2931214812852 145.9352260494852,76.23031140055537 145.5087715377449,76.19165895797596 145.16512372730358,76.16991693049567 144.70140619997255,76.13126438647487 144.287372693434,76.09744335719552 143.88783035961387,76.0708696564725 143.46137584787357,76.03463274238493 143.1508507179533,76.01047476795975 142.80720290752652,75.99114837015986 142.4863269399575,75.96699035008714 142.08885477367585,75.93075327241786 141.69552294244932,75.89693194845313 141.35601546708494,75.86794220263073 140.95440296574088,75.8413682368755 140.5817728098482,75.80996260142456 140.4761942656769,75.49590388940123 140.4824047682705,75.12144366898792 140.49896610853466,74.73248176169909 140.49896610853466,74.42324027384893 140.50931694619794,74.01252249668869 140.5175976163373,73.61629369233196 140.5258782864621,73.29495678472449 140.52380811892363,73.1741522750981 140.5175976163373,72.91321236920703 140.53001862151723,72.86972209710984 140.5279484539933,72.57978484854902 140.50724677867402,72.38890749834172 140.55693079945195,72.2052771602157 140.54657996178867,71.9805696203075 140.53622912412538,71.68337240540313 140.542439626719,71.2556916250087 140.54036945919506,70.84250094483468 140.53415895659418,70.49212876219462 140.53829929165659,70.12241991234623 140.5320887890557,69.80345063822278 140.53415895659418,69.39023386354711 140.53415895659418,69.14375014634606 140.51552744879882,68.89968033259538 140.51552744879882,68.61935933004679 140.50931694619794,68.86826521787043 140.50310644359706,69.10025274549662 140.4244400773532,69.283907878229 140.08286243445036,69.39023386354711 139.69988144090166,69.35156992577868 139.50942602787836,69.24524376165755 139.33967229020345,69.08333706738449 139.01258582004084,69.04950567384185 139.01465598756477,69.05675526236337 139.33553195514105,69.08575359359384 139.71023227856494,69.16308229808783 140.07251159678708,69.21866214380498 140.40787873708905,69.25007677978647 140.47205393060722,69.51589121232064 140.4637732604824,69.82278223532558 140.28987918773055,69.98710015458528 139.97314355522394,69.96776869561836 139.67089909543574,69.96051939431527 139.25686558888992,69.94602078485332 138.87595476287242,69.93152216624367 138.4764124290523,69.91943997709495 138.06858942511462,69.90010846124096 137.6607664211624,69.89285913861204 137.26122408734227,69.8831933715428 136.8306292405323,69.87111115699554 136.41038523139287,69.85419604596973 136.21164914824476,69.69229363945487 136.20336847811996,69.27182534878739 136.1909474729182,68.84409971579589 136.188877305387,68.69910616999005 136.1681756300677,68.43086569969637 136.14540378720994,68.15778885303735 136.12056177680643,67.785625804132 136.08743909629266,67.43762373624304 136.05431641576433,67.09686660671468 136.04396557810105,66.9180275104809 136.01084289757273,66.54584438990241 135.97357988198928,66.16640474513588 135.95080803913152,65.81354442259544 135.92182569365832,65.4679294030775 135.89698368327663,65.25040679583617 135.8555803326235,64.9168681326737 135.82659798716486,64.49631248360856 135.79761564169894,64.13859242583203 135.7603526261155,63.739776336982686 135.70859843778453,63.34337045603206 135.65063374687452,62.97838094517465 135.62372156895435,62.67139852314176 135.54505520270322,62.32090176641759 135.4912308468629,61.958313287579585 135.42705565333745,61.59088445787529 135.3732312975044,61.264544714285876 135.3359682819064,61.00588695733131 135.30077543385414,60.6577822009167 135.2862842611139,60.37977808571668 135.26144225072494,60.02441140406518 135.2386704078599,59.66420419042515 135.2179687325406,59.349924825472044 135.15172337149124,58.960695958157885 135.07719734031707,58.61256020216024 134.99439063901082,58.28134281286839 134.9095137701588,57.954956040532124 134.81842639872048,57.63340009102649 134.71284785455646,57.29491527922073 134.60312897531549,56.97093228551239 134.52032227400923,56.72431530043832 134.40025255711225,56.33987765798156 134.327796693462,56.09325389402329 134.2160076466971,55.67979046324217 134.14148161551566,55.44524941737291 134.02555223368836,55.12124031933308 133.88892117652722,54.76579224219313 133.81025481028337,54.50464320855281 133.67569392065343,54.26767206963996 133.55355403622525,53.92913762695753 133.470747334919,53.66314277606034 133.3196251050249,53.34636306804532 133.16643270760687,52.9763781785623 133.03187181796966,52.63298817265604 132.8931705932846,52.292011321795144 132.78138154651242,52.0114875604977 132.6695924997548,51.728542016862775 132.5578034529899,51.43108268321703 132.4687862490755,51.19407980338474 132.313523684119,51.25453995431417 131.96366537108406,51.389970114258176 131.59517555026832,51.51572597557788 131.27222941515356,51.65357295479225 130.9347921073204,51.728542016862775 130.80023121769045,51.421409144206336 130.71742451637692,51.01753525083586 130.63875815014035,50.683789782458916 130.56837245402858,50.29441393299385 130.47728508258297,49.91470565304189 130.37584687347407,49.5253167494775 130.25577715659165,49.177037844554434 130.1936721305974,48.9593608436262 130.06532174357562,48.647353539792675 129.93697135654656,48.26036183981887 129.8127613045799,47.88303864536647 129.67613024741877,47.483940049660305 129.59332354611252,47.234802253753514 129.46083282401378,46.85988105186516 129.32627193438384,46.460764649527846 129.20620221749414,46.097925528232736 129.07578166293388,45.71330979092454 128.9702031187553,45.41335341737613 128.83978256420232,45.05775489091684 128.71971284729807,44.694893566216706 128.5975729628699,44.341703027894255 128.50234525636188,44.041728708329174 128.3864158745273,43.71755849838337 128.26634615763032,43.3498374869323 128.1918201264416,43.14903997088004 128.06346973941982,42.786148431558104 127.9620315303182,42.46921845388715 127.84610214848362,42.1450260036072 127.71154125886096,41.770021553629704 127.57076986663014,41.36113874128023 127.44655981467076,40.98854094992748 127.34305143803067,40.68610322326822 127.20849054840073,40.29655754963096 127.09463133410463,39.96023639263876 126.97042128214525,39.59971398678317 126.88761458083172,39.33839218668618 126.82343938731356,39.09158552753979 126.66817682236433,38.711691650460125 126.55224744052975,38.38502627296293 126.4342478911567,38.03657806931005 126.32659917946148,37.71474272832165 126.19824879242515,37.34692537317642 126.07817907554272,37.003301191891296 125.97467069890263,36.64757213690973 125.90635517032206,36.352337025049565 125.81733796641493,36.003857897516355 125.73246109756292,35.64327321835117 125.63723339106218,35.30930382030965 125.55649685728713,34.95354845194379 125.54614601962385,34.79139961371038 125.29979608322901,34.88336476737277 125.06379698449746,34.96322894328296 124.68702649354236,35.060033631561964 124.28748415972223,35.18103891643477 123.95625735448266,35.292363213799035 123.57741669598909,35.406107045639146 123.24204955568712,35.55131111639639 122.87562990240258,35.689254130846166 122.50714008157956,35.805416024886654 122.19661495165928,35.9312574118685 121.98959819839365,35.99659785930635 121.84675663863891,36.071618143143496 121.56107351911487,36.16357815582887 121.2174257086881,36.245857854191854 120.87998840085493,36.3184573425624 120.74335734369379,36.086138169694095 120.70195399304066,35.7182946595949 120.65641030731058,35.44240814964178 120.61707712418865,35.188299213194114 120.55083176313929,34.80834059082008 120.4970074072844,34.47435901573044 120.39763936572854,34.13795235980615 120.28378015142516,34.03630333316869 120.01879870723496,34.191196907962876 119.6896420695266,34.324307736647825 119.4122396201492,34.38239221939148" stroke="red" stroke-dasharray="none" stroke-linecap="round" stroke-linejoin="round" stroke-width="0.5"><title>2024-05-01 58.8km</title><desc>1714551575000</desc></polyline><polyline fill="none" opacity="1" points="19.226363483685418,114.13504424635175 19.501493760682933,114.00982142620887 19.62120693464385,114.18660638786241 19.684213868298684,114.44687068866006 19.724118259626266,114.70713207364315 19.772423575435823,114.99439833033648 19.81862866011943,115.2792058133 19.86903420704766,115.60329284014006 19.887936287152115,115.79234151814126 19.915239291731268,116.14097270859384 19.921539985101845,116.27354939407815 19.936241602961672,116.38893959721099 20.184068875365483,116.32756190091823 20.536907703863108,116.25636357011354 20.847741909929027,116.18025476833827 21.171177502743376,116.10169058243264 21.265687903229264,116.05258783134559 21.52611656236695,115.94947171630156 21.82644961283222,115.84635514361435 22.14358451226144,115.68185871130117 22.462819642816612,115.50262992944408 22.75055130655528,115.34058627904233 23.055084819250624,115.34304149429954 23.37852041205042,115.25219835700045 23.624247453335556,115.19081765774172 23.95188350837998,115.09997392522928 24.24801609658607,115.01895083708041 24.537847991436138,114.93056169137708 24.7940761883292,114.8716354074113 24.86968450871791,115.14662345386023 24.95789421585505,115.50754032545592 25.039803229614336,115.84144481921612 25.121712243373622,116.16797913179835 25.191019870406308,116.46750281187997 25.230924261719338,116.63690383964422 25.302332119870698,116.85785984600443 25.41574460046104,117.17701481275253 25.501854076472227,117.4397006121635 25.600564939210017,117.7195681968642 25.68667441521393,117.98715773567892 25.791685971322295,118.26456382143624 25.900897989675286,118.5984287022402 25.99750862127985,118.92492427828802 26.050014399341308,119.06975919312936 26.13822410647117,119.27841807696313 26.224333582467807,119.52144194511857 26.31884398296097,119.80373920810234 26.398652765601582,120.05657645506471 26.45745923702634,120.24558891131164 26.551969637519505,120.44932788980623 26.623377495670866,120.65797439066955 26.652780731368694,120.78316139234084 26.747291131869133,121.055624889319 26.848102225725597,121.37717680038259 26.953113781833963,121.70363335144248 27.062325800172403,122.02517630066723 27.12533273383451,122.18962784609539 27.234544752187503,122.49152840195893 27.337456077177194,122.8130604559883 27.406763704202604,123.04622977516192 27.49497341132519,123.21558286756954 27.564281038357876,123.41438709800423 27.65249074548774,123.70400009611512 27.73860022149165,123.96906645873969 27.824709697495564,124.24394690312147 27.898217786772875,124.46728487201653 27.931821484722605,124.57527169219611 28.041033503075596,124.86977865353583 28.152345752547262,125.17655277298218 28.26785846425628,125.53731396073272 28.387571638217196,125.90543185422212 28.49468342543696,126.23673297771711 28.605995674908627,126.55821326107252 28.72990931111417,126.91159104240069 28.83492086721526,127.24287783760155 28.95883450342808,127.59624521975456 29.084848370752297,127.93733781066112 29.208762006950565,128.2857869489344 29.32007425642223,128.63177705705857 29.422985581404646,128.90169484582475 29.460789741606277,129.00475353925322 29.54479898648424,128.94831669224732 29.578402684433968,129.0145686291089 29.813628570111177,128.9605855836744 30.15596624300815,128.83298879664835 30.498303915912402,128.71766032946107 30.678923792402202,128.83298879664835 30.80913812197832,129.11271929997565 30.975056380622846,129.39980763595486 31.128373252526217,129.67953132600633 31.287990817821992,129.96661266980846 31.439207458599412,130.02304704740163 31.48751277440897,130.278226872495 31.56102086368628,130.64136256915117 31.661831957542745,131.00939972406377 31.75844258916186,131.31854643706356 31.80464767383819,131.44612959791084 31.920160385561758,131.68411939450743 32.02937240391475,131.9441879363785 32.13018349776394,132.2140673135109 32.26879875182931,132.5624524285904 32.39481261915353,132.88875206866942 32.50822509974387,133.17088716849685 32.65524127828394,133.5094447753363 32.76445329663693,133.7670396566009 32.663642202780466,133.8210115563179 32.57333226453193,133.86271702950944 32.61113642473356,133.83327787972303 32.596434806866455,133.82346482152025 32.760252834392304,133.80383869270554 32.87786577722727,134.05161735498405 32.99547872006224,134.36563008931262 33.13829443636496,134.71398301185582 33.293711539401556,135.08440892372892 33.42182563784445,135.43520418949265 33.524736962826864,135.74183907961014 33.625548056690604,136.09998351966533 33.72845938167302,136.4581224524136 33.80406770206173,136.6322839158147 33.91117948928877,136.98305586820607 34.005689889781934,137.3043877759428 34.10440075251972,137.64288529663645 34.19681092189421,137.97892507131473 34.285020629024075,138.29043206570896 34.383731491761864,138.6264624997093 34.46144004326925,138.9600353629903 34.52024651469401,139.26662385609234 34.57275229274819,139.56585033506417 34.59375460397132,139.79885189927154 34.61475691519445,140.10542935498052 34.64416015089955,140.51501054152322 34.671463155478705,140.74309754250316 34.68406454221258,140.90251186290334 34.72396893353289,141.27283938257642 34.76387332486047,141.64070857567276 34.820579565152,142.00121475128253 34.87308534321346,142.34945351704846 34.93189181461639,142.71240105941797 34.95709458809142,142.8963250211582 34.99489874828578,143.07043836769117 35.04320406408806,143.3696160102554 35.09360961102357,143.70557321221168 35.11671215336537,143.90910697202526 35.144015157959075,144.15677818645963 35.15451631355245,144.3259778003212 35.17551862478285,144.4387768606648 35.213322784984484,144.77717076709996 35.23642532732629,145.10575145437542 35.249026714060165,145.44658772196271 35.249026714060165,145.55938136072655 35.27632971863932,145.6893385723597 35.30783318547765,145.96641473719865 35.333035958938126,146.25329543854787 35.3519380390353,146.5181052609969 35.37924104362901,146.79271967833301 35.40024335485214,147.1090126337731 35.42124566606799,147.36155354139373 35.44854867065442,147.6508688900176 35.47375144412217,147.93282531035948 35.490553293100675,148.1019975264062 35.51575606655388,148.42562791195087 35.54095884002891,148.69286476956222 35.55776068900741,148.9037100376645 35.56616161349666,149.03119694958332 35.568261844615336,149.31068504906762 35.57036207573401,149.59997622154515 35.57666276909731,149.9015216757125 35.595564849201764,150.18099934790916 35.61446692930622,150.4065402912256 35.62286785378092,150.84045532114578 35.62286785378092,151.22043078167917 35.62496808490687,151.60775423703672 35.62286785378092,151.96565500555334 35.62496808490687,152.3970897305153 35.633369009403395,152.70595287285687 35.62286785378092,153.07119051980044 35.597665080327715,153.2476791463596 35.65227108950785,153.40455680504238 35.669072938479076,153.68889487358138 35.6858747874503,154.00019206240904 35.702676636428805,154.27226730744042 35.72157871652598,154.57375238810891 35.72157871652598,154.9340587180086 35.704776867554756,155.23063322463167 35.67747386296105,155.5737725799354 35.65437132061925,155.81641807955384 35.633369009403395,155.93896535312524 35.729979641015234,155.9585728571983 36.05971592718561,155.99043501619235 36.40205360008258,156.03455177992328 36.74649150410551,156.0639629094294 37.13923472393071,156.1080795342241 37.460570085611835,156.14484332452048 37.80290775850881,156.1742543150831 38.09483988447755,156.18160705693117 38.393072703809594,156.2061161797119 38.69340575427486,156.22817436820333 39.00213972922211,156.24778162937218 39.30457301079878,156.2698397785025 39.6259083724799,156.2943488086512 39.91994072957459,156.3115051144414 40.06905713924061,156.32130871208574 40.38619203867711,156.35071948033692 40.70542716921773,156.38258110412607 41.0456646110033,156.41934446215237 41.33549650585337,156.43650067608723 41.64633071191929,156.46100953127097 41.92146098890953,156.49287100454603 42.12938387000031,156.475714832035 42.48852339187579,156.50757628522842 42.830861064765486,156.54924119688621 43.166898044306436,156.576200805981 43.52603756618191,156.612963859121 43.85787408347824,156.63502166320905 44.223314298717014,156.6693337614979 44.599255669570994,156.6938423722513 44.861784559827356,156.7085475263575 45.097010445504566,156.72570352777439 45.28393101537222,156.73795780678483 45.52965805665008,156.75021207935242 45.84469272496062,156.77472060520813 45.92240127648256,157.05166515943347 45.920301045363885,157.35311434736104 45.911900120874634,157.68151797621613 45.90349919637811,158.0270720314693 45.897198503014806,158.31870587205776 45.89089780964423,158.67650375984522 45.88669734740688,158.9999875424055 45.88249688516953,159.35532441184478 45.88459711628093,159.66164496000965 45.8803966540363,159.96551097425254 45.876196191798954,160.22281378228945 45.8803966540363,160.40414929661165 45.8698954984211,160.78641955256535 45.861494573939126,161.26669895511623 45.85519388056855,161.74451815344946 45.84259249384195,162.1806727868825 45.82999110710807,162.587416399434 45.8278908759894,162.9255472653549 45.785886253550416,163.26367323782324 45.69977677753923,163.62139538911106 45.56326175460708,163.9399105037246 45.39104280259926,164.2290204641431 45.302833095469396,164.38092426414187 45.37634118473943,164.30252242615643 45.46245066075062,164.3735741030032 45.63466961275117,164.4911764037679 45.874095960673,164.67492881387807 46.138725082055316,164.8537797721492 46.271039642742835,164.9419797407627 46.48946367944154,165.15757826269873 46.747792107460555,165.34867528981158 46.993519148738415,165.54222068610034 47.24764711452008,165.6377678224344 47.46187068896688,165.6304180565876 47.53327854711824,165.70391561107863 47.65929241444246,165.90480774743628 47.70339726801467,166.0077030510056 48.01213124295464,166.05180089957867 48.335566835754435,166.184093946109 48.65900242855423,166.26493932814992 48.94043339891505,166.37028289122645 49.20296228917141,166.5001243041097 49.42768701923342,166.60056716644795 49.65661221154005,166.71570845327733 49.896038559461886,166.8234997822383 50.183770223186,166.92884082801174 50.49880489150382,167.04153072351073 50.689925923608826,167.1346219665702 50.90624972918158,167.24731087003784 51.179279775053146,167.40899400006856 51.39770381175185,167.53637992095537 51.651831777518964,167.66866456562275 52.00467060603114,167.7813508947329 52.32810619883094,167.87933856546806 52.62633901816298,167.97242647224994 52.93507299310295,168.05571533781585 53.19760188338114,168.18799704381854 53.40972522670927,168.28843265404794 53.596645796569646,168.37417002872462 53.78776682867465,168.46235671465 54.048195487812336,168.59218650802904 54.36533038724883,168.744061955118 54.724469909131585,168.87633976648794 55.07730873764376,168.91308347016093 55.38604271258373,168.94002881616143 55.63386998499482,168.94737754150265 55.93840349769016,168.95227669044652 56.19883215682785,168.99391941499744 56.3626501843537,169.01351596560016 56.67348439041962,169.09190200374542 56.96121605414373,169.13844358955794 57.32455603827111,169.2388751169692 57.44426921221748,169.2878659494072 57.753003187172,169.42259020933489 58.05543646874867,169.56711173427175 58.33056674574618,169.68223841153122 58.50068546663533,169.75572322829976 58.696006960977684,169.8316572963522 59.002640704806254,169.94923214102164 59.3218758353687,170.0864020459594 59.655812583776424,170.21377338007005 59.954045403108466,170.34359344899713 60.24597752907721,170.40237965823144 60.61351797544921,170.58853501255908 60.97685795956204,170.76979011789263 61.30239378348779,170.93634762473448 61.5733235982334,171.0637143295753 61.804349021665985,171.19597901965426 62.06687791192235,171.33559093655822 62.33150703331194,171.4605061557595 62.58983546133095,171.59031930408673 62.82086088474898,171.70298673555044 63.0938909306351,171.84994343921062 63.37112143874401,172.00914549286426 63.637850791245,172.14140483643314 63.92138199272449,172.2859095605836 64.24271735440561,172.45000706308383 64.52414832476643,172.60185745774834 64.79297790839337,172.73166427166143 65.06810818538361,172.88106367526962 65.37264169808623,173.03536041834923 65.65407266844704,173.17006309211865 65.95230548777909,173.31701057885766 66.25053830711113,173.4688553453998 66.5340695085979,173.61580095524005 66.76719516314915,173.738254925016 67.00242104882636,173.85336107216972 67.28595225030585,173.99295712901767 67.5715836829113,174.13989944686546 67.85931534662814,174.29663690197594 68.18275093943521,174.45582230503896 68.48518422101188,174.61255764367525 68.78761750259582,174.77908779052086 69.08164985968324,174.95296359072017 69.3777824478966,175.0925530867953 69.71801988966763,175.26642655754767 70.05405686920858,175.43540094609307 70.3648910752745,175.59702748026575 70.62531973441946,175.73661313407501 70.92985324710753,175.88599335000072 71.24908837766998,176.05006560300717 71.55782235261722,176.20189263321663 71.84135355409671,176.3390258783329 72.16268891577784,176.53982668024582 72.37481225911324,176.71368939742752 72.4126164193076,176.75776706414763 72.6562432294595,176.91203824389413 72.93557396870892,177.16915461694407 73.16029869876365,177.40178128238767 73.37242204209906,177.62216230626655 73.56984376757464,177.80581157436245 73.80086919099995,178.04577777974373 74.07809969911614,178.32981623111482 74.34692928274308,178.6040569826273 74.62205955973332,178.89298572723055 74.882488218871,179.1574258593282 75.13451595351944,179.41696604720528 75.38444345705648,179.66670954909569 75.63647119171219,179.91400196011273 75.87589753961947,180.15884335795454 76.10692296305206,180.38899193722864 76.32744723086944,180.63138001614243 76.53537011195294,180.83459233033136 76.68028605937434,180.97659506929267 76.72019045069464,181.00842315125556 76.7495936864143,181.03290626178568 76.84620431801886,181.1308384478998 77.03522511901247,181.32914987025651 77.14233690623223,181.42952908577718 77.32925747609988,181.63028622589627 77.50777712147828,181.82614519167691 77.74090277602954,182.06607019224612 77.950925888239,182.2839591342672 78.08534068005247,182.3990232631786 78.29956425449927,182.58997950604498 78.54319106466573,182.85437788721356 78.7826174125803,183.10163663524145 79.02834445386543,183.3537889076324 79.28037218851387,183.6206267054131 79.35178004666523,183.7185480705357 79.45679160277359,183.8164690262729 79.64371217263397,183.9878297137493 79.86213620933995,184.20080482084813 80.08686093939468,184.4235698148441 80.29478382047819,184.65122855388654 80.35569052301435,184.7711768919944 80.43339907454356,184.8323747870527 80.51950855054747,185.02086329929625 80.63502126226376,185.17997579794064 80.77363651631458,185.32684791440806 80.72953166275693,185.37825293762944 80.60351779542543,185.54960220037356 80.48590485258319,185.69891982168883 80.42919861229166,185.79193687518637 80.35569052301435,185.97796987425136" stroke="red" stroke-dasharray="none" stroke-linecap="round" stroke-linejoin="round" stroke-width="0.5"><title>2024-05-01 52.5km</title><desc>1714541844000</desc></polyline><polyline fill="none" opacity="1" points="186.0,148.29344704628602 185.80139523695107,148.32854156268968 185.528891027192,148.3676853326342 185.24137599230744,148.3730844639049 184.97810921337805,148.3730844639049 184.815299494825,148.37038489855513 184.58667308155418,148.37848359289 184.28530190041056,148.38118315653173 184.01857108491822,148.37848359289 183.74722155401105,148.3933311858391 183.49088284821482,148.40142986563023 183.21145056531532,148.39468096616383 182.94933846523782,148.35823684742263 182.72879480394477,148.34068964205926 182.4401250902083,148.356887063248 182.2057252826562,148.44732228746216 181.9932643733482,148.4675688917432 181.77964878518833,148.4662191191219 181.65840750541975,148.19356212573985 181.58104402213212,148.00728816052379 181.49213375030376,147.80211369281824 181.41823430358636,147.58478714269313 181.33394274717284,147.38770521069 181.28891027183272,147.25946533408114 181.17921578061214,146.9908323661648 181.08222275679873,146.7545926746334 180.9806110175632,146.5291484367217 180.68616790955275,145.72588661149075 180.51065672359982,145.74343740985023 180.39980755352735,145.51122489485078 180.34322828963195,145.4383200945722 180.1688717825382,145.60708057279953 179.94024536926008,145.6057304978267 179.76819821987738,145.53147615437865 179.63541015155351,145.5071746390904 179.35020447438728,145.51122489485078 179.1723839307233,145.5490272199877 178.92181861920108,145.6327319701859 178.78094779889943,145.6853846770482 178.6227567957685,145.7380371667714 178.35140726485406,145.83389114188958 178.08698580707278,145.93379451911187 177.96805388501525,146.0012963585068 177.7659850853961,146.1119986026024 177.6805388501307,146.16464933312545 177.41265335578646,146.3023502173446 177.28101996632176,146.33475020959304 177.02929997594765,146.41304985146235 176.85609814770578,146.46164938769107 176.58128458022838,146.54939808185827 176.4150108251124,146.6074468866227 176.22679817175958,146.75864253473264 175.97623286023736,146.9179360132448 175.8203512148175,146.97193335165503 175.61597305749456,147.06102846090653 175.33538609574316,147.18117088163035 175.1148424344501,147.28106371925787 174.93124849651213,147.37420633694273 174.73379841232236,147.46194876126538 174.5940822708726,147.53484200924686 174.35852778446133,147.71302375302093 174.1368294443164,147.8682558219698 174.00288669714064,147.93304777967842 173.72807312966324,148.0302351000355 173.53293240317726,148.1058247268893 173.3123887418842,148.14901859855308 173.00524416646658,148.21110953319476 172.85282655761694,148.21650873064027 172.57570363242849,148.23000671427053 172.31936492663226,148.1557676278071 172.16117392350134,148.10717453758753 171.94178494106745,147.96679346082146 171.72470531633735,147.79941400680218 171.52610055328842,147.98839064997355 171.31248496512126,148.10447491604828 171.11849891748716,148.18951272059257 170.83098388260987,148.29209725526744 170.53538609574753,148.4000800860249 170.2975222516252,148.4810666101057 170.15665143132355,148.54315593087995 169.96266538368945,148.65113663958073 169.78022612461064,148.70782614629752 169.5238874188144,148.7361708053295 169.2964156843882,148.79151019647907 169.1809477988936,148.8036578356241 168.96040413760056,148.8711445094341 168.71099350493023,148.99936820759376 168.50777002646646,149.11679299180832 168.21679095501167,149.25041298527867 168.09208563868015,149.3313941194383 167.8426750060171,149.45286485836186 167.5851816213617,149.60672613665793 167.4015876834237,149.72144605957237 167.28265576137346,149.7835293530752 167.0124609093109,149.84966122525384 166.70762569160433,149.94683396755863 166.4455135915341,150.0237618645242 166.21342314169306,150.0817948838694 165.94669232620072,150.16546993620705 165.67996151070838,150.30042854362182 165.405147943231,150.44213354759995 165.27466923261818,150.49746555119236 165.04257878277713,150.6000315584315 164.8266538369062,150.69719859552606 164.6419052201163,150.76602479986468 164.46292999760044,150.85239441428712 164.4075054125642,150.8766857631881 164.2839547750773,150.91312269997889 164.05879239836213,151.02918039892302 163.8197738753879,151.16008142272312 163.57729131585802,151.28693268229927 163.32903536204685,151.42187944889974 163.08193408708757,151.55007755767565 162.9260524416677,151.62024860961264 162.6985807072415,151.7309021781557 162.51729612701456,151.82536178376267 162.28982439258834,151.93196535751576 162.18590329564904,151.71740789180694 162.07043541015446,151.47990612055582 161.9434207361046,151.25994315802654 161.84296367572824,151.11824722066194 161.69862881886365,150.915821728202 161.57392350252485,150.72283977379357 161.48847726726672,150.6135270244231 161.28756314650673,150.71609210028964 161.0600914120805,150.8429477661357 160.90882848208275,150.91312269997889 160.63516959345725,151.0048893398316 160.37190281453513,150.99139428705348 160.22294924224116,150.9333653977592 159.95159971133398,150.76602479986468 159.62367091652413,150.65536287844407 159.29920615829178,150.6040801997242 159.02670194852544,150.5784387832 158.75881645417394,150.55144776286306 158.51402453692572,150.4880186407081 158.34082270868385,150.48127084322732 158.14683666105702,150.45427961768564 157.88356988212763,150.43268659621572 157.60760163579835,150.40299613212028 157.3304787106099,150.3800534535294 157.0556651431325,150.35306201422554 156.81318258359534,150.32337136515162 156.57531873948028,150.30717643658772 156.328217464521,150.32472094160676 156.10305508780584,150.4299874659655 156.00375270628138,150.39624828974866 155.8940582150608,150.22080313762217 155.76011546788504,150.0035177260106 155.63771950926457,149.81187162591414 155.54649987972516,149.66880998751276 155.42872263651952,149.48120786462096 155.33172961269884,149.30844951686686 155.18739475583425,149.10194623960615 155.02458503729576,148.8481990803366 154.87909550156473,148.62279179188772 154.76016357949993,148.43247475726275 154.5765696415765,148.43922363676757 154.43685350011947,148.52290944639117 154.23247534279653,148.62954057085426 154.0050036083776,148.72672259263618 153.85374067837256,148.79016045808203 153.6158768342575,148.89274016976833 153.36415684387612,148.9926196239794 153.11705556892412,149.12084210305056 153.0443108010586,149.16268284407943 152.87226365166862,149.23826577088766 152.64132788068673,149.3313941194383 152.44156843877863,149.40292702769693 152.21756074091536,149.4839071952738 152.09862881885783,149.51225013267685 151.74876112581842,149.92524008867713 151.59287948039855,149.9805743302568 150.79846042819554,149.92119123232897 150.62525859995367,149.93063856182107 150.3827760404165,149.97247665133364 150.0964156843911,150.0170138219155 149.84123165744677,150.04670518273997 149.60105845562066,150.069648459762 149.3758960789055,150.0817948838694 149.13803223478317,150.09529089710395 148.89554967525328,150.0939412964226 148.57570363242849,150.10473809789528 148.41751262930484,150.11688448864516 148.2431561222038,150.11148609417978 147.92331007938628,150.11148609417978 147.6196295405316,150.12768127073377 147.30209285542514,150.12363247851954 146.97647341833363,150.10878689609672 146.67510223719,150.1060876974352 146.39220591772755,150.1060876974352 146.10584556170215,150.10203889838067 145.8217945633951,150.09933969830217 145.54005292278453,150.09933969830217 145.26523935530713,150.1033884982071 145.00659129179985,150.09933969830217 144.7306230454633,150.10473809789528 144.46735626654117,150.09799009804556 144.18445994707872,150.09933969830217 143.95467885494145,150.09259169559937 143.75145537647768,150.09799009804556 143.4350733702231,150.10068929841327 143.14293961991643,150.10473809789528 142.8646620158761,150.10743729683782 142.59100312725786,150.10743729683782 142.35660331969848,150.10473809789528 142.199566995434,150.09799009804556 141.88318498917215,150.10068929841327 141.61299013711687,150.10473809789528 141.32778445995064,150.10203889838067 141.12109694491664,150.1101364952101 140.89477988934232,150.10203889838067 140.5737791676729,150.1060876974352 140.2955015636253,150.1155348902421 140.0726485446212,150.11148609417978 139.76896800578106,150.1155348902421 139.46644214577827,150.1155348902421 139.19278325716004,150.11688448864516 138.94221794563055,150.1155348902421 138.68934327640454,150.1155348902421 138.4237671397641,150.1209332829967 138.20206879961916,150.12228288083043 137.94111137840082,150.11958368502292 137.63165744527214,150.12228288083043 137.39610295886814,150.1317300616647 137.1466923261978,150.12768127073377 136.83031031994324,150.12228288083043 136.51508299254056,150.1209332829967 136.39384171277197,150.1330796583552 136.0532114505695,150.1330796583552 135.8419052201134,150.13442925490745 135.6409910993534,150.1330796583552 135.30267019485473,150.13442925490745 135.02323791195522,150.12768127073377 134.7484243444851,150.1303804648287 134.48400288669654,150.1330796583552 134.20918931921915,150.1452260221713 133.94361318258598,150.14387642676138 133.67688236708636,150.1452260221713 133.4725042097707,150.15332359163222 133.22309357710037,150.15602278031383 132.94366129420087,150.1492748075425 132.69771469810075,150.1492748075425 132.48409910994087,150.15062440238034 132.1850372865083,150.15467318604624 131.9113783978828,150.15467318604624 131.81554005292128,150.16007156226533 131.77166225644032,149.97922471745733 131.65157565552363,149.94818358377597 131.3732980514833,149.93873626725417 131.1608371421753,149.91579275519416 130.9714698099633,149.92254085125478 130.68164541737497,149.91444313555712 130.39643974019418,149.90634541472718 130.12509020929429,149.88610109020829 129.84912196295772,149.86990560749928 129.57777243204328,149.86045823311088 129.29256675486977,149.86315748364723 129.01082511426648,149.87260485604202 128.7348568679372,149.88205222145461 128.47967284099286,149.89014995767775 128.20947798893758,149.894198823863 127.94967524657113,149.90094693132596 127.70834736589313,149.9090446555756 127.48087563146692,149.9130935157773 127.36425306712044,149.91849199404896 127.08135674765799,149.9265897071782 126.80538850132143,149.93468741517609 126.67144575415296,149.96842780994757 126.67029107529379,150.2761360994673 126.6575896078939,150.5527973152357 126.64257878277567,150.8348506335924 126.59639162857638,151.07506338459825 126.55944190522132,151.2302546155097 126.43358191003063,151.50419627699284 126.30194852056593,151.78218033637222 126.18070724079735,152.04261622807098 126.06292999759899,152.31384175038147 125.99364926630369,152.5999042261301 125.9948039451483,152.8805630769166 126.05484724560665,153.24352139856273 126.10911715179827,153.54305545167244 126.15645898484217,153.80885231773573 126.08948761126521,154.00988282675007 125.81351936492865,154.0449616521937 125.54101515516231,154.08543710046797 125.27774837623292,154.1205157186996 125.06528746692493,154.15694341272683 124.97868655280035,154.1677367836237 124.73043059899646,154.20011684167366 124.50642290113319,154.24463928765817 124.25585758960369,154.2702733529204 124.14500841953122,154.2662258723485 124.13115227327944,154.26892419287014 124.35285061342438,154.27566999169449 124.61380803464272,154.22844932523185 124.87361077700189,154.18932349809984 125.0895357228801,154.16099092788136 125.27890305509209,154.13670581774022 125.53408708202915,154.09892888809372 125.8054366129436,154.05845348251842 125.98094779889652,154.03416817769084 125.96362761607452,153.90599497165204 125.90473899446806,153.65908928069985 125.85855184026877,153.47154570713792 125.81813808034349,153.30153980354044 125.76271349530725,153.0977995926787 125.69112340630818,152.80365236998387 125.63338946355361,152.539183952661 125.5756555208136,152.2774088058004 125.53870579745126,152.11413396415628 125.46480635073385,151.84560303702438 125.34818378638738,151.6256463668824 125.21308636035974,151.3935407460849 125.16228049074562,151.12364518991217 125.20038489295257,150.915821728202 125.26966562425514,150.6796546018095 125.33432764012832,150.45158049200018 125.40822708684573,150.19381136198263 125.47057974501513,149.97787510451963 125.52600433005136,149.77543154928753 125.4059177291274,149.65396387670535 125.15304305990139,149.59053029986808 124.90594178494212,149.5270964081319 124.63228289632389,149.45556419500008 124.37709886937955,149.3934793080498 124.11845080587227,149.3286947565648 123.877122925187,149.266609253169 123.68313687756017,149.21937008109944 123.40485927351256,149.14378704251794 123.14390185229422,149.07090297471677 122.93952369497856,149.01826422273825 122.68087563147128,148.9507783260333 122.39797931200883,148.87789315720784 122.14510464276827,148.8144557273872 121.86105364445393,148.7415697808683 121.62434447919077,148.6902794210955 121.39802742362372,148.6268410596931 121.15900890065677,148.48376615206416 120.99042578782974,148.31909304852707 120.7987490979067,148.13147110580667 120.60014433485776,147.9357474374483 120.41770507577894,147.7629681897415 120.21794563387812,147.61448415647737 119.93620399326028,147.52809265190717 119.67524657204922,147.54564097356615 119.5170555689183,147.59693592940403 119.29997594418819,147.74407031773535 119.06673081549525,147.9438464073437 118.84965119076514,148.10447491604828 118.61756074092409,148.21110953319476 118.37392350252776,148.2758997519295 118.1372143372646,148.30154578939892 117.92937214337144,148.30829473806716 117.76309838827001,148.3163934717668 117.5021409670444,148.3366402835536 117.24580226124817,148.35418749448127 117.0044743805629,148.37173468130277 116.74467163820373,148.39063162477214 116.48486889584456,148.4108783188958 116.27818138081057,148.41897698756384 116.02646139042918,148.44327296275605 115.75395718066284,148.4662191191219 115.51378397883673,148.4905150044724 115.26552802501828,148.5121113082132 115.01380803464417,148.52290944639117 114.75746932884067,148.57015119361768 114.51614144816267,148.68083117446986 114.31522732740268,148.8441498826851 114.15703632427176,149.046608193059 114.07620880442846,149.2099222257284 114.02309357710328,149.4042767013625 114.00115467885917,149.69985179982814 114.02309357710328,149.99811928365398 114.04503247534012,150.28423358598138 114.06697137359151,150.57708923353857 114.08775559297646,150.8442972877274 114.11200384893164,151.12364518991217 114.13278806831659,151.41783106663115 114.15241760885692,151.73225160600578 114.15241760885692,152.02642347756864 114.15010825113859,152.2828062856206 114.12816935290175,152.60530156981713 114.10507577580574,152.90889848391544 114.08775559297646,153.18145490647294 114.06581669473235,153.4634502391682 114.04618715419929,153.73194719344428 114.02424825595517,154.02607306583468 114.0334856867994,154.3120972438528" stroke="red" stroke-dasharray="none" stroke-linecap="round" stroke-linejoin="round" stroke-width="0.5"><title>2024-04-21 79.4km</title><desc>1713660889000</desc></polyline><polyline fill="none" opacity="1" points="19.289546096901176,194.27266139814128 19.58881796867354,194.40778442399642 20.251343974436168,194.1375375724856 20.451546536933165,194.78902007831857 20.56506345381058,195.44772237736288 20.649685155476618,196.09675477313067 20.635237547881843,196.4755495416266 21.200758188322652,196.38869269772476 21.822005315232673,196.4152323239632 21.968545335192175,196.70957883780466 21.9540977275974,197.27895968652228 21.708488398355257,197.5298687745053 21.83026109099592,197.33444943378345 21.968545335192175,196.85192538092815 21.615610920904146,196.2897720008641 21.857092362261028,196.17637457727142 22.240985935706703,196.050912941766 22.849849398953666,195.78551105661973 23.563974003300245,195.4959782089354 24.13568647557986,195.32225673795438 24.91172939822718,195.12440567493286 25.442162991632358,195.01824098305406 25.623790058634768,195.7444941264148 25.788905574096134,196.41281963194524 25.960212921381753,197.0352857220587 26.195502530907106,197.71804878143303 26.44317580408824,198.43939111111104 26.68052935756714,199.17036026519418 26.961225733837637,199.95196476885212 27.19651534336299,200.64428963283353 27.402909737698792,201.2425186112814 27.687734001847275,202.06988207177528 27.925087555326172,202.75490669782448 28.100522790497052,203.29278136049834 28.294533521155245,203.840290997412 28.488544251820713,204.46979027340421 28.723833861346066,205.11856640431506 28.95912347087142,205.82761665490034 29.202668856181845,206.51252866748473 29.42351085809787,207.16124682843474 29.654672579737962,207.82441551344345 29.86932274983701,208.47068503590708 30.0426940410689,208.96743202991456 30.635045952760265,208.73835101897566 31.181991097713762,208.67324336550155 31.54111734383332,209.31948889980958 31.875476262641314,209.90302328232792 32.10044615244988,210.48172036289543 32.282073219452286,211.17854866766538 32.54832198812801,211.78132419558824 32.82901836439851,212.5166888321928 33.16956911503803,213.32435717982116 33.35119618204044,213.78001420533838 33.63395650224993,214.47192048658871 33.836223008693196,214.99023378586753 34.034361627243925,215.57603422075954 34.21392475030734,216.21244239163207 34.447150415886426,216.93561201663215 34.696887633021106,217.71419910595432 34.90534597127407,218.52409441883538 35.0518859912554,219.09534263201567 35.084909094344766,219.74129390580492 35.12618797321193,220.38722695812612 35.16746685207181,220.89576590813158 35.303687152329076,221.78748941228332 35.40894829342869,222.46951395801807 35.51420943453559,223.1105503176932 35.605022968033154,223.84555113567694 35.666941286333895,224.32509633469272 35.70615622124751,224.9925872644635 35.77220242743351,225.6745164005606 35.8341207457197,226.4238921529959 35.88159145642567,226.92988764406618 35.94557371867268,227.65753776606653 35.982724709640024,228.15627798314745 36.01574781273666,228.6525980540482 36.03019542033144,229.32478140590865 36.05909063553554,229.91021536374683 36.07353824314487,230.85940573299922 36.07766613103013,231.7651954347093 36.079730074976396,232.405971859871 36.12100895383628,232.92147072497391 36.14990416904766,233.67060963641052 36.16228783270344,234.46548912222534 36.11275317806576,235.01225386955048 36.1375205053846,235.38317936261956 36.89292398860562,235.45061971703035 37.64213563998783,235.51324272573947 38.360388132226944,235.55659701625518 38.967187651534914,235.6071769183127 39.737038742350705,235.6625738259445 40.36034981319972,235.74687321134115 41.06415469784406,235.77818433274297 41.739064367277024,235.83117228699666 42.43874136402883,235.89138572282354 43.12809864106384,235.94196488679154 43.70806688909943,235.98531836716393 44.26739569771598,236.03348880482918 44.91753803982283,236.0864761694429 45.456227409005805,236.12501235776108 46.00936438579083,236.1635484813487 46.1951193406785,236.6982305170277 46.17860778913018,237.53153893875424 46.16209623758914,238.3142432772529 46.16416018153541,238.89463141176384 46.145584686048096,239.60986133152073 46.1290731344925,240.64774794253935 46.108433695066196,241.58204656692214 46.08366636774008,242.42480910095946 45.844248870329466,243.20012331319958 45.51814572729927,243.746680023125 45.30968738903903,244.11264905105418 45.472738960554125,243.91281142309163 45.813289711179095,243.66963316882357 46.34785119247681,244.06931091795377 46.86383717828721,244.49305804316464 47.462380921817385,244.87827591802852 47.90819281354925,245.15033214935102 48.5067365570867,245.39108718854004 49.2002217219997,245.61017208115481 49.93085787790187,245.97370394091377 50.58306416396954,246.2072279947297 51.27654932888254,246.57315781992656 51.71204150089761,246.82593488727616 52.436485824975534,247.0642650033169 53.061860839756264,247.25203850488833 53.47464962840604,247.44462511740858 53.9287172959157,247.66369042659608 54.54790047888673,247.9573791023613 55.23725775591447,248.0970002709928 55.903911649569636,248.1234800520997 56.432281299028546,248.18606850428296 57.17323717464751,248.35216780081282 57.79448430155753,248.58326047688752 58.41573142847483,248.86008718551602 59.100960817617306,249.12728197612887 59.825405141680676,249.42335906133485 60.45078015647596,249.64240550670002 61.17109659266862,250.01068768122786 61.73248934521689,250.3043463625272 62.143214189913124,250.50653540461644 62.70047905459069,250.78815289201884 63.2948949102356,251.11068492066624 63.82945639152604,251.39229500590045 64.38878520014259,251.6666810011884 64.98939288761903,251.97235277074105 65.58380874326394,252.27320684257575 66.22156742171501,252.58849768452637 66.76025679089798,252.87249642059942 67.3546726465429,253.1685252670468 68.03164625992213,253.51509078056552 68.61161450795771,253.82073797462726 69.11521683010506,254.08787510812363 69.6497783113955,254.3598223353565 70.21117106395832,254.65342546558895 70.66111084357544,254.88445480140035 71.22456754006998,255.1684251801471 71.73642563798785,255.42592071244326 72.19049330549024,255.7700457542942 72.66313646850176,256.1213848902935 73.0945007526243,256.5641608147653 73.50935348521307,256.9708333660965 74.13885638789361,257.6181257330518 74.67548181312304,258.1619334935531 75.21210723836703,258.7057283992708 75.684750401364,259.1773277331795 76.10166707789176,259.6368871720879 76.43808994063875,259.95207708274575 76.64035644707474,260.13252737815674 76.9705874779902,260.5271070937979 77.07791256303608,260.6738697738965 77.46593402435974,261.0203222239379 77.85808337356139,261.3715811886814 78.36581358360127,261.891242152853 78.97054915896297,262.514338672976 79.42874471437244,262.9714257804608 79.90138787735486,263.4621828862437 80.05824761703843,263.7099631363599 80.16970058996958,263.9312791630582 80.35132765698654,264.10688710508657 80.58868121044361,264.34503820140344 80.63408797719603,264.4965876163769 80.70632601520629,264.6962464338303 80.57216965890257,264.8718485409463 80.4731003496272,265.0666931470769 80.33894399332348,265.39624138230465 80.28528145080054,265.6872983098292 80.16350875814533,265.9831623248592 80.23161890827032,265.73059572021884 80.32862427359942,265.4130794866451 80.22749102039234,265.1797503724356 80.53708261186694,264.66497468522175 80.61138459382346,264.3979603326916 80.5308907800354,264.2488158328306 80.30385694628785,264.0250972713493 80.415309919219,263.7460474163254 80.36990315246658,263.6353887785317 80.0025211305765,263.3827964167267 79.55670923884463,262.92090607265163 79.22647820792918,262.5985396116539 78.7270037736671,262.0885177795062 78.26055244250165,261.61457226676976 77.85808337356139,261.2007641426262 77.35241710748232,260.7171766153933 76.91692493546725,260.2648566954049 76.50620009076374,259.836588151009 76.10992285366228,259.4347783925368 75.75079660755,259.0786776516834 75.30704865975713,258.62632551977003 74.83646944069915,258.14990248746835 74.40097726868407,257.71196958298606 73.95516537695221,257.26199687061126 73.59397518689366,256.90345616223567 73.25961626808567,256.5569417104434 72.80761254452227,256.1093528168658 72.36799248462194,255.6858198213704 72.05220906130853,255.46923743456864 71.4433455980543,255.1299209275112 70.7498604331413,254.75450108561017 70.0997180910199,254.44164653533517 69.49085462777293,254.12638110567786 68.92946187521738,253.83758455221505 68.277255589157,253.52953089692892 67.63949691070593,253.19740592604467 67.19368501896679,252.96154614924671 66.48575224643719,252.61256551008773 65.8397377922156,252.2804272919184 65.25976954418002,251.96513222463 64.64265030514798,251.65464659638928 64.05442628134188,251.34415677427023 63.48064986511599,251.050511378151 62.91306528074347,250.77611802723914 62.28769026594091,250.44876728837517 61.69533835423499,250.16714564237554 61.12362588196993,249.86385693345983 60.51889030660823,249.558157120955 60.05450291938905,249.30781723804284 59.495174110772496,249.0285887666705 58.942037133994745,248.73972815675734 58.43017903607688,248.48456493081903 57.864658395628794,248.20051196903478 57.61904906639393,248.19810472554127 57.3094574748975,248.35938948211697 56.70678584348934,248.2414350698691 56.213503241066064,248.13551630613438 55.54065751557209,248.09218576206695 54.83478868698876,248.03441157618 54.35388974822126,247.8394226263099 53.99476350209443,247.6660977260799 53.41892314193683,247.38925663166447 52.86785010909807,247.1701887057152 52.31884102020558,247.00648823252413 51.82555841777503,246.85482351787323 51.43753695645137,246.650194935115 50.808034053770825,246.2866737811164 50.21981002995744,246.0675953407008 49.699696156269056,245.83166237589649 49.16307073102507,245.5716518118861 48.578974595089676,245.4079399467755 48.05266888956976,245.23459670012198 47.82976294371474,244.96735663178515 47.49334008096048,244.85660758406084 47.02276086191705,244.58936311761136 46.58107685806317,244.20414039679417 46.18479962096171,243.93688833787564 45.71834828979627,243.59740150815742 45.466547128722596,243.83094972402796 45.074397779513674,243.90799603711275 44.56253968159581,243.59258605602554 44.108472014086146,243.260317420898 43.660596178408014,242.93045177378008 43.198272735135106,242.56927957226435 42.7132459084678,242.2442197335131 42.27362584856746,241.85414185226 41.82987790077459,241.58445450394356 41.382002065103734,241.34847547545724 40.92174256576254,241.1269419352193 40.482122505847656,240.97523838643247 40.04250244594732,240.8259418517464 39.58017900267441,240.67905237808736 39.136431054874265,240.55865046922918 38.70300282680546,240.44547209908342 38.33149291702284,240.37804642185802 37.68754240674025,240.36600610150708 37.11582993447519,240.33229317094083 36.53379774247878,240.3082124759312 35.941445830772864,240.2769075346623 35.91874244740029,239.85789882615973 35.92699822317809,239.4533314360051 35.929062167109805,239.08487992982919 35.941445830772864,238.50449660646882 35.96002132626745,237.99153149199628 35.96827710204525,237.49059674630735 36.011619924844126,236.96315844093078 36.054962747657555,236.47183513999153 36.1003695144027,235.94678194421613 36.1375205053846,235.53010273734435 36.18499121608329,235.01707112219265 36.220078263111645,234.52088878687027 36.22833403888217,234.02710444881086 36.19737487973907,233.5164480014555 36.182927272129746,232.98410063881602 36.17054360846669,232.62758961433428 36.16847966453497,232.12653772559497 36.1664157205887,231.5532053073457 36.16435177664971,230.92685939066723 36.15609600087919,230.34867874270458 36.13958444931632,229.84757705364973 36.12926472961408,229.46451597225496 36.10656134623423,228.7489696374396 36.090049794693186,228.31047566076268 36.03638725216297,227.7442759746882 35.98685259753984,227.1467394346655 35.94557371867268,226.66243427643167 35.89191117613518,226.0552312600321 35.844440465451044,225.43837362576414 35.801097642637615,224.94198394017985 35.74124326828314,224.32268658490648 35.68758072575292,223.72265100144614 35.619470575635205,223.2021254761239 35.55548831339547,222.76352534252146 35.48737816327048,222.34419648313633 35.40275646158989,221.85014975838203 35.31607081598486,221.31030115289832 35.239704890082066,220.71259678185925 35.19842601122218,220.22333522208828 35.16540290812554,219.69067897891364 35.11586825348786,219.12185591606612 34.998223448725184,218.52409441883538 34.87438681213098,218.03960691593784 34.72371890427894,217.4972579962432 34.56273127671011,217.00310668259226 34.39761576125602,216.494481263122 34.263459404945024,216.06780572481694 34.127239104695036,215.51094602399644 33.9311644300833,214.99023378586753 33.72270609181578,214.445401816065 33.516311697501806,213.98011468786535 33.39453900484659,213.58955549416532 33.16131333926751,213.07362140118676 32.95079105705372,212.56249765041866 32.74026877483993,212.02966309329713 32.531810436586966,211.51128272299502 32.32747998620471,211.11585910091162 31.83832527166669,211.35214964819534 31.318211397971027,211.54262698602543 30.804289356114168,211.66559252623483 30.67426088769571,211.06281394870166 30.54629636320169,210.49618760231715 30.44309916604834,209.99947381256243 30.296559146081563,209.4328211225984 30.12937968667393,208.9409069776957 29.974583890943904,208.5044448821045 29.817724151260336,208.05350568021822 29.627841308472853,207.4868047682303 29.45240607330925,206.97073299507065 29.25426745475852,206.3943586934438 29.070576443802565,205.85414531908464 28.88894937680743,205.3115074261059 28.707322309805022,204.79538654425232 28.511247635193286,204.21654552272048 28.348196063685464,203.74140256220926 28.164505052736786,203.22042227739985 27.98700587361236,202.7090782264877 27.826018246050808,202.2266676892359 27.654710898765188,201.73701057886865 27.442124672612408,201.11467260535755 27.281137045036303,200.63946514191593 27.109829697765235,200.1353002246815 26.928202630740998,199.60700064598677 26.783726554727764,199.16071065975484 26.610355263495876,198.6734002837111 26.395705093404104,198.05580387916962 26.220269858225947,197.51539332512766 26.01387546389742,196.92430463883102 25.863207556052657,196.35732764511886 25.73730697551946,195.82894066710833 25.592830899491673,195.29330303094866 25.54329624485399,194.84934159216573 25.08922857734433,194.9265528973301 24.474173282265838,195.1026902099402 23.91690841759555,195.26193647358923 23.448393142491113,195.42842001617464 22.847785455014673,195.64074509171405 22.34418313286733,195.84341718558062 22.009824214059336,195.9761181772301 22.018079989837133,195.9833563909615 21.733255725666822,196.09192932152473 21.09962493510102,196.2415178468891 20.699219810121576,196.0557384020358 20.649685155476618,195.57801288853443 20.58363894930517,195.18231348060908 20.476313864252006,194.52842930696715 20.309134404851648,194.00482589376406 19.853002793402993,194.24611928123159 19.34940047125565,194.29679056856548" stroke="red" stroke-dasharray="none" stroke-linecap="round" stroke-linejoin="round" stroke-width="0.5"><title>2024-04-05 108.1km</title><desc>1712276378000</desc></polyline></svg>