<?xml version="1.0" encoding="utf-8" ?>
<svg baseProfile="full" height="300mm" version="1.1" viewBox="0,0,200,300" width="200mm" xmlns="http://www.w3.org/2000/svg" xmlns:ev="http://www.w3.org/2001/xml-events" xmlns:xlink="http://www.w3.org/1999/xlink"><defs /><rect fill="#222222" height="300" width="200" x="0" y="0" /><text fill="#FFFFFF" style="font-size:12px; font-family:Arial; font-weight:bold;" x="10" y="20">Over 10km Runs</text><text fill="#FFFFFF" style="font-size:4px; font-family:Arial" x="10" y="280">Runner</text><text fill="#FFFFFF" style="font-size:9px; font-family:Arial" x="10" y="290">yihong0618</text><text fill="#FFFFFF" style="font-size:4px; font-family:Arial" x="65" y="280">SPECIAL TRACKS</text><rect fill="yellow" height="2.6" width="2.6" x="65" y="283" /><text fill="#FFFFFF" style="font-size:3px; font-family:Arial" x="70" y="285.5">Over 20.0 km</text><rect fill="red" height="2.6" width="2.6" x="65" y="287" /><text fill="#FFFFFF" style="font-size:3px; font-family:Arial" x="70" y="289.5">Over 40.0 km</text><text fill="#FFFFFF" style="font-size:4px; font-family:Arial" x="120" y="280">STATISTICS</text><text fill="#FFFFFF" style="font-size:3px; font-family:Arial" x="120" y="285">Number: 5</text><text fill="#FFFFFF" style="font-size:3px; font-family:Arial" x="120" y="290">Weekly: 1.2</text><text fill="#FFFFFF" style="font-size:3px; font-family:Arial" x="141" y="285">Total: 317.5 km</text><text fill="#FFFFFF" style="font-size:3px; font-family:Arial" x="141" y="290">Avg: 63.5 km</text><text fill="#FFFFFF" style="font-size:3px; font-family:Arial" x="167" y="285">Min: 18.7 km</text><text fill="#FFFFFF" style="font-size:3px; font-family:Arial" x="167" y="290">Max: 108.1 km</text><polyline fill="none" opacity="1" points="73.6772954283515,35.511995186287095 73.94006915099453,35.94855012734479 74.14752208988648,36.546790060107014 74.34114483284065,37.19353330160084 74.47944679216016,37.71092592606146 74.59008835954592,38.098969246057095 74.67306953511434,38.66486398992129 74.78371110250009,39.23075664040516 74.89435266994406,39.796647197625134 75.01882443332579,40.41104028960399 75.08797541295644,40.96075833302166 75.18478678446263,41.49430630968709 75.29542835184839,42.027852425555466 75.3784095274168,42.57756465932471 75.46139070298523,43.17577866940701 75.57203227042919,43.80632603977574 75.68267383793136,44.48537414766906 75.80714560119668,45.22909004589019 75.91778716864064,45.924299464109936 76.00076834420906,46.63567327315104 75.90395697270287,46.86201879147848 76.12524010753259,47.46021604951238 76.18056089128368,48.349423867533915 76.24971187085612,49.25479379091121 76.31886285054497,49.98231931150076 76.3050326546072,50.27332855116401 76.20822128310101,50.40266581335163 76.20822128310101,50.96851504998631 76.42950441798894,51.61519732953457 76.56780637725024,52.4235463355144 76.78908951207995,53.19955736378324 76.98271225509234,54.08873182882962 77.17633499810472,54.94556778849801 77.19016519392608,55.59223326043866 77.52208989625797,55.94789810516522 77.79869381478056,56.5783928437595 78.07529773336137,57.24121784487215 78.31041106412886,57.80704179390159 78.36573184782173,58.38902995880926 77.88167499040719,58.63152437424287 77.28697656549048,58.79318710445659 76.62312716094311,59.03568087948952 75.93161736457841,59.27817427026457 75.28159815591061,59.520667276810855 74.79754129849607,59.6823290677421 74.7422205148032,59.876322991374764 74.72839031886542,60.40980501341983 75.00499423744623,61.13727750098042 75.28159815591061,61.897078407142544 75.4752208989812,62.656875541099 75.76565501338337,63.40050312603125 76.41567422205117,63.83697850396857 76.83058009983506,64.4027780671604 77.16250480210874,65.14639716915553 77.49442950444063,65.87384714242944 77.84018440259388,66.56896277528722 78.15827890892979,67.26407525126706 78.46254321932793,67.94301927316701 78.79446792165982,68.63812550880539 79.09873223205796,69.34939373801171 79.43065693427343,70.02832850988489 79.74875144060934,70.70726027025376 80.06684594694525,71.38618901919108 80.39877064921893,72.06511475669686 80.71686515555484,72.76020227305708 81.03495966194896,73.48761606133485 81.35305416828487,74.18269711814355 81.65731847868301,74.82928131421795 82.09988474834245,75.26572410261724 82.37648866692325,75.86381034721853 82.55628121393966,76.26792135182768 82.61160199769074,76.7366887806129 82.05839416058734,76.99531847170147 81.46369573567063,77.23778341030993 80.77218593924772,77.54490511446784 80.01152516325237,77.94901168126671 79.25086438719882,78.30462457760586 78.39339223969728,78.6925649769546 77.66039185546106,79.16132498119259 77.28697656549048,79.32296602918359 76.63695735682268,79.64624761305458 75.86246638494777,79.98569254144968 75.18478678446263,80.32513671716151 74.57625816366635,80.61608826873999 73.76027660391992,81.00402281071001 72.9857856319286,81.3757924909878 72.30810603144346,81.69906974001788 71.6442566269543,81.99001868047344 71.3676527083735,82.13549294335826 70.78678447945276,82.39411351385934 70.21974644635338,82.70122487384651 69.65270841337042,83.05682673158299 68.98885900882306,83.5094097195688 68.25585862464504,84.0428093807277 67.52285824046703,84.57620718353428 66.85900883597787,85.028785680086 66.22281982324785,85.43287249296554 65.58663081063423,85.82079482999688 65.01959277753485,86.11173593773856 65.00576258159708,86.11173593773856 64.7706492508878,86.19255281399819 64.18978102185065,86.54814656275266 63.49827122548595,86.83908628836798 62.806761429063044,87.0815356374078 62.12908182863612,87.3078213500994 61.34076066076523,87.59875963217928 60.63542066840455,87.85737097435049 59.999231655790936,88.05132919430616 59.16941990010673,88.3584292068117 58.3534383403603,88.64936549257254 57.49596619285876,88.94030122550612 56.749135612742975,89.21507335458591 55.974644640809856,89.48984499057406 55.11717249325011,89.76461613344145 54.35651171725476,90.0393867832754 53.69266231264919,90.21717929388979 53.111794083728455,90.41113452463469 52.77986938145477,90.50811204787169 52.22666154435137,90.76671847621037 51.59047253173776,90.97683587760548 50.87130234343931,91.23544151431997 50.110641567385755,91.5586979459913 49.308490203577094,91.78497704213078 48.4786784479511,92.07590681729198 47.64886669226689,92.36683603965503 46.874375720275566,92.69009008287685 46.12754514021799,92.99718079186277 45.32539377640933,93.23962039024627 44.550902804418,93.51438480436627 43.734921244729776,93.78914872549649 42.91893968498334,94.04774961265502 42.60084517864743,94.12856230030593 42.11678832117468,94.32251257673488 41.356127545121126,94.56495007677586 40.567806377250236,94.90436193205824 39.79331540531712,95.17912335912115 39.04648482520133,95.45388429317973 38.43795620434685,95.59934576453816 37.594314252841286,95.8741059446038 36.72301190934377,96.22967721054738 36.03150211297907,96.64989673312812 35.53361505956855,97.05395287892316 35.07721859391313,97.55498101908597 34.89742604683852,97.781251254768 34.399538993427996,98.21762862229662 33.7495197848184,98.65400474633498 32.93353822513018,98.928759445771 32.200537840952165,99.07421761650767 31.481367652711924,99.18735165377439 31.163273146376014,99.20351365224633 30.40261237032246,99.39745750121074 29.489819439069834,99.54291522680433 28.563196311995853,99.73685864591971 27.664233576681,99.88231604911562 26.79293123324169,100.02777331414109 25.949289281619713,100.17323044101067 25.091817134118173,100.30252554889012 24.206684594682883,100.44798241484386 23.349212447181344,100.59343914259807 22.643872454878874,100.72273389571637 21.81406069919467,100.85202853969531 20.94275835575536,100.99748488364276 20.126776796067134,101.12677929570782 19.28313484438695,101.22375003309571 18.467153284698725,101.38536779228889 17.63734152901452,101.54698538093362 16.793699577392545,101.6924410648644 16.019208605459426,101.82173489019624 15.189396849775221,101.95102860633051 14.442566269717645,102.06416051842098 14.124471763381734,102.12880728782329 14.138301959319506,102.12880728782329 14.56703803309938,102.45204072546039 14.857472147559747,103.0176975998038 15.064925086509902,103.42173694522353 15.313868613156956,103.7934522016003 15.57664233574178,104.3106197531597 15.618132923555095,104.66617143189069 15.72877449094085,104.95707673688594 15.922397233953234,105.34494961741439 15.784095274691936,105.08636780623056 15.618132923555095,104.68233285220049 15.50749135616934,104.32678121104254 15.313868613156956,103.97122874444176 15.230887437588535,103.7772906874452 15.078755282389466,103.43789849684981 14.78832116787089,102.98537440612563 14.580868228978943,102.58133390950388 14.843641951621976,102.43587906981702 15.631963119492866,102.29042409190151 16.309642719978,102.19345402989711 17.042643104097806,102.06416051842098 17.78947368421359,101.93486689780548 18.56396465614671,101.77324971846247 19.36611601995537,101.66011759148387 20.14060699188849,101.5631471304223 20.887437572004274,101.45001484818931 21.6619285439956,101.30455893398903 22.394928928115405,101.15910288164741 23.07260852860054,101.04597030098375 23.805608912778553,100.93283763674845 24.621590472583193,100.80354306101799 25.43757203227142,100.67424837608996 26.22589320014231,100.528791725068 26.986553976195864,100.41565867878671 27.73338455631165,100.28636366639694 28.452554744493682,100.15706854482414 29.15789473685436,100.04393522393366 29.890895121032372,99.96312565785774 30.48559354589088,99.84999219367455 30.831348444102332,99.88231604911562 31.301575105637312,99.78534446237609 31.785631963110063,99.67221086686186 32.35266999620944,99.57523914705962 33.03034959663637,99.44594342511846 33.777180176693946,99.18735165377439 34.46868997311685,98.84794929120108 34.96657702646917,98.44389787886757 35.38148290436948,98.03984540046076 35.741067998460494,97.55498101908597 36.18363426817814,97.10243954476027 36.72301190934377,96.74687030536006 37.45601229346357,96.43978711597447 38.202842873637564,96.22967721054738 38.94967345369514,95.92259298404679 39.73799462156603,95.63167051717755 40.567806377250236,95.35690990212606 41.41144832887221,95.06598636064155 42.241260084556416,94.77506226635887 43.07107184018241,94.48413761940901 43.817902420298196,94.24169999139849 44.62005378404865,93.9669368823379 45.380714560102206,93.69217328021477 46.113714944338426,93.41740918511641 46.777564348769374,93.17496986819606 47.48290434113005,92.94869282608852 48.20207452937029,92.70625276712235 48.935074913548306,92.44764961443434 49.66807529772632,92.1890460249997 50.41490587790031,91.93044199884753 50.912792931252625,91.8011398219387 51.31386861309875,91.68800032761646 51.7979254705715,91.5102095247712 52.005378409521654,91.42939545524132 52.475605071056634,91.30009285525011 53.0011525163427,91.08997589745559 53.72032270452473,90.83137001503201 54.46715328464052,90.54043787528644 55.21398386481451,90.26566812460078 55.946984248934314,89.99089788086712 56.69381482899189,89.71612714407092 57.426815213111695,89.4575189413008 58.159815597347915,89.19891030178405 58.72685363038909,89.0049535355356 59.25240107567515,88.81099652354897 59.515174798318185,88.73018102941569 60.19285439874511,88.5038974187919 60.842873607354704,88.26145032203931 61.465232424088754,88.05132919430616 62.018440261192154,87.84120777828502 62.58547829429153,87.64724929213116 63.221667306963354,87.43712732152198 63.91317710332805,87.17851526947925 64.60468689969275,86.87141289042484 64.96427199384198,86.70977981192118 65.55897041870048,86.40267649262387 66.16749903949676,85.99859223932435 66.803688052285,85.56218004782568 67.38455628120573,85.19042053325393 67.99308490206022,84.75400603812886 68.43565117171966,84.39840812240436 68.94736842100974,84.02664578196709 69.45908567035804,83.65488253871445 69.95697272376856,83.33160941954702 70.51018056087196,83.00833561777836 71.20169035723666,82.62040615464502 71.89320015365956,82.31329463253496 72.709181713406,81.94152722880244 73.49750288127689,81.58592278050492 74.32731463696109,81.19798971309501 75.01882443332579,80.84238353767432 75.64118325005984,80.55143241620681 76.34652324242052,80.21198874221591 77.10718401841586,79.8725443155854 77.8263542066561,79.5815913509141 78.57318478671368,79.24214552649937 79.32001536688767,78.91886308924586 79.91471379174618,78.61174414151174 80.66154437180376,78.27229616664408 81.35305416828487,77.96517592172313 81.97541298501892,77.64189078778145 82.69458317320095,77.27011203971051 83.5105647330056,76.88216803560499 84.27122550900094,76.59120938736305 84.68613138684304,76.39723664797202 85.14252785249846,76.13860594636935 85.80637725698762,75.81531695500598 85.9031886284356,75.3303821877198 85.15635804837802,75.55668527029047 84.56165962351952,75.83148142075515 83.9669611986028,76.10627707799722 83.30311179405544,76.46189425502962 82.7222435650765,76.60737377124315 82.40414905874059,75.91230372407881 82.05839416058734,75.15257238809136 81.60199769487372,74.37667266381322 81.29773338453379,73.61693370626017 80.92431809444679,72.84102619800251 80.550902804418,72.08127961853461 80.21897810214432,71.4670136696659 79.87322320399107,70.78808527922956 79.56895889359294,70.06065866201243 79.23703419126105,69.30089828193013 78.8912792931078,68.50880365747435 78.54552439489635,67.79753152202466 78.21359969262267,67.15091762147495 77.89550518628675,66.48813553831133 77.60507107182639,65.82535058505891 77.42527852475177,65.37271530911676 77.31463695730781,65.1625627616595 77.10718401841586,64.7907537015708 76.8167499039555,64.25728695069847 76.45716480980627,63.67532110174943 75.82097579713445,63.4166689029953 75.55820207454963,62.559880372311454 75.30925854778616,61.83241464706953 75.08797541295644,61.08877944269625 74.79754129849607,60.47446937454515 74.76988090667874,59.84399068784842 75.48905109486077,59.552999648672994 76.31886285054497,59.35900531518564 77.05186323472299,59.084179588389816 77.84018440259388,58.80935336809489 78.5178640030208,58.61535809186171 78.72531694197096,58.03337078768527 78.42105263157282,57.27355069834448 78.28275067225331,56.80472365472815 77.97848636191338,55.98023123187886 77.66039185546106,55.18806766072521 77.39761813287623,54.36356652721588 77.20399538992206,53.506727308558766 77.03803303878522,52.76305164463702 77.01037264696788,51.95470443216618 76.94122166727902,51.16252002080728 76.96888205915457,51.04935048439074 76.88590088358615,50.53200296619616 76.55397618137067,49.885316108644474 76.48482520162361,49.02845181233715 76.41567422205117,48.009908765074215 76.36035343830008,47.2985413455317 76.34652324242052,46.84585126557795 76.29120245866943,46.21531642210903 76.22205147903878,45.53627599227184 76.13907030347036,44.8734002847923 76.01459854008863,44.19435389908904 75.8901267767651,43.57997600072122 75.79331540531712,42.90092387415643 75.65501344599761,42.205700717328 75.48905109486077,41.18711224732397 75.33691893960349,40.23318991147971 75.1986169804004,39.31159827679221 75.0603150211391,38.4223379274481 74.88052247406449,37.58157793401915 74.61774875142146,36.595295898092445 74.28582404914778,35.641344928357285 74.02305032656295,34.97842634416884 73.96772954281187,34.81673844883335 73.84325777943013,34.655050382585614 73.45601229346357,34.99459512431349 72.8889742604224,35.35030785489653 72.16980407218216,35.65751363840536 71.43680368800415,36.01322482746036 70.73146369570168,36.30426063963387 69.95697272376856,36.611464507339406 69.12716096814256,36.9995106162678 68.38033038802678,37.29054455195728 67.79946215904783,37.387555740817334 67.48136765271192,36.72464472413412 67.10795236262493,36.48211558560433 66.61006530927261,36.72464472413412 65.94621590466704,37.031847747581196" stroke="#4dd2ff" stroke-dasharray="none" stroke-linecap="round" stroke-linejoin="round" stroke-width="0.5"><title>2024-05-25 18.7km</title><desc>1716643451000</desc></polyline><polyline fill="none" opacity="1" points="180.31035793048068,105.20380909275627 180.43663814997126,104.96253370132945 180.52979568894807,104.8539589527445 180.56498853700032,104.86361006218249 180.56912887207,104.90704000472397 180.66021624350833,104.84189506027906 180.57119903959392,104.8756739433029 180.60639188765344,104.84913339651393 180.61260239024705,104.73573253480936 180.7906367980613,104.79605221142629 180.7243914370265,104.97459753077055 180.616742725324,105.15072872292876 180.63951456818177,105.20863457487212 180.60225155258377,105.36063674537945 180.70783009676234,105.46438368412055 180.75544395000907,105.4788599641015 180.70368976169266,105.55124122787674 180.66642674609466,105.63809844496245 180.58154987726448,105.71530458590314 180.52979568894807,105.85041471150726 180.55877803439944,105.99517468323575 180.52358518633991,105.82387528492836 180.6333040655809,105.65016192149415 180.57119903959392,105.5922571766514 180.49874317595823,105.522288749582 180.57119903959392,105.37028764307252 180.64572507077537,105.17726892309292 180.5173746837536,105.24965113214057 180.33934027593205,105.27136575061559 180.03088531355024,105.1627924540553 179.80730722002045,105.08317171215458 179.7783248745618,104.8153544746674 179.97085045510175,104.51375476801331 180.17579704084346,104.23627955868506 180.4200768097071,103.9684524985023 180.54635702921223,103.84780866372785 180.52358518633991,103.74888024882421 180.27516508242115,103.5799770974063 179.99776263303647,103.28801302173451 179.7348513563702,102.96467659635528 179.6147816394805,102.9284819385557 179.42018589140935,102.73061680623869 179.10966076148907,102.42416380285431 178.81362680430902,102.0718584731203 178.55278569519578,101.77987532386214 178.2401903977443,101.43479956761257 177.98555979122466,101.18624530233501 177.80545521587192,101.03180246888769 177.5425439392202,100.80254948247966 177.2920536677484,100.54916195349506 177.14300160539278,100.38264863404402 177.06226507161773,100.29818489682475 176.799353794966,100.0327254245567 176.63167022480775,99.82518225579588 176.5012496702475,99.71417002726594 176.24661906372785,99.47766393359598 176.03132164032286,99.25080887238437 175.77255069873354,98.98292396042962 175.51792009220662,98.70779567859972 175.24465797787707,98.44231791087986 175.0024483765519,98.1961448878501 174.75195810509467,97.92583422939788 174.51388883882464,97.70137743677151 174.2551178972426,97.44795585289285 174.0481011439624,97.2428030080755 173.87627723874903,97.0810930093885 173.60301512441947,96.79870118920917 173.23038496853405,96.40769142374666 172.90536866590264,96.07219010741028 172.60726454118412,95.80185456156141 172.49340532688802,95.72944271666711 172.15389785151638,95.54117085607504 171.80196937095025,95.35531122997418 171.41277787480794,95.15013977373565 171.04428805397038,94.944966492405 170.6985700760124,94.77358505841767 170.3383609253142,94.59737465059516 169.94709926162614,94.39702419518471 169.58067960833432,94.21115534891578 169.25980364075076,94.03976846192018 168.88510331733414,93.87562208028066 168.533174836768,93.7018187556605 168.17917618867068,93.50628844970925 167.81896703797975,93.3324823414714 167.53121375093178,93.17798692329052 167.31384615998832,93.07659874257115 167.007461365145,92.91727355791409 166.6348312092523,92.728978738558 166.26427122089808,92.53585424963421 165.88957089748146,92.33789996976157 165.5293617467687,92.1423580979208 165.15052108828968,91.95405695023328 164.78824177006027,91.77541085005942 164.43838345703261,91.61366251128675 164.08231464140408,91.40121520795401 163.69105297770875,91.20325118598885 163.3329139945563,91.03667038707317 163.04930104257073,90.88457382377055 162.70358306460548,90.70350517811858 162.34130374637607,90.51519227794233 162.09909414504364,90.39689236160666 162.0287084489246,90.36792086098103 161.6933413086299,90.20374833631831 161.29172880728584,89.99611670417289 160.89632680852083,89.79814061542493 160.51541598250333,89.5856765798053 160.1448559941491,89.40218333662779 159.74324349279777,89.19695889990908 159.35819233170332,88.99414707311007 159.0000533485436,88.82272139920133 158.64191436539113,88.63680760737043 158.27963504715444,88.45572130340406 157.96703974971024,88.3060222178101 157.8304086925491,88.43640534699625 157.7517423263198,88.63197865773145 157.68135663020803,88.79133346164963 157.6047604314881,88.92895717834472 157.54265540550114,89.04485019711683 157.490901217192,89.16798589105565 157.44742769899312,89.27180567087089 157.51160289251857,89.10521091360533 157.50953272498737,89.10038206210265 157.53230456784513,89.11003976408938 157.62132177175226,88.88791159445464 157.74346165618044,88.64646550361795 157.62960244187707,88.56678773855492 157.41844535354176,88.51366907548254 157.04995553271146,88.44606332722287 156.7104480573471,88.34706883803847 156.59037834045012,88.31326574434388 156.165993996241,88.2698045510133 155.7043466364412,88.25773198277057 155.25512028184312,88.23358682730577 154.82452543502586,88.1152751998543 154.5388423155091,87.977646624091 154.26351003365562,87.84484634197725 153.91158155309677,87.6782412693974 153.49340771148854,87.4802452690019 153.06488303220976,87.33053984658727 152.64049868800066,87.20256508539387 152.23681601911085,87.0866628015483 151.96976440738945,86.98283317723144 151.73997581126605,86.85485648492067 151.37976666056784,86.64719467930263 151.00713650468242,86.44194570678337 150.6158748409871,86.29223353833004 150.2266833448375,86.15459407355593 149.87682503180258,85.98556202697546 149.56422973435838,85.82618781863312 149.19159957846568,85.66922729346516 148.8127589199794,85.57746526035407 148.46911110954534,85.43740671568412 148.17514731991105,85.3528882164428 148.06749860820128,85.16936126469591 147.98055157182534,85.00756655515397 147.93293771857861,84.66706949910986 147.98469190688047,84.27826883381931 148.1296036341737,83.89429154964273 148.19791916274698,83.50547784017726 148.24967335107794,83.15046828617051 148.0447267653435,82.97416899119708 147.6886579497077,82.76405710994186 147.4816411964348,82.53945263436799 147.51890421202552,82.27620374034814 147.1524845587337,82.07333097994342 146.81297708335478,81.88494753069972 146.4776099430601,81.69656254035726 146.40308391188591,81.45504106749286 146.411364582018,81.017880759342 146.41343474954192,80.63143379664507 146.421715419674,80.35125569279808 146.4237855872052,80.09764326238837 146.42792592227488,79.90199747867518 146.4237855872052,79.63871842964545 146.42585575474368,79.28848016556003 146.44241709500056,78.72084131791235 146.45276793267112,78.30295356135684 146.4631187703344,77.83916173535545 146.46518893785833,77.40917971511408 146.47346960799769,76.97435826725996 146.48175027812977,76.57576472313667 146.49210111578577,76.31969492536336 146.3699612313576,76.2931214812852 146.03252392352442,76.23031140055537 145.60606941178412,76.19165895797596 145.2624216013428,76.16991693049567 144.79870407401177,76.13126438647487 144.38467056747322,76.09744335719552 143.98512823365309,76.0708696564725 143.55867372191278,76.03463274238493 143.2481485919925,76.01047476795975 142.90450078156573,75.99114837015986 142.58362481399672,75.96699035008714 142.18615264771506,75.93075327241786 141.79282081648853,75.89693194845313 141.45331334112416,75.86794220263073 141.0517008397801,75.8413682368755 140.6790706838874,75.80996260142456 140.5734921397161,75.49590388940123 140.5797026423097,75.12144366898792 140.59626398257387,74.73248176169909 140.59626398257387,74.42324027384893 140.60661482023716,74.01252249668869 140.6148954903765,73.61629369233196 140.62317616050132,73.29495678472449 140.62110599296284,73.1741522750981 140.6148954903765,72.91321236920703 140.62731649555644,72.86972209710984 140.62524632803252,72.57978484854902 140.60454465271323,72.38890749834172 140.65422867349116,72.2052771602157 140.64387783582788,71.9805696203075 140.6335269981646,71.68337240540313 140.6397375007582,71.2556916250087 140.63766733323428,70.84250094483468 140.6314568306334,70.49212876219462 140.6355971656958,70.12241991234623 140.62938666309492,69.80345063822278 140.6314568306334,69.39023386354711 140.6314568306334,69.14375014634606 140.61282532283803,68.89968033259538 140.61282532283803,68.61935933004679 140.60661482023716,68.86826521787043 140.60040431763628,69.10025274549662 140.52173795139242,69.283907878229 140.18016030848958,69.39023386354711 139.79717931494088,69.35156992577868 139.60672390191758,69.24524376165755 139.43697016424267,69.08333706738449 139.10988369408005,69.04950567384185 139.11195386160398,69.05675526236337 139.43282982918026,69.08575359359384 139.80753015260416,69.16308229808783 140.1698094708263,69.21866214380498 140.50517661112826,69.25007677978647 140.56935180464643,69.51589121232064 140.56107113452163,69.82278223532558 140.38717706176976,69.98710015458528 140.07044142926316,69.96776869561836 139.76819696947496,69.96051939431527 139.35416346292914,69.94602078485332 138.97325263691164,69.93152216624367 138.5737103030915,69.91943997709495 138.16588729915384,69.90010846124096 137.75806429520162,69.89285913861204 137.35852196138148,69.8831933715428 136.9279271145715,69.87111115699554 136.50768310543208,69.85419604596973 136.30894702228397,69.69229363945487 136.30066635215917,69.27182534878739 136.2882453469574,68.84409971579589 136.2861751794262,68.69910616999005 136.26547350410692,68.43086569969637 136.24270166124916,68.15778885303735 136.21785965084564,67.785625804132 136.18473697033187,67.43762373624304 136.15161428980355,67.09686660671468 136.14126345214027,66.9180275104809 136.10814077161194,66.54584438990241 136.0708777560285,66.16640474513588 136.04810591317073,65.81354442259544 136.01912356769753,65.4679294030775 135.99428155731584,65.25040679583617 135.95287820666272,64.9168681326737 135.92389586120407,64.49631248360856 135.89491351573815,64.13859242583203 135.8576505001547,63.739776336982686 135.80589631182374,63.34337045603206 135.74793162091373,62.97838094517465 135.72101944299357,62.67139852314176 135.64235307674244,62.32090176641759 135.5885287209021,61.958313287579585 135.52435352737666,61.59088445787529 135.4705291715436,61.264544714285876 135.4332661559456,61.00588695733131 135.39807330789336,60.6577822009167 135.38358213515312,60.37977808571668 135.35874012476415,60.02441140406518 135.3359682818991,59.66420419042515 135.31526660657983,59.349924825472044 135.24902124553046,58.960695958157885 135.17449521435628,58.61256020216024 135.09168851305003,58.28134281286839 135.00681164419802,57.954956040532124 134.9157242727597,57.63340009102649 134.81014572859567,57.29491527922073 134.7004268493547,56.97093228551239 134.61762014804845,56.72431530043832 134.49755043115147,56.33987765798156 134.42509456750122,56.09325389402329 134.31330552073632,55.67979046324217 134.23877948955487,55.44524941737291 134.12285010772757,55.12124031933308 133.98621905056643,54.76579224219313 133.90755268432258,54.50464320855281 133.77299179469264,54.26767206963996 133.65085191026446,53.92913762695753 133.5680452089582,53.66314277606034 133.4169229790641,53.34636306804532 133.2637305816461,52.9763781785623 133.12916969200887,52.63298817265604 132.9904684673238,52.292011321795144 132.87867942055163,52.0114875604977 132.766890373794,51.728542016862775 132.65510132702912,51.43108268321703 132.5660841231147,51.19407980338474 132.4108215581582,51.25453995431417 132.06096324512328,51.389970114258176 131.69247342430754,51.51572597557788 131.36952728919277,51.65357295479225 131.0320899813596,51.728542016862775 130.89752909172967,51.421409144206336 130.81472239041614,51.01753525083586 130.73605602417956,50.683789782458916 130.6656703280678,50.29441393299385 130.57458295662218,49.91470565304189 130.4731447475133,49.5253167494775 130.35307503063086,49.177037844554434 130.29097000463662,48.9593608436262 130.16261961761484,48.647353539792675 130.03426923058578,48.26036183981887 129.91005917861912,47.88303864536647 129.77342812145798,47.483940049660305 129.69062142015173,47.234802253753514 129.558130698053,46.85988105186516 129.42356980842305,46.460764649527846 129.30350009153335,46.097925528232736 129.1730795369731,45.71330979092454 129.06750099279452,45.41335341737613 128.93708043824154,45.05775489091684 128.81701072133728,44.694893566216706 128.6948708369091,44.341703027894255 128.5996431304011,44.041728708329174 128.48371374856652,43.71755849838337 128.36364403166954,43.3498374869323 128.2891180004808,43.14903997088004 128.16076761345903,42.786148431558104 128.0593294043574,42.46921845388715 127.94340002252284,42.1450260036072 127.80883913290018,41.770021553629704 127.66806774066936,41.36113874128023 127.54385768870998,40.98854094992748 127.44034931206988,40.68610322326822 127.30578842243995,40.29655754963096 127.19192920814385,39.96023639263876 127.06771915618447,39.59971398678317 126.98491245487094,39.33839218668618 126.92073726135277,39.09158552753979 126.76547469640354,38.711691650460125 126.64954531456897,38.38502627296293 126.53154576519592,38.03657806931005 126.4238970535007,37.71474272832165 126.29554666646436,37.34692537317642 126.17547694958193,37.003301191891296 126.07196857294184,36.64757213690973 126.00365304436127,36.352337025049565 125.91463584045414,36.003857897516355 125.82975897160213,35.64327321835117 125.7345312651014,35.30930382030965 125.65379473132634,34.95354845194379 125.64344389366306,34.79139961371038 125.39709395726823,34.88336476737277 125.16109485853667,34.96322894328296 124.78432436758158,35.060033631561964 124.38478203376144,35.18103891643477 124.05355522852187,35.292363213799035 123.6747145700283,35.406107045639146 123.33934742972633,35.55131111639639 122.9729277764418,35.689254130846166 122.60443795561878,35.805416024886654 122.2939128256985,35.9312574118685 122.08689607243286,35.99659785930635 121.94405451267812,36.071618143143496 121.65837139315408,36.16357815582887 121.31472358272731,36.245857854191854 120.97728627489414,36.3184573425624 120.840655217733,36.086138169694095 120.79925186707987,35.7182946595949 120.7537081813498,35.44240814964178 120.71437499822787,35.188299213194114 120.6481296371785,34.80834059082008 120.59430528132361,34.47435901573044 120.49493723976775,34.13795235980615 120.38107802546438,34.03630333316869 120.11609658127418,34.191196907962876 119.78693994356581,34.324307736647825 119.50953749418841,34.38239221939148 119.37083626948879,34.30252601763277 119.19280186167452,34.392072952186936" stroke="red" stroke-dasharray="none" stroke-linecap="round" stroke-linejoin="round" stroke-width="0.5"><title>2024-05-01 58.8km</title><desc>1714551575000</desc></polyline><polyline fill="none" opacity="1" points="19.156933774866047,114.26446675607258 19.416664858872537,114.15182387720051 19.695247392519377,114.02938534420537 19.839775173131784,114.13958005302266 19.910991760683828,114.41139142720021 19.950789265480125,114.66360994003298 19.99687058683776,114.95010725008251 20.042951908202667,115.22435776667407 20.09741165162268,115.54757742256697 20.09950625712372,115.75815750008223 20.143492972973036,116.08381827039011 20.158155211582198,116.2527682955224 20.162344422620663,116.37764360937763 20.359237341137487,116.33112151227942 20.713225673360284,116.26501100310634 21.029511106295104,116.19645175733604 21.358364172330766,116.11075241489925 21.467283659163513,116.05443553158693 21.71025789903797,115.96138994624562 22.007691882339714,115.84875531675243 22.313504287682008,115.7067369600718 22.63816814268648,115.5279884808624 22.93350752047263,115.3565845344965 23.22256308169017,115.3565845344965 23.55560535875702,115.26108750009553 23.794390387600288,115.20231989866988 24.12324345363595,115.11416821707826 24.418582831407548,115.02846487177158 24.711827603670827,114.94276120945688 24.986220926286478,114.8619546089194 25.074194357956003,115.0847842486819 25.162167789632804,115.44228666617346 25.245952010278415,115.78509202311761 25.32764162541571,116.10830385760528 25.400952818468795,116.41926856445752 25.44703413984098,116.62494371568573 25.50568309427763,116.80368373368583 25.616697186633246,117.1170875608168 25.704670618317323,117.38641558875133 25.803117077572097,117.6655340606303 25.891090509256173,117.93485571544625 25.991631574026542,118.21396758282754 26.100551060866565,118.5322489440423 26.196902914605744,118.86276727044242 26.257646474579815,119.04149003194107 26.339336089702556,119.21776318669981 26.429404126902227,119.46992939727716 26.519472164094623,119.7465746089274 26.605350990263105,120.01097579667294 26.67028376126109,120.21661908022907 26.747784165359917,120.38798708983632 26.83366299150657,120.63034825524846 26.8525144411542,120.72337510044235 26.94677168938506,120.99021319086751 27.043123543131514,121.30845643941575 27.14994842444139,121.63159126883147 27.26096251681156,121.95472159532073 27.32170607677108,122.14076428621775 27.428530958102783,122.41492974179346 27.53745044493553,122.73560129592079 27.610761637995893,123.01465537603508 27.692451253133186,123.146837715738 27.75947862963949,123.34266201942046 27.84954666683916,123.63394761227391 27.939614704031555,123.89830447954228 28.023398924677167,124.18958309439222 28.100899328775995,124.4196661371061 28.121845383939217,124.52246846107482 28.234954081817705,124.79171048369608 28.345968174166046,125.09521592591773 28.459076872037258,125.44766887565856 28.57428017543134,125.81969673565436 28.687388873295276,126.15255871145746 28.796308360142575,126.47073113591068 28.91779548006889,126.81826833670857 29.028809572424507,127.15601076956409 29.14820208684978,127.50353770632137 29.273878417821834,127.84616480213481 29.395365537755424,128.19123412116278 29.508474235626636,128.53874555459333 29.617393722459383,128.82017705678481 29.66347504380974,128.97190392896846 29.728407814822276,128.9009350315846 29.776583741688228,128.9474319198962 29.969287449166586,128.94498471756924 30.30651893727918,128.81038819225614 30.647939636401134,128.69781595344284 30.86368400455831,128.75410214110343 30.99145494104596,129.0306366454388 31.150644960267527,129.3120621828475 31.305645768465183,129.59103717363178 31.462741182178434,129.87735012489065 31.62193120140728,129.98746955034403 31.676390944820014,130.18078905583752 31.747607532372058,130.5356118067175 31.846053991634108,130.90755810905102 31.94450045088888,131.2330062348974 31.98639256120805,131.36758871284292 32.10159586460213,131.59515367328459 32.214704562473344,131.86431365020326 32.31315102172812,132.11634243598746 32.44720577476983,132.4589014476278 32.5749767112502,132.78922142230113 32.68808540912141,133.06570786223529 32.83261318973382,133.41069959955894 32.954100309674686,133.689625342 32.8912621441923,133.76057960158323 32.76558581322024,133.80706675754482 32.80957252906228,133.7825998449498 32.799099501469755,133.77281307270096 32.92268122693349,133.75323951581413 33.058830585476244,133.95142101710007 33.17193928335473,134.25969999071094 33.31646706396714,134.60956720142713 33.465184055610735,134.96921541364463 33.60133341416076,135.3288580565768 33.703969084454,135.63467224940905 33.8024155437015,135.97962582638684 33.90924042502593,136.34903851533454 33.97836240706965,136.53007305231404 34.085187288386805,136.86522786312162 34.1836337476343,137.19059250627106 34.2841748124265,137.52818408582243 34.376337455127214,137.8608782342726 34.462216281295696,138.18133647556533 34.56485195157438,138.50179029686478 34.644446961188805,138.84180898437626 34.70728512668575,139.15002306357746 34.761744870091206,139.45334086440744 34.78688013629289,139.68571875904308 34.805731585933245,139.98413748914209 34.83296145764325,140.38283850076186 34.85390751280647,140.6592345739482 34.8727589624541,140.79620840088864 34.91255646726495,141.13619351838497 34.94816476103006,141.51041599133896 35.00471910997294,141.86995739785016 35.05708424787008,142.2197100282301 35.115733202328556,142.57679469711184 35.14924689059262,142.81158710666932 35.17857136780367,142.95588543178565 35.2267472946769,143.24203369847237 35.2749232215574,143.5673090745422 35.304247698783,143.780080730563 35.32938296497014,144.0246434469973 35.34823441461049,144.2349653256133 35.34613980908762,144.32545206012946 35.398504947006586,144.63603898354813 35.42364021319372,144.96863140376263 35.436207846294565,145.31100098481875 35.436207846294565,145.46017472558924 35.46553232352744,145.57266576603433 35.49695140626136,145.83921845031728 35.51999206694745,146.13266741342886 35.5409381221034,146.39187758413027 35.568167993813404,146.6584208788263 35.587019443453755,146.96653133952532 35.612154709648166,147.25752080455277 35.63310076481139,147.50938269638937 35.66451984755258,147.8174818844618 35.67708748064615,147.9617491490044 35.704317352356156,148.286958514278 35.72945261856512,148.5583703685097 35.746209462689876,148.78087682370824 35.752493279229384,148.90557731304762 35.76296630680736,149.16964673096118 35.75877709577617,149.45816359431774 35.76296630680736,149.7637919621302 35.78391236197058,150.03763156942478 35.80066920610989,150.25278899981276 35.81114223368786,150.69287754684046 35.8132368391889,151.0571667694894 35.815331444711774,151.45078831096362 35.81114223368786,151.80039689194018 35.815331444711774,152.23067716613332 35.823709866788704,152.5558268687182 35.815331444711774,152.90786353027033 35.79229078404023,153.13032839707193 35.84046671091346,153.25256093523603 35.85722355503822,153.54347179415527 35.876075004685845,153.8441573480868 35.88864263778669,154.11550439178245 35.907494087419764,154.4039599426269 35.91168329845823,154.77308005259147 35.901210270880256,155.07130527075788 35.871885793640104,155.40863738826192 35.84884513297584,155.66529985554916 35.82580447229702,155.7997409710806 35.89073724328773,155.85596157100917 36.19445504313626,155.873072161432 36.53797034778108,155.91218203518838 36.87729644139472,155.9464031208263 37.262703856373264,155.9928459423154 37.59365152790997,156.02462255626415 37.93297762153088,156.05639912685 38.23460081585654,156.0759539179653 38.52784558811982,156.09062000051563 38.82946878243092,156.1126191070307 39.135281187795044,156.1346181927529 39.432715171082236,156.14928423835772 39.755284420571115,156.17617196463289 40.069475247997616,156.1981709903157 40.20981381757156,156.2177256623545 40.51562622292113,156.23483598691564 40.827722444832034,156.26416794263423 41.17542696050805,156.29594418629313 41.46448252174014,156.3179430988057 41.7723895326053,156.34483063031803 42.053066671775014,156.37171813077475 42.24786498476897,156.3594965435077 42.60604252803023,156.38638402703145 42.951652438197925,156.4303816603733 43.28260010974918,156.46215767719332 43.640777653010446,156.4963779544978 43.975914535585616,156.5183766776372 44.32571365679178,156.5501525743657 44.70693186072458,156.57703983773536 44.9938928164338,156.59170560466555 45.215921001145034,156.60881565441014 45.41700313069305,156.6234814013278 45.64531513195834,156.63325856080155 45.95950595937029,156.6552571546199 46.085182290342345,156.88257474040438 46.08308768482675,157.19054986504125 46.07470926276437,157.50585351094742 46.06633084069472,157.85781532887268 46.06004702414066,158.15111278040968 46.057952418639616,158.50062075329333 46.04957399656996,158.82812696063957 46.04538478553877,159.1776247739308 46.04747939104709,159.4904575294422 46.0432901800159,159.79595421227896 46.03910096899199,160.05501225990702 46.0432901800159,160.24563803984893 46.03491175795352,160.59022683723742 46.026533335891145,161.0643335890818 46.016060308305896,161.5359869178701 46.00977649175911,161.9856371593014 45.997208858665545,162.39617980116782 45.993019647634355,162.74806773690943 45.95950595937029,163.0755142371654 45.87572173872468,163.4347226427053 45.75214001327549,163.7548288689468 45.58457157198427,164.045608576218 45.460989846535085,164.2557496356403 45.53011182856426,164.16045334349656 45.609706838171405,164.2239842482195 45.75842382982955,164.33149769245574 46.001398069696734,164.5074277131862 46.25693994265748,164.68824329507333 46.40775153982395,164.78353742916988 46.617212091441615,164.98634159708308 46.868564753371174,165.18181382376133 47.115728204284096,165.37484103890165 47.362891655182466,165.50189605496598 47.59329826195608,165.49456597670905 47.66660945502372,165.54343312154197 47.80275881356647,165.73645734204 47.8488401349241,165.8586237442305 48.11904424650129,165.9026034922881 48.43951889048185,166.02476902372655 48.76208813997073,166.1102845147907 49.05533291222673,166.2080161204358 49.317158601748815,166.33995313810374 49.54965981403802,166.44257030225162 49.78006642080436,166.55984650815844 50.006283816546784,166.66734917861504 50.28696095570922,166.7650784488451 50.599057177620125,166.88235303232432 50.8336529954322,166.9898542156061 51.01378906980972,167.08269574768747 51.286087786909775,167.2390595975903 51.51439978816779,167.37587710598018 51.753184817003785,167.50292121627172 52.090416305101826,167.61774895109738 52.42764779321442,167.72036049096278 52.72508177650161,167.81564223075293 53.03298878737405,167.89870804517886 53.30528750447411,168.02330621194233 53.52103187263856,168.1283590508683 53.71164097459405,168.21386682615594 53.89596626002458,168.30181735359292 54.145224316438544,168.42397031355904 54.45103672179539,168.5729960581266 54.80921426505665,168.7146917843893 55.163202597272175,168.76355218000754 55.481582635729865,168.78798233942143 55.722462270096,168.80019740952957 56.021990858906065,168.80264042279123 56.31942484219326,168.84172860003127 56.45557420073601,168.87348769580785 56.75510278954607,168.92967675928594 57.039969139739696,168.9834226933217 57.41071431609453,169.07137031815546 57.546863674644555,169.1300018837719 57.82963541932986,169.24970753917296 58.137542430195026,169.39628505583096 58.41612496384187,169.51843228260623 58.625585515459534,169.60149203136098 58.78896474571229,169.66745103286303 59.080114912459976,169.78226810898377 59.40058955643326,169.91418490285105 59.72944262246892,170.04365806754686 60.03734963333409,170.17557338288134 60.31174295594974,170.2219878534106 60.67829892128066,170.40764481184306 61.04694949211262,170.59085746669916 61.37370795262541,170.75941183805662 61.65438509179512,170.89132310510468 61.899453937177896,171.0256764064925 62.14452278256795,171.16002893398763 62.40634847209003,171.28705243008153 62.672363372643304,171.41651797389386 62.90276997941692,171.53376916705747 63.164595668931725,171.6705614808343 63.443178202578565,171.8293372676726 63.715476919671346,171.95879980168684 63.98777563677868,172.10536029383547 64.30615567522182,172.26901842185725 64.59102202542272,172.4229048679881 64.86750995354669,172.5548067281452 65.13561945960828,172.69647826577057 65.43514804841834,172.85524707007244 65.72001439862652,172.9920316350108 66.01535377639811,173.13370051754282 66.3127877596853,173.28758126007597 66.59765410987166,173.43413340460756 66.84062834976066,173.5635870332153 67.0689403510114,173.67105742450804 67.34542827913538,173.8102796953881 67.630294629329,173.9568285567293 67.91516097953718,174.10826141313555 68.23354101798031,174.26946305127967 68.54144802886003,174.42333630332723 68.8409766176701,174.5918629865555 69.1342213899261,174.76527323059963 69.43165537322056,174.90693134685353 69.76260304475727,175.07545453751663 70.1019291383709,175.24641884965422 70.4119307547735,175.40517030369665 70.68004026084236,175.54926684236125 70.97537963860668,175.69824707396037 71.29375967706437,175.85699545443276 71.605855898968,176.0133004970885 71.88234382709925,176.14762430675 72.21119689312764,176.34300301346775 72.46673876610294,176.5237268610199 72.47721179368091,176.5872240968656 72.70342918942333,176.70933368026272 72.98620093410136,176.96087740857 73.21241832984379,177.19532349126712 73.42816269800824,177.41999877751368 73.62505561652506,177.60071428628908 73.84708380122902,177.8302698071093 74.12566633488314,178.11354797639433 74.38539741888235,178.38217065116078 74.66607455804478,178.67765202335977 74.92790024755959,178.94138430428575 75.17506369847251,179.2075555300562 75.43060557143326,179.4517466461457 75.6798636278545,179.6983770810184 75.92283786772896,179.94256306381067 76.15114986898698,180.1745373821177 76.3773672647294,180.41627658795187 76.57426018324622,180.6262702304357 76.75649086315389,180.7923103782723 76.79419376244914,180.82161145827195 76.82351823967474,180.850912501508 76.90520785479748,180.92904843705946 77.08324932366668,181.11462023617423 77.19845262705348,181.2318227179221 77.37649409592268,181.41739211104868 77.55453556479188,181.61028504877868 77.7786583550187,181.852009392358 77.99440272318316,182.0717566245421 78.14102510931843,182.19627913832483 78.33582342231966,182.37451609104028 78.58089226770244,182.6284403593745 78.8196772965457,182.8774787872626 79.06474614192848,183.12651455990817 79.31609880386532,183.39507957435308 79.42501829071261,183.53180239558242 79.49832948378025,183.59772204131514 79.69522240229708,183.78327263795654 79.8942099263295,183.97370461250102 80.12461653310311,184.20563889499863 80.3319824791979,184.43024674223307 80.4220505163903,184.57917031991747 80.4786048653259,184.62555615841666 80.58333514113474,184.79645055818037 80.68178160038224,184.96490238596562 80.83049859204039,185.11870516799718 80.82002556446241,185.16264863403921 80.69434923349036,185.32865653763838 80.57286211354949,185.48001565703635 80.50792934255878,185.59231372490103 80.43252354397555,185.75099485715145 80.35711774539232,185.92920469014643 80.35711774539232,185.9926763572057" stroke="red" stroke-dasharray="none" stroke-linecap="round" stroke-linejoin="round" stroke-width="0.5"><title>2024-05-01 52.5km</title><desc>1714541844000</desc></polyline><polyline fill="none" opacity="1" points="186.0,148.18646137061478 185.7650070395539,148.22955175562038 185.55074875208084,148.26590915464476 185.26967874056572,148.29149392881664 184.98284909766517,148.299573320518 184.71905798029184,148.2941870599534 184.57737104825355,148.299573320518 184.32394726737402,148.30630614302117 184.02790221425676,148.30630614302117 183.75835146551253,148.31303896196823 183.48995264303085,148.3211183400108 183.23076923077315,148.32650458919306 182.96121848202165,148.30630614302117 182.72968130039953,148.28206796536142 182.45897862537822,148.2578297416021 182.18942787661945,148.31977177735644 181.98668885191728,148.38575317994946 181.7747344169984,148.3978721759495 181.58236272878275,148.31034583481414 181.456802764631,148.02621772301973 181.4003583770682,147.8982906756155 181.29783693844365,147.64647263028564 181.2460002559892,147.4835288903314 181.14693459618866,147.2451694181309 181.09624984001857,147.11319445911886 180.99488032766385,146.85597402882922 180.89005503648514,146.5987484053676 180.78407781902206,146.39942864408113 180.49033661845897,145.72602800576988 180.30602841418295,145.6155869030763 180.23460898502526,145.3960486966289 180.13669525150908,145.40547679552947 179.92819659542147,145.57922194018374 179.7243056444422,145.4997574006902 179.61717650070932,145.46339210709266 179.38794317164138,145.42972044636736 179.1287597593764,145.45396405106112 178.9536669653171,145.50918542282216 178.67720465890307,145.59538415872976 178.60117752463702,145.62501483947017 178.38922308972542,145.70313175828505 178.1023934468176,145.79875698947762 177.8846793805278,145.88764740563238 177.76833482657094,145.97114995877473 177.5828746960251,146.05869237028946 177.45846665813588,146.14488738766977 177.20619480353344,146.24320286733928 177.07257135543477,146.28629982469738 176.78343785998004,146.37114653342087 176.63023166517814,146.4169365858843 176.37220017919026,146.50043566961267 176.20632279534766,146.55969275185635 176.0254703699029,146.7509296372018 175.75476769486704,146.87886820436142 175.62575195187674,146.92330972178024 175.38154358121392,147.02835269217758 175.09471393830609,147.1576351591957 174.93805196467292,147.22362257941677 174.69845129911846,147.34751640441755 174.5740432612365,147.3906096263854 174.37360808908852,147.52258171207268 174.1282477921486,147.69091147046947 173.97388967106963,147.80537443606863 173.8034045821114,147.88078476923783 173.49468833995343,147.99793922309982 173.3207474721712,148.0585359318029 173.0661717650073,148.096240405127 172.85191347753425,148.11778576837332 172.62959170612885,148.1608763855811 172.36119288366172,148.1406776769054 172.09394598745712,148.06796206059153 171.9660821707439,148.01275177850584 171.72993728401343,147.83769320492956 171.51913477537164,147.7676691021352 171.33021886599454,147.94811504676363 171.09061820044008,148.07334841676948 170.87520798668993,148.15145032551482 170.60104953283007,148.25648317226296 170.31882759503787,148.3534358009556 170.10687316012627,148.43288254409254 169.9640343018109,148.50963570694694 169.7543837194462,148.60389334475622 169.5666197363389,148.64024967590376 169.31434788174374,148.68064547776885 169.09087418405397,148.72777375146597 168.99987200820033,148.73989242224707 168.73377703827282,148.83684137371165 168.54601305516553,148.94725455916796 168.28452579035365,149.09267534402989 168.0218865992574,149.2125115957606 167.88826315115875,149.28926006404072 167.63138359145523,149.42255893701986 167.3791117368528,149.5773993122175 167.2362728785447,149.6810739904804 167.06463586330938,149.7308913931147 166.7916293357266,149.7982118981954 166.47139383079048,149.90053838508265 166.29284525790717,149.95035493012892 165.99219249968155,150.0297917209009 165.7410725713562,150.1307699777435 165.46461026494217,150.26944548044594 165.2630231665171,150.36907549304487 165.07871496224834,150.45928037346675 164.85408933828148,150.5575625764268 164.65710994496476,150.63564926611707 164.46704210931057,150.71508178740442 164.29886087290652,150.79047490921403 164.2781261999262,150.80393791976985 164.09266606937308,150.8739453455346 163.85652118264989,150.99511113569588 163.62498400102777,151.11089070395428 163.38077563036495,151.23743926220686 163.1296557020396,151.38687264485998 162.94995520287193,151.460915564091 162.73454498912906,151.56861358830702 162.50876743888512,151.6897727784517 162.32676308716327,151.77996831708515 162.1482145142727,151.8015074558416 162.03532573916164,151.55919004749558 161.9109177012724,151.3222530185958 161.81300396774168,151.1580099947305 161.68283629848156,150.97222435241565 161.54345321899746,150.76354884545526 161.4225009599395,150.58987436809093 161.31076411109825,150.5400603217513 161.10572123384918,150.6827703130266 160.87879175732814,150.79586011514039 160.7198259311408,150.8712527593434 160.42032509919954,150.93183581113044 160.23371304236207,150.8927934329513 160.03442979649844,150.80393791976985 159.74414437476662,150.63564926611707 159.40317419685016,150.55621624999458 159.11173684884125,150.51448006016835 158.83066683732613,150.49967041157834 158.56802764623717,150.45928037346675 158.3514655062172,150.41485118376113 158.1590938179943,150.3892706709721 157.96441827723174,150.37042183923586 157.6902598233719,150.34484123730908 157.41264559068804,150.31387517683834 157.1384871368282,150.29502623363896 156.87469601946214,150.26809912359113 156.63048764879204,150.2357865164695 156.3908869832303,150.22501562922844 156.15243824395293,150.26944548044594 155.95776270319038,150.36907549304487 155.86906437988364,150.26271369476126 155.75271982593404,150.07826138399741 155.61909637783538,149.86553204778284 155.49699219250033,149.66491695322566 155.39907845897687,149.52488843921492 155.2896454626898,149.34446481690156 155.19057980288926,149.18019631297466 155.03506975554046,148.94321506923916 154.87610392935312,148.6968037626666 154.73211314476066,148.4705859099222 154.6341994112372,148.33189083609523 154.40381415589945,148.40325839269008 154.2840138231113,148.4746255496475 154.0501727889423,148.5944676123445 153.8716242160517,148.66852675065365 153.6850121592288,148.7493180471156 153.44310764111287,148.83145534019877 153.18738000767917,148.9566800306893 152.96505823627376,149.07382459513883 152.89939843850152,149.11556550163095 152.69896326635353,149.19500749441977 152.48816075771174,149.2771419155588 152.28426980673248,149.3498506336473 152.06309996160417,149.43333050224737 151.74862408805348,149.80629033491732 151.60348137719848,149.86957124545643 151.4733137079238,149.89784559331747 150.67387687188602,149.82917921115768 150.46537821579113,149.86822484637287 150.20619480353344,149.90996315177836 149.92512479201832,149.95035493012892 149.67746064251696,149.97728271126743 149.44246768207086,149.9988248952286 149.2051708690633,150.00959597355813 148.97708946627245,150.02036704278908 148.70638679124386,150.0217134258046 148.38845513887645,150.0284453387385 148.32855497248238,150.03517724812264 148.05900422373088,150.03113810292052 147.7284013823155,150.03787001087858 147.44041981313057,150.04056277306972 147.11557660310064,150.04594829574035 146.80570843466558,150.0284453387385 146.49353641366906,150.02575257398894 146.22859337002592,150.0230598086755 145.93485216946283,150.0217134258046 145.66069371560297,150.0244061914027 145.37616792524932,150.0230598086755 145.10316139766655,150.02575257398894 144.8485856905172,150.0217134258046 144.566363752725,150.0244061914027 144.30602841418295,150.01902065963168 144.01459106617403,150.0217134258046 143.8510175348856,150.01498150931093 143.58031485984975,150.0217134258046 143.2681428388605,150.0244061914027 142.98361704851413,150.0244061914027 142.71061052093137,150.0284453387385 142.47100985536963,150.03383086652866 142.2037629591723,150.02709895643693 142.03673364904535,150.02036704278908 141.73608089081972,150.0244061914027 141.4457954690879,150.02575257398894 141.1854601305531,150.02709895643693 141.0115192627709,150.03383086652866 140.71547420965362,150.0244061914027 140.41942915653635,150.03921639204418 140.16024574427138,150.03921639204418 139.92179700498673,150.03517724812264 139.6073211314506,150.03787001087858 139.31818763598858,150.0432555346879 139.04978881352145,150.036523629572 138.79636503264192,150.03787001087858 138.54639703058638,150.03921639204418 138.28836554460577,150.0432555346879 138.06373992064619,150.04460191528688 137.78727761423215,150.0432555346879 137.47625751952,150.0432555346879 137.26084730576986,150.05402657548257 136.99129655702563,150.04594829574035 136.66414949442697,150.04729467605466 136.42800460770377,150.01902065963168 136.23332906694122,150.05806571343692 135.921157045952,150.05537295494105 135.7322411365676,150.05806571343692 135.47190579803282,150.05671933426038 135.1585818507665,150.06075847135708 134.88557532317645,150.04998743625129 134.6114168693166,150.05268019588038 134.35453730961308,150.06345122871062 134.0700115192667,150.06614398549846 133.80622040189337,150.06614398549846 133.54818891591276,150.0674903636791 133.36503263791383,150.08095413765568 133.0874184052227,150.0755686297698 132.81095609880867,150.07018311960928 132.59324203251163,150.07287587497285 132.34097017790918,150.07287587497285 132.05644438755553,150.07826138399741 131.78574171252694,150.07826138399741 131.75694355561427,150.06210485010342 131.72353769358597,149.86418564827727 131.519646742614,149.86687844714743 131.24088058364578,149.85745364860213 131.05542045309267,149.83456482312522 130.85037757583632,149.8466824417328 130.54742096505652,149.8332184203482 130.27095865864976,149.8237935969173 130.00025598362117,149.80629033491732 129.7191859720915,149.79147986368753 129.45309100217855,149.7820550093984 129.166261359278,149.7901334563585 128.88288749520143,149.7982118981954 128.6156405990041,149.80763674053742 128.3599129655704,149.8170615759127 128.08690643798764,149.82110078893857 127.83924228849355,149.82783280781132 127.59964162293909,149.8332184203482 127.42570075514959,149.83456482312522 127.25060796109028,149.8439896385953 126.95917061308137,149.85341444709502 126.69537949570804,149.8601464489011 126.64930244464631,149.97324354772263 126.63432740304415,150.29502623363896 126.62511199283472,150.56429420644326 126.59976961474604,150.83894168069583 126.56060412133957,151.0314606482416 126.48918469218188,151.24147802530024 126.36362472801557,151.50803356159486 126.23230513247108,151.7893916947678 126.11250479969749,152.04247409088475 126.00191987713333,152.32516657461474 125.95814667861123,152.60246835244016 125.98233713042282,152.90937785522146 126.04569307564088,153.2633914883245 126.09637783181824,153.54605691781217 126.14475873544143,153.81121831847486 125.96736208882794,153.93504815098913 125.69781134006917,153.9700433206408 125.43171637014893,154.00907628125424 125.17022910533706,154.0440712478803 125.03775758351549,154.07906611853105 124.87533597850415,154.0898337517301 124.62997568155697,154.1261744466965 124.39728657366504,154.1746285456602 124.16805324458983,154.1827042109353 124.05746832203295,154.17193665610102 124.1611416869273,154.1840501546494 124.41917317291518,154.1773204346573 124.67720465890307,154.12482849687785 124.91104569307936,154.09521756492268 125.14834250607237,154.06291465169306 125.32689107897022,154.03868741310453 125.59528990144463,153.9969626166012 125.86253679764195,153.95927558635412 125.98118520414573,153.93639412082575 125.91898118520476,153.74257300226782 125.85677716626378,153.49894644778942 125.81761167285003,153.32396317899293 125.78305388455192,153.18935903141391 125.71163445539423,152.91745432137486 125.64712658389908,152.62669831849144 125.58722641751228,152.37093524458578 125.53078202994948,152.12324401127808 125.48931268398883,151.94554951125247 125.40176628695917,151.695157604634 125.28542173300957,151.4716854074386 125.14603865352547,151.22397670931787 125.15179828491091,150.95606895125184 125.199027262257,150.75412470970878 125.26468706002925,150.5360213364902 125.33149878407858,150.28694810659817 125.39600665557373,150.06075847135708 125.46397030590015,149.83052561436034 125.49622424165136,149.64472062785626 125.2934852169492,149.55585641612743 125.05273262511764,149.49392038707356 124.7900934340214,149.42929116635514 124.52169461154699,149.36196871301217 124.26711890439037,149.29733882329492 124.01254319723375,149.23405507210282 123.81210802508576,149.18288925633897 123.57596313836257,149.12095141509326 123.30410853705689,149.04016247421077 123.04262127223774,148.9741844593127 122.85716114168463,148.9270570967201 122.56341994112154,148.85165295413572 122.2984768974784,148.78432744987367 122.03238192755816,148.71565506915704 121.75361576858995,148.64428926185246 121.53474977601581,148.59581414597142 121.29745296301553,148.51636841847903 121.08895430692792,148.35747547781193 120.91962114424678,148.19184767670959 120.71342634071334,147.99389943228016 120.52220657878206,147.80537443606863 120.34711378471548,147.6397394591595 120.11903238192463,147.5050752895413 119.83220273902407,147.45255587763768 119.58684244208416,147.4943020944902 119.44745936260006,147.55759448497975 119.21131447586959,147.7366967800881 118.98092922053183,147.93330241623062 118.76551900678169,148.0693086498477 118.5282221937814,148.16356954432194 118.27940611801023,148.2133928783178 118.05247664149647,148.22955175562038 117.8854473313695,148.23493804350164 117.66542941251828,148.249750323439 117.41085370536166,148.26860229118574 117.15973377703631,148.28880079711143 116.91552540637349,148.30361301444555 116.65288621528452,148.32381146488478 116.39485472929664,148.34131676270135 116.18635607320903,148.34939612281778 115.93178036605968,148.377673842886 115.67029310124053,148.39517906672063 115.43760399334133,148.42480323690506 115.19109177012433,148.44096184616046 114.92960450531245,148.45846698307196 114.67387687188602,148.52579420864913 114.44464354281081,148.65506148478835 114.2568795597108,148.8301088314629 114.13938307947683,148.9943818470847 114.04838090362318,149.21520453229368 114.00691155765526,149.42255893701986 114.00806348393235,149.72415932305466 114.03110200946685,150.00824958926205 114.05298860872426,150.30714341460953 114.07372328170459,150.58718172191584 114.09560988096928,150.85240464008075 114.11864840650378,151.13512350381188 114.1405350057612,151.43533714968726 114.15205426852481,151.75439054257004 114.14975041597063,151.98324249084817 114.14399078459246,152.30632060395237 114.1198003327736,152.61862166825267 114.09791373352346,152.91610824403506 114.08063483936712,153.18532088504526 114.06105209266389,153.46664202494958 114.03801356712938,153.73988102156 114.01727889414906,154.03195761644656 114.0564443875628,154.3186438092598 114.17970049916767,154.57033013403543" stroke="red" stroke-dasharray="none" stroke-linecap="round" stroke-linejoin="round" stroke-width="0.5"><title>2024-04-21 79.4km</title><desc>1713660889000</desc></polyline><polyline fill="none" opacity="1" points="19.176029180031037,194.40537151983517 19.46085344417952,194.43915215490233 20.022246196742344,194.27266139814128 20.494889359739318,194.4415650554929 20.620789940272516,195.08097472428926 20.72398713743314,195.78792381491985 20.740498688988737,196.3718038285915 20.87052715739992,196.45624804931322 21.592907537531573,196.30907363390543 22.053167036858213,196.56481873137272 22.123341130944027,197.13902842081188 21.8797957456336,197.36340055274013 21.86534813803155,197.4502536893997 22.13159690671455,197.2065815526912 22.03252759743191,196.5213905204928 21.584651761753776,196.26805764419805 22.07380647629907,196.14742195334293 22.560897246890818,195.94957804059777 23.252318467879377,195.6721111286697 24.036617166289943,195.38498964384235 24.63722485377366,195.23298269008592 25.330710018693935,195.03513085342092 25.644429498061072,195.3536232124443 25.80954501352244,196.02437289207228 25.97466052897653,196.72646745711063 26.17899097935151,197.3416872169637 26.414280588876863,198.02444111618206 26.680529357559863,198.79643507261244 26.924074742855737,199.51050625264907 27.182067735768214,200.25109028081715 27.36782269064861,200.81314617313728 27.660902730582166,201.65499801720944 27.869361068849685,202.23390392253532 28.10671462232858,203.0033436534286 28.31517296058155,203.587039271506 28.511247635193286,204.14418936427865 28.717642029521812,204.76885665130067 28.961187414817687,205.47309427878645 29.18822124856524,206.1363119330108 29.42763874598313,206.83568425294652 29.61958553270233,207.3662282939822 29.869322749829735,208.11138072760332 30.088100807814044,208.74799658150187 30.38324479169387,208.86615439228262 31.041642909578513,208.63707236681148 31.456495642160007,208.95537519180834 31.821813720111095,209.60643535344934 32.1087019282204,210.00429632840132 32.32747998619743,210.9036777540041 32.500851277436595,211.39072746495003 32.785675541592354,212.09717223052576 33.1055868527983,212.89521157786112 33.382155341183534,213.56785756571298 33.586485791558516,214.0910129968488 33.82383934503741,214.66478262050077 34.04261740302172,215.23853785866595 34.23250024578738,215.89665115503703 34.43063886433811,216.53787155028112 34.67005636174872,217.26585187982528 34.89915413944982,218.05406937791304 35.10348458983208,218.91215910339452 35.194298123329645,219.39662814295298 35.21080967487069,220.00159747689395 35.25002460979886,220.50773483926787 35.33051842358691,221.24281918249653 35.454355060181115,222.04776972704894 35.56580803311226,222.71291709440266 35.67106917421188,223.38286484614218 35.74537115617568,224.04556367002988 35.80316158656933,224.61426446782752 35.83824863361224,225.20222841735085 35.91874244740029,226.08896518302936 35.97446893386223,226.72508129112066 36.01987570061465,227.22866068824987 36.073538243130315,227.864745164341 36.11481712201203,228.33697828213735 36.1292647296068,228.88388917352313 36.158159944810905,229.6283416205806 36.189119103961275,230.31013284776782 36.18705516001501,231.30989604112983 36.193246991846536,232.00609092793093 36.182927272129746,232.69744694083784 36.23658981465269,233.26352432459498 36.27993263746612,234.04637428083151 36.26135714197153,234.63650504733778 36.213886431280116,235.29887864082957 36.59984394865751,235.40244805554175 37.35111954399326,235.46747977465202 38.09001147566596,235.5228770196045 38.68029944342561,235.56863986019744 39.456342366065655,235.63848823036824 40.19936218563089,235.69388506239557 40.7648828260717,235.74687321134115 41.49139109408134,235.807086868419 42.15598104379751,235.86007475591214 42.88042536786088,235.9178795845237 43.47484122352034,235.96123311040355 44.10021623830835,236.00699507662466 44.68224843029748,236.05516546878243 45.274600342003396,236.10574427169377 45.825673374842154,236.14187191979363 46.30657231360965,236.33455174890696 46.30863625755592,237.05949510942446 46.28593287417607,237.91446531978 46.30038048177812,238.53821222181068 46.26735737868148,239.25104506681055 46.25910160291096,239.99275303829563 46.2322703316604,241.1341658887177 46.217822724051075,241.9649053811645 46.10224186323467,242.84377096351818 45.83186520667368,243.42163685145533 45.49957023180468,243.95614985152133 45.478930792385654,244.12468740683835 45.70802857007948,243.72260290892154 46.164160181520856,243.826134320876 46.69665771887958,244.22580934635334 47.24153891988681,244.690483011158 47.850402383141045,244.8710531423112 48.23429595656489,245.26348733208397 48.8823743547473,245.46572073828793 49.689376436537714,245.79554997355808 50.31887933922553,246.084447602605 51.06396310272976,246.3829713356463 51.58201303247188,246.68871339583893 52.2032601593819,246.96315555907677 52.82450728628464,247.14370782589322 53.37764426306967,247.3531466777531 53.81726432297728,247.55536168860817 54.28165171020373,247.77442594195418 54.99990420244285,248.06811320226916 55.63766288089391,248.11385104431247 56.30638071849535,248.1571815475363 56.8884129104772,248.27032192069964 57.5963456830068,248.44364226300422 58.184569706820184,248.70843470601721 58.832648104995314,248.9684097723857 59.53851693357137,249.26689603631712 60.194851107517025,249.52445768017606 60.89659204820782,249.80849427682006 61.56118199793127,250.14548229590036 62.05652854430082,250.40784811819503 62.51266015574947,250.6316991583535 63.063733188595506,250.9133151121623 63.66021298817941,251.23584538449722 64.19271052553086,251.5150470402532 64.76648694173491,251.7918384376262 65.37328646104288,252.11194954969505 65.9945335879529,252.41761539850995 66.61578071486292,252.73771779682102 67.11112726123974,252.99283380985435 67.78190904278745,253.32977514889353 68.40728405757545,253.6426448279999 68.98106047379406,253.97476336739055 69.45989546861529,254.20098629242602 70.0233521651171,254.49459145075525 70.56823336612433,254.7809731983907 71.01610920180246,255.00478166121138 71.5506706830929,255.26949853656697 72.11825526748726,255.60159357998782 72.47944545754581,255.85186493662513 72.95621650842077,256.31149081515287 73.38758079255786,256.7350122891039 73.93865382539661,257.28846609735774 74.49179080217436,257.86356268569943 75.03667200318887,258.41698934196575 75.55884982082353,258.93190479637815 75.99846988072386,259.3866569928723 76.36172401473596,259.75959520780634 76.59701362426131,259.9953852827075 77.00773846895754,260.3971852516479 77.16872609652637,260.6377806770506 77.36067288326012,260.78213672483434 77.76314195217856,261.2055759077575 78.24816877883859,261.6386306497643 78.7476432130934,262.1558798013375 79.29871624593216,262.7452890828299 79.7734233528754,263.2095886238203 80.0892067761888,263.7316137111229 80.25019440375763,263.79656531324326 80.3575194888108,264.0034469725997 80.5412104997522,264.21273234093496 80.6856865757727,264.4436657118076 80.79301166082587,264.6120531677152 80.79301166082587,264.780439392056 80.62789614537178,264.9728792832975 80.54327444369846,265.24229242881484 80.41943780710426,265.54778387806255 80.3987983676634,265.8292172955171 80.3719670963983,265.855676670677 80.3203684978289,265.5982978216707 80.33275216148468,265.3529433431777 80.5019955648313,264.87665953873875 80.76824433350703,264.50139869258055 80.70426207126002,264.3137659757267 80.55359416340798,264.1598097838414 80.34513582514774,263.9264679677017 80.61551248170872,263.6907181639235 80.36371132064232,263.5728423566525 79.91583548495692,263.18793755806837 79.54845346305956,262.77175200265265 79.12740889864654,262.37721077067 78.62380657650647,261.87199565971787 78.14290763773897,261.3691753235962 77.73837462485972,260.97701595293074 77.2863709013036,260.51507732441496 76.86119844900531,260.0892194363205 76.42777022091468,259.6104206472137 76.02117326409643,259.2374800143043 75.67236673770822,258.8861884698799 75.20797935048176,258.4025522939719 74.76010351479636,257.9646241991886 74.31429162307177,257.50743762308593 73.88086339498841,257.074305116299 73.58159152322332,256.77592020027987 73.15022723909351,256.3403675270238 72.73743845043646,255.91202591438923 72.42578291502286,255.570309468907 71.8829656579619,255.30800255550457 71.23075937189424,254.96146406421394 70.55997759035381,254.60529406179376 69.93253863161954,254.29484408677308 69.33399488808209,253.9964231055037 68.76434635975602,253.71243825253805 68.09562852216186,253.37309581994305 67.4991487225634,253.06744267487193 66.98935456858453,252.80992072924892 66.28967757184,252.45612419355166 65.70145354801934,252.14564519692613 65.09465402871865,251.82794141765226 64.48785450941068,251.50541945340774 63.89756654165103,251.19974147448738 63.31966223753989,250.9229429470197 62.793356532027246,250.65095505997306 62.126702638364804,250.30916040801094 61.56530988581653,250.03957230806736 60.9481906467845,249.72183941608637 60.41775705339387,249.4353946345218 59.92653839490231,249.19227483380928 59.35688986657624,248.8937876005948 58.82232838527125,248.61696129796474 58.28157507216383,248.35938948211697 57.82957134859316,248.1307018052794 57.65826400130027,248.35457502816644 57.15878956704546,248.30883766530496 56.58707709477312,248.1740322767182 56.01123673461552,248.10422203250528 55.342518897021364,248.0705204593778 54.68618472307571,247.94293548477253 54.31880270118563,247.76238949874278 53.87299080944649,247.55295437752466 53.299214393227885,247.27851925984396 52.72750192096282,247.09796805250517 52.180556776009325,246.93185968853322 51.83381419354555,246.8114905583534 51.25178200155642,246.47445363854604 50.6387906504242,246.1711161828207 50.09390944940969,245.97129646408575 49.5820513514991,245.7185099921644 49.014466767112026,245.48498096982803 48.4530740145492,245.30200811815484 48.03615733802144,245.15755483724934 47.89168126200093,244.8517923959589 47.38601499590732,244.79641766021996 46.91130788897135,244.4280518896212 46.529478259471944,244.08857232053924 46.08160242379381,243.77557252683982 45.75549928077817,243.55406240269986 45.43971585745021,244.05004949921567 44.94436931108794,243.75631086173235 44.48617375570029,243.44571428121344 44.00527481692552,243.10140463498465 43.56359081307892,242.77153670500957 43.080627930365154,242.41758555352862 42.62449631890922,242.0588131718887 42.186940202940605,241.7192985740876 41.72255281572143,241.46646529289137 41.28912458765262,241.24252491857078 40.81028959282412,241.04988628968204 40.40782052389841,240.90540625719586 39.93724130484043,240.75370124444999 39.49555730099382,240.62366757844393 39.06625696081028,240.50808147918542 38.63076478878793,240.41175928522716 38.17050528944674,240.37804642185802 37.528618723103136,240.34674157581867 36.96928991449386,240.3226608959685 36.385193778565736,240.29858019086168 36.04464302792621,240.08907699047995 36.038451196109236,239.67247299083283 36.04670697187976,239.29680047301008 36.048770915826026,238.8488752038138 36.061154579489084,238.2564444851323 36.08385796286166,237.75310718347828 36.102433458356245,237.26420918704935 36.147840225094114,236.7223150001446 36.20150276762433,236.26711399277337 36.22833403888217,235.76132450345358 36.29438024506817,235.30851302471092 36.31295574055548,234.78343320420026 36.34597884365212,234.29928932550501 36.32740334815753,233.7958652018715 36.3005720768997,233.3020652554751 36.29025235717563,232.764895192111 36.28406052535138,232.3770650383576 36.28199658140511,231.9025061759694 36.27786869351985,231.27135176206866 36.27374080562731,230.63295271660354 36.26548502986407,230.14872120884866 36.27580474957358,229.71025400572944 36.23658981465269,229.1199964509251 36.22214220705064,228.61886790413882 36.18705516001501,228.21169289294994 36.13339261749934,227.4720132735074 36.08592190680065,226.9419350195949 36.038451196109236,226.40702544421947 35.986852597525285,225.77571970194913 35.94350977471913,225.19740910204382 35.88571934431093,224.67691708230086 35.83412074572698,224.05038322762812 35.770138483487244,223.47202907674728 35.708220165201055,223.0021055776815 35.644237902954046,222.60447047190974 35.55548831338092,222.06704963270386 35.47912238749268,221.6019173816985 35.396564629765635,221.05001245713538 35.33877419935743,220.47881300562403 35.303687152314524,219.97026479628403 35.26034432951565,219.44242319352452 35.17985051572032,218.84467006551677 35.05807782307966,218.29269868154006 34.92598541070765,217.7985645378758 34.76706172708509,217.27549384804843 34.61020198739425,216.79339046185305 34.44302252800844,216.2775285935095 34.30473828380491,215.8050467749781 34.16026220777712,215.30362683014573 33.94973992557061,214.73951626044254 33.75779313885141,214.288699953815 33.57410212791001,213.7968902172106 33.402794780617114,213.35328805438803 33.18608066658635,212.85181438345535 32.96730260860204,212.31657555073252 32.76710004610504,211.8150791555272 32.56070565178379,211.274993819492 32.234602508753596,211.24364918975516 31.710360747179948,211.44377185676058 31.212950256864133,211.61495973678575 30.855887954683567,211.40760523932295 30.73205131808936,210.79999751638388 30.620598345158214,210.25747698174746 30.50088959644927,209.71976615429776 30.331646193102642,209.20615611540234 30.18097828525788,208.79381294794803 30.01379882585752,208.2608905887173 29.844555422510894,207.79547764489507 29.669120187340013,207.25288582840403 29.481301288506074,206.71992755335486 29.293482389672135,206.1845451936788 29.0974077150604,205.58885729186477 28.926100367782055,205.10168398742644 28.725897805277782,204.50355602815762 28.550462570114178,203.98259311671245 28.379155222828558,203.49297362998368 28.197528155818873,202.99610766377737 28.03860447219631,202.51129113798925 27.887936564344272,202.07953044852184 27.671222450298956,201.43790452126996 27.485467495411285,200.89757397528774 27.301776484469883,200.36205520055955 27.142852800847322,199.88924440670962 26.98392911721021,199.4333104444995 26.83738909724343,199.00631641824293 26.626866815029643,198.38390404842903 26.45143157986604,197.85556395977983 26.249165073422773,197.27172188346594 26.040706735155254,196.62513555390797 25.920997986453585,196.11605656932443 25.786841630149866,195.58042566877157 25.644429498061072,195.01582814341418 25.530912581190933,194.81073584166552 24.928240949768224,195.01100246336136 24.342080869893834,195.16301089503395 23.780688117338286,195.3512104082456 23.31010889828758,195.52251887282728 22.695053603201814,195.74931965144788 22.220346496265847,195.9761181772301 22.07793436418433,195.97370543881334 22.06142281263601,196.0123092229187 21.590843593585305,196.16913642473264 20.920061812037602,196.28494659005628 20.790033343619143,195.79516208831228 20.740498688988737,195.41394323457098 20.647621211537626,194.87347015307932 20.52584851888969,194.27266139814128 20.2864310214718,194.09651768144613 19.69614305371215,194.3595262922954 19.268906657467596,194.32815845198093" stroke="red" stroke-dasharray="none" stroke-linecap="round" stroke-linejoin="round" stroke-width="0.5"><title>2024-04-05 108.1km</title><desc>1712276378000</desc></polyline></svg>