<?xml version="1.0" encoding="utf-8" ?>
<svg baseProfile="full" height="300mm" version="1.1" viewBox="0,0,200,300" width="200mm" xmlns="http://www.w3.org/2000/svg" xmlns:ev="http://www.w3.org/2001/xml-events" xmlns:xlink="http://www.w3.org/1999/xlink"><defs /><rect fill="#222222" height="300" width="200" x="0" y="0" /><text fill="#FFFFFF" style="font-size:12px; font-family:Arial; font-weight:bold;" x="10" y="20">Over 10km Runs</text><text fill="#FFFFFF" style="font-size:4px; font-family:Arial" x="10" y="280">Runner</text><text fill="#FFFFFF" style="font-size:9px; font-family:Arial" x="10" y="290">yihong0618</text><text fill="#FFFFFF" style="font-size:4px; font-family:Arial" x="65" y="280">SPECIAL TRACKS</text><rect fill="yellow" height="2.6" width="2.6" x="65" y="283" /><text fill="#FFFFFF" style="font-size:3px; font-family:Arial" x="70" y="285.5">Over 20.0 km</text><rect fill="red" height="2.6" width="2.6" x="65" y="287" /><text fill="#FFFFFF" style="font-size:3px; font-family:Arial" x="70" y="289.5">Over 40.0 km</text><text fill="#FFFFFF" style="font-size:4px; font-family:Arial" x="120" y="280">STATISTICS</text><text fill="#FFFFFF" style="font-size:3px; font-family:Arial" x="120" y="285">Number: 5</text><text fill="#FFFFFF" style="font-size:3px; font-family:Arial" x="120" y="290">Weekly: 1.2</text><text fill="#FFFFFF" style="font-size:3px; font-family:Arial" x="141" y="285">Total: 317.5 km</text><text fill="#FFFFFF" style="font-size:3px; font-family:Arial" x="141" y="290">Avg: 63.5 km</text><text fill="#FFFFFF" style="font-size:3px; font-family:Arial" x="167" y="285">Min: 18.7 km</text><text fill="#FFFFFF" style="font-size:3px; font-family:Arial" x="167" y="290">Max: 108.1 km</text><polyline fill="none" opacity="1" points="72.8889742604224,35.7868632573809 73.45601229346357,35.54433263205283 73.8155973876128,35.641344928357285 74.00922013062518,36.158742802756024 74.2305032654549,36.78931909610401 74.39646561653353,37.452229832604644 74.52093737991527,37.82410532938957 74.61774875142146,38.32532739483577 74.71456012292765,38.85888456304383 74.8252016903134,39.4247764958709 74.93584325769916,40.00683458572894 75.04648482520133,40.621226833580295 75.12946600071155,41.15477599436417 75.22627737221774,41.688323294350994 75.32308874378214,42.238036748138256 75.40606991923414,42.771580270229606 75.50288129079854,43.38596141495509 75.6135228581843,44.04884356712864 75.72416442562826,44.74405834842764 75.86246638494777,45.45543764512695 75.94544756051619,46.21531642210903 75.97310795233352,46.76501361031842 75.94544756051619,47.05602896923665 76.13907030347036,47.767397516348865 76.20822128310101,48.688938216655515 76.2635420668521,49.56197165491176 76.31886285054497,50.12782400054857 76.2635420668521,50.30566287699912 76.20822128310101,50.4996686882223 76.19439108716324,51.14635294927575 76.45716480980627,51.922370454863994 76.66461774869822,52.698384024814004 76.83058009983506,53.506727308558766 77.05186323472299,54.41206671688997 77.25931617361493,55.20423430518713 77.16250480210874,55.786232369122445 77.6465616596397,56.15806330664782 77.89550518628675,56.83705660041596 78.13061851705424,57.45138127016253 78.39339223969728,58.01720444211969 78.22742988856044,58.51836036151508 77.66039185546106,58.68002321125823 77.06569343060255,58.85785214869247 76.34652324242052,59.148844509691116 75.68267383793136,59.375171519015566 75.01882443332579,59.56916583205748 74.79754129849607,59.81165837746812 74.63157894735923,59.989485999933095 74.8252016903134,60.66846229408111 75.11563580483198,61.395933552106726 75.35074913559947,62.188064989226405 75.58586246636696,62.915529023943236 75.91778716864064,63.67532110174943 76.65078755281866,63.98247001999698 76.92739147134125,64.66142859938554 77.30080676142825,65.40504644460452 77.60507107182639,66.13249518857629 77.95082597003784,66.81144423011574 78.26892047637375,67.50655560483574 78.58701498270966,68.20166382266325 78.90510948904557,68.91293408011552 79.22320399532327,69.59187078796094 79.54129850171739,70.2869695355912 79.87322320399107,70.94973516915343 80.21897810214432,71.64482775046781 80.5094122166629,72.32375234083156 80.84133691893658,73.03500344375789 81.14560122933472,73.74625124190061 81.46369573567063,74.4251665117481 81.76796004606877,75.05558513764117 82.21052631578641,75.44353377082734 82.47330003837124,76.07394820274203 82.59777180175297,76.36490783415502 82.41797925473657,76.8175106060371 81.85094122163719,77.0761401605414 81.22858240490314,77.3347692781681 80.48175182478735,77.6903836014244 79.76258163654711,78.09448978416913 78.9327698808629,78.43393815333548 78.11678832117468,78.83804237324512 77.39761813287623,79.2744737326866 77.0933538225363,79.419950576048 76.34652324242052,79.77556005549559 75.6135228581843,80.11500469715975 75.00499423744623,80.42212062914041 74.28582404914778,80.76156383717898 73.45601229346357,81.14949801050534 72.7506723011611,81.4889396057988 72.0591625047382,81.81221661588643 71.60276603914099,81.99001868047344 71.16019976948155,82.20014812692534 70.57933154050261,82.49109611517633 70.02612370339921,82.83053473586915 69.41759508254472,83.21846366659156 68.72608528618002,83.70337344774453 67.97925470612245,84.25293600973964 67.27391471381998,84.75400603812886 66.59623511333484,85.15809357627586 66.00153668841813,85.57834348453616 65.3653476756881,85.9501020572643 64.97810218977975,86.12789931643056 64.99193238565931,86.11173593773856 64.59085670381319,86.35418643856246 63.940837495203596,86.64512653269048 63.23549750284292,86.93606607404945 62.55781790241599,87.16235200176015 61.85247791005531,87.40480083884904 61.06415674218442,87.7119021481194 60.44179792545037,87.90586055236054 59.70879754127236,88.16447137587238 58.865155589650385,88.4715711614117 58.04917402990395,88.7463441316504 57.205532078340184,89.03727968031308 56.47253169422038,89.31205163532286 55.67038033035351,89.57066008374386 54.82673837878974,89.87775704894739 54.1075681905495,90.10403862917155 53.47137917787768,90.28183106472716 52.93200153671205,90.47578621357388 52.60007683438016,90.55660078646906 51.97771801770432,90.79904424901179 51.34152900497429,91.07381304255978 50.594698424916714,91.36474416889541 49.79254706110805,91.62334915045358 49.018056089116726,91.88195369527966 48.17441413749475,92.1890460249997 47.37226277368609,92.49613773880992 46.61160199769074,92.80322883679764 45.837111025699414,93.07799403394165 45.048789857828524,93.33659612212796 44.260468689957634,93.62752294924576 43.40299654239789,93.86996154967346 42.72531694202917,94.12856230030593 42.50403380714124,94.1447248327604 41.85401459853165,94.4033251193905 41.065693430718966,94.67808744545619 40.29120245866943,95.00133660963911 39.51671148673631,95.29226027404366 38.89435267000226,95.48620907652366 38.14752208994469,95.69632000205456 37.23472915869206,96.0195670168614 36.44640799082117,96.37513794499682 35.83787936990848,96.8115193193662 35.353822512493934,97.24789945020166 34.96657702646917,97.65195401820529 34.745293891697656,97.94287264700688 34.17825585859828,98.37924955398194 33.44525547447847,98.78330113689299 32.65693430660758,98.99340753868455 31.951594314246904,99.12270364274445 31.315405301575083,99.20351365224633 30.859008835977875,99.23583764418436 30.084517863986548,99.44594342511846 29.116404149099253,99.60756306044641 28.245101805659942,99.78534446237609 27.34613907028688,99.9469637395232 26.488666922727134,100.07625903842563 25.645024971221574,100.22171611928206 24.773722627782263,100.35101118622697 23.8747598924092,100.4964680060948 23.100268920476083,100.64192468780675 22.36726853629807,100.77121940001962 21.49596619285876,100.90051400304947 20.63849404535722,101.04597030098375 19.822512485610787,101.17526467209973 18.96504033805104,101.27223537878308 18.17671917018015,101.46617660793709 17.31924702267861,101.59547062423371 16.53092585480772,101.74092626213678 15.714944295061287,101.87022004653409 14.88513253943529,101.96719031315297 14.304264310398139,102.08032221329631 14.0,102.16113066229445 14.373415290086996,102.12880728782329 14.650019208609592,102.64598046056926 14.968113714945503,103.24395976455708 15.1064156742068,103.47022159502376 15.424510180542711,104.00355173001299 15.631963119492866,104.45607281241973 15.618132923555095,104.7308171029872 15.81175566650927,105.15101329996833 15.894736842077691,105.32878826698288 15.714944295061287,104.8924311613082 15.604302727617323,104.55304144184629 15.43834037653869,104.19748950049689 15.300038417219184,103.92274425318465 15.17556665383745,103.68032156690606 14.981943910825066,103.3086060359492 14.70533999230247,102.80759671893611 14.608528620854486,102.48436403171218 15.147906262020115,102.38739409251139 15.880906646198127,102.25810074475885 16.558586246625055,102.14496897593199 17.31924702267861,102.01567542349221 18.079907798732165,101.88638176191307 18.868228966544848,101.74092626213678 19.642719938536175,101.62779411127849 20.417210910469294,101.54698538093362 21.164041490585078,101.38536779228889 21.938532462576404,101.23991181666497 22.643872454878874,101.12677929570782 23.32155205536401,101.01364669116447 24.096043027297128,100.86819036255474 24.925854782923125,100.75505756693019 25.728006146731786,100.60960099268414 26.502497118723113,100.48030614401796 27.26315789477667,100.36717306190985 27.982328082958702,100.25403989621555 28.715328467194922,100.10858284613641 29.420668459497392,100.02777331414109 30.126008451799862,99.91463989773183 30.63772570108995,99.84999219367455 30.95582020742586,99.8661541222391 31.42604686896084,99.73685864591971 31.993084902060218,99.639886967052 32.573953130980954,99.54291522680433 33.32078371109674,99.38129552319879 34.03995389933698,99.05805560432782 34.67614291206701,98.70249090560537 35.118709181726445,98.31460120175325 35.50595466775121,97.86206197222054 35.907030349597335,97.39335921748716 36.36342681519454,96.97314173507039 36.97195543604903,96.64989673312812 37.74644640798215,96.35897564800689 38.47944679216016,96.13270331083913 39.22627737221774,95.80945653484378 40.02842873608461,95.53469623871206 40.872070687648375,95.25993544969242 41.70188244333258,94.9690117239661 42.55935459083412,94.66192496934673 43.333845562825445,94.38716261426453 44.108336534700356,94.12856230030593 44.896657702629454,93.86996154967346 45.643488282803446,93.59519777350943 46.34882827504771,93.32043350439926 47.026507875474636,93.07799403394165 47.745678063773084,92.86787951574661 48.464848252013326,92.60927663605253 49.19784863613313,92.35067331956816 49.958509412186686,92.09206956636626 50.663849404489156,91.84962815110339 50.968113714887295,91.78497704213078 51.50749135616934,91.62334915045358 51.89473684207769,91.46172108812607 52.12985017284518,91.39706981547351 52.655397618189454,91.20311583364673 53.26392623898573,91.02532446775876 53.983096427167766,90.73439269651135 54.71609681134578,90.44346037255309 55.490587783337105,90.16869044778286 56.22358816745691,89.8939200300374 56.956588551576715,89.6191491192003 57.71724932768848,89.34437771527155 58.381098732177634,89.11809501238167 58.934306569281034,88.94030122550612 59.29389166343026,88.7948334281391 59.750288129085675,88.64936549257254 60.427967729454394,88.42308176253573 61.077986938122194,88.1806345378136 61.67268536303891,87.97051329920941 62.22589320014231,87.76039177224447 62.806761429063044,87.56643318373244 63.470610833668616,87.34014785318868 64.16212063003331,87.06537235938595 64.78447944676736,86.77443306376517 65.1855551287299,86.59663655543409 65.78025355358841,86.28953300921421 66.40261237032246,85.83695823940798 67.01114099111874,85.43287249296554 67.60583941597724,85.0449491731124 68.17287744907662,84.60853426333051 68.60161352279829,84.25293600973964 69.14099116402213,83.88117331601097 69.63887821743265,83.54173702467233 70.15059546678094,83.21846366659156 70.74529389169766,82.86286218427995 71.43680368800415,82.49109611517633 72.18363426811993,82.18398433362017 72.9857856319286,81.79605278161762 73.80176719173323,81.44044799542462 74.59008835954592,81.05251455934194 75.24010756821372,80.74539989198092 75.8901267767651,80.43828460852092 76.62312716094311,80.08267666843312 77.35612754512113,79.75939600614947 78.1029581251787,79.43611466120637 78.84978870529449,79.12899675112567 79.52746830577962,78.82187822496053 80.19131771026878,78.49859490018571 80.91048789856723,78.15914667437028 81.57433730305638,77.8520262025122 82.22435651166597,77.52874082961353 82.98501728766132,77.14079748095537 83.81482904334553,76.78518188100134 84.49250864383066,76.47805865258852 84.7967729542288,76.34874342469266 85.37764118320774,76.02545487706084 85.97233960812446,75.68600116725429 85.58509412209969,75.34654670467717 84.9350749135483,75.66983668610919 84.34037648863159,75.91230372407881 83.71801767189754,76.23559251066763 83.06799846328795,76.57504500182404 82.5839416058152,76.33257901352772 82.3073376872344,75.63750771869672 81.86477141757496,74.87777501886012 81.50518632348394,74.08570925320964 81.17326162121026,73.32596885152452 80.77218593924772,72.55005986843025 80.4126008451567,71.8388065121253 80.08067614288302,71.24070454078901 79.77641183248488,70.52944510028465 79.4444871302112,69.78585215135536 79.09873223205796,69.00992522278102 78.76680752972607,68.25015962705947 78.40722243557684,67.55505162943155 78.1029581251787,66.90843670447066 77.77103342296323,66.2456535713136 77.5497502880753,65.63136420217052 77.38378793693846,65.25955628095835 77.24548597773537,65.06556918086426 76.9965424509719,64.61293165790266 76.7199385323911,64.03096716129221 76.20822128310101,63.67532110174943 75.72416442562826,63.1095188492327 75.46139070298523,62.28506039365311 75.24010756821372,61.5575933620421 74.96350364963291,60.83012287248857 74.7422205148032,60.264310100945295 74.99116404145025,59.69849523741868 75.79331540531712,59.45600251268479 76.56780637725024,59.2620080561901 77.34229734918335,58.9871821552515 78.1029581251787,58.712355760711944 78.72531694197096,58.51836036151508 78.57318478671368,57.66154440683022 78.42105263157282,57.20888498463319 78.17210910480935,56.51372683625959 77.86784479441121,55.6892328455433 77.56358048407128,54.89706776790263 77.31463695730781,54.040231536651845 77.14867460622918,53.23189107123471 76.9965424509719,52.47204714009422 76.96888205915457,51.647531371723744 76.95505186315859,51.13018587608531 76.95505186315859,50.920013768816716 76.73376872838708,50.28949571488192 76.51248559349915,49.62664060029783 76.45716480980627,48.64043621288147 76.4018440261134,47.73506265414471 76.37418363423785,47.18536895108991 76.33269304648275,46.61950572326896 76.2635420668521,45.972802328833495 76.19439108716324,45.293760822707554 76.09757971571526,44.63088406443421 75.95927775639575,43.984172264128574 75.84863618901,43.35362562672526 75.7518248175038,42.658404527101084 75.6135228581843,41.88234003302932 75.41990011523012,40.78290859397384 75.29542835184839,39.89365679725597 75.14329619664932,38.97206311712216 75.01882443332579,38.11513769636804 74.81137149437563,37.27437601452402 74.5071071840357,36.239586062554736 74.18901267758338,35.36647659573646 73.9538993468741,34.832907246018294 73.94006915099453,34.75206324280589 73.69112562423106,34.67121919686906 73.31771033420227,35.15628283166734 72.62620053783758,35.447320274222875 71.9208605455351,35.7868632573809 71.17402996541932,36.110236826352775 70.48252016899642,36.41744108371495 69.63887821743265,36.74081331967318 68.85055704956176,37.11269054595323 68.15904725313885,37.387555740817334 67.66116019972833,37.177364753893926 67.3568958893884,36.530621444035205 66.96965040336363,36.546790060107014 66.37495197844692,36.83782485719712 65.72493276983732,37.12885910051409 65.61429120245157,37.533072408812586 65.96004610060481,37.71092592606146" stroke="#4dd2ff" stroke-dasharray="none" stroke-linecap="round" stroke-linejoin="round" stroke-width="0.5"><title>2024-05-25 18.7km</title><desc>1716643451000</desc></polyline><polyline fill="none" opacity="1" points="180.36004195125133,105.29790581212728 180.36004195125133,105.08075895810907 180.49253267335735,104.87808671876519 180.55256753180583,104.8756739433029 180.52979568894807,104.86843561538626 180.61881289284793,104.87808671876519 180.63744440065057,104.87084839160707 180.58983054739656,104.83706950152919 180.616742725324,104.86361006218249 180.6850582538973,104.69954065321144 180.7968473006622,104.83465672176862 180.64779523830657,105.10488648716637 180.63537423311936,105.16761794474041 180.59811121752136,105.29308034867063 180.64158473572024,105.40406575319867 180.75337378248514,105.44749467934344 180.7326721071513,105.51746333301344 180.6850582538973,105.58743177469114 180.63951456818177,105.67187616338742 180.52565535387112,105.74908219140525 180.54842719673616,105.93727080342433 180.54635702921223,105.93244547355789 180.54428686167375,105.74666950693972 180.60225155258377,105.59708257759667 180.50288351101335,105.59708257759667 180.54014652661135,105.43301837970284 180.62088306037913,105.26654028160556 180.60225155258377,105.14831597595003 180.4821818356868,105.32927130005373 180.19649871617003,105.21828553607884 179.9315172719871,105.10488648716637 179.69137783819315,105.02285278551608 179.86527191093046,104.66576151253503 180.04951682135288,104.40759073391382 180.29586675774044,104.09392141797798 180.45319949022814,103.9491495272996 180.579479709726,103.80196384122974 180.43456798243278,103.72957709405273 180.1447445278609,103.44726661160894 179.86527191093046,103.1335842491444 179.71829001611331,102.97191552110598 179.49471192257624,102.8198976246822 179.28355483423366,102.6075534905267 178.96888936926553,102.26249010674655 178.7101184276762,101.95361780806161 178.4016634652944,101.60371841451706 178.1387521886354,101.34551339201062 177.89654258731025,101.10902401478597 177.67917499638133,100.93286198562964 177.42454438985442,100.6770626729649 177.229948641776,100.47676500570196 177.09745791966998,100.33679692933765 176.95047602485283,100.19441473934967 176.6917050832635,99.90964772412372 176.59233704168582,99.79139598189977 176.393600958545,99.62729051940187 176.13897035202535,99.36665003334019 175.91746242601948,99.13979388080406 175.65248098182929,98.8598406608944 175.39992054284085,98.59436464247483 175.14321976877545,98.33371248918411 174.89479966484942,98.07788436444207 174.64844972846186,97.8244669160249 174.39795945699734,97.59035499026322 174.1495393530713,97.34417287704491 173.97150494525704,97.17039568611835 173.7727688621162,96.97248117992785 173.4374017217997,96.62974716542885 173.07512240358483,96.24838924883807 172.7687376087415,95.9321953095423 172.60726454118412,95.75358002355642 172.3650549398517,95.65461690479606 171.9862142813654,95.45668939350799 171.64670680600102,95.27082908667217 171.2368136345176,95.05841547354794 170.89109565655235,94.86531049133737 170.5433075110559,94.69634230564952 170.16446685256233,94.51047587161702 169.77320518887427,94.31012466130414 169.44818888623558,94.14598020394806 169.09212007060705,93.97459283259013 168.71948991471436,93.79837631994451 168.3758421042803,93.61491660213687 168.01770312112058,93.42662747937902 167.67198514315533,93.25282077073098 167.45461755221913,93.14177690992074 167.18342560542806,93.0065923576276 166.85012863266456,92.83519651800452 166.471287974171,92.64690102840541 166.0841666455599,92.44411955074247 165.72809782992408,92.25340677182066 165.361678176625,92.0578641833963 164.9869778532011,91.87680475245543 164.63918970770465,91.6957438996451 164.28933139466972,91.51226745162057 163.92291174138518,91.31430438324787 163.52750974262744,91.12841068611306 163.20249343998876,90.96424357731121 162.9105998178784,90.81214653617462 162.5358994944545,90.61659172303371 162.1901815164747,90.44034954427298 162.0721819671162,90.37516373954713 161.9003580619028,90.31239204967278 161.51944723587803,90.11200435738283 161.11162423192582,89.90920058190932 160.72864323837712,89.70156629655685 160.3539429149605,89.50600206153649 159.96475141879637,89.31285057111018 159.5734897551156,89.10521091360533 159.1967192641605,88.91929940047339 158.84686095112556,88.7454587067914 158.48044129782647,88.54747187524117 158.12437248219067,88.37604287888826 157.92149606398743,88.34706883803847 157.78900534189597,88.53781393750978 157.7186196457842,88.71165619741623 157.6544444522733,88.85169484206926 157.5654272483589,88.98931819833888 157.50953272498737,89.11728303793097 157.46605920679576,89.22834628506644 157.47433987692784,89.20420214642945 157.501252054848,89.11728303793097 157.52816423277545,89.10762533897287 157.54886590810202,89.0545079223757 157.68756713278708,88.75753101955706 157.73725115357956,88.62956418253088 157.53644490290753,88.54022842232553 157.25490211846045,88.48952418815315 156.89676313529344,88.40260238433257 156.691816549559,88.32533828349551 156.41648426769825,88.29636417890288 155.9610474104993,88.2698045510133 155.50354038576916,88.2504884387854 155.05638419868774,88.20219808738148 154.68996454539592,88.04766828288848 154.42084276614332,87.92211205376225 154.1185983063624,87.77482406689705 153.7314769777513,87.59131640553642 153.3112329686046,87.40297807565003 152.88063812179462,87.27258909937882 152.45418361005432,87.147028647134 152.1001849619497,87.04078465314706 151.8807472034896,86.93454016929536 151.59092374890315,86.76551384444247 151.21622342547926,86.55302184831453 150.83324243192328,86.36950445642287 150.44819127084338,86.23669490587963 150.05899977467925,86.07007820528088 149.76710615257616,85.92519313837875 149.40482683433947,85.74891507834218 149.02805634338438,85.62817590277882 148.65335601996048,85.50502129183587 148.30556787446403,85.40118453968898 148.14409480691393,85.29976214392627 148.05300743546832,85.06793784832917 147.93914822116494,84.8723342843241 147.94328855623462,84.49561162949612 148.0509372679444,84.109223019399 148.1772174874277,83.72041293804796 148.21655067054962,83.3364263540443 148.2248313406817,83.07560162713526 147.88532386531733,82.87515098712174 147.54374622242176,82.67711370182042 147.5499567250081,82.3824697111304 147.3595013120066,82.18925849044172 146.9930816587148,81.9912153069181 146.65978468593676,81.8028311859216 146.39687340928504,81.62893678330147 146.4092944144868,81.27389830040192 146.4155049170804,80.82707338212822 146.4175750846116,80.5034218101373 146.4237855872052,80.23773428360255 146.42792592227488,79.98653598426608 146.4237855872052,79.80055086220455 146.421715419674,79.5276089367162 146.43206625734456,79.00828571775673 146.44655743006297,78.5275993676496 146.4631187703344,78.09763020785613 146.46104860279593,77.65315926299809 146.4672591053968,77.21351108018098 146.47139944046648,76.805258818933 146.48796078072337,76.39699931550967 146.41343474954192,76.33660528289874 146.2643826871863,76.247221823769 145.8337878403836,76.21340096491804 145.4611576844909,76.18682739808355 145.05126451300748,76.153006450475 144.60410832593334,76.11918545315712 144.22733783498552,76.09019598731538 143.79260265311314,76.05395910366133 143.42204266475164,76.01289056653695 143.05976334652223,75.9983957712393 142.80099240492564,75.98390096680669 142.40145007111278,75.9524955258712 142.01018840742472,75.92109004207668 141.64376875414018,75.86552638882495 141.2752789333099,75.85344731601981 140.8860874371603,75.83170496898856 140.56935180464643,75.73990372171284 140.56935180464643,75.32679357671623 140.5921236475042,74.96924196659711 140.59005347998027,74.60685290854963 140.60247448517475,74.24204215833743 140.61075515529956,73.83373717377617 140.61696565789316,73.47374629476144 140.62317616050132,73.19831322777281 140.62317616050132,73.12099808988205 140.62317616050132,72.89629949538357 140.62938666309492,72.73925078749926 140.6148954903765,72.4758897784177 140.61696565789316,72.28501156605671 140.6583690085463,72.13279109687028 140.6355971656958,71.8380120858892 140.63766733323428,71.5021527067147 140.6397375007582,71.07688487337691 140.6459480033518,70.67094006030675 140.62938666309492,70.32539805593478 140.66664967868564,70.00884802650762 140.62110599296284,69.63429847026418 140.6355971656958,69.2863243833508 140.62524632803252,69.00359156011109 140.61075515529956,68.73535464216366 140.60247448517475,68.66285764067106 140.60868498777563,69.02292382969244 140.57142197217763,69.16308229808783 140.3706157215056,69.3564029215504 140.01247673834587,69.36365241331077 139.65019742010918,69.34432043020206 139.60672390191758,69.11475188825534 139.3044794421512,69.05433873310358 139.07676101355173,69.05192220359459 139.23823408110184,69.06158832010806 139.60465373439365,69.11958493380916 139.96279271755338,69.18966398019984 140.3209317007204,69.24282725221565 140.56935180464643,69.30323991213118 140.5672816371225,69.6874607142745 140.55693079944467,69.97018512887553 140.23191449681326,69.98226729136331 139.98556456041115,69.9653522621029 139.60051339933125,69.95810296003947 139.17819922266062,69.94118791300025 138.80142873169825,69.92427285351732 138.41430740307987,69.90735778159433 137.9754318861378,69.89527557974361 137.58210005492583,69.88560981369119 137.16392621330306,69.87594404357696 136.73540153403155,69.86627826939912 136.3379293677499,69.83969736946528 136.30687685475277,69.50864176856157 136.29652601710404,69.07850401421638 136.2882453469574,68.77885273333777 136.2799646768326,68.6169427548266 136.25719283396757,68.31728545833903 136.23235082357132,67.99104121893288 136.20336847811996,67.62854218965003 136.1723159651374,67.26845416146352 136.15161428980355,67.05819881191383 136.1267722794073,66.75127088341287 136.08950926381658,66.37183462977373 136.05638658329553,66.0189774610044 136.03361474043777,65.66611487508635 136.00463239497913,65.34708376434173 135.973579881982,65.13681083818665 135.93838703392976,64.74284603891283 135.91147485600231,64.32470423189443 135.88663284561335,63.96456443826719 135.83694882482087,63.55607690094439 135.78105430144205,63.17900503628516 135.72515977805597,62.830933207138514 135.68168625987892,62.5626242398248 135.61130056376714,62.134773728772416 135.55747620791226,61.79635525140293 135.4995115169877,61.45551446025274 135.45810816634184,61.196858853634694 135.41670481568872,60.83183523855041 135.40014347541,60.54899838264646 135.37530146502831,60.21539146062605 135.34838928710087,59.85276974511362 135.3318279468367,59.52398777432791 135.2883544286451,59.17586055735592 135.2200389000718,58.815640034537864 135.13516203122708,58.4529962168308 135.05442549745203,58.133864919891494 134.9654082935449,57.8123114757982 134.86604025197448,57.47624704895861 134.75632137274806,57.14259548593145 134.66937433636485,56.876637868721446 134.55758528959268,56.55023112778326 134.4892697610194,56.29393813803654 134.3774807142545,55.90949328858733 134.30502485060424,55.57823690249279 134.19323580383934,55.30742521072534 134.0669555843342,54.96890610311311 133.92618419211067,54.613455666991285 133.85165816094377,54.451445818907814 133.71088676872023,54.112914086861565 133.61151872714254,53.80823125871757 133.51629102063453,53.55674397248549 133.34032678034418,53.174671475462674 133.20783605826,52.836120909592864 133.06706466603646,52.485473986667785 132.93457394393772,52.15416817798723 132.82692523223523,51.883316079851284 132.71513618547033,51.602787321953656 132.61990847896232,51.3270919251263 132.53089127506246,51.16505887434687 132.25555899319443,51.312581549318566 131.8953498425035,51.44075621814227 131.54135119441344,51.5882771204997 131.22461556189955,51.68501162354187 130.94721311251487,51.64148114764612 130.86026607614622,51.24002953262607 130.7815997098951,50.86517379146244 130.70500351118972,50.51207826589962 130.6201266423377,50.12511802405788 130.53524977350753,49.728477002070576 130.42139055920416,49.37536398031443 130.30339100983838,49.04643189188391 130.2412859838587,48.85535888058075 130.11086542929843,48.4659519934321 129.97837470719242,48.10556333151544 129.84795415263216,47.70404983106164 129.7237441006655,47.336392749766674 129.63472689675837,47.08241566591278 129.4960256720733,46.673627595233484 129.36353494998184,46.30595399334561 129.23932489801518,45.91166588248234 129.12132534865668,45.56091309152907 129.00539596681483,45.24160243674123 128.89360692004993,44.92470640535794 128.7611161979512,44.532813652274854 128.6513973187175,44.208650386681256 128.5416784394838,43.908674326055916 128.4278192251877,43.55305245929776 128.31603017841553,43.233713836709285 128.2352936446332,42.99178767591002 128.1152239277435,42.65792538064852 127.99722437837772,42.31196149473362 127.88957566666795,41.99986371860541 127.74466393938928,41.58614616198611 127.60803288222814,41.184518465530346 127.50452450558805,40.87482483296117 127.37617411855172,40.49979959688062 127.26438507178682,40.168320568453055 127.13603468476504,39.79570338091071 127.02631580552406,39.48115168758886 126.94350910421053,39.202890820610264 126.85242173277948,38.9367250897958 126.70751000547898,38.54714967216023 126.59986129377648,38.23016105901115 126.49014241455006,37.91316805952192 126.36593236257613,37.542934040935506 126.25207314828003,37.22109176417325 126.12372276125825,36.83390709283958 126.03677572487504,36.50963489438436 125.9643198612248,36.19503807540423 125.87737282486341,35.83929646632532 125.79042578848748,35.510170056493735 125.69105774691707,35.13021677466713 125.70347875211155,34.880944636484855 125.55235652222473,34.82286141836994 125.3536204390839,34.902725805286536 124.99755162344809,34.994690511861336 124.60836012729123,35.11085592908603 124.24608080907637,35.2294408513535 123.87966115577728,35.338344830866845 123.52980284274236,35.47628912812797 123.17580419464502,35.604552378326844 122.80317403875233,35.7642754214703 122.46780689845036,35.85623666824904 122.1883342815272,35.97239771532804 122.01237004125142,36.04499807055436 121.83433563343715,36.110338193486314 121.51760000093054,36.19503807540423 121.15532068269385,36.28215762714717 120.86963756319165,36.30393746329901 120.81995354239916,35.89253705875308 120.77648002422211,35.59245210238987 120.73507667356171,35.32624441428197 120.6895329878389,35.035832497855154 120.62535779432073,34.64861088004727 120.55911243327864,34.33156830504595 120.44111288390559,34.019361784849025 120.29413098908844,34.104069401068045 119.96911468644976,34.25412212341689 119.64823871888075,34.37513166710232 119.46399380845833,34.28074427789761 119.2611173902551,34.35334999643965 119.2259245421883,34.467098492605146" stroke="red" stroke-dasharray="none" stroke-linecap="round" stroke-linejoin="round" stroke-width="0.5"><title>2024-05-01 58.8km</title><desc>1714551575000</desc></polyline><polyline fill="none" opacity="1" points="19.112945842971385,114.31810196327206 19.366204198515334,114.20309637332139 19.63411386390362,114.09298410289921 19.879000042419648,114.00734086380544 19.97109398990142,114.27895118828019 20.021327052156266,114.52853624453383 20.059001848858315,114.80014045442476 20.107141866858,115.07418831970244 20.159467973375286,115.37025424328567 20.19714277007006,115.66631638114086 20.222259301197482,115.89386569933413 20.245282788069744,116.21928180641407 20.24737583233218,116.31470370754869 20.301794983104628,116.3709779777364 20.61575162223744,116.30002344065906 20.969476102305634,116.22906868616337 21.272967520133534,116.16056044103607 21.511574565869523,116.07737158518103 21.655994619861303,116.01375637610545 21.93436950656178,115.90609947030134 22.22739570307749,115.808229121576 22.56646887333045,115.61004039839827 22.872053335406235,115.4387648267093 23.1441490893194,115.29684982179606 23.46857094974257,115.30908390819968 23.75113192495337,115.24791341151831 24.035785944426607,115.15982761237501 24.349742583552143,115.06929463625966 24.64904791284789,114.98854871025469 24.93998106510844,114.90046192434966 25.119982871539833,114.91758993674375 25.19951855344698,115.23812611705034 25.289519456659036,115.61004039839827 25.369055138573458,115.93301374367911 25.448590820480604,116.26332273272419 25.51975432535255,116.55203339749278 25.546963900742412,116.66947399393212 25.64115089248662,116.94349973614771 25.747896149783628,117.25177482039362 25.833710964478087,117.51600734085514 25.929991000477457,117.79002306676739 26.022084947951953,118.06158902508469 26.124644116724085,118.3478307774858 26.237668506822956,118.68544470792403 26.32348332151014,118.98146446756255 26.377902472297137,119.10623199331712 26.465810331246757,119.345979470163 26.555811234458815,119.59061719490455 26.647905181947863,119.87194738454309 26.72116173106042,120.1092406274347 26.777673926109856,120.25112614760474 26.8823261391517,120.51532445586963 26.926280068633787,120.65231498515641 26.98069921941351,120.84312187254 27.072793166888005,121.12688305531447 27.17744537992985,121.45467181981621 27.28628368149657,121.78000981416153 27.388842850268702,122.08577444185175 27.449541133835737,122.23743220028882 27.568844656700094,122.56765130536405 27.658845559919428,122.89297367407198 27.734195153308974,123.05196414779493 27.81791692374827,123.2476432334879 27.886987384350505,123.47267213951818 27.972802199044963,123.75395519952872 28.058617013732146,124.03768074079744 28.14443182843388,124.29205241118689 28.184199669383815,124.45103328755977 28.257456218510924,124.62224224263991 28.37048060860252,124.92796937422645 28.47931891016924,125.24836708088333 28.59234330025356,125.61767497384972 28.715832911635516,125.97230284368561 28.826764257464674,126.29513177374065 28.93560255902412,126.6252930752562 29.05699912615819,126.97745994797879 29.159558294937597,127.30027488234373 29.291420083362027,127.66221355514426 29.408630561971222,127.99724634535778 29.532120173360454,128.34450150084922 29.640958474927174,128.67707902822076 29.737238510926545,128.91917290509627 29.74770373222418,128.91917290509627 29.84607681248599,128.90694600221832 29.900495963265712,128.9900888146858 30.20817346961121,128.86537448419585 30.54724663986417,128.7479956781317 30.871668500287342,128.64284332650823 30.99725115593901,128.8678198696689 31.14167120993079,129.14659212365586 31.307021706539672,129.43514233088172 31.461906981850916,129.7114624693604 31.612606168615457,129.99511511645142 31.729816647231928,130.01712250439414 31.790514930791687,130.33255943705262 31.874236701223708,130.70423155798017 31.972609781485517,131.06367195760868 32.04377328635019,131.29351528007464 32.131681145307084,131.45733838579872 32.24051944686653,131.71162867617204 32.3409855713835,131.96347112030526 32.44982387295022,132.25687634512542 32.59215088268684,132.60895771695687 32.71354744982091,132.91457957585226 32.832850972685264,133.22264233547503 32.970991893904284,133.53314589870024 33.042155398768955,133.70673269414328 32.88727012347226,133.76785449608724 32.88099099068495,133.7898583053793 32.89564230051474,133.7629647578633 32.88727012347226,133.75074040777145 33.0882023725062,133.78496857178106 33.18657545276801,134.0807955996679 33.31634419693728,134.4132908981028 33.46285729519877,134.7531157289086 33.61146343771543,135.12960649352317 33.730766960579786,135.45719738435764 33.82495395231672,135.77011570841023 33.93379225387616,136.13925611983723 34.01123489153542,136.41305183818258 34.105421883272356,136.65506500730953 34.2142601848318,137.00952418565612 34.310540220823896,137.32486607751343 34.406820256823266,137.66709274099594 34.492635071525,137.99464782221366 34.59519424030441,138.30264316034663 34.68100905499887,138.649744120552 34.7500795156011,138.97239669736882 34.81496388769301,139.2779347769665 34.852638684387784,139.54680496126093 34.87356912699033,139.79856240234403 34.896592613862595,140.13830840824085 34.923802189252456,140.53182095034754 34.95101176464232,140.6955788632622 34.967756118727266,140.9131062454453 35.00543091542204,141.30660565911967 35.05147788915929,141.65610575893697 35.10799008420145,142.0178206037599 35.16031619072601,142.35753414602186 35.21682838576817,142.71679414132996 35.24194491689559,142.83899015226598 35.27961971359764,143.06138524261587 35.32985277585249,143.37420110670973 35.371713661072135,143.67968128369102 35.39683019219228,143.89229311607596 35.419853679064545,144.14889101220433 35.411481502029346,144.23197924733722 35.459621520021756,144.4323672977971 35.48892413968133,144.77937666310936 35.511947626546316,145.10927512730814 35.52659893636883,145.40251427443582 35.52659893636883,145.47582348299147 35.553808511765965,145.67131357507242 35.58311113141099,145.94988411469785 35.60613461828325,146.23089487204743 35.62915810515551,146.47280575872173 35.65218159201322,146.7709147008518 35.67729812314792,147.1081152886327 35.69404247723287,147.31336542498138 35.727531185410044,147.63345428194953 35.74218249523983,147.8386997790749 35.76939207062969,148.0903673792418 35.79450860176439,148.39334223451442 35.80497382306203,148.63523061457272 35.827997309927014,148.82580756543211 35.83636948696949,148.99683683209514 35.83009035418945,149.2729242788464 35.84055557548709,149.57099731026574 35.855206885316875,149.86173699505525 35.851020796799276,150.11338269430598 35.884509504969174,150.4212174185559 35.88869559349405,150.82921430397982 35.89288168201165,151.2225458406956 35.89288168201165,151.58655481305505 35.89288168201165,151.9701017260286 35.89497472628136,152.37807143549253 35.9012538590614,152.68099042210633 35.89497472628136,153.04497656611602 35.863579062366625,153.15978980552427 35.92637039018882,153.36742933100868 35.9347425672313,153.64835044436768 35.95776605410356,153.9341536603515 35.97451040818851,154.22483879907122 35.99334780652862,154.5570459380633 35.984975629486144,154.8868056853662 35.96613823114603,155.1896920012041 35.93264952296158,155.50967245436368 35.91799821314635,155.74171659479362 35.9096260360966,155.81255066077938 36.0917208867977,155.81499321093543 36.43498014556826,155.86140161511685 36.774053315813944,155.90292484564634 37.121498663116654,155.93467785428766 37.512897939894174,155.97864348701842 37.82685457901971,156.00062627221814 38.172206882052706,156.02993662018525 38.44430263595859,156.0372642014063 38.741514920991904,156.0665745032111 39.04919242734468,156.08367216221268 39.350590800902864,156.10809736756164 39.660361351503525,156.13252254727377 39.982690167671535,156.1593902153254 40.19827372653526,156.20579793253637 40.42013641817903,156.18625785236145 40.73409305730456,156.21801047430927 41.06688709478476,156.24732054841115 41.38293677816546,156.2741880839003 41.67805601893633,156.2986130892441 41.985733525289106,156.32303806894197 42.22224752675538,156.35479050421782 42.49434328066127,156.3352505491821 42.85016080500645,156.37921542494405 43.17248962117446,156.41096778354768 43.52412105699477,156.44272009882297 43.875752492807806,156.47202988984645 44.20226739750069,156.49889716585312 44.587387541498174,156.53064936112605 44.93901897731121,156.55263162477968 45.156695580430096,156.5672864556782 45.42460524582566,156.58682621584921 45.577397476859915,156.59415362168693 45.864144540602865,156.608808426432 46.1571707371113,156.67475493356142 46.161356825636176,157.01181193986486 46.146705515813665,157.29513144356315 46.140426383019076,157.641948898603 46.134147250246315,157.9618956289214 46.12786811746628,158.27451108599416 46.121588984678965,158.62619845560585 46.11740289615409,158.95101609677295 46.11949594041653,159.29780887528432 46.11530985189893,159.60307993217066 46.11321680763649,159.89369425820405 46.10903071911889,160.1452314597027 46.11112376336678,160.34548243400423 46.10065854206914,160.7752835865249 46.09647245355154,161.26124237641488 46.081821143721754,161.72521366437286 46.07135592241684,162.14277991791823 46.06298374537437,162.5359202475447 46.05461156833189,162.8533579058003 45.99809937328246,163.20985965499858 45.89763324876549,163.55414725933042 45.74484101773123,163.86180421602512 45.569025299824716,164.14992371204244 45.569025299824716,164.15724873750696 45.62763053912204,164.14504036045219 45.73228275216388,164.23294053241625 45.94786631102761,164.37455677830803 46.182287268238724,164.56256322250374 46.431359535279626,164.71394393168885 46.56950045650592,164.8311412243147 46.79345619240485,165.05332613940482 47.05508672500582,165.23644398158467 47.29160072648665,165.43176809304896 47.555324303342786,165.46594964414726 47.710209578646754,165.44885887486817 47.80648961463885,165.58314315279495 47.90695573917037,165.79067187774308 48.011607952212216,165.82973590154143 48.342308945415425,165.90542226121397 48.65626558454824,166.03726242945413 48.98696657774417,166.11538958442907 49.244411021827545,166.23013836822793 49.5018554659182,166.35709381077868 49.7258112018244,166.4571928064779 49.94767389346816,166.56461564044184 50.19883920476423,166.6744793900525 50.500237578336964,166.78434262152405 50.80582204041275,166.90152949733965 50.95861427145428,166.97721237467704 51.20977958275762,167.11637057195367 51.46931707108888,167.27017603342574 51.68280758569745,167.39712580808919 51.96955464943312,167.52163356898382 52.33165130655834,167.63393411591278 52.635142724378966,167.72426242388974 52.934448053674714,167.8121490900994 53.23375338297046,167.90980055261025 53.47863956148649,168.0367468419954 53.67747876627254,168.12951484681798 53.86166666121426,168.21251748540635 54.06469195451791,168.31260850925173 54.34725292973599,168.45175873044354 54.682140011456795,168.61043779307693 55.04423666858929,168.70564471195212 55.379123750317376,168.73493907026386 55.659591681273014,168.76667458354495 55.92122221387399,168.7593510073948 56.2351788530068,168.77643934816842 56.41518065942364,168.8252631098876 56.65588074942207,168.84235140231976 56.96355825576029,168.9229103264206 57.27960793914099,168.97417495128684 57.56216891435906,169.06693922387967 57.72333332244307,169.1304093028757 58.04775518288079,169.2793191942128 58.338688335134066,169.42334588872836 58.61078408903995,169.52587282378227 58.74055283320922,169.5820183351625 58.97706683468277,169.67233909136303 59.29102347380103,169.79927577861963 59.61544533423876,169.93841712222093 59.94614632745652,170.0629113044106 60.22033512561029,170.1703175154289 60.551036118820775,170.2704001301554 60.91731886447087,170.45591798655187 61.262671167511144,170.6292293865954 61.57872085089184,170.7854526427218 61.840351383492816,170.92214713283465 62.06221407513658,171.04419510725893 62.32803069626243,171.1735652623629 62.59175427313312,171.30781655088322 62.840826540166745,171.4323034183617 63.07106140886026,171.54214421987672 63.35780847258866,171.7008022415812 63.627811182239384,171.85701831549886 63.89362780335796,171.9863839592217 64.1992122654483,172.14747979486674 64.50270368326164,172.29637041053138 64.78107856995484,172.44526007519562 65.0427091025631,172.57706324709943 65.3294561662915,172.73083267245238 65.62876149559452,172.87483803994655 65.91341551506048,173.00907953054593 66.2127208443635,173.162846106301 66.5036539966095,173.31173023704469 66.77993583904754,173.45573201632033 66.9976124421737,173.568003972925 67.2466847092146,173.69491944675065 67.53343177295028,173.83403753779567 67.81599274816108,173.98291738236912 68.11529807744955,174.14155879348255 68.43971993788728,174.29775851288105 68.73274613440299,174.4563977818343 69.03623755222361,174.62723886441745 69.33135679298721,174.7883164529394 69.62647603377263,174.9323091128408 69.98020051385538,175.11290881910645 70.29834324149124,175.27642356285287 70.61857901341136,175.44481814529172 70.86346519192011,175.5692829246691 71.17951487530081,175.7230326173285 71.49556455868878,175.88898352901924 71.78649771094933,176.02564809899377 72.09208217301784,176.18427561342833 72.3934805465833,176.38438878481793 72.50441189241246,176.51372931129845 72.62162237102166,176.5771791186471 72.88953203640267,176.76752750498417 73.14906952474848,177.02620359121102 73.37093221638497,177.25315288907586 73.57605055395834,177.46301801655682 73.77070367020497,177.65335917365883 74.02814811428834,177.916905903925 74.28977864688932,178.18777027388387 74.57233962210739,178.475712731768 74.84024928749568,178.756331198947 75.09350764305418,179.01986546845546 75.34885904287512,179.26875621175714 75.59374522139842,179.52252443189718 75.84491053268721,179.76408969248405 76.07933148989832,180.00565245199869 76.3074733143294,180.24477272046352 76.51049860763305,180.47657064152372 76.73864043206413,180.6790869404067 76.81817611397855,180.75716504401316 76.85585091066605,180.78888419897885 76.89561875162326,180.8206033108272 77.02748054004769,180.95479907616027 77.21585452353611,181.15487132965245 77.32678586935072,181.25978658183703 77.5109737642997,181.4647359463088 77.70353383630572,181.67212335193653 77.93376870498469,181.8941478258257 78.1263287769907,182.10397121143978 78.25819056542241,182.20644241182163 78.50516978820815,182.43578108712245 78.74377683394414,182.69683407063712 78.98238387967285,182.94568559823347 79.22727005819615,183.1994138357786 79.45750492687512,183.44582034960877 79.46587710392487,183.4897341086671 79.63959977756895,183.63855234444782 79.81122940696514,183.79712810891033 80.05402254121145,184.03620953271093 80.26960610008246,184.24845323468253 80.4663522605988,184.47045320293546 80.48309661468375,184.53632091926374 80.58356273920072,184.63634191090568 80.6568192883351,184.83150358755665 80.797053253802,184.987631754213 80.87868197997886,185.09740874621275 80.81170456363179,185.18279049423836 80.66937755389517,185.35843196543647 80.57100447364792,185.5047988487313 80.51867836711608,185.59261853825592 80.45379399503145,185.79509045262603 80.34286264921684,185.9024242493433 80.48518965894618,185.9829242730666" stroke="red" stroke-dasharray="none" stroke-linecap="round" stroke-linejoin="round" stroke-width="0.5"><title>2024-05-01 52.5km</title><desc>1714541844000</desc></polyline><polyline fill="none" opacity="1" points="186.0,148.15320319380953 185.76062528970215,148.20297951564498 185.56268081772578,148.23795735510794 185.29108258874476,148.27697098576664 185.00452344036603,148.28235216682242 184.74213193100877,148.28235216682242 184.57986349757994,148.2796615765792 184.35199718682998,148.28773334559992 184.05162795900833,148.29042393414056 183.7857839297867,148.28773334559992 183.51533654076047,148.3025315755167 183.25985007112467,148.3106033300428 182.98134680241492,148.30387686829636 182.72010613300517,148.26755391344977 182.5002957019242,148.25006504638077 182.21258571359067,148.26620861683296 181.97896520306676,148.35634317569202 181.76721065165475,148.37652246712514 181.55430526029522,148.37517718202344 181.43346706519515,148.10342667737496 181.35636078831885,147.91777200766592 181.26774611190922,147.7132796729984 181.1940923548973,147.4966756573167 181.11008103830682,147.3002489535138 181.06519828012824,147.17243542945107 180.9558684845615,146.90469557179676 180.85919792847562,146.66924129426116 180.75792401258514,146.44454657925417 180.46445982449222,145.6439553174505 180.28953215158253,145.6614477655694 180.179051516061,145.43000727561866 180.1226603583491,145.35734485819376 179.9488835253942,145.52554426710776 179.72101721463696,145.52419868065954 179.5495420615989,145.45019120682173 179.41719546695822,145.4259704855358 179.13293799848907,145.43000727561866 178.95570864567708,145.46768392130252 178.70597637580795,145.55111038260657 178.56557390149828,145.60358803771305 178.40790882789588,145.65606547640164 178.13746143886237,145.75160077072087 177.87391908955033,145.85117200430523 177.75538257435983,145.9184494237934 177.55398558252637,146.02878362181127 177.4688234259811,146.08125930714868 177.20182855680468,146.21850238429488 177.07063280212606,146.25079465794897 176.81974969230214,146.3288339810124 176.6471236993093,146.37727194085346 176.37322379041143,146.46472890143377 176.20750283713278,146.52258471431196 176.01991592474224,146.67327768999803 175.77018365486583,146.83204157364617 175.61482026116573,146.88585938987217 175.41112158942997,146.9746582891794 175.1314674807727,147.09440127855396 174.91165704968444,147.19396200758365 174.72867349710577,147.28679495877986 174.53187986509147,147.37424567036123 174.3926282307366,147.446896573897 174.15785688025062,147.62448592595865 173.93689560922212,147.77920190280292 173.8033981746339,147.84377845000927 173.5294982657433,147.94064265666293 173.33500631362404,148.01598097455826 173.11519588254305,148.05903124177075 172.80907245495473,148.12091574586339 172.657161581119,148.1262969928739 172.38095999231882,148.13975010044942 172.12547352268302,148.0657578328728 171.96780844907335,148.01732629761045 171.74914885794715,147.8774119386162 171.53279094672325,147.71058896248906 171.33484647474688,147.89893732469955 171.12194108338008,148.0146356513642 170.9285999712156,148.09939073507758 170.64204082284414,148.20163421220695 170.34742579478916,148.30925803797982 170.1103527644009,148.38997531031418 169.9699502900985,148.45185820590632 169.77660917794128,148.55947991667836 169.5947764653174,148.61598095069712 169.33928999567433,148.6442313736943 169.1125745248646,148.69938678080598 168.99749052953848,148.71149403331765 168.77768009845022,148.77875633764143 168.5290986685286,148.9065537370425 168.32655083674763,149.02358812509465 168.03653916850453,149.15676387902022 167.91224845354736,149.2374757793532 167.66366702363302,149.35854267073591 167.40702971403516,149.5118924143244 167.22404616146378,149.6262309337908 167.10550964627328,149.6881078221486 166.83621309718728,149.7540198290808 166.53239134951582,149.85086950614914 166.27115068010608,149.92754164487724 166.03983184948447,149.98538172481767 165.77398782027012,150.0687785869968 165.5081437910485,150.20328850444548 165.2342438821579,150.3445223890585 165.10419896743406,150.39967043317483 164.87288013681973,150.50189544446584 164.65767306554335,150.59873943529055 164.47353867301717,150.66733681667574 164.29515848024312,150.75341928246598 164.239918162486,150.7776298711642 164.11677828747634,150.81394566793915 163.8923644965762,150.9296175157997 163.6541406262404,151.06008333967293 163.41246423604025,151.18651286336717 163.1650336460807,151.32101097936902 162.91875389606867,151.44878287446136 162.76339050236857,151.51872063229803 162.53667503155884,151.6290063165925 162.35599315888976,151.7231518771896 162.12927768808004,151.82940103150395 162.02570209228725,151.61555689400575 161.91061809695384,151.37884473272334 161.78402570207982,151.1596130697826 161.68390262614412,151.01838822163973 161.54004763198463,150.81663572284106 161.4157569170202,150.6242953656465 161.33059476047492,150.51534604277185 161.13034860859625,150.617570125788 160.9036331377938,150.74400404110293 160.75287310390559,150.81394566793915 160.48012403496978,150.90540721594698 160.21773252560524,150.89195702947836 160.0692741716266,150.83412106586002 159.7988267825931,150.66733681667574 159.47198823584768,150.55704280727332 159.14860220896662,150.50593062544795 158.8770039799856,150.48037445762657 158.6100091108092,150.45347317295273 158.36603104070673,150.39025493034933 158.19340504770662,150.38352956692415 158.0000639355494,150.3566280777277 157.73767242618487,150.33510684546945 157.46262167734676,150.30551509173893 157.18642008854658,150.28264868949555 156.9125201796487,150.2557469872463 156.67084378944855,150.22615504915302 156.43377075906756,150.21001396303745 156.18749100905552,150.22750013873974 155.96307721815538,150.33241668887968 155.8641049821672,150.29878968357298 155.75477518660773,150.12392782495317 155.62127775201952,149.9073648110143 155.49928871696466,149.71635586688535 155.40837236065272,149.57376985818246 155.290986685417,149.38679144645448 155.19431612933113,149.21460745952663 155.05046113517164,149.008790733129 154.88819270175736,148.7558871940355 154.7431868676358,148.53122930564768 154.62465035243076,148.34154500831482 154.44166679985938,148.34827145016607 154.3024151655045,148.4316790338671 154.09871649376873,148.53795564729444 153.8720010229663,148.63481457298894 153.7212409890708,148.69804152981487 153.4841679586898,148.80028019999008 153.23328484886588,148.89982759009854 152.98700509885384,149.0276237744638 152.91450218178943,149.06932540972593 152.7430270287441,149.14465704985014 152.51285903808457,149.2374757793532 152.3137637261534,149.30877086581768 152.09050077520806,149.38948180278112 151.97196426001756,149.41773050987285 151.62325975416024,149.8293474193306 151.46789636046014,149.88449769399267 150.67611847256921,149.82531202400787 150.5034924795691,149.83472794444697 150.26181608937623,149.87642693700764 149.9764077809523,149.92081603714087 149.722072151264,149.9504086846191 149.48269744097342,149.97327568330456 149.25828365007328,149.98538172481767 149.021210619685,149.99883286854856 148.77953422949213,149.99748775481476 148.46075156242296,150.00824866071525 148.30308648881328,150.02035466898178 148.12930965585838,150.01497422228294 147.8105269887892,150.01497422228294 147.50785608105798,150.0311155555628 147.1913750938984,150.02708022416027 146.86683822706254,150.01228399808497 146.5664689992409,150.00959377331128 146.28451321067405,150.00959377331128 145.9991049022501,150.0055584350912 145.71599827373575,150.00286820890506 145.43519332511642,150.00286820890506 145.1612934162331,150.0069035479728 144.90350526668044,150.00286820890506 144.62845451783505,150.00824866071525 144.3660630084778,150.00152309559508 144.08410721991822,150.00286820890506 143.85509006919892,149.9961426409409 143.65254223741795,150.00152309559508 143.33721209020587,150.00421332207043 143.04604958200798,150.00824866071525 142.7686971532603,150.01093888576906 142.49594808432448,150.01093888576906 142.2623275737933,150.00824866071525 142.1058133401457,150.00152309559508 141.7904831929336,150.00421332207043 141.5211866438549,150.00824866071525 141.23692917538574,150.0055584350912 141.0309288237404,150.01362911025535 140.80536419288546,150.0055584350912 140.4854306858615,150.00959377331128 140.20807825710654,150.0190095575199 139.98596614611597,150.01497422228294 139.6832952383993,150.0190095575199 139.38177517062286,150.0190095575199 139.10902610167977,150.02035466898178 138.85929383181065,150.0190095575199 138.60725988203922,150.0190095575199 138.3425666927651,150.02439000251525 138.12160542172933,150.02573511341052 137.86151559227437,150.02304489148082 137.55309048478375,150.02573511341052 137.31831913430506,150.03515088568656 137.06973770438344,150.0311155555628 136.75440755717136,150.02573511341052 136.44022824991407,150.02439000251525 136.31939005482127,150.03649599544224 135.979892268595,150.03649599544224 135.7692885571305,150.03784110505967 135.56904240524455,150.03649599544224 135.23184629892785,150.03784110505967 134.9533430302181,150.0311155555628 134.6794431213275,150.03380577578537 134.41590077201545,150.03649599544224 134.14200086312485,150.04860197686503 133.877307673858,150.04725686838538 133.6114636446364,150.04860197686503 133.4077649729079,150.05667262475072 133.159183542979,150.05936283957908 132.88068027427653,150.05263730144634 132.63555136421928,150.05263730144634 132.42264597285248,150.05398240935574 132.1245784249404,150.0580177322381 131.8518293560046,150.0580177322381 131.7563096398735,150.0633981607525 131.71257772164972,149.88315256818169 131.59289036650443,149.85221463536618 131.31553793775674,149.84279872785373 131.10378338634473,149.81993149491336 130.91504563399212,149.8266571559243 130.6261848057111,149.81858636228662 130.34192733723467,149.81051556353395 130.07147994820843,149.79033854428326 129.79642919936305,149.77419690586703 129.52598181032954,149.76478094067897 129.2417243418604,149.76747121715562 128.96091939324106,149.77688718035552 128.68586864440294,149.78630313659687 128.43153301471466,149.7943739506918 128.16223646564322,149.79840935581888 127.90329747613578,149.80513502819485 127.66277192589041,149.8132058303554 127.43605645508796,149.8172412295189 127.31982161979977,149.82262175974574 127.0378658312402,149.8306925508241 126.76281508238753,149.83876333678745 126.6293176478066,149.872391556597 126.62816680785181,150.17907682413534 126.61550756836368,150.45481823853788 126.60054664897325,150.73593382868057 126.55451305083989,150.97534795666343 126.51768617233029,151.13002323124147 126.39224461741833,151.40305413292117 126.2610488627397,151.68011399294392 126.14021066763962,151.93968402678001 126.02282499240391,152.21000781949533 125.95377459520387,152.49511923799037 125.95492543515138,152.77484499667844 126.01476911272766,153.13659660939356 126.06885859053727,153.43513481698574 126.11604302861815,153.7000480018305 126.04929431132769,153.90041015501265 125.7742435624823,153.93537235568328 125.50264533350128,153.9757132373088 125.24025382413674,154.01067523145593 125.02849927272473,154.0469818161955 124.94218627622467,154.05773930292526 124.69475568626513,154.09001170865668 124.4714927353125,154.1343861331461 124.22176046544337,154.15993497414547 124.11127982992184,154.15590095002426 124.0974697504862,154.15859029957846 124.31843102152197,154.16531367099014 124.57852085097693,154.11824999665714 124.8374598404771,154.0792542491581 125.05266691175348,154.05101587478475 125.24140466409153,154.02681150410444 125.49574029377254,153.98916016947987 125.76618768280605,153.94881933041052 125.94111535571574,153.92461476569224 125.92385275641573,153.79686769054297 125.86515991879423,153.55078287428842 125.81912632066087,153.3638628172348 125.77884692229418,153.1944221235526 125.72360660453705,152.99135927732914 125.6522545274347,152.69818999083236 125.59471252976073,152.4346008381035 125.5371705321013,152.17369600165875 125.5003436535917,152.01096399151356 125.4266898965725,151.74332583539308 125.31045506129158,151.52410044392127 125.17580678675586,151.29276649278654 125.12516982881061,151.0237682445386 125.16314754726773,150.81663572284106 125.23219794446777,150.58125376919088 125.29664498184866,150.3539379256872 125.37029873886786,150.09702578748602 125.43244409634644,149.88180744223246 125.48768441410357,149.68003694071467 125.36799705895828,149.5589731054788 125.11596310917957,149.4957504230042 124.86968335916754,149.43252742667664 124.59693429023173,149.36123303302793 124.34259866054344,149.29935455651957 124.08481051099807,149.2347853909132 123.8442849607527,149.17290630000844 123.65094384859549,149.125824181594 123.37359141984052,149.0504924300676 123.11350159039284,148.97785067619134 122.90980291865708,148.9253869295735 122.6520147691117,148.85812539977087 122.37005898054485,148.78548254853195 122.11802503075887,148.72225602588333 121.83491840224451,148.64961239953573 121.59899621181103,148.59849256219331 121.37343158096337,148.53526511105974 121.13520771062758,148.39266587724433 120.96718507743935,148.22854025393553 120.77614564518444,148.04154208827367 120.57820117320807,147.8464691323661 120.3963684605842,147.67426431496915 120.19727314866032,147.5262739389609 119.91646820004826,147.44016965579976 119.6563783705933,147.45765963545273 119.4987132969909,147.5087840535789 119.282355385767,147.6554292717501 119.04988571519789,147.8545411760315 118.83352780396672,148.0146356513642 118.60220897335239,148.12091574586339 118.35938174319745,148.18549055987842 118.12345955276396,148.21105133328183 117.91630836116383,148.2177778440655 117.75058740789245,148.22584965232 117.49049757843022,148.24602915056948 117.2350111088017,148.26351802318368 116.99448555854906,148.28100687177266 116.73554656905617,148.29984098954264 116.476607579556,148.32002037052007 116.27060722791066,148.32809211395943 116.01972411807947,148.35230731356842 115.74812588909845,148.37517718202344 115.50875117880787,148.39939229208903 115.26132058884104,148.42091679570603 115.01043747901713,148.4316790338671 114.75495100937405,148.47876371887742 114.51442545912869,148.5890757276684 114.31417930725001,148.75185145854448 114.15651423364761,148.95363666614867 114.07595543691423,149.1164077370231 114.02301679906668,149.31011605229196 114.00115083995479,149.60470846737462 114.02301679906668,149.90198431658246 114.0448827581713,150.18714738935068 114.06674871729047,150.47902939474443 114.08746383644757,150.745349076009 114.11163147546904,151.0237682445386 114.13234659462614,151.3169760565488 114.15191087383573,151.6303512580689 114.15191087383573,151.9235451114855 114.14960919392615,152.17907553675377 114.12774323481426,152.50049863740605 114.10472643574758,152.80308619840253 114.08746383644757,153.07473646658946 114.06559787733568,153.35579426385266 114.04603359813336,153.62339856006474 114.0241676390142,153.9165465672395 114.03337435864523,154.20161981533056 114.13234659462614,154.46920635661445 114.24282723014767,154.63728548310337" stroke="red" stroke-dasharray="none" stroke-linecap="round" stroke-linejoin="round" stroke-width="0.5"><title>2024-04-21 79.4km</title><desc>1713660889000</desc></polyline><polyline fill="none" opacity="1" points="19.264778769582335,194.43915215490233 19.44021400476049,194.345048832889 19.838555185793666,194.34746174342217 20.428843153553316,194.21957713344636 20.58983078112942,194.91448864811173 20.707475585892098,195.60455345707305 20.77764967996336,196.26081952071945 20.77145784813183,196.48520028167331 21.458751181227854,196.3428514524603 22.018079989829857,196.5310412411618 22.09650985967164,196.890527680358 22.001568438281538,197.31273607047478 21.81994137127913,197.5298687745053 22.044911261094967,197.28861008703643 22.079998308130598,196.71681681902555 21.584651761753776,196.3066609306643 21.989184774625755,196.17878729428048 22.391653843551467,196.03161109050234 23.089266896357003,195.7276047808009 23.815775164373918,195.44289678859423 24.41019102001883,195.28606459846196 25.151146895637794,195.0858003895537 25.59076695553813,195.15094677076013 25.770330078601546,195.86995744560772 25.935445594055636,196.54551731451102 26.121200548943307,197.16797978750947 26.348234382698138,197.8314385497888 26.606227375610615,198.5793144097297 26.847708816952945,199.30786669983354 27.122213361406466,200.08705419474427 27.32654381178145,200.68288552350896 27.57834497285512,201.418607221809 27.81982641421928,202.1325964478492 28.073691519231943,202.89239156041185 28.263574362004874,203.4278510359709 28.445201429007284,203.95365038456475 28.653659767274803,204.5783228790351 28.88894937680743,205.2680958381934 29.124238986332784,205.9578479836855 29.36572042768239,206.65240254126365 29.55147538257006,207.18536239035348 29.813596263360523,207.9618698889317 30.02824643345957,208.5960784991239 30.214001388347242,208.94572971674825 30.853824010744574,208.69735733284506 31.363618164716172,208.7841674047413 31.72893624266726,209.44246639222365 32.067423049360514,209.86926550065982 32.25936983607971,210.65773782090218 32.422421407587535,211.24364918975516 32.7134375035821,211.90911056702862 33.016837263232446,212.6878686839209 33.345004350201634,213.45454582730963 33.5018640898852,213.88368093882673 33.768112858560926,214.522546954071 33.991018804430496,215.08907359391378 34.18709347903496,215.71103137209138 34.36665660210565,216.32091929194212 34.60607409951626,217.0706011495422 34.847555540873145,217.86123580032108 35.060141767025925,218.69522934512315 35.17159473995707,219.22549845912545 35.20255389910017,219.84493364512127 35.241768834028335,220.41614890743585 35.30575109626079,221.0861638417773 35.429587732855,221.8959399028936 35.526593098184094,222.52253268330605 35.64630184689304,223.20935507830836 35.72679566068109,223.90820585233814 35.79284186685982,224.43353481230588 35.82999285784172,225.10102258301958 35.90223089585925,225.8552362680457 35.96208527019917,226.56123489094352 36.009555980905134,227.02626647098077 36.06528246736707,227.75632292214323 36.110689234112215,228.25987966214052 36.137520505377324,228.70319318585098 36.158159944810905,229.47415280750465 36.182927272129746,230.09812926722043 36.189119103961275,231.0593570690944 36.193246991846536,231.88082558727 36.189119103961275,232.60590971111742 36.23658981465269,233.07563635909355 36.27374080562731,233.83199648787559 36.26961291774205,234.52570614269098 36.2180143191581,235.14231933562405 36.39344955433626,235.38077077487287 37.146789093611005,235.45302829745197 37.893936801054224,235.51324272573947 38.5213757597885,235.57104842822446 39.233436420196085,235.61681117272929 39.99296779130236,235.67702517115868 40.57706392723776,235.72760480770376 41.31595585890318,235.78781851534768 41.98673764045088,235.8432149868022 42.70499013269,235.9034283910296 43.33655697932409,235.9491904725437 43.949548330463585,235.99976950908604 44.502685307241336,236.0431228802281 45.13838004174613,236.09370170968577 45.68945307458489,236.13464639472295 46.25910160291096,236.1779995110046 46.30657231360965,236.8162442427565 46.290060762068606,237.68808194215126 46.27561315445928,238.4563313557701 46.269421322635026,239.04153230494376 46.263229490803496,239.74230887088015 46.240526107430924,240.8596540573435 46.21988666799734,241.74096986863333 46.16209623758186,242.63188316087508 45.91029507650819,243.29161829454824 45.58419193348527,243.83094972402796 45.45209952111327,244.13913342545857 45.63372658811568,243.8453959274193 46.0341317131024,243.73464146917468 46.581076858055894,244.13431808692803 47.09499889992003,244.56528688685648 47.699734475274454,244.87827591802852 48.0856919926664,245.23459670012198 48.742026166604774,245.43683036070433 49.47266232250695,245.68721242591164 50.153763823764166,246.02426089618712 50.85550476446224,246.26741422176383 51.48500766714278,246.6285282725803 51.957650830139755,246.88371211213962 52.665583602654806,247.09796805250517 53.28270284168684,247.29296329513454 53.691363742436806,247.49277151829483 54.128919858405425,247.70461448357673 54.80589347177738,248.01756074460172 55.47667525331781,248.10422203250528 56.14539309092652,248.1331090558342 56.67789062827069,248.2053264552742 57.422974391774915,248.38827618465257 58.02770996714389,248.63621888781017 58.655148925878166,248.90100911167792 59.354825922622695,249.1850534142577 60.05037503148924,249.47150131625312 60.6963894857181,249.70739690752816 61.41051409007923,250.0732709935055 61.91205246827303,250.33323062029922 62.353736472119635,250.54986139650828 62.9110013367972,250.8314783530459 63.52192874398315,251.16845137327255 64.0523623373956,251.44524694425672 64.61581903389015,251.71722543254873 65.21849066531286,252.03252390010493 65.82322624067456,252.3285635629054 66.45479308729409,252.64866720118516 66.95426752155618,252.91341120362267 67.59821803183877,253.23350669876163 68.2689998133792,253.57525787224404 68.83864834170527,253.88090426647614 69.31748333654104,254.13360097303666 69.87681214514305,254.41758062439294 70.42582123404281,254.7087764553944 70.85512157423364,254.9277725434622 71.4350898222765,255.216555405279 71.97584313539846,255.50052168314141 72.36799248461466,255.7820780052425 72.86746691886947,256.21523484705904 73.28851148328977,256.63875809345336 73.75496281444794,257.10318087050473 74.35350655799266,257.7240008181143 74.89219592716108,258.2726184543262 75.42262952057354,258.79234940982315 75.88495296385372,259.25913479701194 76.27710231305537,259.7042563707546 76.57224629694247,259.9713251816811 76.87151816871483,260.2552327707199 77.11919144189596,260.570414211501 77.24715596637543,260.7436418673042 77.65375292319368,261.08046968736926 78.08924509520875,261.48225071071647 78.57014403397625,261.9778511727818 79.17900749723776,262.620191231812 79.64339488445694,263.0796819238294 80.1181019913929,263.5824648941616 80.215107356722,263.7484530329748 80.32243244176789,263.9769854686965 80.49993162088504,264.1405651874611 80.71458179097681,264.4340435342692 80.75586066985124,264.51823745136426 80.80952321236691,264.7419512207798 80.66298319240013,264.90793099982875 80.56804177101003,265.13404645456103 80.44833302230836,265.43232301938406 80.3987983676634,265.7594606152488 80.31830455388263,265.94227077682444 80.33481610542367,265.6512170723072 80.44007724653056,265.40105227051754 80.40292625555594,265.0642876681595 80.70838995915983,264.5879978922767 80.73522123041039,264.3474437554669 80.62170431353297,264.21032677279436 80.36783920852031,263.9769854686965 80.58248937861208,263.7243968551338 80.39467047978542,263.60411558883425 80.02522451394907,263.3010040102654 79.58560445403418,262.83430060129285 79.26569314284279,262.5167444183535 78.74351532520814,261.98988017755073 78.27500005009642,261.51352678353396 77.8828507008875,261.11174630622554 77.38544021057169,260.6305628508853 76.9623317022124,260.1926771621529 76.53715924991411,259.74515900227925 76.14088201281265,259.3529719532253 75.79207548640261,259.0064943972302 75.3380078189075,258.5300792377984 74.87155648773478,258.06809147922286 74.43193642782717,257.62775076092294 73.99644425581937,257.1874016131824 73.65176561729459,256.84811045427705 73.2864475393435,256.47512503639155 72.85301931126742,256.03234739782056 72.4299108029154,255.63769057835088 72.048081173416,255.39944934209052 71.4268340464987,255.05772528005946 70.73954071340995,254.69193051607908 70.08939837129583,254.37666851797803 69.49704645958991,254.07343534241227 68.92120609943959,253.7870447824189 68.27312770127173,253.46936368558636 67.64775268648373,253.14445802350383 67.18542924318899,252.9013774514715 66.46098491912562,252.54276874654897 65.85005751193239,252.22988409890604 65.26183348811173,251.90736777412167 64.63852241726272,251.58966070158567 64.04823444950307,251.28157692243258 63.48684169694752,250.9951515799039 62.9398965520013,250.73279246185666 62.28356237805565,250.39099902694215 61.70359413001279,250.1190048446988 61.11537010619213,249.80127305091446 60.53540185814927,249.49797951346955 60.07720630274707,249.26208177249828 59.50755777442828,248.97803842205758 58.95648474158952,248.68917717669137 58.43430692396214,248.43160617035937 57.8770420592773,248.14755255388081 57.69954288016743,248.2510640241817 57.31152141884377,248.33772443138696 56.71504161925259,248.207733698011 56.20524746528827,248.116258296639 55.52208202007023,248.0849639967746 54.83272474304249,248.0031171648443 54.4096162346832,247.8081279493872 54.01540294152801,247.6203589926954 53.41685919799056,247.33629534651118 52.8740419409296,247.13889311719686 52.327096795976104,246.9751924210177 51.92049983916513,246.85241613337348 51.42928118067357,246.5803800604499 50.80597010981728,246.23370995405458 50.23425763755222,246.03389077980682 49.720335595688084,245.7859199900122 49.16926256286388,245.52590890821375 48.59342220269173,245.3597891761492 48.1145872078705,245.22255892607973 47.932960140860814,244.87827591802852 47.497467968853016,244.86623795723608 47.04546424528962,244.5219496078971 46.63473940058611,244.15357943499293 46.207503004334285,243.86224981989108 45.80090604752331,243.56610105130676 45.51814572729927,243.92725757499102 45.09710116289352,243.84058052730143 44.6017546165167,243.53961601603623 44.139431173221965,243.1977155456134 43.689491393612116,242.8678489991944 43.216848230607866,242.50426797266482 42.74007717972563,242.1743914639792 42.300457119825296,241.7963519728728 41.8484533962619,241.53388777345572 41.41296122424683,241.30272415860782 40.948573837020376,241.09804609845014 40.5275292725928,240.95356636905854 40.059013997488364,240.7922295966273 39.61113816181023,240.65738008109838 39.17564598979516,240.5369780585661 38.73396198594128,240.4213915228156 38.33974869278609,240.37082223040306 37.68547846279398,240.35878190627045 37.1178938784069,240.3298851025811 36.53586168642505,240.3033963338985 36.038451196109236,240.20225711780404 36.03638725216297,239.78324704661463 36.04464302792621,239.39312734580017 36.04670697187976,238.9909599724324 36.05909063553554,238.39612465023856 36.07973007496912,237.89279041221198 36.0921137386249,237.40148701612452 36.13545656143833,236.86682136797208 36.17673544030549,236.39235538211142 36.224206150996906,235.85044060365544 36.25929319803254,235.424125315727 36.308827852677496,234.9183172409921 36.34185095575958,234.42935883406608 36.33772306787432,233.92593756511815 36.30263602083869,233.45141075093306 36.28406052535138,232.87811145366686 36.28406052535138,232.53364321904883 36.28406052535138,232.04704291011694 36.27993263746612,231.4351645006136 36.27580474957358,230.80640629133086 36.27374080562731,230.2932689983536 36.26135714197153,229.79457527297927 36.242781646491494,229.31514450786744 36.2180143191581,228.65982593686203 36.20150276762433,228.28638234201026 36.145776281147846,227.59248389418826 36.09004979468591,227.03108540168796 36.05289880371129,226.55400634631405 35.99923626118107,225.93716213846892 35.955893438374915,225.32993990367868 35.904294839790964,224.83354786895688 35.848568353336304,224.22147686542667 35.78871397898183,223.60938950964737 35.7247317167421,223.11777994877048 35.654557622670836,222.66953850701975 35.582319584653305,222.22851820547112 35.49976182692626,221.75615917495634 35.417204069199215,221.20184788916777 35.34702997512795,220.6017305463356 35.30781504020706,220.11487681063045 35.27479193711042,219.59426928483845 35.20874573093897,219.00857166957212 35.08903698223003,218.42044870066638 34.96520034563582,217.940779847886 34.810404549891246,217.4056600215372 34.64735297837615,216.9115067305538 34.48430140686105,216.41011102485027 34.34601716266479,215.95932762489429 34.205668974529544,215.45550037704743 34.00959429991781,214.88898280816647 33.825903288976406,214.40682914953322 33.60918917493109,213.90296772114198 33.46884098679584,213.49794187853513 33.2376792651703,212.98200571973575 33.023029095063976,212.4564139316244 32.81869864468172,211.9404542849661 32.61230425036774,211.40278301934268 32.37082280901086,211.1881932011438 31.848644991376204,211.39072746495003 31.34710661317513,211.57156011377265 30.890975001726474,211.566737928355 30.765074421193276,210.94948980232584 30.651557504308585,210.3925055176078 30.53391269954591,209.88614439771663 30.379116903808608,209.34119085829298 30.236704771719815,208.90232502864637 30.055077704717405,208.38869663048536 29.902345852926373,207.9570469423761 29.712463010153442,207.38552057259585 29.53289988708275,206.8694465132612 29.336825212485564,206.30030460408852 29.14900631364435,205.74079535687088 28.98389079819026,205.23915473378293 28.777496403876285,204.6579131289618 28.591741448981338,204.1200705939027 28.42868987746624,203.6352779118497 28.26770224989741,203.17459473960116 28.077819407117204,202.63912932987296 27.912703891663114,202.14948105815165 27.729012880714436,201.60434305265517 27.526746374278446,201.02542119604004 27.351311139107565,200.5092035020043 27.19238745547773,200.04122037193156 27.01488827636058,199.52256807410959 26.884859807934845,199.11969979113564 26.680529357559863,198.54553989888518 26.492710458725924,197.97860315434264 26.302827615945716,197.41647750884113 26.084049557968683,196.7747205863052 25.954021089535672,196.25599410379255 25.82812050900975,195.7276047808009 25.673324713265174,195.17748783573734 25.623790058634768,194.79625866839342 25.083036745505524,194.96515845199247 24.488620889860613,195.126818503104 23.92310024942708,195.29812865133135 23.460776806146896,195.46461193001232 22.84572151106113,195.7034771225335 22.36482257230091,195.89649767479386 22.11095746728097,195.97129270013647 22.13985268248507,195.9664672220224 21.747703333268873,196.12329473868704 21.089305215376953,196.2511686858452 20.802417007274926,195.9375143319303 20.75701024052978,195.52010608647288 20.682708258580533,195.07132339070267 20.56919134169584,194.42950054998437 20.38962821862515,194.00723884026047 19.857130681288254,194.29196473651973 19.396871181947063,194.27266139814128" stroke="red" stroke-dasharray="none" stroke-linecap="round" stroke-linejoin="round" stroke-width="0.5"><title>2024-04-05 108.1km</title><desc>1712276378000</desc></polyline></svg>