<?xml version="1.0" encoding="utf-8" ?>
<svg baseProfile="full" height="300mm" version="1.1" viewBox="0,0,200,300" width="200mm" xmlns="http://www.w3.org/2000/svg" xmlns:ev="http://www.w3.org/2001/xml-events" xmlns:xlink="http://www.w3.org/1999/xlink"><defs /><rect fill="#222222" height="300" width="200" x="0" y="0" /><text fill="#FFFFFF" style="font-size:12px; font-family:Arial; font-weight:bold;" x="10" y="20">Over 10km Runs</text><text fill="#FFFFFF" style="font-size:4px; font-family:Arial" x="10" y="280">Runner</text><text fill="#FFFFFF" style="font-size:9px; font-family:Arial" x="10" y="290">yihong0618</text><text fill="#FFFFFF" style="font-size:4px; font-family:Arial" x="65" y="280">SPECIAL TRACKS</text><rect fill="yellow" height="2.6" width="2.6" x="65" y="283" /><text fill="#FFFFFF" style="font-size:3px; font-family:Arial" x="70" y="285.5">Over 20.0 km</text><rect fill="red" height="2.6" width="2.6" x="65" y="287" /><text fill="#FFFFFF" style="font-size:3px; font-family:Arial" x="70" y="289.5">Over 40.0 km</text><text fill="#FFFFFF" style="font-size:4px; font-family:Arial" x="120" y="280">STATISTICS</text><text fill="#FFFFFF" style="font-size:3px; font-family:Arial" x="120" y="285">Number: 5</text><text fill="#FFFFFF" style="font-size:3px; font-family:Arial" x="120" y="290">Weekly: 1.2</text><text fill="#FFFFFF" style="font-size:3px; font-family:Arial" x="141" y="285">Total: 317.5 km</text><text fill="#FFFFFF" style="font-size:3px; font-family:Arial" x="141" y="290">Avg: 63.5 km</text><text fill="#FFFFFF" style="font-size:3px; font-family:Arial" x="167" y="285">Min: 18.7 km</text><text fill="#FFFFFF" style="font-size:3px; font-family:Arial" x="167" y="290">Max: 108.1 km</text><polyline fill="none" opacity="1" points="75.65501344599761,44.226685476794955 75.7518248175038,44.88956370613596 75.8901267767651,45.50393608586455 75.94544756051619,46.23147913442517 75.97310795233352,46.70033837699157 75.91778716864064,46.95901872339891 76.12524010753259,47.55721534926852 76.18056089128368,48.36558545230946 76.24971187085612,49.190118557584356 76.31886285054497,49.86914248444373 76.3050326546072,50.176318985249964 76.20822128310101,50.27332196260977 76.23588167491835,50.5966647764144 76.24971187085612,51.146345991743146 76.47099500574404,51.93853015200875 76.66461774869822,52.63370879148715 76.8167499039555,53.36121793901839 77.02420284290565,54.201890868498595 77.19016519392608,54.961725888599176 77.19016519392608,55.52755802711181 77.46676911250688,55.834723168969504 77.75720322702546,56.40055207941623 78.00614675373072,57.014878241869155 78.1997694967431,57.5322036237194 78.42105263157282,58.06569359211426 78.18593930080533,58.469851420872146 77.66039185546106,58.61534797793138 77.12101421435364,58.7770106568496 76.48482520162361,59.01950435506296 75.86246638494777,59.229665249353275 75.28159815591061,59.455992043484 74.79754129849607,59.60148766299244 74.78371110250009,59.7954816071433 74.65923933917657,60.16730264603393 74.89435266994406,60.797779734333744 75.17095658852486,61.46058618037205 75.36457933147904,62.18805336568039 75.58586246636696,62.850853790616384 75.86246638494777,63.54598285969405 76.56780637725024,63.82080045800831 76.85824049176881,64.40276550788258 77.16250480210874,65.08172193582868 77.46676911250688,65.74450982923736 77.77103342296323,66.37496394237678 78.0614675374236,67.00541545850865 78.33807145594619,67.63586437774939 78.64233576640254,68.26631070014264 78.9327698808629,68.91291961536626 79.22320399532327,69.52719555463409 79.51363810978364,70.15763408680505 79.81790242023999,70.75574003755173 80.10833653470036,71.38617350965797 80.39877064921893,72.00043952337 80.6892047636793,72.63086786902568 80.99346907413565,73.2936230738269 81.25624279672047,73.92404609348159 81.56050710717682,74.53830192294845 81.85094122163719,75.07173261728894 82.22435651166597,75.44351654744241 82.47330003837124,76.00927296941518 82.57011140987743,76.25173936734791 82.51479062612634,76.72050664767448 82.00307337683626,76.94680757957394 81.46369573567063,77.17310817698308 80.84133691893658,77.44790130972979 80.14982712257188,77.80351521990087 79.4859777179663,78.14296409083181 78.7114867460914,78.48241220910859 77.99231655779295,78.87035199401726 77.35612754512113,79.22596259991406 77.0933538225363,79.35527534272114 76.41567422205117,79.67855672183214 75.73799462156603,79.98567339962756 75.14329619664932,80.27662547344516 74.57625816366635,80.55141303541313 73.84325777943013,80.90701973643445 73.11025739531033,81.2464617259684 72.50172877445584,81.53741140363854 71.86553976172581,81.84452435249113 71.57510564732365,81.95767107306165 71.11870918166824,82.16780047517386 70.57933154050261,82.42642088184948 70.06761429121252,82.73353204724845 69.54206684586825,83.0729699871008 68.93353822513018,83.49322544131428 68.25585862464504,83.97813414740085 67.57817902415991,84.46304131762008 66.9834805992432,84.89945645774424 66.37495197844692,85.25505305954721 65.82174414134352,85.61064883548534 65.25470610830234,85.95008039659297 64.97810218977975,86.0632240831037 64.99193238565931,86.0470607044117 64.6323472915683,86.24102113576373 64.06530925852712,86.53196132210724 63.429120245797094,86.79057435689901 62.806761429063044,87.01686040408094 62.198232808266766,87.21081960685842 61.4928928159643,87.46943149509025 60.78755282360362,87.74420614764676 60.26200537843397,87.88967488173512 59.55666538607329,88.14828562330513 58.78217441414017,88.4230590576044 58.04917402990395,88.68166889832355 57.27468305802904,88.95644137542695 56.61083365348168,89.19888726931822 55.905493661121,89.44133277928631 55.11717249325011,89.6999409001146 54.41183250094764,89.9585485842108 53.80330388015136,90.1201781648706 53.26392623898573,90.29797050666821 52.83519016514765,90.44343681454484 52.50326546293218,90.55657718065777 51.90856703801546,90.76669478170516 51.34152900497429,91.00913780923293 50.663849404489156,91.26774328215106 49.944679216248915,91.52634831830801 49.23933922400465,91.73646458861185 48.4786784479511,92.01123158396513 47.718017671839334,92.2859980862413 47.01267767959507,92.57692678653984 46.32116788323037,92.85169227379083 45.615827890869696,93.07796936362865 44.910487898567226,93.33657134258829 44.17748751438921,93.57901030125504 43.40299654239789,93.80528631634661 42.76680752978427,94.04772453286569 42.57318478671368,94.06388706697908 42.0614675374818,94.2739998553443 41.356127545121126,94.500274843449 40.63695735682268,94.82352424647252 39.945447560516186,95.06596085094498 39.240107568213716,95.3245594726468 38.71456012292765,95.45385861975956 37.99538993468741,95.68013186438475 37.15174798312364,95.9710541163222 36.44640799082117,96.31046271166997 35.87936995772179,96.6983573280886 35.450633884000126,97.08625096193282 35.035728006099816,97.52263012563344 34.89742604683852,97.71657602144114 34.45485977717908,98.10446707620576 33.88782174419612,98.50851921350113 33.14099116408033,98.81559812482737 32.44948136765743,98.96105634164996 31.813292354985606,99.07419041472895 31.301575105637312,99.13883841891948 30.859008835977875,99.1711624108575 30.16749903955497,99.3812681917916 29.3238570879912,99.51056391373277 28.480215136427432,99.68834535310452 27.664233576681,99.81764081578876 26.8759124087519,99.96309808081423 26.101421436760575,100.07623141365184 25.340760660765227,100.18936466288869 24.524779101077,100.33482157487015 23.722627737210132,100.46411649174115 23.031117940845434,100.59341129948734 22.36726853629807,100.70654416669277 21.57894736842718,100.81967695031199 20.79062620055629,100.94897145783762 20.057625816436484,101.06210406238097 19.28313484438695,101.15907479976886 18.536304264329374,101.28836902078183 17.78947368421359,101.4499866435217 17.01498271228047,101.57928061886923 16.309642719978,101.70857448513561 15.562812139920425,101.83786824224808 14.81598155980464,101.91867678498966 14.304264310398139,102.01564697996946 14.027660391875543,102.08029374260514 14.262773722643033,102.04797036471427 14.580868228978943,102.43585044893553 14.857472147559747,102.95302236647694 15.064925086509902,103.35706171189668 15.25854782940587,103.63180785792065 15.521321552048903,104.1166527956957 15.64579331537243,104.48836620851944 15.631963119492866,104.71462610505114 15.839416058326606,105.1348221690132 15.894736842077691,105.26411303365603 15.72877449094085,104.87624011225125 15.604302727617323,104.55301192736079 15.479830964293797,104.22978306032019 15.313868613156956,103.90655351111491 15.230887437588535,103.72877696827345 15.1064156742068,103.43786945306056 14.87130234343931,103.04999190662056 14.650019208609592,102.64595175105205 14.677679600485135,102.40352714613255 15.217057241592556,102.30655719668721 15.880906646198127,102.193425511432 16.503265462990385,102.0964554289676 17.180945063359104,101.96716189020663 17.87245485978201,101.85402995419281 18.56396465614671,101.70857448513561 19.29696504038293,101.61160409571312 19.98847483668942,101.49847189709544 20.679984633170534,101.4338248889253 21.385324625473004,101.28836902078183 22.076834421779495,101.15907479976886 22.699193238571752,101.04594226685003 23.32155205536401,100.94897145783762 24.02689204766648,100.81967695031199 24.773722627782263,100.70654416669277 25.52055320783984,100.59341129948734 26.22589320014231,100.46411649174115 26.917402996565215,100.35098344545986 27.608912792929914,100.25401219639753 28.245101805659942,100.14087899489095 28.89512101415312,100.02774570982729 29.55897041875869,99.94693616930454 30.181329235550947,99.84996466440498 30.63772570108995,99.7853169603477 30.90049942373298,99.81764081578876 31.356895889388397,99.70450729192817 31.84095274686115,99.59137368449592 32.35266999620944,99.51056391373277 32.96119861694751,99.39743016300781 33.65270841342863,99.18732440422173 34.28889742598403,98.86408421244414 34.814444871328305,98.52468127683096 35.187860161357094,98.16911548975622 35.54744525544811,97.74890031352697 35.907030349597335,97.3286839841603 36.32193622743944,96.94079096440692 36.847483672667295,96.63370829356427 37.52516327315243,96.35894959246798 38.202842873637564,96.16500197722053 38.88052247406449,95.8902424350963 39.59969266230473,95.63164476872771 40.33269304654095,95.38920905985287 41.0933538225363,95.09828570255195 41.85401459853165,94.85584914924402 42.64233576646075,94.56492477864958 43.333845562825445,94.32248738093767 44.039185555127915,94.09621213011269 44.758355743368156,93.85377399031131 45.43603534385329,93.61133546673227 46.113714944338426,93.35273395178956 46.7222435650765,93.12645726792107 47.344602381810546,92.91634290496586 48.00845178641612,92.70622825369355 48.67230119090527,92.47995061450638 49.322320399514865,92.23750991579436 50.027660391817335,92.01123158396513 50.663849404489156,91.78495291777654 50.94045332306996,91.72030180880392 51.41067998460494,91.59099950912059 51.82558586250525,91.42937148097553 52.005378409521654,91.36472022191447 52.42028428736376,91.25158045291028 52.890510948956944,91.05762636868167 53.52669996157056,90.84750916685152 54.19054936605971,90.58890298419283 54.854398770665284,90.3302963647875 55.545908566971775,90.08785226242617 56.22358816745691,89.82924479671055 56.901267767942045,89.58679990099336 57.56511717248941,89.32819158906932 58.215136381099,89.10190895784763 58.72685363038909,88.94027830220875 59.21091048786184,88.76248438394396 59.37687283899868,88.7139950976416 60.0130618516705,88.50387467977998 60.607760276587214,88.2775908302865 61.18862850550795,88.06746981349715 61.72800614667358,87.88967488173512 62.22589320014231,87.69571653891762 62.75144064537017,87.51792117547302 63.34613907028688,87.32396236168279 63.96849788707914,87.08151349898253 64.60468689969275,86.80673765709798 64.93661160196643,86.66126789411646 65.4621590472525,86.38649129806436 66.00153668841813,86.07938746004947 66.58240491739707,85.65913910455129 67.1217825585627,85.30354344128864 67.66116019972833,84.94794695205928 68.17287744907662,84.54385903000366 68.56012293504318,84.22058792450116 69.04417979251593,83.88115252902207 69.50057625817135,83.55788002419285 69.95697272376856,83.26693418622017 70.45485977712087,82.97598779539112 71.07721859385492,82.63654964051966 71.68574721476762,82.34560205166053 72.41874759888742,82.02232630443177 73.1240875912481,81.66672219404427 73.88474836724345,81.34344501329178 74.59008835954592,80.98783932601509 75.18478678446263,80.69688860385213 75.7518248175038,80.43826527550118 76.41567422205117,80.11498550068063 77.10718401841586,79.80786908225855 77.75720322702546,79.53308018567623 78.44871302344836,79.22596259991406 79.12639262387529,78.93500852923898 79.69343065691646,78.6602180658665 80.32961966964649,78.36926292000862 80.97963887819787,78.06214299939165 81.57433730305638,77.78735096918535 82.15520553203532,77.49639416429272 82.83288513252046,77.14077954064123 83.57971571257804,76.78516409093572 84.27122550900094,76.5265341540362 84.68613138684304,76.34872581898526 85.04571648093406,76.12242400289688 85.626584709913,75.83146403351566 86.0,75.52433902141638 85.4467921628966,75.34652952227043 84.89358432573499,75.62132593392744 84.34037648863159,75.84762849075196 83.78716865152819,76.13858842945774 83.19247022661148,76.46187660156284 82.68075297732139,76.47804099223868 82.40414905874059,75.84762849075196 82.09988474834245,75.15255528764101 81.67114867462078,74.45747892833606 81.39454475598177,73.76239941286622 81.07645024970407,73.05115199029387 80.70303495967528,72.33990126292338 80.38494045328116,71.72563661143067 80.08067614288302,71.17602930746216 79.80407222436043,70.52942995268677 79.51363810978364,69.86666277925542 79.20937379944371,69.15539725434792 78.8912792931078,68.4441284241475 78.57318478671368,67.79751752848097 78.26892047637375,67.1994000179402 77.97848636191338,66.61744560203806 77.70188244333258,65.9869924877421 77.53592009219574,65.51819233469723 77.3699577410589,65.17871546532842 77.24548597773537,65.0008939475374 77.02420284290565,64.59675336605869 76.77525931614218,64.09561756289622 76.4018440261134,63.61064586842258 75.82097579713445,63.351993669668445 75.58586246636696,62.57603445056884 75.35074913559947,61.89706690653111 75.15712639258709,61.21809635020327 74.88052247406449,60.60378706075426 74.71456012292765,60.08647206223395 75.0603150211391,59.61765383441525 75.79331540531712,59.39132727935794 76.51248559349915,59.229665249353275 77.19016519392608,58.971005646162666 77.90933538222453,58.71234560580342 78.5178640030208,58.550682858534856 78.7529773337883,58.04952725674957 78.44871302344836,57.28970756873605 78.35190165194217,56.93404599298083 78.08912792929914,56.22272036157665 77.79869381478056,55.47905821148015 77.53592009219574,54.76772581660771 77.31463695730781,53.97555630332499 77.16250480210874,53.23188323227805 77.01037264696788,52.55287422821857 76.9965424509719,51.80919424269814 76.94122166727902,51.097844787480426 76.96888205915457,51.00084233281086 76.92739147134125,50.5966647764144 76.59546676906757,50.0146472195338 76.48482520162361,49.30328942133929 76.4433346138685,48.39792016761203 76.4018440261134,47.58955023541057 76.37418363423785,47.12069371776306 76.34652324242052,46.61950067910948 76.27737226273166,46.03746799311193 76.22205147903878,45.40693008467497 76.13907030347036,44.808725051465444 76.01459854008863,44.17818207896198 75.91778716864064,43.62847582879476 75.82097579713445,43.03026384167606 75.7103342297487,42.41588152825716 75.57203227042919,41.6074799883645 75.40606991923414,40.62122432491742 75.29542835184839,39.82898156392912 75.15712639258709,38.98822965682484 75.04648482520133,38.195978438830934 74.86669227806851,37.452228663649294 74.61774875142146,36.53062066476559 74.32731463696109,35.65751322824508 74.06454091431806,35.01076376601122 73.9538993468741,34.752063215506496" stroke="#4dd2ff" stroke-dasharray="none" stroke-linecap="round" stroke-linejoin="round" stroke-width="0.5"><title>2024-05-25 18.7km</title><desc>1716643451000</desc></polyline><polyline fill="none" opacity="1" points="180.20891972137906,104.808116127846 180.11369201487105,105.00355069572288 180.02467481095664,105.15314146965648 180.04537648629048,105.20863457487212 180.00397313563008,105.35581129503043 180.1033411772005,105.46920911178859 180.16337603565626,105.47162182524153 180.11576218240225,105.5415904058118 180.07849916681153,105.61638417131326 180.01225380576216,105.69359038484981 179.9273769369247,105.80216118596036 179.95842944991455,105.98552404668044 179.9439382771816,105.88177944904419 179.98948196289712,105.72495533537403 179.98948196289712,105.5994952776964 179.8942542563891,105.59708257759667 179.95014877978247,105.42336750823051 180.03088531355752,105.25688934056416 180.00811347069248,105.14831597595003 179.89218408886518,105.32927130005373 179.62720264467498,105.22552375433406 179.3498001952903,105.12660124176364 179.12622210175323,105.051805889967 179.23180064592452,104.7260813719331 179.4139753888012,104.46549844938636 179.63134297973738,104.17837126836093 179.84250006807997,103.95638814339327 179.9729206226475,103.8260927065221 179.91909626678535,103.74405446163837 179.67067616287386,103.57032545143011 179.40362455114519,103.28801302173451 179.14899394461827,102.97191552110598 179.0413452329085,102.93813385285102 178.85088981989247,102.75474679121544 178.56106636532058,102.47483741484575 178.26917274320294,102.1321851097182 178.0269631418778,101.84502890868134 177.7102275093639,101.49030161080373 177.47629857817083,101.27311894203376 177.2817028300924,101.08489230944178 177.03535289369756,100.88459818136471 176.78900295730273,100.63362477225019 176.61510888455086,100.45745911460108 176.49917950272356,100.33197042880602 176.34598710529826,100.18234841168851 176.09756700137223,99.90964772412372 176.0044094624027,99.79380928882165 175.81602421692514,99.64177046009536 175.56760411298455,99.39319688415526 175.36472769478132,99.18082122251326 175.10802692073048,98.910522099035 174.86788748692197,98.65228694335747 174.60290604273177,98.39163544436997 174.3689771115387,98.15028883848026 174.13297801280714,97.90169919517575 173.90318941667647,97.68689627839012 173.65269914521195,97.4383016422762 173.45396306207113,97.2428030080755 173.28834965945134,97.09074736948969 173.0357892204629,96.82525099473241 172.6797204048271,96.44630996714659 172.35884443725809,96.12046397863742 172.04417897228268,95.83564667804967 171.95309160084435,95.74151137326771 171.66326814627246,95.59668707728997 171.30512916309817,95.41082789853135 170.96148135265685,95.22738100675633 170.57643019157695,95.01979460643997 170.24313321880618,94.8411722548808 169.9077660785042,94.67944541899124 169.5434165927436,94.49357884879646 169.16664610178123,94.30288301870314 168.8540508043443,94.14598020394806 168.51247316144145,93.97942066330324 168.1522640107505,93.81044598705012 167.82103720550367,93.63905612207236 167.47738939508417,93.45318116673116 167.13788191970525,93.28661662223203 166.91430382617546,93.1659169251543 166.67209422484302,93.05487264585463 166.3615690949373,92.8907192534407 165.99721960918396,92.70966636245066 165.63908062601695,92.5189557798949 165.28094164284994,92.3306577077874 164.9352236648774,92.1423580979208 164.56880401160015,91.9612993305036 164.21687553102674,91.78748157610607 163.88771889332565,91.62814748340679 163.5399307478292,91.43501377352186 163.1652304244053,91.23946424387395 162.81330194383918,91.07771214492459 162.52554865679122,90.92320161745556 162.2233041970103,90.76144729945918 161.86102487878088,90.57554914422508 161.54014891121187,90.4162066751287 161.46769304756162,90.36792086098103 161.26481662936567,90.29307764916484 160.89425664098962,90.09510411091105 160.50299497731612,89.90195755692912 160.13450515648583,89.70156629655685 159.7722258382637,89.5108308280669 159.399595682371,89.32733698904121 159.02075502387743,89.12694073284001 158.65640553811681,88.94344383756288 158.31896823028364,88.77684670681992 157.96289941464784,88.59817598191876 157.62132177175226,88.42191836906568 157.35841049509327,88.32292377616795 157.22384960546333,88.4702082600761 157.15553407689004,88.64646550361795 157.08514838077826,88.79857683564478 157.01062234959682,88.92895717834472 156.95265765867225,89.03760690051786 156.90090347035584,89.15832821334334 156.8512194495779,89.26697685426552 156.9133244755576,89.12211188589208 156.90918414048792,89.10521091360533 156.94023665348504,89.10762533897287 156.99199084179418,88.9675882493575 157.1306920664938,88.68751151750621 157.1182710612993,88.6005904604117 156.92574548075208,88.53298496712523 156.60900984824548,88.47986622613826 156.26122170274903,88.38811538515438 156.09560830012924,88.32292377616795 155.80578484555008,88.2939496685376 155.36690932860802,88.2698045510133 154.92596364414203,88.25290295369814 154.49536879733205,88.20944164654065 154.12894914404023,88.06457003072319 153.86396769984276,87.93901389367966 153.58863541799656,87.80621338893434 153.22842626730562,87.63477887845511 152.8247435984158,87.44644090379188 152.4086399243315,87.31122294704255 151.9987467528481,87.18807733179892 151.61576575930667,87.0770042515851 151.36734565537336,86.97800388099313 151.14583772937476,86.85485648492067 150.79804958386376,86.65443872728065 150.44198076823523,86.45643392952115 150.0652102772874,86.30672185521325 149.69465028891864,86.17874140755339 149.32823063562682,86.00488003792452 149.05289835378062,85.8672388564919 148.6968295381448,85.70061948404873 148.3324800523842,85.60885757597134 147.98262173934927,85.47362883473033 147.65967560424906,85.38669565334385 147.53132521722728,85.26836940712383 147.44644834838255,85.04620420101128 147.34293997174973,84.8506004524661 147.34915047434333,84.48112217358539 147.4567991860531,84.109223019399 147.58100923801976,83.73490287248569 147.61827225359593,83.36540669693204 147.65346510164818,83.08767691118192 147.34708030680486,82.90654698572871 147.00964299897896,82.7157552570643 146.92269596259575,82.45733862337147 146.86059093662334,82.23997659278393 146.50452212098753,82.04434901113018 146.17950581834884,81.86562606414736 145.85862985077983,81.68207132342286 145.80894582999463,81.44296492734611 145.8172265001267,81.017880759342 145.81929666765063,80.64351036239532 145.8275773377827,80.37057843010734 145.8275773377827,80.12421231467124 145.8358580079148,79.91890520462766 145.82964750531391,79.68702673757616 145.82964750531391,79.38992903850158 145.84413867804687,78.84644771567582 145.85241934817168,78.42614669435352 145.87519119103672,77.99134445837262 145.87105085596704,77.57344345755519 145.87519119103672,77.14345647315167 145.8772613585752,76.75936018285574 145.89382269883208,76.37525748203007 145.81101599751855,76.32935798833569 145.670244605295,76.247221823769 145.2562110987492,76.21340096491804 144.8856511103877,76.18682739808355 144.51095078697108,76.15783801745783 144.07207527002902,76.12401702723946 143.70565561674448,76.09502756749134 143.29369227772258,76.06362227821592 142.89207977637125,76.02980114952334 142.58983531659032,76.00564317003591 142.28966102435515,75.98631676817604 141.9584342191156,75.9645745466787 141.57752339309081,75.92833746521683 141.19868273459724,75.89693194845313 140.87366643195855,75.86794220263073 140.48654510334745,75.8413682368755 140.12426578511077,75.81237842105475 139.97935405782482,75.56113182072295 139.97935405782482,75.18184089091119 139.9979855656129,74.82670295141907 139.9938452305505,74.52712654979223 140.01040657082194,74.13332260403331 140.02075740848522,73.74192795452291 140.02489774354035,73.41092851714347 140.02696791107155,73.19348103926677 140.02903807861003,73.08958874088967 140.02903807861003,72.89871562097687 140.03524858120363,72.72958621661019 140.02075740848522,72.4758897784177 140.02282757600187,72.2946763237378 140.06630109420075,72.14728832781475 140.0455994188669,71.87667184355087 140.0393889162733,71.56980822791775 140.05180992146052,71.14937426456345 140.0414590838045,70.7506797855367 140.0393889162733,70.42205368509167 140.06009059159987,70.08617362673976 140.03317841366515,69.75753802995132 140.03524858120363,69.37331839877152 140.0373187487421,69.13166754325175 140.01868724094675,68.89968033259538 140.01868724094675,68.61935933004679 140.01040657082194,68.83926661233818 140.02075740848522,69.0978362208134 139.96693305263034,69.26940884213036 139.65640792271006,69.39989983784108 139.28791810189432,69.35156992577868 139.01051565250236,69.3056564152248 138.95255096159235,69.10750231802194 138.6192539888143,69.04950567384185 138.48883343425405,69.05433873310358 138.68756951739488,69.0640048485966 139.05191900316277,69.12683450024088 139.39970714865922,69.19208049522967 139.7392146240236,69.24282725221565 139.97521372275514,69.30323991213118 139.97314355523122,69.6729619326452 139.96693305263034,69.94843722039514 139.67296926297422,69.98226729136331 139.44111049931234,69.96776869561836 139.0788311810902,69.96051939431527 138.67100817713072,69.94360434905502 138.31493936150946,69.92910572892652 137.9216075302902,69.91702353849723 137.52206519647007,69.90010846124096 137.1349438678517,69.89044269722217 136.74782253922604,69.88077692914158 136.33378903268022,69.87111115699554 135.92803619626648,69.85661249115947 135.7148089403927,69.71887470978072 135.70859843779908,69.32015542846239 135.6982476001358,68.89243069454096 135.69410726506612,68.71602213078222 135.67961609234044,68.49853025762786 135.6568442494754,68.254453594398 135.63200223908643,67.89195871858283 135.6009497260966,67.56329175734027 135.56989721310674,67.20803615447403 135.55540604038106,67.03886489011711 135.52849386245362,66.71018573157926 135.4933010143941,66.3404160604623 135.45810816634184,66.00689321545724 135.43947665854648,65.66611487508635 135.41049431308784,65.35433452058169 135.3815119676292,65.16098023790619 135.34631911957695,64.79118564158853 135.3194069416495,64.38271279838955 135.29456493126054,64.0370762599232 135.2531615806074,63.64792680253595 135.20140739228373,63.273273582588445 135.14758303642884,62.927620355274485 135.13309186370316,62.64239209794505 135.04407465978875,62.287060417187604 134.99025030394114,61.94622690639153 134.93021544548537,61.59088445787529 134.87639108965232,61.27663145412771 134.8453385766552,61.0324780760111 134.8080755610572,60.68679113210965 134.7935843883315,60.430544305701915 134.76874237794254,60.09935313455753 134.7480407026087,59.73914709625387 134.72733902728942,59.434538923724176 134.67765500649693,59.07190487911248 134.60933947792364,58.735858885995185 134.5244626090789,58.399807975334625 134.44786641036626,58.083093622815795 134.3609193739976,57.768792618620864 134.2656916674896,57.45206956240327 134.15804295577982,57.13050657015992 134.07523625447357,56.876637868721446 133.96965771030227,56.56473819258281 133.90341234926018,56.31328110500726 133.7978338050816,55.955433577844815 133.72123760637623,55.60725225140595 133.61772922974342,55.36303858667998 133.50179984790884,55.04628233928088 133.3651687907477,54.695669182365236 133.3113444349001,54.49497096506275 133.16229237254447,54.226564582240826 133.0505033257723,53.9097926508457 132.97390712706692,53.66314277606034 132.82278489717282,53.34636306804532 132.67580300234113,52.988469282301594 132.54538244778814,52.659588990523844 132.4108215581582,52.33312227456372 132.3011026789245,52.05259901584577 132.193453967222,51.781745718768434 132.08787542305072,51.50121571906311 131.99885821914359,51.2617951617176 131.8808586697778,51.19407980338474 131.58482471259777,51.341602291759045 131.2349663995701,51.46735841817281 130.89752909173694,51.610042419244564 130.59321446442482,51.69226669483578 130.3468645280227,51.61246078449403 130.26405782671645,51.22551910175207 130.1874616280038,50.86517379146244 130.11293559682235,50.52658914800122 130.03219906305458,50.15172174963118 129.95353269681073,49.77201110782153 129.84381381756975,49.43341032982062 129.73409493834333,49.099641814224015 129.68648108508933,48.92066249385607 129.5436395253273,48.56995572215965 129.41942947336065,48.20714997042887 129.29935975647095,47.834663427898704 129.1710093694346,47.45491442632556 129.09234300319076,47.22512694494617 128.9639926161617,46.85988105186516 128.83564222913265,46.472859188021175 128.71971284730535,46.126952869220986 128.591362460269,45.74475660282587 128.48992425117467,45.45689571507501 128.365714199208,45.110974068944415 128.25599531997432,44.7868189783112 128.13385543553886,44.43362985620115 128.03241722642997,44.13365673952285 127.92683868226595,43.838518068077974 127.81090930043865,43.482895112934784 127.72189209652424,43.224036839297696 127.62666439001623,42.94824069577953 127.51487534325133,42.636151583776154 127.39894596141676,42.29986476088379 127.29543758477666,41.99986371860541 127.15466619255312,41.59824327255592 127.02424563799286,41.213552029010316 126.91866709382884,40.89901979872593 126.80480787952547,40.56270748426505 126.68680833015242,40.2191315336313 126.57087894832512,39.88038963744475 126.45494956649054,39.54648200996962 126.37835336779244,39.29483826355863 126.3121080067358,39.06012958584142 126.16098577684897,38.685074645864006 126.05333706514648,38.37292746582534 125.93740768330463,38.03657806931005 125.83389930667909,37.726841883091765 125.70968925471243,37.371124064888136 125.59583004040906,37.044439569732276 125.48818132870656,36.693551033144104 125.42400613519567,36.41041636414229 125.33912926635821,36.071618143143496 125.25632256504468,35.7303948690369 125.17144569619995,35.41578734566792 125.07828815723042,35.047933067902704 125.0907091624249,34.83254196495545 124.92095542474999,34.84464264242706 124.72635967667156,34.90998619029233 124.37650136363663,35.001950867699634 123.99973087267426,35.11569614202017 123.65194272718509,35.2294408513535 123.30001424661168,35.33350466500269 122.96050677124731,35.461768714918435 122.61892912834446,35.59003204644614 122.26286031271593,35.740075031988454 121.92749317241396,35.81993622020855 121.63973988537327,35.95303758172486 121.46170547755173,36.015957956080456 121.31472358272731,36.086138169694095 121.02904046320327,36.173258135679134 120.69367332290858,36.25069782724495 120.37072718780837,36.320877321544685 120.24651713584171,36.086138169694095 120.20718395271251,35.727974827656 120.16371043452818,35.46418878442273 120.12437725139898,35.217340377215805 120.06227222542657,34.866423845765894 120.01051803711016,34.52518261313344 119.92564116825815,34.20571812687558 119.82627312669501,34.0" stroke="red" stroke-dasharray="none" stroke-linecap="round" stroke-linejoin="round" stroke-width="0.5"><title>2024-05-01 58.8km</title><desc>1714551575000</desc></polyline><polyline fill="none" opacity="1" points="18.836352633297793,114.075474753874 18.883697446639417,114.35724505406506 18.941802444845962,114.68681144138645 18.939650407868612,114.91322845291324 18.989147258187586,115.23775574769934 19.006363553948177,115.42643237392258 19.006363553948177,115.55473162569433 19.193590770373703,115.51196528525543 19.557285018338007,115.44655779246932 19.89085074873583,115.37611875312723 20.222264442163578,115.28806966088996 20.340626475517638,115.23020865155195 20.583806653165084,115.13461189324335 20.887243865974597,115.01637326646232 21.197137189701607,114.8805239065241 21.532854957062227,114.69435870979942 21.842748280789237,114.51573938232286 22.128969197830884,114.51322360757513 22.477599187019223,114.41510818508868 22.72508343859954,114.35472926257353 23.06080120596016,114.26667639272091 23.362086381806876,114.17610738680924 23.667675631579186,114.08805385625237 23.956048585598182,114.0 24.04643413836311,114.20881290090983 24.13897172808356,114.57360212811909 24.227205243856588,114.93083857466445 24.311134685696743,115.26039702179332 24.386455979656603,115.58491958446757 24.438104866952926,115.8113280552061 24.491905791204772,115.9798751854978 24.605963750633236,116.29935677028334 24.69850134034641,116.57858519610636 24.79964707796171,116.86535692790858 24.89003263070481,117.14457871683226 24.991178368320107,117.4288281660265 25.103084290763945,117.75332117748076 25.204230028371967,118.0929021525917 25.26879113747418,118.29161766268044 25.35056854235154,118.46266259675758 25.44310613207199,118.7217430251203 25.533491684822366,119.00094305024322 25.623877237580018,119.27762453119249 25.69489445759973,119.49645215363307 25.768063714574964,119.66245797448755 25.862753341272764,119.92152535309833 25.877817600070557,120.00955731611066 25.97250722676108,120.28119675128801 26.07150092739903,120.60313577467241 26.18125481288007,120.93764593235574 26.295312772308534,121.26963633213927 26.362025918380823,121.47084038356661 26.467475729928992,121.74246315772871 26.58153368935018,122.07192736680372 26.659007020280114,122.3737226444664 26.740784425150196,122.49946954867119 26.809649608199834,122.70066321514605 26.90218719792756,122.99742077248993 26.99472478764801,123.26902614522805 27.08080626645824,123.57583589833484 27.160431634358247,123.8122276041122 27.179799967096187,123.91784867220485 27.296009963480174,124.18441404829355 27.410067922908638,124.49875617970065 27.5262779192999,124.85332912818376 27.64463995267579,125.24058717301341 27.763001986037125,125.58257605893596 27.87275587152544,125.90947261330075 27.997574015804275,126.26653911158064 28.113784012195538,126.61354227423544 28.234298082534224,126.96808376715308 28.363420300753205,127.32261998761169 28.488238445017487,127.67463655064603 28.604448441430577,128.03419096027937 28.71850640084449,128.32836780802063 28.768003251156188,128.49682641988875 28.828260286332807,128.4264259507272 28.884213247562002,128.46414051362808 29.06713639003283,128.4767120213346 29.413614342243818,128.33842507198096 29.764396368409507,128.22025195247443 29.99681636119203,128.2604811652982 30.128090616381087,128.54208375458438 30.28949338915845,128.83122580991403 30.44874412495119,129.11785012610017 30.610146897728555,129.4094994028037 30.77585374443879,129.54526595284733 30.83395874263806,129.7187443086459 30.90712799962057,130.08078202982688 31.008273737221316,130.46544108680428 31.107267437859264,130.80735504043514 31.15461225121544,130.9481417143361 31.270822247606702,131.1794323031172 31.387032243997965,131.45597245448153 31.486025944635912,131.71239773004163 31.623756310727913,132.05932165645936 31.755030565916968,132.40121276366153 31.87339259928558,132.68528032428185 32.0175790762878,133.0422453832325 32.146701294506784,133.32881910060314 32.097204444195086,133.41177400792913 31.957322041125735,133.4620495689578 32.00036278053449,133.4419393572516 31.993906669624266,133.43188424505024 32.105812592068105,133.41177400792913 32.25215110605495,133.59779305455777 32.36836110245349,133.91201112303497 32.51469961642579,134.27398520860152 32.66749424131558,134.63595380294464 32.809528681355005,135.01048497112242 32.914978492903174,135.32217085763477 33.016124230496644,135.67658292734632 33.12587811598496,136.05863827035319 33.19689533601195,136.24212320181323 33.30664922149299,136.58646782697906 33.40779495910101,136.92326725281782 33.51109273367183,137.27011542541368 33.607934397339704,137.60941854333396 33.69616791311273,137.94117692847067 33.79946568768355,138.27041743397604 33.88339512953098,138.61975926456216 33.94795623864047,138.93642442031341 34.00606123683974,139.25308537573255 34.0340377174507,139.4868086249171 34.05125401321129,139.79340984793998 34.07923049382953,140.1980169110775 34.09859882656019,140.50209596753302 34.122271233231004,140.63528640078584 34.16100789869233,140.972028710843 34.197592527190864,141.359025202446 34.25354548842006,141.7284250940029 34.309498449649254,142.0877678050001 34.36760344784125,142.4571564245598 34.40634011331713,142.7134635378152 34.43431659392081,142.85417999903075 34.483813444239786,143.1406359476914 34.53331029455876,143.47483021240805 34.56343881213979,143.69846135712396 34.59141529275075,143.9497298084334 34.61293566245877,144.1758691547784 34.6021754776084,144.2612990173675 34.66028047580039,144.57035155667836 34.68825695641135,144.91457610106409 34.70116917823907,145.26633328525895 34.70116917823907,145.42964736026988 34.72914565885003,145.54522280031597 34.76142621340841,145.81154668576892 34.787250657056575,146.11555428499378 34.80877102675004,146.37935939759336 34.8345954703982,146.65069876053167 34.85396380313614,146.96474510222288 34.88194028373982,147.27878731659075 34.90346065344056,147.52499352646373 34.935741207998944,147.84405290241375 34.94650139285659,147.9922758877674 34.97447787346027,148.3238900851702 35.000302317108435,148.60525609885735 35.019670649846375,148.83637570354222 35.02612676074932,148.96700753497316 35.039038982569764,149.23329328796717 35.03258287165954,149.5297211085017 35.03688694559969,149.84121756881905 35.056255278330354,150.12507774355254 35.07347157409822,150.34362266107564 35.08638379592594,150.79326626457987 35.08853583288146,151.16754415507057 35.09068786985881,151.5719586450723 35.08638379592594,151.93115335641596 35.09068786985881,152.37071996123814 35.09929601774638,152.71232042816519 35.09283990683616,153.06898629612442 35.06916750015807,153.31513287700545 35.11220823955955,153.43067019427144 35.131576572290214,153.72704597727716 35.15309694199823,154.03346453505947 35.16600916382595,154.31225177905253 35.18322545957926,154.6086166369023 35.18968157049676,154.9878578357384 35.18107342260191,155.29426024027634 35.15094490502088,155.63833039298697 35.12727249835007,155.9095646889309 35.103600091679255,156.05522628220933 35.15955305290845,156.12052257057803 35.458686191777815,156.1330795286758 35.81592432884645,156.17326175028757 36.16455431803479,156.21093252175342 36.55407300965453,156.25864874711442 36.90055096186552,156.28878526144763 37.24702891409106,156.3239444801984 37.56768242265389,156.34654680782114 37.86035945062031,156.35659227990254 38.17025277434004,156.37919457668067 38.484450171999924,156.40179685209478 38.79219145875686,156.41937638487616 39.12145311520726,156.44700133885635 39.44641069771751,156.4696035502111 39.594901248667156,156.4947170933283 39.90264253541682,156.5047625031948 40.223296043994196,156.53741005612574 40.580534181055555,156.57005756450053 40.87751528296212,156.59014831673448 41.1938647175848,156.61777307351258 41.48438970858115,156.64539779838742 41.67807303589507,156.63535244757804 42.050375431761495,156.66297715215296 42.40546153186733,156.70818114537724 42.743331336198025,156.7408284206922 43.11132965810975,156.77347565145283 43.45780761032802,156.79858887556293 43.8128937104193,156.82872470970688 44.20671647598647,156.85886050587942 44.50800165182591,156.87392838973028 44.73396553370549,156.89150757556308 44.95132126770477,156.90406412895936 45.175133112614276,156.91662067576726 45.495786621191655,156.9392224434141 45.644277172134025,157.15268252913847 45.63997309820115,157.47412471172538 45.63136495032086,157.79305135897994 45.62275680243329,158.1546638318032 45.616300691523065,158.45851453132855 45.61414865456027,158.81509472861944 45.60769254364277,159.15409210158214 45.601236432739825,159.51066193368024 45.603388469695346,159.83709444540727 45.599084395762475,160.15096766142779 45.596932358785125,160.4221508052633 45.596932358785125,160.61800338701323 45.59047624788218,160.95948610638152 45.581868100001884,161.4415710629728 45.57110791514424,161.92866787606908 45.56465180423402,162.39315818148134 45.55173958242085,162.8149577854274 45.5495875454435,163.1815156911889 45.51730699088512,163.51542999422418 45.43337754905224,163.88448775298275 45.30855940476613,164.21839225184158 45.138548484115745,164.5171449616464 44.99866608105367,164.75062137525128 45.06968330106611,164.64769119392986 45.14715663201059,164.71045355226124 45.29134310900554,164.81589394389448 45.54528347151063,164.99664782077525 45.803527907941316,165.1849316582975 45.964930680711404,165.28534909963128 46.17583030380047,165.4861827190016 46.43192270326108,165.68952504258596 46.685863065758895,165.8878449048425 46.93980342825671,166.03093543103023 47.18298360589688,166.0234043720211 47.26045693681954,166.06105964338713 47.40033933988889,166.2593764288922 47.451988227177935,166.39242347845357 47.712384700578696,166.43509879062367 48.043798394006444,166.55810367668892 48.37521208742692,166.64847421081686 48.6808013372065,166.7463752379772 48.94765392152476,166.88192984569105 49.19083409916493,166.9923811810222 49.427558165902155,167.10785248698812 49.65782612172188,167.2208130084873 49.944047038770805,167.32122191368217 50.262548510370834,167.439201839421 50.5207929468088,167.55718118404184 50.69295590442198,167.6450377652891 50.97056867359788,167.80568896620025 51.20729274032783,167.9462578831226 51.450472917968,168.0792955625493 51.790494759276044,168.19727175446133 52.143428822397254,168.30520691043057 52.44901807217684,168.39808095767512 52.76536750681407,168.48593445475308 53.04728434992285,168.61143889164305 53.27109619482508,168.72188225220998 53.4690835960937,168.80973456177162 53.65631081251922,168.90009660120813 53.908099138025136,169.02308882942089 54.22014449872222,169.17369069786582 54.58599078367115,169.32429161956134 54.949685031650006,169.37700171850156 55.278946688100405,169.40461172403957 55.530735013628146,169.4196717136565 55.83417222643766,169.41716171603912 56.14621758712747,169.45732164625588 56.277491842309246,169.49999149834912 56.58738516604353,169.54517125890743 56.8800621939954,169.60541080712937 57.260972737734846,169.69074990781155 57.40731125171442,169.75098908998734 57.68922809482319,169.87146699996447 58.00988160340057,170.01955360097782 58.29610252044222,170.1500698464224 58.526370476261945,170.2404268306309 58.683469175091886,170.30317453585303 58.97614620305103,170.41862988409775 59.305407859508705,170.5516538347074 59.6432776638394,170.68718691162758 59.96177913543943,170.82522907228667 60.23939190461533,170.86538664242107 60.61599837441463,171.05613418151552 60.994756881184,171.24939000813356 61.3326266855147,171.42005619540214 61.625303713466565,171.5580941341941 61.8835481499118,171.69864103673535 62.1267283275447,171.8341676263808 62.39788498581038,171.96467398829554 62.67119368103158,172.10019907343667 62.907917747768806,172.21815546816833 63.172618295109714,172.3561888098793 63.463143286098784,172.5218277705153 63.74290809223021,172.65734970499034 64.01836882442876,172.80541909068597 64.34547844391636,172.9735645719702 64.64030750884558,173.13167044096917 64.92437638891715,173.26969852151706 65.20198915808578,173.41023538683112 65.50542637090257,173.5758670630912 65.80025543583179,173.716402133261 66.10154061167123,173.86195544444672 66.40712986145081,174.017545937646 66.70195892638003,174.16811642108405 66.95589928887057,174.30362904751382 67.18831928166037,174.41655565102337 67.46808408779907,174.557085792434 67.76076111575094,174.7051434430723 68.05343814371736,174.86323789101698 68.38054776319768,175.02885952774523 68.69689719783491,175.18444244722377 69.00463848458458,175.35758999306017 69.30807569739409,175.53826435981136 69.61366494717367,175.68380660951152 69.94938271454157,175.85444122537228 70.30016474069271,176.0300932378923 70.61866621229274,176.19570681389814 70.89843101843871,176.343754345271 71.1975641573008,176.4943102193247 71.52467377679568,176.65992058889606 71.84747932232858,176.820511370046 72.12939616543736,176.95851821329052 72.4715700437082,177.1542356471873 72.74057466499653,177.3424239810247 72.74487873894395,177.4202080609557 72.9751466947564,177.5331199860957 73.26782372271555,177.78654259344876 73.50239575247542,178.0299261408145 73.72405556041485,178.26327093387408 73.93065110956377,178.45395961657232 74.15231091749592,178.68228222891776 74.4385318345594,178.97081868483292 74.70323238190758,179.24680682940016 74.9916053359193,179.55039012047746 75.26060995720036,179.8238626880484 75.51670235666825,180.09733213774416 75.77925086703908,180.34821879894116 76.03534326650697,180.60161166327453 76.28713159202016,180.8524930504118 76.51955158481724,181.09082793798189 76.75197157760704,181.33919545927165 76.94995897886838,181.55996443072945 77.15225045407715,181.73557466185412 77.19098711954575,181.76567914384395 77.22111563713406,181.79578358805156 77.30074100503407,181.8735532274277 77.47936007356475,182.05668718890593 77.60633025480638,182.18713792541166 77.78279728637426,182.37026949335814 77.96356839188229,182.56845139620964 78.19383634770202,182.81680362173574 78.41549615564145,183.0400675697383 78.57044281750132,183.17553007617425 78.76412614482251,183.35112848338213 79.01806650732033,183.61201517279915 79.2612466849605,183.86537356992267 79.51088297351816,184.12374621019444 79.77127944691165,184.39716665442756 79.89824962816056,184.5501804059768 79.96065870030725,184.61289067804682 80.16295017550874,184.80102051111317 80.36524165071751,184.99416560553982 80.60196571744746,185.23496770218117 80.81716941446939,185.46322579252774 80.92046718905476,185.62877425818806 80.97426811330661,185.67141534472103 81.08186996183213,185.84197893332566" stroke="red" stroke-dasharray="none" stroke-linecap="round" stroke-linejoin="round" stroke-width="0.5"><title>2024-05-01 52.5km</title><desc>1714541844000</desc></polyline><polyline fill="none" opacity="1" points="186.0,148.5071060415694 185.74571493374242,148.5057425045634 185.5614165829611,148.48528943215751 185.3537893270186,148.51256018816093 185.07150957456906,148.51392372445116 184.8067265009886,148.50846957843623 184.53727764637006,148.52346847442823 184.2888248064046,148.5302861486598 184.01004438971722,148.53437675147052 183.74992709716753,148.50437896741278 183.53996695071692,148.48256235338795 183.2576871982601,148.46756340985485 182.99873635097174,148.54937561735187 182.80044065709808,148.59300858261668 182.59981207270903,148.60800738035596 182.41901305770443,148.48256235338795 182.29770275086776,148.20576086039 182.2428798237379,148.0857662501112 182.14373197680106,147.83622843071134 182.09357483070198,147.67941257771872 181.99442698376515,147.44350339998618 181.94893561870413,147.3207743763851 181.84628843599057,147.06031224725666 181.74714058905374,146.8148457418556 181.64332696108613,146.60210432573422 181.35638142759854,145.85884555476605 181.17091663156316,145.8315691888256 181.07526812040305,145.598353904933 181.0099471859503,145.5465277135927 180.8373132877532,145.71564399003 180.61218935294892,145.71018866088616 180.43838900949777,145.63517765117103 180.32057803842326,145.61472002735172 180.03946473123506,145.61335618460726 179.87382950458414,145.64199685190033 179.623043774096,145.72519081047813 179.44457764961408,145.7879268833385 179.33959757638513,145.8220224471197 179.07714739331277,145.91885335679217 178.80069986714807,146.01977493968116 178.67355733402655,146.07432681787122 178.49625765479868,146.18342988210225 178.37494734795473,146.2379810681532 178.18598321614263,146.36344792055934 177.9701908433999,146.43163591544908 177.80338917149493,146.4820947996077 177.5397725431758,146.5611921127129 177.37063798074814,146.61574170123822 177.14901338172058,146.68392836251314 176.96471503093926,146.76302443806526 176.79674691378023,146.9512165992419 176.5226322781309,147.06985807256478 176.39665619026346,147.11485972531227 176.15520202183689,147.21849929823566 175.87292226938007,147.34532027450314 175.71545215954393,147.4121394272297 175.48566244370159,147.52804938156714 175.34335612221184,147.58804941950075 175.17305511453742,147.69032156830235 174.93276739137946,147.86213695340666 174.74380325956736,147.99986033238474 174.5979976023009,148.06531251205251 174.32155007614347,148.16621730527186 174.13258594433137,148.2371229041437 173.91679357158864,148.27939336426607 173.61235135923198,148.34211701766253 173.4642128114574,148.34620768011882 173.1900981758081,148.36120676470546 172.9404788905813,148.29302896702666 172.76551210187608,148.2439407296606 172.5765479700567,148.13212793635557 172.35958915205993,147.95213457541286 172.15896056767087,148.06667609559827 171.9548326475051,148.19894301470413 171.72970871269354,148.31075522907304 171.4894209895283,148.39529552847216 171.21530635388626,148.4989248173606 170.9610212876214,148.58755447002932 170.7942196157237,148.64482253726237 170.62041927226528,148.74435928752155 170.43962025726069,148.82071572629047 170.2203285487485,148.8561667764443 169.9812072708446,148.897071713307 169.76424845284055,148.94479397579107 169.67443216796528,148.95706538619834 169.40731620386214,149.05796320715672 169.22651718886482,149.1643141105069 168.96873278683051,149.30884085659636 168.7074490490195,149.42746065599385 168.5826394064061,149.50108619008552 168.32952078540256,149.63061157337415 168.07640216440632,149.7778599041676 167.9189320545629,149.88420487624808 167.78479084988066,149.94283057598932 167.51650844052347,150.00418276735581 167.2143991186822,150.10370903540752 166.97761073129368,150.1732406304036 166.73615656287438,150.23459172675302 166.47603927031741,150.31639273502424 166.21475553251366,150.44863660210467 165.94064089686435,150.59042233629498 165.82166348054307,150.64086496235905 165.58720798366267,150.74311292409038 165.37374850143533,150.84263349587673 165.19411593169934,150.90534469507384 165.00981758091802,150.99532110104337 164.92233418656542,151.0348559902386 164.85234747108188,151.05939482609392 164.642387324624,151.15209667402087 164.3986002656893,151.28433198177208 164.18164144768525,151.3838483821828 163.92968927194306,151.52562384720113 163.67773709620087,151.67012416174293 163.52843210316496,151.72601535918693 163.29864238732262,151.84052339847221 163.0781842335491,151.9604831125489 162.8997181090599,152.04636267799287 162.73991510870837,152.02046255173082 162.63026925444865,151.7846326966146 162.5066260570893,151.55288818125337 162.4133104364446,151.4002071691284 162.2838350128004,151.2120798680362 162.14619447234872,151.00759056236893 162.02721705602016,150.8344537517869 161.926902763822,150.77037891045893 161.72394128891756,150.9026181275358 161.49765090885194,151.01986001203386 161.35301169685408,151.08802340898364 161.07306483491266,151.16845575457046 160.8327771117547,151.14664364256896 160.6811392282034,151.0839336153149 160.41052392832353,150.91897752416207 160.0885850370978,150.8112777820579 159.76897903638746,150.76083582177944 159.50302951753838,150.73084321143688 159.23707999869657,150.70903036014897 158.98746071346977,150.65858800040678 158.82649126786418,150.64086496235905 158.63636069079075,150.61223538796912 158.38674140556395,150.59042233629498 158.1196254414608,150.56179265004812 157.84434436055744,150.53725286844747 157.57139617016946,150.51407636522072 157.32410977545806,150.4895364929207 157.0943200596157,150.46908656371033 156.85403233645047,150.45954325233015 156.62074328483868,150.53588954588213 156.466772510772,150.60132886673819 156.37345689012727,150.4581799215548 156.25331302854465,150.26594884118458 156.12617049541586,150.0641712947554 156.00602663383324,149.86784416833416 155.9092116774118,149.7274139059209 155.80306515892153,149.5528964993673 155.70625020250736,149.3906477314622 155.55227942844067,149.15749677119402 155.3959757638586,148.91479714568413 155.25366944236885,148.69527276690224 155.15802093120874,148.54801208480876 154.93989566795062,148.59709916554948 154.819751806368,148.67209295615248 154.60395943362528,148.7866280862354 154.407996630267,148.86843827111716 154.24119495836203,148.93661302904184 154.00324012571218,149.03342056654492 153.75595373100805,149.13431779059465 153.51566600783553,149.2611199401481 153.44917862812872,149.30202359362193 153.2812105109624,149.3756498432149 153.05142079512734,149.46700034687547 152.85429154650774,149.53926222761038 152.63616628324962,149.61697738370822 152.49385996176716,149.66197015496164 152.1602566179572,150.06008117674355 152.01211807017535,150.12824964110678 151.19443994426547,150.10507240361312 151.06146518484456,150.06689803938025 150.84100703107106,150.10779913959595 150.56689239542175,150.15142683699378 150.305608657618,150.18551087299693 150.06532093445276,150.21141468017868 149.83436477334908,150.2318650175548 149.59524349544517,150.2400451434305 149.37945112270245,150.24686191103683 149.09950426076102,150.25095196987513 148.79039626737358,150.25776873172072 148.74723779282067,150.2618587870993 148.4696238214019,150.25913208366 148.14535203965352,150.26731219225894 147.86190584194264,150.2686755431905 147.54346628648636,150.27412894546796 147.23785762886837,150.25776873172072 146.92874963548093,150.25504202741377 146.66746589767718,150.25367867504156 146.38052036418958,150.25095196987513 146.10873861905566,150.25095196987513 145.8287917571215,150.24958861707455 145.5570100119876,150.25367867504156 145.3073907267608,150.25095196987513 145.03444253636553,150.25504202741377 144.77782457959256,150.24822526412754 144.50021060816653,150.24958861707455 144.26225577552395,150.2441352044243 144.0802903152653,150.24822526412754 143.77234876713192,150.25095196987513 143.4819038978676,150.25367867504156 143.21012215273367,150.25640537963773 142.9453390791532,150.25913208366 142.7143829180568,150.25913208366 142.5195865599526,150.25367867504156 142.2571363768875,150.25095196987513 141.99351974856108,150.25231532252928 141.6937433172352,150.25504202741377 141.4651200466542,150.25504202741377 141.29948482000327,150.2618587870993 140.9717137024927,150.25367867504156 140.68826750477456,150.26731219225894 140.45147911738604,150.26731219225894 140.20302627742058,150.26731219225894 139.89158539351047,150.26594884118458 139.61163853157632,150.27140224461618 139.35385412954201,150.26458548996834 139.10190195379255,150.26594884118458 138.8557820043352,150.26731219225894 138.6014969380849,150.27140224461618 138.3833716748195,150.27276559511574 138.11625571071636,150.27140224461618 137.80831416259025,150.27003889397565 137.58785600880947,150.2809456950763 137.339403168844,150.27821899566607 137.02213005864178,150.27549229568012 136.72352007257723,150.2632221386075 136.6033762109946,150.28367239391264 136.26977286718466,150.28367239391264 136.06447850176482,150.28503574311708 135.8696821436606,150.28367239391264 135.537245245112,150.28503574311708 135.26313060946995,150.27821899566607 134.99368175485142,150.2795823454435 134.72539934549422,150.28367239391264 134.4664484981986,150.29457918349817 134.19466675306467,150.29594253154937 133.9380487962917,150.29594253154937 133.69542818261107,150.29594253154937 133.5017982697682,150.3082126575191 133.22768363412615,150.30275926963986 132.96639989631512,150.3000325748344 132.7716035382109,150.30275926963986 132.48932378576137,150.30412261682523 132.22104137640417,150.3082126575191 132.00758189417684,150.3095760041315 131.97375498169276,150.25367867504156 131.93992806920141,150.08598523560795 131.70780546285096,150.09280208455948 131.43369082719437,150.08325849501398 131.25872403848916,150.06008117674355 131.05342967306933,150.07235152689464 130.75598613225884,150.05871780378493 130.48420438712492,150.0505375630055 130.2182548682831,150.03281369020442 129.9418073421184,150.0164531706405 129.68052360431466,150.00690952464902 129.39824385186512,150.01236303750466 129.1206298804318,150.02190667946525 128.85468036159727,150.03145031436816 128.60622752162453,150.03963056724206 128.3391115575214,150.04235731704466 128.0848264912711,150.04917418904097 127.8480381038753,150.0573544306826 127.62291416906373,150.0628079222297 127.51210186954268,150.06689803938025 127.24265301493142,150.07507826978963 126.96853837928211,150.08325849501398 126.7935715905769,150.09280208455948 126.80173670737713,150.3695631124574 126.78540647376212,150.65313476052143 126.7772413569619,150.92579393330652 126.73874866344704,151.18208830586264 126.71075397725508,151.32113950691473 126.60227456824941,151.5815156700537 126.47513203512062,151.84733932117524 126.34915594724589,152.11724696846704 126.23484431195538,152.36670205086648 126.13686291027989,152.6502298462874 126.1077017788266,152.92012071573208 126.14502802708012,153.2418014566183 126.20568318050937,153.57710421087995 126.25234099083173,153.8483386895532 126.30133169166947,154.1113898050271 126.10186955253448,154.21497323055428 125.837086478954,154.24904654428155 125.57580274114298,154.28720854898256 125.31801833910868,154.32128167222436 125.17687846288027,154.359443463577 125.0345721413978,154.36762097563496 124.79195152771717,154.40033097210107 124.56682759290561,154.44666999201763 124.32887276025576,154.46029908389846 124.22505913229543,154.45621035784188 124.24838803744933,154.46166199229447 124.47467841752223,154.46711362444876 124.73012992904114,154.41941176513774 124.98441499529872,154.3812501508919 125.19554158701067,154.35399178599891 125.3821728283001,154.32945920843395 125.62829277775745,154.29266025473862 125.89540874185332,154.25313533589087 126.0785406473733,154.22860256682634 126.09720377149642,154.1345598538892 126.03771506333578,153.89604265727667 125.9828921362132,153.6806919200635 125.95139811424451,153.53076207207596 125.90474030391488,153.36038513268068 125.83475358843134,153.0741468157812 125.77176554449397,152.80425916460626 125.71694261737139,152.55072320386716 125.66561902601825,152.331260638809 125.62012766094995,152.12951536386208 125.52097981401312,151.89641385844152 125.40316884294589,151.67830337647683 125.27019408353226,151.42747176798002 125.29702232446289,151.1752720320137 125.34717947056197,150.96941886662262 125.409001069238,150.75947252282185 125.47548844895209,150.50998638974397 125.53964293814352,150.28912578985728 125.60613031785033,150.0628079222297 125.65162168291135,149.87057095442924 125.45799177008303,149.78467691583683 125.2200369374259,149.7233236812035 124.96808476168371,149.65924332480336 124.70096879758785,149.5897089611708 124.45134951235377,149.52971822881773 124.19823089135753,149.46563691127903 123.96610828499252,149.40291871796762 123.77597770793363,149.35928849071115 123.50069662702299,149.28429869303272 123.24524511550408,149.2133988472624 123.03878430482291,149.16022370734936 122.79383080063417,149.0961405553353 122.51388393869274,149.02387619370438 122.27009687975806,148.96251934263 121.99131646307796,148.88889073630435 121.75219518516678,148.83980476539546 121.52823769561655,148.77981054741758 121.2902828629667,148.66391183653923 121.10831740271533,148.50028835509056 120.93568350451824,148.32848146676952 120.73505492012919,148.13076435972653 120.55425590512459,147.95758895657036 120.37462333538133,147.7966837431377 120.13083627644664,147.67941257771872 119.85205585975928,147.65077643355562 119.61993325340882,147.7025941716838 119.47995982243447,147.773502318214 119.24900366133807,147.9603161462901 119.02504617179511,148.1498544194328 118.81275313481456,148.27939336426607 118.57829763794143,148.37075162763722 118.33334413374541,148.41847583639628 118.11055308945652,148.43620192612798 117.9425849722902,148.43892901469553 117.73612416161632,148.45256444888219 117.4830055406128,148.47029049179218 117.23688559116272,148.49347066501014 116.99893075851287,148.5071060415694 116.74114635647129,148.52483200955976 116.48686129021371,148.54528501929326 116.28739915108599,148.5507391497522 116.03894631111325,148.57664623793153 115.77183034701739,148.59982622011375 115.53620840488293,148.62164263589784 115.2935877912023,148.64482253726237 115.04746784175222,148.6557307117355 114.7943492207487,148.69663628388298 114.5552279428448,148.79753614084802 114.35110002267902,148.9502479374123 114.18429835076677,149.14658902080373 114.10264718270628,149.29384287329685 114.03499335773813,149.49154216306215 114.0,149.75740884755578 114.01516378835368,150.05190093683086 114.03849269350758,150.33002618600767 114.0606551534147,150.6258685265484 114.07581894176838,150.89034856645503 114.10381362796761,151.15754970317357 114.1248096426134,151.43701436397714 114.14697210251325,151.73692093047976 114.15397077405942,152.05045216686722 114.15513721932075,152.27128264300336 114.1434727667438,152.59161643737207 114.12014386158262,152.89831156197943 114.09798140166822,153.18727986094655 114.08165116806049,153.45307046641483 114.06182159867603,153.72975949241027 114.03965913876891,153.9982648521409" stroke="red" stroke-dasharray="none" stroke-linecap="round" stroke-linejoin="round" stroke-width="0.5"><title>2024-04-21 79.4km</title><desc>1713660889000</desc></polyline><polyline fill="none" opacity="1" points="19.805532082704303,194.149602232299 19.97890337393619,194.82762586554236 20.092420290813607,195.47908867948172 20.172914104594383,196.11846929270177 20.15640255305334,196.4755495416266 20.707475585884822,196.39351808660103 21.328722712794843,196.39834347446777 21.48351850853942,196.6637382367262 21.4959021721952,197.27172188346594 21.244101011128805,197.51056817329845 21.293635665773763,197.3609879608921 21.491774284317216,196.93878046288228 21.246164955067798,196.32837525063042 21.277124114218168,196.20532716448906 21.67340135131235,196.0822784152715 22.224474384158384,195.84582993776712 22.92621532484918,195.5659489835507 23.578421610909572,195.36327442669608 24.257459168227797,195.17507501292857 24.88283418302308,194.98928689050263 25.09748435311485,195.54423393851903 25.25434409279842,196.1715491424984 25.421523552198778,196.85916331704175 25.62585400257376,197.46231659892328 25.867335443930642,198.15954194222104 26.115008717119053,198.91705677130813 26.36680987818545,199.6166500629006 26.612419207442144,200.32587104682898 26.794046274444554,200.87103955680504 27.091254202256096,201.72253779526181 27.291456764753093,202.28214541927446 27.510234822737402,203.00575564946303 27.722821048890182,203.59668700772272 27.916831779548374,204.14418936427865 28.119098285984364,204.75438578761896 28.358515783402254,205.44656517238764 28.579357785325556,206.09772525120752 28.8167113387899,206.78262917171742 28.99214657396078,207.2842359282895 29.250139566865982,208.04868275298213 29.466853680904023,208.6708319673653 29.679439907049527,208.90473640236632 30.317198585515143,208.68047755838052 30.796033580329095,208.83239508007136 31.15722377039492,209.48104743003387 31.48539085736411,209.86926550065982 31.671145812259056,210.67702732298676 31.828005551942624,211.24364918975516 32.11489376004465,211.8970552794617 32.40590985604649,212.64929305448277 32.73614088696195,213.42320418357303 32.88887273875298,213.83546391190612 33.1633772832065,214.49843912637516 33.371835621466744,215.02880546906636 33.567910296071204,215.61701558301684 33.74128158731037,216.23413781282215 33.972443308957736,216.94766465014618 34.2180526381926,217.71419910595432 34.422383088567585,218.50722189203407 34.566859164588095,219.06882931726977 34.608138043455256,219.70996086901505 34.64322509049089,220.3510744701307 34.68037608146551,220.7993612874452 34.806276662005985,221.67180832296435 34.91566569099814,222.36829605078128 35.02505471998302,223.0358439962547 35.113804309556144,223.71783137490274 35.173658683896065,224.24075494169847 35.22525728248729,224.83595756501018 35.276855881063966,225.46969882772828 35.34909391907422,226.28895813518102 35.39450068582664,226.86965067142592 35.44609928440332,227.44310023032267 35.48737816327048,227.99966990505527 35.53278493001562,228.53213300505377 35.53897676185443,229.05012822421122 35.55961620128801,229.7126631891042 35.594703248316364,230.45949782967546 35.592639304370095,231.44480050761376 35.60089508014789,232.06149653342254 35.586447472538566,232.7383976884812 35.65249367872457,233.30929167280192 35.68345283787494,234.10659240154746 35.66281339843408,234.6726350092231 35.61740663168894,235.3061044291171 36.0198757006292,235.40244805554175 36.75670368834835,235.46747977465202 37.48114801241172,235.5228770196045 38.05492442863033,235.5662312919194 38.814455799736606,235.63367110821855 39.54509195562423,235.6890679518765 40.09203710057773,235.73483046096408 40.8226732564799,235.79745269390514 41.48107137437182,235.8528491420966 42.19106809083314,235.90824545653413 42.79580366619484,235.9515990006239 43.404667129441805,236.00217803185296 43.9516122743953,236.0455313984403 44.56666756948107,236.09611022258832 45.10742088260304,236.13464639472295 45.66468574726605,236.1779995110046 45.71215645796474,236.80420205365044 45.69770885036996,237.65677342689924 45.68119729881437,238.41298254371213 45.68119729881437,238.98373534440907 45.66674969121959,239.67006485324237 45.650238139664,240.7296209915039 45.62959870023769,241.62779732714807 45.59863954108732,242.4657424934503 45.35922204367671,243.20975438103596 45.03931073247077,243.746680023125 44.830852394210524,244.1102413791341 44.98358424600883,243.9344806475292 45.30555950114649,243.6503714148621 45.823609430895885,244.03801110429777 46.327211753050506,244.45453590030775 46.90098816925456,244.88549869147027 47.390142883799854,245.07329000383288 47.92676830903656,245.34534392528258 48.589294314806466,245.5475766107793 49.34469779803476,245.92073939225338 49.92466604607034,246.15426398449563 50.65736614591151,246.4913056019741 51.11556170131371,246.7585279412706 51.80491897834145,247.0209324388452 52.40139877793263,247.19666955500725 52.81418756657513,247.3555540097841 53.31778988872247,247.60110055139194 53.82758404269407,247.84182990738373 54.52932498338487,248.08014948531672 55.17740338155272,248.11144379174038 55.792458676645765,248.17162503045256 56.40338608383172,248.29198703497786 57.059720257770095,248.46771442936551 57.65413611341501,248.74213534351657 58.28776690399536,248.98766706770584 58.98331601285463,249.28374595173227 59.619010747359425,249.51723636501083 60.31662380017224,249.81571550047192 60.96676614228636,250.14548229590036 61.45179296893912,250.40303409337503 61.89966880461725,250.6220712014947 62.428038454083435,250.89165246898847 63.028646141559875,251.2189969002211 63.54876001524099,251.49097806557438 64.10602487991855,251.76054914240012 64.70250467950245,252.07344017810465 65.30517631092516,252.36707250711515 65.92229554994992,252.6823620617215 66.39700265688589,252.9326651939682 67.04301711110747,253.25276042103724 67.69728734110686,253.58729127168954 68.25455220578442,253.8881242109237 68.72306748089613,254.13360097303666 69.27207656978862,254.41276743918024 69.8107659389716,254.69915020586632 70.23387444732361,254.9109267645781 70.80352297564968,255.19970983794155 71.31950896145281,255.46201798654693 71.72816986221733,255.77485865542985 72.21319668887008,256.15026184085946 72.63011336540512,256.5785990166187 73.04290215404762,256.98286498887137 73.66002139306511,257.6181257330518 74.18632709858502,258.1523086891939 74.71469674804393,258.68647924152356 75.18114807921665,259.15326677669145 75.60425658758322,259.5983903985725 75.94893522609345,259.94004701274207 76.09341130212124,260.06515943340855 76.4607933240186,260.4789879785294 76.576374184835,260.6907113330544 76.9231167672915,260.9457391509586 77.27605118157953,261.2873757610523 77.82712421441829,261.82628517402736 78.35342991994548,262.36999349002326 78.8198812511182,262.86316912794973 79.28839652622264,263.3082209990007 79.53606979941105,263.68590691829195 79.68054587543156,263.856705522172 79.80851039991103,264.0371252062996 80.00045718663023,264.239193573856 80.11191015956138,264.4412601678014 80.18002030970092,264.6721912463563 80.18208425363264,264.8044944664216 80.02522451395635,264.9873122102945 79.93234703650523,265.278374307145 79.81676617568155,265.5838652776656 79.8002546241405,265.85086587746446 79.79199884836999,265.83162269451896 79.72595264218398,265.58867612666654 79.73214447401551,265.34813244491306 79.9075797091864,264.87665953873875 80.17176453390857,264.50861530499424 80.11397410351492,264.3185770901382 79.96743408354814,264.17183764840775 79.74865602556383,263.93368476034993 80.01284085029329,263.7075575156887 79.77755124075338,263.5848705279059 79.37508217184222,263.2456736881577 78.96848521502397,262.79821489204915 78.61967868861393,262.466223712574 78.1119484785886,261.9537931443847 77.64962503529387,261.48225071071647 77.26779540580901,261.0924991611955 76.78276857915625,260.62093907914823 76.36791584656748,260.1926771621529 75.95099917003245,259.75478314030806 75.56504165266233,259.36981447921244 75.22036301413027,259.03055550721365 74.77455112240568,258.56376548228945 74.31635556701076,258.10659081346057 73.88911917076621,257.6806883422105 73.45569094268285,257.2403402078926 73.1027565284021,256.8938308312936 72.77252549748664,256.5473162344824 72.32877754969377,256.1093528168658 71.89741326556396,255.69063274014115 71.60020533773786,255.48608280447115 71.00166159420041,255.14917306189454 70.32056009293592,254.77856664394494 69.6869293023774,254.47533876834132 69.07806583912316,254.16007380063456 68.5269928062844,253.87609096892993 67.90368173543538,253.58007123277457 67.26592305698432,253.25035370663318 66.76851256666123,252.98802032638378 66.15345727158274,252.68476883558105 65.4929952097591,252.3502248519635 64.92541062537202,252.04937178809996 64.33099476972711,251.74370104271475 63.74070680197474,251.43321242352795 63.166930385748856,251.12753348433944 62.59521791348379,250.85795498347034 62.05446460035455,250.57633835134584 61.42289775374229,250.25379882408015 60.87595260878879,249.98661713113142 60.26915308947355,249.6761047745149 59.76142287944094,249.40410213113137 59.257820557300874,249.15376056996865 58.71087541234738,248.8649015335468 58.18869759471272,248.5977036919685 57.65413611341501,248.34494611723312 57.231027605055715,248.14033080599802 57.059720257770095,248.35938948211697 56.56437371140055,248.30883766530496 56.00091701489873,248.17643952273284 55.44365215023572,248.10181477892002 54.791445864182606,248.07533497286022 54.128919858405425,247.95978637108237 53.7594738925618,247.77924051746413 53.340493272095046,247.58184209395404 52.764652911937446,247.30740732133927 52.21564382304496,247.12204162880153 51.68108234174724,246.9607481859366 51.30750848802563,246.84760136363184 50.797714334054035,246.55871333207506 50.18265903896827,246.22408015419387 49.62952206219779,246.0290758384981 49.12591974004317,245.7859199900122 48.58516642692848,245.52831643172613 48.01758184253413,245.36701179817646 47.53668290376663,245.22255892607973 47.34473611705471,244.91438976254722 46.95671465573105,244.86142277115323 46.508838820052915,244.5604716376747 46.08160242379381,244.18728675522834 45.689453074592166,243.92003450018092 45.23125751919724,243.59258605602554 44.98771213389409,243.83094972402796 44.60588250440196,243.91281142309163 44.09815229436208,243.6022169592634 43.652340402630216,243.2771717427786 43.21478428666887,242.9569375116498 42.762780563112756,242.60539704806433 42.28600951221597,242.27792985658743 41.85877311597869,241.89748416633847 41.42121700001735,241.62057352896772 40.97334116433194,241.38218691375005 40.523401384714816,241.16306168002484 40.07965343692922,240.9993183817478 39.67718436800351,240.86687809496289 39.20866909288452,240.71035677095642 38.77936875270825,240.5875469849434 38.35419630040269,240.4791848634395 38.00126188610011,240.38286254822378 37.42954941383505,240.3756383582895 36.82274989452708,240.34674157581867 36.26548502985679,240.31784475696804 35.68551678182121,240.29135597439927 35.444035340464325,240.0264664675433 35.444035340464325,239.60986133152073 35.452291116234846,239.26308597202114 35.45641900412011,238.80071067584504 35.46880266777589,238.21550358597597 35.489442107216746,237.72179875695474 35.51008154664305,237.242533665285 35.55548831339547,236.7126812099359 35.60708691197942,236.26711399277337 35.633918183237256,235.76614159880046 35.70409227730124,235.32296459294776 35.7164759409643,234.81233699312725 35.749499044053664,234.33541981852613 35.73505143645161,233.84163148786683 35.70822016519378,233.37192052762657 35.6875807257602,232.81548125038353 35.691708613638184,232.46860318149265 35.6875807257602,232.00127304286252 35.68551678182121,231.38698440487315 35.68138889392867,230.77027023813935 35.677261006050685,230.27399601241086 35.66900523027289,229.78975692320455 35.64836579084658,229.31514450786744 35.62359846351319,228.66464452412947 35.60708691197942,228.29120100779073 35.5534243694492,227.63103435907215 35.501825770879805,227.07686519286472 35.46261083594436,226.60701562068425 35.40894829342142,226.00703985532346 35.36560547062254,225.40704838097918 35.32019870387012,224.92270645391727 35.26034432952292,224.31304758327133 35.20874573092442,223.72265100144614 35.14269952473842,223.21176494519023 35.07871726251324,222.7803947337161 35.01473500026623,222.38034582509317 34.93424118648545,221.88388987373582 34.84549159693415,221.3585024385975 34.769125671024085,220.78490055934708 34.72371890427894,220.29805071782175 34.69275974512857,219.76057575328377 34.65148086626141,219.2206778861364 34.54209183727653,218.63015001683925 34.422383088567585,218.138433557373 34.27997095647879,217.6177810887766 34.1231112168025,217.1212218691635 33.96625147712621,216.64393635040688 33.83003117686894,216.2100317880031 33.66904354929284,215.6652288564219 33.5183756414408,215.1734487020658 33.29959758345649,214.6165672394054 33.11590657250781,214.17539178494735 32.948727113122004,213.71492090008724 32.77329187793657,213.27372806129642 32.56483353966905,212.7867184375009 32.34811942563829,212.25388910251968 32.15204475102655,211.76685776893646 31.96628979613888,211.26534932260802 31.61335538185085,211.2557048216604 31.093241508162464,211.45341627842754 30.60821468150243,211.61737082454056 30.261472099038656,211.40760523932295 30.13969940639072,210.81205338211657 30.03031037740584,210.276766821391 29.916793460528424,209.75352415663474 29.74961400112079,209.24714888949347 29.61132975693181,208.8299836987244 29.435894521753653,208.3091193676446 29.281098726016353,207.88229114067508 29.097407715067675,207.33005522771236 28.921972479896795,206.81880310409542 28.727961749231326,206.2689531549786 28.542206794343656,205.709443140433 28.381219166774827,205.219860643816 28.178952660338837,204.6458540179956 27.997325593336427,204.1200705939027 27.838401909699314,203.644925627701 27.679478226076753,203.19389055619286 27.489595383303822,202.66083763104325 27.328607755734993,202.17601399199702 27.155236464503105,201.6694708435989 26.950906014120847,201.08090184283174 26.78991838654474,200.6032814275568 26.624802871097927,200.11841412579633 26.447303691973502,199.59735122499478 26.30489155989926,199.16071065975484 26.135648156552634,198.68546254722241 25.92306193040713,198.07510401959553 25.751754583114234,197.549169359394 25.55361596455623,196.9797952478657 25.396756224879937,196.41040693966715 25.274983532232,195.8916721808655 25.130507456204214,195.36810003228857 25.078908857620263,194.91448864811173 24.715654723615444,194.89036013054465 24.108855204307474,195.0737362244854 23.551590339644463,195.21850578456542 23.099586616088345,195.38016404181508 22.517554424099217,195.59248956610645 21.958225615475385,195.78551105661973 21.547500770779152,195.99542007540185 21.481454564600426,195.9761181772301 21.365873703769466,196.05815113178141 20.854015605858876,196.1932635909452 20.243088198665646,196.280121178228 20.189425656135427,195.71795372055567 20.13576311361976,195.3512104082456 20.038757748290664,194.77695575641883 19.90872927986493,194.20268665970252" stroke="red" stroke-dasharray="none" stroke-linecap="round" stroke-linejoin="round" stroke-width="0.5"><title>2024-04-05 108.1km</title><desc>1712276378000</desc></polyline></svg>