<?xml version="1.0" encoding="utf-8" ?>
<svg baseProfile="full" height="300mm" version="1.1" viewBox="0,0,200,300" width="200mm" xmlns="http://www.w3.org/2000/svg" xmlns:ev="http://www.w3.org/2001/xml-events" xmlns:xlink="http://www.w3.org/1999/xlink"><defs /><rect fill="#222222" height="300" width="200" x="0" y="0" /><text fill="#FFFFFF" style="font-size:12px; font-family:Arial; font-weight:bold;" x="10" y="20">Over 10km Runs</text><text fill="#FFFFFF" style="font-size:4px; font-family:Arial" x="10" y="280">Runner</text><text fill="#FFFFFF" style="font-size:9px; font-family:Arial" x="10" y="290">yihong0618</text><text fill="#FFFFFF" style="font-size:4px; font-family:Arial" x="65" y="280">SPECIAL TRACKS</text><rect fill="yellow" height="2.6" width="2.6" x="65" y="283" /><text fill="#FFFFFF" style="font-size:3px; font-family:Arial" x="70" y="285.5">Over 20.0 km</text><rect fill="red" height="2.6" width="2.6" x="65" y="287" /><text fill="#FFFFFF" style="font-size:3px; font-family:Arial" x="70" y="289.5">Over 40.0 km</text><text fill="#FFFFFF" style="font-size:4px; font-family:Arial" x="120" y="280">STATISTICS</text><text fill="#FFFFFF" style="font-size:3px; font-family:Arial" x="120" y="285">Number: 5</text><text fill="#FFFFFF" style="font-size:3px; font-family:Arial" x="120" y="290">Weekly: 1.2</text><text fill="#FFFFFF" style="font-size:3px; font-family:Arial" x="141" y="285">Total: 317.5 km</text><text fill="#FFFFFF" style="font-size:3px; font-family:Arial" x="141" y="290">Avg: 63.5 km</text><text fill="#FFFFFF" style="font-size:3px; font-family:Arial" x="167" y="285">Min: 18.7 km</text><text fill="#FFFFFF" style="font-size:3px; font-family:Arial" x="167" y="290">Max: 108.1 km</text><polyline fill="none" opacity="1" points="72.0591625047382,36.07789950026199 72.69535151741002,35.85153802590503 73.31771033420227,35.59283878788119 73.70495582022704,35.52816391004308 73.9538993468741,35.99705615497078 74.17518248176202,36.611464507339406 74.35497502877843,37.258207475359086 74.47944679216016,37.74326290702447 74.60391855548369,38.17981148051331 74.68689973105211,38.71336915626307 74.79754129849607,39.27926162738004 74.90818286588183,39.84515200511669 75.03265462926356,40.45954490234726 75.10180560889421,41.00926277146209 75.1986169804004,41.542810578932404 75.29542835184839,42.07635652560566 75.3784095274168,42.626068585101166 75.4752208989812,43.22428240557201 75.58586246636696,43.85482957601198 75.69650403375272,44.55004523888056 75.82097579713445,45.293760822707554 75.91778716864064,46.005137563479366 75.98693814827129,46.68417591243633 75.8901267767651,46.91052135900827 76.12524010753259,47.541053337423364 76.18056089128368,48.43026068563631 76.24971187085612,49.33563013069215 76.33269304648275,50.03082088990777 76.29120245866943,50.27332855116401 76.20822128310101,50.4188329634635 76.18056089128368,51.065517566137714 76.4433346138685,51.69603242224548 76.59546676906757,52.48821407154901 76.78908951207995,53.2803916195553 77.01037264696788,54.185732366953744 77.19016519392608,55.02640112192603 77.16250480210874,55.65689965734782 77.56358048407128,55.99639779266727 77.8263542066561,56.64305882391636 78.08912792929914,57.30588354500651 78.33807145594619,57.85554089221114 78.33807145594619,58.421362569744815 77.8263542066561,58.64769065497967 77.2316557817976,58.80935336809489 76.55397618137067,59.05184711748734 75.86246638494777,59.29434048268013 75.21244717633817,59.53683346362959 74.79754129849607,59.71466140537814 74.71456012292765,59.90865528807626 74.7422205148032,60.47446937454515 75.03265462926356,61.20194155476929 75.29542835184839,61.96174213985796 75.50288129079854,62.72153895281372 75.79331540531712,63.481331993680215 76.49865539756138,63.85314423483214 76.85824049176881,64.46744074120943 77.20399538992206,65.21105952897051 77.52208989625797,65.93850919490797 77.86784479441121,66.61745909700403 78.18593930080533,67.31257135269698 78.50403380714124,68.00768045149744 78.82212831347715,68.70278639352182 79.14022281981306,69.41405432221654 79.45831732609076,70.09298880730057 79.79024202842265,70.7557552807557 80.10833653470036,71.45084874298482 80.42643104103627,72.1297741936869 80.74452554743038,72.82486141640402 81.0626200537663,73.55227489740355 81.3807145601022,74.24735566071467 81.68497887050034,74.89393958366418 82.14137533615576,75.2980531485955 82.40414905874059,75.92846817965619 82.55628121393966,76.28408576980291 82.57011140987743,76.76901751590776 82.00307337683626,77.0114828129008 81.40837495191954,77.25394772586878 80.70303495967528,77.57723367909784 79.95620437950129,77.99750439758645 79.1678832116304,78.33695298178645 78.32424126012484,78.72489329919335 77.59124087588862,79.19365320446377 77.25931617361493,79.32296602918359 76.56780637725024,79.67857573389483 75.80714560119668,80.01802059062175 75.14329619664932,80.34130070677202 74.5071071840357,80.64841618477658 73.69112562423106,81.05251455934194 72.93046484823572,81.40812024661864 72.23895505187102,81.71523358453123 71.61659623507876,81.99001868047344 71.32616212061839,82.1516567417857 70.73146369570168,82.41027728498739 70.17825585859828,82.7335523495858 69.59738762967754,83.10531782999169 68.93353822513018,83.55790067464113 68.1867076450144,84.09130016683775 67.45370726077817,84.62469780071115 66.78985785628902,85.0449491731124 66.16749903949676,85.46519939193968 65.53131002688315,85.85312164704374 65.00576258159708,86.11173593773856 65.00576258159708,86.11173593773856 64.71532846719492,86.24104291929689 64.13446023815777,86.5643098953733 63.429120245797094,86.85524959022587 62.7376104494906,87.09769891366886 62.05993084900547,87.34014785318868 61.27160968113458,87.63108607383037 60.59393008064944,87.85737097435049 59.93008067610208,88.08365554046759 59.086438724480104,88.37459234827838 58.27045716479188,88.66552860332013 57.426815213111695,88.97262738393329 56.679984633112326,89.24739945495094 55.905493661121,89.50600801261317 55.03419131768169,89.79694211784226 54.287360737565905,90.05554974729603 53.63734152901452,90.23334223919665 53.07030349591514,90.42729744942335 52.76603918557521,90.50811204787169 52.171340760658495,90.76671847621037 51.5213215520489,91.00916160609631 50.80215136386687,91.26776718818292 50.027660391817335,91.57486074966437 49.23933922400465,91.8011398219387 48.39569727232447,92.10823231370887 47.579715712578036,92.39916147469194 46.819054936640896,92.72241544967983 46.05839416058734,93.01334344371571 45.25624279672047,93.27194564104138 44.48175182478735,93.54670999718655 43.651940069161355,93.80531129371957 42.86361890123226,94.08007469282893 42.58701498270966,94.12856230030593 42.0614675374818,94.33867508867115 41.27314636961091,94.59727504779585 40.498655397619586,94.93668683138094 39.72416442568647,95.21144820046902 39.004994237446226,95.47004668567388 38.3688052247162,95.63167051717755 37.51133307721466,95.90643063925381 36.65386092977133,96.26200183013862 35.990011525165755,96.69838352689112 35.49212447175523,97.10243954476027 35.035728006099816,97.5873053589603 34.86976565502118,97.79741340164037 34.34421820973512,98.24995282225427 33.66653860924998,98.68632885420811 32.85055704956176,98.94492147155688 32.14521705725929,99.09037962694129 31.42604686896084,99.18735165377439 31.066461774869822,99.20351365224633 30.319631194754038,99.41361947756377 29.406838263501413,99.55907718774688 28.480215136427432,99.75302058643138 27.58125240105437,99.89847797430411 26.709950057673268,100.04393522393366 25.880138301989064,100.18939233545098 25.008835958549753,100.30252554889012 24.123703419114463,100.46414428026765 23.280061467492487,100.60960099268414 22.574721475190017,100.73889573221095 21.73107952362625,100.86819036255474 20.85977718018694,101.01364669116447 20.057625816436484,101.12677929570782 19.20015366881853,101.22375003309571 18.398002305009868,101.40152955883241 17.5543603534461,101.54698538093362 16.724548597761896,101.6924410648644 15.936227429891005,101.8378966106684 15.1064156742068,101.96719031315297 14.387245486024767,102.08032221329631 14.0968113715644,102.14496897593199 14.207452938950155,102.11264559804113 14.580868228978943,102.50052568226238 14.898962735256646,103.08234396671469 15.064925086509902,103.42173694522353 15.34152900497429,103.8419367337774 15.59047253173776,104.3591041215841 15.618132923555095,104.68233285220049 15.74260468693683,104.98939951446664 15.922397233953234,105.34494961741439 15.770265078754164,105.03788366803201 15.604302727617323,104.65001000987832 15.479830964293797,104.29445829364704 15.313868613156956,103.97122874444176 15.217057241592556,103.74496765412914 15.051094890513923,103.40557539185102 14.760660776053555,102.93688960278814 14.580868228978943,102.53284897826961 14.940453323128168,102.41971741238376 15.701114099123515,102.27426241917419 16.36496350367088,102.17729234695435 17.111794083786663,102.04799882184307 17.87245485978201,101.91870518751966 18.64694583171513,101.75708799115091 19.43526699958602,101.66011759148387 20.209757971635554,101.5631471304223 20.956588551634923,101.43385308679717 21.73107952362625,101.28839715727372 22.45024971186649,101.15910288164741 23.127929312351625,101.04597030098375 23.8747598924092,100.91667582075752 24.690741452155635,100.78738123131916 25.52055320783984,100.6580865328142 26.295044179831166,100.528791725068 27.055704955826513,100.399496808197 27.788705340004526,100.28636366639694 28.52170572418254,100.14090664697869 29.22704571648501,100.04393522393366 29.94621590472525,99.9469637395232 30.527084133704193,99.84999219367455 30.845178640040103,99.88231604911562 31.329235497512855,99.78534446237609 31.84095274686115,99.65604891782277 32.40799077984411,99.57523914705962 33.09950057620881,99.42978145217057 33.83250096044503,99.15502765165002 34.52401075680973,98.79946317803115 35.00806761428248,98.4115737198008 35.40914329618681,97.9913590313954 35.78255858627381,97.52265667243046 36.225124855933245,97.07011510260054 36.79216288897442,96.73070804757299 37.52516327315243,96.42362482579483 38.271993853268214,96.21351489817607 39.01882443332579,95.89026829280192 39.80714560113847,95.6155081417528 40.63695735682268,95.34074749768479 41.48059930850286,95.04982392543752 42.32424126006663,94.75889980050852 43.14022281981306,94.46797512283956 43.887053399928845,94.20937494536338 44.68920476373751,93.9346117782552 45.43603534385329,93.67601070005912 46.169035727973096,93.40124657591514 46.84671532845823,93.1426445969555 47.5520553207607,92.91636750711768 48.27122550905915,92.67392739689967 49.004225893178955,92.43148690286034 49.737226277415175,92.17288328612631 50.48405685747275,91.91427923267474 50.912792931252625,91.8011398219387 51.35535920097027,91.67183753586141 51.82558586250525,91.49404671430239 52.0330388013972,91.42939545524132 52.53092585480772,91.28393002257508 53.07030349591514,91.08997589745559 53.78947368421359,90.81520713285136 54.522474068333395,90.5242749624158 55.28313484438695,90.24950518280093 56.016135228506755,89.974734909978 56.76296580868075,89.69996414416528 57.49596619285876,89.42519288526091 58.215136381099,89.16658419117448 58.7683442182024,88.98879046057118 59.280061467550695,88.81099652354897 59.570495581952855,88.69785481976578 60.24817518243799,88.48773429093126 60.91202458698535,88.24528716862551 61.52055320778163,88.03516601871524 62.07376104488503,87.82504458045878 62.64079907798441,87.63108607383037 63.276988090598024,87.42096408102952 63.96849788707914,87.14618873230938 64.66000768338563,86.83908628836798 65.00576258159708,86.67745317574008 65.61429120245157,86.37034979161399 66.22281982324785,85.96626545298204 66.85900883597787,85.5298531693843 67.43987706495682,85.15809357627586 68.03457548987353,84.72167898905172 68.47714175947476,84.36608099819568 68.98885900882306,83.99431857923628 69.50057625817135,83.6225552575197 69.99846331152366,83.2992820701038 70.56550134456484,82.97600820005755 71.27084133692551,82.58807865499693 71.96235113329021,82.28096706802899 72.77833269297844,81.90919958581799 73.58048405684531,81.53743120084982 74.39646561653353,81.16566191305174 75.07414521701867,80.81005566263048 75.69650403375272,80.51910447963746 76.41567422205117,80.17966073400748 77.16250480210874,79.8402162357379 77.89550518628675,79.54926320958475 78.64233576640254,79.20981731353095 79.37533615058055,78.90269894945959 79.98386477131862,78.57941579536418 80.73069535149261,78.23996774882835 81.40837495191954,77.93284743904951 82.0307337687118,77.62572651318624 82.76373415288981,77.23778341030993 83.57971571257804,76.84983932426258 84.32654629269382,76.55888061450969 84.71379177871859,76.39723664797202 85.19784863613313,76.1224415130273 85.84786784474272,75.79915248746693 85.82020745286718,75.31421766898711 85.10103726462694,75.58901425474323 84.50633883982664,75.8476458848454 83.89781021891395,76.13860594636935 83.24779101030435,76.49422304840118 82.68075297732139,76.54271622556553 82.39031886286102,75.8476458848454 82.01690357277403,75.07174968367326 81.57433730305638,74.29584954965685 81.27007299265824,73.55227489740355 80.88282750674989,72.76020227305708 80.52324241254246,72.01662016102637 80.19131771026878,71.40235395269701 79.8593930080533,70.72342527547153 79.54129850171739,69.9959983509325 79.20937379944371,69.22007248767477 78.86361890123226,68.44414269081608 78.50403380714124,67.73287025488389 78.18593930080533,67.08625608118018 77.86784479441121,66.43963917570363 77.59124087588862,65.7606884847919 77.42527852475177,65.3565497387608 77.30080676142825,65.14639716915553 77.07952362654032,64.75842243623629 76.78908951207995,64.20878988110053 76.4018440261134,63.67532110174943 75.79331540531712,63.3358400012512 75.54437187855365,62.49521689231915 75.28159815591061,61.76775085969712 75.0603150211391,61.007949311475386 74.78371110250009,60.425971106262296 74.81137149437563,59.79549221973866 75.57203227042919,59.53683346362959 76.37418363423785,59.32667290234531 77.12101421435364,59.06801335378259 77.90933538222453,58.77702083913027 78.57318478671368,58.61535809186171 78.68382635415765,57.92020633263746 78.42105263157282,57.25738427249598 78.25509028037777,56.74005774287798 77.95082597003784,55.899398402296356 77.63273146364372,55.12340106569172 77.3699577410589,54.28273284363968 77.19016519392608,53.42589317234524 77.02420284290565,52.698384024814004 76.9965424509719,51.87386947602499 76.94122166727902,51.13018587608531 76.96888205915457,51.01701631570177 76.84441029577283,50.46733440342359 76.54014598537469,49.82064727257239 76.47099500574404,48.9476153102587 76.41567422205117,47.92907172490959 76.36035343830008,47.282373865760746 76.34652324242052,46.79734867757361 76.29120245866943,46.15064603484643 76.22205147903878,45.47160531800182 76.12524010753259,44.824897071448504 76.00076834420906,44.14585047046421 75.87629658088554,43.5153044994222 75.77948520932114,42.85242003548774 75.64118325005984,42.12486061031814 75.46139070298523,41.07393533203867 75.32308874378214,40.15234876217437 75.18478678446263,39.23075664040516 75.04648482520133,38.34149582119426 74.86669227806851,37.516903896976146 74.59008835954592,36.51445282630448 74.25816365733044,35.560501352360006 73.9953899346292,34.94608877875726 73.9538993468741,34.80056964987307 73.8155973876128,34.655050382585614 73.42835190164624,35.04310145445925 72.83365347678773,35.36647659573646 72.11448328848928,35.68985105340835 71.3676527083735,36.02939349820372 70.6761429120088,36.33659791792161 69.87399154820014,36.643801720652846 69.0580099884537,37.031847747581196 68.32500960427569,37.322881621774286 67.75797157123452,37.35521868473734 67.45370726077817,36.67613892717054 67.0802919708076,36.49828420682752 66.55474452552153,36.756981913524214 65.89089512103237,37.06418487202609 65.54514022276271,37.35521868473734 65.83557433722308,37.74326290702447 66.41644256620202,37.46839835125138" stroke="#4dd2ff" stroke-dasharray="none" stroke-linecap="round" stroke-linejoin="round" stroke-width="0.5"><title>2024-05-25 18.7km</title><desc>1716643451000</desc></polyline><polyline fill="none" opacity="1" points="180.45733982529782,105.38476398202874 180.30000709281012,105.23034923191153 180.42214697724557,104.98424858978979 180.52358518633991,104.84672061802485 180.579479709726,104.87084839160707 180.56291836946912,104.90704000472397 180.65400574091473,104.84430783927382 180.579479709726,104.88532504365685 180.60018138505984,104.84430783927382 180.60225155258377,104.76468599925465 180.77407545780443,104.77674993205437 180.74302294481458,104.94081879245095 180.616742725324,105.14349048122313 180.64779523830657,105.19415812549596 180.59190071492776,105.35098584366824 180.69333892402938,105.46920911178859 180.75751411754754,105.47162182524153 180.70783009676234,105.54400311170866 180.6726372487028,105.6236222647949 180.59190071492776,105.70324114339746 180.52565535387112,105.83111331338478 180.55877803439944,106.0 180.5277255214096,105.83835133956927 180.62088306037913,105.67428885566733 180.57326920712512,105.59466987725136 180.49460284088855,105.54400311170866 180.56291836946912,105.38717670431106 180.65607590843865,105.18691989740182 180.53807635907287,105.22552375433406 180.3703927889219,105.28342941872143 180.06400799407857,105.17485617888269 179.83835973301757,105.09282272579003 179.75762319922796,104.85637173048599 179.9522189473064,104.53788288951182 180.14681469537754,104.26764648864082 180.4035154694502,103.98775545356511 180.521515018816,103.86952460050998 180.53600619154167,103.76094471235956 180.3082877629422,103.60893201111139 180.02881514602632,103.31938123995133 179.75762319922796,102.9912193093387 179.64583415246307,102.93813385285102 179.44502790178376,102.75474679121544 179.1427834420101,102.46277227921746 178.84260914976767,102.10805447399434 178.58797854324803,101.8088324953751 178.26089207307086,101.44927837435716 178.01868247173843,101.22002953440096 177.83236739379208,101.05352105477687 177.56531578207796,100.82668148302037 177.31068517554377,100.56605454198143 177.16163311319542,100.4043678308044 177.0767562443507,100.31990417306224 176.82626597288618,100.0665113451505 176.63374039234623,99.83000886231639 176.52609168064373,99.72864991344795 176.27767157671042,99.50662399365319 176.05202331564215,99.27252913435768 175.80153304419218,99.01429802981693 175.54483227013407,98.73675670484772 175.2757104908742,98.47610616004022 175.02315005188575,98.22269308531031 174.77887028301484,97.95479623713436 174.54080101675208,97.7206856337998 174.2799599076243,97.47450491126256 174.06673265176505,97.26211158888691 173.89697891408287,97.10281531391956 173.64234830755595,96.83731907805122 173.27385848671838,96.44630996714659 172.94056151396217,96.10839552029938 172.6176153788474,95.8211643484774 172.52238767233212,95.73668391137653 172.1973713697007,95.56530835997728 171.8392323865337,95.37462139071613 171.46039172805467,95.17669147675952 171.08155106956838,94.9666908085801 170.73583309159585,94.79289570618494 170.3797642759746,94.61909929418107 169.99057277981046,94.4187490274926 169.61794262391777,94.2304664676085 169.3012069914039,94.05907972412751 168.92650666799454,93.89734740376116 168.5725080198972,93.7211303008553 168.21850937179988,93.52801412112603 167.85830022110167,93.35179419596716 167.5415645885878,93.1852289191429 167.34075833791576,93.08866878746812 167.044724380743,92.93658576013513 166.67623455990542,92.74829109848906 166.3098149066209,92.55999489921487 165.9268339130649,92.3596267420453 165.57076509744365,92.16408505446452 165.1898542714116,91.97578408422305 164.82343461811251,91.79472400869963 164.48185697521694,91.62814748340679 164.12164782451873,91.42777122792359 163.73245632836915,91.22497902754549 163.37017701013974,91.05839838561951 163.0803535555533,90.90147349147082 162.7470565827898,90.72523349068979 162.37856676195952,90.53692076801235 162.09909414504364,90.39689236160666 162.04319962166483,90.3703351540862 161.73681482681422,90.22547711994594 161.3352023254629,90.0202600133016 160.9377301591885,89.8198697814114 160.55474916562525,89.60740594608433 160.19039967987192,89.4190840911524 159.78878717852058,89.2186886326399 159.4037360174334,89.0182914317902 159.0393865316728,88.84203703182902 158.68331771604426,88.65612339581276 158.31896823027637,88.47503724362286 157.9836010899744,88.3108512357503 157.84697003281326,88.40501688331096 157.76002299643733,88.60783389434982 157.68963730032556,88.77684670681992 157.6151112691441,88.90481272608486 157.5550764107029,89.0182914317902 157.4971117197856,89.15108495240565 157.4453575314692,89.26697685426552 157.50953272498737,89.11486861357298 157.5053923899104,89.10279648797768 157.53437473537633,89.10762533897287 157.6068305990193,88.92171384532412 157.74553182371892,88.65370892314604 157.6585847873357,88.57886014490578 157.453638201594,88.52091253674553 157.09135888337187,88.45572130340406 156.73529006774334,88.35672685569625 156.62350102097844,88.30843672690207 156.21774818455015,88.27221906390696 155.7540306572264,88.26014649691933 155.30480430262105,88.23600134398839 154.865928785679,88.13700595247246 154.56989482850622,87.9921338813001 154.29663271418394,87.86174823856709 153.9550550712811,87.69997243412581 153.53895139720407,87.4995620268528 153.11456705299497,87.34019829028875 152.68811254125467,87.21705282988478 152.27821936977125,87.09632134747699 151.99460641779297,86.99490641339798 151.77102832424862,86.87175910766928 151.42117001122097,86.67134149703998 151.05061002285947,86.46126333507709 150.6593483591787,86.30672185521325 150.27222703055304,86.17149721000897 149.89959687466035,85.99522103447453 149.6056330850115,85.84550596321242 149.2350730966573,85.68130121797913 148.85416227063251,85.5919540267223 148.50016362254246,85.44706595299976 148.19377882769913,85.36737712405375 148.08613011598936,85.19350963135548 147.99504274455103,85.02688538618168 147.93293771857861,84.71053748863415 147.97227090169326,84.31932263009912 148.1130422939168,83.93776099745082 148.19584899523034,83.54894802176932 148.24553301602282,83.18186390946721 148.07784944586456,82.99831965931662 147.7259209653057,82.78579291069218 147.4671500237091,82.57326420085155 147.54788655748416,82.29310972304484 147.19388790937955,82.09506743261409 146.85024009895278,81.90426898103215 146.51280279111234,81.71588414875623 146.40308391188591,81.49368467337626 146.4092944144868,81.06860144170241 146.41343474954192,80.66524816481251 146.421715419674,80.38023979269019 146.421715419674,80.12421231467124 146.42999608980608,79.916489815967 146.4237855872052,79.6628725962837 146.4237855872052,79.34403555611789 146.44034692746936,78.7715670610487 146.45069776513992,78.35126467248665 146.46104860279593,77.88747381992653 146.4672591053968,77.45749270224042 146.47139944046648,77.01542508863349 146.4776099430601,76.6240794597943 146.49831161839393,76.31727915899137 146.3761717339512,76.31003185834379 146.08220794430963,76.23031140055537 145.65161309749965,76.19649051685155 145.3100354545968,76.17474849392784 144.85045826233545,76.13126438647487 144.42400375059515,76.10227493584898 144.0348122544383,76.07811703243351 143.6042174076283,76.0370485384301 143.2916221101841,76.01289056653695 142.92727262443077,75.99114837015986 142.62709833218105,75.97182195613095 142.225485830837,75.93800069252393 141.83422416714166,75.89934775896108 141.50299736190937,75.87277382947104 141.09310419042595,75.8413682368755 140.71840386700205,75.81237842105475 140.5734921397161,75.54422089332002 140.57556230724003,75.15526613280235 140.59626398257387,74.77838444078952 140.5921236475042,74.46672760922957 140.60454465271323,74.05842661220231 140.6148954903765,73.65978255304617 140.62110599296284,73.33119801390967 140.62110599296284,73.17898446766412 140.6148954903765,72.96153479731584 140.62524632803252,72.88180273649778 140.62524632803252,72.61844335950809 140.60454465271323,72.40582074522717 140.64801817089028,72.20286096178279 140.64387783582788,72.01681292038484 140.6335269981646,71.71478367464806 140.6397375007582,71.30160124235044 140.6335269981646,70.88841138700082 140.62938666309492,70.53320715639347 140.6335269981646,70.15624972736077 140.6314568306334,69.84694670886165 140.62938666309492,69.42164826511544 140.63766733323428,69.17274836786419 140.61696565789316,68.9359284885486 140.6148954903765,68.62177590501415 140.60454465271323,68.82476729585687 140.6148954903765,69.0978362208134 140.55279046438227,69.27182534878739 140.22363382668118,69.39748334463911 139.8406528331252,69.35156992577868 139.60465373439365,69.27424185518066 139.4763033473646,69.09058664524491 139.13679587199294,69.04950567384185 139.1057433590031,69.05675526236337 139.38935631099594,69.07850401421638 139.76612680195103,69.15341622424785 140.12840612017317,69.2138291190804 140.46791359554481,69.25007677978647 140.56935180464643,69.46997802988517 140.56314130205283,69.79136838177146 140.4244400773605,69.98951658581609 140.08286243445764,69.97018512887553 139.81167048767384,69.96051939431527 139.40591765125282,69.94843722039514 139.00637531743268,69.93152216624367 138.6192539888143,69.91943997709495 138.21971165500872,69.90252490161583 137.80153781338595,69.89285913861204 137.40613581464277,69.88560981369119 136.9755409678255,69.87352760041176 136.5532267911476,69.85902893610364 136.30894702228397,69.73095700431622 136.30273651969037,69.32015542846239 136.2903155144959,68.87793141158181 136.2861751794262,68.70635586900062 136.26961383916932,68.45986482033368 136.24684199631156,68.2037046558653 136.22199998591532,67.82670903392136 136.18887730539427,67.47870758794852 136.15575462486595,67.12586741013911 136.1433336196642,66.95427879107228 136.11228110668162,66.58692983547371 136.0750180910909,66.21232452574623 136.04810591317073,65.85463117717518 136.021193735236,65.51143367747682 135.99635172483977,65.28182685520733 135.963229044326,64.95795649029242 135.925966028728,64.54223560121864 135.89698368327663,64.17001400534537 135.8617908352171,63.783283883038166 135.8121068144319,63.384461627254495 135.7541421235219,63.021889932970225 135.70652827026788,62.70040491171312 135.6506337468818,62.369246464553726 135.5926690559645,61.992155121071846 135.52849386245362,61.62956145353564 135.47466950659873,61.29838756981917 135.44154682607768,61.04698230959002 135.40221364294848,60.68679113210965 135.3877224702228,60.41845712064605 135.36081029229535,60.067925987023045 135.34010861697607,59.700466917325684 135.31733677411103,59.388605594785986 135.2573019156698,58.99937738304652 135.18277588448836,58.65124221346014 135.10203935070604,58.31760772343114 135.0171624818613,57.98880377327259 134.92607511043025,57.66724829777195 134.82463690132136,57.33601727254427 134.71077768701798,57.00478146887144 134.6321113207814,56.76783613735461 134.50376093374507,56.36647418013854 134.43544540517178,56.134358038669234 134.3257265259308,55.720895348207705 134.25327066228783,55.488772679134854 134.14148161552293,55.16476419542778 134.00278039082332,54.80689876387078 133.9034123492529,54.5167335071892 133.791623302488,54.30636140229217 133.65913258039654,53.96540941323474 133.5680452089582,53.6728153701024 133.43969482192915,53.389890309952534 133.27822175437177,53.01506968811191 133.1436608647491,52.67409851454795 133.0049596400495,52.33312227456372 132.8890302582222,52.04292573886232 132.7793113789885,51.759980582899516 132.66752233221632,51.46010327577096 132.576434960778,51.22310069571904 132.43773373608565,51.22793750753226 132.1002964282452,51.37545977821355 131.73594694249186,51.49879734208662 131.4047201372523,51.64148114764612 131.06314249434945,51.718868603265946 130.90787992939295,51.46735841817281 130.8230030605555,51.06106691052628 130.74433669430437,50.72248515804495 130.67809133326955,50.34278396322952 130.58493379429274,49.95823940538685 130.48556575271505,49.56401407916019 130.36549603581807,49.21331714387816 130.29097000463662,48.96419813275679 130.179180957879,48.690889697447346 130.05083057084266,48.30148001796624 129.92662051888328,47.928995007450794 129.78791929419094,47.52747841578275 129.7030424253462,47.26382815567558 129.57262187078595,46.90342060279727 129.4380609811633,46.4994671502609 129.31799126425904,46.141466525939904 129.1855005421603,45.74475660282587 129.07992199799628,45.447219656070956 128.94743127589754,45.086783548789754 128.83357206160144,44.740856318341685 128.70936200964206,44.380409105786384 128.60999396806437,44.07075865274055 128.49613475376827,43.756265630130656 128.37813520439522,43.39338370410587 128.29946883815137,43.175651790985285 128.17732895371591,42.82243784402999 128.0717504095519,42.5079276937322 127.94961052512372,42.171638989462735 127.82540047315706,41.8184095693905 127.68255891340232,41.40710817883519 127.55420852637326,41.02241372674871 127.45484048480284,40.727234988617056 127.3182094276417,40.33285090456411 127.2064203808768,40.00378905092475 127.08014016137895,39.638428074043986 126.98905278994062,39.372267402986836 126.92901793148485,39.12062174308085 126.77996586912923,38.75524668219259 126.66196631976345,38.41890289895855 126.54603693793615,38.07529479812547 126.43631805869518,37.75104017346348 126.30796767166612,37.38322340115701 126.18996812230034,37.044439569732276 126.07817907553545,36.68145133256439 126.0119337144788,36.386216657421755 125.92291651058622,36.03773804539014 125.83803964174149,35.677153899669065 125.74488210276468,35.35286532234022 125.65586489886482,34.98016979327076 125.65172456379514,34.78897947309633 125.4260763027196,34.87368424227316 125.19835787412012,34.95112832846826 124.8277978857659,35.04551295440615 124.42825555195304,35.16409821504021 124.0908182441126,35.280262772912465 123.7078372505639,35.3964267415231 123.37868061285553,35.53437068891617 123.01640129462612,35.667473710125705 122.64377113873343,35.80057595773178 122.3373863438901,35.91189724349897 122.1096679152979,35.9990178723001 121.97096669059829,36.06193812032325 121.69563440874481,36.15389817187861 121.35405676584924,36.23617790502067 121.00833878788399,36.31119740408576 120.84686572031933,36.1296981941141 120.803392202135,35.75217522992352 120.75991868395067,35.47386905990061 120.71851533329027,35.217340377215805 120.65434013977938,34.85190304584103 120.60051578393177,34.50340108519413 120.50528807742376,34.16941506231524 120.39970953326701,34.01210111745786 120.15128942932643,34.16941506231524 119.82213279161806,34.31220678419777 119.53023916951497,34.4065940437049 119.39774844741623,34.288004860116416 119.2010825318066,34.379972035549144 119.32529258376599,34.421115126020595" stroke="red" stroke-dasharray="none" stroke-linecap="round" stroke-linejoin="round" stroke-width="0.5"><title>2024-05-01 58.8km</title><desc>1714551575000</desc></polyline><polyline fill="none" opacity="1" points="19.066933397378307,114.35941951213681 19.315811726424727,114.27384394434011 19.585604200758098,114.15648265086747 19.878402234928217,114.02934057766834 20.02898408107285,114.15403761758535 20.098000760553987,114.43765975423594 20.139829051149718,114.70416359310912 20.190022999864595,115.00489359593485 20.240216948579473,115.30561968961774 20.286228068238415,115.63812529153802 20.31341645712382,115.85571828247521 20.336422016946017,116.20532970165732 20.340604846009228,116.31290138325676 20.40543869643443,116.36668703651048 20.74843067931215,116.2908981254277 21.116519636554585,116.21755378157286 21.43650605961011,116.13931955852786 21.61218488011218,116.0733092270766 21.833874820273195,115.97796063805981 22.139221341618395,115.85816313591931 22.450842106554774,115.7285855475402 22.79801691848843,115.5354402480134 23.111729097967327,115.3545178719578 23.41916703383322,115.34962805837313 23.764250431246182,115.24938665215814 24.023585832946992,115.18581870610615 24.366577815824712,115.09046645952549 24.676107166225847,115.00489359593485 24.981453687578323,114.91198555708615 25.205235042267304,114.89731583262983 25.284708794395556,115.22004762183678 25.378822448226856,115.60878675418098 25.46247902941832,115.94862253162137 25.54404419608909,116.29334293288775 25.617243704633438,116.58916272869646 25.65279775163799,116.7114012094753 25.75945989265165,117.02432877778665 25.85984779008868,117.32258392753101 25.960235687518434,117.61594589857486 26.054349341349734,117.90197023984183 26.158920067849976,118.19288025993774 26.273947866975504,118.52534437682516 26.374335764412535,118.87247093189399 26.437078200302494,119.04358774048342 26.527009025085135,119.25625972508897 26.619031264388468,119.51048574032575 26.71732774729753,119.80870885319018 26.798892913946474,120.06781761883758 26.85536110625253,120.22914802668492 26.9662060763294,120.49802954126244 27.01430861051631,120.64713521685553 27.074959631885577,120.85245949345335 27.171164700259396,121.15310961301293 27.28200967032899,121.49775250798484 27.39703746946907,121.83994605135194 27.484876879716467,122.11369724474935 27.574807704499108,122.33367353695576 27.694018332695123,122.67341059318824 27.779766328414553,122.99114577521141 27.859240080542804,123.12068271378303 27.93034817455191,123.32842912120577 28.02446182839776,123.63393515833741 28.11648406770837,123.91255315037961 28.20641489249101,124.20094368193895 28.27961440103536,124.43067594241256 28.323534106151783,124.55531695996433 28.438561905291863,124.87302632367391 28.55358970443922,125.20295066570179 28.672800332627958,125.58663454564521 28.802468033471087,125.96298071223646 28.921678661674378,126.30266453474542 29.034615046279214,126.65211823343998 29.16219133260165,127.01867239267995 29.279310546262423,127.36567165299311 29.411069661640795,127.74198892015556 29.532371704372054,128.09386447157522 29.657856576159247,128.4652828675862 29.777067204347986,128.77316465654985 29.82935256759083,128.9490952707656 29.896277832551277,128.87823448957897 29.94647178125888,128.9295474906994 30.170253135955136,128.90511274242635 30.527885020535905,128.77072116640375 30.885516905138502,128.6509898330405 31.059104311098054,128.80004303127498 31.201320499130816,129.0908161830812 31.37699931962561,129.39380281252488 31.538038238417357,129.68456851423252 31.69698574267386,129.98266065655298 31.81619637087715,130.01442434730234 31.88103022130963,130.35649210434894 31.973052460620238,130.74742050198256 32.07344035804272,131.11879637250968 32.13409137940471,131.2971524058048 32.24493634948885,131.5121551147531 32.36623839220556,131.80045107190927 32.46662628964259,132.0594257390585 32.60465964859759,132.41123574646008 32.738510178511206,132.7605973454065 32.85772080670722,133.053763855336 33.01039406737982,133.41288777796944 33.1254218665199,133.68405929888286 33.01457689642848,133.74024759573877 32.947651631482586,133.77689206381183 32.976931434903236,133.74757649398998 32.96020011867222,133.73780462913783 33.16725015711563,133.7573483547112 33.26972946908063,134.0651598595232 33.40776282803563,134.41693943294376 33.56252750322892,134.77848510006334 33.71520076391607,135.16933893974965 33.836502806640055,135.4966739616866 33.93479928953457,135.84843182007535 34.04982708868192,136.23926762770316 34.123026597218995,136.4542245145476 34.233871567295864,136.79131198455798 34.33844229378883,137.13816499196582 34.445104434809764,137.49234052768406 34.543400917704275,137.84162558727985 34.63333174248692,138.17380789753042 34.73790246897261,138.52308269660898 34.81737622110086,138.86990981117924 34.88221007152606,139.19475022326333 34.93031260571297,139.49760485647857 34.951226751014474,139.75160892005806 34.97632372537191,140.0959753735042 35.00560352878529,140.51116217435992 35.034883332205936,140.68211928610435 35.053706062972196,140.9312259656599 35.09553435356065,141.34151349104286 35.14572830227553,141.71027763662278 35.20428790911683,142.08880427455733 35.260756101422885,142.4551144977995 35.30676722107455,142.76525263399708 35.336047024487925,142.8897951287945 35.384149558674835,143.1803916846129 35.43434350739699,143.52226532794703 35.465714725331054,143.74936432205686 35.492903114223736,144.01553128293745 35.50545160139154,144.19867191487901 35.532639990284224,144.32564857157195 35.56610262276081,144.68459805595376 35.59119959711825,145.0313331044199 35.60583949882857,145.36341252153215 35.60583949882857,145.44643163367437 35.63511930224922,145.64665297700776 35.666490520190564,145.9420983910677 35.689496080020035,146.23265674335562 35.71668446890544,146.4987952370866 35.73759861419967,146.80887935952887 35.76896983215556,147.16779045732437 35.78779256292182,147.38752920810657 35.819163780863164,147.71957493129594 35.833803682580765,147.8831545347566 35.860992071458895,148.2176346150627 35.88818046035885,148.5057230858729 35.90700319111784,148.7400975108285 35.913277434709016,148.8719320855762 35.91746026376495,149.16245378492567 35.91955167829292,149.46517841260174 35.92791733641934,149.77766421283013 35.94046582358715,150.06085083850485 35.963471383423894,150.34403401216332 35.96974562701507,150.7810081710486 35.97392845607101,151.19356282299486 35.97392845607101,151.57681708986092 35.97392845607101,151.9869165651162 35.97811128513422,152.39456779879038 35.98229411419743,152.72898293222715 35.963471383423894,153.06095231946165 35.97392845607101,153.15858947204288 36.01157391760353,153.44173489485183 36.032488062897755,153.75172635882882 36.047127964615356,154.03730538701348 36.06595069537434,154.34240730932652 36.06804210990231,154.72805040869207 36.0554936227345,155.04046544349148 36.02621381930658,155.39924940497804 36.00320825948438,155.6530796112238 35.98438552871812,155.77023107930108 36.12451030221564,155.77999367499433 36.47795935774775,155.82392530486504 36.83768265686376,155.86785685172072 37.201588785042986,155.90202577520358 37.609414618353185,155.9459571744701 37.94194952858379,155.9728040998125 38.29958141317911,155.99476974294703 38.586105203750776,156.01429474163706 38.901908797750366,156.04114158806442 39.223986635341134,156.063107166623 39.53979022933345,156.08263210791847 39.8744165540993,156.1119194891162 40.206951464329904,156.13388500080873 40.36171613953047,156.15340988265962 40.68379397712124,156.17049414082794 41.0142374728166,156.20222201555225 41.371869357411924,156.24127164807396 41.6772158787644,156.25835584167544 42.00138513087586,156.2852024062595 42.27745184880041,156.31937071635002 42.530513006902765,156.29984597387738 42.90696762226435,156.34377662137922 43.247868190621375,156.37794484537517 43.61804856239178,156.41211301916155 43.98613751963421,156.43895940618677 44.333312331575144,156.47068691452296 44.739046750357375,156.50241437956538 45.07994731870713,156.52437952230684 45.2995458443329,156.5390229392724 45.550515587907284,156.5585474808795 45.75965704087139,156.56586917974528 46.08591770752537,156.59027482601232 46.228133895550855,156.8172461092072 46.228133895550855,157.13939509392003 46.21767682290374,157.4786229120782 46.20931116477732,157.84225011326998 46.20303692118614,158.14974250360137 46.19467126307427,158.52556101437767 46.19048843401106,158.8598879612582 46.19048843401106,159.23325470987766 46.18839701949037,159.55048972069017 46.18630560495512,159.8579595247793 46.18212277589919,160.1239420286147 46.18212277589919,160.34843865557013 46.1716657032448,160.8145062558724 46.16748287418159,161.31716555662206 46.154934387006506,161.8002938708196 46.14238589982415,162.2370527518724 46.136111656240246,162.62256495129077 46.10892326735484,162.9617128069549 46.02526668616338,163.33989343486064 45.89559898532025,163.67903083477722 45.7199201648109,163.9864460773515 45.60907519474131,164.1743089485044 45.68436611780635,164.09135669888565 45.77429694258899,164.16698964425996 45.96879849385732,164.29629701371232 46.2155854083685,164.49391632223342 46.49374354083557,164.66957652095152 46.6296854852626,164.7793634718164 46.86601532713394,165.01357390264275 47.13999063053052,165.20630780175088 47.38886895956966,165.41367793596692 47.65866143391759,165.42343648499627 47.78623772022547,165.41367793596692 47.911722592012666,165.60396890400443 47.98283068603632,165.76986232466334 48.20661204071075,165.81377509102822 48.54542119453981,165.9308753962905 48.8842303483616,166.02601896050328 49.19375969877001,166.1284808254768 49.46773500216659,166.26753549219575 49.70824767308659,166.37487536854314 49.946668929485895,166.4944123755231 50.19973008758825,166.6066302315885 50.50507660893345,166.71884754664643 50.83133727558743,166.83594329862171 51.00910751061019,166.9262042054088 51.264260083240515,167.06525410663198 51.538235386644374,167.22869766541044 51.764108155854046,167.36286689329972 52.07363750626973,167.49215650854785 52.450092121631315,167.60680896286067 52.76589571562363,167.70438507493964 53.08588213868643,167.7946426144863 53.384954416433175,167.91417233099673 53.62128425830451,168.03126207048626 53.824151467684715,168.1215183427521 54.016561604432354,168.21421360950444 54.27589700611861,168.34105916593398 54.60006625823007,168.49717582512312 54.974429459063685,168.64109494296645 55.34460983083409,168.68256299825953 55.666687668424856,168.7118345222425 55.92811448463908,168.71671310599413 56.252283736743266,168.72647027043058 56.4676994333131,168.76793817367434 56.70402927518444,168.79720959030783 57.0281985272959,168.8801450709525 57.36491626659699,168.93868758530334 57.63052591186715,169.02650108083435 57.83548453579715,169.10943574473276 58.170110860563,169.26554725187634 58.471274552852265,169.40946162032196 58.741067027185636,169.5094693864321 58.87910038615519,169.56801031850227 59.167715591262095,169.68509174111932 59.50652474508388,169.81924681413147 59.85160814249684,169.95827943785844 60.17368598008761,170.09731123147503 60.470666843313666,170.15585068571454 60.857578531315085,170.35098113703316 61.23612456120463,170.53879265218893 61.577025129554386,170.71196816160955 61.85727467654942,170.8509954555666 62.09569593294873,170.98514381207315 62.37385406540852,171.12416947525708 62.65201219786104,171.26319430853255 62.91343901408254,171.39490127979116 63.15813451406575,171.51441251657343 63.46138962088298,171.68026382911194 63.745821996933955,171.8387970679887 64.02398012939375,171.98025658550978 64.35651503962436,172.1509824452769 64.66186156097683,172.3119513954607 64.9525681806117,172.45340803942418 65.2370005566554,172.59730270964064 65.54862132159906,172.76558517936064 65.84769359936035,172.90947792113184 66.15931436429673,173.06068628521643 66.47093512922584,173.219210129153 66.76791599245917,173.37285528687244 67.00842866337916,173.49967274888877 67.2614898214888,173.6264895205495 67.56265351376351,173.77281570694504 67.85754296247615,173.92645721350527 68.17125514193322,174.09473008191344 68.51006429576228,174.2605630240032 68.81959364617796,174.4288334792891 69.135397240163,174.60929609523373 69.44910941962735,174.76780940207937 69.77537008626678,174.9336375534749 70.13927621445328,175.11897350249455 70.46762829562795,175.28723775839535 70.76251774433331,175.44330786605678 71.0636814366153,175.59449978601515 71.39830776138115,175.76276060805503 71.72456842802058,175.92614314216553 72.01945787672594,176.06757784366346 72.35826703054772,176.27728978652158 72.56740848352638,176.45529960599015 72.62596809035313,176.50163070585768 72.8936691501658,176.6820772694664 73.1781015262095,176.95518292437555 73.4123399535456,177.19170934294016 73.62775565011543,177.4136030791069 73.83480568855884,177.61598783149384 74.10878099196998,177.89639753598203 74.37857346630335,178.17680386700886 74.67973715858534,178.4864660694966 74.95789529105241,178.77418001969454 75.22141352180188,179.0545757916043 75.48911458162183,179.31302455952573 75.75263281236403,179.5739086174308 76.00987679952232,179.82991349971962 76.24829805592162,180.0737250597831 76.48462789779296,180.3272863775528 76.70004359435552,180.54427416173712 76.85689968408406,180.69543299777615 76.89663656015182,180.72956550254457 76.9300991926284,180.75638386409628 77.04721840628918,180.87584709989278 77.2521770302119,181.08795378592913 77.36511341482401,181.19766338368208 77.55961496608506,181.41220510534004 77.76457359000779,181.63405867331676 78.00299484639982,181.86809970992 78.19122215408424,182.07288369010348 78.3564439019392,182.19965382425107 78.6178707181607,182.45319202517203 78.86465763267188,182.7189166043372 79.11562737623899,182.98463815587456 79.3812370215237,183.26010776087242 79.51927038048598,183.42343776011512 79.59037847450236,183.49169473435177 79.79324568389711,183.68183810930896 80.01075279498036,183.8939192757789 80.24917405137239,184.12793763539048 80.46668116247747,184.36439130160397 80.52105794024828,184.47408548748172 80.61726300862938,184.55208992804728 80.69255393169442,184.76172556956953 80.83477011971263,184.92504505446595 80.92470094449527,185.04204935556663 80.8515014359582,185.1371149180959 80.70301100434153,185.3174946641484 80.60680593596771,185.46862256677377 80.54406350008503,185.57587403277103 80.47922964965255,185.78550047449608 80.41439579923463,185.86593802766947 80.60680593596771,185.95125028101393" stroke="red" stroke-dasharray="none" stroke-linecap="round" stroke-linejoin="round" stroke-width="0.5"><title>2024-05-01 52.5km</title><desc>1714541844000</desc></polyline><polyline fill="none" opacity="1" points="186.0,148.14571254696966 185.79881203295372,148.1806542462764 185.5861276106516,148.21962756687572 185.34585169573256,148.2612885706303 185.06763747844525,148.27875927352852 184.78942326115794,148.2854787682527 184.5663920291263,148.2612885706303 184.39049626365158,148.2854787682527 184.11917991952942,148.29219825943164 183.8421153477684,148.2908543614776 183.56160183942848,148.3016055411117 183.3063805326674,148.30698112751725 183.03276489748532,148.3150445028723 182.76834642652102,148.2854787682527 182.55106342211366,148.26263247170664 182.26710097720206,148.24650564943568 182.0049817972831,148.32713955631425 181.7991952481243,148.37148798721228 181.5980072810853,148.38627076314697 181.4244108066705,148.23844223063224 181.31059589959477,147.9642829496397 181.24391645909054,147.83526477247415 181.14044836175162,147.5812564112057 181.08986395861575,147.42401059746317 181.00708948074316,147.2116584639998 180.93696110366,147.03827972545514 180.83809158842632,146.79097572850515 180.74037171871896,146.54366692150597 180.63575397585373,146.36087036367917 180.3127035830621,145.7492892441378 180.14945391837682,145.55572777139696 180.09427093312843,145.36619597341996 179.9724085073758,145.43878295335162 179.75972408507369,145.58933240517672 179.55853611803468,145.4764204834637 179.459666602801,145.45356913918658 179.2032956505136,145.4253409513003 178.9710672542642,145.44953654475376 178.77332822379685,145.52077885803283 178.522705499141,145.60008586921958 178.4376317302158,145.62159277002047 178.20655297949997,145.71434086292356 177.92029124352848,145.81515323987514 177.76393945200107,145.87698443553836 177.59609120521054,145.9804838074333 177.45353515999886,146.04634660537977 177.28338762214844,146.16059758840674 177.05920674459048,146.23855649338748 176.89250814332627,146.2869445387978 176.62464073576848,146.3675908719024 176.44874497030105,146.4240430007021 176.23261161142,146.48990350084568 176.04177045411052,146.58130118070494 175.8658746886358,146.7708148645388 175.5991569266116,146.87565100808752 175.46119946350518,146.92806875572296 175.20022992910526,147.03827972545514 174.9300632305094,147.16327393755182 174.7725617934484,147.23853867691923 174.52538800536422,147.36084292828582 174.4311170722358,147.3836908448484 174.2023376125726,147.5449690883006 173.9724085073758,147.70624528646658 173.81720636136743,147.81107371854705 173.63441272274213,147.88095885990333 173.3194098486274,148.00460086159637 173.1630580571,148.05029434064272 172.88254454876005,148.0906119799447 172.69630197355582,148.10136332884122 172.45027783100522,148.1510881992681 172.1893082966053,148.11345858548611 171.9317876987916,148.03685509913794 171.80762598199362,147.9736904738602 171.5753975857442,147.78150681236912 171.36961103659996,147.796290274051 171.17302165165165,147.95756328521838 170.92584786357475,148.08120454220625 170.69821804943058,148.15646384928823 170.42920099636103,148.26532027343183 170.1578846522316,148.3567051940945 169.97968959570426,148.4212118016112 169.81529028549994,148.5152833511711 169.6267484192358,148.59457168833796 169.40256754167785,148.63219987881166 169.1645909177969,148.67251567365201 168.95765472312632,148.71551904731223 168.84958804368216,148.73836453043805 168.5690745353495,148.85259133062573 168.39317876988207,148.9533788319468 168.1184134891737,149.10119905611555 167.8988311937137,149.21542259836497 167.72983330139687,149.29739415542008 167.46541483043256,149.43042883696307 167.2366353707621,149.58899360990927 167.12052117264102,149.66827525530698 166.90323816822638,149.72874397478608 166.62732324199897,149.80802474936172 166.30657214025268,149.90342977230648 166.13182602031156,149.9477727084677 165.8329181835652,150.02705211828834 165.5845947499547,150.13723624041359 165.30408124161477,150.27832427201884 165.14657980456104,150.36163266087533 164.9223989269958,150.4624082087803 164.70971450470097,150.55780832543678 164.51887334738421,150.63036568180996 164.32228396244318,150.71367176599506 164.19237401801365,150.77279188200464 164.15673500670528,150.79025913644728 163.95324774861365,150.87222054864287 163.7095228971084,151.00120793159476 163.48304272849055,151.10600921763398 163.23356964936102,151.24843009486904 162.97719869706634,151.3948800896651 162.82084690553893,151.45399704134707 162.5886185092968,151.5708865694305 162.36558727725787,151.69180564129056 162.18049434757268,151.78047889725258 162.0287411381505,151.7280811388482 161.92067445870634,151.4889296564579 161.7873155776906,151.2538044363946 161.6953439356148,151.1167580186866 161.559685763561,150.90984200371622 161.42172830044,150.7042662676713 161.30676374784525,150.53899709143843 161.17685380340845,150.5430280724886 160.96646867215895,150.68814254008612 160.76298141406733,150.78757186809253 160.57099061122426,150.87625142415436 160.27093312895158,150.90581113885128 160.12607779268,150.86415879380183 159.88695152328,150.747262774692 159.58574439547374,150.59139974555728 159.23740180111054,150.52421681664237 158.96148687487585,150.47853222238336 158.68787123970105,150.47315755345153 158.4269017053084,150.43016012028147 158.23491090247262,150.3979119500582 158.02682506227575,150.36432001917365 157.8187392220716,150.34550849914376 157.54627323241584,150.31729116695715 157.2669093696095,150.28907377219366 156.9921440889011,150.26891845191403 156.73922207319265,150.24473202543504 156.49894615826634,150.22054555297836 156.2563709522874,150.20442121247106 156.02069361946633,150.27698058385613 155.85744395478105,150.35088322199044 155.76317302165262,150.20845229951647 155.64016095037368,150.01227124883735 155.5125502969895,149.8093684870455 155.3941368078158,149.61318128290895 155.29296800152952,149.46671078140662 155.1814523855137,149.29067519520595 155.07798428818205,149.11598098406284 154.92278214217367,148.87543656757953 154.76643035064626,148.63488760243945 154.6204253688411,148.40642906628273 154.51350833493052,148.29757384981258 154.27898064763576,148.40374129437623 154.16746503161994,148.47631093647942 153.91684230695682,148.597259419922 153.74899406015902,148.66445252490394 153.56160183942848,148.75314688000526 153.31672734239692,148.8216830035626 153.0592067445832,148.96412945162137 152.88675991568743,149.060884619872 152.78904004598007,149.11194955087467 152.57635562367796,149.19526557719655 152.36482084690215,149.278581057878 152.1578846522316,149.35114570938913 151.95439739413996,149.42639750341823 151.6336462923864,149.8053372735667 151.49798812032532,149.8698365359669 151.39107108641474,149.88193011126714 150.5621766621989,149.81608717333893 150.34489365778427,149.85774294917337 150.07587660471472,149.90208604455438 149.80226096953265,149.93971036793118 149.559685763561,149.96255365284742 149.32515807625896,149.9853968967518 149.08258287028002,149.99345920833548 148.86300057482003,149.99883407988455 148.57788848438213,150.0042089491708 148.27898064763576,150.01092753258035 148.22609695344,150.01630239675342 147.93063805326528,150.01227124883735 147.60528836942103,150.02839583284367 147.30982946924632,150.02436468875567 146.98333013987576,150.02033354339164 146.67982372101687,150.00958381617966 146.37286836558633,150.00824009964163 146.10615060356213,150.00286523206432 145.811841348921,150.00152151481325 145.53477677716,150.00555266613446 145.257712205399,150.00555266613446 144.994443379961,150.00286523206432 144.73232420004206,150.0042089491708 144.45525962828106,150.00824009964163 144.18624257520423,150.0001777974212 143.89308296608215,150.00152151481325 143.74937727534416,150.00152151481325 143.45736731174838,150.00286523206432 143.15156160183687,150.00286523206432 142.8710480935042,150.00555266613446 142.59743245832215,150.01092753258035 142.36405441654642,150.01361496495065 142.11343169189786,150.00824009964163 141.90994443379896,150.00286523206432 141.63173021651892,150.00555266613446 141.32822379766003,150.00689638295717 141.0867982372074,150.00824009964163 140.9200996359432,150.01495868092115 140.59360030656535,150.00555266613446 140.30388963402947,150.02033354339164 140.06476336462947,150.02033354339164 139.80724276680849,150.02033354339164 139.49109024717472,150.01898982798684 139.20942709330848,150.0216772586573 138.95305614102108,150.01764611244107 138.70128377083165,150.01764611244107 138.44261352749163,150.01898982798684 138.1942900938884,150.02302097377742 137.95976240659365,150.02570840359476 137.67465031614847,150.02570840359476 137.38838858019153,150.02436468875567 137.16880628472427,150.0324269756502 136.87909561218112,150.02705211828834 136.5583445104421,150.02705211828834 136.3629047710274,150.0001777974212 136.11228204636427,150.0404892574379 135.83406782908423,150.03780183074468 135.65242383598525,150.03780183074468 135.35696493580326,150.03780183074468 135.0580570990569,150.0404892574379 134.78904004598735,150.0324269756502 134.51312511975266,150.0351144034812 134.25675416746526,150.04586410911998 133.9739413680727,150.0472078216908 133.71182218815375,150.0472078216908 133.45660088139994,150.0485515341161 133.2680590151358,150.06198865055921 132.9921440889011,150.0566138056829 132.7254263268842,150.0512389585374 132.51963977773266,150.0539263823939 132.24027591491904,150.0566138056829 131.96551063421794,150.06064493955182 131.74822762981057,150.06198865055921 131.7125886185022,150.0001777974212 131.67579996167478,149.84430561703175 131.42747652807157,149.8496805515888 131.15730982946843,149.83893068019825 130.98716229162528,149.81877464686386 130.75493389538315,149.82414959220932 130.45257712205057,149.8133996992492 130.18356006898102,149.79861858159438 129.9133933703779,149.7851811870123 129.63287986203795,149.77308751975397 129.3638628089684,149.7650250685274 129.07875071852322,149.77308751975397 128.79708756466425,149.7824937063906 128.533818739219,149.79055614654862 128.27514849587897,149.79996232027406 128.00728108832845,149.8026497972005 127.7635562368232,149.8093684870455 127.52557961294951,149.81743091017506 127.37842498562532,149.81743091017506 127.16459091779689,149.8281807997273 126.87717953630636,149.83758694563676 126.63345468480111,149.83758694563676 126.62080858401168,150.01630239675342 126.60471354665788,150.33072799961155 126.59896531901904,150.60349263509397 126.56447595325153,150.86818967186446 126.52883694194315,151.0442034353946 126.43801494538639,151.27664536253815 126.31155393753579,151.54401550857074 126.1827936386253,151.820784718484 126.06552979497792,152.07336495899926 125.96321134316531,152.36087041023166 125.9333205594885,152.63493498236403 125.97125886184949,152.9627299576223 126.03333972024848,153.2999200813574 126.08047518681269,153.57262110050578 126.13105958995584,153.84128634417993 125.8884843839769,153.91785490070924 125.61716803985473,153.95143745570022 125.3550488599285,153.989049812154 125.10097719869373,154.02531876495232 125.01360413872317,154.0494980094336 124.80206936194736,154.06964734476696 124.56409273806639,154.10994591978852 124.32381682314735,154.15427420502874 124.13872389346216,154.160990598426 124.02490898639371,154.14621452828123 124.18585936003365,154.160990598426 124.45372676757688,154.13815484643055 124.71584594749584,154.08845336231207 124.92738072427164,154.0629309031956 125.1722552213032,154.0280053499373 125.35964744203375,154.00248276967613 125.62981414063688,153.96218385459542 125.88733473845787,153.92725802503355 125.9344702050148,153.88695887189897 125.88273615635262,153.6626245885227 125.81950565242005,153.42216608802482 125.78501628664526,153.2663358080872 125.74592833875795,153.11722056494546 125.67235102509585,152.8310756128294 125.60912052117055,152.5502980235915 125.55278789039585,152.29369682070592 125.49990419620008,152.06396046540704 125.45391837516217,151.8637774537874 125.3550488599285,151.62597206684495 125.2354857252285,151.40428507761862 125.10097719869373,151.14900436738026 125.13546656447579,150.9071547606145 125.1917991952505,150.68142431422984 125.25273040812317,150.47584488820303 125.32400843073265,150.2151707750818 125.38723893465794,149.99749036221056 125.45046943858324,149.77040003657748 125.45161908411683,149.60646248946432 125.21939068786742,149.52583669139403 124.98256370952004,149.4653670075295 124.71009771986428,149.39414678905086 124.45257712205057,149.33367647925934 124.19275723317696,149.2691744986705 123.94098486299481,149.20198458780305 123.75129335121164,149.15495143904718 123.49492239892425,149.08641711099335 123.23050392795267,149.01116330588047 122.98218049434945,148.94531586122594 122.78444146387483,148.89693792958587 122.48783291818108,148.8203391615525 122.23261161142,148.75583457808534 121.9566966851853,148.68326653069926 121.69572715079266,148.62548056724518 121.47384556428005,148.5676943412809 121.23356964935374,148.47362317933766 121.03583061889367,148.30563723113028 120.86568308105052,148.13764906426877 120.65989653190627,147.9374042706595 120.47480360222107,147.7586596105166 120.29430925464112,147.59469613415695 120.05058440313587,147.4723941318607 119.76777160375059,147.44148245056294 119.53439356198214,147.49524184800248 119.38608928913163,147.57184859669178 119.15271124736319,147.76403542640674 118.9250814332263,147.95218755112546 118.71009771986428,148.077172781047 118.46867215941893,148.161839497041 118.22494730791368,148.20350069007964 117.9961678482432,148.21425194354742 117.86395861276105,148.2209714723549 117.60068978731579,148.23844223063224 117.35006706265995,148.25591296491257 117.10519256562111,148.27472757499072 116.85686913201789,148.29219825943164 116.59360030656535,148.31101281583597 116.34297758190951,148.32982734440884 116.13029315960739,148.33923459825837 115.8716229162601,148.3674563180648 115.61410231844638,148.38627076314697 115.38072427667066,148.41314849356422 115.13470013412007,148.42793122108378 114.87488024525373,148.45212110177908 114.62310787507158,148.53275370519987 114.4035255796116,148.67251567365201 114.22073194097902,148.85931052222531 114.12071278022631,149.00981948388562 114.03333972025575,149.24498617163863 114.00114964552631,149.46671078140662 114.01379574630846,149.7636813261588 114.0356390113011,150.0472078216908 114.05863192182005,150.34819586084814 114.07127802260948,150.61827281780643 114.10231845181261,150.88968766661492 114.12301207127894,151.17318907528715 114.1448553362643,151.47818116971393 114.15405250047479,151.79660124106158 114.15290285494848,152.02231191025567 114.13910710863274,152.3487791902744 114.11496455259476,152.657773430391 114.09312128760212,152.94660909058712 114.07472695918113,153.21797429894832 114.0563326307747,153.49470711954564 114.03448936577479,153.77412056466528 114.01609503736108,154.0629309031956 114.07702625023376,154.34636165814482 114.21153477676853,154.5921756413809 114.2667177620242,154.64321838730666 114.24487449702428,154.59754857163898" stroke="red" stroke-dasharray="none" stroke-linecap="round" stroke-linejoin="round" stroke-width="0.5"><title>2024-04-21 79.4km</title><desc>1713660889000</desc></polyline><polyline fill="none" opacity="1" points="19.396871181947063,194.38124246418192 19.390679350115533,194.27266139814128 19.669311782454315,194.41743603809846 20.346285395833547,194.1375375724856 20.56506345381058,194.76489142814717 20.676516426741728,195.41876882946053 20.761138128407765,196.05332567203186 20.74462657686672,196.47072417008167 21.287443833934958,196.39834347446777 21.923138568439754,196.39834347446777 22.079998308130598,196.67580156171243 22.079998308130598,197.27413448473817 21.826133203110658,197.52021847593824 21.925202512378746,197.34409981084355 22.084126196008583,196.87605182571497 21.760086996924656,196.29459741065511 21.960289559414377,196.17878729428048 22.34211918892106,196.0557384020358 22.938598988504964,195.79516208831228 23.654787536805088,195.50562936300594 24.230627896962687,195.3343207717062 25.004606875671016,195.13405698607312 25.55361596457078,195.0013511001962 25.733179087619646,195.713128188896 25.896230659134744,196.38386730781167 26.067538006420364,197.0111594455011 26.300763672014,197.6939232261684 26.546373001256143,198.40802887485734 26.783726554720488,199.14623624394335 27.06648687494453,199.92542925203634 27.303840428408876,200.62016716805374 27.50610693485214,201.20633585199903 27.79712303083943,202.0505853060422 28.03447658431105,202.72837443615026 28.207847875535663,203.259013816898 28.4039225501474,203.81858381658822 28.60206116869813,204.4456718466081 28.833222890330944,205.08721333445828 29.068512499856297,205.8083230616121 29.307929997274186,206.48600076729963 29.534963831029017,207.1564237129951 29.75993372083758,207.7930661541941 29.976647834882897,208.4393365626638 30.158274901885306,208.96502066279754 30.73205131808936,208.74799658150187 31.287252238820656,208.65395217332116 31.644314540993946,209.29296425593384 31.978673459787387,209.89578947617156 32.20777123749576,210.445552224317 32.397654080268694,211.17372639939822 32.6535831292349,211.754802406409 32.9342795055054,212.4877568997381 33.27276631219138,213.2954262686635 33.46058521102532,213.7631381810188 33.74540947518835,214.45986654925218 33.945612037678075,214.968537185503 34.14168671228981,215.54951682960564 34.32744166717748,216.2027999756101 34.55447550093231,216.9115067305538 34.804212718059716,217.68286329491457 35.012671056327235,218.4903493528018 35.161275020233006,219.06882931726977 35.20255389910017,219.7196018079776 35.23970489007479,220.3703558041616 35.278919825010234,220.8547939939308 35.413076181313954,221.75133913464015 35.52040126635984,222.44059460158678 35.62772635139845,223.0912712903264 35.718539884903294,223.8190433193522 35.78045820319676,224.30581832937605 35.8196731381322,224.96367109284074 35.883655400371936,225.64078186744337 35.94970160653611,226.39979685094113 35.99923626118107,226.9154307850713 36.061154579489084,227.6358531626247 36.096241626524716,228.13218450231943 36.13132867355307,228.64296087343064 36.14164839326986,229.29587069963054 36.17260755242023,229.8716687316337 36.18705516001501,230.81845162974423 36.193246991846536,231.73628780546824 36.19737487972452,232.3650205186368 36.23452587070642,232.89015570391348 36.26135714197153,233.639295638166 36.27993263746612,234.44621964228645 36.230397982828435,234.98575896198417 36.23246192676743,235.38317936261956 36.981673578156915,235.44821113635226 37.7308852295464,235.51083415164612 38.45532955360977,235.55418844671476 39.05387329714722,235.60476835407462 39.82372438796301,235.6601652675272 40.45941912247508,235.74446466177324 41.15290428739536,235.77336723992812 41.82575001288933,235.83117228699666 42.52336306568759,235.888977188426 43.223040062439395,235.93955635770544 43.80094436654326,235.98531836716393 44.36027317515982,236.03108028534916 45.01247946121293,236.08406765552354 45.54497699856438,236.12501235776108 46.1001779192884,236.16113997551838 46.31070020149491,236.67414600862685 46.29418864994659,237.50263857520258 46.27767709840555,238.2829356162565 46.28180498628353,238.86332454249896 46.261165546864504,239.585779878611 46.24465399530891,240.60440326898424 46.224014555882604,241.5531513029673 46.2033751164563,242.38869134109518 45.970149450862664,243.17845339580344 45.64611025177146,243.72982604583194 45.425268249855435,244.1078337069648 45.57800010165374,243.9344806475292 45.91029507650819,243.6575945744844 46.440728669920645,244.0524571774422 46.95465071178478,244.47861224716507 47.54906656742969,244.88068350943104 48.01345395464887,245.12866407204456 48.597550090584264,245.3790494965142 49.28484342367301,245.595726987749 50.025799299291975,245.96407403206103 50.66562192168203,246.195190730401 51.3694268063191,246.55871333207506 51.80904686622671,246.81630533567477 52.531427246351086,247.05704291491566 53.1547383172001,247.2448164755242 53.56546316190361,247.43499582512777 54.02778660518379,247.65646852662212 54.63458612449176,247.94293548477253 55.330135233358305,248.0945930166563 55.9947251830672,248.12107280052805 56.523094832540664,248.18847574904248 57.261986764206085,248.34494611723312 57.8852978350551,248.57122445737514 58.50654496195784,248.85286566156537 59.18764646323689,249.11524624157573 59.91415473123925,249.4137305982531 60.5415936899808,249.62796294821965 61.25984618221264,249.99624535419207 61.82743076659972,250.2899042200297 62.24434744312748,250.49931439802276 62.79748441991251,250.7785250006982 63.38777238767943,251.09865022476515 63.924397812908865,251.38026045744664 64.48166267758643,251.65705347785115 65.08639825294085,251.9627253754188 65.67668622070778,252.2611727552994 66.31238095521985,252.57646376230332 66.86139004411234,252.86286940224636 67.44548618004046,253.15408492394636 68.12039584946615,253.5030573433396 68.70449198540155,253.80870469736328 69.21428613937314,254.07824859866378 69.74471973277832,254.3477893402105 70.30817642928014,254.64139262408025 70.76637198467506,254.87964171390922 71.31950896146009,255.15879912303353 71.82930311543169,255.41388827514675 72.29988233448967,255.7628264007035 72.75807788987731,256.099727153578 73.19150611796067,256.5473162344824 73.60016701871791,256.94436377383136 74.23379780927644,257.59887566522957 74.77042323452042,258.1402776780724 75.30911260368885,258.68647924152356 75.78381971063936,259.1604850662825 76.20899216293765,259.61763879338105 76.54954291357717,259.9472650554944 76.73116998057958,260.10846742053036 77.07584861908981,260.51507732441496 77.18523764808197,260.6762757116703 77.56706727758137,261.00829271238763 77.9488969070735,261.35233426096056 78.47726655653969,261.8888363420956 79.0634266364068,262.4902812053442 79.52162219180173,262.9497744906912 79.99632929873769,263.43331511082397 80.16350875814533,263.70274627357685 80.27702567502274,263.9168455739982 80.46278062990314,264.1020759464409 80.68362263183371,264.32338820353834 80.74966883801244,264.49177653917104 80.81777898814471,264.6890298802209 80.6939423515505,264.8670375421643 80.59280909832887,265.0546657499981 80.45658879807888,265.3818087116397 80.40086231161695,265.6824874814265 80.26051412347442,265.98797309044676 80.34926371304027,265.7474335800507 80.43388541470631,265.42029581330826 80.33481610542367,265.1965886350954 80.64234375297383,264.67940780524077 80.7228375667546,264.4027714294971 80.65472741662961,264.2584380877779 80.42975752681377,264.0347196198072 80.51437922848709,263.75807549707497 80.50612345271657,263.6426056624314 80.13461354293395,263.39963599374823 79.68880165120208,262.9377459875741 79.36476245211816,262.620191231812 78.86116012997809,262.1077640915755 78.39677274275891,261.6338189751805 77.9881118419944,261.21519943500243 77.48450951985433,260.73642407435 77.04695340388571,260.28169855391207 76.63622855918948,259.8558363465545 76.24201526603429,259.4492147928122 75.88082507596118,259.0931142753943 75.43707712817559,258.64557472784145 74.97062579701014,258.1667458942338 74.5351336249878,257.73121955616807 74.08725778930966,257.2788409275163 73.71987576741958,256.91548782026075 73.39170868044312,256.5737862836795 72.93764101294073,256.12619771791105 72.50008489697939,255.697852116391 72.19462119338277,255.48608280447115 71.58369378618954,255.14195351338276 70.89020862126927,254.76653386792168 70.24213022309414,254.45608606981114 69.62913887196191,254.13841421668803 69.06774611940637,253.84961781436323 68.41966772124579,253.5415643203105 67.7798450988339,253.2094395232416 67.32577743132424,252.97117312627415 66.62816437852598,252.62459941341876 65.97595809246559,252.29246136911388 65.39598984443,251.97475961893724 64.78299849329778,251.6666810011884 64.19271052553086,251.35859825434636 63.61687016536598,251.06013915553558 63.04722163704719,250.78574591957113 62.428038454083435,250.4608023245637 61.83155865448498,250.17918082603865 61.26397407010518,249.8758922759498 60.655110606858216,249.57019262353788 60.188659275685495,249.31503861901547 59.633458354961476,249.03821739113118 59.07825743423018,248.74935690226084 58.566399336312315,248.49419378324274 58.007070527703036,248.21736266644257 57.74701359085884,248.19810472554127 57.44774171908648,248.36661116116193 56.84507008767832,248.24865678597962 56.35591537313303,248.14033080599802 55.68100570370734,248.09218576206695 54.97513687511673,248.03922609722395 54.48185427270073,247.84423718820472 54.126855914459156,247.67572692150497 53.55927133007208,247.3988859431156 53.00613435329433,247.1774107585461 52.45506132045557,247.01130296897463 51.947331110422965,246.85723090212014 51.57582120063307,246.6646393654555 50.94631829797436,246.29871099750744 50.358094274146424,246.07481774017833 49.8338525125655,245.84129234026295 49.29929103127506,245.58128188526098 48.71725883927866,245.41516255365968 48.18269735798822,245.23700425417155 47.94947169241641,244.98180212038096 47.631624325156736,244.85419999013357 47.1548532742745,244.60380884394363 46.70904138254264,244.2161787046207 46.31689203332644,243.94892678579527 45.84837675821473,243.60944013404514 45.59244770926307,243.811688105372 45.21061807975639,243.92003450018092 44.69256815000699,243.6022169592634 44.23850048251188,243.27235622350054 43.79268859077274,242.94249074933032 43.33036514749256,242.58372656940446 42.84740226477879,242.25625906886307 42.40778220487846,241.86618139215534 41.964034257085586,241.5916783135017 41.51409447745391,241.3556993592556 41.05383497812727,241.1341658887177 40.6100870303344,240.98005438751534 40.178722746204585,240.83316589997048 39.712271415031864,240.6814604098272 39.27058741118526,240.56346655770722 38.83715918310918,240.44788015532504 38.46564927333384,240.3804544851664 37.82995453882177,240.36600610150708 37.25411417865689,240.33470123904954 36.67001804272877,240.3082124759312 36.073538243130315,240.28413175566857 36.0343233082167,239.8723475296356 36.0425790839945,239.46537223510313 36.04464302792621,239.10173731739633 36.05702669158927,238.53098745126044 36.07560218708386,238.00838968266908 36.08592190680065,237.5098636695002 36.125136841714266,236.98242580698206 36.16847966452042,236.48869444717639 36.21595037521911,235.9684586900894 36.25103742225474,235.54937130686085 36.29644418901444,235.03874874652865 36.33359517998906,234.53774952781168 36.343914899698575,234.04637428083151 36.31295574055548,233.5236743512378 36.298508132946154,233.00818902168066 36.28818841323664,232.64686062220426 36.28406052535138,232.14099129879833 36.27993263746612,231.57488620578624 36.27993263746612,230.9509499345986 36.271676861695596,230.35108785898774 36.255165310132725,229.8668503980607 36.24484559043049,229.493426465855 36.224206150996906,228.77306246998342 36.205630655509594,228.32493163985964 36.15403205693292,227.77800741161263 36.10656134623423,227.17083395141344 36.0632185234208,226.6817102991863 36.009555980905134,226.07691735908338 35.96208527019917,225.46006030860735 35.920806391353835,224.97090013916386 35.85888807304582,224.34437432377672 35.807289474469144,223.7443393083322 35.739179324336874,223.21899454433333 35.67313311815815,222.7803947337161 35.60708691197942,222.36829605078128 35.5245291542451,221.8670198222717 35.43577956468653,221.3295816793543 35.35734969483747,220.73428793906896 35.31607081597758,220.24502684273648 35.28304771288822,219.70996086901505 35.2376409461358,219.1435485801776 35.11793219743413,218.5457876492983 34.994095560839924,218.0588901965475 34.8454915969196,217.51654173368843 34.68450396935077,217.0223908363114 34.51938845389668,216.51376584534228 34.387296041531954,216.0895012831079 34.2490117973357,215.525410083721 34.05293712273124,215.00951963558873 33.83415906474693,214.4622773372248 33.63808439014247,213.99699055215933 33.51218380960927,213.60160988995813 33.28514997585444,213.0904979340703 33.074627693647926,212.5841965323052 32.862041467495146,212.04654039628258 32.655647073173895,211.53298260197334 32.45750845462317,211.108625678311 31.974545571909402,211.34491630030243 31.450303810328478,211.53780479450506 30.934317824532627,211.67764793578135 30.793969636390102,211.0869253967703 30.668069055849628,210.51547724063676 30.56280791475001,210.0211751258139 30.416267894783232,209.44970034176913 30.244960547490336,208.95537519180834 30.094292639645573,208.52855902744523 29.939496843900997,208.0703859175046 29.75167794506706,207.50850846606772 29.576242709896178,206.99243718279104 29.376040147406457,206.41365179215063 29.194413080404047,205.8758505668775 29.00040234973858,205.31391917857582 28.833222890330944,204.82432821053408 28.633020327841223,204.23342859339573 28.467904812379857,203.7631098163456 28.286277745377447,203.2348941123455 28.1087785662603,202.72596241083193 27.94779093869147,202.24596430626298 27.78061147929111,201.76354399167576 27.563897365260345,201.13397016151794 27.40497368163051,200.6611753430243 27.229538446459628,200.15218631108655 27.04997532339621,199.6238871229125 26.907563191314694,199.18000986655898 26.732127956143813,198.69511235344544 26.51747778605204,198.07510401959553 26.342042550873884,197.53710649574896 26.139776044437895,196.95325627776037 25.98498024869332,196.3790419168945 25.859079668167396,195.85065544137433 25.712539648186066,195.31501831464448 25.66300499355566,194.86381873178107 25.229576765486854,194.9193143485645 24.612457526447542,195.0954517170194 24.05312871784554,195.25228521650752 23.586677386680094,195.42118162651786 22.988133643149922,195.6310939947507 22.470083713400527,195.82894066710833 22.125405074875744,195.98094365330508 22.129532962761004,195.98094365330508 21.86122025014629,196.08710386890925 21.239973123243544,196.2391051365139 20.816864614884253,196.079865688067 20.765266016293026,195.5900767871517 20.70334769799956,195.20161604985697 20.598086556899943,194.55255820704951 20.424715265668056,194.00965178650404 19.991287037591974,194.23646759469193 19.47323710784258,194.31609388653123 19.221435946776182,194.45121665531042" stroke="red" stroke-dasharray="none" stroke-linecap="round" stroke-linejoin="round" stroke-width="0.5"><title>2024-04-05 108.1km</title><desc>1712276378000</desc></polyline></svg>