<?xml version="1.0" encoding="utf-8" ?>
<svg baseProfile="full" height="300mm" version="1.1" viewBox="0,0,200,300" width="200mm" xmlns="http://www.w3.org/2000/svg" xmlns:ev="http://www.w3.org/2001/xml-events" xmlns:xlink="http://www.w3.org/1999/xlink"><defs /><rect fill="#222222" height="300" width="200" x="0" y="0" /><text fill="#FFFFFF" style="font-size:12px; font-family:Arial; font-weight:bold;" x="10" y="20">Over 10km Runs</text><text fill="#FFFFFF" style="font-size:4px; font-family:Arial" x="10" y="280">Runner</text><text fill="#FFFFFF" style="font-size:9px; font-family:Arial" x="10" y="290">yihong0618</text><text fill="#FFFFFF" style="font-size:4px; font-family:Arial" x="65" y="280">SPECIAL TRACKS</text><rect fill="yellow" height="2.6" width="2.6" x="65" y="283" /><text fill="#FFFFFF" style="font-size:3px; font-family:Arial" x="70" y="285.5">Over 20.0 km</text><rect fill="red" height="2.6" width="2.6" x="65" y="287" /><text fill="#FFFFFF" style="font-size:3px; font-family:Arial" x="70" y="289.5">Over 40.0 km</text><text fill="#FFFFFF" style="font-size:4px; font-family:Arial" x="120" y="280">STATISTICS</text><text fill="#FFFFFF" style="font-size:3px; font-family:Arial" x="120" y="285">Number: 5</text><text fill="#FFFFFF" style="font-size:3px; font-family:Arial" x="120" y="290">Weekly: 1.2</text><text fill="#FFFFFF" style="font-size:3px; font-family:Arial" x="141" y="285">Total: 317.5 km</text><text fill="#FFFFFF" style="font-size:3px; font-family:Arial" x="141" y="290">Avg: 63.5 km</text><text fill="#FFFFFF" style="font-size:3px; font-family:Arial" x="167" y="285">Min: 18.7 km</text><text fill="#FFFFFF" style="font-size:3px; font-family:Arial" x="167" y="290">Max: 108.1 km</text><polyline fill="none" opacity="1" points="75.68267383793136,44.33985494959052 75.79331540531712,45.01890004368033 75.90395697270287,45.633271579412394 75.97310795233352,46.344646065015695 75.94544756051619,46.65182947949506 76.0284287360846,46.991347272647545 76.13907030347036,47.70271544388379 76.20822128310101,48.54341901857697 76.2635420668521,49.3356162365817 76.33269304648275,49.933803254782106 76.29120245866943,50.12780935308547 76.20822128310101,50.257146615273086 76.22205147903878,50.72599327423086 76.38801383017562,51.30800781775906 76.49865539756138,52.06785680669418 76.7199385323911,52.77920137664478 76.87207068764837,53.539043059863616 77.06569343060255,54.34738113408093 77.25931617361493,55.05871510710858 77.14867460622918,55.608380003337516 77.59124087588862,55.89937826669484 77.8263542066561,56.49753962583782 78.07529773336137,57.09569864679361 78.28275067225331,57.61302348217578 78.40722243557684,58.14651288697496 78.04763734142762,58.45367260968487 77.49442950444063,58.5668365626334 76.94122166727902,58.74466546250915 76.29120245866943,59.01949153764872 75.68267383793136,59.22965232093702 75.08797541295644,59.40748045059445 74.79754129849607,59.60147453819809 74.71456012292765,59.763136089997715 74.72839031886542,60.26428581534128 74.97733384557068,60.927094221813604 75.24010756821372,61.58989975768782 75.40606991923414,62.30120006632933 75.65501344599761,62.98016545880819 76.04225893196417,63.61063062616449 76.6784479446942,63.90161367354449 76.92739147134125,64.515909401307 77.2731463695527,65.19486496866739 77.5497502880753,65.85765202208131 77.86784479441121,66.47193989892548 78.15827890892979,67.11855605318851 78.43488282751059,67.73283886941499 78.73914713790873,68.3632844593958 79.01575105643133,69.0260577924928 79.32001536688767,69.62416784906236 79.59661928541027,70.27077068648941 79.90088359586662,70.86887587925594 80.21897810214432,71.49930855238927 80.48175182478735,72.11357378770481 80.77218593924772,72.74400133440213 81.0626200537663,73.406755699325 81.35305416828487,74.037177920065 81.62965808674926,74.63526839617407 82.00307337683626,75.05554679222405 82.3073376872344,75.54048196917574 82.54245101806009,76.07390888950613 82.65309258550406,76.34870385032264 82.36265847098548,76.68815576790075 81.85094122163719,76.93062096246285 81.28390318859601,77.17308577301446 80.63388397998642,77.46404303873715 79.95620437950129,77.85198519950791 79.25086438719882,78.15910537952732 78.4763734153239,78.51471744984156 77.79869381478056,78.93498519514105 77.32846715324558,79.16128273399954 76.89973107952392,79.37141586339567 76.19439108716324,79.67853299518174 75.54437187855365,80.00181352093932 75.00499423744623,80.27660143106186 74.3688052247162,80.58371674694354 73.60814444866264,80.93932318518637 72.93046484823572,81.26260104854009 72.30810603144346,81.55355054193933 71.68574721476762,81.8283356668835 71.47829427581746,81.92531853442779 70.9527468305314,82.15161165302561 70.42719938530354,82.44255945691839 69.92931233189302,82.7496704278019 69.36227429891005,83.10527183502563 68.72608528618002,83.55785424966598 68.04840568569489,84.05892607667192 67.3983864770853,84.51150567224249 66.78985785628902,84.89942997503385 66.22281982324785,85.287353294887 65.65578179026488,85.64294880804664 65.11640414898284,85.93388997721195 64.99193238565931,85.98238011835201 64.92278140602866,85.98238011835201 64.48021513636922,86.27332064248913 63.88551671151072,86.53193397766154 63.23549750284292,86.7905468759709 62.62696888210485,86.98450626304839 61.99077986937482,87.21079190411547 61.27160968113458,87.48556687575183 60.63542066840455,87.71185177627194 60.068382635421585,87.8896468206367 59.3215520553058,88.1482574257534 58.560891279310454,88.42303071502829 57.81406069919467,88.68164041919226 57.08106031495845,88.94024968659505 56.417210910469294,89.1826954780845 55.67038033035351,89.42514088566531 54.89588935842039,89.69991188355198 54.232039953931235,89.92619351153553 53.63734152901452,90.0878230411181 53.111794083728455,90.26561532655614 52.793699577392545,90.36259284979315 52.35113330773311,90.57271060606581 51.75643488281639,90.75050232850481 51.134076066024136,90.99294525363075 50.45639646559721,91.28387625716277 49.723396081419196,91.49399274925236 49.018056089116726,91.73643449720112 48.243565117241815,92.01120134753 47.510564733005594,92.2859677047818 46.819054936640896,92.57689625160128 46.12754514021799,92.85166159378423 45.39454475603998,93.07793856419448 44.70303495961707,93.32037780433893 43.95620437950129,93.57897923738346 43.181713407626376,93.80525513304747 42.68382635421585,93.98304310222738 42.46254321932793,94.015368165361 41.85401459853165,94.25780592131196 41.13484441029141,94.5002432934707 40.42950441798894,94.80733008043899 39.72416442568647,95.06592900239048 39.04648482520133,95.30836509510118 38.52093737991527,95.4376641876006 37.76027660386171,95.68009969180275 36.94429504417349,95.98718411276059 36.25278524780879,96.34275477819028 35.741067998460494,96.73064910803805 35.31233192473883,97.13470465679711 34.96657702646917,97.50643482012674 34.78678447945276,97.74886704914388 34.28889742598403,98.15291991137201 33.66653860924998,98.54080965612957 32.93353822513018,98.78324024769245 32.269688820582815,98.91253640624927 31.60583941609366,99.02567045547767 31.260084517882206,99.05799445416778 30.6653860930237,99.17112839591573 29.918555512907915,99.3327481677552 29.019592777534854,99.47820581654378 28.245101805659942,99.63982526429754 27.4291202458553,99.78528262139298 26.64079907798441,99.91457793397421 25.880138301989064,100.04387313737243 25.091817134118173,100.15700635081157 24.289665770251304,100.28630134960986 23.487514406442642,100.43175809267268 22.85132539382903,100.54489101957006 22.13215520553058,100.65802386293944 21.34383403765969,100.7873184386699 20.5555128697888,100.91661290524644 19.822512485610787,101.02974547402118 19.04802151361946,101.11055440049677 18.328851325437427,101.28833388871863 17.5543603534461,101.40146618285507 16.793699577392545,101.54692186678585 16.088359585090075,101.66005396991386 15.34152900497429,101.78934769972693 14.622358816792257,101.88631792545493 14.248943526705261,101.95096470846329 14.0,101.99944977785344 14.428736073721666,102.01561146421591 14.650019208609592,102.50046126249072 14.954283519007731,103.04995584503922 15.078755282389466,103.29237929877127 15.34152900497429,103.69641753569886 15.57664233574178,104.16510055508115 15.618132923555095,104.50449081179977 15.687283903185744,104.74691196322965 15.880906646198127,105.15094636296271 15.867076450260356,105.1186236502399 15.687283903185744,104.66610495538043 15.604302727617323,104.37519937408797 15.43834037653869,104.05197030241834 15.300038417219184,103.79338655390893 15.2032270457712,103.58328693677322 15.051094890513923,103.26005619377247 14.78832116787089,102.83985520804708 14.594698424916714,102.46813799034862 14.73300038423622,102.30652152738185 15.424510180542711,102.17722823421354 16.06069919327274,102.08025819268369 16.69688820594456,101.98328808974475 17.38839800230926,101.85399452369893 18.079907798732165,101.74086256383453 18.799077986972407,101.59540706405824 19.504417979333084,101.49843665411754 20.209757971635554,101.41762793234375 20.887437572004274,101.30449565011077 21.59277756436495,101.15903973591048 22.270457164850086,101.04590726269817 22.892815981584135,100.94893650485028 23.52900499419775,100.83580387645634 24.234344986558426,100.70650934161677 24.99500576261198,100.5933765341324 25.728006146731786,100.46408179460559 26.433346139092464,100.35094880801626 27.12485593551537,100.23781573784072 27.788705340004526,100.14084446831839 28.452554744493682,100.0115493467456 29.08874375722371,99.91457793397421 29.752593161712866,99.83376837641117 30.333461390750017,99.73679685103707 30.734537072654348,99.72063492416055 31.080291970807593,99.68831106532889 31.467537456774153,99.59133944784116 31.993084902060218,99.49436776897346 32.518632347288076,99.39739602872578 33.16865155589767,99.26810027948522 33.83250096044503,99.00950845357147 34.46868997311685,98.70243009312253 34.93891663465183,98.33070283300185 35.31233192473883,97.9751367833087 35.63042643101653,97.53875913946831 36.03150211297907,97.1185424552823 36.46023818664253,96.74681135047285 37.04110641562147,96.47205299731286 37.74644640798215,96.21345644992834 38.41029581252951,96.01950875278271 39.08797541301465,95.72858674652525 39.80714560113847,95.46998894367425 40.567806377250236,95.21139070404752 41.32846715330379,94.95279202776146 42.08912792929914,94.69419291478698 42.86361890123226,94.41943087869731 43.54129850171739,94.1931558905926 44.260468689957634,93.93455549475038 44.96580868231831,93.69211722702312 45.643488282803446,93.44967857543088 46.29350749135483,93.19107692404941 46.90203611215111,92.98096276070282 47.5520553207607,92.77084830903914 48.20207452937029,92.5607335690438 48.86592393391766,92.31829312622722 49.52977333846502,92.09201503319491 50.22128313477151,91.8495738482161 50.80215136386687,91.67178340196551 51.03726469463436,91.62329506257083 51.54898194386624,91.46166715383879 51.89473684207769,91.31620189004752 52.088359585090075,91.26771343812288 52.572416442562826,91.10608515405329 53.07030349591514,90.94445669937704 53.72032270452473,90.68585081695346 54.39800230500987,90.4272444977978 55.075681905436795,90.18480067695782 55.75336150592193,89.92619351153553 56.431041106407065,89.66758590941026 57.09489051095443,89.42514088566531 57.78640030726092,89.1826954780845 58.381098732177634,88.97257581430313 58.878985785588156,88.81094510749972 59.29389166343026,88.66547732547042 59.570495581952855,88.55233562168723 60.19285439874511,88.35837822071335 60.78755282360362,88.13209427570109 61.354590856703,87.93813634238904 61.880138301989064,87.76034135428199 62.36419515940361,87.56638295004086 62.91740299650701,87.38858753033855 63.52593161736149,87.17846540444589 64.16212063003331,86.9198531613074 64.74298885901226,86.64507717442757 65.07491356122773,86.49960733461194 65.61429120245157,86.22483059353544 66.16749903949676,85.8530730412458 66.7483672684757,85.44898772146553 67.28774490969954,85.12571869773092 67.82712255092338,84.73779496835778 68.28351901646238,84.36603380528686 68.68459469842492,84.04276249499526 69.18248175183544,83.70332688449707 69.63887821743265,83.39621782659378 70.09527468302986,83.10527183502563 70.62082212831592,82.7981615774479 71.27084133692551,82.44255945691839 71.89320015365956,82.16777543445642 72.64003073371714,81.8444994823949 73.34537072607782,81.50505899811105 74.10603150213137,81.16561776121671 74.78371110250009,80.81001184861816 75.35074913559947,80.53522489593888 75.94544756051619,80.26043744997878 76.62312716094311,79.93715747035458 77.28697656549048,79.63004085741704 77.96465616597561,79.37141586339567 78.64233576640254,79.0642981154524 79.32001536688767,78.77334389116731 79.8593930080533,78.49855328274134 80.53707260848023,78.1752695824689 81.15943142521428,77.90047790046083 81.74029965425143,77.62568572523014 82.3488282749895,77.30240018162294 83.06799846328795,76.96294962606044 83.81482904334553,76.63966268292279 84.43718786013778,76.36486824440362 84.72762197459815,76.23555304385081 85.19784863613313,75.97692231494875 85.80637725698762,75.66979775692744 85.95850941218669,75.23335653549293 85.26699961582199,75.34650808274455 84.72762197459815,75.60513987668674 84.18824433343252,75.86377123367856 83.60737610445358,76.17089540259622 83.01267767959507,76.4618545731646 82.5839416058152,76.18705981544917 82.33499807910994,75.57281092634366 81.97541298501892,74.86157229130913 81.57433730305638,74.1503303515783 81.29773338453379,73.47141450818162 80.95197848632233,72.76016610916122 80.60622358811088,72.06507925348706 80.30195927771274,71.46697873486846 79.98386477131862,70.90120582310192 79.7210910487338,70.23844060949341 79.41682673839387,69.55950741510605 79.09873223205796,68.86440602470248 78.79446792165982,68.16930147753737 78.4763734153239,67.52268976235064 78.18593930080533,66.94073688310164 77.89550518628675,66.34261634023278 77.63273146364372,65.7283279443509 77.46676911250688,65.30802393706108 77.35612754512113,65.06554033089196 77.19016519392608,64.82305634055228 76.92739147134125,64.37041853071423 76.69227814057376,63.82078510476276 76.20822128310101,63.52980190367089 75.7518248175038,63.04482867239858 75.51671148673631,62.268868305836804 75.28159815591061,61.62223166161857 75.08797541295644,60.943260244617704 74.81137149437563,60.377448429426295 74.71456012292765,59.82780066291161 75.28159815591061,59.48831135036016 76.0284287360846,59.2619847235037 76.70610833651153,59.06799020557082 77.41144832887221,58.80933046573773 78.1029581251787,58.5668365626334 78.68382635415765,58.42134003632236 78.64233576640254,57.6776889636094 78.42105263157282,57.11186507441744 78.28275067225331,56.659204456649604 78.00614675373072,55.89937826669484 77.71571263927035,55.18804820148216 77.46676911250688,54.46054812367947 77.24548597773537,53.65221064731304 77.12101421435364,52.95703700237209 77.01037264696788,52.24569325920311 76.96888205915457,51.5020121736452 76.95505186315859,50.96849960304098 76.96888205915457,50.855330030753976 76.84441029577283,50.32181520534505 76.55397618137067,49.73979691056593 76.48482520162361,48.96376907361264 76.41567422205117,48.04223090513551 76.37418363423785,47.298529388717725 76.37418363423785,46.9428447769169 76.33269304648275,46.36081362851837 76.24971187085612,45.762612641003216 76.19439108716324,45.14824162462901 76.11140991159482,44.55003589601256 75.98693814827129,43.93566001037834 75.87629658088554,43.369785301343654 75.79331540531712,42.75540467607789 75.66884364193538,42.12485357405967 75.51671148673631,41.23561042356596 75.36457933147904,40.33019390505797 75.25393776409328,39.50561348476913 75.11563580483198,38.664860244782176 75.00499423744623,37.88877622965083 74.81137149437563,37.12885681644548 74.53476757585304,36.174910081521375 74.2305032654549,35.334138535603415 73.9953899346292,34.80056958067871" stroke="#4dd2ff" stroke-dasharray="none" stroke-linecap="round" stroke-linejoin="round" stroke-width="0.5"><title>2024-05-25 18.7km</title><desc>1716643451000</desc></polyline><polyline fill="none" opacity="1" points="180.20063905123243,104.82983116151263 180.0557273239392,105.09040997275952 180.03295548108144,105.16761794474041 180.0122538057476,105.26171481159508 180.02467481094936,105.38235125950087 180.13853402524546,105.44749467934344 180.14681469538482,105.49574894593934 180.09713067459234,105.56330474978859 180.0577974914777,105.65016192149415 179.97292062262568,105.72254264838739 179.93151727197255,105.85765273163452 179.9584294499,105.99517468323575 179.92323660184047,105.82870063748305 180.02674497848056,105.6646380850143 179.97292062262568,105.59466987725136 179.8921840888579,105.54882852274022 179.9563592823688,105.39682759089737 180.0577974914777,105.19657086769075 179.96256978496967,105.19415812549596 179.82386856027733,105.31238219646548 179.52783460309,105.19657086769075 179.30218634202902,105.08075895810907 179.10345025889546,104.97701029590644 179.28769516928878,104.62956952127024 179.46158924204792,104.38587530316727 179.70586901090428,104.08185712842533 179.8528509057287,103.9491495272996 179.98120129276504,103.80196384122974 179.85078073819022,103.74405446163837 179.57337828881282,103.47863461345878 179.31253717968502,103.18425630400634 179.12001159914507,102.96467659635528 178.9502578614629,102.87057036804799 178.76187261598534,102.68476976529018 178.46169832373562,102.3710770424168 178.18429587434366,102.04290163155747 177.9275951003001,101.75574431985115 177.63156114311278,101.42756016083513 177.38521120672522,101.18624530233501 177.21338730149728,101.04145517624784 176.95668652743916,100.8194418855037 176.71033659104432,100.56605454198143 176.5674950312823,100.40919431620023 176.48261816245213,100.32955717816367 176.25489973384538,100.0978839414056 176.03960231044766,99.84690197717828 175.95679560913413,99.75760965854533 175.73528768312826,99.56937066578394 175.5013587519352,99.32562302200495 175.27985082592932,99.0987664661443 175.0231500518712,98.83087978913318 174.77887028301484,98.5774706106622 174.5345905141512,98.32647210956202 174.29445108034997,98.07788436444207 174.05638181408722,97.83412096505344 173.81624238030054,97.60966328020368 173.56989244389115,97.36589493387692 173.39599837115384,97.19211790656664 173.2200341308635,97.02558036043774 172.92400017368345,96.716637960777 172.55965068792284,96.3376951490518 172.25533606061072,96.02391613515101 172.00484578915348,95.78254475848007 171.87649540212442,95.71978778683115 171.53905809429125,95.53392959997473 171.2016207864508,95.35531122997418 170.8289906305654,95.15979494200656 170.4687814798599,94.9594493721288 170.1354845070964,94.79289570618494 169.79390686419356,94.62634083749981 169.41920654076966,94.43323223765947 169.05485705500905,94.24977757013403 168.7526125952354,94.08804658711233 168.39447361207567,93.93114231070649 168.04668546656467,93.76216728071267 167.7092481587315,93.57870727484624 167.36146001322777,93.4024877370739 167.03644371059636,93.23350883335843 166.8356374599316,93.13212089675653 166.57272618326533,93.00176432324042 166.24978004816512,92.83519651800452 165.88543056239723,92.65414319105184 165.51073023897334,92.45860400115089 165.16915259607777,92.27271953007585 164.81929428304284,92.08441944703918 164.4508044622271,91.90818848901836 164.11543732191785,91.73919863399169 163.7759298465462,91.57262170751892 163.43228203611216,91.372244969456 163.04930104255618,91.1839375318632 162.70979356719909,91.02218504332268 162.43860162040073,90.87974534501518 162.10323448010604,90.70350517811858 161.7554463346023,90.52243511024426 161.4987455605442,90.39689236160666 161.44285103716538,90.3703351540862 161.15095741504774,90.23272004327555 160.7638360864148,90.03474598663888 160.3808550928734,89.84159892690695 160.0123652720431,89.63637840257616 159.66043679148424,89.45771434067501 159.2733154628586,89.26456244559085 158.90275547450437,89.06658007326769 158.54461649133737,88.89274049047162 158.205109015973,88.72614299322231 157.85318053541414,88.5353994524412 157.5116028925113,88.3687993720905 157.321147479488,88.34706883803847 157.1927970924662,88.53057048155279 157.12241139635444,88.70441279609622 157.06030637036747,88.8372081251855 156.97335933399881,88.9796604457606 156.91953497814393,89.09555320958862 156.8781316274908,89.19937331566689 156.85535978463304,89.26214803665971 156.90504380541097,89.10762533897287 156.91332447555033,89.09555320958862 156.9298858158145,89.11245418895669 157.02718368984642,88.87825379938113 157.143113071681,88.64646550361795 157.0396046950409,88.57161670185997 156.84086861190008,88.51849804990707 156.49101029887242,88.45572130340406 156.14736248843838,88.35914135948588 156.04178394427436,88.30843672690207 155.66915378838166,88.2770480889285 155.22406776883872,88.26256101082618 154.78726241942786,88.24083037660057 154.35666757261788,88.17563835097644 154.03993194011127,88.0259374460311 153.78116099852923,87.90279565009769 153.4789165387483,87.75792210655709 153.10007588025474,87.57441431060215 152.694323043841,87.39573426299285 152.28028953729518,87.27258909937882 151.86832619828783,87.14944327766352 151.5205380527841,87.04802857739196 151.3011002943167,86.94661343076586 151.0423293527274,86.7969045413829 150.68626053709158,86.59165690245754 150.3198408837925,86.40331040160345 149.94928089543828,86.2680863232763 149.5704402369447,86.12561723936051 149.25370460444537,85.96865875411095 148.93696897193877,85.81169919956665 148.57675982124783,85.66681250780675 148.21241033547994,85.57746526035407 147.88118353024038,85.44223633484762 147.5872197405988,85.36254748918691 147.48578153148992,85.19350963135548 147.398834495114,85.02930023892077 147.33258913407917,84.73710121962722 147.36157147952326,84.36279127581838 147.4919920340908,83.99813509442356 147.58928990813,83.6165681411876 147.63483359384554,83.25190014568216 147.56237773020257,83.04662091958926 147.23322109250148,82.84617002734558 146.910274957394,82.65296269687678 146.9558186431168,82.36314866200883 146.7467317223127,82.18201303813657 146.39273307421536,81.9912153069181 146.0718571066318,81.8100767575288 145.7965248247856,81.64101282591037 145.80894582998735,81.32220317762585 145.81722650011216,80.88987092133902 145.81722650011216,80.55172830375159 145.82136683517456,80.29087203418203 145.82550717024424,80.05175119076557 145.82550717024424,79.87784356291377 145.82136683517456,79.63388759327427 145.82550717024424,79.24741739941055 145.84206851050112,78.70393271202738 145.85241934817168,78.30295356135684 145.86277018583496,77.85365537136931 145.8648403533589,77.44058316827613 145.87105085596704,77.01542508863349 145.87519119102217,76.63857386102063 145.89796303389448,76.31727915899137 145.7861739871223,76.31244762547612 145.54396438578988,76.23514295131099 145.12786071171286,76.1989062959019 144.7966339064733,76.18199583718524 144.36810922720178,76.14817488247172 143.94372488299268,76.11193809011638 143.58558589982567,76.08778019684723 143.16120155561657,76.05154330939149 142.81548357765132,76.01047476795975 142.4594147620228,75.9983957712393 142.21513499316643,75.98390096680669 141.83008383207198,75.95491133053838 141.45331334111688,75.92350585004169 141.09517435796442,75.88002126782703 140.74945637998462,75.86069476046941 140.36854555395985,75.83653660344135 140.02282757600187,75.80271514098968 139.9710733876782,75.43792335077524 139.98349439287995,75.09003705094074 139.99591539807443,74.70349054877988 139.99591539807443,74.40874447712122 140.0062662357377,74.01252249668869 140.01454690587707,73.63078998837045 140.02282757600187,73.31911761052106 140.0207574084634,73.17898446766412 140.01454690587707,72.97844762317436 140.02282757600187,72.88421886360993 140.026967911057,72.64985335182246 140.0041960682138,72.42515015500976 140.026967911057,72.2173581485622 140.04559941885236,72.08205071661723 140.03524858119636,71.78485481298958 140.03938891625876,71.43449698649601 140.03731874873483,71.03097480745419 140.04973975392932,70.65402553758759 140.02903807859548,70.31089967652042 140.0663010941862,70.00884802650762 140.02282757600187,69.64879727627522 140.03524858119636,69.3056564152248 140.02282757600187,69.03983955224612 140.0062662357377,68.77885273333777 140.0041960682138,68.62419247973594 140.0083364032762,68.95526081502976 139.97728389027907,69.11233536509826 139.87377551365353,69.29840690517449 139.5466890434691,69.38298438016864 139.169918552514,69.34915342750719 139.00637531741813,69.23316121189964 138.83662157974322,69.08333706738449 138.51781577969814,69.04950567384185 138.50539477450366,69.05675526236337 138.7890077264965,69.07850401421638 139.15128704471863,69.15099970515439 139.50114535775356,69.20899609333355 139.82823182791617,69.25007677978647 139.969003220147,69.414398791645 139.96693305262306,69.75028866237517 139.89861752403522,69.99434944751374 139.5673907188102,69.97985085937762 139.3272512850017,69.96293582833641 138.9525509615778,69.95327009072207 138.54886829269526,69.938771476689 138.18658897446585,69.92427285351732 137.81395881858043,69.90735778159433 137.38957447435678,69.89527557974361 137.01280398340168,69.8880262555831 136.61326164958882,69.87836048648387 136.199228143043,69.87111115699554 135.79761564169894,69.84453026264782 135.70652827025333,69.59805141524157 135.69824760012125,69.19208049522967 135.68789676245797,68.81268452512995 135.68375642739556,68.6894399010962 135.6609845845378,68.41153293228126 135.6423530767497,68.1432891067816 135.6175110663462,67.785625804132 135.58645855335635,67.44970722966173 135.55333587284258,67.11378374649576 135.54298503516475,66.95427879107228 135.51193252218218,66.60143056343622 135.47673967412265,66.23890961994766 135.4498274961952,65.89330099673134 135.42084515073657,65.5597716635566 135.40014347541,65.32774840317506 135.37116112995864,65.0425499364228 135.33182794682943,64.65583449786754 135.30698593644047,64.26911255160303 135.28007375851303,63.91864016620093 135.23245990525902,63.52465448190742 135.17863554940413,63.164502148680185 135.12481119355652,62.830933207138514 135.0854780104346,62.57471029673252 135.01509231432283,62.16619804872062 134.9633381260137,61.837449189575636 134.9074436026276,61.503860979548335 134.8660402519672,61.228284456597976 134.8246369013068,60.91886126279496 134.7977247233939,60.60943390084503 134.78116338312248,60.321759411206585 134.7563213727335,59.98089673866343 134.73354952986847,59.6424465267919 134.71491802208038,59.330584416387865 134.64867266103101,58.960695958157885 134.57621679738077,58.62464833769263 134.49755043113691,58.30551942627062 134.41681389736186,57.98880377327259 134.3298668609932,57.679336930943464 134.232568986954,57.3601948812975 134.12077994018182,57.03863060232834 134.05039424407732,56.81861034282883 133.92618419211067,56.441427849551474 133.85993883106858,56.218983987086176 133.75436028689,55.83211996202772 133.68190442324703,55.570983059538776 133.58046621413814,55.27357352461513 133.45625616217876,54.94230796168995 133.3216952725561,54.60136541929933 133.25130957644433,54.451445818907814 133.1146785192759,54.1250045918423 133.0194508127679,53.82999445200767 132.93664411146165,53.600270815388285 132.76275003870978,53.23029001935174 132.63025931661832,52.90383142233259 132.49776859453414,52.55802206549561 132.36320770488965,52.229135604524345 132.26176949578803,51.97037603148419 132.15412078408553,51.697103407754184 132.04647207239032,51.40931721470406 131.96159520354558,51.18682457456998 131.81047297365876,51.25453995431417 131.47303566581832,51.38513333659466 131.12110718525946,51.503634095784946 130.80437155275285,51.64148114764612 130.47521491505177,51.71645024922509 130.31374184750166,51.49637896485001 130.23300531371206,51.10701690614951 130.15640911500668,50.77085428574719 130.09016375395004,50.410501834205206 130.00321671758138,50.04530666223582 129.91419951367425,49.65833854679295 129.80034029938543,49.31973609087254 129.69476175519958,49.01982688442513 129.62644622662629,48.83117230996686 129.5063765097293,48.451439807744464 129.37802612269297,48.10556333151544 129.25381607074087,47.71856248967015 129.1296060187742,47.35332445534732 129.04679931746068,47.123535956034175 128.91637876290042,46.734099662582594 128.79216871093377,46.37126486638044 128.67209899404406,46.00600537267201 128.5540994446783,45.66009201099405 128.44645073296851,45.35287786672416 128.32638101607154,45.02872619627851 128.20424113163608,44.66586441213076 128.09038191733998,44.3296073651436 127.99929454590165,44.041728708329174 127.88750549913675,43.72965448408104 127.77364628483338,43.37886830757634 127.69912025365193,43.175651790985285 127.58112070429343,42.83453430208465 127.47761232764606,42.53454025820247 127.35961277828028,42.20551001766944 127.24575356399146,41.88373322861116 127.10705233929184,41.48453018103828 126.98077211980126,41.102256502590535 126.88761458083172,40.82159581836822 126.75512385872571,40.4393110807614 126.6516154820929,40.1344465290731 126.52533526260231,39.769087635633696 126.42389705349342,39.473892751382664 126.34316051971109,39.202890820610264 126.25828365087364,38.95124330030194 126.11544209111162,38.573766837009316 126.0098635469476,38.26887746064676 125.90428500278358,37.95672460947753 125.79042578847293,37.617949260111345 125.67449640664563,37.28642853205383 125.55442668974138,36.933123788565354 125.45919898323336,36.599173199045254 125.39502378972247,36.31361738383748 125.30807675335382,35.979657761197814 125.22734021957149,35.63359301448145 125.13418268060195,35.30930382030965 125.0513759792957,34.960808820833336 125.04723564422602,34.78897947309633 124.82572771822015,34.87368424227316 124.61043029482244,34.94628808075686 124.2564316467251,35.035832497855154 123.87138048563793,35.14957760387733 123.53808351286716,35.25848196319566 123.17373402711382,35.369805884090965 122.85492822706874,35.50774999184068 122.51128041663469,35.62875291101227 122.15107126593648,35.78121567888593 121.83847596849955,35.87801690946253 121.57556469184055,35.97481773087202 121.4099512892135,36.04741807842947 121.2339870489377,36.110338193486314 120.92967242162558,36.19503807540423 120.57981410859065,36.2773176607443 120.28585031894909,36.32813725696542 120.22581546049332,35.95545759932429 120.18648227737867,35.64327321835117 120.14507892672555,35.38190627766926 120.1057457436109,35.13263687921244 120.04157055008545,34.752677333251995 119.98774619423057,34.44773708635512 119.88630798512895,34.11617046351603" stroke="red" stroke-dasharray="none" stroke-linecap="round" stroke-linejoin="round" stroke-width="0.5"><title>2024-05-01 58.8km</title><desc>1714551575000</desc></polyline><polyline fill="none" opacity="1" points="18.839514054539904,114.10569036196466 18.88471785425645,114.39004543538977 18.940684463450452,114.72220812375417 18.94929471101932,114.92854927884764 18.98804082506831,115.2732860002925 18.998803634531214,115.43432918187864 19.00741388210008,115.56014340975707 19.22697519506619,115.50730151501011 19.590758154765354,115.43684547295743 19.90933731475525,115.36638922245947 20.2494420936564,115.28083492376027 20.354917626355018,115.22295978270995 20.61107249147608,115.1248233525057 20.916736280109035,115.01410484317785 21.235315440091654,114.85809152447109 21.566809971423936,114.67439711316183 21.866016074374784,114.50076684633132 22.169527301128255,114.50328323605572 22.50963208003668,114.40514383992922 22.755024135702115,114.34475016434408 23.092976352701953,114.25415936376339 23.396487579440873,114.166084643879 23.695693682398996,114.0780095982227 23.97337416643859,114.0 24.057324080218677,114.24912653139472 24.147731679673598,114.61652049822624 24.233834155347722,114.9662944186457 24.31778406912781,115.29844906920698 24.39097117345227,115.61550145945512 24.43617497318337,115.81428612271338 24.500751829931687,116.01055289657234 24.616990172085934,116.33514439626015 24.70524520964682,116.60940818438212 24.806415618564643,116.89624950147481 24.896823218019563,117.17302293632201 25.000146188831422,117.45734138884472 25.114231969084358,117.78946130141776 25.211097254221386,118.12912460433836 25.273521549075667,118.30021243393276 25.35962402474979,118.4939427575664 25.450031624211988,118.74805417021525 25.542591785546392,119.03235382526691 25.628694261220517,119.2990389134502 25.693271117983386,119.51037214628741 25.77937359365751,119.6940292667532 25.863323507430323,119.93051717240996 25.884849126348854,120.03366541737341 25.981714411478606,120.31543395699009 26.082884820389154,120.64248254804261 26.19266547686857,120.97455806313155 26.30459869524202,121.3066289507151 26.371328113884374,121.49027222719633 26.478956208484306,121.78208602951054 26.58873686496372,122.10911449303421 26.661923969280906,122.3807962656083 26.74802644495503,122.52669816160233 26.819060987385456,122.73297173196806 26.9094685868331,123.029801298042 26.999876186295296,123.30147257629324 27.088131223848904,123.5932642040807 27.167776013848197,123.8297134204513 27.193606756547524,123.93536018458508 27.305539974920976,124.22211332707957 27.4217783170825,124.53401633760404 27.538016659236746,124.8987364563327 27.65856012518634,125.27854251144709 27.772645905446552,125.62061430954236 27.884579123812728,125.94759011710084 28.009427713535842,126.30725832651297 28.123513493810606,126.65183047361643 28.24620952163241,127.01148806074343 28.37536323513632,127.36108009685813 28.502364386760746,127.71821199293481 28.61645016701368,128.07533854097346 28.726230823500373,128.35952697299217 28.771434623224195,128.50036246315904 28.844621727548656,128.4299448220263 28.88767296538572,128.4802431583339 29.10077659266244,128.46515366857602 29.44949161914701,128.32934783118435 29.800359207496513,128.21114582475275 30.009157711006992,128.28910891604028 30.14046398640494,128.57580970508388 30.30621125207108,128.86753679500907 30.46550083206239,129.15423063118578 30.62909553584177,129.44595064668647 30.788385115825804,129.53899852184622 30.84219916312577,129.76030011806142 30.915386267442955,130.12745505579187 31.018709238254814,130.50969254863958 31.119879647165362,130.8391160005176 31.162930885002424,130.97239289851495 31.281321789050708,131.21128358819806 31.395407569318195,131.48286167739752 31.498730540115503,131.74689296710312 31.638647063082317,132.10144467431383 31.767800776593504,132.4409041379422 31.884039118755027,132.72504056870275 32.03256588928343,133.07957774205715 32.15741447900655,133.35867776873783 32.07561712712777,133.42405207792217 31.959378784951696,133.4693111101369 32.00243002280331,133.44416721394373 31.989514651453646,133.43410964805662 32.129431174413185,133.41148010929282 32.26289001169789,133.63274578960772 32.38128091575345,133.94955444213883 32.52980768628913,134.31161632398835 32.684792142485094,134.68372975682905 32.822556103572424,135.05080894534876 32.92803163626377,135.3625703980324 33.029202045174316,135.7220966951263 33.13683013977425,136.10173047363241 33.21001724409143,136.2827457787207 33.31979790056357,136.63220199883654 33.42096830948867,136.96405496881562 33.52213871839922,137.31098723261857 33.61900400352897,137.6528865602977 33.70510647919582,137.97969751738674 33.810582011901715,138.3140456365618 33.89237936378049,138.66095828487414 33.95480365864205,138.97770021426913 34.010770267828775,139.2868966166734 34.03444844864134,139.52570410605767 34.05382150566584,139.8348934131791 34.0818048102592,140.24713959590372 34.1076355529658,140.51610125730258 34.12485604810354,140.66189229385054 34.16575472403929,141.0213388062366 34.20234827620152,141.40340189573544 34.26046744728956,141.77540482136828 34.31428149457497,142.1323211015242 34.37455322754249,142.50179923864926 34.40684165592393,142.72298069516364 34.43913008429081,142.8838386500338 34.48863900780998,143.1829310306839 34.54030049320863,143.51971964952645 34.56828379779472,143.73335176031287 34.59411454050132,143.98970777183058 34.61133503563178,144.18825612592627 34.617792721321166,144.28878630894906 34.665149082939024,144.61801969749285 34.69097982563835,144.95730126775925 34.703895196988015,145.30914373397536 34.703895196988015,145.45239239699185 34.73403106346814,145.5705090696938 34.764166929955536,145.84946314941044 34.78999767265486,146.1485184111043 34.811523291573394,146.4174136445581 34.83735403427272,146.691331846474 34.856727091297216,147.01048028716468 34.88255783400382,147.2944434272813 34.90623601480911,147.5683515783112 34.936371881303785,147.87994969522515 34.94928725264617,148.02820866345064 34.977270557239535,148.36492900601843 35.003101299953414,148.6438504742473 35.02247435697063,148.87000062703737 35.028932042645465,148.99563867640427 35.03538972831302,149.27455278608977 35.03323716642626,149.5710525057293 35.03969485210109,149.88262452009258 35.05906790912559,150.16655354566865 35.07844096615008,150.38766407991352 35.08920377560571,150.8399292588365 35.08920377560571,151.21932289450524 35.09135633750702,151.62132282780476 35.08920377560571,151.98311699001533 35.08920377560571,152.42530242213797 35.09996658507589,152.75191141224786 35.08920377560571,153.1187131146653 35.06552559480042,153.33225946023776 35.11933964210766,153.46541092246844 35.134407575344085,153.764370939105 35.15378063236858,154.07840054622648 35.168848565605,154.35725538157385 35.18606906074274,154.65871641181548 35.1882216226295,155.03302523752973 35.17745881317387,155.33698984065995 35.14947550857323,155.6886796036615 35.12579732777522,155.94741948565752 35.09996658507589,156.08306840286969 35.17745881317387,156.125772532454 35.500343096937286,156.14838057020643 35.85121068530134,156.18857258456956 36.20207827366539,156.2237405417527 36.600302223647304,156.26895641075316 36.93610187876766,156.3041242497875 37.28696946713171,156.33678005403453 37.590480693863356,156.35185194865153 37.89399192060955,156.36943581370906 38.20611339491006,156.39204362122837 38.520387431111885,156.41465140738 38.82605121975212,156.43223522628796 39.15754575107712,156.45735494516703 39.47612491105974,156.47996266961673 39.61819399592787,156.49252250729296 39.93892571780452,156.51764216288575 40.26181000157521,156.55029767572887 40.61698271372006,156.58295314400857 40.91188369288284,156.60556074978194 41.23046285286546,156.63068028670568 41.516753584481194,156.66082369618925 41.719094402309565,156.64826394685952 42.08933504768356,156.6758953867029 42.44235519794893,156.7211104012713 42.78461253873684,156.74874175699188 43.15270062223135,156.78642082702027 43.49495796303381,156.80902824055556 43.85874092274025,156.84419528582293 44.25050718704006,156.86931457223363 44.53679791865579,156.88689805702597 44.769274602971564,156.90196960514004 44.96731029701186,156.91704114375898 45.208397228889226,156.9270888308929 45.53128151266719,156.95220803028315 45.64536729292013,157.200886681494 45.64536729292013,157.514871186042 45.6346044834645,157.8439225257589 45.62599423589563,158.20562259512008 45.62168911211484,158.50452338822834 45.615231426440005,158.86621347395885 45.60877374076517,159.2002696004729 45.60446861698438,159.5619491725338 45.60662117886386,159.8809259264399 45.602316055083065,160.1923636952488 45.598010931309545,160.45858954338837 45.602316055083065,160.64695510022284 45.593705807521474,161.01865878423087 45.585095559952606,161.50588325117133 45.5743327504897,161.9930978029206 45.56572250292811,162.450166358738 45.55495969347248,162.86955675329227 45.55065456968441,163.22866963656452 45.51406101752218,163.56768734666548 45.4258059799613,163.93432332011253 45.294499704556074,164.26328643648776 45.1222947532151,164.56211161026658 45.00390384918137,164.76048928827913 45.07924351537804,164.66255620956144 45.16104086727137,164.73286717841438 45.32463557104347,164.84586651736026 45.57218018860294,165.03168649331565 45.83694530129287,165.214993975962 45.98331950993452,165.3104137541868 46.20288082289335,165.52385135566874 46.46334081180248,165.72222106824847 46.71734311503678,165.92058913801702 46.97349798014329,166.0411157705239 47.205974664473615,166.03358287375704 47.27700920688949,166.09133502174882 47.4169257298563,166.29221097381924 47.459976967693365,166.4102248101426 47.75272538497666,166.45542144455067 48.084219916316215,166.58598902051745 48.41356188576174,166.67135974309713 48.710615426825825,166.7743063862763 48.97968566329655,166.90989397299018 49.216467471393116,167.01283959112516 49.45109671760292,167.13336072829952 49.69003108758625,167.24383790474712 49.980626942975505,167.34427125942057 50.301358664844884,167.46479072928196 50.527377663478546,167.57024476807783 50.7254133575334,167.67318754870576 51.00524640346703,167.83638861152394 51.23557052588876,167.97448095023174 51.485267705327715,168.10504024758484 51.83613529369177,168.2230451542364 52.17839263447968,168.32598513008816 52.484056423127186,168.42390323328618 52.802635583109804,168.50926740701289 53.07816350525536,168.63982379034496 53.29772481821419,168.7452726575757 53.49145538846642,168.8331463591112 53.683033396839164,168.92353040162925 53.94349338575557,169.05157387827785 54.262072545730916,169.20472302037342 54.62800806733867,169.34782871115203 54.99179102704511,169.39301980437267 55.31682787270984,169.42063654160847 55.56437249026203,169.43067898362278 55.87434140268306,169.4331895934738 56.16924238185311,169.4758699205995 56.315616590494756,169.5009759598779 56.62989062669658,169.56876213453143 56.920486482085835,169.62148458225238 57.301489936922735,169.71688681185333 57.432796212335234,169.77463008209997 57.73415487717284,169.90266901112955 58.04842891338194,170.05079162457514 58.33256708308909,170.17380801441686 58.5327553390307,170.2566554313289 58.71357053794054,170.32694998472653 59.017081764686736,170.44494395013135 59.34427117223822,170.58302125708906 59.68652851303341,170.71356634297808 59.998649987341196,170.8516421023487 60.28494071894238,170.9018512721741 60.66163905000576,171.0926451582509 61.038337381061865,171.28092710951205 61.37413703617494,171.45163480026167 61.660427767797955,171.58468553967577 61.90581982345611,171.7227562808257 62.161974688577175,171.86333658195326 62.433197486941935,171.99136435313994 62.70442028531397,172.12692242436788 62.94120209341054,172.2449075290515 63.21242489176802,172.38799506830037 63.49871562336921,172.55367430988554 63.776396107416076,172.68671893249302 64.05838171523646,172.83482434199504 64.38772368468199,173.00301073140508 64.67831954007124,173.16115506597998 64.96030514789891,173.2967065224493 65.2379856319385,173.44229797386652 65.54795454435225,173.6054597567163 65.83855039974878,173.74602901767503 66.1420616264877,173.89412788318805 66.44772541512793,174.04975621371887 66.74047383240395,174.20036331370466 66.98586588806938,174.3308887017938 67.22264769615867,174.44384279104452 67.50893842777441,174.58691720689967 67.80168684505043,174.7375209328584 68.09443526233372,174.8956538270777 68.425929793666,175.06131574058963 68.73805126797379,175.2169364955862 69.04802018039481,175.39012614840976 69.34722628335294,175.56833448543875 69.65289007197862,175.7139121441487 69.99729997466784,175.88960814153324 70.34386243924382,176.0627929363527 70.66244159924099,176.22844678719957 70.93581695948524,176.37653032160415 71.24148074811819,176.5271228086949 71.56867015566968,176.69277345233786 71.8872493156523,176.85089345398046 72.17354004727531,176.98893387296994 72.50933970238839,177.19222831614388 72.75903688182734,177.37544281957162 72.7762573769578,177.433167647152 73.01519174695568,177.57120471502094 73.30578760234494,177.83221809032148 73.53611172476667,178.0731509927664 73.75782559961226,178.29902339099863 73.96016641744063,178.4872487648663 74.19049053986964,178.72566545160407 74.47678127147083,179.0167815613222 74.74585150794155,179.29534625534325 75.02998967766325,179.5964936374221 75.29905991413398,179.86752304935726 75.55521477926231,180.1385493996404 75.81567476816417,180.38949699425393 76.07182963328523,180.642951400705 76.32152681273146,180.89640312993652 76.556156058934,181.13228649252778 76.786480181363,181.38071433544974 76.99312612297217,181.59400891622863 77.1674836361999,181.75711525762927 77.2062297502489,181.78722707634734 77.2363656167363,181.81482954365674 77.32462065430445,181.90265536477818 77.5118935388964,182.0983803241179 77.62597931915661,182.211297843769 77.81325220374129,182.4095295376701 77.99621996453789,182.60775959420607 78.22869664886093,182.85617216367245 78.45041052370652,183.07949035974525 78.59678473234817,183.20494910889647 78.80127811207058,183.39062685415047 79.05312785340357,183.65659517606764 79.30067247096304,183.91001508058253 79.55036965040199,184.1684504455534 79.80867707741709,184.44444630661746 79.90769492444815,184.56989792173226 79.99164483822096,184.64767759386086 80.19183309416258,184.83334417950937 80.40278415955981,185.03908115126615 80.6395659676491,185.2724148513007 80.85266959494038,185.5032373554459 80.93446694683371,185.6487547501274 80.99904380357475,185.70144186519974 81.10021421249985,185.88208252481127" stroke="red" stroke-dasharray="none" stroke-linecap="round" stroke-linejoin="round" stroke-width="0.5"><title>2024-05-01 52.5km</title><desc>1714541844000</desc></polyline><polyline fill="none" opacity="1" points="186.0,148.5054035169287 185.7444905366865,148.5054035169287 185.5694840549695,148.48903734960368 185.35480943738366,148.51222274718657 185.06896551723912,148.5135865928096 184.807622504537,148.50813120946532 184.5392792325656,148.52313350811164 184.29077002852137,148.53131657275208 184.01075965776545,148.53404425980807 183.74941664506332,148.50131197704104 183.54290899662738,148.48085425816134 183.26173191599082,148.46721576090022 182.9980554835347,148.55586573553956 182.79738138449466,148.59405322930525 182.60137412496988,148.60905542808814 182.42870106300688,148.46721576090022 182.30969665542943,148.1903511508408 182.25136116152134,148.07032917904962 182.15102411200496,147.820734459292 182.10085558724677,147.66933858887478 182.00751879699965,147.43337571815755 181.95735027223418,147.30379889622418 181.85817993259116,147.04873335072352 181.75667617319414,146.79775484471247 181.65283899403585,146.59178514117593 181.36232823437604,145.8742755960402 181.1779880736358,145.81971049984986 181.08815141301602,145.5905345755673 181.01698211045004,145.54960987493905 180.83964220897178,145.722856885719 180.6191340420046,145.70239476152165 180.45346123931085,145.6328232964861 180.31928960331425,145.60963272475965 180.03811252269224,145.61236102947714 179.8689395903566,145.64646478979012 179.62276380606636,145.7296775865716 179.45942442312662,145.7883354650403 179.33808659579518,145.8265311494979 179.07441016333905,145.92201986588861 178.80023334197904,146.02296431185823 178.67772880477423,146.07752854839146 178.49805548354198,146.1893845118475 178.3837179154798,146.24121987339913 178.18537723619374,146.37217143809994 177.9718693284958,146.43491859184178 177.80036297640618,146.4867529669491 177.5460202229733,146.5631400875409 177.3675136116217,146.62043013121456 177.15633912367048,146.6845401165865 176.96966554316896,146.77047427817342 176.79815919107932,146.95734500334402 176.5263157894733,147.0719213359198 176.3979777028726,147.11966117424072 176.150635208709,147.2246881968622 175.8717915478337,147.35290184500718 175.7201192636785,147.41564422988904 175.48444386829215,147.5356722901406 175.35377236193744,147.5861383002939 175.1740990407052,147.70207298161404 174.92908996629558,147.86983544128088 174.7564169043253,148.00077048000094 174.60124449053546,148.0676013939883 174.31890070002555,148.17262070254037 174.13456053927803,148.24081460115667 173.91171895255684,148.28582237687715 173.6153746435084,148.3431047735421 173.4660357791072,148.34719636357568 173.19069224785926,148.36083498765583 172.9386829141804,148.28718624641715 172.7765102411213,148.24081460115667 172.5746694322006,148.11806532422997 172.35882810474868,147.94348656400598 172.16048742545536,148.07851253076387 171.9539797770267,148.20535381884292 171.73930515944812,148.31173587352623 171.48962924552325,148.40038691599057 171.20845216489397,148.50267582381548 170.96110967073037,148.58996171751915 170.80360383717198,148.6458789330045 170.61693025667773,148.74543825367527 170.44892403422273,148.82181200661398 170.216748768471,148.85999871363856 169.98340679284593,148.89954911254335 169.77339901477535,148.9431907913995 169.67539538502024,148.96228397950472 169.40238527353358,149.06729600931612 169.22621208192868,149.17094340888707 168.96486906921928,149.3155028659985 168.7105263157937,149.43278576447938 168.57985480943898,149.5077917107501 168.32667876587948,149.6387101365426 168.0746694322006,149.7873554898506 167.9229971480454,149.89099710894243 167.7794918330328,149.94690868957332 167.51231527093478,150.00827477987332 167.20547057298245,150.10782359493624 166.98729582576925,150.17327993181698 166.73061965257511,150.23873593688677 166.47161005963426,150.32328278569912 166.21026704692486,150.4569202241628 165.94075706507283,150.59601078316246 165.81591910811403,150.6478284515306 165.5860772621163,150.75009955526093 165.373736064299,150.84691545385886 165.19056261342485,150.91236804452 165.01205600207322,151.00100123229367 164.93505315011862,151.03645433708698 164.85571687840275,151.0664530420463 164.63987555095082,151.1591758713921 164.39603318641457,151.2928046603456 164.17669172932074,151.3964341978981 163.92351568576123,151.532787585822 163.672673061963,151.67868411680683 163.52916774695768,151.73322445288068 163.29699248120596,151.8477584090424 163.0788177339855,151.96501831205842 162.8956442831186,152.05364427665427 162.74513870884402,152.0072861556382 162.63663469017047,151.77276605253337 162.50946331345767,151.53960521743284 162.41845994296455,151.3964341978981 162.28662172673648,151.20008279035756 162.14894996111252,150.99418331637025 162.0311122634157,150.82509784991908 161.92377495463006,150.7719172859015 161.725434275344,150.90964085986525 161.49792584910756,151.02554569982294 161.3497536945797,151.09508810451007 161.0650764843158,151.1700843957824 160.8364013481987,151.14144949960155 160.6765620948936,151.07599806992403 160.40355198340694,150.90964085986525 160.07920663728146,150.8087346227776 159.76302826030587,150.75828120857204 159.49585169821512,150.73373623308817 159.23217526575172,150.70782759724898 158.98833290121547,150.6505556914708 158.82382680840237,150.63828310718782 158.63365309826622,150.61101065591447 158.38047705470672,150.58919265342138 158.11213378273533,150.55919283981075 157.83912367124867,150.53601111792068 157.56611355976202,150.51282935441395 157.31877106559114,150.48828391240477 157.09009592948132,150.46782934175826 156.85092040446034,150.46237478410876 156.61757842882798,150.54419290686565 156.4717396940614,150.59601078316246 156.37723619393364,150.4473747387092 156.25473165672884,150.25237256284709 156.1287269898894,150.0532763940637 156.00972258231923,149.8582682664719 155.9128856624302,149.7164423237582 155.80554835363728,149.54052144165507 155.7052113041209,149.3755082029793 155.55353901996568,149.1423040790478 155.3960331864073,148.90091291724002 155.25486129116325,148.67861084918331 155.16035779102822,148.54086347494103 154.9363494944264,148.60360008509542 154.81851179672958,148.67588319266997 154.59683691988903,148.79317190221536 154.40899662950687,148.8709091806113 154.2339901477826,148.9431907913995 153.99598133264226,149.03729265939273 153.74863883847138,149.14094029985063 153.51413015297294,149.26640738284095 153.44529427016096,149.30595653667024 153.27728804769868,149.37959946580213 153.04861291158886,149.47097066430433 152.8526056520568,149.5432489154855 152.63326419497025,149.62098167742988 152.50025926886156,149.66052974511513 152.1630801140709,150.06282217085118 152.0114078299157,150.1310060855276 151.2005444646129,150.10100520742708 151.05820585948095,150.06964057852292 150.83536427275249,150.110550948928 150.55768732175056,150.1541885345032 150.30101114855643,150.18691662690344 150.05950220378145,150.21282630788937 149.83316048742563,150.23055395440042 149.59048483277002,150.24146326323444 149.37347679543745,150.24555425166636 149.09113300492754,150.25100890090198 148.7912885662372,150.2578272092005 148.74578688099427,150.26191819245014 148.45994296084973,150.25919087042985 148.13676432460488,150.27010015506767 147.85208711434097,150.27010015506767 147.53124189784285,150.27282747478785 147.2267306196518,150.25646354782748 146.9187192118261,150.2537362246503 146.65854290899733,150.25237256284709 146.37036556909152,150.25100890090198 146.09968887736613,150.25237256284709 145.81967850661022,150.24964523881135 145.54666839512356,150.2537362246503 145.29932590095268,150.24964523881135 145.02514907959267,150.25509988631347 144.76963961628644,150.2482815765743 144.48962924553052,150.24964523881135 144.26678765880206,150.24282692618908 144.06961368939665,150.2482815765743 143.76043557168305,150.25100890090198 143.47109152190387,150.2537362246503 143.19924812030513,150.25646354782748 142.93440497795382,150.2578272092005 142.70456313196337,150.2578272092005 142.5248898107384,150.2537362246503 142.2448794399752,150.25100890090198 141.98353642727307,150.2537362246503 141.68252527871664,150.2537362246503 141.45968369198818,150.25509988631347 141.2905107596598,150.26328185324837 140.95916515426507,150.25509988631347 140.67682136374788,150.26873649499248 140.44581280788407,150.26737283477087 140.19030334457057,150.26737283477087 139.87879180710297,150.26600917440646 139.60111485610832,150.27010015506767 139.34560539278755,150.26464551389927 139.09592947886995,150.26600917440646 138.84508685506444,150.26737283477087 138.59307752139284,150.27146381499824 138.37256935441837,150.27282747478785 138.101892662693,150.27010015506767 137.79504796474066,150.27010015506767 137.57803992740082,150.28100943048867 137.3248638838486,150.27555479393232 137.00635208711174,150.27555479393232 136.72167487684783,150.25509988631347 136.59100337049313,150.28510040639867 136.25849105522502,150.2837367479042 136.0578169561777,150.28510040639867 135.8559761472643,150.2837367479042 135.52463054187683,150.28510040639867 135.2516204303829,150.27828211249835 134.98211044853815,150.28100943048867 134.71493388644012,150.2837367479042 134.453590873738,150.29464601180644 134.18408089188597,150.29600966914677 133.92740471869183,150.29600966914677 133.68939590355149,150.29600966914677 133.49105522426544,150.30691892267896 133.2157116930248,150.30282795368475 132.95903551983065,150.30010064030103 132.76419497017923,150.30282795368475 132.47485092040733,150.30419161015925 132.20884106818994,150.30691892267896 132.0105003889039,150.31100989037714 131.97433238267695,150.24009960013336 131.93816437645728,150.08873210084403 131.69432201192103,150.09418681631996 131.422478610315,150.08327738305707 131.252138968106,150.06145848888718 131.03979777028871,150.0710042596238 130.74228675136692,150.05873112452173 130.47161005963426,150.04918534471017 130.20560020741686,150.03145744919402 129.92908996629558,150.0164569032113 129.66774695358617,150.00691109214586 129.38540316307626,150.0137295293398 129.10655950220098,150.0232753353621 128.84288306973758,150.03145744919402 128.59320715581998,150.0410032421114 128.32603059372195,150.04373061022034 128.07285455016245,150.0505490279702 127.83601244490274,150.0573674421239 127.61900440757017,150.06145848888718 127.50350012963463,150.06691321588733 127.22698988852062,150.07509530206517 126.95514648690732,150.08327738305707 126.79880736322957,150.09964152949578 126.80347420274484,150.39010167780452 126.78830697432568,150.6682827370696 126.77897329530242,150.94373062665545 126.73813844956749,151.1959921042926 126.71013741249772,151.33371115607497 126.59696655431617,151.59823670073638 126.4697951775961,151.86548381150897 126.3449572206373,152.13272539325772 126.22945294270176,152.3822367774119 126.13611615244736,152.6671919718201 126.11161524501222,152.93714372693012 126.15128338086652,153.26435041385776 126.2119522945286,153.59563874253035 126.25862068965944,153.86420782043842 126.307622504537,154.12868155926026 126.08828104744316,154.21865592724407 125.82227119522577,154.2527369636664 125.56326160228491,154.28954438205346 125.30658542909077,154.32498846364342 125.1794140523707,154.35906921966034 125.0195747990656,154.36997504260307 124.78039927404461,154.40405567999096 124.55405755768152,154.45176842134788 124.31954887218308,154.4613109484817 124.21571169302479,154.4558580766943 124.26004666839435,154.46403738351182 124.49338864401943,154.46676381796806 124.74773139745957,154.41632468744683 124.99974073113117,154.38088085634263 125.21324863883638,154.3522530756445 125.39642208970326,154.3290781591122 125.64609800362814,154.29227085331968 125.91327456572617,154.25137372393692 126.08828104744316,154.22819862650522 126.09528130671242,154.12322854712693 126.03694581280433,153.8819304566723 125.98561057817278,153.67880032264384 125.95060928182647,153.52201984795556 125.90277417682228,153.34478745551678 125.8339382940103,153.05712047427733 125.77093596059422,152.78989801428725 125.71610059632076,152.53630424193125 125.66826549131656,152.32497229567343 125.61809696655837,152.11227342675193 125.51542649727344,151.88184569989335 125.39758879959118,151.66504899680604 125.26575058335584,151.41279668045263 125.30075187970215,151.1687208307394 125.35325382421433,150.95463933302563 125.41392273787642,150.7487359458737 125.4827586206884,150.49510209542314 125.54692766399239,150.27691845328718 125.61343012703583,150.04918534471017 125.64376458387414,149.86781418742794 125.4454239045881,149.7791732213309 125.20858179932839,149.71916976042485 124.95423904588824,149.65507484642967 124.68822919367085,149.5868884184083 124.43855327975325,149.52552032529002 124.18537723619374,149.46278819527924 123.95903551983065,149.39869200848625 123.76419497018651,149.35505186943374 123.48768472906522,149.27868127113015 123.22984184599045,149.20776531104548 123.03266787659231,149.1573056406978 122.77949183303281,149.09184415284108 122.50064817215025,149.01956337438787 122.25563909774792,148.95819258443134 121.97679543686536,148.88591105764226 121.73995333160565,148.8354501292315 121.51594503500382,148.77544228193437 121.27910292973684,148.65406191982765 121.09942960850458,148.49040119767596 120.92558983665367,148.3158274735024 120.7249157376209,148.11942921149603 120.546409126262,147.94757828072215 120.36440238526848,147.78800036752637 120.11355976147024,147.67479432676373 119.83704952034896,147.65160742480566 119.61070780399314,147.70616477487056 119.46603577909991,147.7825446774923 119.23619393310219,147.9721285537862 119.011018926627,148.1589818795792 118.79984443868307,148.28582237687715 118.56416904329672,148.37447359732505 118.32032667876774,148.41948090698406 118.09748509203928,148.43311945469122 117.93531241898017,148.43993872313422 117.72063780140161,148.4535772492236 117.4697951775961,148.47130731159177 117.22478610318649,148.49449274101698 116.9856105781655,148.50813120946532 116.72660098522465,148.52586119689659 116.47225823178451,148.54495500228313 116.27041742286383,148.55177421165172 116.02307492869295,148.57768717438466 115.75706507647556,148.60087241273231 115.52372310085048,148.62542144324198 115.27871402644814,148.6458789330045 115.0325382421579,148.6554257504631 114.78052890847903,148.70043208052903 114.54135338345804,148.80408242567137 114.340679284418,148.95955638293253 114.17617319159763,149.1586694181642 114.09683691988903,149.30595653667024 114.03266787658504,149.50233674753508 114.00116670988064,149.77508208512882 114.01750064817315,150.0682768972756 114.0396681358543,150.3478285413412 114.06300233342336,150.6437375905307 114.07816956183524,150.90555008180218 114.10500388903165,151.17417509005736 114.12600466683944,151.4550663311138 114.14817215452058,151.75640402597855 114.15633912367048,152.07000592670738 114.15517241378984,152.2908861741189 114.14233860513195,152.61129216607878 114.11783769768954,152.91669303385697 114.09683691988903,153.20436314156723 114.08050298158196,153.47021370775656 114.06066891366208,153.74560186003055 114.03850142597366,154.01553108605458" stroke="red" stroke-dasharray="none" stroke-linecap="round" stroke-linejoin="round" stroke-width="0.5"><title>2024-04-21 79.4km</title><desc>1713660889000</desc></polyline><polyline fill="none" opacity="1" points="19.81481983044796,194.17614446142943 19.979935345909325,194.8710572981381 20.091388318840472,195.52493165892338 20.169818188682257,196.1739618600095 20.157434525019198,196.48278759704408 20.74565854883258,196.37662922104755 21.344202292362752,196.42488308949942 21.48248653655901,196.70957883780466 21.472166816849494,197.27654708575574 21.224493543661083,197.52021847593824 21.313243133219657,197.34892499784655 21.48248653655901,196.9001782450232 21.19766227240325,196.30907363390543 21.315307077165926,196.1908508754659 21.697136706665333,196.07262750493646 22.256465515267337,195.82652791313558 22.95820645596541,195.54423393851903 23.5732617510439,195.3656872296233 24.293578187229286,195.16542371912146 24.89831376258371,194.9820483616295 25.1005802690197,195.58283844874495 25.255376064764278,196.21497801873738 25.428747355996165,196.90259088555285 25.635141750317416,197.50574302044697 25.872495303789037,198.1981420314478 26.122232520923717,198.96048042689836 26.37609762593638,199.6600723885731 26.617579067293264,200.36687975006316 26.797142190349405,200.90481062952676 27.09847800606076,201.7707803716421 27.30280845643574,202.34003508093338 27.509202850756992,203.0178156258462 27.72385302085604,203.62563019193112 27.924055583338486,204.17071998230313 28.124258145828207,204.7929747370763 28.36573958719964,205.4851529533389 28.586581589115667,206.1363119330108 28.821871198648296,206.82121469754566 29.005562209589698,207.33246676724775 29.2552994267171,208.08003176178136 29.47201354076242,208.7045915180861 29.715558926058293,208.890268156214 30.355381548455625,208.6660091703452 30.809449215965287,208.8685657698261 31.170639406023838,209.51962840276065 31.486422829337243,209.88132185697577 31.678369616056443,210.7300733698521 31.83316541180102,211.27258269565755 32.122117563849315,211.93322112310125 32.423453379567945,212.70474550134895 32.74336469075206,213.45454582730963 32.894032598611375,213.8716266916217 33.1602813672871,214.50808226050867 33.37699548132514,215.05773418879653 33.5730701559296,215.6604075336545 33.74437750321522,216.2630650090905 33.97966711274057,216.9910540782621 34.221148554097454,217.75999752186 34.42754294842598,218.55783943512506 34.56789113656123,219.10739412857765 34.5988502957116,219.74129390580492 34.638065230625216,220.3799964650916 34.67728016556066,220.8547939939308 34.80937257791811,221.73205896322725 34.91463371901773,222.41167520864838 35.02195880407089,223.06476260119962 35.110708393629466,223.76361778611135 35.17056276797666,224.2600330017558 35.21596953472908,224.87451266729295 35.27375996513729,225.5178913625059 35.34187011526956,226.3130535537748 35.38727688202198,226.87687911650028 35.438875480598654,227.48646978141915 35.484282247351075,228.02376352517786 35.529689014103496,228.57309119274578 35.531752958049765,229.09590398300497 35.552392397483345,229.71748155507885 35.5874794445117,230.51972536968606 35.583351556633716,231.49298048187302 35.595735220274946,232.09281268601262 35.57509578085592,232.7600774664461 35.649397762805165,233.34542372530268 35.676229034070275,234.15235806756755 35.651461706751434,234.71839954593452 35.60811888394528,235.3157388099662 36.05805866356968,235.4072652262421 36.79282270734984,235.46747977465202 37.51726703142049,235.52528559244274 38.09310739157809,235.56863986019744 38.85470270661608,235.63848823036824 39.583274918579264,235.69388506239557 40.13434795141802,235.7420561119543 40.85260044365714,235.79986123791605 41.508934617595514,235.8552576802922 42.218931334071385,235.91065398891442 42.81541113365529,235.9564160560185 43.43459431661904,236.00217803185296 43.9856673494578,236.04793991640872 44.5904029248195,236.0985187352453 45.13115623795602,236.1370549033345 45.68842110261903,236.19726753639043 45.70699659810634,236.84996233862148 45.68842110261903,237.70494035574302 45.673973495009704,238.4563313557701 45.669845607124444,239.02708307845387 45.66158983135392,239.70859502427993 45.64095039192034,240.79463761649458 45.62237489643303,241.67595592362704 45.58109601756587,242.52834636435364 45.335486688323726,243.23864756030707 45.015575377132336,243.77316481958405 44.82775647829112,244.1198720652792 44.98874410586723,243.90318065011888 45.32723091254593,243.66963316882357 45.85147267413413,244.05968021060107 46.353011052335205,244.47861224716507 46.93091535643907,244.88068350943104 47.40355851942877,245.1094035417227 47.95669549620652,245.3621967170784 48.62541333381523,245.56683677368346 49.372561041265726,245.9375917618945 49.962849009010824,246.1663012702702 50.68110150124994,246.5081575530421 51.1351691687596,246.77537969631885 51.83071827763342,247.03056190467578 52.433389909048856,247.20870629459205 52.8337950340283,247.36999799664227 53.33326946829038,247.61072977406184 53.8595751738103,247.86108814689942 54.559252170562104,248.0825567411739 55.21971423239302,248.11144379174038 55.80587431226013,248.17643952273284 56.439505102840485,248.30161596811195 57.0834556131158,248.48215771707874 57.68406330059224,248.76139282846634 58.31150225932652,248.99970286907774 59.01324320002459,249.29578159803896 59.64274610270513,249.50038662078987 60.350678875234735,249.83737915779602 60.98430966579326,250.15751749090668 61.475528324284824,250.41988317580945 61.92134021601669,250.63651313527043 62.46209352914593,250.9133151121623 63.048253609013045,251.23103153310512 63.570431426640425,251.50541945340774 64.12976023526426,251.77739722973638 64.72830397878715,252.09028803611363 65.33303955415613,252.38632695503657 65.95015879318089,252.7016162455675 66.42280195617059,252.94710567613947 67.07500824223098,253.27442083931783 67.71689480857458,253.60173134270553 68.27828756112285,253.9073773850232 68.74473889229557,254.14804070096216 69.29581192512705,254.42961358301181 69.83450129431003,254.7159961398902 70.25348191478406,254.9277725434622 70.82519438704912,255.2117423872969 71.34943614863005,255.4836763238127 71.7415854978317,255.77485865542985 72.23280415633053,256.1815451630482 72.6476568889193,256.6026626662406 73.07489328516385,257.0237724592389 73.68169280447182,257.6518133129739 74.21006245393073,258.18358928865746 74.73430421551166,258.7153529721072 75.19869160273083,259.1773277331795 75.61148039138061,259.62726298474445 75.9479032541276,259.9472650554944 76.11921060139866,260.0964374322848 76.46595318387699,260.5030475487438 76.5732782689156,260.68589946025713 76.93859634686669,260.97220414000185 77.29359470510099,261.3066227431009 77.84673168188601,261.85274915049195 78.38129316317645,262.40607987062504 78.8394887185641,262.88482049918275 79.29974821790529,263.3298719516206 79.53503782743064,263.6835012951069 79.68157784739742,263.86873354511226 79.81367025976942,264.04434196425245 80.00561704648862,264.24641026845893 80.1150060754735,264.4436657118076 80.17279650589626,264.67700228586 80.16454073010391,264.8165219941802 80.01593676619814,264.9945286704078 79.91686745693005,265.2904015873555 79.80541448399163,265.6079195126531 79.78683898850431,265.86770364934273 79.7909668763823,265.8099740944799 79.71872883837932,265.5622164446886 79.70840911865525,265.3336997440947 79.91893140087632,264.84779353695376 80.17279650589626,264.4893710001925 80.10055846787873,264.3113604181508 79.9519545039584,264.1598097838414 79.74143222175917,263.9264679677017 80.01180887832015,263.6979350304737 79.76826349300973,263.5776536259109 79.34309104070417,263.2216169848816 78.9633253551583,262.795809176092 78.58355966960517,262.4373546880488 78.08202129141137,261.932140897321 77.61350601629238,261.450974595391 77.22961244285398,261.0660343104846 76.756969279857,260.59928557803323 76.34005260332924,260.17342924837794 75.91900803891622,259.7283167510468 75.53098657758528,259.3433476471164 75.19043582695303,259.0064943972302 74.74462393522117,258.5397038841147 74.28642837983352,258.0825287371081 73.85506409569643,257.65421956679165 73.42782769945188,257.21868352477577 73.07695722910285,256.8769864924416 72.74053436635586,256.5232525269639 72.29885036251653,256.08769506881436 71.86748607837944,255.67378752006698 71.5537665990123,255.46201798654693 70.95728679942113,255.1299209275112 70.27618529816391,254.75931419928565 69.64049056364456,254.45608606981114 69.03781893222913,254.14322745932805 68.48674589939765,253.86165107021588 67.85724299670983,253.56081778459702 67.22361220614403,253.23350669876163 66.75716087497858,252.98561358426377 66.10701853285718,252.66310786175018 65.4506843589188,252.33097037379957 64.885163718478,252.02771021554508 64.28868391888682,251.72685293068207 63.69839595112717,251.42117789648728 63.1287474228011,251.1130918590934 62.55909889446775,250.8435131888382 62.00596191769,250.55467539056554 61.38265084683371,250.2369496198935 60.837769645826484,249.96976773105416 60.230970126518514,249.6568480561 59.72530386043218,249.3896594228827 59.21757365040685,249.13450341384123 58.67269244939234,248.84805131100438 58.15257857569668,248.58566768003038 57.61801709440624,248.33050274327252 57.21761196941952,248.1571815475363 57.04424067819491,248.37864728784007 56.52619074845279,248.30402320075882 55.981309547438286,248.1740322767182 55.39721341150289,248.10422203250528 54.74087923757179,248.0705204593778 54.09280083939666,247.94775002498136 53.73161064933083,247.7696113654256 53.30231030914001,247.5673982402841 52.732661780806666,247.2953706334647 52.17746086008992,247.1148195585647 51.642899378799484,246.95111869083848 51.283773132679926,246.84037920711307 50.75333953926747,246.53704658325114 50.13828424418898,246.2096354468431 49.591339099250035,246.01703848081524 49.09392860891967,245.7738825049073 48.5449195200199,245.5162788116213 47.98146282352536,245.35497409353593 47.512947548420925,245.22255892607973 47.333384425364784,244.8879062821179 46.916467748829746,244.86383036432017 46.47271980104415,244.54121063086495 46.05580312450911,244.17284076689612 45.6533340555834,243.89836526210638 45.20752216384426,243.57573196565136 44.963976778548385,243.85984212172662 44.569763485393196,243.89354987309707 44.068225107184844,243.58777060289867 43.62241321545298,243.260317420898 43.182793155552645,242.93767515986292 42.72872548804298,242.58372656940446 42.25401838109974,242.26107480123574 41.824718040916196,241.8782209257406 41.38716192494758,241.60612592577672 40.94341397716198,241.37014712003838 40.49347419753758,241.15102177139852 40.049726249751984,240.99209438580328 39.643129292933736,240.85724604430106 39.17461401782202,240.7031326840788 38.747377621570195,240.58032285942681 38.32220516927191,240.4719607038187 37.96927075498388,240.38286254822378 37.385174619048485,240.3732302944718 36.784566931572044,240.34433350897416 36.22317417902377,240.31784475696804 35.64320593098091,240.29135597439927 35.432683648767124,240.0023854516985 35.43681153665966,239.585779878611 35.44506731243018,239.23900415528806 35.449195200315444,238.76940367845964 35.463642807917495,238.186604083774 35.48221830341208,237.69289863300764 35.504921686784655,237.20881614627615 35.54826450959081,236.6861882659905 35.595735220274946,236.23821203661464 35.62875832337886,235.74687321134115 35.68861269772606,235.3012872371728 35.711316081105906,234.78343320420026 35.744339184202545,234.30892412920548 35.72576368870796,233.8151352281584 35.69893241745012,233.3381973193591 35.680356921955536,232.79380152478006 35.68448480983352,232.43487864495364 35.680356921955536,231.96995676527695 35.676229034070275,231.35084926663512 35.674165090124006,230.73172505195544 35.66797325829248,230.24267737569244 35.66384537041449,229.77289269101675 35.639078043088375,229.26936918685533 35.61637465970853,228.6525980540482 35.59986310817476,228.2839730087453 35.54413662169827,227.59248389418826 35.49047407917533,227.0431327240185 35.453323088200705,226.57569197337034 35.39966054568504,225.97089623527972 35.35838166681788,225.3757230933661 35.31091095611191,224.89138050414113 35.251056581764715,224.28172079993055 35.19739403924177,223.68650377766608 35.13134783305577,223.1852563954999 35.06736557081604,222.7538856848314 35.00131936463731,222.34419648313633 34.918761606910266,221.85978979641368 34.83413990523695,221.3295816793543 34.75777397934144,220.74633857309345 34.71443115652801,220.26671844283737 34.68347199738491,219.7364734413968 34.64219311851775,219.18934413692295 34.52661225769407,218.59881545947246 34.4069035089924,218.11191913446783 34.262427432964614,217.5864451457619 34.10556769328832,217.09470626808434 33.946644009658485,216.6101885127664 33.81661554123275,216.18351513138987 33.65150002577866,215.6338902402622 33.49876817398035,215.1396986961281 33.2779261720425,214.58281641219583 33.09423516109382,214.14164030704524 32.93324753353227,213.68599048276155 32.75162046652986,213.24720800212162 32.54522607220861,212.75778684651596 32.330575902116834,212.2249568377265 32.132437283566105,211.7355138131461 31.957002048395225,211.25811594727747 31.577236362842086,211.26534932260802 31.055058545200154,211.46306069601815 30.570031718547398,211.62701517301502 30.248056463402463,211.37143856470175 30.126283770754526,210.77829694206412 30.01689474176237,210.24783205582207 29.899249936999695,209.71976615429776 29.732070477599336,209.2182128212953 29.587594401586102,208.81069263876816 29.420414942178468,208.28500499089205 29.26149125854863,207.84611889082043 29.081928135499766,207.30111673349893 28.90442895637534,206.78745236600662 28.71248216965614,206.24483662640705 28.524663270814926,205.67567916695407 28.361611699307105,205.19091947833658 28.15934519286384,204.6096766469327 27.981846013753966,204.09112803584867 27.820858386185137,203.61598246793437 27.663998646501568,203.16494682519442 27.47617974766763,202.63912932987296 27.31312817615253,202.15671731589646 27.135628997028107,201.63087661951795 26.93542643454566,201.0519554352304 26.768246975145303,200.5598608946675 26.607259347569197,200.0918788023264 26.429760168459325,199.57081529625248 26.291475924263068,199.13658662830494 26.116040689092188,198.65168819334758 25.907582350817393,198.04615380283576 25.73421105959278,197.51539332512766 25.53194455315679,196.93878046288228 25.383340589243744,196.3790419168945 25.25950395264954,195.86030644553284 25.11502787662903,195.33673357768566 25.067557165937615,194.89036013054465 24.675407816721417,194.9048372441448 24.066544353474455,195.08097472428926 23.51340737668943,195.2281570559353 23.063467597065028,195.39222804496603 22.47730751719064,195.5997279014482 21.92210659646662,195.79033657297623 21.532021191203967,195.9930073390242 21.480422592627292,195.98094365330508 21.325626796882716,196.07021477671697 20.803448979240784,196.20291445029216 20.23173650697572,196.2511686858452 20.17807396445278,195.6938260520892 20.122347477983567,195.32708235221799 20.02740605660074,194.74558848964807 19.89118575635075,194.16890567472728" stroke="red" stroke-dasharray="none" stroke-linecap="round" stroke-linejoin="round" stroke-width="0.5"><title>2024-04-05 108.1km</title><desc>1712276378000</desc></polyline></svg>