<?xml version="1.0" encoding="utf-8" ?>
<svg baseProfile="full" height="300mm" version="1.1" viewBox="0,0,200,300" width="200mm" xmlns="http://www.w3.org/2000/svg" xmlns:ev="http://www.w3.org/2001/xml-events" xmlns:xlink="http://www.w3.org/1999/xlink"><defs /><rect fill="#222222" height="300" width="200" x="0" y="0" /><text fill="#FFFFFF" style="font-size:12px; font-family:Arial; font-weight:bold;" x="10" y="20">Over 10km Runs</text><text fill="#FFFFFF" style="font-size:4px; font-family:Arial" x="10" y="280">Runner</text><text fill="#FFFFFF" style="font-size:9px; font-family:Arial" x="10" y="290">yihong0618</text><text fill="#FFFFFF" style="font-size:4px; font-family:Arial" x="65" y="280">SPECIAL TRACKS</text><rect fill="yellow" height="2.6" width="2.6" x="65" y="283" /><text fill="#FFFFFF" style="font-size:3px; font-family:Arial" x="70" y="285.5">Over 20.0 km</text><rect fill="red" height="2.6" width="2.6" x="65" y="287" /><text fill="#FFFFFF" style="font-size:3px; font-family:Arial" x="70" y="289.5">Over 40.0 km</text><text fill="#FFFFFF" style="font-size:4px; font-family:Arial" x="120" y="280">STATISTICS</text><text fill="#FFFFFF" style="font-size:3px; font-family:Arial" x="120" y="285">Number: 5</text><text fill="#FFFFFF" style="font-size:3px; font-family:Arial" x="120" y="290">Weekly: 1.2</text><text fill="#FFFFFF" style="font-size:3px; font-family:Arial" x="141" y="285">Total: 317.5 km</text><text fill="#FFFFFF" style="font-size:3px; font-family:Arial" x="141" y="290">Avg: 63.5 km</text><text fill="#FFFFFF" style="font-size:3px; font-family:Arial" x="167" y="285">Min: 18.7 km</text><text fill="#FFFFFF" style="font-size:3px; font-family:Arial" x="167" y="290">Max: 108.1 km</text><polyline fill="none" opacity="1" points="73.51133307721466,35.52816391004308 73.87091817130568,35.72218846157193 74.05071071838029,36.25575470937474 74.25816365733044,36.90249918130576 74.43795620434685,37.5492409189319 74.5485977717326,37.88877923661494 74.63157894735923,38.4223379274481 74.72839031886542,38.97206311712216 74.83903188625118,39.53795463121787 74.94967345369514,40.13618052718812 75.0603150211391,40.718235910346266 75.14329619664932,41.25178473276901 75.24010756821372,41.78533169445291 75.33691893960349,42.33504479964904 75.41990011523012,42.884755929684616 75.51671148673631,43.49913661988103 75.64118325005984,44.16201828169869 75.7518248175038,44.88956801913446 75.8901267767651,45.568611319191405 75.95927775639575,46.36082469357643 75.94544756051619,46.79734867757361 76.0284287360846,47.13686647072609 76.13907030347036,47.92907172490959 76.23588167491835,48.85061145138752 76.29120245866943,49.691309518399066 76.31886285054497,50.17632553275325 76.23588167491835,50.321830037311884 76.22205147903878,50.58050437035854 76.24971187085612,51.21102122507 76.48482520162361,52.06787329899089 76.70610833651153,52.84388613095507 76.87207068764837,53.68456225794216 77.07952362654032,54.57373390464636 77.2731463695527,55.31740076876304 77.21782558580162,55.81856552998943 77.70188244333258,56.2873955949035 77.95082597003784,56.95022185644484 78.18593930080533,57.54837967680942 78.42105263157282,58.13036882544111 78.14444871299202,58.56685923440091 77.5497502880753,58.696189486872754 76.94122166727902,58.89018466058769 76.23588167491835,59.18117696007539 75.57203227042919,59.423670120333554 74.9220130618778,59.60149819361686 74.79754129849607,59.84399068784842 74.61774875142146,60.118815050125704 74.86669227806851,60.797790770433494 75.17095658852486,61.5252614136989 75.3784095274168,62.31739218143048 75.62735305418028,63.06102141593874 76.04225893196417,63.75614982424304 76.70610833651153,64.11179569593514 76.9965424509719,64.80691933166236 77.35612754512113,65.53437091846718 77.67422205145704,66.26181904772238 78.00614675373072,66.94076751561079 78.31041106412886,67.63587830297183 78.64233576640254,68.33098593346949 78.96043027273845,69.04225558997132 79.29235497501213,69.7050266131846 79.59661928541027,70.41628988456796 79.92854398768395,71.07905495815794 80.26046868995763,71.75798205797037 80.57856319629354,72.45307096898614 80.89665770257125,73.16432147107844 81.2009220130858,73.85940399597166 81.53284671530128,74.55448336462723 81.85094122163719,75.1364078506158 82.25201690354152,75.57284976336814 82.52862082212232,76.17093480800395 82.65309258550406,76.49422304840118 82.3073376872344,76.86600368079962 81.74029965425143,77.12463315340574 81.1041106415214,77.39942648925353 80.34344986552605,77.75504066231952 79.62427967734402,78.15914667437028 78.78063772566384,78.49859490018571 77.99231655779295,78.93502722734411 77.32846715324558,79.30680193207809 76.96888205915457,79.48460690645152 76.19439108716324,79.82405219326029 75.4752208989812,80.17966073400748 74.89435266994406,80.4544485861552 74.14752208988648,80.82621960100369 73.31771033420227,81.23031750628434 72.62620053783758,81.53743120084982 71.9208605455351,81.87687193599413 71.57510564732365,82.0223463063885 71.06338839797536,82.24863949668361 70.48252016899642,82.555751148524 69.92931233189302,82.89518962588045 69.2931233192212,83.2992820701038 68.60161352279829,83.80035521970422 67.84095274674473,84.34991743354476 67.14944295043824,84.85098714455671 66.48559354589088,85.23891095590079 65.8770649250364,85.64299721420684 65.25470610830234,86.01475562991982 64.97810218977975,86.12789931643056 64.95044179796241,86.12789931643056 64.48021513636922,86.41883984056767 63.81636573182186,86.69361649466737 63.11102573951939,86.96839265560266 62.44717633497203,87.19467853555398 61.71417595085222,87.46945379729732 60.925854782923125,87.77655497685191 60.31732616206864,87.9381869291974 59.55666538607329,88.21296085663198 58.71302343450952,88.5200605449354 57.88321167882532,88.81099652354897 57.08106031495845,89.0857688846736 56.348059930838645,89.36054075270658 55.51824817515444,89.6191491192003 54.688436419470236,89.92624598718248 53.983096427167766,90.13636454191874 53.360737610433716,90.31415693997405 52.84902036114363,90.49194913158135 52.50326546293218,90.62125241398462 51.853246254322585,90.84753289548098 51.20322704571299,91.12230160200852 50.45639646559721,91.42939545524132 49.654245101846755,91.65567474244745 48.86592393391766,91.94660476323043 48.02228198229568,92.23753423127346 47.23396081442479,92.56078854747466 46.45946984249167,92.8517168485705 45.68497887055855,93.12648195878137 44.910487898567226,93.40124657591514 44.108336534700356,93.67601070005912 43.264694583194796,93.91844922363816 42.68382635421585,94.12856230030593 42.39339223969728,94.17704989243066 41.70188244333258,94.45181262452388 40.92739147134125,94.75889980050852 40.15290049946634,95.04982392543752 39.378409527475014,95.34074749768479 38.78371110261651,95.50237146567088 37.99538993468741,95.7448070977116 37.096427199372556,96.06805401016027 36.30810603144346,96.45594940448063 35.741067998460494,96.8761683061166 35.270841336925514,97.32871044911735 34.96657702646917,97.66811617874191 34.66231271607103,98.0236832790979 34.08144448715029,98.46005995583255 33.2931233192794,98.8317872552143 32.518632347288076,99.0095695576747 31.813292354985606,99.1388656480558 31.273914713819977,99.20351365224633 30.734537072654348,99.2843236191693 29.918555512907915,99.47826736583374 28.936611601966433,99.65604891782277 28.079139454464894,99.81766833142319 27.19400691514602,99.96312565785774 26.336534767528065,100.09242094315414 25.492892816022504,100.23787800861464 24.607760276587214,100.38333493591927 23.722627737210132,100.528791725068 22.975797157210764,100.67424837608996 22.21513638115721,100.78738123131916 21.34383403765969,100.93283763674845 20.486361890099943,101.06213210332498 19.67038033035351,101.17526467209973 18.82673837884795,101.28839715727372 18.02458701498108,101.48233836592408 17.16711486747954,101.61163236861466 16.37879369960865,101.75708799115091 15.562812139920425,101.90254347557493 14.746830580057576,101.99951372177748 14.276603918522596,102.09648390654183 14.0,102.14496897593199 14.47022666153498,102.19345402989711 14.691509796422906,102.72678861104941 15.02343449863838,103.3247675995226 15.147906262020115,103.53486777092621 15.479830964293797,104.08435916424787 15.64579331537243,104.52071857216652 15.631963119492866,104.77930133837799 15.853246254322585,105.23182012874167 15.880906646198127,105.29646556104126 15.687283903185744,104.81162415345898 15.59047253173776,104.4883956957492 15.396849788725376,104.1328436042968 15.27237802540185,103.89042125051492 15.147906262020115,103.61567545239814 14.912792931252625,103.21163661862374 14.663849404489156,102.72678861104941 14.677679600485135,102.4682023794594 15.28620822133962,102.35507076579961 16.005378409579862,102.24193906859728 16.69688820594456,102.12880728782329 17.457548981939908,101.99951372177748 18.218209757935256,101.85405832945253 19.006530925864354,101.7086027990299 19.781021897797473,101.59547062423371 20.5555128697888,101.51466187684855 21.302343449904583,101.35304425410868 22.076834421779495,101.22375003309571 22.76834421826061,101.11061750017689 23.4598540145671,100.99748488364276 24.234344986558426,100.85202853969531 25.077986938122194,100.72273389571637 25.866308105993085,100.59343914259807 26.64079907798441,100.46414428026765 27.40145985397976,100.35101118622697 28.10679984628223,100.22171611928206 28.83980023051845,100.09242094315414 29.55897041875869,100.01161140263139 30.236650019185618,99.89847797430411 30.706876680720598,99.8661541222391 31.080291970807593,99.83383026340744 31.509028044587467,99.72069670369092 32.08989627356641,99.62372501462232 32.68459469842492,99.51059129970963 33.459085670358036,99.31664759399428 34.164425662660506,98.99340753868455 34.77295428351499,98.62168063163699 35.187860161357094,98.23379072308308 35.57510564732365,97.76508910619305 35.990011525165755,97.29638605467335 36.46023818664253,96.8923305485514 37.11025739531033,96.58524765085895 37.870918171305675,96.32665104887565 38.60391855548369,96.0842163378984 39.378409527475014,95.76096945955942 40.180560891283676,95.48620907652366 41.024202842847444,95.19528578063182 41.85401459853165,94.92052438257087 42.711486746091396,94.61343753075926 43.47214752214495,94.35483759887575 44.260468689957634,94.08007469282893 45.03495966194896,93.82147386028373 45.78179024200654,93.56287259100645 46.473300038371235,93.27194564104138 47.15097963885637,93.04566874222655 47.88398002309259,92.81939150912513 48.603150211274624,92.56078854747466 49.322320399514865,92.30218514912121 50.09681137150619,92.04358131400659 50.760660776053555,91.83346537640318 51.03726469463436,91.76881426064938 51.604302727559116,91.59102355163486 51.922397233953234,91.44555827254953 52.21283134847181,91.36474416889541 52.73837879369967,91.17079014610499 53.40222819824703,90.96067301082076 54.12139838648727,90.66974111676973 54.854398770665284,90.39497159811435 55.61505954666063,90.12020158641099 56.36189012683462,89.84543108163052 57.09489051095443,89.57066008374386 57.855551287007984,89.2958885928092 58.464079907746054,89.0857688846736 59.031117940845434,88.89181197508879 59.30772185936803,88.7948334281391 59.88859008834697,88.61703926594055 60.55243949283613,88.37459234827838 61.18862850550795,88.13214504682401 61.783326930424664,87.9381869291974 62.32270457159029,87.72806535784912 62.91740299650701,87.5341067284171 63.59508259699214,87.2916580959718 64.30042258929461,87.01688251519226 64.8121398386429,86.75826975337986 65.29619669611566,86.53198322842945 65.89089512103237,86.22487955256656 66.5270841337042,85.75614117539953 67.1217825585627,85.36821867461549 67.71648098347941,84.96413169107109 68.24202842876548,84.54388009685499 68.68459469842492,84.1882816930738 69.23780253552832,83.81651884235907 69.73568958893884,83.47708240768407 70.24740683822893,83.15380891309178 70.86976565496298,82.7982072805753 71.56127545138588,82.4587685881852 72.335766423319,82.11932914321369 73.1240875912481,81.73139742737112 73.9538993468741,81.3757924909878 74.72839031886542,80.98785889112332 75.35074913559947,80.68074409401743 76.01459854008863,80.3736286808562 76.76142912020441,80.01802059062175 77.49442950444063,79.71090384796844 78.24126008455642,79.37145831028465 78.98809066455578,79.06434027053183 79.63810987316538,78.75722161460726 80.32961966964649,78.43393815333548 81.04878985777032,78.09448978416913 81.68497887050034,77.8035334401211 82.3488282749895,77.44791937970149 83.1786400306737,77.05997582623968 83.95313100266503,76.7366887806129 84.60315021121642,76.42956545493507 84.90741452167276,76.28408576980291 85.50211294658948,75.96079708563047 86.0,75.6051787444303 85.4467921628966,75.41120475559728 84.8382635419839,75.71833012442221 84.2435651171254,75.97696153607103 83.60737610445358,76.31641460067476 82.95735689584399,76.62353815336246 82.52862082212232,76.2032636627846 82.23818670760375,75.4920272808231 81.78179024200654,74.74845843913499 81.44986553979106,73.95639200435835 81.1041106415214,73.18048621682101 80.70303495967528,72.40457649625023 80.34344986552605,71.72565226435836 80.02535535919014,71.11138488832512 79.7210910487338,70.38395980757196 79.38916634651832,69.64036615188525 79.04341144824866,68.86443848571798 78.69765655009542,68.12083744785923 78.35190165194217,67.44189421477495 78.03380714560626,66.79527881175454 77.72954283520812,66.11632969847415 77.53592009219574,65.58286756802408 77.3699577410589,65.22722511467873 77.21782558580162,65.00090675959655 76.92739147134125,64.51593772879278 76.66461774869822,63.90164141707646 76.05608912790194,63.64298960081942 75.66884364193538,62.947860678556026 75.41990011523012,62.15573317409144 75.1986169804004,61.42826552776387 74.89435266994406,60.716960485544405 74.71456012292765,60.151147295560804 75.12946600071155,59.66616289631929 75.94544756051619,59.423670120333554 76.70610833651153,59.21350940364937 77.48059930850286,58.93868341558846 78.21359969262267,58.66385693398479 78.79446792165982,58.421362569744815 78.5178640030208,57.54837967680942 78.40722243557684,57.128052804037 78.11678832117468,56.36822821952228 77.79869381478056,55.543733444807 77.5082597003202,54.751567614017404 77.2731463695527,53.87856378519791 77.12101421435364,53.102556200450636 77.01037264696788,52.326544680283405 76.95505186315859,51.50202812789939 76.95505186315859,51.11401880111953 76.95505186315859,50.80684405301872 76.63695735682268,50.19249270678847 76.49865539756138,49.464968185537145 76.4433346138685,48.46259540093888 76.38801383017562,47.57338824060571 76.37418363423785,47.12069897388574 76.33269304648275,46.50633282659692 76.24971187085612,45.843461321957875 76.18056089128368,45.180586945367395 76.06991932383971,44.50154192306218 75.94544756051619,43.87099741802376 75.83480599307222,43.22428240557201 75.72416442562826,42.545228700197185 75.57203227042919,41.672155221691355 75.39223972341279,40.60505864811421 75.26776796003105,39.73197409705608 75.11563580483198,38.81037944286072 74.99116404145025,37.9534531164245 74.78371110250009,37.09652198970434 74.45178640028462,36.06173083464091 74.13369189394871,35.25329537407379 73.9538993468741,34.81673844883335 73.92623895499855,34.70355682034278 73.59431425278308,34.75206324280589 73.20706876681652,35.220957866768 72.48789857851807,35.511995186287095 71.7825585862156,35.85153802590503 71.04955820203759,36.17491145816166 70.34421820973512,36.46594696266402 69.48674606223358,36.82165627190261 68.71225509030046,37.16119620445534 68.04840568569489,37.43606131222623 67.60583941597724,37.048016310698586 67.28774490969954,36.46594696266402 66.90049942367477,36.595295898092445 66.26431041106116,36.90249918130576 65.61429120245157,37.19353330160084" stroke="#4dd2ff" stroke-dasharray="none" stroke-linecap="round" stroke-linejoin="round" stroke-width="0.5"><title>2024-05-25 18.7km</title><desc>1716643451000</desc></polyline><polyline fill="none" opacity="1" points="180.30000709281012,105.23034923191153 180.42214697724557,104.98424858978979 180.52358518633991,104.84672061802485 180.579479709726,104.87084839160707 180.56291836946912,104.90704000472397 180.65400574091473,104.84430783927382 180.579479709726,104.88532504365685 180.60018138505984,104.84430783927382 180.60225155258377,104.76468599925465 180.77407545780443,104.77674993205437 180.74302294481458,104.94081879245095 180.616742725324,105.14349048122313 180.64779523830657,105.19415812549596 180.59190071492776,105.35098584366824 180.69333892402938,105.46920911178859 180.75751411754754,105.47162182524153 180.70783009676234,105.54400311170866 180.6726372487028,105.6236222647949 180.59190071492776,105.70324114339746 180.52565535387112,105.83111331338478 180.55877803439944,106.0 180.5277255214096,105.83835133956927 180.62088306037913,105.67428885566733 180.57326920712512,105.59466987725136 180.49460284088855,105.54400311170866 180.56291836946912,105.38717670431106 180.65607590843865,105.18691989740182 180.53807635907287,105.22552375433406 180.3703927889219,105.28342941872143 180.06400799407857,105.17485617888269 179.83835973301757,105.09282272579003 179.75762319922796,104.85637173048599 179.9522189473064,104.53788288951182 180.14681469537754,104.26764648864082 180.4035154694502,103.98775545356511 180.521515018816,103.86952460050998 180.53600619154167,103.76094471235956 180.3082877629422,103.60893201111139 180.02881514602632,103.31938123995133 179.75762319922796,102.9912193093387 179.64583415246307,102.93813385285102 179.44502790178376,102.75474679121544 179.1427834420101,102.46277227921746 178.84260914976767,102.10805447399434 178.58797854324803,101.8088324953751 178.26089207307086,101.44927837435716 178.01868247173843,101.22002953440096 177.83236739379208,101.05352105477687 177.56531578207796,100.82668148302037 177.31068517554377,100.56605454198143 177.16163311319542,100.4043678308044 177.0767562443507,100.31990417306224 176.82626597288618,100.0665113451505 176.63374039234623,99.83000886231639 176.52609168064373,99.72864991344795 176.27767157671042,99.50662399365319 176.05202331564215,99.27252913435768 175.80153304419218,99.01429802981693 175.54483227013407,98.73675670484772 175.2757104908742,98.47610616004022 175.02315005188575,98.22269308531031 174.77887028301484,97.95479623713436 174.54080101675208,97.7206856337998 174.2799599076243,97.47450491126256 174.06673265176505,97.26211158888691 173.89697891408287,97.10281531391956 173.64234830755595,96.83731907805122 173.27385848671838,96.44630996714659 172.94056151396217,96.10839552029938 172.6176153788474,95.8211643484774 172.52238767233212,95.73668391137653 172.1973713697007,95.56530835997728 171.8392323865337,95.37462139071613 171.46039172805467,95.17669147675952 171.08155106956838,94.9666908085801 170.73583309159585,94.79289570618494 170.3797642759746,94.61909929418107 169.99057277981046,94.4187490274926 169.61794262391777,94.2304664676085 169.3012069914039,94.05907972412751 168.92650666799454,93.89734740376116 168.5725080198972,93.7211303008553 168.21850937179988,93.52801412112603 167.85830022110167,93.35179419596716 167.5415645885878,93.1852289191429 167.34075833791576,93.08866878746812 167.044724380743,92.93658576013513 166.67623455990542,92.74829109848906 166.3098149066209,92.55999489921487 165.9268339130649,92.3596267420453 165.57076509744365,92.16408505446452 165.1898542714116,91.97578408422305 164.82343461811251,91.79472400869963 164.48185697521694,91.62814748340679 164.12164782451873,91.42777122792359 163.73245632836915,91.22497902754549 163.37017701013974,91.05839838561951 163.0803535555533,90.90147349147082 162.7470565827898,90.72523349068979 162.37856676195952,90.53692076801235 162.09909414504364,90.39689236160666 162.04319962166483,90.3703351540862 161.73681482681422,90.22547711994594 161.3352023254629,90.0202600133016 160.9377301591885,89.8198697814114 160.55474916562525,89.60740594608433 160.19039967987192,89.4190840911524 159.78878717852058,89.2186886326399 159.4037360174334,89.0182914317902 159.0393865316728,88.84203703182902 158.68331771604426,88.65612339581276 158.31896823027637,88.47503724362286 157.9836010899744,88.3108512357503 157.84697003281326,88.40501688331096 157.76002299643733,88.60783389434982 157.68963730032556,88.77684670681992 157.6151112691441,88.90481272608486 157.5550764107029,89.0182914317902 157.4971117197856,89.15108495240565 157.4453575314692,89.26697685426552 157.50953272498737,89.11486861357298 157.5053923899104,89.10279648797768 157.53437473537633,89.10762533897287 157.6068305990193,88.92171384532412 157.74553182371892,88.65370892314604 157.6585847873357,88.57886014490578 157.453638201594,88.52091253674553 157.09135888337187,88.45572130340406 156.73529006774334,88.35672685569625 156.62350102097844,88.30843672690207 156.21774818455015,88.27221906390696 155.7540306572264,88.26014649691933 155.30480430262105,88.23600134398839 154.865928785679,88.13700595247246 154.56989482850622,87.9921338813001 154.29663271418394,87.86174823856709 153.9550550712811,87.69997243412581 153.53895139720407,87.4995620268528 153.11456705299497,87.34019829028875 152.68811254125467,87.21705282988478 152.27821936977125,87.09632134747699 151.99460641779297,86.99490641339798 151.77102832424862,86.87175910766928 151.42117001122097,86.67134149703998 151.05061002285947,86.46126333507709 150.6593483591787,86.30672185521325 150.27222703055304,86.17149721000897 149.89959687466035,85.99522103447453 149.6056330850115,85.84550596321242 149.2350730966573,85.68130121797913 148.85416227063251,85.5919540267223 148.50016362254246,85.44706595299976 148.19377882769913,85.36737712405375 148.08613011598936,85.19350963135548 147.99504274455103,85.02688538618168 147.93293771857861,84.71053748863415 147.97227090169326,84.31932263009912 148.1130422939168,83.93776099745082 148.19584899523034,83.54894802176932 148.24553301602282,83.18186390946721 148.07784944586456,82.99831965931662 147.7259209653057,82.78579291069218 147.4671500237091,82.57326420085155 147.54788655748416,82.29310972304484 147.19388790937955,82.09506743261409 146.85024009895278,81.90426898103215 146.51280279111234,81.71588414875623 146.40308391188591,81.49368467337626 146.4092944144868,81.06860144170241 146.41343474954192,80.66524816481251 146.421715419674,80.38023979269019 146.421715419674,80.12421231467124 146.42999608980608,79.916489815967 146.4237855872052,79.6628725962837 146.4237855872052,79.34403555611789 146.44034692746936,78.7715670610487 146.45069776513992,78.35126467248665 146.46104860279593,77.88747381992653 146.4672591053968,77.45749270224042 146.47139944046648,77.01542508863349 146.4776099430601,76.6240794597943 146.49831161839393,76.31727915899137 146.3761717339512,76.31003185834379 146.08220794430963,76.23031140055537 145.65161309749965,76.19649051685155 145.3100354545968,76.17474849392784 144.85045826233545,76.13126438647487 144.42400375059515,76.10227493584898 144.0348122544383,76.07811703243351 143.6042174076283,76.0370485384301 143.2916221101841,76.01289056653695 142.92727262443077,75.99114837015986 142.62709833218105,75.97182195613095 142.225485830837,75.93800069252393 141.83422416714166,75.89934775896108 141.50299736190937,75.87277382947104 141.09310419042595,75.8413682368755 140.71840386700205,75.81237842105475 140.5734921397161,75.54422089332002 140.57556230724003,75.15526613280235 140.59626398257387,74.77838444078952 140.5921236475042,74.46672760922957 140.60454465271323,74.05842661220231 140.6148954903765,73.65978255304617 140.62110599296284,73.33119801390967 140.62110599296284,73.17898446766412 140.6148954903765,72.96153479731584 140.62524632803252,72.88180273649778 140.62524632803252,72.61844335950809 140.60454465271323,72.40582074522717 140.64801817089028,72.20286096178279 140.64387783582788,72.01681292038484 140.6335269981646,71.71478367464806 140.6397375007582,71.30160124235044 140.6335269981646,70.88841138700082 140.62938666309492,70.53320715639347 140.6335269981646,70.15624972736077 140.6314568306334,69.84694670886165 140.62938666309492,69.42164826511544 140.63766733323428,69.17274836786419 140.61696565789316,68.9359284885486 140.6148954903765,68.62177590501415 140.60454465271323,68.82476729585687 140.6148954903765,69.0978362208134 140.55279046438227,69.27182534878739 140.22363382668118,69.39748334463911 139.8406528331252,69.35156992577868 139.60465373439365,69.27424185518066 139.4763033473646,69.09058664524491 139.13679587199294,69.04950567384185 139.1057433590031,69.05675526236337 139.38935631099594,69.07850401421638 139.76612680195103,69.15341622424785 140.12840612017317,69.2138291190804 140.46791359554481,69.25007677978647 140.56935180464643,69.46997802988517 140.56314130205283,69.79136838177146 140.4244400773605,69.98951658581609 140.08286243445764,69.97018512887553 139.81167048767384,69.96051939431527 139.40591765125282,69.94843722039514 139.00637531743268,69.93152216624367 138.6192539888143,69.91943997709495 138.21971165500872,69.90252490161583 137.80153781338595,69.89285913861204 137.40613581464277,69.88560981369119 136.9755409678255,69.87352760041176 136.5532267911476,69.85902893610364 136.30894702228397,69.73095700431622 136.30273651969037,69.32015542846239 136.2903155144959,68.87793141158181 136.2861751794262,68.70635586900062 136.26961383916932,68.45986482033368 136.24684199631156,68.2037046558653 136.22199998591532,67.82670903392136 136.18887730539427,67.47870758794852 136.15575462486595,67.12586741013911 136.1433336196642,66.95427879107228 136.11228110668162,66.58692983547371 136.0750180910909,66.21232452574623 136.04810591317073,65.85463117717518 136.021193735236,65.51143367747682 135.99635172483977,65.28182685520733 135.963229044326,64.95795649029242 135.925966028728,64.54223560121864 135.89698368327663,64.17001400534537 135.8617908352171,63.783283883038166 135.8121068144319,63.384461627254495 135.7541421235219,63.021889932970225 135.70652827026788,62.70040491171312 135.6506337468818,62.369246464553726 135.5926690559645,61.992155121071846 135.52849386245362,61.62956145353564 135.47466950659873,61.29838756981917 135.44154682607768,61.04698230959002 135.40221364294848,60.68679113210965 135.3877224702228,60.41845712064605 135.36081029229535,60.067925987023045 135.34010861697607,59.700466917325684 135.31733677411103,59.388605594785986 135.2573019156698,58.99937738304652 135.18277588448836,58.65124221346014 135.10203935070604,58.31760772343114 135.0171624818613,57.98880377327259 134.92607511043025,57.66724829777195 134.82463690132136,57.33601727254427 134.71077768701798,57.00478146887144 134.6321113207814,56.76783613735461 134.50376093374507,56.36647418013854 134.43544540517178,56.134358038669234 134.3257265259308,55.720895348207705 134.25327066228783,55.488772679134854 134.14148161552293,55.16476419542778 134.00278039082332,54.80689876387078 133.9034123492529,54.5167335071892 133.791623302488,54.30636140229217 133.65913258039654,53.96540941323474 133.5680452089582,53.6728153701024 133.43969482192915,53.389890309952534 133.27822175437177,53.01506968811191 133.1436608647491,52.67409851454795 133.0049596400495,52.33312227456372 132.8890302582222,52.04292573886232 132.7793113789885,51.759980582899516 132.66752233221632,51.46010327577096 132.576434960778,51.22310069571904 132.43773373608565,51.22793750753226 132.1002964282452,51.37545977821355 131.73594694249186,51.49879734208662 131.4047201372523,51.64148114764612 131.06314249434945,51.718868603265946 130.90787992939295,51.46735841817281 130.8230030605555,51.06106691052628 130.74433669430437,50.72248515804495 130.67809133326955,50.34278396322952 130.58493379429274,49.95823940538685 130.48556575271505,49.56401407916019 130.36549603581807,49.21331714387816 130.29097000463662,48.96419813275679 130.179180957879,48.690889697447346 130.05083057084266,48.30148001796624 129.92662051888328,47.928995007450794 129.78791929419094,47.52747841578275 129.7030424253462,47.26382815567558 129.57262187078595,46.90342060279727 129.4380609811633,46.4994671502609 129.31799126425904,46.141466525939904 129.1855005421603,45.74475660282587 129.07992199799628,45.447219656070956 128.94743127589754,45.086783548789754 128.83357206160144,44.740856318341685 128.70936200964206,44.380409105786384 128.60999396806437,44.07075865274055 128.49613475376827,43.756265630130656 128.37813520439522,43.39338370410587 128.29946883815137,43.175651790985285 128.17732895371591,42.82243784402999 128.0717504095519,42.5079276937322 127.94961052512372,42.171638989462735 127.82540047315706,41.8184095693905 127.68255891340232,41.40710817883519 127.55420852637326,41.02241372674871 127.45484048480284,40.727234988617056 127.3182094276417,40.33285090456411 127.2064203808768,40.00378905092475 127.08014016137895,39.638428074043986 126.98905278994062,39.372267402986836 126.92901793148485,39.12062174308085 126.77996586912923,38.75524668219259 126.66196631976345,38.41890289895855 126.54603693793615,38.07529479812547 126.43631805869518,37.75104017346348 126.30796767166612,37.38322340115701 126.18996812230034,37.044439569732276 126.07817907553545,36.68145133256439 126.0119337144788,36.386216657421755 125.92291651058622,36.03773804539014 125.83803964174149,35.677153899669065 125.74488210276468,35.35286532234022 125.65586489886482,34.98016979327076 125.65172456379514,34.78897947309633 125.4260763027196,34.87368424227316 125.19835787412012,34.95112832846826 124.8277978857659,35.04551295440615 124.42825555195304,35.16409821504021 124.0908182441126,35.280262772912465 123.7078372505639,35.3964267415231 123.37868061285553,35.53437068891617 123.01640129462612,35.667473710125705 122.64377113873343,35.80057595773178 122.3373863438901,35.91189724349897 122.1096679152979,35.9990178723001 121.97096669059829,36.06193812032325 121.69563440874481,36.15389817187861 121.35405676584924,36.23617790502067 121.00833878788399,36.31119740408576 120.84686572031933,36.1296981941141 120.803392202135,35.75217522992352 120.75991868395067,35.47386905990061 120.71851533329027,35.217340377215805 120.65434013977938,34.85190304584103 120.60051578393177,34.50340108519413 120.50528807742376,34.16941506231524 120.39970953326701,34.01210111745786 120.15128942932643,34.16941506231524 119.82213279161806,34.31220678419777 119.53023916951497,34.4065940437049 119.39774844741623,34.288004860116416 119.2010825318066,34.379972035549144" stroke="red" stroke-dasharray="none" stroke-linecap="round" stroke-linejoin="round" stroke-width="0.5"><title>2024-05-01 58.8km</title><desc>1714551575000</desc></polyline><polyline fill="none" opacity="1" points="19.150641963227827,114.27420598019671 19.40613186075643,114.16158605972123 19.682563553156797,114.04406903717245 19.85009791219636,114.11017243572132 19.925488373759435,114.3819288700306 19.967371963517508,114.63409640319878 20.00925555327558,114.92053580495667 20.057421681500273,115.19228273259432 20.113964527678036,115.51298896966728 20.109776168697863,115.74311132001458 20.160036476409005,116.0491215429629 20.178884091801592,116.24741400930361 20.178884091801592,116.37226395076686 20.34223009186826,116.33554344958611 20.69614642531087,116.27434248495229 21.02912096390355,116.20579721263857 21.34534206657554,116.12011533706027 21.470992835857032,116.06136186780896 21.699258400047256,115.97078331080957 21.99453770784021,115.85572355208933 22.289817015640438,115.73087082702477 22.624885733705014,115.54236641827447 22.92644757997914,115.37099744293482 23.19659673392016,115.36365302994454 23.540042169937806,115.27307174500856 23.78087281104672,115.21186797359951 24.107564811165503,115.12618242196731 24.400749939479283,115.03804838106953 24.700217606259685,114.95236218651371 24.98502601661312,114.86422748430596 25.07926409356878,115.04784106884654 25.1672196320651,115.39792693729032 25.25517517055414,115.7480075154017 25.336848170583835,116.07115412303392 25.412238632154185,116.39184819426555 25.46459311935905,116.62196181541549 25.514853427062917,116.77618562280077 25.62165658093727,117.07973424508964 25.71170629892731,117.35390377632393 25.810132734863146,117.63541375883324 25.898088273352187,117.90712884628192 25.998608888767194,118.1837364285202 26.1054120426561,118.49705784336402 26.205932658078382,118.8275094332621 26.26875804271549,119.03312137791545 26.348336863258737,119.19222460701894 26.438386581241502,119.44678750182175 26.52634211973782,119.71358599660562 26.61429765822686,119.9852767205557 26.685499760817038,120.20066890523412 26.754607683920767,120.35731650968046 26.848845760869153,120.61676177595837 26.859316658315947,120.70242702808537 26.95355473527161,120.95942088499942 27.04988699171372,121.27025726688771 27.154595966116176,121.59577436445761 27.265587478977977,121.91883944595429 27.334695402081707,122.129318819545 27.433121838010265,122.37895466926966 27.54411335086479,122.69956147481207 27.625786350894487,123.00303253488346 27.701176812464837,123.12539877416566 27.770284735568566,123.31628881801043 27.858240274064883,123.60017366925422 27.946195812553924,123.86692437098463 28.029962992070068,124.17038015403159 28.11163599210704,124.40041656937137 28.128389427998627,124.50319805998151 28.239380940867704,124.75770264770472 28.35037245372223,125.06114677525693 28.46345814607048,125.40374021228126 28.576543838426005,125.78058714832878 28.693817889754428,126.11582895184983 28.802715223122505,126.43393713205478 28.922083453922824,126.77895722663561 29.037263325764798,127.1190783963848 29.15244319760677,127.46164144050817 29.278093966880988,127.811539899325 29.39746219769586,128.15164593107147 29.512642069530557,128.50153398396105 29.625727761878807,128.79269554418897 29.675988069582672,128.968858747774 29.72834255678754,128.9003509941922 29.789073761930922,128.93215819065335 29.950325582503865,128.95417853188883 30.28748848006944,128.82205617100408 30.62883973660064,128.70706017045813 30.865482018736657,128.72174054268908 30.993226967490045,128.99577245277032 31.148196249596367,129.2771411358608 31.305259711196413,129.55850640720746 31.46232317279646,129.8423148769216 31.623574993362126,129.9964507810164 31.68640037800651,130.14079935019072 31.75550830111024,130.49065741123923 31.85184055755235,130.8649752307865 31.946078634508012,131.20259004664695 31.996338942219154,131.34693111418164 32.107330455080955,131.5646642465672 32.22251032691565,131.83621618992947 32.31884258336504,132.08330123378983 32.44868171161215,132.41600565255794 32.57852083986654,132.7535979091881 32.69370071170124,133.03002849239238 32.83401073739515,133.37495053328348 32.95966150666936,133.65871234174847 32.92824881434353,133.74922184419484 32.78375042967673,133.79814575266028 32.82353983995563,133.7834685909438 32.819351480975456,133.7712376157633 32.913589557938394,133.7516680420722 33.06437048106454,133.9180088926987 33.175361993926344,134.2213332581814 33.3177661991067,134.57357593554298 33.4664529427464,134.92336719512423 33.602574609460135,135.29027544126257 33.70937776334904,135.59358188092665 33.80571001979115,135.9360198741415 33.9146073531665,136.30780397811577 33.98162109678378,136.49369379817108 34.08842425066541,136.8214432776058 34.188944866087695,137.15163397168362 34.2894654815027,137.48671158085017 34.38160937897919,137.8193385869945 34.47165909696196,138.14462362594168 34.570085532890516,138.4601213045371 34.65385271240666,138.80496270302683 34.71458391755732,139.11311451536312 34.773220943214255,139.42126224027743 34.80253945605364,139.64870198698554 34.8192928919525,139.94461488363595 34.84442304581171,140.33589887767812 34.865364840690745,140.6464758570437 34.886306635562505,140.77364003656476 34.924001866354956,141.08910201573963 34.95960291764641,141.46569442939654 35.011957404844,141.82516331290753 35.068500251014484,142.17729070546193 35.12504309719225,142.53430330926676 35.16273832797742,142.8032817855128 35.19205684080953,142.92798893192776 35.236034610061324,143.20429846084517 35.286294917757914,143.5246177857607 35.317707610083744,143.74957223026104 35.34283776393568,143.99164034196656 35.36587373830844,144.22392555378246 35.35121448189602,144.299723383765 35.411945687039406,144.5931320084601 35.437075840898615,144.92565730629576 35.44964091782458,145.2704027771033 35.44964091782458,145.43421620907975 35.47686525116296,145.54912942028204 35.50827794348152,145.80584837222887 35.533408097340725,146.09923798923228 35.554349892212485,146.35595086721696 35.579480046071694,146.6199954419517 35.59832766146428,146.92315403385328 35.62764617429639,147.23853256790608 35.646493789688975,147.46834058866625 35.677906482014805,147.78126700779103 35.69047155894077,147.92794981724546 35.71769589227915,148.24820406945219 35.74282604613836,148.52200573466507 35.759579482037225,148.7420225941114 35.767956199990294,148.8764763169529 35.78052127691626,149.13315853859967 35.77423873844964,149.41917253451538 35.77842709742254,149.72473915711998 35.797274712815124,150.00096792939803 35.80983978974837,150.21119293843913 35.826593225654506,150.6438593619514 35.82868740513368,151.008075141277 35.8307815846274,151.40406166637695 35.82868740513368,151.75604403058423 35.8307815846274,152.17890469062695 35.83915830258775,152.5186542195661 35.834969943607575,152.8608429753076 35.811933969234815,153.11748123983307 35.847535020526266,153.22257990268736 35.8684768154053,153.50609950949365 35.88941861028434,153.80428019674946 35.90198368721758,154.07312836076017 35.92083130261017,154.36152566575402 35.92711384107679,154.72812725061885 35.91873712311644,155.02873624136373 35.89151278977806,155.36111239444108 35.86638263591885,155.63238647228172 35.847535020526266,155.7790197926388 35.88523025131872,155.84989223302 36.17003866167215,155.85966772509892 36.51767245666997,155.89876965238182 36.859023713208444,155.93542764956328 37.23178766205092,155.98186102977343 37.57523309808312,156.01118732744726 37.91239599564142,156.0454012947048 38.22861709831341,156.0698398119639 38.50923714970122,156.07717136213614 38.81289317544724,156.1016098460368 39.118643380679714,156.12360445960985 39.41601686797367,156.13826752377827 39.736426329633105,156.16759362440825 40.05264743230509,156.1895881756409 40.20552253491769,156.22135804628124 40.49661348373775,156.2238018806911 40.808646227444115,156.25312787356415 41.15628002244921,156.28489765749146 41.447370971269265,156.30444827220344 41.75312117650901,156.33377416348412 42.03792958686245,156.35821237799973 42.228499920267495,156.3508809163377 42.584510433218384,156.3753191128926 42.9321442282162,156.41930780203802 43.258836228334985,156.45352116946196 43.61694092077232,156.4828468729429 43.95619799781707,156.5072849309654 44.29964343383472,156.5366105667199 44.68287828012399,156.56593616553255 44.98234594690439,156.58304274778675 45.20014061364782,156.59770552256487 45.422123639364145,156.6123682881098 45.62944740866806,156.62214346000292 45.939385972887976,156.64413758177216 46.10063779346092,156.83719620332704 46.09644943448802,157.15244038432502 46.08807271653495,157.45790547985052 46.07969599858188,157.8122399697877 46.07341346011526,158.10792186494655 46.07131928063609,158.45247206356362 46.06503674216219,158.7823557740703 46.06084838318202,159.12933952276398 46.06084838318202,159.44943966371648 46.0566600242164,159.75487462726778 46.054565844722674,160.02609751691307 46.054565844722674,160.22157151480314 46.05037748574978,160.53676988072948 46.039906588317535,161.00345110069065 46.02943569087074,161.47500953723465 46.02315315240412,161.93189902024096 46.0126822549646,162.34235893547702 46.00639971650526,162.70394858318468 45.9791753831596,163.02644272323414 45.90169074211008,163.38557867084273 45.782322511295206,163.71294947338356 45.61688233175664,164.0061134522639 45.47238394708256,164.24552796547505 45.53939769069257,164.14780805312876 45.610599793282745,164.20399705280033 45.74462728051003,164.30660270257613 45.99174046009284,164.4776111148276 46.24094781914755,164.66083302097286 46.40429381921422,164.76343665913373 46.60533505005151,164.95398507427126 46.85244822963432,165.15186062543216 47.1016555886963,165.34484874203008 47.34667458878539,165.49386378922463 47.587505229894305,165.4865352026245 47.66708405044483,165.51340667555996 47.805299896637734,165.70883463751488 47.857654383835325,165.84319041073286 48.09639084545779,165.8847184021124 48.41889448661095,165.99953069905678 48.741398127742286,166.09235724902464 49.042959974009136,166.18274063979516 49.30263823051064,166.31465090534584 49.54137469214038,166.42457555633155 49.77173443581705,166.53694244147846 49.99162328204693,166.64686604406415 50.26805497446185,166.74457547780185 50.57799353867449,166.8593835390384 50.84395433363534,166.9766337412966 51.00101779522811,167.05724291321167 51.269072769689956,167.21357505808737 51.499432513352076,167.34792215738707 51.73607479549537,167.47982582882287 52.06276679561415,167.59463026863887 52.41040059061925,167.7021062530439 52.705679898404924,167.79248340183767 53.01352428313112,167.8779749768437 53.292050155032484,167.9976626551179 53.51193900126236,168.10757936934897 53.704603514146584,168.1930697887783 53.88679712959856,168.2810024645405 54.12762777071475,168.39824551627498 54.4291896169816,168.54479850175267 54.78520012993249,168.6937930925542 55.13702228389593,168.74997113368227 55.461620104528265,168.77439632673304 55.7087332841038,168.79393646274548 55.99982423292386,168.78905143027623 56.3055744381636,168.82568914883814 56.43541356641799,168.8745393506888 56.73488123319112,168.9087344310792 57.01968964354455,168.96979694988477 57.386171053942235,169.04795674058732 57.54114033604856,169.1090188947528 57.80291277203651,169.22137284056225 58.11703969522932,169.36792065184454 58.39975392609631,169.4973704522763 58.6363962082396,169.58774064166028 58.776706233926234,169.64635895558968 59.0552321058276,169.75871031203314 59.377735746973485,169.88571554132068 59.70652192657144,170.0200472425713 60.01855467027781,170.1519357963225 60.28660964473238,170.19101374305865 60.65099687562906,170.37419074537684 61.02166664499964,170.56225097072092 61.35254700409132,170.7283288696308 61.639449593945756,170.86754031478813 61.89703367094626,171.0067509288765 62.127393414630205,171.13374936069704 62.389165850618156,171.26074710089415 62.65722082507273,171.3926286375463 62.88339220976923,171.50741381239277 63.14307046627073,171.6417361719432 63.42578469715227,171.80047978125003 63.69802803058701,171.93480045288015 63.96398882554786,172.07888904058018 64.28230410771357,172.24251398447632 64.57130087704718,172.39636922782665 64.84773256945482,172.53068646764223 65.11788172340312,172.66744504436429 65.41106685170962,172.8286237660668 65.69796944156406,172.96538059588602 65.99115456987784,173.10702075292465 66.29062223664369,173.25842824555002 66.57752482648357,173.40495068976634 66.83301472402673,173.5417041406672 67.05080939076288,173.64671071059092 67.32305272419762,173.7834627441698 67.60786113455833,173.92753991229256 67.89266954491177,174.08138404162855 68.20889064759103,174.2425529937027 68.51673503231723,174.3939531162141 68.81620269909763,174.56000373371353 69.11148200689058,174.7382626400031 69.41094967367098,174.8774501541193 69.73345331480232,175.04349733035997 70.07689875082724,175.2168688561942 70.38683731504716,175.37558813758005 70.66536318694853,175.52453909646283 70.95017159730196,175.66860551272293 71.26848687945312,175.8273217211463 71.58261380265321,175.98603684995942 71.8569513155744,176.12033342340692 72.19202003364626,176.3083473277111 72.45798082861438,176.49147629759864 72.46635754656018,176.57693599170852 72.68205803382443,176.67704552103896 72.96686644417787,176.92121330361078 73.19722618784726,177.16049525191738 73.41711503408442,177.3851250522912 73.61815626492898,177.573128766604 73.82757421371934,177.79042987412504 74.10610008561343,178.07120920790658 74.36158998314204,178.33733606705027 74.6443042140163,178.63275774212343 74.90817082949798,178.90131965661385 75.15528400906624,179.1698784811124 75.41286808608129,179.4115787813771 75.66207544515055,179.66060071563516 75.90709444523964,179.90473728801953 76.13536000942258,180.13910599548035 76.35943721463991,180.38079626070976 76.55210172751686,180.598071232047 76.75942549683532,180.77384276295743 76.79712072761322,180.80557914833298 76.82643924044532,180.83487423500083 76.89973552252195,180.90322929427748 77.06936406104796,181.0789985277679 77.20129736878152,181.21326580074492 77.36673754833464,181.38170910580266 77.53846026633983,181.5770041701453 77.76253747154988,181.81623839784697 77.97823795880686,182.03350001145554 78.13320724092046,182.17264402791443 78.31749503585888,182.33619821523098 78.56460821542714,182.5876300302043 78.80334467704961,182.83661809172008 79.0441753181658,183.0880445187595 79.2954768567215,183.35167320496657 79.43578688240814,183.51521913491706 79.48604719012656,183.5689205337785 79.68080588249722,183.75199255644839 79.87556457488245,183.93262221235636 80.10801849804557,184.1718323093337 80.31743644683593,184.38907200931862 80.42842795969045,184.56237414133284 80.47449990842142,184.60142796537912 80.58130306230305,184.7625242993563 80.67344695977954,184.93338283340745 80.82213370342652,185.089595256577 80.83051042137959,185.14329303576778 80.71533054953761,185.29462247662195 80.58758560076967,185.45083248404444 80.5163834981795,185.57531158583697 80.44518139558932,185.71443450287734 80.38026183146576,185.90481188882586 80.34675495966803,185.96827067270897" stroke="red" stroke-dasharray="none" stroke-linecap="round" stroke-linejoin="round" stroke-width="0.5"><title>2024-05-01 52.5km</title><desc>1714541844000</desc></polyline><polyline fill="none" opacity="1" points="186.0,148.18010972687534 185.76044915783132,148.22319115607206 185.55314554442157,148.25819471003342 185.27098229281546,148.28781302673997 184.9853639810026,148.29454445275587 184.71932434378687,148.29319816783936 184.57651518787316,148.29319816783936 184.32775085177127,148.30127587521292 184.0294639858039,148.30262215927996 183.76112097510486,148.30800729411385 183.49277796439128,148.31608499210324 183.23364844762546,148.32012383917845 182.96300206344313,148.3053147269784 182.72575459475047,148.28108159717067 182.46317001775606,148.2541558433286 182.19137194683572,148.30800729411385 181.9840683334187,148.3793601158386 181.76985459955176,148.39147659304945 181.57521954028925,148.32147012125097 181.44968568549666,148.0374014522131 181.39210134843597,147.90411586531172 181.29075291520712,147.65638945421415 181.24007869858906,147.4907870474508 181.13642689189146,147.251130972174 181.089207735502,147.12456920314435 180.98670761553512,146.86201684252956 180.88420749556826,146.60888431455714 180.7782523153728,146.40152732530441 180.48572388310276,145.7094152728041 180.29915063102817,145.62054212859675 180.22198761937034,145.40104973615234 180.1310043668127,145.391623597764 179.92715581362427,145.56802588820847 179.71870051346195,145.5020436381601 179.60468352608586,145.45895300460688 179.39046979221894,145.42528834568293 179.12788521522452,145.44683373764474 178.94937377033784,145.49935047783492 178.68103075963882,145.58687789685519 178.5981093142691,145.62188869601687 178.38850232736877,145.69325656544515 178.10518738903193,145.78616885276733 177.87024329382984,145.88446662169372 177.76543980037968,145.95852608342102 177.57080474111717,146.05412947901914 177.4590911272171,146.13222749494707 177.19535486348468,146.23860160832191 177.0721243821681,146.2776501105509 176.78650607034797,146.36247920286496 176.6321800470323,146.4069132638333 176.3592302893594,146.49443444569624 176.20720763952704,146.54963980494995 176.01717932723113,146.73814410630257 175.75574643697473,146.86874902193995 175.62445414847025,146.91183488591923 175.38720667978487,147.0182024886244 175.09928499448142,147.14341890801006 174.93459379049455,147.21477825233796 174.6996496952852,147.33326080912502 174.56375065982138,147.3871161524712 174.37832909449207,147.5069434745792 174.12841307165218,147.67523837219505 173.96832861461735,147.79775565932323 173.80133403714717,147.87045766831125 173.4995921109512,147.98489517533835 173.31992897931923,148.05086456527715 173.07346801670064,148.08990751271358 172.84197898171988,148.11683361365158 172.63352368155756,148.15183745980266 172.36518067085854,148.13972075470974 172.09798934689752,148.06702028217387 171.964393684917,148.01316781285368 171.73175296319823,147.84353104668753 171.5163875425933,147.75063376524486 171.3286626037734,147.9377739734 171.09371850856405,148.06028873595733 170.884111521671,148.14106705584436 170.60655501703877,148.24607810607995 170.32208839195664,148.3443568947314 170.1032679111304,148.42513341373706 169.96621718892857,148.4951393160045 169.75315514180693,148.5934161836949 169.57234032343695,148.63514996672893 169.31551418014715,148.6714986341276 169.0932386390923,148.71861712274313 169.00225538654195,148.7320795160631 168.73851912280224,148.8236234134456 168.54503575027775,148.93535992639136 168.29051298047852,149.07940434689044 168.0198665962962,149.2019081336539 167.89202936801303,149.27729449406525 167.6352032247305,149.410565718802 167.37837708143343,149.55998937418462 167.2263544315938,149.66633487266063 167.06972503479483,149.72152649047166 166.7979269638672,149.78614076374743 166.4789097365574,149.8884460265299 166.29463985795883,149.94229057186203 165.99865636547474,150.02036475857585 165.74528528240626,150.1172837733493 165.47118383800262,150.25593052724162 165.25121167043108,150.36227021951254 165.08306540620833,150.44438000788614 164.85618311819417,150.54533394084228 164.65463793848176,150.62744255009602 164.46576131292386,150.7055125405559 164.29300830174907,150.78223603089918 164.27112625366863,150.799734306137 164.09376649551268,150.86165108721707 163.8599740870559,150.98279174569961 163.62848505206784,151.10258526491998 163.38663083641586,151.22506960955252 163.13556312683068,151.37178007794682 162.94323144105147,151.4552293159495 162.74168626133905,151.5575211852056 162.5125005998343,151.6759633770307 162.3316857814716,151.76748613536256 162.145112529397,151.8078636140208 162.03109554201365,151.56694276346843 161.90786506070435,151.32870928980537 161.8076683142208,151.15507869956127 161.6821344594282,150.9814457447028 161.54047699025978,150.77146784958222 161.41954988243378,150.5937915446848 161.3135947022456,150.53052741403553 161.1108978357879,150.66782363933453 160.88056048754515,150.7849280748078 160.72508277749148,150.85895905951293 160.42909928500012,150.92625958165354 160.2264024185497,150.88991734382307 160.03982916646783,150.80915644439483 159.75305916790967,150.63955689029808 159.41446326599544,150.5561023131695 159.11387302653748,150.51033666795502 158.83746820865053,150.49418404806056 158.57488363165612,150.4564945220527 158.34915303038724,150.40669033463018 158.16373146504338,150.38515332845145 157.96909640578087,150.3663084181935 157.69845002159855,150.33938706950175 157.42089351696632,150.31111959218651 157.14679207256268,150.2909284985817 156.88075243533967,150.2640069906911 156.6388982196804,150.23170110617684 156.39358894380712,150.21958637836997 156.15979653534305,150.25862268229412 155.9536446086713,150.36227021951254 155.86726810308028,150.26804522050315 155.75209942895162,150.08497751697178 155.6173520802331,149.86960038192774 155.4964249724144,149.6757578487177 155.39968328615214,149.53306632242038 155.2891213589901,149.3486418887178 155.1900762992518,149.18710004617697 155.0369019626669,148.9542069524914 154.87681750563934,148.70515471520503 154.73170497624233,148.48167667236157 154.63381160324207,148.3322403727134 154.40923268871848,148.39147659304945 154.2871538941472,148.46552148121373 154.05796823264973,148.5839924073207 153.87485004078917,148.6607286694125 153.68712510197656,148.73881070738662 153.4452708863173,148.8263158710597 153.1930514899941,148.943437226706 152.96501751523465,149.0659423204852 152.90167474447662,149.10632835703382 152.70588799846882,149.18440766478307 152.4928259513399,149.26652504130743 152.2889773981442,149.3405648452217 152.06670185709663,149.42268121557936 151.75229137674614,149.7982559035181 151.6048754738731,149.85883142964576 151.465521378188,149.89248437532206 150.67431258697616,149.8238322718853 150.47161572052573,149.85883142964576 150.21594126398122,149.90325329917505 149.9326263256371,149.94363668258302 149.68271030280448,149.97190497484462 149.44776620759512,149.99209657379288 149.21397379913105,150.00286541348032 148.9836364508883,150.01363424407646 148.7175968136653,150.01498034726228 148.40088295983878,150.02305696338226 148.32602332165698,150.03113357438815 148.06804549162916,150.0270952695264 147.73751139690285,150.03113357438815 147.4518930850827,150.03517187797297 147.1282691108063,150.04055628075912 146.8173136906771,150.024403065574 146.5040548970719,150.02171086105227 146.23801525985618,150.0190186559612 145.94548682758614,150.01767255320556 145.6702336964372,150.0190186559612 145.38576707135508,150.01632645030622 145.10936225346813,150.02036475857585 144.85829454389022,150.01632645030622 144.5749796055461,150.0190186559612 144.3170017755183,150.01498034726228 144.02562502999353,150.01632645030622 143.85517539229477,150.008249829918 143.59374250203837,150.01632645030622 143.27933202169515,150.0190186559612 142.99256202312972,150.0190186559612 142.72076395220938,150.02305696338226 142.4766063630741,150.02978747291036 142.2128700993344,150.02171086105227 142.05048226882354,150.01498034726228 141.74413359566825,150.0190186559612 141.45851528384082,150.02036475857585 141.1936273333631,150.02171086105227 141.01511588847643,150.02844137128704 140.72949757666356,150.0190186559612 140.4312107106889,150.03247967572406 140.1663227602112,150.0338257769181 139.93253035174712,150.02978747291036 139.62042324487993,150.03247967572406 139.32904649935517,150.03651797888233 139.06185517540143,150.03113357438815 138.80733240558766,150.03247967572406 138.55626469600975,150.03247967572406 138.29713517922937,150.0378640796498 138.0748596381818,150.03921018027722 137.8007581937709,150.03651797888233 137.48865108691098,150.03651797888233 137.26637554585614,150.04728678104493 137.00609434234502,150.04055628075912 136.67901530784002,150.04190238110277 136.42334085128823,150.01363424407646 136.25058784010616,150.0526711787179 135.92926723931305,150.04997898016427 135.73808724027185,150.0526711787179 135.49047459091526,150.05132507951294 135.17145736360544,150.05670947547333 134.89620423244924,150.04459458135807 134.62325447479088,150.04863288067645 134.3664283314938,150.05805557410986 134.08196170641895,150.06074777095637 133.81707375594124,150.06074777095637 133.55909592590615,150.06209386916635 133.37367436057684,150.07420874664967 133.10072460290394,150.07017045543398 132.8220164115337,150.06613216293954 132.59858918374812,150.06747826057835 132.35558328135085,150.06747826057835 132.0676615960474,150.07286264972208 131.79125677815318,150.07286264972208 131.7578578626635,150.0647860651552 131.71985220019997,149.86152366856732 131.53212726138736,149.86286978781754 131.25341907000984,149.85479307019523 131.06339075771393,149.82921676395108 130.8641489514921,149.84133186277904 130.56240702529612,149.82787064114927 130.2825471471806,149.81979390134438 130.01305244973628,149.80229428088114 129.73204088488274,149.78614076374743 129.46600124765973,149.77671786929568 129.17923124910158,149.7834485088988 128.89591631076473,149.7928713983738 128.62872498680372,149.80229428088114 128.3730505302592,149.81171715642358 128.1001007725863,149.8171016536071 127.85133643649169,149.82114002500293 127.61063390757772,149.82787064114927 127.42866740246245,149.82921676395108 127.26512788521359,149.83863961959287 126.97259945295082,149.84671634745246 126.70540812899708,149.85479307019523 126.64552041845309,149.95305945363452 126.6328518642913,150.2720834490301 126.62248668362736,150.54129579887285 126.59945294880163,150.8185785756923 126.56144728633808,151.01509572688883 126.49349776860618,151.2196857070412 126.36911560055887,151.4861861524514 126.23667162532365,151.76748613536256 126.11689620423567,152.02186211643857 126.00518259033561,152.30315028276527 125.95681174720812,152.58039474859834 125.97639042180526,152.88185761931527 126.03973319257784,153.2398355238929 126.09040740918863,153.52378829538065 126.1399299390614,153.7888948930722 125.98214885551715,153.92615604287585 125.71150247132755,153.9624896294381 125.44546283410455,154.0001687950944 125.18172657037212,154.03515649212386 125.0354623542371,154.0741811179205 124.88459139114275,154.08360083729895 124.64158548874548,154.11724263544056 124.41009645377198,154.16568666890907 124.17630404530064,154.17376065660483 124.06689380488388,154.16703233388125 124.1475118767703,154.1777976485355 124.3997312730935,154.17376065660483 124.6588607898666,154.12127964525462 124.89841163203528,154.0903292040266 125.12990066702332,154.05803301138167 125.30956379864801,154.0338108132455 125.57675512260903,153.99209469753623 125.84394644657004,153.9557611952905 125.98099716877186,153.93423018216436 125.91880608474457,153.75121510340068 125.85776668746257,153.50629375758945 125.81630596477771,153.3300013068574 125.78060367579747,153.18735067017678 125.71380584481085,152.92896054920857 125.64700801382423,152.63691957963783 125.58712030328024,152.37986416041713 125.53068765295757,152.12953296089563 125.490378617018,151.95591327526563 125.40515379816497,151.70153597857552 125.28998512405087,151.48080236019723 125.15063102835848,151.2344914334799 125.14717596813716,150.96663972440638 125.19209175104334,150.76339170762458 125.25773789529194,150.54129579887285 125.32453572627855,150.29631279333626 125.39133355727245,150.05940167260178 125.45813138826634,149.83863961959287 125.50419885791052,149.6421043308119 125.30495705168141,149.5546047683847 125.06425452277472,149.4926816381403 124.80512500599434,149.42806587711766 124.5356303085573,149.35941127208298 124.2811075387508,149.2961410144908 124.02543308220629,149.23287044278823 123.81928115552728,149.17902290029906 123.59124718076782,149.11979034077285 123.31714573636418,149.0430568429656 123.05110609914118,148.97170773748712 122.8679879072879,148.9259364028885 122.57891453524644,148.85054796399345 122.31057152454741,148.78323648096102 122.047986947553,148.7145784019758 121.76812706943747,148.64322745733625 121.54585152838263,148.5934161836949 121.31090743318055,148.51802577755552 121.0978453860589,148.36185851730443 120.92739574836014,148.19626527989476 120.72469888190244,147.99970465995557 120.53236719612323,147.81121902562336 120.35615912471985,147.6442722779302 120.13388358366501,147.5069434745792 119.84711358510685,147.44770314159632 119.59604587552167,147.4854015671881 119.46245021354116,147.54464172487042 119.22405105811049,147.7196678542341 118.99256202312972,147.91757911921923 118.7783482892628,148.057596116475 118.54225250731542,148.15453005936797 118.29348817122082,148.2070356371878 118.06545419645408,148.22588374055795 117.8927011852793,148.22857632447722 117.68079082489567,148.24338552586232 117.42511636834388,148.26088728712512 117.17520034551126,148.28377416942476 116.92989106963068,148.29858330665593 116.66845817937428,148.3174312746014 116.40932866260846,148.33493293415813 116.20202504918416,148.34301061507722 115.94750227937766,148.37128245796248 115.68261432889994,148.39013031837112 115.45112529392645,148.41840205671178 115.20351264456258,148.4359035775824 114.94438312778948,148.45205880627964 114.68870867124497,148.51533325479977 114.45721963625692,148.64053496103588 114.26719132396101,148.8128535773003 114.1416574691757,148.9865160752488 114.05297759009409,149.19517718693805 114.0092134939332,149.39979637865872 114.0069101204499,149.69998832658894 114.02764048178506,149.98671215052946 114.05182590335608,150.28419812694028 114.0725562646985,150.56552463149364 114.09443831277895,150.83069273426736 114.11747204760468,151.11335316657187 114.13935409568512,151.41215880969776 114.15202264983964,151.72980037325215 114.14856758961105,151.96398866189793 114.14396084265172,152.28161647977413 114.12092710782599,152.5951988952247 114.09904505974555,152.89396981790196 114.08061807188642,153.1631268186984 114.06219108402729,153.44438981581152 114.03915734920156,153.71757233999597 114.01842698785913,154.00958856911984 114.05182590335608,154.29621551021046 114.17044963769877,154.5505410661226" stroke="red" stroke-dasharray="none" stroke-linecap="round" stroke-linejoin="round" stroke-width="0.5"><title>2024-04-21 79.4km</title><desc>1713660889000</desc></polyline><polyline fill="none" opacity="1" points="19.18634889974055,194.42950054998437 19.46085344417952,194.42950054998437 19.983031261814176,194.28713890345352 20.484569640015252,194.40054571074506 20.614598108440987,195.04719503889282 20.72192319349415,195.7613834595395 20.75701024052978,196.35491494698 20.841631942195818,196.46831148391902 21.568140210212732,196.3042482271685 22.04697520503396,196.56481873137272 22.121277186990483,197.09318868180344 21.90662701689871,197.35375018383093 21.87360391380207,197.47196692195575 22.13159690671455,197.22829501692286 22.05523098080448,196.56481873137272 21.555756546549674,196.2825338842722 22.051103092926496,196.15466011276476 22.515490480145672,195.9688799612086 23.204847757187963,195.6938260520892 23.987082511666813,195.3946408448337 24.589754143082246,195.24504677100595 25.28943113983405,195.0447822023052 25.634109778351558,195.31019269782882 25.79716134985938,195.99059460239187 25.968468697145,196.69510286846162 26.168671259641997,197.30791087582475 26.399832981289364,197.98342820729158 26.668145693896804,198.75301110514738 26.909627135253686,199.46708364266487 27.169684072105156,200.21731824173912 27.355439026992826,200.77937496491904 27.644391179041122,201.60675519636789 27.85284951730864,202.19289857021613 28.10671462232858,203.00093165713042 28.304853240872035,203.5532721626878 28.49680002758396,204.10801119916687 28.705258365858754,204.73026766112707 28.946739807215636,205.4320947377455 29.173773640970467,206.09772525120752 29.41525508232735,206.79709875153821 29.59894609326875,207.3155859851886 29.856939086166676,208.08003176178136 30.07778108810453,208.71423709486044 30.341965912833984,208.88062265369263 31.00036403071863,208.6515407731531 31.43792014667997,208.9167932671644 31.803238224616507,209.5726771339996 32.10251009638159,209.96089364927684 32.31509632253437,210.85545444613126 32.484339725888276,211.34973853247902 32.77122793399758,212.05618456382763 33.09320318913524,212.86386916793526 33.38009139724454,213.5582140353563 33.567910296071204,214.04279640681125 33.809391737428086,214.63344263434192 34.03229768329766,215.2071986582214 34.22218052607059,215.85567029348385 34.41412731278979,216.4896601150267 34.65767269809294,217.22487346958405 34.88883441973303,218.01309237858004 35.09729275800055,218.8711836398379 35.188106291498116,219.36770490592426 35.20874573093897,219.95580354462618 35.247960665859864,220.47640285117632 35.324326591748104,221.19220757420953 35.44816322834231,222.01161986020452 35.557552257334464,222.66230873446875 35.664877342387626,223.33225796627994 35.73711538038333,224.01182673847143 35.801097642637615,224.56847975659002 35.83205680178071,225.16849318891036 35.91874244740029,226.03836427991155 35.97240498993051,226.69134830449002 36.017811756675655,227.1756528517235 36.06941035525233,227.83342323594115 36.10656134623423,228.3032476677945 36.13339261749934,228.84052226638232 36.158159944810905,229.59943129712337 36.19118304790754,230.2715868880241 36.18705516001501,231.26171568218706 36.193246991846536,231.98441043716593 36.18705516001501,232.69022033072542 36.23246192676743,233.2322097705637 36.28406052535138,234.00301713602312 36.26548502986407,234.60037502852902 36.213886431280116,235.27479266341834 36.55443718191236,235.39763088382642 37.303648833294574,235.46266261659366 38.04666865285253,235.5228770196045 38.63695662061946,235.56382272337942 39.40887165538152,235.63367110821855 40.15395541887847,235.6890679518765 40.71947605932655,235.73964756187343 41.45424010310671,235.79986123791605 42.12295794070815,235.8552576802922 42.84327437689353,235.9154710529092 43.44594600831624,235.9564160560185 44.07544891099678,236.00458655436523 44.65128927115438,236.05275695157252 45.25189695863082,236.10333575980076 45.798842103577044,236.14187191979363 46.30863625755592,236.29119892843119 46.30863625755592,237.00410157446277 46.28593287417607,237.86870715757323 46.28799681811506,238.5261709362985 46.26735737868148,239.20769775575354 46.261165546864504,239.92532603126165 46.23639821953839,241.08119017687204 46.21988666799734,241.919155292695 46.11462552689045,242.8028382449229 45.85044070215372,243.3927439024319 45.51814572729927,243.92725757499102 45.47686684843211,244.1295027473916 45.69358096247015,243.7514954429298 46.13939285420929,243.80687269818372 46.67189039156074,244.20414039679417 47.208515816797444,244.66399927254497 47.825635055822204,244.86864554989734 48.184761301934486,245.25144957317934 48.849351251657936,245.46090567788087 49.65016150161682,245.7738825049073 50.28172834825091,246.07241027393684 51.01855633597006,246.35648954839053 51.563437536984566,246.67667638379862 52.149597616858955,246.94630394177693 52.791484183202556,247.13648576247215 53.36938848729915,247.34351734713346 53.79043305171217,247.54332513064037 54.23418099950504,247.7527603396411 54.96068926751468,248.06089142941346 55.604639777797274,248.11385104431247 56.271293671459716,248.14995980267122 56.84094219980034,248.25587849982367 57.56538652386371,248.4340133893893 58.1515466037381,248.69399156053623 58.79343317007442,248.95155962574245 59.50136594258947,249.25004610854558 60.16182800442766,249.51723636501083 60.85324922540167,249.78683059227478 61.53435072666616,250.13104005356945 62.027633329096716,250.39340604073186 62.47757310872839,250.61244324060317 63.022454309728346,250.89165246898847 63.63131777296803,251.2238107541325 64.16381531032675,251.5006056584698 64.73139989471383,251.77739722973638 65.34232730190706,252.0951017075622 65.95944654092455,252.3983609767929 66.58482155571255,252.72087041329178 67.07397627025784,252.97357986990392 67.74269410785928,253.31052149111747 68.37838884237135,253.6306114575309 68.95216525858996,253.95551024972883 69.42893630946492,254.184139981091 69.99239300596673,254.47774535452845 70.53727420698124,254.76653386792168 70.97689426688885,254.98312287290537 71.52796729972033,255.26227902584833 72.08936005227588,255.58234182436536 72.45467813023424,255.83742627854008 72.93557706900174,256.28742686089936 73.36694135313155,256.71576148220265 73.90150283442199,257.24996539383574 74.46289558698481,257.8346878860175 75.00571284404577,258.39052141372304 75.52995460561942,258.90062521438085 75.9737025534123,259.35778410475905 76.33489274347085,259.7475650371671 76.59288573637605,259.9881672550473 76.98090719769971,260.3683136315576 77.16459820864839,260.6257509655188 77.34003344381927,260.7628893041219 77.73631068092072,261.1767053018775 78.21514567574195,261.60494890652626 78.7104922221115,262.119793028447 79.26982103072805,262.7164204083274 79.74865602555656,263.18553188284204 80.10778227168339,263.7075575156887 80.2440025719261,263.7845372526026 80.35132765697199,263.99623020182844 80.53501866792067,264.19829892833513 80.68362263183371,264.4484767990707 80.7909477168796,264.5879978922767 80.79301166082587,264.7756283741637 80.63408797718876,264.95844634724745 80.54946627553,265.21823781184503 80.42356569498952,265.52372958024534 80.40086231161695,265.8099740944799 80.35545554485725,265.8773252277497 80.32243244176789,265.6079195126531 80.3575194888108,265.3601596886838 80.47929218144418,264.91274199006693 80.75792461378296,264.52304852304405 80.71045390309155,264.3185770901382 80.56184993919305,264.17183764840775 80.34307188120874,263.92887356550636 80.61138459381618,263.70034065215077 80.3699031524593,263.5776536259109 79.93853886833676,263.21199429654007 79.56496501460788,262.7909977434101 79.15630411385064,262.4084856273239 78.65063784775703,261.8960537736166 78.17180285294307,261.3980456880254 77.76933378401009,261.00829271238763 77.31113822861516,260.5439487603653 76.88183788842434,260.1108734174286 76.44840966035554,259.6489174005983 76.04800453536882,259.2615408827169 75.69919800896605,258.9126558278713 75.2348106217396,258.4290202083721 74.7828068981762,257.9886863988668 74.33905895039061,257.5339065674016 73.90150283442199,257.0935556231325 73.59603913082537,256.7927646131484 73.17499456640508,256.3692442026386 72.76220577776257,255.93609026143713 72.42578291502286,255.57512241184486 71.91805270499754,255.32725454079628 71.2720382507614,254.98071633961627 70.58887280555791,254.61973349351138 69.96143384682364,254.3116903170012 69.36908193511772,254.01086291956926 68.79943340679165,253.7292849094756 68.13277951313648,253.39475612485512 67.5301078817065,253.0818830723947 67.03063344744442,252.83158156476566 66.32476461887563,252.47537856687995 65.73447665111598,252.16249300201707 65.12974107575428,251.84478945559204 64.52087761250004,251.5246746230714 63.932653588679386,251.21658997288068 63.35474928457552,250.93738469174787 62.83257146694814,250.67261793000034 62.15972574146144,250.32600955926318 61.59626904495963,250.05642165696736 60.98327769382013,249.73628191556236 60.442524380705436,249.44743020140413 59.95956149799167,249.2091248039469 59.389912969658326,248.9106377895987 58.84915965653636,248.63140449186903 58.31253423129965,248.3738328379277 57.833699236478424,248.1258873034094 57.66858372102433,248.3329099728944 57.1918126701421,248.31365212883975 56.60978047815297,248.17884676849462 56.05251561348268,248.10181477892002 55.38586171982752,248.07533497286022 54.715079938279814,247.95497183339648 54.33944214061921,247.77201865381176 53.903949968589586,247.5673982402841 53.326045664492995,247.2905559565479 52.75846108009864,247.1075974860505 52.21357987909869,246.94148919170402 51.85445363297913,246.82352749974962 51.288932992531045,246.49852786822703 50.67387769745983,246.18315345976043 50.12280466462835,245.98574132131762 49.61713839852746,245.73536251017322 49.04748987020139,245.49461107953357 48.48403317370685,245.31404585056043 48.05060494563077,245.1744077668318 47.90819281354925,244.8517923959589 47.40871837929444,244.8180860509783 46.934011272358475,244.45453590030775 46.55630953074433,244.10542603454633 46.10636975111265,243.79242647055617 45.77201083231921,243.54683921050128 45.45622740901308,244.0307880643213 44.9773924141773,243.77316481958405 44.513005026958126,243.46738394640124 44.032106088183355,243.12548240052092 43.59042208433675,242.79320700642165 43.109523145569256,242.4344404939875 42.647199702281796,242.08289203072127 42.21377147421299,241.73615402717041 41.74732014304027,241.47850503608606 41.318019802856725,241.2545647792067 40.839184808020946,241.05951825951888 40.43671573910251,240.91503828765053 39.959944688220276,240.76092531541326 39.51826068437367,240.62848365328318 39.08689640024386,240.51289757827544 38.63902056455845,240.40935122520568 38.20559233648237,240.3756383582895 37.561641826199775,240.34914964241216 37.00024907364423,240.3226608959685 36.418216881662374,240.29858019086168 36.0425790839945,240.11315791536617 36.038451196109236,239.69896248758778 36.04670697187976,239.31365770492994 36.048770915826026,238.87777387208007 36.061154579489084,238.28534389938977 36.08385796286166,237.78200723159352 36.09830557045643,237.29551823790462 36.145776281147846,236.75362479040632 36.203566711563326,236.29842440419998 36.226270094943175,235.78540997007804 36.298508132946154,235.33259896671916 36.31089179660921,234.81233699312725 36.343914899698575,234.32819372447557 36.329467292096524,233.82477023523097 36.3005720768997,233.3381973193591 36.28406052535138,232.78416608460793 36.286124469283095,232.41319855955408 36.28406052535138,231.93623149541781 36.27786869351985,231.3050780097874 36.27374080562731,230.6690889862075 36.26754897380306,230.18003997390952 36.27374080562731,229.7222999200403 36.23658981465269,229.1585443469212 36.22214220705064,228.63091439194977 36.189119103961275,228.24060496661514 36.13545656143833,227.50092628021957 36.08385796286166,226.9443444939443 36.04051514004823,226.43834932206482 35.98891654147155,225.80945403641635 35.945573718658125,225.20463807462875 35.88778328824992,224.71065303452087 35.836184689673246,224.09375920036655 35.77426637137978,223.5009471310641 35.71234805307904,223.02861433931685 35.64630184689304,222.61893005123966 35.55961620128073,222.1007894285558 35.48531421931693,221.63565786273284 35.400692517650896,221.08375375124524 35.33877419935743,220.48845362089742 35.303687152314524,220.00159747689395 35.2665361613399,219.4713463361677 35.18604234755912,218.88082493197544 35.06220571096492,218.32162327659717 34.93630513043172,217.8299001905416 34.77738144680188,217.30441972833978 34.61845776317932,216.81749587231025 34.45127830377169,216.30163454723333 34.31299405958271,215.83879579975473 34.17058192749391,215.33737659433245 33.96418753317266,214.77326685654407 33.77224074645346,214.32004041211076 33.584421847619524,213.8258204943304 33.417242388219165,213.38462979388714 33.19640038628859,212.8783349009318 32.97968627225055,212.34791871042398 32.7794837097681,211.8440119386887 32.568961427554314,211.2942828010673 32.2634977239577,211.23400467964711 31.73925596238405,211.43412743103727 31.243909416014503,211.60531538322903 30.864143730461365,211.44377185676058 30.73824314992089,210.831342754067 30.62679017699702,210.28641173510732 30.511209316173336,209.75352415663474 30.33990196888044,209.23750353749165 30.19336194891366,208.81792678814963 30.022054601628042,208.28500499089205 29.85900303012022,207.83406146149537 29.677375963110535,207.2818243836664 29.493684952169133,206.75368998460908 29.303802109388926,206.21348510123062 29.107727434784465,205.620209673687 28.938484031437838,205.13062526589238 28.73828146894084,204.5349098986244 28.560782289830968,204.01153581221297 28.39153888648434,203.52191694553585 28.2119757634282,203.0371115748094 28.04686024797411,202.54264774181866 27.896192340114794,202.10606346359782 27.683606113962014,201.4716747561124 27.493723271189083,200.92169614717386 27.310032260240405,200.3910024822926 27.15317252054956,199.92542925203634 26.99218489298073,199.457434162563 26.849772760899214,199.0376778330101 26.641314422646246,198.42491623819114 26.461751299575553,197.8845144181396 26.261548737085832,197.30067308194157 26.048962510940328,196.6540875721348 25.929253762231383,196.14742195334293 25.79716134985938,195.60937901166835 25.65268527383887,195.04719503889282 25.559807796380483,194.80349725617998 24.963327996803855,194.99893825876825 24.377167916929466,195.1533595961264 23.80958333254239,195.34155918889337 23.347259889262205,195.51045493851416 22.728076706298452,195.7444941264148 22.25956143118674,195.95440352227888 22.082062252076867,195.97370543881334 22.086190139962127,196.00024554740048 21.621802752735675,196.1570728320603 20.953084915141517,196.2752957653829 20.79209728756541,195.82411515891 20.74462657686672,195.43807119880148 20.655876987308147,194.91690149846727 20.53616823860648,194.30644222959017 20.31739018062217,194.0796271166455 19.731230100740504,194.345048832889 19.29573792872543,194.31609388653123" stroke="red" stroke-dasharray="none" stroke-linecap="round" stroke-linejoin="round" stroke-width="0.5"><title>2024-04-05 108.1km</title><desc>1712276378000</desc></polyline></svg>