<?xml version="1.0" encoding="utf-8" ?>
<svg baseProfile="full" height="300mm" version="1.1" viewBox="0,0,200,300" width="200mm" xmlns="http://www.w3.org/2000/svg" xmlns:ev="http://www.w3.org/2001/xml-events" xmlns:xlink="http://www.w3.org/1999/xlink"><defs /><rect fill="#222222" height="300" width="200" x="0" y="0" /><text fill="#FFFFFF" style="font-size:12px; font-family:Arial; font-weight:bold;" x="10" y="20">Over 10km Runs</text><text fill="#FFFFFF" style="font-size:4px; font-family:Arial" x="10" y="280">Runner</text><text fill="#FFFFFF" style="font-size:9px; font-family:Arial" x="10" y="290">yihong0618</text><text fill="#FFFFFF" style="font-size:4px; font-family:Arial" x="65" y="280">SPECIAL TRACKS</text><rect fill="yellow" height="2.6" width="2.6" x="65" y="283" /><text fill="#FFFFFF" style="font-size:3px; font-family:Arial" x="70" y="285.5">Over 20.0 km</text><rect fill="red" height="2.6" width="2.6" x="65" y="287" /><text fill="#FFFFFF" style="font-size:3px; font-family:Arial" x="70" y="289.5">Over 40.0 km</text><text fill="#FFFFFF" style="font-size:4px; font-family:Arial" x="120" y="280">STATISTICS</text><text fill="#FFFFFF" style="font-size:3px; font-family:Arial" x="120" y="285">Number: 5</text><text fill="#FFFFFF" style="font-size:3px; font-family:Arial" x="120" y="290">Weekly: 1.2</text><text fill="#FFFFFF" style="font-size:3px; font-family:Arial" x="141" y="285">Total: 317.5 km</text><text fill="#FFFFFF" style="font-size:3px; font-family:Arial" x="141" y="290">Avg: 63.5 km</text><text fill="#FFFFFF" style="font-size:3px; font-family:Arial" x="167" y="285">Min: 18.7 km</text><text fill="#FFFFFF" style="font-size:3px; font-family:Arial" x="167" y="290">Max: 108.1 km</text><polyline fill="none" opacity="1" points="74.17518248176202,36.611464507339406 74.35497502877843,37.258207475359086 74.47944679216016,37.74326290702447 74.60391855548369,38.17981148051331 74.68689973105211,38.71336915626307 74.79754129849607,39.27926162738004 74.90818286588183,39.84515200511669 75.03265462926356,40.45954490234726 75.10180560889421,41.00926277146209 75.1986169804004,41.542810578932404 75.29542835184839,42.07635652560566 75.3784095274168,42.626068585101166 75.4752208989812,43.22428240557201 75.58586246636696,43.85482957601198 75.69650403375272,44.55004523888056 75.82097579713445,45.293760822707554 75.91778716864064,46.005137563479366 75.98693814827129,46.68417591243633 75.8901267767651,46.91052135900827 76.12524010753259,47.541053337423364 76.18056089128368,48.43026068563631 76.24971187085612,49.33563013069215 76.33269304648275,50.03082088990777 76.29120245866943,50.27332855116401 76.20822128310101,50.4188329634635 76.18056089128368,51.065517566137714 76.4433346138685,51.69603242224548 76.59546676906757,52.48821407154901 76.78908951207995,53.2803916195553 77.01037264696788,54.185732366953744 77.19016519392608,55.02640112192603 77.16250480210874,55.65689965734782 77.56358048407128,55.99639779266727 77.8263542066561,56.64305882391636 78.08912792929914,57.30588354500651 78.33807145594619,57.85554089221114 78.33807145594619,58.421362569744815 77.8263542066561,58.64769065497967 77.2316557817976,58.80935336809489 76.55397618137067,59.05184711748734 75.86246638494777,59.29434048268013 75.21244717633817,59.53683346362959 74.79754129849607,59.71466140537814 74.71456012292765,59.90865528807626 74.7422205148032,60.47446937454515 75.03265462926356,61.20194155476929 75.29542835184839,61.96174213985796 75.50288129079854,62.72153895281372 75.79331540531712,63.481331993680215 76.49865539756138,63.85314423483214 76.85824049176881,64.46744074120943 77.20399538992206,65.21105952897051 77.52208989625797,65.93850919490797 77.86784479441121,66.61745909700403 78.18593930080533,67.31257135269698 78.50403380714124,68.00768045149744 78.82212831347715,68.70278639352182 79.14022281981306,69.41405432221654 79.45831732609076,70.09298880730057 79.79024202842265,70.7557552807557 80.10833653470036,71.45084874298482 80.42643104103627,72.1297741936869 80.74452554743038,72.82486141640402 81.0626200537663,73.55227489740355 81.3807145601022,74.24735566071467 81.68497887050034,74.89393958366418 82.14137533615576,75.2980531485955 82.40414905874059,75.92846817965619 82.55628121393966,76.28408576980291 82.57011140987743,76.76901751590776 82.00307337683626,77.0114828129008 81.40837495191954,77.25394772586878 80.70303495967528,77.57723367909784 79.95620437950129,77.99750439758645 79.1678832116304,78.33695298178645 78.32424126012484,78.72489329919335 77.59124087588862,79.19365320446377 77.25931617361493,79.32296602918359 76.56780637725024,79.67857573389483 75.80714560119668,80.01802059062175 75.14329619664932,80.34130070677202 74.5071071840357,80.64841618477658 73.69112562423106,81.05251455934194 72.93046484823572,81.40812024661864 72.23895505187102,81.71523358453123 71.61659623507876,81.99001868047344 71.32616212061839,82.1516567417857 70.73146369570168,82.41027728498739 70.17825585859828,82.7335523495858 69.59738762967754,83.10531782999169 68.93353822513018,83.55790067464113 68.1867076450144,84.09130016683775 67.45370726077817,84.62469780071115 66.78985785628902,85.0449491731124 66.16749903949676,85.46519939193968 65.53131002688315,85.85312164704374 65.00576258159708,86.11173593773856 65.00576258159708,86.11173593773856 64.71532846719492,86.24104291929689 64.13446023815777,86.5643098953733 63.429120245797094,86.85524959022587 62.7376104494906,87.09769891366886 62.05993084900547,87.34014785318868 61.27160968113458,87.63108607383037 60.59393008064944,87.85737097435049 59.93008067610208,88.08365554046759 59.086438724480104,88.37459234827838 58.27045716479188,88.66552860332013 57.426815213111695,88.97262738393329 56.679984633112326,89.24739945495094 55.905493661121,89.50600801261317 55.03419131768169,89.79694211784226 54.287360737565905,90.05554974729603 53.63734152901452,90.23334223919665 53.07030349591514,90.42729744942335 52.76603918557521,90.50811204787169 52.171340760658495,90.76671847621037 51.5213215520489,91.00916160609631 50.80215136386687,91.26776718818292 50.027660391817335,91.57486074966437 49.23933922400465,91.8011398219387 48.39569727232447,92.10823231370887 47.579715712578036,92.39916147469194 46.819054936640896,92.72241544967983 46.05839416058734,93.01334344371571 45.25624279672047,93.27194564104138 44.48175182478735,93.54670999718655 43.651940069161355,93.80531129371957 42.86361890123226,94.08007469282893 42.58701498270966,94.12856230030593 42.0614675374818,94.33867508867115 41.27314636961091,94.59727504779585 40.498655397619586,94.93668683138094 39.72416442568647,95.21144820046902 39.004994237446226,95.47004668567388 38.3688052247162,95.63167051717755 37.51133307721466,95.90643063925381 36.65386092977133,96.26200183013862 35.990011525165755,96.69838352689112 35.49212447175523,97.10243954476027 35.035728006099816,97.5873053589603 34.86976565502118,97.79741340164037 34.34421820973512,98.24995282225427 33.66653860924998,98.68632885420811 32.85055704956176,98.94492147155688 32.14521705725929,99.09037962694129 31.42604686896084,99.18735165377439 31.066461774869822,99.20351365224633 30.319631194754038,99.41361947756377 29.406838263501413,99.55907718774688 28.480215136427432,99.75302058643138 27.58125240105437,99.89847797430411 26.709950057673268,100.04393522393366 25.880138301989064,100.18939233545098 25.008835958549753,100.30252554889012 24.123703419114463,100.46414428026765 23.280061467492487,100.60960099268414 22.574721475190017,100.73889573221095 21.73107952362625,100.86819036255474 20.85977718018694,101.01364669116447 20.057625816436484,101.12677929570782 19.20015366881853,101.22375003309571 18.398002305009868,101.40152955883241 17.5543603534461,101.54698538093362 16.724548597761896,101.6924410648644 15.936227429891005,101.8378966106684 15.1064156742068,101.96719031315297 14.387245486024767,102.08032221329631 14.0968113715644,102.14496897593199 14.207452938950155,102.11264559804113 14.580868228978943,102.50052568226238 14.898962735256646,103.08234396671469 15.064925086509902,103.42173694522353 15.34152900497429,103.8419367337774 15.59047253173776,104.3591041215841 15.618132923555095,104.68233285220049 15.74260468693683,104.98939951446664 15.922397233953234,105.34494961741439 15.770265078754164,105.03788366803201 15.604302727617323,104.65001000987832 15.479830964293797,104.29445829364704 15.313868613156956,103.97122874444176 15.217057241592556,103.74496765412914 15.051094890513923,103.40557539185102 14.760660776053555,102.93688960278814 14.580868228978943,102.53284897826961 14.940453323128168,102.41971741238376 15.701114099123515,102.27426241917419 16.36496350367088,102.17729234695435 17.111794083786663,102.04799882184307 17.87245485978201,101.91870518751966 18.64694583171513,101.75708799115091 19.43526699958602,101.66011759148387 20.209757971635554,101.5631471304223 20.956588551634923,101.43385308679717 21.73107952362625,101.28839715727372 22.45024971186649,101.15910288164741 23.127929312351625,101.04597030098375 23.8747598924092,100.91667582075752 24.690741452155635,100.78738123131916 25.52055320783984,100.6580865328142 26.295044179831166,100.528791725068 27.055704955826513,100.399496808197 27.788705340004526,100.28636366639694 28.52170572418254,100.14090664697869 29.22704571648501,100.04393522393366 29.94621590472525,99.9469637395232 30.527084133704193,99.84999219367455 30.845178640040103,99.88231604911562 31.329235497512855,99.78534446237609 31.84095274686115,99.65604891782277 32.40799077984411,99.57523914705962 33.09950057620881,99.42978145217057 33.83250096044503,99.15502765165002 34.52401075680973,98.79946317803115 35.00806761428248,98.4115737198008 35.40914329618681,97.9913590313954 35.78255858627381,97.52265667243046 36.225124855933245,97.07011510260054 36.79216288897442,96.73070804757299 37.52516327315243,96.42362482579483 38.271993853268214,96.21351489817607 39.01882443332579,95.89026829280192 39.80714560113847,95.6155081417528 40.63695735682268,95.34074749768479 41.48059930850286,95.04982392543752 42.32424126006663,94.75889980050852 43.14022281981306,94.46797512283956 43.887053399928845,94.20937494536338 44.68920476373751,93.9346117782552 45.43603534385329,93.67601070005912 46.169035727973096,93.40124657591514 46.84671532845823,93.1426445969555 47.5520553207607,92.91636750711768 48.27122550905915,92.67392739689967 49.004225893178955,92.43148690286034 49.737226277415175,92.17288328612631 50.48405685747275,91.91427923267474 50.912792931252625,91.8011398219387 51.35535920097027,91.67183753586141 51.82558586250525,91.49404671430239 52.0330388013972,91.42939545524132 52.53092585480772,91.28393002257508 53.07030349591514,91.08997589745559 53.78947368421359,90.81520713285136 54.522474068333395,90.5242749624158 55.28313484438695,90.24950518280093 56.016135228506755,89.974734909978 56.76296580868075,89.69996414416528 57.49596619285876,89.42519288526091 58.215136381099,89.16658419117448 58.7683442182024,88.98879046057118 59.280061467550695,88.81099652354897 59.570495581952855,88.69785481976578 60.24817518243799,88.48773429093126 60.91202458698535,88.24528716862551 61.52055320778163,88.03516601871524 62.07376104488503,87.82504458045878 62.64079907798441,87.63108607383037 63.276988090598024,87.42096408102952 63.96849788707914,87.14618873230938 64.66000768338563,86.83908628836798 65.00576258159708,86.67745317574008 65.61429120245157,86.37034979161399 66.22281982324785,85.96626545298204 66.85900883597787,85.5298531693843 67.43987706495682,85.15809357627586 68.03457548987353,84.72167898905172 68.47714175947476,84.36608099819568 68.98885900882306,83.99431857923628 69.50057625817135,83.6225552575197 69.99846331152366,83.2992820701038 70.56550134456484,82.97600820005755 71.27084133692551,82.58807865499693 71.96235113329021,82.28096706802899 72.77833269297844,81.90919958581799 73.58048405684531,81.53743120084982 74.39646561653353,81.16566191305174 75.07414521701867,80.81005566263048 75.69650403375272,80.51910447963746 76.41567422205117,80.17966073400748 77.16250480210874,79.8402162357379 77.89550518628675,79.54926320958475 78.64233576640254,79.20981731353095 79.37533615058055,78.90269894945959 79.98386477131862,78.57941579536418 80.73069535149261,78.23996774882835 81.40837495191954,77.93284743904951 82.0307337687118,77.62572651318624 82.76373415288981,77.23778341030993 83.57971571257804,76.84983932426258 84.32654629269382,76.55888061450969 84.71379177871859,76.39723664797202 85.19784863613313,76.1224415130273 85.84786784474272,75.79915248746693 85.82020745286718,75.31421766898711 85.10103726462694,75.58901425474323 84.50633883982664,75.8476458848454 83.89781021891395,76.13860594636935 83.24779101030435,76.49422304840118 82.68075297732139,76.54271622556553 82.39031886286102,75.8476458848454 82.01690357277403,75.07174968367326 81.57433730305638,74.29584954965685 81.27007299265824,73.55227489740355 80.88282750674989,72.76020227305708 80.52324241254246,72.01662016102637 80.19131771026878,71.40235395269701 79.8593930080533,70.72342527547153 79.54129850171739,69.9959983509325 79.20937379944371,69.22007248767477 78.86361890123226,68.44414269081608 78.50403380714124,67.73287025488389 78.18593930080533,67.08625608118018 77.86784479441121,66.43963917570363 77.59124087588862,65.7606884847919 77.42527852475177,65.3565497387608 77.30080676142825,65.14639716915553 77.07952362654032,64.75842243623629 76.78908951207995,64.20878988110053 76.4018440261134,63.67532110174943 75.79331540531712,63.3358400012512 75.54437187855365,62.49521689231915 75.28159815591061,61.76775085969712 75.0603150211391,61.007949311475386 74.78371110250009,60.425971106262296 74.81137149437563,59.79549221973866 75.57203227042919,59.53683346362959 76.37418363423785,59.32667290234531 77.12101421435364,59.06801335378259 77.90933538222453,58.77702083913027 78.57318478671368,58.61535809186171 78.68382635415765,57.92020633263746 78.42105263157282,57.25738427249598 78.25509028037777,56.74005774287798 77.95082597003784,55.899398402296356 77.63273146364372,55.12340106569172 77.3699577410589,54.28273284363968 77.19016519392608,53.42589317234524 77.02420284290565,52.698384024814004 76.9965424509719,51.87386947602499 76.94122166727902,51.13018587608531 76.96888205915457,51.01701631570177 76.84441029577283,50.46733440342359 76.54014598537469,49.82064727257239 76.47099500574404,48.9476153102587 76.41567422205117,47.92907172490959 76.36035343830008,47.282373865760746 76.34652324242052,46.79734867757361 76.29120245866943,46.15064603484643 76.22205147903878,45.47160531800182 76.12524010753259,44.824897071448504 76.00076834420906,44.14585047046421 75.87629658088554,43.5153044994222 75.77948520932114,42.85242003548774 75.64118325005984,42.12486061031814 75.46139070298523,41.07393533203867 75.32308874378214,40.15234876217437 75.18478678446263,39.23075664040516 75.04648482520133,38.34149582119426 74.86669227806851,37.516903896976146 74.59008835954592,36.51445282630448 74.25816365733044,35.560501352360006 73.9953899346292,34.94608877875726 73.9538993468741,34.80056964987307 73.8155973876128,34.655050382585614 73.42835190164624,35.04310145445925 72.83365347678773,35.36647659573646 72.11448328848928,35.68985105340835 71.3676527083735,36.02939349820372 70.6761429120088,36.33659791792161 69.87399154820014,36.643801720652846 69.0580099884537,37.031847747581196 68.32500960427569,37.322881621774286 67.75797157123452,37.35521868473734 67.45370726077817,36.67613892717054 67.0802919708076,36.49828420682752" stroke="#4dd2ff" stroke-dasharray="none" stroke-linecap="round" stroke-linejoin="round" stroke-width="0.5"><title>2024-05-25 18.7km</title><desc>1716643451000</desc></polyline><polyline fill="none" opacity="1" points="180.32691927073756,105.051805889967 180.45733982529055,104.85637173048599 180.50909401361423,104.87326116758413 180.48632217075647,104.87808671876519 180.5774095421948,104.87084839160707 180.5732692071324,104.87808671876519 180.53807635908015,104.83706950152919 180.55877803439944,104.83948228102781 180.66021624350833,104.7212557889743 180.7347422746825,104.86119728520316 180.58362004479568,105.12177574250563 180.58983054739656,105.17003068970735 180.53807635908015,105.31479492630933 180.60846205519192,105.42336750823051 180.70575992922386,105.45232011054031 180.67677758376522,105.52470145749976 180.6333040655736,105.59708257759667 180.5753393746636,105.68152693100092 180.4697608304923,105.76597097562808 180.50081334348215,105.95415945002969 180.49253267336462,105.90590614124267 180.5194448512848,105.73460608081587 180.53807635908015,105.5994952776964 180.43870831749518,105.59708257759667 180.49460284088855,105.42095478973533 180.58776037986536,105.2375874463869 180.54221669414255,105.16037970833713 180.4180066421759,105.33168402813317 180.11369201487105,105.20622183393425 179.86941224600014,105.08558446593997 179.64583415247034,104.98907411778418 179.83835973300302,104.62956952127024 180.01846430836304,104.37381116615506 180.27723524995235,104.06255425203199 180.4159364746447,103.93225941426317 180.5194448512848,103.79472517672366 180.3600419512586,103.70303522989161 180.07021849667944,103.41589856714927 179.780395042093,103.09738985614422 179.66239549272723,102.96950254644253 179.44502790179104,102.79335471472041 179.1986779653962,102.57377128909684 178.88815283549047,102.22146824256379 178.63145206143236,101.91983464966142 178.31678659644967,101.55786913544398 178.06215598993003,101.31414249156114 177.84271823146992,101.10178450582862 177.6025787976614,100.90631690576811 177.3438078560721,100.64327764614245 177.15956294565694,100.45745911460108 177.04156339629844,100.33197042880602 176.86973949107778,100.16304227430555 176.61924921962054,99.88551476471184 176.526091680651,99.77691613509523 176.31700475983962,99.60074393787363 176.0665144883751,99.34251650609258 175.83879605977563,99.10841998203796 175.57381461558543,98.83087978913318 175.31918400905852,98.56781687264447 175.06662357007008,98.3071644194606 174.81199296354316,98.04409553213372 174.57185352974193,97.79791826035398 174.3172229232223,97.55897898463991 174.07915365695953,97.32245079976019 173.90525958420767,97.15591419445809 173.6941024958578,96.93869072870075 173.34424418283743,96.58147435993124 172.99231570226402,96.21218405566833 172.68386073989677,95.90081704863223 172.54101918013475,95.74875256419546 172.27603773595183,95.63289323653225 171.89719707745826,95.4373793014729 171.55354926701693,95.24910505694606 171.145726263072,95.03669124376029 170.80000828511402,94.84841372847404 170.4522201396103,94.67944541899124 170.0713093135928,94.4863372637974 169.68418798496714,94.28839972667447 169.36538218492933,94.12908291406893 168.99896253163024,93.95769541714435 168.6346130458769,93.77906483942752 168.28682490038045,93.59319101258006 167.92661574968224,93.4097296624168 167.5871082743106,93.23350883335843 167.375951185968,93.12729288865557 167.1047592391842,92.99210825144655 166.75904126122623,92.81347019383247 166.38227077026386,92.62517452681459 165.993079274107,92.42480693605467 165.64115079354087,92.2316798994434 165.26852063764818,92.03855124517395 164.89796064929396,91.85749166256937 164.552242671336,91.67401650174907 164.19617385570018,91.49295405636803 163.82561386734596,91.29016242935177 163.4364223711891,91.11392540000634 163.1217569062137,90.94734395562591 162.82158261396398,90.79041830552342 162.4468822905401,90.59727757740075 162.10530464764452,90.42344953852626 162.0162874437301,90.3703351540862 161.80927069047175,90.29307764916484 161.4242195293773,90.0878611443386 161.01846669296356,89.88505715645624 160.6375558669315,89.67500828793345 160.2649257110388,89.48668698533584 159.86952371228836,89.28870652099795 159.48033221613878,89.08106664598381 159.10770206025336,88.89998383259626 158.75577357968723,88.72614299322231 158.38935392638814,88.53057048155279 158.03742544582929,88.3543123516647 157.85318053541414,88.35189784737122 157.73518098604836,88.54988635903828 157.6627251224054,88.72614299322231 157.59440959382482,88.86135264827499 157.5157432275737,88.98931819833888 157.45777853666368,89.12452630948792 157.40809451587847,89.23800393343299 157.43293652626744,89.17764356472071 157.4515680340628,89.11486861357298 157.48055037952872,89.11245418895669 157.51160289251857,89.02312030048597 157.6544444522806,88.72614299322231 157.68342679773195,88.61507732601967 157.48055037952872,88.5353994524412 157.16588491453876,88.48228071702579 156.8056757638551,88.38811538515438 156.63799219370412,88.3205092685912 156.31918639365904,88.28912064705582 155.8616793689216,88.26739003787225 155.40417234419147,88.24807392362345 154.9570161571246,88.19012548371393 154.60922801162087,88.0355955982759 154.34217639990675,87.90762475253723 154.02958110246254,87.75792210655709 153.63417910371209,87.56717055182708 153.21186492704146,87.38366123683409 152.78541041529388,87.26051600870414 152.3589559035463,87.13495549066465 152.02151859570586,87.02871144101664 151.80829133983207,86.92005224717468 151.4998363774721,86.74378179844098 151.12306588650972,86.52887490657122 150.74008489295375,86.35501617902264 150.3550337318593,86.22220654496414 149.9679124032482,86.05076024900154 149.67808894865448,85.9034602997508 149.31373946290114,85.72959685277237 148.93696897194604,85.62093153212481 148.56433881605335,85.4881176664021 148.22690150822018,85.39152528314298 148.07991961338848,85.2756138886416 147.99090240948863,85.04620420101128 147.8873940328558,84.83852609257701 147.89774487051181,84.4497283211731 148.01781458741607,84.06575389516911 148.13167380171217,83.67694308005593 148.1751473198965,83.29295577134326 148.14202463938273,83.06111127792246 147.79630666140292,82.85341527071068 147.46093952110823,82.65296269687678 147.51269370943191,82.35348813136625 147.26841394056828,82.16510697387821 146.9061346223316,81.97189392953442 146.5728376495681,81.7835096504732 146.34718938849983,81.59512383029869 146.3616805612328,81.22559332184755 146.3637507287567,80.78359806234221 146.3699612313576,80.47202253493742 146.37410156642,80.21116536232148 146.37824190148967,79.95996677310359 146.37410156642,79.76915062841726 146.37410156642,79.48171572879983 146.38445240409783,78.94548304606906 146.39894357681624,78.48170416606445 146.4175750846116,78.04448739446343 146.41550491707312,77.60484668659774 146.4196452521428,77.16036622540742 146.42171541968128,76.75936018285574 146.44034692746936,76.36317867677099 146.34511922096135,76.31969492536336 146.17122514822404,76.24239027554722 145.73856013387558,76.20615363154684 145.38042115071585,76.18441161776718 144.94982630391314,76.14817488247172 144.5109507869638,76.1143538780525 144.1362504635399,76.08778019684723 143.69530477906665,76.049127514867 143.35165696863987,76.00322737068927 142.9686759750839,75.9983957712393 142.7057646984249,75.97906936329127 142.30829253214324,75.94766391576377 141.9191010359864,75.9186742338552 141.55889188529545,75.87035801617458 141.17798105927068,75.85103150069517 140.7929298981835,75.82687333353533 140.51966778386122,75.69158712867284 140.52173795139242,75.28330786685547 140.542439626719,74.92333966827027 140.53829929165659,74.58027748632594 140.55486063192802,74.1961384091901 140.56314130205283,73.78783260994533 140.56935180464643,73.43508922114233 140.57142197217763,73.19348103926677 140.5734921397161,73.08958874088967 140.5734921397161,72.89871562097687 140.5797026423097,72.70784091725545 140.55900096699042,72.46139275458518 140.56728163710795,72.25601726863897 140.59833415010507,72.1110452333287 140.5859131449106,71.80418474462203 140.590053479973,71.45141093520579 140.58798331244907,71.03097480745419 140.60247448517475,70.64436009045312 140.5817728098482,70.28431929052385 140.60247448517475,69.97260156188531 140.5734921397161,69.58596905086961 140.58798331244907,69.25249328846985 140.5755623072473,68.98184273739571 140.56107113451435,68.70393930292084 140.55279046438955,68.69427303605153 140.55900096699042,69.05675526236337 140.5238081189309,69.19449701000485 140.28159851760574,69.37573489450006 139.92138936690753,69.35881941905427 139.5736012214038,69.33707093234989 139.53840837334428,69.11233536509826 139.20925173565047,69.04950567384185 139.02914716029773,69.05192220359459 139.22167274084495,69.06158832010806 139.59637306426885,69.12683450024088 139.95658221495978,69.19449701000485 140.30851069551863,69.24524376165755 140.51966778386122,69.34190393116842 140.51966778386122,69.71645825011365 140.48240476827777,69.99193301679588 140.14496746043733,69.98226729136331 139.8924070214489,69.96293582833641 139.50321552529203,69.95327009072207 139.0829715161526,69.938771476689 138.70620102519752,69.92427285351732 138.32736036670394,69.90735778159433 137.8802041796298,69.89285913861204 137.48687234841782,69.8880262555831 137.06662833926384,69.87594404357696 136.63810365999234,69.86627826939912 136.26340333657572,69.82278223532558 136.25512266643636,69.46031208505701 136.24684199631884,69.02534036224642 136.2385613261722,68.7522705762949 136.2282104885162,68.58311067499926 136.20543864565843,68.30520242091734 136.1805966352622,67.94995828280298 136.14954412227235,67.5971253379521 136.1164214417513,67.22978665528717 136.10193026901834,67.04369837209742 136.0729479235597,66.71018573157926 136.03568490796897,66.32591516783395 135.99842189238552,65.98272470530355 135.97979038459016,65.6274446732823 135.95287820665544,65.33499916551955 135.92182569367287,65.08847196250281 135.88456267808215,64.68967235852688 135.8576505001547,64.2836147420312 135.83073832222726,63.91864016620093 135.78105430144205,63.51015181247021 135.72308961053204,63.13549634601077 135.67133542220836,62.799509796381244 135.62372156895435,62.51427994860023 135.55540604037378,62.09368032243947 135.4995115169877,61.75284394262599 135.44361699360888,61.41925450400413 135.40428381047968,61.16543320767778 135.36288045982656,60.790739501378994 135.3504594546248,60.51998927742352 135.3235472767119,60.181547009415226 135.29663509879174,59.81167225616082 135.27800359099638,59.48288969704481 135.23038973774237,59.13234428418582 135.1620742091618,58.774540689597416 135.0751271727786,58.42398446401785 134.99646080654202,58.097599719149 134.90537343510368,57.768792618620864 134.80807556106447,57.43998080957317 134.69628651428502,57.111164291700334 134.61762014804845,56.8669666245878 134.49341009608906,56.50187417889174 134.42302439997002,56.26250578194595 134.3153756882748,55.8635529073963 134.24084965709335,55.57581895509247 134.13113077785238,55.27357352461513 134.0027803908306,54.93021788722035 133.86407916613098,54.57960295742487 133.7895531349568,54.420010939800704 133.6467115751948,54.071806322275734 133.54734353362437,53.76954108635982 133.45004565959243,53.515635211728295 133.27615158684057,53.133562030308894 133.1436608647491,52.7974290983293 133.00288947252557,52.4467815841781 132.87453908548923,52.125148463257574 132.76482020625554,51.85187768280048 132.65510132701456,51.5713485405322 132.56194378804503,51.312581549318566 132.4625757464819,51.18440616444968 132.16654178929457,51.3270919251263 131.80633263860364,51.455266512890375 131.45440415804478,51.605205687974376 131.1376685255309,51.69226669483578 130.88924842160486,51.59795058915188 130.80023121769045,51.19407980338474 130.72363501898508,50.82406020844064 130.6511791553421,50.4661270787019 130.56216195143497,50.084003114770894 130.4710745799821,49.68736138188433 130.35721536569326,49.331829121796545 130.24542631891381,49.01982688442513 130.17297045527812,48.81666035535818 130.04669023577299,48.424834110132 129.9183398487512,48.064444802123035 129.78377895912854,47.660511800149834 129.6637092422243,47.31462339564314 129.56848153572355,47.03887645482246 129.4297803110312,46.630087607998576 129.30142992399487,46.26725116599482 129.1751497045043,45.865705477423035 129.05922032266972,45.524628013799884 128.94122077331122,45.1980597301681 128.83357206160144,44.87874402182206 128.7010813395027,44.50136517802639 128.5934326278002,44.179620616885586 128.48164358102804,43.87480581453383 128.36364403166954,43.509506545453405 128.26634615763032,43.22645608903622 128.1711184511223,42.94824069577953 128.05518906928774,42.62405502102047 127.93511935239076,42.273251923918 127.82333030562586,41.9587342373743 127.68048874586384,41.54259651103348 127.54592785624118,41.14338752097501 127.44655981466349,40.84337133927875 127.3119989250481,40.45382833919575 127.20228004580713,40.1344465290731 127.0718594912396,39.75456994336673 126.96835111461405,39.4569552246212 126.88140407823812,39.17143503173429 126.78824653926131,38.89317040307833 126.64333481196809,38.50843374080978 126.5356861002656,38.191444591941035 126.4259672210319,37.87445105669212 126.30175716907252,37.499376704163296 126.18582778723794,37.175113926909034 126.06368790280249,36.79518826572894 125.98088120149623,36.48059536904475 125.90428500278358,36.15389817187861 125.81733796641493,35.798155923772356 125.73246109756292,35.47144899141131 125.63102288846858,35.086654849095794 125.64137372613186,34.85190304584103 125.4736901559736,34.83980237220385 125.27081373777764,34.90998619029233 124.90646425200248,35.00437098579823 124.5131324207905,35.1253765648089 124.15499343762349,35.23912122605543 123.78443344926927,35.35044524106888 123.4428558063737,35.490809532137064 123.08678699073789,35.61907270101074 122.71415683485247,35.7763756066106 122.38914053221379,35.87801690946253 122.12415908801631,35.977237746164974 121.9585456854038,36.04983808605357 121.7515289321309,36.12243819579453 121.43686346714821,36.19745806742321 121.066303478794,36.28941757483335 120.81167287226708,36.26763772486811 120.76819935409003,35.85381664017223 120.72472583589843,35.56341141406483 120.68125231770682,35.29962347526998 120.63156829692889,34.98985027334675 120.56946327094192,34.609888358132594 120.49700740729168,34.288004860116416 120.3831481929883,34.0 120.21132428777491,34.121010886703516 119.8821676500811,34.26622310656239 119.56543201755994,34.387232586297614 119.40188878247864,34.27832408331051" stroke="red" stroke-dasharray="none" stroke-linecap="round" stroke-linejoin="round" stroke-width="0.5"><title>2024-05-01 58.8km</title><desc>1714551575000</desc></polyline><polyline fill="none" opacity="1" points="19.213612874598766,114.17652697661651 19.486244368206826,114.06374600763229 19.687572240414738,114.06619777366177 19.76936168850807,114.34569740193729 19.813402160543774,114.59577316208924 19.851151136594126,114.8752664096246 19.89938593930856,115.14740133612759 19.951815072694444,115.46121062164457 19.96859239537298,115.72108072317133 20.00843853675906,115.99565729046844 20.02731302477332,116.24816680102776 20.029410190109047,116.36093715104471 20.1468514488879,116.35113105541313 20.492883729253663,116.28493980147505 20.836818844283698,116.21874835870949 21.145102148606384,116.1402989968301 21.30238954876404,116.07901024829698 21.51000891697913,115.9907541659777 21.801514898616006,115.87553044212473 22.084632218909974,115.76275773275484 22.441150325954368,115.56417836855144 22.73894780359842,115.39256520315212 22.99270480919222,115.35333915853153 23.342931420229434,115.28959669456344 23.59249409515178,115.2258540554576 23.91126322614582,115.1400463800801 24.206963538461423,115.05423838731804 24.51105251210538,114.96597840650247 24.802558493742254,114.87771808987782 24.92209691787866,114.99539843741877 25.01017786196462,115.33617774314735 25.100355971393583,115.69901639366981 25.182145419472363,116.02017289738615 25.257643371558515,116.3486795308545 25.32265549695876,116.61344268627909 25.358307307658833,116.73356571418662 25.461068409102154,117.03264483711428 25.557538014538295,117.3145601530814 25.651910454631434,117.59647204408247 25.744185729396122,117.8685750559398 25.840655334832263,118.14557754752059 25.94551360159676,118.45199238128589 26.054566199047258,118.78046459010511 26.12586982045468,119.02804131679113 26.19507627652638,119.165310443017 26.287351551291067,119.42023666643763 26.373335330055852,119.67761126315236 26.46141627414181,119.95214102073805 26.53481706088496,120.18009629850894 26.595634855613753,120.32716303162852 26.700493122385524,120.59678295577032 26.70888178372843,120.68992365634404 26.796962727821665,120.92277377283244 26.893432333257806,121.22670093741908 26.998290600029577,121.55268290918866 27.107343197480077,121.87866030387158 27.19122981090186,122.13600764570401 27.27511642432364,122.33943257354804 27.39046051778132,122.66784978001851 27.47854146186728,122.98645904858859 27.549845083274704,123.10899991089173 27.62324587002513,123.29280999184994 27.70503531810391,123.56729700404685 27.791019096868695,123.83933003821585 27.879100040954654,124.14321902883785 27.962986654376436,124.38583722305702 27.9818611423907,124.49366671801909 28.08042791315529,124.7215774122651 28.197869171948696,125.03035607548918 28.30692176939192,125.36363637517024 28.420168697513873,125.73857099611996 28.539707121643005,126.08164312454392 28.650856884421955,126.40020556400668 28.76620097787236,126.74081749347351 28.88573940200149,127.08877560263136 28.99688916478044,127.42202637051196 29.122719084916753,127.77977555102007 29.238063178374432,128.11301640744205 29.35969876782474,128.46830470320674 29.47084853060369,128.77458335647316 29.53376349068276,128.98285053471227 29.56522097071138,128.9338466607096 29.651204749454337,128.94854783376468 29.766548842912016,128.9926512971124 30.09999813126342,128.86524106348406 30.441836080957728,128.7476309969934 30.712370409237337,128.708427509202 30.83400599869492,128.97304976818486 30.9870990681884,129.2523699944577 31.14648363368906,129.5365871292379 31.30586819918244,129.8159005818543 31.461058434018923,130.0339587508115 31.542847882097703,130.10991111573458 31.612054338176677,130.4578187758998 31.70223244760564,130.83267120067103 31.798702053027228,131.1830180010511 31.853228351756115,131.34471474315978 31.958086618535162,131.54805904931345 32.077625042664295,131.82244854623968 32.16990031742171,132.06988629725674 32.29363307222957,132.38346698965324 32.42785165368696,132.73134062094687 32.54739007781609,133.02041474866928 32.6774143286093,133.35113074050787 32.80953574475279,133.6426468618065 32.824215902110154,133.76513153650558 32.66063700593077,133.81902458895274 32.68999732063094,133.81902458895274 32.68790015529521,133.79942712978846 32.74452361935255,133.78717870942455 32.91858834220329,133.89986393338222 33.02554377431079,134.20117174098596 33.16185952111846,134.54901817519385 33.31285542527621,134.89196026957688 33.451268337419606,135.26429167398965 33.56451526554156,135.57293029269567 33.6588877056347,135.9085089044711 33.770037468420924,136.28082403339977 33.83714675916417,136.49392277379593 33.94200502593594,136.7927476037221 34.042668962043535,137.13565661219582 34.14333289814385,137.46386478518798 34.23770533823699,137.79941611456343 34.32368911700178,138.12761492196296 34.4264502184451,138.44111393625099 34.51033683186688,138.7864478039428 34.5774461225883,139.0999379398054 34.636166751995916,139.40852566651665 34.67181856268871,139.64853551308806 34.6885958853818,139.93262560106632 34.71376186941052,140.30487632789482 34.736830688096234,140.65997837881332 34.76199667213223,140.7873240010049 34.78925982148212,141.06895126749805 34.827008797525195,141.45097932906356 34.875243600246904,141.80606389072818 34.93186706430424,142.16604064002786 34.98639336301858,142.5137679951331 35.03462816574029,142.83210538469757 35.059794149769004,142.93984936108973 35.101737456483534,143.19696365313757 35.15206942452642,143.51529169874084 35.185624069905316,143.7577078288541 35.21079005392676,144.0025700437982 35.238053203283926,144.25722401502935 35.21708154993394,144.31109276735697 35.279996509998455,144.5828832074967 35.30516249402717,144.92078041101195 35.319842651362706,145.2635696640591 35.32823131271289,145.4741377027658 35.3450086353987,145.57697256441134 35.37227178475587,145.80712513271646 35.40163209946331,146.09603683839305 35.422603752806026,146.3580129977454 35.44776973684202,146.61998620959457 35.46874139018473,146.9162327392587 35.49810170489218,147.25899261604172 35.51487902757799,147.4621978751493 35.546336507599335,147.7780193969047 35.561016664956696,147.94694542949037 35.586182648985414,148.24807140517623 35.611348633006855,148.5271602963785 35.623931625021214,148.7548355990748 35.6386117823713,148.90906599126174 35.65119477437838,149.14163369914968 35.64490327837848,149.42315992286603 35.65119477437838,149.7267148212104 35.67006926239992,150.0057859956778 35.67216642772837,150.2261029823385 35.697332411764364,150.6226683075347 35.69942957710009,150.99964390113928 35.703623907771544,151.39864389097602 35.70152674242854,151.7511289947779 35.703623907771544,152.16235487617814 35.70991540377872,152.5295147088582 35.71201256911445,152.85505825491964 35.69313808109291,153.16835902711136 35.69523524642864,153.26381701891842 35.741372883807344,153.52326496969545 35.758150206493156,153.80963341081588 35.770733198507514,154.08376058789327 35.7917048518575,154.37256966142195 35.80219067854341,154.72990474817016 35.7917048518575,155.04073286827406 35.770733198507514,155.36134650755412 35.73508138780744,155.6525871360118 35.72459556112153,155.83124555269205 35.741372883807344,155.9071137811825 35.98883839339396,155.9144558547123 36.33696783909545,155.9511661876404 36.67880578878976,155.99032381238248 37.03951822649833,156.0343760615924 37.40442499487108,156.06374418148698 37.73367995255103,156.09555960295074 38.06503207555943,156.1175856385198 38.33976073451777,156.13226965067952 38.63965537749755,156.15674298372141 38.94793868182023,156.176321631654 39.24783332479274,156.19590026313745 39.56450529045833,156.22282085458573 39.88327442145237,156.24974141494386 40.05524197896739,156.29379317391977 40.32577630725427,156.27666194420817 40.636156776912685,156.30847707508474 40.98218905727117,156.34273947515794 41.27998653490795,156.35987065631343 41.58617267389491,156.38923836614777 41.873484324867604,156.41615873432966 42.06642353573989,156.4186060389893 42.41455298142682,156.42839525504132 42.762682427121035,156.4748939751753 43.08774305412953,156.50915613066718 43.44426116116665,156.5360763603694 43.79029344152514,156.55810197972824 44.123742729883816,156.59236401293492 44.511718316949555,156.61928414654722 44.834681778622326,156.64130968729478 45.04230114683014,156.65599336956802 45.30234964843112,156.6755715982108 45.47012287528196,156.6804661527949 45.77630901426164,156.70004436087947 45.98812271314819,156.84443313777228 45.98392838248401,157.1674691968219 45.9734425557981,157.46602884707318 45.969248225133924,157.81842220335784 45.96085956378374,158.12186777018542 45.95876239846257,158.45956867743007 45.95247090244084,158.79726469396883 45.948276571769384,159.1374028394348 45.950373737112386,159.46530110313324 45.94617940644821,159.7736191453805 45.94408224110521,160.05257005232124 45.93779074509803,160.28013279473635 45.93988791044103,160.5370558031118 45.92940208375512,160.9946164382127 45.92520775308367,161.4717422998874 45.91262476106931,161.9317313265019 45.90004176905495,162.3476710413306 45.89165310771932,162.72201044402937 45.874875785040786,163.0376252733422 45.80566932895454,163.3972741763755 45.69242240083986,163.73489871372658 45.53303783534648,164.03092780278348 45.35897311249573,164.31227428249622 45.421888072552974,164.22175448091002 45.47851153661759,164.2584517400901 45.6022442914109,164.35875728739666 45.83922397432616,164.52022384807606 46.0824951532486,164.7061536551373 46.271240033442155,164.82113582076636 46.45998491363571,164.98993839920877 46.699061761886696,165.19788192595297 46.95072160215932,165.38869906136642 47.18979845040303,165.56972926039634 47.44355545599683,165.56483657078388 47.54841372277588,165.5574975344316 47.67424364290491,165.74586540351447 47.74554726431961,165.90976867595964 47.93638930984889,165.9489095856825 48.26144993684284,166.04920786722323 48.578121902515704,166.1592908508046 48.896891033509746,166.23757176767685 49.150648039103544,166.36722395870856 49.40230787937617,166.48709043798044 49.62670457027707,166.59227888204077 49.84900409584225,166.70235930422314 50.11324692811468,166.80510056320418 50.42362739776581,166.91517998167546 50.71513337940996,167.04238221869673 50.85354629155336,167.11087544380825 51.11988628916879,167.26498446547885 51.358963137405226,167.40686171287234 51.58755415898486,167.53650740905323 51.90212895931472,167.65636788381016 52.258647066344565,167.76399717342792 52.558541709324345,167.85694934237836 52.862630682982854,167.9425628547615 53.14784516861255,168.05508299352186 53.376436190184904,168.17004866209572 53.57356973172136,168.25810708915196 53.75602311590774,168.34371913033283 53.98251697213709,168.4537912933938 54.278217284452694,168.59566131581232 54.626346730146906,168.75709856849062 54.982864837184025,168.82314075919749 55.312119794863975,168.85004678333462 55.57426546180068,168.87695277646344 55.85109128609474,168.86716878254992 56.163568921081605,168.8989667477781 56.301981833232276,168.9601165591812 56.5892934841977,168.97234650223982 56.872410804491665,169.0408340649883 57.23312324219296,169.11176740032715 57.432353949065146,169.18270052015941 57.65675063996605,169.27564704062934 57.97761693630309,169.42240395118097 58.262831421940064,169.56182216178058 58.52917141954822,169.65965900547053 58.64870984367735,169.71346909475506 58.91295267594978,169.8161971026675 59.231721806943824,169.94338353389503 59.5609767646165,170.08035276196642 59.88184306095354,170.20509189563927 60.14608589322597,170.25890072796392 60.50470116559882,170.425218153041 60.87589942998602,170.61843837993365 61.21144588367315,170.784753244252 61.5092433613172,170.92905488739052 61.77977768960409,171.07335563884408 61.995785719162086,171.19319795804222 62.25793138609879,171.32037688946912 62.52636854904267,171.45244658518095 62.761251066629484,171.57228695901904 63.006619410880376,171.69701812358107 63.29602822717425,171.85598825011039 63.56656255546113,172.00272894496266 63.83080538774084,172.1396860950008 64.14747735339915,172.30354448714388 64.44108050037903,172.45517361698694 64.72000348999427,172.594573722703 64.98634348761698,172.7290818079582 65.27784946924658,172.88804491005067 65.56935545088345,173.02499686897136 65.85876426719187,173.16683912277767 66.16075607549283,173.32090818119286 66.45016489180125,173.46763967302468 66.71440772407368,173.6070337365545 66.92831858830323,173.71219011122412 67.19465858590411,173.84913723835598 67.47777590620535,173.98852902543695 67.76299039183505,174.14259266454974 68.07546802682918,174.301546147919 68.39004282715177,174.4556077227735 68.68784030478855,174.62189526663497 68.9877349477756,174.79796314067426 69.28553242541966,174.94223999276437 69.59801006040652,175.10118803563455 69.94613950610801,175.27969762539215 70.25861714110943,175.43864337252853 70.56270611475338,175.60003333251916 70.82275461636164,175.73207883425675 71.14152374735568,175.8885762403861 71.45819571301399,176.0499630926697 71.73502153730078,176.18445128475832 72.06637366030918,176.36295259879262 72.34529664994625,176.55367852338532 72.38094846063905,176.66126681975766 72.56969334083988,176.73217701698923 72.84861633045512,176.96446753545933 73.0897903440491,177.21142650173897 73.31208986961428,177.43882205394402 73.5155149071652,177.63687444183415 73.71684277936583,177.8422603306226 73.98737710765272,178.11610537474735 74.24323127858224,178.3826122030041 74.53054292954766,178.68090064532043 74.79478576182737,178.95229092082445 75.04434843674971,179.2212331304163 75.30229977302224,179.4657233631333 75.55186244794459,179.71510076617778 75.79932795754576,179.95958583368702 76.03211330978229,180.19917871920188 76.25441283535474,180.43876914924294 76.45574070755538,180.65390948390086 76.67594306778483,180.85437937750612 76.72208070517081,180.89593999399222 76.75353818519943,180.9252768552651 76.81645314527123,180.98395046737096 76.97164338009316,181.14041271314454 77.12893078025809,181.3090973989365 77.26944085773721,181.44600001740218 77.44140841524495,181.64157379614517 77.65741644481022,181.87381553376326 77.8776188050324,182.09138727944264 78.04748919721897,182.26495429905117 78.21526242405525,182.39940673857745 78.46482509898487,182.6414191816275 78.69970761655713,182.89565177781697 78.94088163013657,183.14988161019755 79.1904443050662,183.40899763390917 79.37080052391684,183.60944390922486 79.39386934261711,183.65099962936074 79.58680855348211,183.82455507410486 79.77345626834722,183.99322039910294 80.0104359512552,184.23521634959798 80.22224965014902,184.4503217592228 80.36905122362805,184.6532034577649 80.40260586900695,184.69475732347928 80.50536697044299,184.82919579500958 80.58715641852177,185.0100754284631 80.73605515735107,185.1689550337178 80.76960980270815,185.2422837183385 80.67523736261501,185.36694195464042 80.53892161580734,185.53315190302783 80.45293783704983,185.67247403815963 80.39212004232104,185.78246461136405 80.33130224759225,185.98289054834459" stroke="red" stroke-dasharray="none" stroke-linecap="round" stroke-linejoin="round" stroke-width="0.5"><title>2024-05-01 52.5km</title><desc>1714541844000</desc></polyline><polyline fill="none" opacity="1" points="186.0,148.25301834052334 185.80270811633818,148.28943348274515 185.53503725663177,148.3312433327419 185.2592901209864,148.34607905304802 184.997388029813,148.34473035191604 184.79663488503138,148.32449981781247 184.59472798654315,148.35282255657694 184.30628956013243,148.35417125685854 184.0363111930128,148.34877645488814 183.76287156478065,148.3636121548161 183.51019950324553,148.37170434751079 183.22522233795462,148.3730530457933 182.95985898565414,148.33933554595296 182.75102956494084,148.3204537071415 182.45912987741758,148.31371018651225 182.1949202788237,148.4081191511459 181.98955211922294,148.4377903958166 181.78418395962217,148.45127730241165 181.64111850011977,148.24762349580396 181.53612691290618,147.9927144835683 181.46344042945566,147.84435239727281 181.36652511818102,147.59617923411952 181.30652992548858,147.42488298589979 181.24307347167633,147.2630261505701 181.1530806826413,147.03642313227738 181.05270411025413,146.79362971876617 180.9569425526788,146.56027391759835 180.86002724141144,146.38491703893942 180.50120983895613,145.76845103681535 180.36506690169335,145.5566604371088 180.3189167534656,145.40152496426435 180.17123627914407,145.53237848763365 179.9497155676654,145.61601611902915 179.75126993029698,145.51619049564124 179.65435461902234,145.49865348113417 179.37168496113736,145.48381445002906 179.19054562935344,145.5094454929149 178.94133482893812,145.58768730529118 178.73596666934463,145.6551367583952 178.6402051117766,145.6861633870767 178.37714926688932,145.78598768044594 178.09563336271094,145.88716015376212 177.9652591939739,145.9424674333295 177.78181235478405,146.05577915974482 177.6652832305117,146.1097367709972 177.451838794972,146.24462980079443 177.24877814277716,146.30398228210106 177.05725502764108,146.36468339786188 176.82765804022347,146.42943093637314 176.61305985097715,146.49822483604112 176.41807547472126,146.5629716969088 176.2277061132918,146.68032454484364 176.0177229388646,146.8570262223693 175.78466469033447,146.94470171899502 175.62775418636738,147.00539978686083 175.3635445877735,147.1187020744219 175.10279625029943,147.23739863005994 174.94357823891914,147.3169786571034 174.7059049755626,147.43432457126255 174.60206714206288,147.47074204937235 174.3701626472248,147.63394502677056 174.13018187645503,147.79984343509204 174.0067302299576,147.88751245479398 173.7725182277063,147.96708842823682 173.5083086291197,148.07094107106423 173.31678551398363,148.11679781325438 173.03065459498612,148.16939799112697 172.85989904655435,148.17749030694722 172.59915070908028,148.20985951891817 172.34417114013195,148.150515900933 172.1284191971863,148.09117200704532 171.9622786635664,147.99406322190043 171.7372966909752,147.80793598521723 171.53077477766055,147.90504618647446 171.32425286435318,148.04261770682479 171.0981171380481,148.15456206547242 170.851213845046,148.24222864879994 170.5650829260485,148.34607905304802 170.31471837192657,148.43374432105884 170.1624228827859,148.48769187905145 169.96743850653002,148.5847969089009 169.79552920439164,148.66706587006774 169.54747215768293,148.6980851767985 169.3109526480257,148.75068295943038 169.14481211441307,148.77495878601712 168.9925166252724,148.8194643481911 168.71792324333364,148.9408423655159 168.53678391154972,149.05143022103584 168.25411425366474,149.20112688969857 168.0891274737587,149.2847404811655 167.86645300858072,149.38858240500667 167.60108965628024,149.53288081901246 167.39572149667947,149.67313192024176 167.29534492428502,149.7378626781374 167.03921160163736,149.80529020199538 166.75423443634645,149.89429398828088 166.4427209358255,149.98599421013114 166.2511978206894,150.03049555104735 165.9685281628117,150.11275519716582 165.71239484016405,150.2354694220594 165.42972518227907,150.3743643197986 165.29588975242223,150.44583392122877 165.05937024277227,150.54696946619515 164.84015703869954,150.64675575225283 164.6567101995097,150.71013312366813 164.46403333065973,150.80317592893698 164.36827177309897,150.84767442227803 164.29904655076098,150.8719462623867 164.0867558689206,150.96633631321038 163.83639131479868,151.10252644288084 163.61025558850088,151.21039878224747 163.35181475844,151.34658630954164 163.09452768207848,151.4976044439154 162.94915471517015,151.55693250820332 162.72071148145187,151.66749771090417 162.50265203109302,151.78615198578336 162.3018988863114,151.88053528104228 162.17729348610737,151.7537918383041 162.06653313036077,151.51648158516946 161.9292364393914,151.27647014020658 161.8392436503491,151.15106910833856 161.7019469593797,150.93936779844717 161.56695777581626,150.73845057094331 161.4688887108423,150.59551424328947 161.30851694576268,150.64675575225283 161.08699623427674,150.78564617687243 160.91739443955157,150.86520408920296 160.67856742248114,150.96363946429574 160.3889752423638,150.9717300093307 160.25052479770238,150.92723194822065 159.99208396763424,150.78429773340758 159.68057046711328,150.63866500134736 159.3286755868976,150.58877192416912 159.0656197420103,150.5429240597732 158.79218011377816,150.53348477314103 158.5325855300107,150.49168213419398 158.36067622786504,150.46201566224772 158.16915311272896,150.4323491213854 157.91994231231365,150.4094249289692 157.6465026840815,150.37975826593447 157.36729428731633,150.35548549037048 157.08923964426504,150.33256115997756 156.83772133642924,150.3069398008347 156.60466308789182,150.28536387958047 156.36122105600953,150.28401538329217 156.1247015463523,150.37301583290537 155.99317362390866,150.40268251160524 155.89048954410828,150.23951492587548 155.76242288278445,150.03723816492857 155.63666372886655,149.83495819968812 155.5374409101787,149.67313192024176 155.42321929332684,149.50051496148535 155.295152632003,149.32115268048892 155.19477605961583,149.13639341054386 155.03325054082234,148.88419943437657 154.88326255909487,148.6535791914548 154.73442833106674,148.42565216769526 154.6063616697429,148.3770991397878 154.40214726384147,148.46611288321037 154.27177309510444,148.5645667552626 154.00871725021716,148.6805525344289 153.86565179072204,148.74259100698055 153.64989984776912,148.8396940978855 153.40761156958615,148.9165668543701 153.14570947841275,149.05277884751013 153.02456533932127,149.1296503209196 152.89419117058424,149.19033799930094 152.66344042946002,149.282043277085 152.4603797772579,149.36026196408056 152.24462783431227,149.43578300028457 152.07964105440624,149.49107490425104 151.74735998718097,149.8821571448634 151.60198702027265,149.94958390675401 150.78974441150785,149.92800738168717 150.65244772053848,149.891596912963 150.4263119942334,149.93340151636949 150.1424885826491,149.97790304057526 149.88289399888163,150.01026768803877 149.63829821328545,150.0358896424368 149.41100873327377,150.0507233820099 149.16525919397827,150.06286006521077 148.9402772213798,150.06286006521077 148.6356862430912,150.07499673687016 148.391090457495,150.09387598097692 148.29417514622037,150.08443636241373 147.98843041423243,150.08039080946673 147.6665331303593,150.09927004559358 147.3619421520707,150.09387598097692 147.03427609967184,150.08443636241373 146.73314638250304,150.07769377345176 146.43547792644677,150.07499673687016 146.1597307908014,150.07364821836745 145.86667734957155,150.06960266200258 145.58977646021958,150.07364821836745 145.31518307828082,150.07499673687016 145.05212723340082,150.07229969972377 144.78214886627393,150.07499673687016 144.50986299174838,150.07229969972377 144.23526960980962,150.06960266200258 143.9502924445187,150.06960266200258 143.80145821649057,150.06960266200258 143.49571348449535,150.07229969972377 143.19573752103315,150.07364821836745 142.91652912427526,150.07499673687016 142.64655075714836,150.08039080946673 142.4100312474984,150.08039080946673 142.20927810271678,150.07499673687016 141.94045348930376,150.07229969972377 141.67278262959735,150.07499673687016 141.3670378976094,150.07364821836745 141.14320967871754,150.07634525523463 140.9586090858138,150.08039080946673 140.62402051117533,150.07769377345176 140.3378895921851,150.08983043101944 140.11521512699255,150.08578487977775 139.83369922281418,150.08713339699898 139.51987821488729,150.08848191407924 139.23836231071618,150.08983043101944 138.9891515102936,150.08713339699898 138.73878695617168,150.08443636241373 138.47688486499828,150.0911789478132 138.23805784793512,150.0911789478132 137.99115455492574,150.0925274644651 137.69348609886947,150.0925274644651 137.44658280586737,150.10331559256065 137.19852575915866,150.09927004559358 136.89624228828325,150.09387598097692 136.57665251182334,150.0925274644651 136.41628074673645,150.07364821836745 136.12091979809338,150.10736113824896 135.87170899767807,150.10601262316231 135.69172341960075,150.10736113824896 135.3663648746151,150.10601262316231 135.07792644820438,150.10601262316231 134.80679432737816,150.10061856139055 134.5298934380262,150.10331559256065 134.2691451005594,150.11545222577297 133.99109045749356,150.11545222577297 133.72918836632016,150.11545222577297 133.48113131960417,150.11680073986372 133.28153192853642,150.1289373602558 133.00232353177125,150.1235433081738 132.7427289480038,150.1208462812756 132.54197580322216,150.1235433081738 132.2443073471659,150.1248918214069 131.97432898004627,150.12758884745017 131.8081884464409,150.13163438544598 131.76665331303957,150.01566178797293 131.70319685922732,149.92261324472383 131.4332184921077,149.9158705703121 131.1840076916924,149.8996881372077 131.02017466550024,149.89564252572472 130.75019629837334,149.88889983707304 130.45252784232434,149.8808086059953 130.18601073631726,149.8632775877304 129.91141735438578,149.84709508796732 129.63451646502654,149.83630674339838 129.35761557567457,149.8322611118383 129.07494591779687,149.8430494598233 128.7934300136185,149.85114071482985 128.5361429372715,149.8592319647105 128.2673183238585,149.8673232094652 128.00541623267054,149.87136882991763 127.75851293966844,149.87676298853057 127.52660844483762,149.88620276061738 127.39623427610059,149.88620276061738 127.15163849051169,149.89699106302578 126.8666613252135,149.90643082015868 126.65552439708699,149.9118249639614 126.66244691931934,150.15725609632227 126.64744812114805,150.4552732726479 126.6393718452091,150.7317083272892 126.60014421921369,150.99330477103467 126.57014662286383,151.13758505310943 126.45707875971857,151.40456669729338 126.32785834468814,151.67693615948338 126.20094543706364,151.94795149356105 126.08326255909196,152.20547815007558 125.99557727746287,152.49535796644432 125.97942472558498,152.76905240755877 126.02788238121866,153.11689205447146 126.08557006650517,153.43910715485254 126.13402772213885,153.70873697802472 126.15479528884316,153.9675762562656 125.87443313837139,154.00397510932544 125.60214726384584,154.0430700582574 125.33909141895856,154.0781206004467 125.09334187965578,154.1131710465097 125.02296290361119,154.13069623349566 124.78875090137444,154.16170227467865 124.55915391394956,154.20079674112458 124.30878935982764,154.23989108799015 124.17264642256487,154.24528340230972 124.08496114093577,154.2358468507564 124.27648425607185,154.24663148053332 124.54300136207166,154.21023331855758 124.80836471436487,154.1670946219865 125.01257912025903,154.13878477323033 125.2352535854443,154.10912676917997 125.45562054322363,154.0781206004467 125.72790641775646,154.03767765861812 125.94019709958957,154.0080194199345 125.97019469593943,153.9325254108944 125.91135325695359,153.69255934906505 125.85251181796775,153.46472223261844 125.82136046791129,153.31642370210284 125.77290281227761,153.13981138860163 125.70252383623301,152.84724974244637 125.63791362871416,152.57625348551755 125.58253345084813,152.316037739678 125.53984456374019,152.1178387711716 125.47984937104775,151.88053528104228 125.36678150789521,151.64862079282648 125.24332986139052,151.4274891035784 125.13949202788353,151.16455314933683 125.18333466869808,150.94610993247716 125.24217610768392,150.70608776893278 125.30678631520277,150.49707603077604 125.37716529124009,150.23142391695546 125.44408300617215,150.01431326320198 125.5063857062778,149.7971989179332 125.47292684880813,149.64346354653753 125.20640974280832,149.57873231007034 124.96873647945176,149.51804647782865 124.6929893438064,149.44522309839886 124.43685602115147,149.3845366315827 124.177261437384,149.31845548409638 123.9292043906753,149.2537225998367 123.73883502924582,149.20652133147996 123.46885666213348,149.13504479290532 123.21041583207261,149.06356785415574 122.97505007612199,148.998833677505 122.75352936463605,148.94488827954956 122.4604759234062,148.8680156936034 122.21126512299088,148.8059778305833 121.9285954651059,148.73180172906268 121.6816921721038,148.6805525344289 121.45209518468619,148.61851376037976 121.21096066020255,148.50252741753047 121.02636006729881,148.33663814212196 120.8486819966347,148.158608228724 120.64446759073326,147.95899597902462 120.46217450525,147.78500707987132 120.27295889752713,147.621806034178 120.00990305263986,147.51660094805993 119.7353096707011,147.5071594235651 119.52994151110033,147.562459681968 119.35572470154875,147.6663156172408 119.12382020671794,147.864583692407 118.89653072670626,148.04531517279156 118.67731752263353,148.15995694952107 118.43156798333075,148.23683379952308 118.1950484736808,148.26920286100358 117.9666052399698,148.27729511354755 117.83738482493209,148.28673606836583 117.5593301818808,148.30426925164466 117.31011938146548,148.3204537071415 117.06667734956864,148.33933554595296 116.81285153433419,148.35821735683567 116.55094944315351,148.3770991397878 116.33058248538146,148.3932835029409 116.09290922201762,148.4081191511459 115.82408460860461,148.43374432105884 115.57256630078336,148.45397468202555 115.33373928371293,148.4795997598867 115.08452848329762,148.49173793670616 114.82378014582355,148.52680371602673 114.57572309911484,148.61851376037976 114.36458617098106,148.7695641618766 114.19036936142948,148.96646646608224 114.10499158721359,149.1188613701188 114.034612611169,149.32115268048892 114.0,149.59356658074466 114.0173063055845,149.891596912963 114.03922762599541,150.17613521880867 114.06345645381225,150.47684890683468 114.07960900568287,150.7424959154314 114.1061453409202,151.01892475321893 114.1280666613311,151.3074831087306 114.14883422802086,151.61760865256565 114.15460299656115,151.9331199573353 114.15114173544134,152.1650292806753 114.13498918356345,152.49266144032026 114.11076035573933,152.7987135219546 114.08999278903502,153.08049067458705 114.0703789760446,153.35686892656577 114.05076516304689,153.62919677177706 114.02999759634986,153.9149999521569 114.02192132041091,154.2021448240439 114.09922281868785,154.48254298017764" stroke="red" stroke-dasharray="none" stroke-linecap="round" stroke-linejoin="round" stroke-width="0.5"><title>2024-04-21 79.4km</title><desc>1713660889000</desc></polyline><polyline fill="none" opacity="1" points="19.24310735817562,194.30885514420515 19.470141191930452,194.4705198427091 20.176010020513786,194.17614446142943 20.473217948332604,194.66355081897382 20.58673486521002,195.2884774095437 20.675484454768593,195.8916721808655 20.661036847166542,196.4345338509538 21.075889579755312,196.4345338509538 21.746671361303015,196.3452641518743 22.00053646631568,196.59618349897755 22.045943233060825,197.26448407810494 21.804461791703943,197.48644239885107 21.777630520453386,197.38028868851507 22.021175905741984,196.98462051184652 21.80652573565021,196.3452641518743 21.78175840833137,196.210152592128 22.18629142120335,196.08710386890925 22.749748117705167,195.84582993776712 23.46593666600529,195.55871063750237 24.103695344456355,195.36327442669608 24.826075724580733,195.16542371912146 25.43906707570568,194.979635518157 25.639269638209953,195.60455345707305 25.798193321832514,196.26081952071945 25.971564613057126,196.94119309933012 26.19034267104871,197.57329506757196 26.431824112405593,198.27775450944682 26.68156132952572,199.04491507645616 26.94987404215499,199.785514199104 27.191355483504594,200.49231767948731 27.381238326277526,201.04954323293714 27.68876597382041,201.93721647826897 27.915799807567964,202.57882838507612 28.09742687457765,203.15771088672045 28.291437605250394,203.71487144581624 28.510215663212875,204.32990304372834 28.724865833311924,204.9714477808775 28.96634727467608,205.6925611599272 29.19750899632345,206.36783065613054 29.43486254978052,207.06719589391105 29.64538483198703,207.65078775279835 29.874482609680854,208.3356451526961 30.051981788798003,208.90714777583162 30.551456223060086,208.78657879092862 31.176831237855367,208.58643287251834 31.509126212717092,209.18204268455702 31.866188514897658,209.81139490185524 32.097350236530474,210.28641173510732 32.318192238453776,211.108625678311 32.53490635249182,211.63183734571976 32.80941089693806,212.3430966886499 33.14376981573878,213.16041486627182 33.36461181766208,213.68357961300353 33.64324425000814,214.38513199603221 33.83519103672006,214.869696856862 34.037457543148776,215.44585764213116 34.241787993531034,216.14494539418956 34.452310275737545,216.8054431702585 34.69379171709443,217.5430568461561 34.90637794324721,218.3433166989107 35.06736557082331,218.95795512295263 35.131347833063046,219.61837174640823 35.16024304826715,220.25466755642628 35.19739403924177,220.7005461300796 35.315038844011724,221.5729969298245 35.43061970482813,222.30804708412143 35.54413662171282,223.00933524299217 35.63495015521039,223.68891359436202 35.69893241744285,224.23593542415438 35.750531016034074,224.83595756501018 35.80419355854974,225.4865662264292 35.874367652621004,226.30582493085785 35.919774419373425,226.87687911650028 35.97343696189637,227.50092628021957 36.018843728641514,228.04062904419698 36.06218655145494,228.59959351048383 36.068378383279196,229.1585443469212 36.08488993483479,229.7512100885524 36.11997698186315,230.64017997508563 36.11997698186315,231.6037940385013 36.126168813694676,232.20121442243908 36.14474430918199,232.79380152478006 36.186023188034596,233.50681286486542 36.20666262747545,234.31855892886415 36.16951163649355,234.8749617442263 36.1344245894652,235.36872783231775 36.79282270734984,235.4265338989244 37.5358425269078,235.49638270175092 38.26441473887098,235.5469627365619 38.85883059450862,235.59272552910443 39.63074562927068,235.65293959074734 40.35106206546334,235.73242191013196 40.95786158476403,235.76132450345358 41.632771254196996,235.8239466640789 42.31593669940048,235.88656865377743 43.052764687119634,235.93233076892284 43.61002955180447,235.97568426749422 44.19412568771804,236.0214462048898 44.84633197378571,236.07925062692993 45.34580640804052,236.11537831675014 45.92164676820539,236.1539144565195 46.24155807939678,236.56335694438167 46.23330230362626,237.36536135126153 46.21059892025369,238.17215431902514 46.229174415741,238.7236472208515 46.192023424766376,239.4822293432171 46.18170370504231,240.41175928522716 46.163128209562274,241.4183062569773 46.14868060195295,242.24181186568785 45.950541983409494,243.07732684422263 45.634758560103364,243.6335173668922 45.34580640804052,244.09097999472397 45.46964304463472,244.0115266132707 45.742083645141975,243.5901783295958 46.26632540671562,243.9754113490162 46.7967590001208,244.39193728037026 47.370535416346684,244.85660758406084 47.886521402142534,245.02513853165874 48.41489105160872,245.32849112111762 49.08360888920288,245.5379465232727 49.85758786791848,245.9135169443325 50.449939779617125,246.15426398449563 51.19295959918236,246.49852786822703 51.65941093035508,246.7705649104264 52.36321581498487,247.03056190467578 52.978271110056085,247.21111364175158 53.3869320108206,247.37962731616426 53.8884703890144,247.6227662967176 54.44573525367741,247.88516092359896 55.15366802621429,248.087371252117 55.82651375169371,248.11385104431247 56.36520312088396,248.18125401401267 57.07932772523054,248.31846659136863 57.706766683964815,248.5230803163031 58.33626958664536,248.8119436496654 58.988475872713025,249.05747462794534 59.723239916493185,249.36318110085995 60.3465509873422,249.57259972329848 61.075123199298105,249.9360688938541 61.64889961550216,250.22972852860403 62.13599038610846,250.48246537382693 62.63752876431681,250.73279246185666 63.21956095630594,251.03847665074136 63.754122437603655,251.32971528512098 64.31138730226667,251.60650891418118 64.9119949897431,251.90736777412167 65.49815506961022,252.20581587269407 66.1317858601833,252.52110763891505 66.71794594005769,252.82676804752555 67.26489108501119,253.1011369216485 67.94186469838314,253.44770345096367 68.53215266614279,253.75575820258564 69.07496992320375,254.04696241507372 69.58270013324363,254.29965729667128 70.14615682973817,254.59085462101575 70.67246253526537,254.867608990784 71.15542541797913,255.10826225708115 71.65077196433413,255.35372599424954 72.21629260478221,255.71951023155816 72.60018617822061,256.01068957725874 73.04806201389874,256.47271865922085 73.44021136311494,256.85532946721287 74.07177820973448,257.50262508449305 74.60633969103219,258.0464355753975 75.15122089203214,258.59504552229373 75.64037560657744,259.0834898605972 76.07586777859251,259.5454572298131 76.44944163232867,259.91117481905167 76.58153404468612,260.0290693818788 76.97368339389504,260.442898576046 77.09752003049653,260.6907113330544 77.43187894929724,260.9288977784381 77.79513308330206,261.2849698871705 78.35239794796507,261.82628517402736 78.89108731714077,262.3820222898448 79.36166653620603,262.8776033777049 79.83224575525674,263.3298719516206 80.06959930872836,263.6835012951069 80.21407538474887,263.8759503558522 80.36061540471565,264.0539643046741 80.55256219143484,264.2536269608172 80.6681430522658,264.4580989705755 80.7114858750574,264.68181332436507 80.6702069962048,264.8381715283158 80.54017852777906,265.0137725529639 80.4204697790774,265.3240779385251 80.3358480773968,265.6464062363648 80.14802917856287,265.9927838550266 80.30488891825371,265.7594606152488 80.31727258191677,265.487648086415 80.22852299235092,265.2904015873555 80.5443064156716,264.7106795342497 80.65369544465648,264.42923244399753 80.6041607900188,264.2752770242769 80.39570245175128,264.07561455590985 80.38538273204176,263.8158101971985 80.50302753679716,263.6522281707694 80.14183734673861,263.4766167603739 79.68983362317522,263.02435106972007 79.36992231196928,262.692363151913 78.88283154137753,262.199183854118 78.40606049048802,261.72042896383755 77.96644043058768,261.26091113445 77.5020530433685,260.8061959780989 77.03972960008105,260.3394419752276 76.6393244751016,259.93523498296963 76.24304723800014,259.50455424327265 75.8426421130207,259.1219874956423 75.44636487591197,258.72497754091455 74.98197748870007,258.2485565516363 74.54854926062399,257.81543799941755 74.09241764916806,257.3534358884099 73.7023322439054,256.9636143894022 73.39274065240897,256.65078988994173 72.93867298490659,256.19839001122455 72.50730870078405,255.76041994900697 72.22042049267475,255.54143179013226 71.61774886125204,255.19730332731342 70.9304555281633,254.83151078361516 70.28856896181969,254.5090309519819 69.66113000308542,254.19135983032174 69.0914814747448,253.8977507999807 68.46817040390306,253.60173134270553 67.81596411784267,253.25998056273238 67.29585024416156,252.9904270682473 66.67873100512952,252.68476883558105 66.00588527964283,252.3430044245415 65.42798097553896,252.03493074200196 64.82118145623826,251.72685293068207 64.22057376876182,251.4139571772448 63.642669464657956,251.10346410387683 63.062701216615096,250.82907138512564 62.47860508069425,250.52579141109163 61.85942189772322,250.2104722740678 61.30628492094547,249.9360688938541 60.687101737974444,249.61833457085595 60.18969124765863,249.3511454898562 59.65719371030718,249.0839533022281 59.101992789583164,248.79268620708535 58.57362314011698,248.53511636103394 58.03493377094128,248.26791468451484 57.70263879608683,248.19810472554127 57.479732850209984,248.40271952230069 56.87912516274082,248.27272915662616 56.40029016791959,248.14995980267122 55.72125261059409,248.0970002709928 55.02363955779583,248.05607691291334 54.470502581010805,247.87312453840423 54.12788788643229,247.70702177877138 53.6015821809051,247.45425440566396 53.040189428356825,247.20870629459205 52.47673273185501,247.04259873129558 51.942171250557294,246.88130473067577 51.60368444387859,246.7200095976168 50.97418154119805,246.35648954839053 50.38389357343112,246.108522241022 49.855523923972214,245.8846271299517 49.32509033055976,245.62702467865347 48.74718602646317,245.44164542615727 48.19611299362441,245.2586722292781 47.905096897629846,245.02513853165874 47.663615456272964,244.86142277115323 47.16207707807189,244.66640688640473 46.70388152268424,244.28118545787584 46.32205189317756,244.0043035649669 45.859728449897375,243.66722545046468 45.581096017573145,243.71778748305223 45.22403371539258,243.9754113490162 44.70185589775792,243.65277913498903 44.25398006207979,243.32773463419835 43.79578450668487,243.00268553237584 43.33965289523621,242.6463301186268 42.85256212462991,242.30923206941952 42.41706995261484,241.9287868978481 41.9712580608757,241.6326131913429 41.51306250548805,241.3894107869346 41.058994837985665,241.1654696609894 40.604927170476,240.9993183817478 40.19420232576522,240.86206207013674 39.71743127489026,240.70554071329389 39.27987515892164,240.58032285942681 38.84644693084556,240.4695526501091 38.48732068473328,240.3804544851664 37.88052116542531,240.3732302944718 37.277849534009874,240.33710930691268 36.69994522989873,240.31062054657195 36.1034654303221,240.2889479017431 35.96724513006484,239.9469990194084 35.9713730179501,239.52316798281208 35.97756484978163,239.17398312388104 35.98582062555215,238.65139999678468 36.00439612103219,238.08545553946897 36.018843728641514,237.5869312004961 36.04980288779916,237.07153716454377 36.095209654544306,236.56576540798596 36.136488533411466,236.0720250821414 36.17570346833236,235.6288539850575 36.21491840325325,235.12786765358942 36.2582612260594,234.61964437897223 36.27683672155399,234.13549704333673 36.24794150634261,233.6152079181229 36.229366010848025,233.10935995341788 36.24381361845735,232.7215356247798 36.21698234718497,232.21085010754723 36.21285445930698,231.67365448376404 36.21285445930698,231.05694802722428 36.20253473959747,230.42336122973757 36.188087131980865,229.96080772003916 36.186023188034596,229.60424968689404 36.16125586073031,228.88870771369875 36.14268036523572,228.42371391967026 36.0972735984833,227.9418451134352 36.047738943845616,227.284077840819 36.00439612103219,226.77809016978608 35.94866963457753,226.19980486608983 35.90326286783238,225.55885493738788 35.861983988957945,225.09138390881708 35.79800172671821,224.4576321820823 35.74640312814154,223.84314133546104 35.680356921955536,223.3057495560115 35.6163746597158,222.85510188824628 35.55445634142234,222.46469406780852 35.4615788639785,221.90316991734107 35.37902110624418,221.41393379173678 35.3005912364024,220.84756364851455 35.251056581764715,220.34143379702437 35.22009742262162,219.7870882670686 35.178818543761736,219.24237045662449 35.06942951475503,218.64220175824994 34.94765682211437,218.138433557373 34.80111680214759,217.60572880808468 34.64219311851775,217.10434830839586 34.47914154700993,216.6101885127664 34.34498519069166,216.17628331061314 34.17780573129858,215.61219425008858 34.01888204766874,215.10594864042832 33.79184821391391,214.54183319794174 33.604029315087246,214.08619134241053 33.4471695753964,213.63054041397845 33.25315884473093,213.17729133514513 33.04263656252442,212.67822478266316 32.82798639243265,212.13574879093358 32.62571988598938,211.62942625949472 32.44822070687951,211.15443731616688 31.992089095430856,211.31116064659727 31.457527614140417,211.50887162405888 30.945669516215276,211.67282577272454 30.743403009779286,211.1978377305586 30.621630317124072,210.61433638173366 30.512241288139194,210.1031576789319 30.376020987889206,209.53168494339843 30.200585752718325,209.03012748557194 30.058173620636808,208.6274267574954 29.89512204912171,208.13790674203665 29.715558926058293,207.60496909608992 29.540123690887413,207.08407685936436 29.341985072336684,206.5052937886685 29.162421949280542,205.9819648150078 28.958091498898284,205.39591861104418 28.792975983436918,204.93044734004798 28.596901308832457,204.32507933088527 28.425593961546838,203.83787908945123 28.25222267031495,203.31207707729664 28.068531659373548,202.8007350772623 27.90754403180472,202.33038681417383 27.752748236060143,201.8841500251965 27.529842290190572,201.22322114679628 27.36679071868275,200.75525264277348 27.18103576379508,200.21249366065058 27.00972841649491,199.7059069761326 26.871444172305928,199.27168087623795 26.70013682502031,198.79402263214433 26.479294823097007,198.16919197064453 26.307987475811387,197.64325947716497 26.107784913321666,197.06906246641483 25.934413622082502,196.46589879751082 25.810576985488296,195.93992707417783 25.670228797353047,195.4042920417396 25.60005470328906,194.92896574640326 25.261567896595807,194.88312157030487 24.644448657571047,195.07132339070267 24.076864073191246,195.21850578456542 23.614540629911062,195.38257684295786 23.020124774258875,195.5973151232556 22.454604133818066,195.79033657297623 22.06245478461642,195.9930073390242 22.01911196180299,195.98094365330508 21.82922911903006,196.079865688067 21.282283974076563,196.2198034443354 20.75804221249564,196.1908508754659 20.702315726033703,195.64557063866414 20.64658923956449,195.27400053920974 20.54545598634286,194.65631218681483 20.386532302720298,194.0796271166455 20.021214224776486,194.1906220279525 19.44537386461161,194.40295861541563" stroke="red" stroke-dasharray="none" stroke-linecap="round" stroke-linejoin="round" stroke-width="0.5"><title>2024-04-05 108.1km</title><desc>1712276378000</desc></polyline></svg>