<?xml version="1.0" encoding="utf-8" ?>
<svg baseProfile="full" height="300mm" version="1.1" viewBox="0,0,200,300" width="200mm" xmlns="http://www.w3.org/2000/svg" xmlns:ev="http://www.w3.org/2001/xml-events" xmlns:xlink="http://www.w3.org/1999/xlink"><defs /><rect fill="#222222" height="300" width="200" x="0" y="0" /><text fill="#FFFFFF" style="font-size:12px; font-family:Arial; font-weight:bold;" x="10" y="20">Over 10km Runs</text><text fill="#FFFFFF" style="font-size:4px; font-family:Arial" x="10" y="280">Runner</text><text fill="#FFFFFF" style="font-size:9px; font-family:Arial" x="10" y="290">yihong0618</text><text fill="#FFFFFF" style="font-size:4px; font-family:Arial" x="65" y="280">SPECIAL TRACKS</text><rect fill="yellow" height="2.6" width="2.6" x="65" y="283" /><text fill="#FFFFFF" style="font-size:3px; font-family:Arial" x="70" y="285.5">Over 20.0 km</text><rect fill="red" height="2.6" width="2.6" x="65" y="287" /><text fill="#FFFFFF" style="font-size:3px; font-family:Arial" x="70" y="289.5">Over 40.0 km</text><text fill="#FFFFFF" style="font-size:4px; font-family:Arial" x="120" y="280">STATISTICS</text><text fill="#FFFFFF" style="font-size:3px; font-family:Arial" x="120" y="285">Number: 5</text><text fill="#FFFFFF" style="font-size:3px; font-family:Arial" x="120" y="290">Weekly: 1.2</text><text fill="#FFFFFF" style="font-size:3px; font-family:Arial" x="141" y="285">Total: 317.5 km</text><text fill="#FFFFFF" style="font-size:3px; font-family:Arial" x="141" y="290">Avg: 63.5 km</text><text fill="#FFFFFF" style="font-size:3px; font-family:Arial" x="167" y="285">Min: 18.7 km</text><text fill="#FFFFFF" style="font-size:3px; font-family:Arial" x="167" y="290">Max: 108.1 km</text><polyline fill="none" opacity="1" points="74.11986169801094,36.43360971171933 74.31348444096511,37.08035343172378 74.46561659616418,37.662420441862196 74.59008835954592,38.034295427729376 74.65923933917657,38.56785361104994 74.76988090667874,39.133746620456805 74.88052247406449,39.699637536512455 74.99116404145025,40.29786280017288 75.07414521701867,40.86374941004033 75.17095658852486,41.39729772503779 75.26776796003105,41.93084417922364 75.36457933147904,42.48055676158401 75.44756050710566,43.04643529787427 75.54437187855365,43.676983201294206 75.66884364193538,44.35603188331879 75.77948520932114,45.09974841022631 75.90395697270287,45.77879077749094 75.98693814827129,46.53866794848 75.93161736457841,46.82968373791664 76.11140991159482,47.31470882358553 76.15290049946634,48.17158271734661 76.24971187085612,49.093120983205154 76.3050326546072,49.885316108644474 76.3050326546072,50.240994218576816 76.20822128310101,50.37033150800562 76.22205147903878,50.79067694391415 76.38801383017562,51.45352701583761 76.51248559349915,52.27804382961767 76.74759892426664,53.05405559571227 76.94122166727902,53.92706412856933 77.1348444102332,54.8000676806987 77.24548597773537,55.49523361388128 77.41144832887221,55.867065258469665 77.75720322702546,56.46522731274308 78.03380714560626,57.128052804037 78.25509028037777,57.69387717147765 78.40722243557684,58.292032085053506 77.99231655779295,58.59919180776342 77.39761813287623,58.74468830329715 76.76142912020441,58.97101591038518 76.05608912790194,59.229675622846116 75.40606991923414,59.48833489815297 74.8252016903134,59.63383054843871 74.78371110250009,59.860156840470154 74.67306953511434,60.2966423156613 74.94967345369514,61.007949311475386 75.24010756821372,61.73541895576636 75.43373031116789,62.51138276488928 75.7103342297487,63.255011056768126 76.2635420668521,63.82081277144607 76.77525931614218,64.28961832188361 77.0933538225363,65.01707236746734 77.43910872068955,65.74452295539959 77.77103342296323,66.43963917570363 78.08912792929914,67.13475223894056 78.40722243557684,67.81369683452067 78.73914713790873,68.50880365747435 79.04341144824866,69.22007248767477 79.37533615058055,69.89900783312623 79.69343065691646,70.59410518601362 79.9976949673146,71.27303443683195 80.34344986552605,71.93579580074584 80.66154437180376,72.63088390433404 80.99346907413565,73.35829830715375 81.29773338453379,74.05337995127775 81.6158278908697,74.71612927706155 82.00307337683626,75.2010659903026 82.33499807910994,75.75065907476528 82.55628121393966,76.26792135182768 82.68075297732139,76.65586691253702 82.15520553203532,76.93066108992207 81.58816749905236,77.18929045325785 80.91048789856723,77.48024796480604 80.14982712257188,77.86819045322773 79.41682673839387,78.23996774882835 78.55935459083412,78.61174414151174 77.79869381478056,79.0805043932196 77.31463695730781,79.30680193207809 76.77525931614218,79.5815913509141 76.00076834420906,79.921036422631 75.29542835184839,80.26048074173741 74.71456012292765,80.55143241620681 73.91240875906078,80.93936712198774 73.11025739531033,81.31113695929525 72.43257779482519,81.63441434483684 71.7410679984605,81.95769104771898 71.47829427581746,82.07083773250633 70.89742604683852,82.32945841214678 70.31655781785958,82.63656990187883 69.76334998075617,82.99217190979107 69.11333077214658,83.4285914269858 68.39416058390634,83.94582776234893 67.64733000379056,84.4953894540522 66.9834805992432,84.96413169107109 66.31963119475404,85.35205521572789 65.71110257395776,85.75614117539953 65.11640414898284,86.0794091752905 65.00576258159708,86.12789931643056 64.85363042639801,86.16022606860497 64.31425278523238,86.48349321531714 63.62274298880948,86.77443306376517 62.93123319244478,87.03304579832184 62.26738378795562,87.25933158269618 61.4928928159643,87.5341067284171 60.73223203996895,87.82504458045878 60.137533615052234,88.00283966236748 59.3215520553058,88.29377662383195 58.4917402996216,88.60087615001248 57.64809834805783,88.89181197508879 56.88743757200427,89.16658419117448 56.12677679595072,89.42519288526091 55.26930464844918,89.69996414416528 54.48098348057829,89.99089788086712 53.80330388015136,90.18485339819745 53.208605455292854,90.37880866986234 52.807529773330316,90.50811204787169 52.35113330773311,90.71822980414436 51.701114099123515,90.92834727211448 50.995774106821045,91.18695299069805 50.248943526647054,91.5102095247712 49.4467921628966,91.73648869256431 48.63081060315017,92.02741855979548 47.80099884752417,92.3183478742867 47.01267767959507,92.6416020198667 46.25201690354152,92.93253016743984 45.4775259316084,93.19113250124792 44.70303495961707,93.46589700241748 43.887053399928845,93.7568235838844 43.04341144830687,93.9992619795812 42.62850557046477,94.1447248327604 42.241260084556416,94.27402503065241 41.49442950444063,94.51646260748385 40.70610833656974,94.85587457023212 39.945447560516186,95.13063608427183 39.17095658858307,95.4053971053363 38.590088359604124,95.56702100507391 37.76027660386171,95.8256188898813 36.87514406454284,96.16502795086126 36.142143680364825,96.56908537604613 35.61659623513697,96.98930396723154 35.16019976948155,97.47417013959785 34.952746830589604,97.71660265010723 34.51018056087196,98.13681809249101 33.88782174419612,98.57319444682798 33.071840184391476,98.8964353890915 32.32500960427569,99.05805560432782 31.60583941609366,99.17118965355621 31.246254321944434,99.20351365224633 30.540914329641964,99.36513354348426 29.669611986202653,99.51059129970963 28.715328467194922,99.70453475980321 27.830195927759632,99.8661541222391 26.945063388440758,100.01161140263139 26.101421436760575,100.14090664697869 25.257779485196806,100.27020178217208 24.358816749881953,100.41565867878671 23.487514406442642,100.57727729075123 22.782174414081965,100.70657205754833 21.98002305038972,100.83586671519151 21.1087207068922,100.98132307453488 20.265078755270224,101.11061750017689 19.43526699958602,101.19142646077671 18.605455243901815,101.33688248242834 17.78947368421359,101.51466187684855 16.945831732649822,101.66011759148387 16.157510564720724,101.78941144410055 15.34152900497429,101.93486689780548 14.5532078371034,102.03183712353348 14.207452938950155,102.11264559804113 14.055320783751085,102.14496897593199 14.539377641165629,102.33890909988258 14.80215136386687,102.88840478412749 15.064925086509902,103.40557539185102 15.25854782940587,103.6964830912475 15.548981943924446,104.22981243836693 15.631963119492866,104.61768716068764 15.687283903185744,104.8924311613082 15.894736842077691,105.31262691487791 15.82558586250525,105.19949740234006 15.64579331537243,104.7308171029872 15.548981943924446,104.39142702538811 15.34152900497429,104.03587470884668 15.244717633526307,103.80961371399462 15.1064156742068,103.50254468638741 14.843641951621976,103.08234396671469 14.608528620854486,102.64598046056926 14.73300038423622,102.45204072546039 15.49366116017336,102.30658576294081 16.185170956654474,102.20961571118096 16.904341144836508,102.08032221329631 17.665001920890063,101.96719031315297 18.42566269688541,101.8055731679924 19.22781406075228,101.6924410648644 19.98847483668942,101.5631471304223 20.749135612742975,101.48233836592408 21.523626584734302,101.32072070905997 22.270457164850086,101.19142646077671 22.948136765277013,101.0782939040364 23.667306953517254,100.96516126363713 24.455628121388145,100.81970488894149 25.28543987707235,100.6904102176486 26.08759124088101,100.56111543724546 26.84825201687636,100.4318205476884 27.608912792929914,100.31868742972438 28.314252785232384,100.18939233545098 29.019592777534854,100.06009713205276 29.752593161712866,99.97928757448972 30.388782174442895,99.8661541222391 30.789857856289018,99.8661541222391 31.21859393006889,99.80150639776548 31.674990395724308,99.67221086686186 32.24202842876548,99.59140110459703 32.89204763737507,99.47826736583374 33.65270841342863,99.25199963754858 34.3580484057311,98.91259741829708 34.89742604683852,98.50854617646837 35.31233192473883,98.12065598138724 35.65808682289207,97.63579185592243 36.11448328854749,97.18325062042277 36.59854014596203,96.79535706844763 37.30388013832271,96.48827397626883 38.07837111025583,96.27816413735854 38.81137149443384,95.98724234603287 39.59969266230473,95.69632000205456 40.415674222051166,95.42155950296728 41.259316173614934,95.11447365589265 42.08912792929914,94.83971211286553 42.93276988086291,94.53262509897468 43.6796004610369,94.29018754772551 44.48175182478735,94.01542452564172 45.242412600899115,93.7568235838844 45.98924318095669,93.4820596047648 46.666922781441826,93.22345776227303 47.344602381810546,92.98101813829271 48.063772570108995,92.7547408096143 48.81060315016657,92.49613773880992 49.52977333846502,92.23753423127346 50.290434114518575,91.97893028699036 50.88513253943529,91.8011398219387 51.20322704571299,91.72032590596064 51.72877449094085,91.54253514064476 51.97771801770432,91.42939545524132 52.36496350361267,91.31625568623713 52.890510948956944,91.12230160200852 53.595850941259414,90.89602152658335 54.32885132537922,90.58892660359561 55.075681905436795,90.33031987503637 55.808682289673015,90.0393867832754 56.5555128697888,89.76461613344145 57.288513253908604,89.50600801261317 58.04917402990395,89.23123640562699 58.616212062945124,89.05344275016978 59.16941990010673,88.84332270931918 59.37687283899868,88.77867033096845 60.068382635421585,88.5523867920565 60.73223203996895,88.29377662383195 61.354590856703,88.08365554046759 61.92162888974417,87.87353416875703 62.47483672678936,87.67957572355226 63.09719554363983,87.46945379729732 63.774875144066755,87.2270050625375 64.49404533224879,86.91990278067533 64.89512101415312,86.72594312744332 65.4621590472525,86.45116653139121 66.05685747216921,86.09557255735854 66.69304648484103,85.64299721420684 67.28774490969954,85.27123789580946 67.88244333461626,84.83482363109943 68.35266999615123,84.46306235034717 68.83672685356578,84.09130016683775 69.37610449478962,83.71953708065848 69.87399154820014,83.39626409801713 70.399538993428,83.07299043274543 71.07721859385492,82.70122487384651 71.7410679984605,82.37794974098506 72.55704955820693,82.0223463063885 73.34537072607782,81.6505781961896 74.18901267758338,81.2626452925906 74.90818286588183,80.890875337529 75.51671148673631,80.59992430818966 76.20822128310101,80.27664473814366 76.96888205915457,79.921036422631 77.6880522473366,79.63008355014608 78.44871302344836,79.29063783324091 79.19554360350594,78.96735549837467 79.80407222436043,78.6602366479201 80.53707260848023,78.32078878054745 81.22858240490314,78.01366863296425 81.85094122163719,77.70654786919476 82.54245101806009,77.3347692781681 83.37226277362788,76.9629897842533 84.14675374561921,76.65586691253702 84.67230119090527,76.41340105231211 85.04571648093406,76.18709923622373 85.68190549366409,75.87997480790364 85.98616980400402,75.45969827585213 85.26699961582199,75.4920272808231 84.67230119090527,75.78298801829806 84.07760276598856,76.05778376257513 83.42758355737897,76.39723664797202 82.80522474064492,76.65586691253702 82.4456396465539,76.02545487706084 82.14137533615576,75.28188862647221 81.67114867462078,74.52215416166291 81.35305416828487,73.74625124190061 80.99346907413565,72.97034438919218 80.60622358811088,72.2105984515656 80.2742988858954,71.56400319388194 79.92854398768395,70.9174052048329 79.63810987316538,70.1899792021868 79.29235497501213,69.44638460408896 78.96043027273845,68.63812550880539 78.614675374527,67.92685397433524 78.26892047637375,67.26407525126706 77.95082597003784,66.61745909700403 77.66039185546106,65.93850919490797 77.46676911250688,65.45354313513963 77.34229734918335,65.19489394160337 77.16250480210874,64.90391307637037 76.85824049176881,64.37044671991316 76.56780637725024,63.72381834033877 75.8901267767651,63.545995057036635 75.59969266230473,62.705373102406156 75.35074913559947,61.96174213985796 75.14329619664932,61.21810756390914 74.83903188625118,60.5714658650395 74.71456012292765,59.97331986099016 75.35074913559947,59.60149819361686 76.18056089128368,59.391337721128366 76.91356127540348,59.132678281952394 77.6880522473366,58.85785214869247 78.39339223969728,58.63152437424287 78.78063772566384,58.195034149772255 78.44871302344836,57.3543828020629 78.33807145594619,56.93405539645755 78.03380714560626,56.12573021755088 77.71571263927035,55.33356739956071 77.43910872068955,54.52523376629688 77.21782558580162,53.652228646184085 77.07952362654032,52.89238680237031 77.02420284290565,52.10020724557398 76.94122166727902,51.29185653140303 76.96888205915457,51.081684646211215 76.92739147134125,50.66134000974125 76.581636573188,50.01465369880316 76.48482520162361,49.20629196651862 76.41567422205117,48.18775010321406 76.36035343830008,47.379378718847875 76.36035343830008,46.95902391112759 76.31886285054497,46.3284895340621 76.22205147903878,45.665617258884595 76.15290049946634,45.00274211172655 76.0284287360846,44.30752850598947 75.91778716864064,43.693151062121615 75.80714560119668,43.03026736876927 75.68267383793136,42.35121280224121 75.51671148673631,41.381129621644504 75.35074913559947,40.39487208194623 75.22627737221774,39.47328142124752 75.08797541295644,38.58402201179706 74.93584325769916,37.72709441740881 74.68689973105211,36.78931909610401 74.35497502877843,35.80303195209126 74.06454091431806,35.075438999338076 73.96772954281187,34.81673844883335 73.88474836724345,34.67121919686906 73.51133307721466,34.89758241784875 73.01344602374593,35.30180162220495 72.2942758355639,35.59283878788119 71.57510564732365,35.94855012734479 70.85593545908341,36.25575470937474 70.10910487896763,36.546790060107014 69.26546292734565,36.918667758087395 68.50480215140851,37.24203893450613 67.89627353049582,37.452229832604644 67.5366884364048,36.8539934407745 67.17710334225558,36.46594696266402 66.72070687665837,36.67613892717054" stroke="#4dd2ff" stroke-dasharray="none" stroke-linecap="round" stroke-linejoin="round" stroke-width="0.5"><title>2024-05-25 18.7km</title><desc>1716643451000</desc></polyline><polyline fill="none" opacity="1" points="180.32898943827604,105.07110793942775 180.45940999284358,104.87084839160707 180.5173746837463,104.87326116758413 180.49460284088855,104.87084839160707 180.58362004479568,104.8756739433029 180.59397088245896,104.87326116758413 180.5525675318131,104.83706950152919 180.57947970974055,104.85878450796554 180.65607590844593,104.70677903406249 180.75751411755482,104.84189506027906 180.6043217201368,105.1121247409701 180.59811121753592,105.16761794474041 180.55670786686824,105.30031854349 180.60846205519192,105.40889119346684 180.7161107669017,105.44990739506648 180.69333892403665,105.51987604142414 180.64779523831385,105.58984447579678 180.59604104999744,105.67670154769621 180.48632217075647,105.75390755959415 180.5111641811527,105.94209613228668 180.5070238460903,105.92279481078913 180.5153045162224,105.74184413724288 180.55877803439944,105.59708257759667 180.46148016037478,105.59708257759667 180.50495367856638,105.42578022647467 180.58776037986536,105.25688934056416 180.56084820193792,105.15072872292876 180.44284865257214,105.33168402813317 180.1468146953921,105.21346005597843 179.89011392133398,105.09764823109799 179.6541148226097,105.0132017426331 179.83628956548637,104.65369752174774 180.01639414082456,104.39793943388395 180.26895457982027,104.08185712842533 180.42007680971437,103.94191090893764 180.54014652661135,103.79955095331206 180.38902429672453,103.72233840685658 180.0992008421381,103.43761491015903 179.8155878901598,103.12151945777805 179.6789568329914,102.97191552110598 179.4574489069928,102.81024566095766 179.2359409809942,102.59548842425829 178.9212755160188,102.24801181006296 178.66457474196068,101.94155240002146 178.35404961204767,101.58682658545513 178.09320850291988,101.33586081179783 177.8592795717268,101.10661084538515 177.63156114312005,100.92320923284933 177.3769305366004,100.66499659763576 177.18440495605319,100.47193853444332 177.05812473655533,100.33438367919553 176.9028621716061,100.18234841168851 176.6461613975407,99.89999454338613 176.54886352350877,99.78656936730658 176.34805727283674,99.61763722056276 176.09549683383375,99.3594099778129 175.87191874030395,99.13014037803441 175.60486712857528,98.85018704101458 175.35230668958684,98.58471091152205 175.0976760830672,98.32647210956202 174.84511564407876,98.06340344237105 174.60083587520785,97.81481286295275 174.35034560374334,97.57828730083747 174.1039956673485,97.33693218688677 173.9280314270727,97.16556852323993 173.72515500885493,96.96041316731316 173.38564753349783,96.6128516949957 173.02750855033082,96.23632085742793 172.7190535879563,95.9225404645731 172.56586119053827,95.75116629399781 172.31537091908103,95.64737568430974 171.93653026058746,95.4494481108868 171.5949526176846,95.26358774570508 171.18505944620847,95.05117406588579 170.83934146823594,94.86048284607023 170.4936234902707,94.69151462501031 170.11478283177712,94.50082043152543 169.72352116808906,94.30288301870314 169.39850486545765,94.14115240809952 169.04036588229064,93.96735108463145 168.66980589393643,93.79354845132912 168.32615808350965,93.60767474122258 167.96594893281144,93.42179953293817 167.62437128990132,93.24557879611166 167.4070036989724,93.13694890384795 167.13581175218133,93.00176432324042 166.80044461187208,92.82554037645423 166.42160395339306,92.63965886348524 166.0324124572362,92.43687732213039 165.67841380913887,92.2461644833038 165.30992398830858,92.05062183345763 164.93729383242317,91.86956234564423 164.5895056869267,91.6885014359541 164.23757720636058,91.50743910432357 163.8711575530615,91.30706179973458 163.47575555431104,91.1235822584149 163.15487958674203,90.95941511523961 162.86091579709318,90.80490379490038 162.4862154736693,90.6117631881425 162.14049749571132,90.43552097246538 162.03284878400882,90.37274944694036 161.8486038735864,90.30514915137428 161.4656228800377,90.10234707519885 161.05987004362396,89.90195755692912 160.6768890500607,89.6919088424147 160.3042588941753,89.4987589098655 159.91299723048724,89.30560735873405 159.52173556680646,89.09796763597296 159.14703524337529,88.9120560644169 158.79510676280916,88.74062977991525 158.43075727704854,88.54264290687388 158.0746884614273,88.3687993720905 157.87802254581766,88.34948334283035 157.7496721587886,88.54264290687388 157.67928646266955,88.71648513036234 157.61511126915138,88.85410929400132 157.52816423277545,88.98931819833888 157.47226970940392,89.11969746203431 157.4267260236811,89.23076069753733 157.43914702886832,89.19454448389843 157.46398903926456,89.11728303793097 157.490901217192,89.11003976408938 157.51574322758097,89.04485019711683 157.6544444522806,88.74787316985203 157.69791797045764,88.62473523137487 157.49711171979288,88.54022842232553 157.20521809767524,88.48710969803142 156.84707911450823,88.39777338561908 156.65248336643708,88.32292377616795 156.36265991185792,88.2939496685376 155.9072230546517,88.2698045510133 155.44971602992155,88.2504884387854 155.0025598428474,88.1973690466748 154.6423506921492,88.04283920980743 154.37322891290387,87.91728295436405 154.06891428559175,87.7699949366488 153.67765262191097,87.58165806708894 153.257408612757,87.39573426299285 152.82888393349276,87.26775986386747 152.4003592542067,87.14219938530732 152.05257110871025,87.03595536905232 151.83520351777406,86.92971086293437 151.53916956058674,86.7582698313945 151.1644692371774,86.54336307465383 150.78148824360687,86.3646750316293 150.39643708252697,86.23186545325734 150.00724558637012,86.06283397357765 149.71949229932216,85.91794886111165 149.35307264603762,85.74167074564866 148.97630215506797,85.62576111281669 148.60160183165135,85.49777688245194 148.25795402121003,85.39876972593265 148.1026914562608,85.29493249489497 148.01160408482247,85.05827845205567 147.89981503805757,84.86025993581825 147.90602554065117,84.48112217358539 148.01988475496182,84.09473332043672 148.14202463937545,83.7059229944989 148.18342799004313,83.32193616892437 148.17721748744225,83.07077151174417 147.83563984453212,82.86790575060331 147.49613236916775,82.66986840299614 147.51476387696312,82.37280918859142 147.30981729122868,82.18201303813657 146.94132747039112,81.98638496409149 146.6101006651661,81.79558561202612 146.3596103937016,81.61686073435703 146.37203139890335,81.25699156943665 146.37824190149695,80.81258161798542 146.38031206902815,80.49134517089988 146.38652257162175,80.23048821719931 146.39066290669143,79.97928983880774 146.38652257162175,79.7908892563737 146.38445240409055,79.51070092339069 146.3968734092996,78.98654635079947 146.411364582018,78.5131061559805 146.42792592227488,78.07830556263616 146.42585575475096,77.63866550072453 146.42999608981336,77.19660136697166 146.43413642488304,76.7907645226951 146.45069776513992,76.3825047621358 146.3678910638264,76.32935798833569 146.21262849887717,76.247221823769 145.77996348453598,76.21098518737745 145.4135438312369,76.18682739808355 144.99744015716715,76.15059066660433 144.5523541376242,76.11918545315712 144.1776538142003,76.08778019684723 143.74084846479673,76.05154330939149 143.37856914656732,76.01047476795975 143.0100793257443,75.9983957712393 142.7513083841477,75.98390096680669 142.34969588279637,75.9524955258712 141.95843421912286,75.92109004207668 141.59201456582377,75.86552638882495 141.221454577455,75.85344731601981 140.83433324883663,75.83170496898856 140.53208878906298,75.72299292569005 140.53415895659418,75.31229834923397 140.55486063192075,74.95233060418468 140.55072029685834,74.59960506916104 140.5652114695913,74.22754624745176 140.5734921397161,73.8168249767059 140.5817728098482,73.4616659662297 140.58591314491787,73.19831322777281 140.58591314491787,73.11374978238018 140.58591314491787,72.89871562097687 140.59212364751147,72.72958621661019 140.5755623072546,72.47105743815519 140.5797026423097,72.27534680430472 140.6169656579077,72.12554247797198 140.59833415011235,71.82593089828333 140.60040431765083,71.48523879531785 140.60247448517475,71.06238696772743 140.61075515530683,70.66369098066207 140.59212364751147,70.31089967652042 140.62524632803252,69.99676587797512 140.5838429773794,69.61738318503194 140.60040431765083,69.27424185518066 140.58798331244907,68.99392541922134 140.5734921397161,68.72327182445588 140.5652114695913,68.67252392074624 140.5693518046537,69.03500648992849 140.53622912413266,69.17274836786419 140.3209317007204,69.36365241331077 139.96072255002946,69.36123591631258 139.60465373440093,69.34432043020206 139.5632503837478,69.11233536509826 139.25272525384207,69.05192220359459 139.03949799796828,69.05192220359459 139.21546223825862,69.06158832010806 139.58188189154316,69.12200145620773 139.9379507071717,69.18966398019984 140.29608969033143,69.24282725221565 140.53208878906298,69.31532242506 140.53208878906298,69.6995430253155 140.51345728126762,69.97985085937762 140.18223047603533,69.98226729136331 139.9358805396405,69.9653522621029 139.54875921101484,69.95568652550537 139.12644503433694,69.938771476689 138.74967454338184,69.92427285351732 138.36462338229467,69.90735778159433 137.92367769782868,69.89527557974361 137.52827569907095,69.8880262555831 137.11217202499392,69.87594404357696 136.68157717818394,69.86627826939912 136.2903155144959,69.8372809224893 136.26961383916932,69.49172639089011 136.2592630015206,69.06158832010806 136.25098233137396,68.77160305719008 136.24270166124916,68.60727645138286 136.21992981838412,68.31486885136655 136.19508780798787,67.97895801004051 136.16403529501258,67.61887547062906 136.13298278201546,67.253953854266 136.1143512742201,67.05578207257895 136.08743909629266,66.7367702499796 136.05017608070193,66.35733375696509 136.01498323264968,66.00689321545724 135.99428155731584,65.65403044400773 135.96736937939568,65.34224992557756 135.93424669887463,65.12230918615751 135.8990538508151,64.72592715395149 135.87214167288766,64.31261909544264 135.8472996624987,63.94764498029326 135.7976156417135,63.53915714218783 135.74172111832013,63.164502148680185 135.68789676247252,62.81884728500336 135.642353076757,62.54812096314345 135.57196738064522,62.120270181989326 135.51814302479033,61.78185149097408 135.46017833387305,61.44342781452906 135.41877498321992,61.18718942869236 135.3773716325668,60.81733086911845 135.36288045982656,60.53932868497577 135.33803844944487,60.20330416234174 135.31112627151742,59.83826475741262 135.29456493125326,59.50948257898199 135.24902124553773,59.16135514213238 135.1807057169499,58.80113439178058 135.09375868058123,58.44332563663011 135.01509231433738,58.121776526008034 134.92400494289905,57.79538748558116 134.82670706885983,57.464158308857805 134.71491802208766,57.13050657015992 134.6321113207814,56.87422005807275 134.5161819389541,56.53330620725683 134.44579624284233,56.28426664843573 134.33607736360136,55.89256789568026 134.2656916674896,55.57823690249279 134.15183245318622,55.29533532856658 134.02348206616443,54.95681604265155 133.8847808414721,54.60136541929933 133.81025481029064,54.44177355299871 133.66948341805983,54.09840547247222 133.5680452089655,53.79614058686275 133.47281750245747,53.54465316814276 133.29892342969833,53.160162267939086 133.16643270760687,52.82161148801242 133.02566131538333,52.470964343378 132.89110042576067,52.144494943819154 132.7855218815821,51.87364273149251 132.6737328348172,51.59311385534056 132.58057529584767,51.3246735297962 132.48948792440206,51.169895698405526 132.20587497242377,51.31741834227614 131.8456658217401,51.44559298407876 131.49166717362823,51.59553222237446 131.17493154112162,51.68742998089692 130.90787992940022,51.62697097065757 130.8209328930243,51.22551910175207 130.74226652678044,50.850663123517734 130.66774049560627,50.49756737462485 130.58079345923034,50.110606888016264 130.4938464228544,49.713965615124835 130.3799872085583,49.360852369991335 130.26405782672373,49.03917598382213 130.19574229814316,48.84326559846704 130.0694620786453,48.451439807744464 129.93697135655384,48.0910509177902 129.8065508019863,47.689537163278146 129.68234075002692,47.32671748381654 129.59125337859587,47.067902604738265 129.45462232142745,46.65911427534593 129.3221315993287,46.293859366813194 129.19792154736206,45.894733112389076 129.07992199799628,45.54881807200036 128.96399261616898,45.227088210402144 128.85220356940408,44.905353834044945 128.72178301483655,44.52313720325583 128.61206413560285,44.20139294767432 128.50027508883795,43.896578434822004 128.38641587454185,43.538537163873116 128.27669699530088,43.228875338516445 128.19389029398735,42.97727202505848 128.07589074462157,42.64582882938339 127.9558210277246,42.29986476088379 127.8461021484909,41.98534743954224 127.70119042120496,41.57162962086477 127.56662953157502,41.17000167000515 127.4651913224734,40.86514683950918 127.33477076789859,40.4852823675792 127.22298172114097,40.15622270299173 127.09256116658071,39.78360531870749 126.98698262240941,39.473892751382664 126.90210575356468,39.19079244538443 126.81101838212635,38.922206870085574 126.6661066548404,38.53263120556949 126.55845794313791,38.21806217007361 126.44873906389694,37.89864919113097 126.32245884441363,37.52841493787491 126.20859963011026,37.20415257170862 126.08231941060512,36.82180746639824 125.99744254177494,36.4999550566954 125.9249866781247,36.18051811789155 125.83596947421029,35.824776283270694 125.75109260536556,35.49806973068371 125.64965439625666,35.11569614202017 125.66207540145842,34.871264110355696 125.50474266897072,34.827701692167466 125.30600658582989,34.9051459338807 124.94786760266288,34.99711063072573 124.5566059389821,35.11569614202017 124.19639678828389,35.231860945412336 123.82790696746088,35.34318499572146 123.48011882196442,35.48112926382055 123.1261201738671,35.60939248691284 122.75349001798168,35.76911549628858 122.42019304521091,35.86349675095698 122.14486076334288,35.97239771532804 121.97303685812949,36.04741807842947 121.78672178019042,36.11517819517758 121.46998614768381,36.19745806742321 121.103566494392,36.28457760996389 120.82823421253852,36.291837556886094 120.78269052681571,35.87801690946253 120.73921700863866,35.58277187704516 120.69574349043978,35.318984161252956 120.64812963718578,35.021311805352525 120.58602461120608,34.636510098989675 120.51770908262552,34.31704716594686 120.40177970079822,34.01210111745786 120.24444696831051,34.10890982682213 119.91943066566455,34.25654232056149 119.60062486562674,34.379972035549144 119.4246606253364,34.28074427789761" stroke="red" stroke-dasharray="none" stroke-linecap="round" stroke-linejoin="round" stroke-width="0.5"><title>2024-05-01 58.8km</title><desc>1714551575000</desc></polyline><polyline fill="none" opacity="1" points="19.206250269839074,114.1887408938419 19.478816993134387,114.07598677835449 19.698967038864794,114.0343166404109 19.78283372295118,114.32110372120587 19.82896039919433,114.57112033394333 19.86670040703757,114.84564527473776 19.914923750395246,115.11771589391356 19.969437095052854,115.42654894540101 19.996693767381657,115.70106376122567 20.028143773910415,115.95596746682531 20.049110444932012,116.24273078731312 20.05330377913924,116.34321965910021 20.137170463232906,116.36282719308474 20.476830533785687,116.29420075164126 20.82697393984563,116.22312315182717 21.128894002577,116.14959437109428 21.317594041764096,116.08096729879617 21.504197413865768,116.00253611040716 21.789344139760942,115.88979081247999 22.074490865663392,115.78194697121944 22.42673093884514,115.58096392907464 22.726554334454704,115.41184270286067 22.988637722228304,115.31380084764714 23.328297792795638,115.29664348037659 23.59247784767649,115.23781812480593 23.898591244593263,115.14957981170483 24.198414640202827,115.06134116289832 24.50033470292692,114.97555326582187 24.79386809722928,114.88731395491959 24.936441460180504,114.95839564832932 25.02240481136687,115.29664348037659 25.11256149676774,115.6642985725266 25.19433151375415,115.98537925259734 25.269811529433355,116.31625927281493 25.33900154381263,116.59566539212756 25.370451550341386,116.70595635491554 25.47109157124214,117.00006302547081 25.56963492505747,117.28926428225714 25.661888277551043,117.5662078692585 25.754141630044614,117.83824658117737 25.85058831675269,118.11518361503477 25.9533250047607,118.41172314572941 26.066545028283144,118.7450192514807 26.142025043955073,119.01214282125147 26.20702172411984,119.14202748255775 26.295081742406182,119.39444276388531 26.383141760707076,119.64440470559566 26.47329844610067,119.92377074832802 26.54877846178715,120.1565732149138 26.60538847355201,120.29380304852384 26.710221828645444,120.57071077775436 26.733285166774294,120.67608187768019 26.808765182460775,120.89417402980689 26.901018534954346,121.19067805065424 27.007948557162308,121.51658305907767 27.1169752464848,121.84248349146583 27.20922859897837,122.12427340969407 27.282611947557598,122.30314697413814 27.40002530527272,122.63393692078716 27.488085323573614,122.95492117764661 27.559372005052865,123.08723400698364 27.641142022032,123.28080141722057 27.716622037711204,123.535621876199 27.800488721797592,123.81249093526458 27.888548740098486,124.10650756014911 27.97451209128485,124.35396866712836 27.997575429406425,124.47892327347654 28.089828781907272,124.687179456394 28.20724213962967,124.99588518508972 28.31417216184491,125.32418677427813 28.427392185360077,125.69658295836416 28.546902210189728,126.04447399812307 28.662218900804874,126.36541111041697 28.771245590127364,126.70104288804396 28.892852282056992,127.05136869405578 29.001878971357655,127.37964122708036 29.129775664601766,127.73975575887198 29.242995688116935,128.07291797275866 29.36669904714654,128.42567275565125 29.477822403576283,128.74412733380814 29.555399086355465,128.97194216112803 29.57217242316983,128.93764759878468 29.668619109870633,128.94009721205657 29.75038912686432,129.0037870665492 30.083759196109895,128.87395756296428 30.423419266669953,128.75637549963176 30.716952660979587,128.68533604795994 30.836462685794686,128.94009721205657 30.987422717167647,129.2193514322771 31.150962751133193,129.50595095740573 31.30611611669883,129.78274885192513 31.45917281514994,130.03504848468037 31.55771616896527,130.0791394014068 31.62271284913004,130.4147175257749 31.710772867430933,130.78948152721387 31.80721955412446,131.14464444679652 31.868022900089272,131.3283472751409 31.968662920997303,131.52429535802366 32.086076278712426,131.78882264902313 32.17832963121327,132.03620192797825 32.297839656042925,132.3423607557379 32.43412301767967,132.69260150855735 32.55782637670927,132.99140413239365 32.6794330686389,133.3122452958487 32.81361976318294,133.61103995379744 32.859746439433366,133.75063942012275 32.687819737046084,133.80941789196186 32.70878640807496,133.81921428948044 32.717173076489416,133.79717238925514 32.74233308171097,133.78492688008737 32.92683978671266,133.86574712133188 33.03167314181337,134.1645346643454 33.16585983636469,134.50740088315433 33.31262653350859,134.85026204498718 33.45729656356707,135.22250558109408 33.572613254182215,135.53596919916708 33.666963273790316,135.86412189620933 33.77598996310553,136.23634919978213 33.84517997747025,136.4689882384646 33.95001333258551,136.7481520124711 34.05065335348627,137.09832639364868 34.151293374401575,137.4191108840223 34.2477400610951,137.75703174433147 34.32951007808151,138.09005039682597 34.43434343319677,138.3985781281226 34.52030678438314,138.746279078543 34.58740013165516,139.0621437458467 34.6482034776127,139.37065858214737 34.683846818363236,139.62040569056444 34.70481348937756,139.89218626169168 34.72787682749913,140.25210699569107 34.75303683272796,140.62671245754427 34.78029350506404,140.76626981282425 34.80126017607836,141.02089861955938 34.8410968510143,141.41018150404489 34.88722352726472,141.76273396729812 34.945930206136836,142.12507398773778 34.99834688368719,142.46782286775124 35.050763561237545,142.80811854668173 35.073826899366395,142.9158370051682 35.11366357430961,143.15820171360792 35.163983584767266,143.47645456778992 35.20172359260323,143.74084593677435 35.228980264932034,143.973409935581 35.254140270153584,144.2328996541546 35.23736693333922,144.29165164156802 35.29397694510408,144.5388979631789 35.321233617425605,144.87916335857517 35.340103621347225,145.21942377951564 35.350586956854386,145.46421237277718 35.36107029236882,145.55478349981058 35.38623029759037,145.77019449422914 35.41558363702643,146.05659011565513 35.438646975162555,146.3258477426716 35.46380698037683,146.58041572582079 35.48267698429845,146.87414455498765 35.51203032372723,147.21682350511583 35.528803660548874,147.41998078682263 35.562350334184885,147.7381753762129 35.572833669692045,147.91685196982507 35.602187009120826,148.20566876956764 35.6252503472424,148.48713932230385 35.63573368277139,148.72455096931662 35.65670035378571,148.89342994591607 35.66718368929287,149.10391507173517 35.66089368799294,149.38047984478362 35.669280356392846,149.6839630727045 35.68815036031447,149.96541575742958 35.68605369321449,150.20036495892236 35.71540703264327,150.56012633033242 35.71540703264327,150.95169701728082 35.72169703395048,151.34815563099255 35.71750369975052,151.70545205726012 35.72169703395048,152.10679219229132 35.72589036815771,152.49099547759033 35.73008370236494,152.8066736896908 35.719600366843224,153.15171242400538 35.6986336958289,153.24959482242957 35.75943704178644,153.4845109008329 35.76992037730088,153.7659176682373 35.78669371412252,154.04242709428217 35.805563718036865,154.33606183023585 35.82024038775853,154.68352482105 35.81185371934407,155.00162019937488 35.79298371542245,155.31481756020003 35.757340374686464,155.61577668325845 35.74476037207205,155.82130750941906 35.746857039179304,155.8947109366145 35.97329708621692,155.89715771354167 36.319247158076905,155.93875288196796 36.65890722863696,155.98034797614673 37.015340636018664,156.01704946818973 37.392740714400134,156.04641062020346 37.71353078105312,156.0806652508145 38.053190851605905,156.10023930284115 38.32575757489394,156.11981333842414 38.623484303410805,156.14428085978398 38.93169436743483,156.16385485838146 39.23361443015165,156.18342884054073 39.54811449548288,156.2103430391653 39.866807895028614,156.23725720669972 40.05550793421571,156.2861919771458 40.30920465359668,156.26417134316034 40.61951138472068,156.29353218385404 40.961268122366164,156.33023318269989 41.26738151929021,156.3473602957165 41.569301582014305,156.37672103161094 41.86702831053117,156.4011882832674 42.068308352339955,156.41342189945863 42.39329175318562,156.41586862192344 42.743435159245564,156.45990958244147 43.06841856009851,156.49416360530267 43.42275530036568,156.52107744508976 43.770802039325645,156.54554454520076 44.102075441485795,156.57735173694527 44.48995885538898,156.60671218311109 44.82542559174908,156.62873249345466 45.032995634865074,156.64341268879616 45.30765902525309,156.6629862682039 45.4586190566115,156.67032635623946 45.75844245223561,156.68745321933966 46.00584917028755,156.80000086377913 46.00375250318757,157.13030059545235 45.99117250058043,157.41900319403794 45.984882499273226,157.7713133852685 45.97859249796602,158.08202698223795 45.974399163766066,158.40986203537614 45.96810916244431,158.75481782247516 45.96391582823708,159.0850898569588 45.96601249534433,159.4226964342106 45.96181916115165,159.72849527381732 45.95762582692987,160.01227300906794 45.95343249272992,160.25690621570357 45.955529159844446,160.48441279452345 45.94504582432273,160.93208054909155 45.942949157222756,161.41398650477458 45.92827248750109,161.8763133156499 45.91778915199393,162.29215499881684 45.90730581648677,162.67374437279068 45.89682248097233,162.9892847163792 45.82972913370759,163.34884874154704 45.722799111485074,163.68883955817728 45.565549078826734,163.99213653625338 45.38733237513952,164.28075419237575 45.429265717182716,164.21960668199972 45.48377906183305,164.23917390275346 45.599095752462745,164.3345638689152 45.83182580080029,164.48865452879 46.068749183359614,164.67698617534188 46.28051256068284,164.80417032335754 46.45243926305557,164.9533662286358 46.68516931140766,165.1685979847589 46.940962697874056,165.3544783580801 47.17788608041883,165.5525860730886 47.435776133992476,165.5525860730886 47.561576160129334,165.53791148521668 47.67689285075903,165.71156018343572 47.76075953484542,165.89499050327504 47.91591290040378,165.92923066994808 48.24299296834943,166.01972229709645 48.55749303367338,166.13956201994552 48.886669768719,166.2153786695999 49.13826982098544,166.34010875075 49.391966540359135,166.46483816517866 49.616309920289495,166.5675560058553 49.8364599660199,166.67271904096924 50.0964466867008,166.7827728725424 50.40465675071755,166.88793493776393 50.704480146341666,167.0151070347183 50.844956842192914,167.08602963392332 51.107040229966515,167.23521094940043 51.35235028092575,167.37950016693867 51.57669366085611,167.51156070277102 51.8807103906729,167.63139276449692 52.239240465161856,167.74144207510835 52.541160527878674,167.8343721999354 52.843080590588215,167.9199654085878 53.13451731780515,168.02512234948517 53.36934403324267,168.14495177432946 53.5664307408515,168.23543480989065 53.74884077875322,168.32102654769733 53.96689415737637,168.42862714418698 54.25833088458603,168.5680180884574 54.60008762223879,168.7294170891946 54.96071436382772,168.80767074842515 55.29198776597332,168.83457038318556 55.560361155054125,168.86391540393925 55.83292787834944,168.85413373445408 56.14742794368067,168.88103331567254 56.2983879750318,168.9421686122423 56.56885803122714,168.94950483706634 56.86029475842952,169.02286695853036 57.206244830289506,169.08644727728097 57.43687821153435,169.16714512476574 57.63815825335041,169.24784269325392 57.95894831998157,169.3970101914456 58.24828838009125,169.53639535282855 58.51875843627204,169.63665434022914 58.640365128201665,169.6904516681352 58.891965180468105,169.7882646739763 59.21065857999929,169.91542096885314 59.53983531505219,170.0548030348109 59.86481871589058,170.1770673197716 60.12899877077143,170.25531612609484 60.48123884393863,170.39469616269162 60.848155586834764,170.58542539060545 61.187815657387546,170.7541461010187 61.49392905431887,170.9033039744936 61.76020577629242,171.04268014254376 61.97825915493013,171.16493925403665 62.242439209803706,171.29453321324763 62.51081259889179,171.42657160169256 62.75192931563652,171.5488287029857 62.988852698188566,171.66619491797792 63.27819275829097,171.8251273937385 63.54656614737905,171.97916860708756 63.81284286935988,172.1112031239827 64.12524626758386,172.27257763074158 64.42506966320798,172.42417084845692 64.70392638780322,172.5684279966208 64.9681064426768,172.70290419655794 65.2574465027792,172.85693961947254 65.55307656418154,172.99630412660918 65.84031995719124,173.13566780203655 66.14224001990806,173.29214532364676 66.43158008002501,173.43639711009564 66.69995346909855,173.57820308251576 66.91591018061445,173.6882243644868 67.17380023420264,173.82024921870834 67.45894696009782,173.9596079773637 67.74409368600027,174.11119024438995 68.05020708292432,174.27255093146778 68.37099714955548,174.42902083613262 68.66662721097964,174.58793451014208 68.9664506065892,174.76151590317022 69.26627400220605,174.913092965975 69.57029073203739,175.0671138125599 69.92043413809733,175.24802589086903 70.23703087052854,175.40693399295014 70.55362760295975,175.57317515812974 70.79893765391898,175.7002999567685 71.11972772055742,175.85676029770184 71.43632445298863,176.02055359437873 71.71727784468385,176.15500991991212 72.03806791132229,176.32613503318498 72.32740797143197,176.5217050563424 72.39030798449676,176.6366016814991 72.55175135137688,176.70016127394592 72.82641474176489,176.91772933906577 73.07591812692408,177.17196361218703 73.29816483974719,177.39930537883083 73.5036382157632,177.60219992618477 73.70072492337931,177.8026482307887 73.96700164535287,178.07153959738935 74.22279503182654,178.3379834448624 74.51003842482896,178.63375700178403 74.77631514681707,178.9099719017031 75.02581853198353,179.17640618960286 75.28580525264988,179.4232829560642 75.53111530360911,179.6750456855043 75.7806186887683,179.91702866544438 76.01544540422037,180.15900914000667 76.23978878415073,180.39854289992945 76.447358827274,180.61118816046655 76.67170220720436,180.82627565137955 76.72411888475472,180.8776030555582 76.75976222550526,180.9069329502072 76.81427557015559,180.95581602616403 76.96104226730677,181.1024646406604 77.13296896969405,181.28821823161888 77.2587689958309,181.40797963262776 77.43279236531089,181.6059512153879 77.64036240842688,181.8308057943359 77.8647057883718,182.05077013751907 78.04501915915898,182.2438482441994 78.19807585761009,182.3587167409878 78.44548257567658,182.5957839818966 78.68450262532133,182.85484440362052 78.92352267498063,183.1065701768548 79.17092939303984,183.36318103958 79.37640276905586,183.5855748425547 79.38478943746304,183.62467683101022 79.57348947667197,183.78841569747783 79.75589951455913,183.95215341735457 79.99491956421116,184.19409212860046 80.20877960862708,184.40914665937999 80.38280297812162,184.6193116763552 80.40376964914321,184.67063075404985 80.50440967005125,184.7903748306926 80.58198635283043,184.97854285518952 80.7266563828889,185.13738481426662 80.77907306043926,185.2253583581405 80.69730304345285,185.33288112901937 80.55892301470885,185.50149538790174 80.466669662208,185.6481154944522 80.40796298334317,185.74586172149975 80.34506297028565,185.94868383934954" stroke="red" stroke-dasharray="none" stroke-linecap="round" stroke-linejoin="round" stroke-width="0.5"><title>2024-05-01 52.5km</title><desc>1714541844000</desc></polyline><polyline fill="none" opacity="1" points="186.0,148.2432726525476 185.79928866672708,148.27968021816287 185.53974814957473,148.32148136911837 185.26290493126726,148.337662423055 184.99644333365723,148.33901084328863 184.79342497356265,148.3174361024303 184.59386715370783,148.3444045228016 184.31010285494267,148.34710136170906 184.0378736902785,148.34305610313731 183.7610304719783,148.35654029338093 183.50956454869447,148.36328238315673 183.2258002499293,148.3673276353129 182.96049216572283,148.33496558215393 182.749399211767,148.3147392572546 182.46102085936582,148.30260344693215 182.1945592617485,148.39699277861928 181.98692684802518,148.42935467449115 181.78506200134143,148.44283877354974 181.63395174469042,148.255408519296 181.5266749975999,147.99246215588664 181.4551571661941,147.8522218799908 181.3559550129794,147.60275219520827 181.29943285590707,147.4341888362551 181.2302220513302,147.25888058065993 181.14486205902358,147.04581038101605 181.04335287897993,146.80171926022103 180.94876477939397,146.56571511725542 180.84956262617197,146.38634904857645 180.4988945496516,145.77540659649003 180.35701240027265,145.56635775776886 180.30856483706157,145.39641875764664 180.16898971451155,145.5137578330232 179.9486686532764,145.6176087578433 179.7491108334143,145.5137578330232 179.6533692204248,145.494875755845 179.3753724887065,145.47599365071073 179.18504277612374,145.50027063789094 178.94395847351552,145.57714745910744 178.72594443910202,145.64862899994478 178.63597039315937,145.67560306219002 178.3821974430466,145.77540659649003 178.09612611746707,145.87520934986787 177.96231856195664,145.93185380845807 177.78121695664595,146.04244464549265 177.6577910218184,146.09908836143768 177.45938671537442,146.22990741080594 177.24252619437175,146.29329347799194 177.06142458906106,146.3499360800588 176.82034028646012,146.42141329039532 176.61732192636555,146.48614702207942 176.4166105930999,146.55088042528132 176.22397385370277,146.66146589587697 176.02672306065506,146.84352525321992 175.77987119099998,146.93522824190586 175.62991444775253,146.99321655632593 175.3669133903677,147.10514674346268 175.10160530616122,147.2265157162392 174.94472748245607,147.30473066472314 174.7024896664443,147.42340070545924 174.6055945400367,147.4544165569032 174.36912429107178,147.61893416052317 174.13150052869605,147.78210116407536 174.00346054023248,147.87649434572722 173.78313947899733,147.9506599271881 173.4982216668286,148.06393016518814 173.3205806017504,148.10842891218545 173.0356627895817,148.15697282285782 172.8614822647287,148.16641189515485 172.60424877439073,148.2041681145265 172.3493223108744,148.15157906412333 172.11746611554554,148.08550533462767 171.9652023454837,147.99920443801602 171.73796020379086,147.81041919188647 171.53148130347108,147.88458515737602 171.32730942997296,148.0275219840487 171.09314620782243,148.14483686249878 170.8520619052142,148.22978834262813 170.57060463327798,148.33496558215393 170.31683168316522,148.4226126196172 170.15880034605652,148.47789736443428 169.96616360665212,148.57498219041372 169.79544362203887,148.6585824210124 169.55089877919818,148.69094365357796 169.31442853023327,148.73813697065998 169.13678746515507,148.76914962686897 168.9972123425905,148.8069040631508 168.72498317792633,148.92556013585727 168.5392675189869,149.03342833565512 168.2612707872686,149.18309395298274 168.07901566855435,149.27612845224485 167.8702297414202,149.37320720679782 167.60376814380288,149.5147790671026 167.39152167644352,149.6563493573367 167.29231952321425,149.7278080504475 167.0397000865196,149.79656981145763 166.76054984139046,149.88151029900746 166.44564068057662,149.97588795568026 166.25877150821907,150.0190317949273 165.9680861290035,150.10127433462003 165.71892723252677,150.2199183764751 165.4363164471797,150.35608802018305 165.2955878112043,150.43563199156324 165.0591175622394,150.53674649405457 164.8445640680511,150.63381566309363 164.65769489570812,150.6998762033545 164.46390464289289,150.7902033276905 164.3577814092132,150.83873704103644 164.30010573873005,150.85895936715315 164.08901278477424,150.95063351054068 163.8398538883048,151.08679536169984 163.61607228684443,151.19194906504163 163.35883879649919,151.33215265589934 163.10160530616122,151.48044324042166 162.9562626165498,151.53841090988226 162.72209939440654,151.65299738934482 162.50293184658221,151.77162701432644 162.3068345669526,151.86464265409268 162.17418052484572,151.75949448962547 162.0657502643444,151.52088582825945 161.92732865519065,151.28227270863317 161.837354609248,151.15554980418256 161.69893300009426,150.94119649675758 161.563971931173,150.7403212634008 161.45900221090415,150.59067390129167 161.30673844083503,150.63111930725154 161.09218494665402,150.7699808926809 160.91339036816498,150.8562630588558 160.68730173988297,150.95198165479542 160.3931558204349,150.96546308953384 160.25358069787762,150.92097430087597 159.99980774776486,150.78750700487217 159.69181966740143,150.63786019579038 159.33423051043064,150.58393298784722 159.07238296645664,150.53674649405457 158.79784677496355,150.52865736332205 158.5383062578112,150.48686343957252 158.36181870614382,150.4558549561234 158.16456791310338,150.42484639736904 157.92694415072765,150.40327518164395 157.65356147265265,150.3749629056938 157.37210420070915,150.3493469828809 157.09641449581977,150.32507921912475 156.84379505911784,150.3008114092363 156.6096318369746,150.2792399839509 156.36624050754472,150.27384712192998 156.12861674516898,150.3574362272184 155.98788810920087,150.40057877711206 155.88753244256077,150.2414899019941 155.7629529943224,150.04464838049353 155.6349130058661,149.8397142567137 155.52994328558998,149.66713560080007 155.41805248485616,149.50264439774583 155.2946265500359,149.32466792181094 155.19542439680663,149.14264395919236 155.03393251946545,148.8931994981558 154.88282226280717,148.6585824210124 154.73401903297054,148.43070308503775 154.610593098143,148.36193396548515 154.39373257714033,148.45901967361442 154.2783812361813,148.54666585912491 154.01422666538565,148.66802112232017 153.86542343554174,148.73004670012506 153.65663750841486,148.8271296080802 153.41901374603185,148.8931994981558 153.15370566183265,149.04017006786853 153.01643756608973,149.12107057675348 152.89531865807658,149.1790489593741 152.66923002979456,149.26938684465313 152.46390464289289,149.34758927383064 152.25050466211542,149.42309461292007 152.07517062385887,149.48511652163688 151.7406517350828,149.8747690111204 151.6033836393326,149.9394852279056 150.78208209170407,149.9219579515866 150.65634913006215,149.88151029900746 150.43256752859452,149.92330620446683 150.15341728347266,149.9677984695918 149.89041622608784,150.00150462781858 149.6447178698436,150.02712124855316 149.4163222147472,150.04330014042807 149.1694703450994,150.05543429588306 148.9468422570426,150.0567825346643 148.6480822839585,150.0662202021549 148.38623473997723,150.0823990444851 148.30318177448498,150.07835433582386 148.0009612611757,150.07296138895344 147.6768239930825,150.09183669304002 147.3734499663551,150.08644375186304 147.04700567144027,150.07835433582386 146.7447851581237,150.07026491465876 146.44371815822524,150.0689166773018 146.1714889935538,150.0648719643723 145.877343074113,150.06082725015767 145.599346342402,150.0662202021549 145.32365663750534,150.0662202021549 145.06296260694216,150.06352372644506 144.79304046909238,150.0662202021549 144.517350764203,150.0662202021549 144.24627511294966,150.0621754883723 143.95443622032326,150.0621754883723 143.8114005575335,150.06082725015767 143.5080265308061,150.06352372644506 143.20695953090762,150.0648719643723 142.92665577236767,150.0662202021549 142.6555801211216,150.0716131518775 142.42026338556025,150.07430962588387 142.20340286455757,150.06756843979747 141.95424396808812,150.0648719643723 141.68316831683478,150.0662202021549 141.377487263293,150.0689166773018 141.14909160818934,150.0689166773018 140.97145054311113,150.07700609932 140.63577814092423,150.07026491465876 140.34855330193386,150.0823990444851 140.12246467365185,150.07970257218494 139.8479284821733,150.07970257218494 139.53186580794136,150.08105080840505 139.25040853599785,150.08105080840505 139.0012496395284,150.07970257218494 138.74516966260126,150.07700609932 138.4867826588452,150.0823990444851 138.24454484283342,150.08374728041963 138.00115351341083,150.08509551621137 137.70700759396277,150.08509551621137 137.4497741036248,150.09588139742846 137.21215034124907,150.09183669304002 136.90992982793978,150.08914022273711 136.59040661347535,150.08644375186304 136.41737960204046,150.06082725015767 136.13592233009695,150.09992610053723 135.87868883975898,150.09857786630982 135.69758723445557,150.09992610053723 135.3803710468128,150.09857786630982 135.0885321541864,150.09992610053723 134.8186100163366,150.09318492797775 134.54176679804368,150.09588139742846 134.28107276747323,150.1080155029049 134.00192252235138,150.1080155029049 133.7400749783701,150.1080155029049 133.48860905508627,150.1093637361355 133.2936652888602,150.12149782879442 133.01451504373836,150.11610490014846 132.75151398635353,150.11340843496964 132.55195616649144,150.11610490014846 132.25781024704338,150.11745313252322 131.98673459579004,150.12014959684802 131.80563299048663,150.1241942922661 131.76526002115133,150.02307652238142 131.7110448908934,149.91386843132477 131.44573680669419,149.9084754149644 131.18965682975977,149.8963411198356 131.02701143900777,149.88690332675833 130.76516389503377,149.8828585561614 130.46640392194968,149.87342075311608 130.197635297518,149.85724164594922 129.92540613284655,149.84106251828052 129.64740940113552,149.8289281590678 129.37171969623887,149.82488337010454 129.0891089108918,149.83432120903035 128.80649812554475,149.84375904097942 128.5492646351995,149.85184860567006 128.28049601076782,149.85993816523478 128.01864846678654,149.8639829430922 127.77064308372792,149.86937597824635 127.53647986157739,149.8788137842812 127.40151879265613,149.8788137842812 127.16620205710205,149.8882515833384 126.88128424492606,149.89768937541703 126.65634913006215,149.90308239633214 126.66096318369819,150.12823898640454 126.64481399596116,150.43158739480896 126.63789291551075,150.70796522561432 126.59982697298983,150.96950751718214 126.57098913774826,151.11915043956742 126.46255887724692,151.38068430948442 126.33336537537252,151.65299738934482 126.20532538690895,151.9253046628919 126.08766701913555,152.18008195359926 125.99538594636397,152.4699017933799 125.97577621840173,152.74488756166284 126.02076324137306,153.08726352909798 126.08074593867786,153.41480360268997 126.1291935018744,153.68437761045425 126.16725944439531,153.952598103142 125.88810919927346,153.9943806880956 125.61472652119846,154.0321196796467 125.35287897721719,154.0671629291437 125.10372008074773,154.1035538942042 125.02989522253483,154.12242324269027 124.80149956743844,154.15072721317483 124.56848985869146,154.18981354554035 124.32279150244722,154.2315953548159 124.17168124579621,154.2369865460605 124.07593963279942,154.22620416129757 124.25934826492448,154.23833434351582 124.52696337594534,154.2046393644705 124.79111794674827,154.16150966163514 124.99644333365723,154.13320571503118 125.2317600692113,154.10085827071634 125.43708545611298,154.07255418976638 125.70931462078443,154.0321196796467 125.93771027588082,153.99977197942735 125.97116216475843,153.935076333305 125.91348649427528,153.69920401586387 125.85119677016337,153.46332734385942 125.82120542151097,153.3177555674538 125.77506488513609,153.1479197318522 125.70354705373029,152.85676733202945 125.63895030279673,152.58178397222218 125.58358165913523,152.32431869585253 125.53628760934953,152.1113330266162 125.48207247909158,151.8889074921899 125.37248870517942,151.65569352942202 125.25136979717354,151.43460815270646 125.13371142940014,151.17307538717523 125.17754493896064,150.95063351054068 125.23752763625816,150.70931339549406 125.30097087378817,150.50438994037904 125.37133519177587,150.23879346329613 125.43708545611298,150.02172828003677 125.50052869364299,149.8019628750908 125.48437950591324,149.6401699750595 125.21907142170676,149.57545224088517 124.98260117273458,149.51343077107776 124.70575795444165,149.4419708779069 124.44967797750724,149.38129706968175 124.19013746035489,149.3152297060733 123.9386715370565,149.2491620005094 123.75064885128813,149.20331890181114 123.48418725367083,149.13320560886223 123.22349322311493,149.06039524316293 122.98356243391027,148.99567456941895 122.77016245314007,148.94174042394116 122.47486302028119,148.86488387285954 122.22455061040091,148.80285895032557 121.9430933384574,148.72869832120432 121.69278092857712,148.67611143216982 121.46438527348073,148.6154339832765 121.22214745746169,148.50486544573232 121.03527828511142,148.33901084328863 120.85879073344404,148.16371501806316 120.65461885994591,147.96279607221004 120.4723637412244,147.78749507897737 120.2843410554633,147.62432814439853 120.02710756512533,147.5150995264603 119.7491108334143,147.49891742946147 119.53225031240436,147.55420617613981 119.36960492165963,147.64994953667974 119.13659521291993,147.84547952020512 118.90819955781626,148.02887043705414 118.69133903681359,148.1475337435786 118.44564068057662,148.22574304687168 118.20801691819361,148.26080223413828 117.97731423627556,148.27024122964303 117.85042776122282,148.2783317916601 117.57358454292262,148.29586132509576 117.32442564645316,148.3120424115159 117.07988080361247,148.33226874068532 116.82726136691781,148.34979820003718 116.56541382293653,148.36867605241332 116.33471114101849,148.38620546175662 116.10516197251127,148.39699277861928 115.83870037489396,148.4253094419928 115.5849274247812,148.44553559165251 115.34845717581629,148.47115533520628 115.09929827933956,148.483290985253 114.83860424877639,148.51565266229227 114.58944535229966,148.60464685105217 114.37604537152947,148.7529691199852 114.1995578198621,148.94713384874558 114.11073728732299,149.0994971578557 114.03460540228843,149.30983643680338 114.0,149.56871079137 114.0149956743262,149.86802771967268 114.03921945592447,150.1525071243159 114.06228972411918,150.45315856269917 114.07843891185621,150.72009874938976 114.10496972027613,150.9951221958636 114.12688647505274,151.28227270863317 114.1476497164258,151.59098601045844 114.15457079689077,151.90778011216935 114.15226377006911,152.1382934342455 114.13611458233208,152.46585784084982 114.11189080073382,152.77319458411148 114.09112755936076,153.0576092807105 114.07151783139125,153.33123450532366 114.05190810342901,153.60620173377174 114.03114486205595,153.89059788658142 114.01960972796223,154.17768331725347 114.09228107277158,154.4593712029182" stroke="red" stroke-dasharray="none" stroke-linecap="round" stroke-linejoin="round" stroke-width="0.5"><title>2024-04-21 79.4km</title><desc>1713660889000</desc></polyline><polyline fill="none" opacity="1" points="19.23278763845883,194.32091971347472 19.46188541615993,194.48017143028846 20.16775424473599,194.18579617346404 20.479409780164133,194.63700915651316 20.59292669704155,195.26676210060396 20.67548445477587,195.86995744560772 20.689932062370644,196.43935923015124 21.057314084268,196.43935923015124 21.73015980976197,196.33561335268496 22.00672829814721,196.58412013192174 22.060390840670152,197.26207147581408 21.814781511420733,197.46955434157644 21.779694464392378,197.38511386787286 22.037687457290303,197.0111594455011 21.835420950854314,196.35974034300307 21.77350263256085,196.21497801873738 22.175971701493836,196.09434204745412 22.735300510103116,195.85789369487975 23.44736117051798,195.57318732731255 24.114015064173145,195.36327442669608 24.80750022909342,195.1726621898597 25.432875243881426,194.98446120483823 25.643397526087938,195.58283844874495 25.802321209717775,196.23186700386395 25.97775644489593,196.9291299145425 26.190342671041435,197.5443442147007 26.433888056344585,198.25121704761477 26.685689217425534,199.02320333923672 26.949874042147712,199.75415381104904 27.193419427450863,200.46337052613853 27.379174382331257,201.01577237415222 27.690829917766678,201.90827115550746 27.913735863636248,202.54023569690253 28.09949081852392,203.13117909271205 28.29556549312838,203.6931641458632 28.512279607173696,204.30819632790917 28.726929777265468,204.94974167431064 28.96634727467608,205.6636205929044 29.199572940255166,206.34130258804544 29.436926493726787,207.03825706699354 29.64538483198703,207.62184966450513 29.874482609695406,208.31153080391778 30.060237564568524,208.89509090594584 30.53700861546531,208.79381294794803 31.174767293916375,208.57919864989526 31.507062268770824,209.16034057506477 31.86412457095139,209.7872821091496 32.09941418047674,210.25265451929954 32.32232012633904,211.08933654017892 32.530778464606556,211.60531538322903 32.80941089694534,212.31175352234823 33.14170587180706,213.13148374782577 33.36667576160835,213.66429264576254 33.639116362108325,214.35379162688878 33.83725498066633,214.8455893948776 34.04158543104859,215.42175078705986 34.2438519374773,216.12083927543972 34.45231027574482,216.78133774710477 34.6937917171017,217.50931033405323 34.9084418871862,218.31198174897145 35.0776852905401,218.95072417858137 35.13547572094831,219.59908977917803 35.168498824044946,220.22815558400362 35.20564981501957,220.67885494090115 35.31916673188971,221.53443627051092 35.43474759271339,222.27671755882875 35.5503284535298,222.985236349763 35.64114198703464,223.65758595758234 35.707188193220645,224.22629638601575 35.760850735750864,224.81427029145925 35.810385390373995,225.45283141660366 35.884687372337794,226.28895813518102 35.930094139090215,226.87206015337506 35.98169273766689,227.4720132735074 36.02709950441931,228.02376352517786 36.07250627117173,228.58513770460377 36.076634159056994,229.12722418635713 36.09520965455158,229.73193664692917 36.13029670157994,230.59922548024042 36.13029670157994,231.57247721808562 36.136488533411466,232.17230734283112 36.142680365242995,232.78657494503568 36.19427896381967,233.47790743080986 36.21698234719224,234.28965451775002 36.183959244110156,234.85087532173202 36.142680365242995,235.3663192430431 36.7763111558088,235.424125315727 37.51933097535948,235.4915655497607 38.243775299430126,235.5469627365619 38.8423190429603,235.58790839734502 39.61423407773691,235.65053103131868 40.34899812151707,235.7203791521697 40.94135003321571,235.76132450345358 41.618323646594945,235.82153812260185 42.29736120391317,235.88416011887057 43.042444967417396,235.92992223882356 43.595581944195146,235.97327574194787 44.18174202406226,236.0190376841456 44.83188436618366,236.0768421122557 45.333422744384734,236.1129698058612 45.907199160596065,236.15150594968145 46.25187779911357,236.5392722944125 46.24362202334305,237.33405239569947 46.22091863997048,238.14566306002052 46.24155807939678,238.69474835850815 46.20440708842216,239.45814775640247 46.19408736869809,240.36841416607786 46.17551187321078,241.38700282945683 46.161064265616005,242.21291743205256 45.9711814228358,243.0532490282003 45.65952588740765,243.6070324093762 45.358190071703575,244.08134929646621 45.47170698858099,244.02838038381924 45.740019701195706,243.59258605602554 46.25600568700611,243.95614985152133 46.78643928041129,244.37026848755886 47.362279640568886,244.83734682559225 47.88652140214981,245.00347033623802 48.398379500067676,245.31886094175206 49.062969449776574,245.52831643172613 49.84107631636289,245.9014795260864 50.43136428412981,246.14222669241462 51.18263987945829,246.48649075654066 51.65115515457728,246.7585279412706 52.35083215132909,247.0233398056862 52.963823502454034,247.20389159951446 53.376612291096535,247.36999799664227 53.88434250112914,247.6155443838834 54.429223702143645,247.87312453840423 55.13922041861224,248.0849639967746 55.81825797592319,248.11385104431247 56.361075232991425,248.17884676849462 57.064880117621215,248.31365212883975 57.6964469642553,248.51345147598295 58.32388592300413,248.8023149303899 58.9740282651037,249.0454388568287 59.702600477059605,249.3511454898562 60.330039435801154,249.558157120955 61.05861164775706,249.92162651992658 61.640643839738914,250.21769337140904 62.135990386115736,250.47524435967534 62.62720904460002,250.72075756808772 63.20511334870389,251.0264419170344 63.74380271787959,251.3200876206556 64.29900363861088,251.59447447787352 64.89754738213378,251.89533349532394 65.48577140595444,252.19378175013662 66.11940219651297,252.50907368140906 66.71175410823344,252.8171410100258 67.2545713652944,253.09150999903795 67.92741709078109,253.43566997846028 68.51976900248701,253.74372489131747 69.0667141474405,254.04214915228113 69.57238041352684,254.2900308758708 70.13583711002138,254.58122832212393 70.66627070343384,254.8603893538857 71.13891386642354,255.09382313211972 71.63219646885409,255.34169351918354 72.2142286608505,255.7074779478753 72.58780251456483,255.99143816408105 73.04393412601348,256.45828039089974 73.43401953128341,256.8408914390766 74.06145849003224,257.4785623763728 74.5960199713154,258.0247796511867 75.14090117232263,258.57579627193627 75.63211983080691,259.0666471249988 76.06967594676826,259.5286148323994 76.44531374444341,259.8967387086268 76.58153404468612,260.02185136478147 76.97161944996333,260.42605683551665 77.10783975021332,260.6907113330544 77.42362317351945,260.9120563935958 77.79513308330206,261.2825640130268 78.34414217219455,261.80703862656446 78.876639709546,262.35796468391163 79.35547470438178,262.86316912794973 79.83018181131774,263.3154379854677 80.07579114055261,263.6835012951069 80.22439510446566,263.86873354511226 80.36061540472292,264.0467475497371 80.55462613538839,264.2488158328306 80.67020699619752,264.45088234232026 80.71974165084248,264.68181332436507 80.68878249169211,264.83336052248706 80.55256219143484,265.0089615838333 80.43698133061116,265.31686158170487 80.3461677971136,265.64159539942557 80.15422101040167,265.9975946185932 80.32346441374102,265.7594606152488 80.3152086379705,265.4996752573061 80.23471482418972,265.3096452226273 80.54430641565705,264.7275181399691 80.6784627719826,264.4436657118076 80.61860839762085,264.2800881467301 80.4122140032996,264.08283130179734 80.38125484414923,263.82783824149556 80.51953908835276,263.65463379723224 80.16866861799645,263.4934562687631 79.71666489444033,263.04359659928195 79.39675358323439,262.6995803314785 78.9137907005279,262.2208358499538 78.43289176174585,261.73967558372533 77.97882409424346,261.2633170108584 77.52682037069462,260.8230374404102 77.06862481528515,260.35628377915964 76.66615574635944,259.95207708274575 76.26987850926525,259.5141784819425 75.85502577668376,259.1243935956991 75.47526009112335,258.74422666645114 75.0088087599579,258.2653998861624 74.57331658794283,257.8322816510663 74.12131286437216,257.3702798783597 73.72503562728525,256.9756460159624 73.41957192368864,256.6652280374128 72.96344031222543,256.21523484705904 72.53413997204188,255.77485865542985 72.24931570787885,255.5510576870911 71.64870802040241,255.20692936831074 70.96554257519892,254.84835662068508 70.31952812097006,254.51865728109806 69.69415310617478,254.2033929073241 69.12037668995617,253.9073773850232 68.50532139488496,253.61376472829033 67.85311510883184,253.27442083931783 67.3123617957026,252.99524055121947 66.71588199611142,252.69920947346873 66.03890838273219,252.35503846898428 65.4610040786356,252.04937178809996 64.85420455932763,251.73888729767896 64.25359687185119,251.42599170805806 63.671564679869334,251.1130918590934 63.0915964318192,250.83869925528234 62.51782001560787,250.54023340536878 61.892445000812586,250.22250743504082 61.339308024034835,249.94810419853093 60.72012484106381,249.63037004192483 60.21652251892374,249.3607739791605 59.688152869457554,249.09598905317216 59.132951948733535,248.8047221105826 58.60251835532108,248.54474519227006 58.065892930084374,248.27995086289957 57.719150347627874,248.20051196903478 57.51069200936763,248.4099411877196 56.91421220977645,248.27754362772976 56.433313271008956,248.15477429949533 55.754275713683455,248.09940752508555 55.06079054876318,248.05607691291334 54.49526990832237,247.88034637027522 54.15265521375113,247.7118363684167 53.63666922794073,247.46629101029248 53.07321253144619,247.21352098866373 52.50769189100538,247.0474134601791 51.969002521822404,246.88611949335973 51.63464360302896,246.73204658694158 51.00514070034842,246.36611929274477 50.41485273258877,246.11574462762292 49.88648308311531,245.8942570721174 49.35604948971013,245.63665472880894 48.78020912955981,245.44886802243855 48.22913609671377,245.26348733208397 47.921608449178166,245.0395839839075 47.69870250331587,244.85901517773164 47.188908349337,244.6808525642864 46.730712793942075,244.29803903053107 46.3468192204964,244.013934295539 45.88862366510875,243.6792640397507 45.60379940093844,243.69852576948324 45.25292893059668,243.9898574615363 44.730751112962025,243.66241001298295 44.28287527728389,243.33977340145975 43.82261577794998,243.01231668302353 43.36854811043304,242.66077706728538 42.881457339834014,242.32367923017773 42.443901223887224,241.94323429799624 41.99396144425555,241.64224491669665 41.539893776745885,241.3990426143282 41.08789005318249,241.17269360237333 40.63175844173384,241.00654237541312 40.22103359704488,240.8692861069958 39.74426254614809,240.71035677095642 39.306706430194026,240.5851389433592 38.87327820211067,240.47436875727544 38.51208801205212,240.38286254822378 37.91560821245366,240.3732302944718 37.306744749213976,240.3395173745157 36.73296833299537,240.31543668709128 36.13855247734318,240.2889479017431 35.97756484978163,239.96385577381807 35.98169273766689,239.5376168970015 35.98788456949842,239.19084044601004 35.99407640132995,238.67548243007332 36.01471584074898,238.10231366114385 36.029163448358304,237.60378968839905 36.058058663562406,237.09321284783982 36.10346543030755,236.58262464616018 36.14474430918199,236.09611022258832 36.18189530015661,235.6433053515084 36.22317417902377,235.15195378526187 36.26445305789093,234.63891371322825 36.28715644127078,234.15235806756755 36.2582612260594,233.63447809618629 36.2376217866331,233.1310393807271 36.252069394227874,232.73357995725928 36.22730206690176,232.23012146561086 36.22317417902377,231.6953352683231 36.22317417902377,231.08103843448407 36.21285445931426,230.4450431965397 36.2004707956512,229.9824901242755 36.198406851697655,229.6283416205806 36.1715755804471,228.90798186425855 36.15506402889878,228.44539777777027 36.10965726213908,227.97798562528988 36.06012260751595,227.3081722131774 36.01884372864879,226.7997755848137 35.96105329823331,226.22630992826635 35.91564653148089,225.5829511236916 35.878495540506265,225.11307092007155 35.810385390373995,224.48172952650384 35.75878679179732,223.86241973010146 35.69274058561132,223.3250284028818 35.62875832337886,222.86956130936778 35.57303183690965,222.48397362253309 35.47189858369529,221.9103999295112 35.39140476990724,221.43321423094676 35.31297490007273,220.8716647910078 35.261376301481505,220.35830497229472 35.23041714233841,219.80637007598125 35.189138263478526,219.26406300655253 35.083877122364356,218.6614845313252 34.96210442970914,218.15289595691684 34.8196922976349,217.62742290877577 34.65870467006607,217.1212218691635 34.49771704248997,216.63188355695638 34.36149674223998,216.19315755552816 34.194317282846896,215.6338902402622 34.03745754315605,215.12764511052228 33.81042370940122,214.56111942555253 33.624668754520826,214.10788877936102 33.46368112694472,213.64741653609417 33.27173434022552,213.1965787128902 33.063276001958,212.69751258112774 32.84656188791996,212.1550370467412 32.644295381476695,211.6487149422046 32.4667962023741,211.17854866766538 32.02098431062768,211.30392728575316 31.486422829337243,211.5040494254299 30.978692619311914,211.66800360865454 30.757850617388613,211.22194903630952 30.636077924740675,210.6360371116134 30.524624951802252,210.1224476487332 30.392532539437525,209.55097539518283 30.219161248205637,209.04941836042963 30.07468517217785,208.64671797205483 29.909569656716485,208.15237546421304 29.732070477606612,207.6266726817703 29.558699186382,207.10336937604916 29.360560567823995,206.5269984182487 29.183061388706847,206.00608162088974 28.976666994392872,205.41762429393384 28.809487534985237,204.95215346494297 28.613412860380777,204.34678603067005 28.440041569156165,203.8523505334142 28.26873422186327,203.33137277780952 28.085043210921867,202.81761919388555 27.926119527284754,202.34968334361292 27.773387675486447,201.91068326714048 27.546353841738892,201.24493079319473 27.383302270223794,200.7745505025323 27.197547315336124,200.2269674008494 27.026239968043228,199.72520572232315 26.887955723854247,199.29097998928773 26.720776264446613,198.8157345872114 26.49787031858432,198.19090451968805 26.328626915244968,197.6673850859479 26.12842435274797,197.09318868180344 25.948861229684553,196.48278759704408 25.8250245931049,195.95922900294136 25.686740348901367,195.4235944233278 25.60005470328906,194.93379144380197 25.294590999692446,194.87829586220323 24.67747176066041,195.06408488783745 24.107823232341616,195.21368014735162 23.643435845107888,195.37533843876918 23.05314787736279,195.59248956610645 22.483499349022168,195.78792381491985 22.076902392211196,195.9930073390242 22.02323984969553,195.98094365330508 21.858124334234162,196.07262750493646 21.319434965058463,196.21256530556275 20.770425876158697,196.21497801873738 20.716763333635754,195.66246004496497 20.658972903220274,195.2884774095437 20.559903593952185,194.67802807639418 20.40510779820761,194.09893061825824 20.052173383926856,194.18097031796242 19.470141191930452,194.41502313495948" stroke="red" stroke-dasharray="none" stroke-linecap="round" stroke-linejoin="round" stroke-width="0.5"><title>2024-04-05 108.1km</title><desc>1712276378000</desc></polyline></svg>