<?xml version="1.0" encoding="utf-8" ?>
<svg baseProfile="full" height="300mm" version="1.1" viewBox="0,0,200,300" width="200mm" xmlns="http://www.w3.org/2000/svg" xmlns:ev="http://www.w3.org/2001/xml-events" xmlns:xlink="http://www.w3.org/1999/xlink"><defs /><rect fill="#222222" height="300" width="200" x="0" y="0" /><text fill="#FFFFFF" style="font-size:12px; font-family:Arial; font-weight:bold;" x="10" y="20">Over 10km Runs</text><text fill="#FFFFFF" style="font-size:4px; font-family:Arial" x="10" y="280">Runner</text><text fill="#FFFFFF" style="font-size:9px; font-family:Arial" x="10" y="290">yihong0618</text><text fill="#FFFFFF" style="font-size:4px; font-family:Arial" x="65" y="280">SPECIAL TRACKS</text><rect fill="yellow" height="2.6" width="2.6" x="65" y="283" /><text fill="#FFFFFF" style="font-size:3px; font-family:Arial" x="70" y="285.5">Over 20.0 km</text><rect fill="red" height="2.6" width="2.6" x="65" y="287" /><text fill="#FFFFFF" style="font-size:3px; font-family:Arial" x="70" y="289.5">Over 40.0 km</text><text fill="#FFFFFF" style="font-size:4px; font-family:Arial" x="120" y="280">STATISTICS</text><text fill="#FFFFFF" style="font-size:3px; font-family:Arial" x="120" y="285">Number: 5</text><text fill="#FFFFFF" style="font-size:3px; font-family:Arial" x="120" y="290">Weekly: 1.2</text><text fill="#FFFFFF" style="font-size:3px; font-family:Arial" x="141" y="285">Total: 317.5 km</text><text fill="#FFFFFF" style="font-size:3px; font-family:Arial" x="141" y="290">Avg: 63.5 km</text><text fill="#FFFFFF" style="font-size:3px; font-family:Arial" x="167" y="285">Min: 18.7 km</text><text fill="#FFFFFF" style="font-size:3px; font-family:Arial" x="167" y="290">Max: 108.1 km</text><polyline fill="none" opacity="1" points="73.22089896269608,35.641344928357285 73.63580484059639,35.511995186287095 73.92623895499855,35.90004408430832 74.13369189394871,36.49828420682752 74.32731463696109,37.14502765337238 74.46561659616418,37.67858893833181 74.59008835954592,38.06663234034204 74.65923933917657,38.61635880821268 74.78371110250009,39.18225163812167 74.89435266994406,39.74814237470855 75.00499423744623,40.34636744878662 75.08797541295644,40.91225387925806 75.18478678446263,41.4458020250604 75.28159815591061,41.97934831009479 75.36457933147904,42.52906071812322 75.46139070298523,43.111106997326715 75.55820207454963,43.74165463419922 75.66884364193538,44.42070302918728 75.79331540531712,45.16441924175888 75.90395697270287,45.843461321957875 75.98693814827129,46.58717061851348 75.91778716864064,46.84585126557795 76.12524010753259,47.39554618840339 76.1667306952877,48.2685870067362 76.24971187085612,49.173957408434944 76.31886285054497,49.93381771777058 76.3050326546072,50.25716138565622 76.20822128310101,50.38649866155174 76.22205147903878,50.871512472309405 76.41567422205117,51.53436219401192 76.54014598537469,52.34271162706136 76.76142912020441,53.1348899283912 76.95505186315859,54.00789800002531 77.14867460622918,54.880901090975385 77.21782558580162,55.543733444807 77.46676911250688,55.899398402296356 77.78486361884279,56.529893340717535 78.0614675374236,57.19271855193074 78.28275067225331,57.75854268025432 78.39339223969728,58.34053102960752 77.93699577404186,58.61535809186171 77.34229734918335,58.760854572057724 76.69227814057376,59.00334839835705 75.98693814827129,59.2458418403985 75.35074913559947,59.50450108831865 74.79754129849607,59.66616289631929 74.76988090667874,59.876322991374764 74.70072992698988,60.345140624951455 74.97733384557068,61.07261341989215 75.25393776409328,61.816248702816665 75.44756050710566,62.576046238071285 75.73799462156603,63.3358400012512 76.33269304648275,63.83697850396857 76.80291970801773,64.33811536581197 77.1348444102332,65.08173478192475 77.46676911250688,65.80918506256421 77.79869381478056,66.5043009891524 78.11678832117468,67.19941375874623 78.43488282751059,67.87835806749354 78.76680752972607,68.57346459681867 79.07107184018241,69.28473312649294 79.4029965424561,69.96366818519891 79.7210910487338,70.64260023234237 80.02535535919014,71.32152926806884 80.3711102574016,72.00045529242198 80.6892047636793,72.69554310235253 81.02112946595298,73.42295719787944 81.32539377640933,74.1180385483749 81.62965808674926,74.78078759425262 82.04456396459136,75.2333950498869 82.36265847098548,75.81531695500598 82.55628121393966,76.26792135182768 82.65309258550406,76.70436003855139 82.09988474834245,76.9629897842533 81.5190165193053,77.20545477396809 80.84133691893658,77.51257654305664 80.08067614288302,77.91668319517339 79.33384556282545,78.27229616664408 78.4763734153239,78.6602366479201 77.72954283520812,79.11283263353107 77.31463695730781,79.30680193207809 76.70610833651153,79.61391948543314 75.93161736457841,79.95336448546732 75.24010756821372,80.29280873284733 74.645409143297,80.58376034590765 73.84325777943013,80.9716949697613 73.05493661155924,81.34346472859033 72.37725701113231,81.66674204582523 71.68574721476762,81.97385486496205 71.43680368800415,82.103165341352 70.84210526308743,82.3617859664082 70.27506723010447,82.66889739126782 69.7080291970633,83.02449932410673 69.0580099884537,83.46091874914418 68.32500960427569,83.99431857923628 67.57817902415991,84.52771655094693 66.91432961967075,84.99645868902735 66.27814060694072,85.38438213174231 65.65578179026488,85.78846800612519 65.06108336534817,86.09557255735854 65.00576258159708,86.12789931643056 64.8121398386429,86.1763894421747 64.24510180560173,86.51581989244733 63.553592009237036,86.80675967947172 62.86208221287234,87.04920907971973 62.198232808266766,87.27549484018527 61.409911640395876,87.56643318373244 60.690741452155635,87.84120777828502 60.068382635421585,88.03516601871524 59.25240107567515,88.32610291872697 58.42258931999095,88.61703926594055 57.57894736842718,88.90797506023955 56.818286592373624,89.18274724733783 56.05762581637828,89.4575189413008 55.20015366881853,89.73229014223034 54.41183250094764,90.02322381753766 53.747983096400276,90.201016346924 53.16711486742133,90.39497159811435 52.793699577392545,90.50811204787169 52.29581252404023,90.75055558721942 51.64579331537243,90.94451014233346 50.94045332306996,91.20311583364673 50.17979254707461,91.5263723335811 49.37764118326595,91.75265147749451 48.56165962351952,92.04358131400659 47.718017671839334,92.35067331956816 46.94352670002263,92.67392739689967 46.182865923969075,92.96485548306373 45.39454475603998,93.22345776227303 44.63388397998642,93.498222205395 43.804072224360425,93.77298615558539 42.98809066461399,94.03158706997056 42.614675374526996,94.12856230030593 42.18593930080533,94.29018754772551 41.42527852480998,94.54878758871928 40.63695735682268,94.88819947979937 39.87629658088554,95.1629609358788 39.11563580483198,95.43772189891024 38.52093737991527,95.58318338567915 37.67729542829329,95.84178124311438 36.79216288897442,96.19735258410219 36.08682289667195,96.6175721953914 35.57510564732365,97.02162842648977 35.118709181726445,97.50649449655612 34.93891663465183,97.73276480386266 34.45485977717908,98.16914230953262 33.81867076444905,98.62168063163699 33.00268920476083,98.91259741829708 32.269688820582815,99.05805560432782 31.53668843646301,99.18735165377439 31.21859393006889,99.20351365224633 30.471763349953108,99.38129552319879 29.572800614638254,99.52675326408644 28.646177487506066,99.72069670369092 27.74721475224942,99.88231604911562 26.8759124087519,100.02777331414109 26.032270457188133,100.15706854482414 25.174798309628386,100.28636366639694 24.289665770251304,100.4318205476884 23.418363426811993,100.59343914259807 22.713023434509523,100.72273389571637 21.89704187476309,100.83586671519151 21.02573953132378,100.98132307453488 20.195927775639575,101.11061750017689 19.36611601995537,101.20758824776567 18.536304264329374,101.35304425410868 17.70649250864517,101.53082362969872 16.8628505570814,101.67627932903997 16.088359585090075,101.8055731679924 15.25854782940587,101.95102860633051 14.497887053410523,102.04799882184307 14.16596235113684,102.12880728782329 14.0968113715644,102.12880728782329 14.5532078371034,102.38739409251139 14.829811755684204,102.95305120557896 15.064925086509902,103.42173694522353 15.28620822133962,103.74496765412914 15.562812139920425,104.26213536941214 15.618132923555095,104.65001000987832 15.701114099123515,104.92475395255315 15.90856703807367,105.34494961741439 15.81175566650927,105.15101329996833 15.631963119492866,104.71465568779968 15.521321552048903,104.3591041215841 15.327698809094727,104.00355173001299 15.230887437588535,103.7934522016003 15.092585478327237,103.47022159502376 14.81598155980464,103.03385919408174 14.594698424916714,102.61365718842717 14.774490971991327,102.45204072546039 15.562812139920425,102.29042409190151 16.240491740347352,102.20961571118096 16.973492124525364,102.06416051842098 17.734152900520712,101.95102860633051 18.49481367651606,101.78941144410055 19.29696504038293,101.67627932903997 20.07145601225784,101.5631471304223 20.818286592373624,101.46617660793709 21.59277756436495,101.30455893398903 22.325777948542964,101.17526467209973 23.0034575490281,101.06213210332498 23.736457933147904,100.9489994510659 24.538609297014773,100.81970488894149 25.36842105264077,100.67424837608996 26.156742220569868,100.54495358205168 26.917402996565215,100.41565867878671 27.664233576681,100.30252554889012 28.38340376492124,100.17323044101067 29.08874375722371,100.06009713205276 29.821744141401723,99.96312565785774 30.444102958135772,99.8661541222391 30.817518248106353,99.88231604911562 31.260084517882206,99.80150639776548 31.730311179417185,99.67221086686186 32.29734921245836,99.59140110459703 32.96119861694751,99.46210539633466 33.7080291970633,99.2196756490739 34.41336918936577,98.88027335815423 34.93891663465183,98.4762220310804 35.33999231655616,98.08833175414475 35.69957741070539,97.60346752630721 36.142143680364825,97.15092619525967 36.66769112559268,96.77919481581193 37.38686131389113,96.47211169124057 38.13369189394871,96.26200183013862 38.88052247406449,95.95491766842315 39.66884364193538,95.66399526305031 40.48482520162361,95.38923470597365 41.32846715330379,95.09831122584 42.17210910492577,94.80738719302462 43.00192086055176,94.51646260748385 43.74875144060934,94.25786251189129 44.550902804418,93.98309943181812 45.31156358047156,93.72449843546201 46.05839416058734,93.44973439838213 46.7222435650765,93.19113250124792 47.41375336155761,92.96485548306373 48.132923549739644,92.72241544967983 48.86592393391766,92.46381232430576 49.59892431809567,92.22137149752234 50.359585094149224,91.96276752599806 50.912792931252625,91.8011398219387 51.25854782940587,91.70416311766894 51.770265078754164,91.5263723335811 51.99154821358388,91.42939545524132 52.42028428736376,91.31625568623713 52.945831732591614,91.10613875057606 53.65117172495229,90.86369577421283 54.39800230500987,90.57276369587635 55.14483288512565,90.29799400325282 55.877833269303665,90.02322381753766 56.62466384941945,89.74845313867263 57.35766423359746,89.47368196678872 58.104494813713245,89.21507335458591 58.67153284669621,89.03727968031308 59.21091048786184,88.82715961727081 59.432193622749764,88.76250723216799 60.12370341911446,88.53622366934724 60.78755282360362,88.27761347377964 61.409911640395876,88.06749236823816 61.97694967343705,87.85737097435049 62.53015751054045,87.66341250867117 63.1525163272745,87.45329056023911 63.844026123697404,87.19467853555398 64.54936611599987,86.88757618890668 64.93661160196643,86.72594312744332 65.51747983094538,86.41883984056767 66.11217825586209,86.04708240601758 66.7483672684757,85.59450691954407 67.32923549751285,85.22274748336349 67.93776411830913,84.80249659904803 68.39416058390634,84.43073523980274 68.89204763737507,84.05897297777119 69.41759508254472,83.68720981314254 69.91548213601345,83.36393676223815 70.45485977712087,83.04066302871797 71.13253937760601,82.66889739126782 71.81021897803294,82.34562219012878 72.64003073371714,81.99001868047344 73.41452170570847,81.61825049176696 74.25816365733044,81.23031750628434 74.96350364963291,80.85854747267149 75.58586246636696,80.58376034590765 76.27737226273166,80.24431674358493 77.03803303878522,79.90487238869537 77.75720322702546,79.59775541900308 78.5178640030208,79.25830963048793 79.2646945831948,78.95119136368157 79.8593930080533,78.64407248081989 80.59239339223132,78.28846037297626 81.28390318859601,77.99750439758645 81.92009220132604,77.67421933193691 82.61160199769074,77.302440662359 83.44141375331674,76.91449674016621 84.21590472530806,76.62353815336246 84.68613138684304,76.41340105231211 85.10103726462694,76.17093480800395 85.75105647323653,75.8476458848454 85.95850941218669,75.37887573357148 85.21167883212911,75.52435627896921 84.6169804072124,75.79915248746693 84.02228198229568,76.09011264125002 83.37226277362788,76.42956545493507 82.76373415288981,76.63970253382286 82.43180945055792,75.96079708563047 82.09988474834245,75.21723052096786 81.64348828268703,74.4413311243552 81.32539377640933,73.68159248771553 80.95197848632233,72.90568530723976 80.57856319629354,72.1459390486998 80.24663849401986,71.51550843943551 79.90088359586662,70.8527452556882 79.61044948134804,70.12531894572021 79.2646945831948,69.36555888663861 78.91893968498334,68.57346459681867 78.57318478671368,67.86219276180782 78.24126008455642,67.21557913442666 77.9231655781623,66.55279733131465 77.63273146364372,65.87384714242944 77.45293891656911,65.40504644460452 77.32846715324558,65.1787283524609 77.14867460622918,64.87158183495922 76.83058009983506,64.32194968615659 76.51248559349915,63.691486849682406 75.84863618901,63.481331993680215 75.58586246636696,62.64070968389569 75.33691893960349,61.897078407142544 75.11563580483198,61.15344351697422 74.81137149437563,60.52296762750484 74.7422205148032,59.90865528807626 75.41990011523012,59.58533201368118 76.24971187085612,59.375171519015566 76.98271225509234,59.10034582129447 77.77103342296323,58.82551962998696 78.46254321932793,58.61535809186171 78.7529773337883,58.11420249007642 78.43488282751059,57.30588354500651 78.31041106412886,56.86938953930803 78.00614675373072,56.044897464773385 77.6880522473366,55.2527342284302 77.41144832887221,54.44440016809676 77.20399538992206,53.57139458680467 77.06569343060255,52.827719237160636 77.01037264696788,52.01937236629601 76.94122166727902,51.22718828973302 76.96888205915457,51.065517566137714 76.91356127540348,50.59667150164023 76.56780637725024,49.94998491737351 76.48482520162361,49.109288271691184 76.41567422205117,48.10691315693839 76.36035343830008,47.330876299980446 76.36035343830008,46.91052135900827 76.3050326546072,46.2638191946462 76.22205147903878,45.60094663930067 76.13907030347036,44.938071211930946 76.01459854008863,44.242857312288834 75.90395697270287,43.644647474604426 75.80714560119668,42.96559563509072 75.66884364193538,42.27037277213822 75.50288129079854,41.28412096523971 75.35074913559947,40.330199234274914 75.21244717633817,39.39243987038208 75.07414521701867,38.50317999102117 74.90818286588183,37.64625194371911 74.645409143297,36.69230752787553 74.32731463696109,35.72218846157193 74.03688052244252,35.02693267943687 73.96772954281187,34.81673844883335 73.87091817130568,34.655050382585614 73.48367268528091,34.94608877875726 72.95812524011126,35.31797036813805 72.23895505187102,35.625176216548425 71.505954667693,35.98088748080772 70.80061467539053,36.28809199795069 70.02612370339921,36.579127287172014 69.196311947715,36.95100490649929 68.44948136765743,37.258207475359086 67.84095274674473,37.419892790174345 67.50902804458747,36.78931909610401 67.14944295043824,36.46594696266402 66.66538609290728,36.708476126834285 66.0153668843559,36.9995106162678 65.53131002688315,37.27437601452402" stroke="#4dd2ff" stroke-dasharray="none" stroke-linecap="round" stroke-linejoin="round" stroke-width="0.5"><title>2024-05-25 18.7km</title><desc>1716643451000</desc></polyline><polyline fill="none" opacity="1" points="180.31242809801188,105.27619121862153 180.39316463178693,105.02526554560973 180.5153045162151,104.84430783927382 180.5836200447884,104.88049949398555 180.54428686167375,104.89256336628205 180.63951456818177,104.86119728520316 180.60846205518465,104.88532504365685 180.58776037986536,104.83948228102781 180.60225155258377,104.8153544746674 180.73474227468978,104.73814532489814 180.77407545780443,104.88532504365685 180.6250233954488,105.13625223725467 180.64779523830657,105.17726892309292 180.5836200447884,105.33409675596158 180.66849691363313,105.44266924712974 180.75751411754754,105.45473282575949 180.72025110194954,105.53193957971598 180.67677758376522,105.60432067713373 180.616742725324,105.6863523132979 180.5194448512775,105.78285974750906 180.55256753180583,105.97828606662006 180.53807635907287,105.88177944904419 180.58776037986536,105.71771727365194 180.579479709726,105.60190797753967 180.484252003218,105.58260637173044 180.54842719673616,105.41130391322804 180.65193557337625,105.21104731554624 180.57533937465632,105.17968166705577 180.43663814997126,105.31962038523307 180.12818318758946,105.19657086769075 179.8921840888579,105.08317171215458 179.72036018364452,104.94323156111204 179.910815596646,104.59337747326754 180.0950605070684,104.33761871729075 180.3559016161962,104.033599907174 180.4821818356868,103.91295641279976 180.55463769932976,103.78266073083978 180.37660329152277,103.6692546313825 180.09299033952993,103.38453048006704 179.79695638236444,103.05878244107407 179.69551817325555,102.95743766933265 179.49057158752112,102.78370273989822 179.21316913812188,102.53757601843063 178.90678434327856,102.18285936262691 178.65215373675892,101.88122526523512 178.32713743412023,101.51925914557796 178.08285766524932,101.2827715484782 177.8758409119837,101.08489230944178 177.61914013792557,100.87494540839907 177.36243936386018,100.60949256986532 177.192685626178,100.4381532073512 177.09124741708365,100.33197042880602 176.88630083133467,100.12925649502904 176.64823156506463,99.86138178007423 176.56335469623446,99.7648495891408 176.3356362676277,99.56937066578394 176.09549683383375,99.3159695969789 175.86156790264067,99.07704604061837 175.5986566259744,98.79709205945619 175.3378155168466,98.5364421961931 175.08525507785816,98.27578938858824 174.83269463886973,98.01754712917864 174.59462537260697,97.77136957413859 174.33585443101038,97.52760293634674 174.1060658348797,97.30314226945484 173.93838226472144,97.13901910935965 173.70859366859804,96.90731383681123 173.3525248529695,96.5332014534215 173.01094721007394,96.17597880566973 172.69214141002885,95.86943874504504 172.57414186066308,95.74633883414026 172.28638857360784,95.61116954780482 171.90961808264547,95.41806919327064 171.55561943454813,95.22738100675633 171.15814726826648,95.01013937956486 170.8103591227773,94.82910312718195 170.46050080974237,94.65772083225238 170.07958998371032,94.46461249515778 169.6945388226377,94.26908865649239 169.3778031901238,94.1049439070539 169.00724320176232,93.93838407004478 168.6470340510641,93.76216728071267 168.29717573803646,93.57146540256872 167.93489641981432,93.39041785643713 167.59952927951235,93.21419687979687 167.39665286130185,93.11522286397849 167.12132057944837,92.97521011606841 166.76318159627408,92.79174384918224 166.39262160792714,92.60103394548423 166.00135994424636,92.40549430518331 165.65150163121143,92.20995300659342 165.27473114025634,92.0168241703359 164.90417115189484,91.83817855650705 164.56052334146807,91.65711740034567 164.20031419076258,91.47122646736716 163.8235436998075,91.26843464922422 163.44470304131391,91.09702588804976 163.13831824647787,90.93285855575414 162.83193345162726,90.76869005439221 162.45516296067217,90.57554914422508 162.12600632297108,90.41137809826614 162.05562062685203,90.36792086098103 161.81962152812775,90.26893462577573 161.4262896969085,90.06371790601588 161.02467719555716,89.86332805192251 160.64169620200119,89.65086461717146 160.27320638117817,89.46495750525719 159.87366404735803,89.26456244559085 159.48861288626358,89.05933678349174 159.12012306544784,88.88066824852467 158.76405424981203,88.70441279609622 158.39763459652022,88.51366907548254 158.0457061159541,88.33741081632616 157.87595237827918,88.35914135948588 157.7786545042327,88.5643732565295 157.70619864058244,88.74304424348338 157.6337427769322,88.87583934997929 157.5654272483589,88.99414707311007 157.5053923899104,89.12935515593381 157.4515680340628,89.25007598820594 157.49297138473048,89.15349937296924 157.501252054848,89.11003976408938 157.53230456784513,89.11003976408938 157.57577808602946,88.98931819833888 157.72068981332268,88.69716939250611 157.7124091431906,88.6005904604117 157.51367306004977,88.53298496712523 157.17623575220932,88.47503724362286 156.8139564339799,88.37604287888826 156.67939554434997,88.31809476075614 156.31918639365176,88.28429162456268 155.8596092013904,88.26497552448018 155.40417234419147,88.24083037660057 154.95701615711732,88.17563835097644 154.62992968694743,88.02110836838983 154.36080790769483,87.89313744220271 154.03786177259462,87.73860556528234 153.6362492712433,87.54543926186489 153.2139350945654,87.37158820434706 152.78748058282508,87.2460282915381 152.36309623861598,87.12046769455992 152.04636060610937,87.0166382225616 151.83106318270438,86.90314965985817 151.5060468800657,86.71963505661006 151.13341672416573,86.50472793953486 150.74422522801615,86.33811317720392 150.36331440199865,86.20530344571489 149.976193073373,86.03144227652592 149.68843978632503,85.88655696665046 149.31994996550202,85.71269339210994 148.94110930701572,85.61368715918434 148.57675982124056,85.47362883473033 148.24346284848434,85.38428083806684 148.11511246145528,85.25146560805297 148.01988475494727,85.04137449882364 147.93293771857861,84.79264346726814 147.9536393938979,84.40625983951031 148.08198978092696,84.0246996469632 148.18756832509825,83.63105814094706 148.23518217834499,83.25190014568216 148.1503053095148,83.03937573700932 147.80665749907348,82.8292644506364 147.4754306938339,82.63364187467778 147.57272856787313,82.32933678703375 147.27669461070036,82.14337058732053 146.92269596260303,81.94774218500243 146.58525865476258,81.76177290372107 146.40101374434744,81.56131082763932 146.411364582018,81.17487298530432 146.41343474954192,80.74012266046157 146.4196452521428,80.44062321691854 146.4237855872052,80.18218104958942 146.42999608980608,79.9358129181619 146.4237855872052,79.73533494413641 146.421715419674,79.43582242939374 146.43620659239969,78.88509570018141 146.44862759760144,78.44063996077239 146.469329272928,77.99134445837262 146.4672591053968,77.55653400878873 146.47139944046648,77.10963693136728 146.47139944046648,76.71587718002047 146.49624145085545,76.33418951829663 146.38859273914568,76.31486339235926 146.17536548328644,76.2399745010589 145.74270046893798,76.20132207470851 145.39698249097273,76.18199583718524 144.95189647143707,76.14575909808445 144.51509112203348,76.10952230193288 144.1383206310784,76.08778019684723 143.69737494659785,76.04671172008784 143.37442881149764,76.00564317003591 142.97902681274718,75.99356417077252 142.71404536855698,75.97665356115795 142.31450303473684,75.94283230465226 141.92324137105606,75.91142680767007 141.57338305802114,75.87760545529818 141.18212139433308,75.84861568512133 140.8012105683083,75.82204169705437 140.57142197217763,75.6456862713203 140.5734921397161,75.23740619506862 140.5941938150354,74.87743727837187 140.5879833124418,74.54887012957806 140.60454465271323,74.15023456844756 140.6148954903765,73.74192795452291 140.61903582543164,73.40126422843241 140.62110599296284,73.18864884974391 140.61696565789316,73.05817934901097 140.62110599296284,72.89629949538357 140.62938666309492,72.6788471528107 140.60454465271323,72.4396472016906 140.62110599296284,72.22460673852765 140.6459480033518,72.08205071661723 140.6355971656958,71.77518984108792 140.6418076682894,71.40066905174535 140.6355971656958,70.98506464988532 140.6459480033518,70.61053099347919 140.6314568306334,70.24324045173853 140.6355971656958,69.93393860331344 140.62317616050132,69.53039009299391 140.63766733323428,69.22591167899736 140.62317616050132,68.98184273739571 140.61282532283803,68.67494049012566 140.60454465271323,68.73293807912705 140.61696565789316,69.08575359359384 140.57556230724003,69.22591167899736 140.29401952279295,69.39506685119704 139.92552970196994,69.35398642379187 139.60672390191758,69.32015542846239 139.5591100486854,69.10991884169016 139.2133920707056,69.04950567384185 139.0850416836838,69.05433873310358 139.30240927461273,69.0640048485966 139.68746043570718,69.13408406438066 140.0476695864054,69.20174655280971 140.39131739683216,69.24766027085388 140.56935180464643,69.38540087488582 140.56935180464643,69.74303929250345 140.49896610853466,69.99434944751374 140.15117796303093,69.97501799464226 139.90068769158097,69.96293582833641 139.5052856928305,69.95327009072207 139.0850416836838,69.93393860331344 138.71241152778384,69.92185641542892 138.32736036670394,69.90494134172877 137.8843445146922,69.89527557974361 137.49515301854262,69.88560981369119 137.0686985068096,69.87594404357696 136.64431416259322,69.86627826939912 136.30480668722157,69.79620128511306 136.30480668722157,69.414398791645 136.29445584956557,68.97459312524916 136.2861751794262,68.73535464216366 136.2778945093014,68.54444537995005 136.25305249890516,68.2762031052007 136.22821048850892,67.90645862335441 136.19508780798787,67.56329175734027 136.16403529499803,67.19595253402258 136.14747395474114,67.01469746500698 136.1184916092825,66.67151728630961 136.08122859369178,66.28482925571006 136.05224624823313,65.93438760874051 136.0253340703057,65.58877440640936 136.00256222744065,65.33016532420879 135.97150971445808,65.0425499364228 135.93217653132888,64.63891554885049 135.9052643534087,64.24010814327266 135.8742118404116,63.872715802350285 135.82659798715758,63.466643749239665 135.7665631287091,63.09440472953793 135.71687910793116,62.76808634264853 135.66512491961475,62.465935555646865 135.5968093910269,62.055004108156936 135.54298503517202,61.711749853106085 135.4870905118005,61.38299449052829 135.45189766374097,61.12917279353678 135.40842414554936,60.75206109334613 135.39393297282368,60.488562705424556 135.3690909624347,60.14770250833317 135.34424895203847,59.77299219937595 135.3235472767119,59.45387924526767 135.2738632559267,59.08641035083383 135.20347755981493,58.735858885995185 135.116530523439,58.387719721449685 135.03579398965667,58.05891677523141 134.94677678574953,57.737362281584865 134.8494789117176,57.40613226780442 134.73354952988302,57.07731526517273 134.6569533311631,56.84037068222642 134.5306731116798,56.45593498311064 134.46028741556802,56.218983987086176 134.35056853631977,55.81519451207896 134.27397233760712,55.55647536674405 134.1683937934431,55.237303805532065 134.03590307135164,54.88911158638257 133.90134218171443,54.55058630948042 133.82474598301633,54.38615794492216 133.6798342557231,54.03553470414954 133.58253638167662,53.72601456449229 133.4790280050438,53.47452637733659 133.3092742673689,53.09245251150969 133.17678354526288,52.75631897738094 133.03808232057781,52.41050739759703 132.91387226860388,52.100965339603135 132.80415338937746,51.820439242672364 132.69443451014376,51.537491343136935 132.60127697117423,51.28114237025147 132.48534758933238,51.19166139403933 132.17896279448905,51.341602291759045 131.81461330872844,51.47219517850317 131.466825163232,51.619715878719944 131.1418088605933,51.701940119652136 130.92651143718103,51.556838319200324 130.84163456835086,51.150548396059094 130.76503836963093,50.79503881135679 130.69465267352643,50.42259429013575 130.60356530208082,50.04530666223582 130.5104077631113,49.643827115482054 130.3924082137455,49.29071279065647 130.29097000463662,48.995640487233686 130.20816330333037,48.77312443642586 130.0818830838325,48.386134858519654 129.95560286433465,48.02090745536043 129.8189718071735,47.616973686575875 129.7113230954783,47.30494812051802 129.60367438378307,46.9953371610718 129.46497315908346,46.58654753808878 129.3386929395856,46.22854827331139 129.21034255255654,45.82458293163472 129.09855350579164,45.49801892031064 128.97848378889466,45.1593550326852 128.8687649096537,44.83520062610478 128.73834435508616,44.462659304344925 128.63069564339094,44.14575250565758 128.52097676415724,43.838518068077974 128.40090704726026,43.47079899703567 128.31603017841553,43.21919833906213 128.20631129918183,42.902274349236905 128.09452225240966,42.59018461134292 127.97238236798148,42.23696164190187 127.85645298615418,41.91518529442328 127.71361142639216,41.499046777333206 127.5811207043007,41.102256502590535 127.48382283026149,40.80949829780366 127.34512160556915,40.41027653630226 127.23747289386665,40.08847453837916 127.10705233930639,39.7134364319827 127.00768429773598,39.42791943532757 126.92487759642245,39.144818561255306 126.82136921978235,38.844776209611155 126.68473816262849,38.4793967493606 126.5729491158636,38.15272805942914 126.46116006909142,37.83089435029433 126.33695001713204,37.46065900193389 126.22102063529746,37.131555890688105 126.10095091839321,36.75646937316378 126.02642488721904,36.45155580689243 125.9436181859055,36.11275819446564 125.85667114953685,35.75701530730839 125.76972411315364,35.4278877149427 125.6724262391217,35.047933067902704 125.68277707677771,34.82286141836994 125.49232166376169,34.84948291162618 125.27702424037125,34.92450695337902 124.91474492213456,35.01889168904381 124.5172727558529,35.1374770875409 124.16327410775557,35.25122168868984 123.78857378433167,35.3649657248734 123.45527681156818,35.50774999184068 123.09713782840845,35.63117296287783 122.7245076725012,35.78605575012807 122.4057018724634,35.89737710647205 122.15107126595103,35.98207777598327 122.00201920358813,36.05225809341755 121.76394993732538,36.134538191712636 121.44100380221789,36.20955802370372 121.07665431645728,36.29667752021851 120.85514639045869,36.21923798412536 120.81374303980556,35.82235625187241 120.77026952161395,35.53437068891617 120.72679600342963,35.27300250530425 120.67297164757474,34.94386795651553 120.61293678912625,34.57116577072338 120.5322002553512,34.2468615304515 120.4286918787111,34.0 120.22581546050787,34.13553215013417 119.89251848772983,34.28316447222096 119.58406352536258,34.40175368089149 119.4267307928676,34.27590388847602 119.23420521232765,34.367871112517605" stroke="red" stroke-dasharray="none" stroke-linecap="round" stroke-linejoin="round" stroke-width="0.5"><title>2024-05-01 58.8km</title><desc>1714551575000</desc></polyline><polyline fill="none" opacity="1" points="19.132834872762032,114.29370239196032 19.386153306048072,114.18111691534432 19.658313606269076,114.06853089132528 19.86766768337111,114.048950657354 19.951409314206103,114.33286242942995 19.99537367040466,114.58250611156109 20.033057404281863,114.85906900933514 20.081208842006163,115.13073377292676 20.13564090205182,115.44155351248628 20.158669850541628,115.70831673412795 20.192166502878536,115.9726295563305 20.213101910587284,116.2418339598189 20.217288992134854,116.34951484512021 20.31359186759073,116.35440941891466 20.65902609479963,116.28588529158696 21.006553862775036,116.21736096152745 21.310117274573713,116.14149450248078 21.481787617798545,116.07541706148004 21.67858045027242,115.9922081639088 21.9674890766546,115.87963094431507 22.25011708074453,115.76950052608845 22.603925471041293,115.56881708406763 22.9033018012924,115.39994796239807 23.15871377534495,115.33876319413685 23.506241543327633,115.29226266214755 23.761653517387458,115.23107760938728 24.07359109225945,115.14297084943246 24.36878034097026,115.05486375427245 24.674437293535448,114.96920375705486 24.967533001472475,114.88109600077951 25.09733252926526,114.97654605494608 25.183167700881313,115.31428924156899 25.273189954030386,115.67894845656883 25.35483804409887,115.99955013748513 25.430205511845998,116.32748925021588 25.49719881652709,116.60158405087532 25.530695468863996,116.71415776150207 25.633278966633952,117.01027295321728 25.72958184210438,117.29659561324843 25.821697636034514,117.57557326255665 25.91381342994282,117.84720616657069 26.012209846179758,118.12373008555369 26.114793343964266,118.42472139615529 26.225751004822087,118.75507321141777 26.299024931802705,119.01201025566115 26.36601823647652,119.14414819749254 26.45604048963287,119.39863396221335 26.541875661241647,119.65311693187141 26.63189791439072,119.9296192980346 26.705171841364063,120.1596276020191 26.763790982964565,120.29665274047693 26.87056156228209,120.57314742781455 26.885216347669484,120.6734676934193 26.966864437745244,120.89857500151265 27.061073772441887,121.197083494244 27.167844351759413,121.52250230662867 27.276708471858,121.84791654981746 27.362543643459503,122.1170526973965 27.4420981927542,122.30789279927012 27.559336475933378,122.63574263924602 27.647265188308666,122.95624807489003 27.716352033756266,123.08347037791464 27.79381304227718,123.27185596723757 27.873367591579154,123.53608252596678 27.959202763187932,123.81009207250281 28.04713147556322,124.10856307178074 28.130873106405488,124.35320856614817 28.151808514114236,124.47063748645814 28.248111389584665,124.68836870239647 28.363256131990056,124.99416751936587 28.472120252081368,125.32687205107504 28.585171453712974,125.69871264297217 28.704503277665935,126.04363838718018 28.81755447929754,126.36165048489784 28.93060568092187,126.70167398036938 29.04993750486028,127.04903096441376 29.16089516572538,127.37925989259202 29.286507611985144,127.73883715577358 29.40165235439781,128.0715023122557 29.52307771910273,128.42373080685684 29.634035379975103,128.73681831177964 29.703122225415427,128.9569554334048 29.72824471466447,128.91292817621252 29.820360508572776,128.92026605821047 29.91875692481699,128.97407712196764 30.249536366638495,128.84444116559462 30.590783512307098,128.72948037174683 30.873411516382475,128.67077676790177 30.99274334032816,128.9324958563957 31.145571816610754,129.2113335054437 31.304680915207427,129.49750550222416 31.461696473030315,129.7738904897542 31.616618490079418,130.00869284793953 31.706640743221215,130.06739306616691 31.77363404790958,130.4098080456697 31.86365630105138,130.78401292254966 31.95786563574802,131.136200234645 32.016484777326696,131.3074004693026 32.1190682751112,131.50794770907123 32.236306558283104,131.7769717719766 32.33051589298702,132.02398202856057 32.44984771692543,132.3345753521262 32.58592786703957,132.68184800401286 32.70735323175177,132.97531379932298 32.83296567801153,133.30056738674648 32.964858746592654,133.59647082596348 32.998355398922286,133.72608023517932 32.82877859646396,133.78232560265315 32.85390108572028,133.78721649773433 32.85808816727513,133.76765291123957 32.89786544191884,133.75298021054368 33.075816407450475,133.8507980399645 33.182586986768,134.15158528258507 33.318667136874865,134.4963853752779 33.467308531617164,134.83628967316326 33.607575763278874,135.20797788445816 33.72272050567699,135.51852860273902 33.81692984037363,135.85108224587202 33.925793960464944,136.22275420975348 33.99488080590527,136.4477106657414 34.097464303689776,136.73379344491696 34.20004780146701,137.08100028781155 34.300537758470455,137.40375128818778 34.39474709315982,137.73872296098125 34.47848872400209,138.06879980953636 34.58107222177932,138.38175722909364 34.666907393380825,138.7264945047773 34.73390069805464,139.0418879552144 34.79461338042165,139.34994253937657 34.83020357352507,139.59198256048876 34.846951899686246,139.87069218754004 34.872074388942565,140.23741028572658 34.89719687819888,140.60167786463717 34.9223193674552,140.73369289234142 34.94534831593046,141.00016538483214 34.98512559057417,141.3864228370785 35.03327702830575,141.73844935157285 35.08980262912519,142.1002488218819 35.142141148404335,142.44493091429467 35.194479667676205,142.77249639078036 35.21750861615146,142.88005419679757 35.25937943156896,143.12939083214587 35.3096244100816,143.44961337042878 35.34521460319229,143.70138829776442 35.370337092434056,143.93849423023312 35.3954595816831,144.1975969157902 35.376617714748136,144.25137258285213 35.437330397100595,144.51047177992768 35.4645464271307,144.85022955692148 35.47920121252537,145.18998236689913 35.48966891637974,145.41974044488416 35.50432370177441,145.51506493824672 35.52944619103073,145.73748723568133 35.55875576182734,146.02589979258846 35.579691169543366,146.29231160192103 35.60690719955892,146.54649983948912 35.62574906649388,146.8422345791787 35.655058637290495,147.1844023103822 35.67180696345895,147.38725651586356 35.70321007502207,147.70497641286238 35.71786486040946,147.87849852327417 35.74508089044684,148.17177238535078 35.7681098389221,148.45526693552165 35.778577542776475,148.6825488627892 35.797419409718714,148.8462882292206 35.80788711356581,149.06623481713177 35.80370003202552,149.344830841761 35.80998065433232,149.64786132422523 35.82882252127456,149.9288941293289 35.82882252127456,150.15616165305073 35.85603855129739,150.53249223842795 35.85603855129739,150.91614767021565 35.86231917361147,151.3144583967587 35.85813209207845,151.66877815670887 35.86231917361147,152.07196304210993 35.86859979592555,152.45070611378105 35.87069333670661,152.7683568382472 35.85813209207845,153.09822030724354 35.84557084745029,153.193513327471 35.90000290748867,153.44029600134309 35.91465769288334,153.72372633748455 35.927218937518774,153.9998232585458 35.94815434522752,154.28813336037638 35.96071558985568,154.64240783043715 35.952341426767816,154.95514219027427 35.93140601905907,155.27031553465713 35.895815825948375,155.5659393652477 35.885348122094,155.7589479389062 35.893722285181866,155.83468504311895 36.13029239229945,155.8395712994461 36.477820160282135,155.87621818916887 36.816973765176954,155.91775126108405 37.17496923701401,155.95928425887905 37.54552595347923,155.98615851206887 37.87002477297938,156.02036206214507 38.20708483710041,156.03990692533807 38.477151596554904,156.05700866716325 38.77652792681329,156.081439705109 39.08427842013771,156.10098451700105 39.38365475039609,156.12297241075794 39.699779406808375,156.14984647491474 40.01799760400172,156.1742774153954 40.19804211029259,156.22313921941713 40.45973470668105,156.2035945101161 40.76957874077925,156.2329115679113 41.112919427214365,156.26711475532102 41.41438929823198,156.28421633017388 41.71795271003066,156.3159763644162 42.01104841796041,156.34040713050126 42.2057477096605,156.34773635531928 42.54280777378881,156.35506557783083 42.89033554177877,156.39904086443858 43.21483436127164,156.43324380768536 43.570736292334914,156.46011751354854 43.91617051954381,156.48210506798023 44.2490435021391,156.51630788914554 44.63634854477277,156.54562455299856 44.96503444581322,156.56761202665075 45.17229498213419,156.5822703308786 45.4402682008149,156.59937167413955 45.59728375864506,156.60670081740136 45.900847170436464,156.62380214271252 46.131136655232694,156.75328319800792 46.126949573699676,157.0782041836046 46.11438832907152,157.37136208242555 46.11020124753122,157.72558961704453 46.10392062521714,158.0309538545771 46.099733543684124,158.36318559469692 46.09345292136277,158.70518390354846 46.0892658398152,159.0374060209706 46.09135938059626,159.36962339725505 46.087172299055965,159.67740879454504 46.08298521750112,159.95832048643206 46.0787981359681,160.19526075662543 46.080891676741885,160.43708390687243 46.070423972880235,160.8889689204534 46.06623689133994,161.36527065747214 46.05367564671178,161.8269076590459 46.04320794285741,162.2421288905316 46.03274023901031,162.6207065023682 46.01808545360109,162.93577608078704 45.95109214893455,163.29480366039752 45.84222802885051,163.6318449232258 45.68311893025384,163.92980487656496 45.50726150549599,164.2179920250619 45.559600024760584,164.13739767317202 45.614032084813516,164.1691469965972 45.73545744952571,164.26439470723017 45.96993401586951,164.4231400261324 46.208597663760884,164.6111907733266 46.407484037008544,164.7308586402305 46.58962208408775,164.88960078037235 46.82409865043155,165.10206933664995 47.07741708372487,165.28767246672396 47.31608073161624,165.48060046875253 47.569399164895,165.47571623525437 47.68663744807418,165.46594776517304 47.805969272019865,165.64666379863593 47.883430280548055,165.81761010767877 48.05510062376561,165.85424129643798 48.38169298403227,165.94948211765586 48.69781764045183,166.06425900026807 49.02022291918547,166.14240463935494 49.27354135247879,166.26939074386246 49.52476624499832,166.39149211474978 49.74877510748047,166.49649878194032 49.97069042921066,166.60394697478114 50.23028948481078,166.70895268450658 50.54013351890171,166.81639989763426 50.8353227676198,166.94338232890368 50.97558999926696,167.01175719756975 51.239376136421924,167.1631579784862 51.480133325079805,167.3072320017036 51.70623572834302,167.43909558118867 52.01398622167471,167.55874892423526 52.37198169351177,167.6661922189378 52.67135802376288,167.75898375661745 52.974921435561555,167.84444931969665 53.26383006195101,167.954333154521 53.49411954675452,168.07154200724835 53.69091237922839,168.1594482599303 53.873050426300324,168.24491235435744 54.09496574803052,168.35235248554818 54.388061455967545,168.49397735624552 54.73349568317644,168.6551356449745 55.091491155006224,168.72594726792886 55.420177056053944,168.75280679275966 55.683963193201635,168.7821080572794 55.95821703418915,168.77234097319888 56.2722481498422,168.8016422131568 56.41670246302965,168.8651281066941 56.69514338557201,168.872453390979 56.98195847119496,168.94326435364746 57.33576686149172,169.0116333548449 57.55140156090056,169.0848856335815 57.76075563800259,169.1727880641629 58.08106737596245,169.3217330925272 58.367882461585396,169.46091037355654 58.63794922103989,169.55857814472074 58.7572810449783,169.6122952444166 59.014786559804634,169.71240405442222 59.33300475699798,169.83937070719912 59.6616906580457,169.9785448974235 59.98618947754585,170.10062683628166 60.247882073919754,170.16655081740464 60.60169046420924,170.31793110548824 60.97015363990795,170.51081746757882 61.30930724480277,170.67684495678986 61.608683575053874,170.82333881824707 61.87875033450837,170.96739021765825 62.09438503390993,171.08702544903645 62.35817117105762,171.21398461496028 62.62405084897182,171.34582609391873 62.864808037636976,171.47034236166292 63.10347168552107,171.58753353558131 63.39238031192508,171.74867043786253 63.6624470713723,171.89759900874924 63.92623320851271,172.03187805219204 64.24026432416576,172.19301188350073 64.5354535728693,172.34437901367346 64.81389449541166,172.48597963293832 65.07977417332586,172.62269665626263 65.37077634048183,172.77894370134163 65.66177850765234,172.91565900692694 65.95068713404908,173.05725615696065 66.25215700506669,173.21105898366113 66.54106563146343,173.35509563165033 66.80694530937762,173.49669011333026 67.02258000878646,173.60410604316712 67.28217906438658,173.73837525966883 67.56690060923574,173.87752617738624 67.85162215409218,174.0313235941303 68.16146618820494,174.1900024054812 68.47759084460995,174.3462389494871 68.77278009332076,174.5073567892523 69.07215642357187,174.68312043594233 69.37153275382298,174.82958912969661 69.6792832471474,174.98582138917845 70.02681101513735,175.16646363464315 70.34293567154964,175.32513472311803 70.65277970565512,175.48868686920287 70.90400459817465,175.61806312758563 71.222222795368,175.77429010579 71.54044099255407,175.93539808115747 71.81888191509643,176.06965387729542 72.14338073458202,176.2429647624558 72.42810227944574,176.43824309026058 72.47416017640353,176.5480864312849 72.6500176011541,176.61399218762926 72.92845852371102,176.84099947874893 73.17340279391647,177.08997267745508 73.39531811563211,177.31697533702936 73.59839157041279,177.51712638734352 73.79727794365317,177.7197165555317 74.06525116234116,177.9906476455235 74.32066313640098,178.2566940327415 74.60747822201665,178.55202637762704 74.87335789993813,178.8253885225986 75.12248925168387,179.09386608354362 75.37999476651748,179.34037457842896 75.62703257748944,179.5893211086859 75.87616392923519,179.83338375634594 76.10854695481248,180.07256267468802 76.33255581730918,180.31173914180545 76.53772281286365,180.5240672168984 76.75963813458657,180.73395284092112 76.80569603154436,180.7778821512693 76.83919268388127,180.80960882399813 76.89990536624828,180.8633000180398 77.05064030174981,181.0146109003872 77.21603002266056,181.19032553276338 77.34792309122713,181.3172297223664 77.51959343445196,181.51490602787635 77.7310410523205,181.7443060615551 77.95295637404342,181.96150188802676 78.12672025803477,182.14697088173307 78.28792289740522,182.26898915291167 78.5370542491437,182.5081431143244 78.77362435626856,182.76437678281036 79.01228800415993,183.0181673583229 79.25932581513189,183.27439542901084 79.4540251068247,183.48669655728918 79.46867989222665,183.52574023278248 79.65919210238644,183.6941153354328 79.84342369023216,183.86004903122011 80.07999379734974,184.10162686246258 80.29353495599935,184.31636061414792 80.45473759535525,184.5237720220848 80.48195362537808,184.56769420149612 80.58244358238153,184.69702013888673 80.6619981316835,184.88002731690722 80.80854598564474,185.03863237770747 80.85041680106224,185.11915453475012 80.76458162946801,185.23627717660383 80.62640793858009,185.40219991367667 80.53638568542374,185.54616133331547 80.47776654383779,185.6486418031618 80.41705386147805,185.84872142440327 80.33121868986927,185.93168076462644" stroke="red" stroke-dasharray="none" stroke-linecap="round" stroke-linejoin="round" stroke-width="0.5"><title>2024-05-01 52.5km</title><desc>1714541844000</desc></polyline><polyline fill="none" opacity="1" points="186.0,148.16595133794908 185.7582308639394,148.21036344473305 185.55905914709,148.2426630614882 185.27814643662714,148.28034584418492 184.99262859975715,148.2830374672576 184.72668255009194,148.2830374672576 184.5770159420499,148.28438327857748 184.338700650791,148.2911123330514 184.03821615312336,148.2911123330514 183.76996754025458,148.2938039538467 183.5017189273858,148.30591624038334 183.24498313052754,148.30995366667048 182.96982682805537,148.30322462214644 182.72115000239864,148.27227097156447 182.4782295847399,148.24670050782606 182.1996194374733,148.28438327857748 181.9785733702156,148.3651316976502 181.76673755576485,148.37993551895033 181.56641455731733,148.3449446408713 181.4409248628872,148.06097665176912 181.37760437487304,147.9129339572255 181.27859415725106,147.67740794206748 181.22103007722762,147.49167578412926 181.1208685780075,147.2642174950097 181.08172500359797,147.14443013562686 180.96774812516378,146.87120306590532 180.87104047074536,146.63161982582733 180.76742512671626,146.41087622116265 180.4807560082554,145.67189569285983 180.293097107402,145.63958955454655 180.2009945793834,145.40805983066093 180.12616127536603,145.3703685468081 179.93965365611803,145.5453628494979 179.7220614336693,145.50632586736174 179.5793025152234,145.44978933617494 179.39970258558606,145.42017486247914 179.13145397272456,145.43498210794132 178.94724891667283,145.47940374096834 178.6905131198073,145.56555434500933 178.58689777578547,145.6086294283923 178.3911799037378,145.67189569285983 178.1194774460746,145.76746753868974 177.86274164920906,145.86842293461177 177.75912630518724,145.9370721465466 177.55650074353616,146.04206434290336 177.46324693391216,146.1053284534255 177.19039319465082,146.2278176461814 177.07296247141494,146.2601222918438 176.80241129534988,146.34357558042484 176.6412318713119,146.38934005483316 176.35456275284378,146.47952250823528 176.2060474263999,146.53067048151115 176.01263211756304,146.70699481434804 175.7628040103009,146.84428382552687 175.62580149986024,146.89139245884508 175.39899902460456,146.9950308386833 175.1111786245383,147.11885740733305 174.92927613169013,147.19961321644223 174.71053262763598,147.3072868319705 174.54820192199986,147.3786201009034 174.38471993475832,147.47417913689242 174.14064823550143,147.64914452754692 173.95414061625343,147.78507751801408 173.79986888181884,147.8523705407515 173.5131997633507,147.96003863759597 173.3266921441027,148.0286765742676 173.09298197924363,148.07443499321926 172.81897695837688,148.122884904692 172.64628471833566,148.13095987201996 172.37112841587077,148.13768900754894 172.11093877420353,148.0650141556971 171.96587729256862,148.0125265048 171.73562097251124,147.8510246837841 171.51918003165338,147.71643826852232 171.32576472281653,147.92100905765983 171.10241609235527,148.0340599262081 170.90554693870945,148.11615576134227 170.62233166504302,148.22112999275214 170.33105742016778,148.32610335901063 170.1042549449121,148.40685151360321 169.96610115288058,148.47010387716182 169.76808071762935,148.57642097207827 169.58157309838862,148.62352319882666 169.3259885831285,148.65447599585787 169.09918610786553,148.70426946804946 169.0047810166434,148.71772712982238 168.75265034618496,148.79712704490612 168.54426837652863,148.91286162791948 168.30480180367158,149.04608967162403 168.02158653000515,149.17662488835595 167.90415580677654,149.25467623464647 167.6439661651093,149.38251792398842 167.38838164984918,149.5318892201467 167.22144581780594,149.64088879050723 167.08559458897798,149.70278936592877 166.81274084970937,149.76603529542808 166.50189481762936,149.86561335667375 166.28545387677877,149.9302041154251 166.01605398231186,149.99883143784336 165.7558643406519,150.0889883388827 165.48646444618498,150.22758650981814 165.23778762052098,150.3513816597524 165.08812101248623,150.42000671387905 164.86246981883596,150.52092523976717 164.65178528597608,150.60973288145578 164.4664289483335,150.68508433453826 164.29028286349057,150.7644719906275 164.25574441548815,150.78734630823237 164.09917011784273,150.83847698736736 163.87351892419247,150.95419303004746 163.63405235132814,151.08067215397205 163.4026447496799,151.1990770047887 163.14706023441977,151.34708152147687 162.9271654487602,151.44664722935522 162.74756551910832,151.5381393562775 162.5242168886616,151.64712176806552 162.34346567741886,151.73995790241315 162.1373862709661,151.81664811210976 162.02686323734088,151.58388517346702 161.90828123250685,151.34573603361332 161.80121204368334,151.15736633056804 161.6826300388566,150.99321331918236 161.53641727561626,150.78869185504664 161.41553270759323,150.60165948506074 161.32227889796923,150.51688851407835 161.11619949152373,150.64337197806162 160.8870944530645,150.76178089173573 160.73742784502247,150.83309482027562 160.45191000815248,150.9138270879739 160.21704856169526,150.8855708524552 160.05241529285558,150.81694830536708 159.77265386399085,150.64740866368902 159.44108476310794,150.55321899926275 159.12793616782437,150.50343275253726 158.85277986536676,150.48459466251643 158.59028766049596,150.4496095643026 158.35312365084246,150.39174938340693 158.17582628439413,150.378293489729 157.98241097555,150.358109622578 157.71531364428665,150.33388893979372 157.43900606021634,150.30428582053628 157.16500103934231,150.2827562360635 156.89099601848284,150.25584420432006 156.65152944562578,150.22085847808376 156.40860902796703,150.21143922768442 156.17144501830626,150.23835135320587 155.95039895105583,150.34734488035883 155.86520411263336,150.2773738342612 155.7523785158046,150.0970620600947 155.61882985017292,149.88176107705567 155.4944914373409,149.68664141872614 155.40584275411675,149.5520743961224 155.28841203088814,149.35964108434473 155.194006939666,149.1968106272043 155.0431890500331,148.97342000232857 154.87970706279157,148.72176442558612 154.7369481443602,148.50105704699308 154.63448408192926,148.33552400342796 154.42149698588037,148.3678233028004 154.29370472824667,148.44722539893974 154.07611250579794,148.5616173791277 153.8780920705467,148.64370981411503 153.7019459857038,148.71638136428646 153.46017684964318,148.8105846085855 153.20804617918475,148.91824460619227 152.97318473272753,149.04474394077533 152.90525911830628,149.085115804417 152.7210540622691,149.16182199286777 152.5034618398131,149.24929339853225 152.29968499656388,149.3206157925042 152.07633636610262,149.40270333661556 151.76088520763005,149.7848744477833 151.61352116279159,149.84004609087788 151.4627032731587,149.88176107705567 150.67062153216102,149.8131331240902 150.48526519451843,149.84408303099553 150.2354370872563,149.88579800395382 149.95107053199172,149.92885847795787 149.70009114312415,149.95711683493755 149.46292713347066,149.97999260183042 149.23151953180786,149.9907576543892 148.9989606485542,150.00152269785394 148.74337613329408,150.0028683276505 148.42792497481423,150.01228773222738 148.31740194118902,150.02170712984298 148.09175074753148,150.01632461777444 147.76478677305568,150.02036150203912 147.475815091384,150.02843526673587 147.15575880651159,150.0324721471643 146.83915636642632,150.01363336088616 146.5283103343536,150.01094210343035 146.25775915828126,150.01228773222738 145.9676361950187,150.00690521618162 145.6913286109484,150.00690521618162 145.40696205566928,150.00555958681525 145.1295031900081,150.009596474486 144.87737251954968,150.00555958681525 144.59761109067767,150.009596474486 144.33972401222127,150.00421395730336 144.05075233054959,150.00555958681525 143.86079086649988,149.9974858076239 143.61902173043927,150.00555958681525 143.3035705719667,150.0082508454043 143.01575017189316,150.00690521618162 142.7417451510264,150.01228773222738 142.48385807256273,150.01497898940306 142.23402996530058,150.009596474486 142.0763043860643,150.00421395730336 141.76085322758445,150.0082508454043 141.48569692511228,150.01094210343035 141.2116919042528,150.009596474486 141.02403300340666,150.01767024600304 140.76269208014128,150.00690521618162 140.45529989286297,150.02036150203912 140.18244615360163,150.02305275750496 139.9567949599441,150.01767024600304 139.64825149106764,150.02170712984298 139.3512208382017,150.02439838502778 139.07951838053123,150.02036150203912 138.82969027326908,150.02170712984298 138.5787108844088,150.02036150203912 138.31506739793986,150.02843526673587 138.09862645708927,150.02843526673587 137.8303778442205,150.0270896396405 137.51838053054234,150.02574401240508 137.28812421049224,150.03650902631307 137.03599354003381,150.0338177736894 136.71248341035243,150.03112652049822 136.4212091654772,150.01094210343035 136.28305537344568,150.04054590418673 135.94803242776834,150.0392002783692 135.75116327411524,150.04054590418673 135.52666336205584,150.0392002783692 135.19739682438376,150.0445827807771 134.9199379587153,150.0338177736894 134.6470842194467,150.03650902631307 134.39034842258116,150.04592840602163 134.10828443051287,150.04996528091124 133.84233838084765,150.05131090559007 133.5821487391804,150.05131090559007 133.38988471193443,150.06073027435832 133.1273925070709,150.06073027435832 132.84763107821345,150.05534777876983 132.6139209133471,150.05534777876983 132.38596715649328,150.05534777876983 132.09239034842176,150.06073027435832 131.8149314827533,150.06073027435832 131.76542637393868,150.06476714455493 131.71592126512405,149.86023077866412 131.55819568588777,149.85350255295634 131.28188810182473,149.84542867741493 131.08271638497536,149.81986137112017 130.88930107612396,149.83062655896902 130.5911191416526,149.81717007273437 130.30790386798617,149.8104418242874 130.03850397351925,149.7916027097308 129.7598938262454,149.77545487508996 129.4927964949893,149.76603529542808 129.2061273765139,149.7714179132272 128.92406338444562,149.78083748891004 128.65351220838056,149.79025705762706 128.400230256324,149.79967661938008 128.12737651705538,149.80236792146025 127.87179200179526,149.8090961741691 127.63232542893093,149.81717007273437 127.4354562752851,149.81851572199594 127.29384863845189,149.8265896145922 127.00027183038037,149.83466350206982 126.72741809110448,149.8427373844297 126.63876940788032,149.91271081725972 126.63186171829147,150.22624090375393 126.61804633908469,150.49805044394725 126.59962583347806,150.7779274765453 126.55933097747038,150.98648569164743 126.50406946065777,151.17485792025036 126.37857976622035,151.44395627450376 126.24618238219409,151.72381253631193 126.12760037736007,151.98079051912282 126.01247221733502,152.25794421232695 125.95490813731885,152.53778260468061 125.96526967172395,152.8283775109321 126.02859015973809,153.1889212434735 126.080397831749,153.47950130994832 126.12875165896548,153.74317008441267 126.01247221733502,153.9099781262221 125.7396184780664,153.94495372924303 125.47021858359949,153.98396486560705 125.20772637874325,154.02028547149803 125.03273157549847,154.0606415789498 124.91184700746089,154.06602238362484 124.66317018180416,154.10099755869487 124.43636770654848,154.14673418136408 124.19459857048787,154.16153128887527 124.08637810005894,154.1574957158 124.12437039287033,154.16422167021483 124.36268568412925,154.16556686067088 124.62172404419107,154.1144495235667 124.87270343305863,154.08081958478397 125.09490078191448,154.05122516530082 125.2779545563535,154.02566629320518 125.54044676121703,153.9853100750761 125.8086953740858,153.94764415627287 125.97102607972192,153.9261207241516 125.92036968930915,153.76603905791762 125.85935176449857,153.51985912880082 125.81675434528734,153.33959321565362 125.7776107708778,153.17950418609598 125.71774412766536,152.95214740415759 125.64981851325138,152.6588646205637 125.5911031516298,152.3978641763315 125.53353907161363,152.14089460119976 125.49209293400781,151.97675425577472 125.4126545035906,151.7130489475485 125.30098018835997,151.49777526359048 125.15822126992862,151.256933520468 125.13749820111843,150.98783121744145 125.18009562032967,150.78061857202283 125.24571867154737,150.55321899926275 125.31134172276506,150.31774179236072 125.38272118198074,150.06207589789847 125.44489038839674,149.85484819838075 125.50130318680749,149.65299979631527 125.33206479156797,149.5520743961224 125.08684181071294,149.4888274045161 124.8335598586491,149.42558009893673 124.56185740097862,149.35425829257747 124.30857544892206,149.2937017284794 124.0506883704511,149.2291077428381 123.82388589519542,149.1645134296914 123.62126033355162,149.1187589263891 123.34034762308875,149.04205247864957 123.0755528550144,148.9693827863257 122.88904523577366,148.92228183840325 122.61273765170336,148.8482657112445 122.33643006763305,148.7796321908727 122.07969427077478,148.71368983278444 121.79763027870649,148.642364040762 121.5696765218454,148.5912245478221 121.33711763859174,148.52124385636307 121.11261772653233,148.37051490738395 120.94453061289823,148.2063259868728 120.74766145925241,148.0138723447035 120.55194358719746,147.82141579445215 120.37234365755285,147.65049040585382 120.16165912470024,147.51051830042343 119.87729256943567,147.43918577030308 119.62285933577368,147.46744965078688 119.48240298053861,147.52128544007428 119.24984409728495,147.68548319183537 119.01728521402401,147.88601691879285 118.80544939956599,148.0340599262081 118.56943667151063,148.136343180724 118.32191112745932,148.19421360563683 118.09050352579652,148.21574671987855 117.91090359615191,148.22112999275214 117.71173187930981,148.23055071480303 117.45269351924799,148.2493921380037 117.20056284878228,148.2709251589622 116.95994499432709,148.28572908975548 116.69860407106171,148.30457043133356 116.43956571099261,148.323411745042 116.2323350229417,148.3314865852435 115.98020435248327,148.35705687877635 115.7119557396145,148.37858971772494 115.4782455747627,148.40550571522363 115.22726618590241,148.4243468796285 114.97398423383856,148.43915063211261 114.71839971857844,148.4929823142893 114.4823869905158,148.61275699092675 114.28782040006627,148.78097794972655 114.14391020003677,148.97207426380464 114.062169206416,149.15374767899357 114.01496666080493,149.35560399073438 114.00460512639984,149.65299979631527 114.02532819520275,149.94635175395433 114.04835382720921,150.23700574828126 114.07022817761026,150.5222708147121 114.09095124642045,150.78734630823237 114.11512816002505,151.0685625049482 114.13585122882796,151.36457285079996 114.1519691712383,151.68075812673123 114.14966660803475,151.93504612633205 114.14621276323305,152.23238174529797 114.124338412832,152.548545497104 114.10246406243095,152.84990279606336 114.08289227521891,153.11896579402855 114.06332048801414,153.40013056024873 114.04144613760582,153.67052719065032 114.01957178719749,153.96378670652848 114.04259741921123,154.24896839189114 114.15312045283645,154.50993095030753" stroke="red" stroke-dasharray="none" stroke-linecap="round" stroke-linejoin="round" stroke-width="0.5"><title>2024-04-21 79.4km</title><desc>1713660889000</desc></polyline><polyline fill="none" opacity="1" points="19.215244114944653,194.45845535249464 19.450533724470006,194.38848118355963 19.88808984043135,194.32574553940503 20.449482592986897,194.27990015195064 20.600150500838936,194.96274560673737 20.71366741771635,195.66728558732575 20.78177756784862,196.3018355234217 20.783841511780338,196.48520028167331 21.502094004034007,196.33320065225416 22.03252759743191,196.5624060551545 22.106829579381156,196.97496998286078 21.964417447306914,197.32962424371544 21.8426447546517,197.51056817329845 22.08825408390112,197.26689668015024 22.07793436418433,196.6613255709599 21.570204154151725,196.3018355234217 21.99950449434982,196.17878729428048 22.426740890587098,196.01472195726092 23.126417887338903,195.71071542269055 23.87769348267466,195.42600721988128 24.474173282258562,195.27641335156477 25.196553662390215,195.0737362244854 25.60934245102544,195.20885450911737 25.780649798318336,195.9109741504326 25.947829257718695,196.59859617162874 26.139776044437895,197.22346980443763 26.366809878192726,197.8869269546758 26.628930758983188,198.64203836878005 26.866284312440257,199.36576389835864 27.140788856901054,200.13771252350853 27.334799587559246,200.71183239872153 27.601048356242245,201.48855985481714 27.8280821899898,202.1398327109382 28.086075182887726,202.9333956575374 28.278021969606925,203.47126611926615 28.46171298056288,204.01153581221297 28.672235262762115,204.633794900672 28.909588816233736,205.3308014387203 29.140750537873828,206.00608162088974 29.38429592317698,206.70545792469238 29.56179510228685,207.2215356855395 29.828043870962574,208.00286489358405 30.0488858728786,208.63707236681148 30.251152379321866,208.9167932671644 30.899230777496996,208.6828889554945 31.390449435974006,208.83239508007136 31.75783145787136,209.49310399100614 32.08393460090156,209.87408804394363 32.28000927550602,210.7300733698521 32.44099690308212,211.28222718948746 32.73407694301568,211.95974270543593 33.04779642239009,212.76260878088942 33.36357984569622,213.49553098895558 33.52456747327233,213.94154123701082 33.786688354055514,214.56353020285678 34.00546641203982,215.1324665455286 34.19741319875175,215.76406574940302 34.38316815364669,216.38118401441898 34.6246495949963,217.12604288423972 34.86406709241419,217.9190860441413 35.07665331856697,218.76512915833518 35.17159473995707,219.28334525591163 35.204617843046435,219.88349714931064 35.241768834028335,220.4306098683901 35.31194292809232,221.11749499564394 35.43784350862552,221.93208995230998 35.538976761839876,222.56109167915565 35.65249367872457,223.24550305497905 35.73092354857363,223.94435272631563 35.796969754752354,224.48413925955174 35.82999285784172,225.11548058671906 35.91048667162249,225.92511423472206 35.966213158091705,226.61424414860085 36.011619924844126,227.0648178882584 36.0632185234208,227.77800741161263 36.10862529017322,228.2767450074225 36.13958444933087,228.7441510678891 36.16022388875717,229.5367921378911 36.18499121608329,230.16799430009814 36.19118304790754,231.13644627513168 36.19118304790754,231.9217777931608 36.19118304790754,232.65649612007837 36.23865375859168,233.1358570284665 36.27786869351985,233.89703265925527 36.26961291774205,234.53774952781168 36.22007826310437,235.19049154333152 36.45123998474446,235.38558795012432 37.20457952401921,235.4602540371834 37.949663287523435,235.5156512995909 38.5585267507704,235.58068269781143 39.297418682443094,235.6216282984151 40.05075822171784,235.68425084034607 40.62453463793645,235.73242191013196 41.37168234537967,235.7950441496414 42.040400182973826,235.84803206496326 42.75865267522022,235.90583692390646 43.37989980213024,235.9515990006239 43.999082985086716,236.00217803185296 44.56047573764954,236.0455313984403 45.18172286455956,236.0985187352453 45.732795897405595,236.1370549033345 46.29831653783913,236.20449304174508 46.30863625755592,236.88127195470224 46.28799681811506,237.75310718347828 46.27354921052029,238.49727182530478 46.269421322635026,239.10173731739633 46.263229490803496,239.80251204522392 46.23433427559212,240.9439343547674 46.217822724051075,241.8059836295397 46.14352074209455,242.7041178587133 45.88965563708189,243.32773463419835 45.55942460616643,243.86465751780815 45.470675016607856,244.14154109434094 45.65642997149553,243.814095808586 46.06921876013075,243.7635339880435 46.616163905091526,244.1583947694835 47.13627777877991,244.6014012235155 47.74926912991941,244.87586832636953 48.1063314320927,245.2418193615249 48.7853689894182,245.4464604905952 49.54077247263194,245.7209174954878 50.19917059051659,246.04111318987452 50.91535913881671,246.29871099750744 51.51596682629315,246.64778752918028 52.02369703631848,246.90778591295384 52.713054313353496,247.11241220130978 53.319853832661465,247.3122219947254 53.72851473341143,247.51203005040225 54.16400690543378,247.72146554467508 54.86368390219286,248.0368188368284 55.526209907962766,248.10662928583952 56.19286380161793,248.13792355619262 56.73568105868617,248.2221771491495 57.478700878244126,248.4051267443574 58.07105278994277,248.65788365710614 58.70468358051585,248.91785929538855 59.41055240909918,249.20671766611122 60.08958996641013,249.48835108164712 60.75005202824104,249.7338748329512 61.46004874470964,250.0973414528471 61.951267403193924,250.35489378980128 62.39707929492579,250.5739313567101 62.94815232777182,250.85073408729113 63.56527156679658,251.19011375557784 64.09364121625549,251.4645021643264 64.65709791275003,251.73888729767896 65.263897432058,252.05659230774654 65.87482483925123,252.35503846898428 66.50432774193177,252.6751417386222 66.9914185125308,252.9326651939682 67.64981663041544,253.25998056273238 68.30821474830736,253.59451130832895 68.87992722057243,253.9073773850232 69.35669827145466,254.15044732139904 69.91809102401021,254.43923994536817 70.46710011290997,254.73043550208786 70.89846439703979,254.94702484707886 71.46811292536586,255.2334009602746 72.02124990214361,255.5318058891571 72.39482375587977,255.79892314599783 72.89429819013458,256.2441116797836 73.31740669849387,256.6676343944491 73.80862535697088,257.156119659041 74.39272149290628,257.76490697046574 74.93347480602824,258.3159298157534 75.46184445548715,258.83325366254576 75.91797606694308,259.2952260562324 76.28742203277943,259.72109863960395 76.58050207271299,259.9761372039029 76.91279704758199,260.2985404000974 77.1439587692148,260.5968796322013 77.27605118157953,260.7508596579937 77.68264813839778,261.1141521982281 78.13465186196117,261.52555603099245 78.61761474467494,262.02837295055906 79.1955190487788,262.6610886809849 79.68054587542429,263.1181728743395 80.15112509448227,263.6233606336773 80.22749102037778,263.7604811124729 80.32862427359942,263.9817966534938 80.51437922848709,264.1598097838414 80.69807023943576,264.4436657118076 80.77237222139229,264.5350761978352 80.79713954871113,264.7563842925465 80.65059952874435,264.92476946128227 80.56391388312477,265.16291209746123 80.43801330259885,265.46599916297237 80.40292625555594,265.7811092627744 80.32656032966042,265.9230276702674 80.33068821754568,265.63197372250943 80.41737386315799,265.3721869261717 80.42975752681377,265.00655609888963 80.72490151070087,264.5663481228912 80.72696545463987,264.3354159826413 80.60312881803839,264.1958933586884 80.35339160091826,263.96014631401704 80.59074515439715,263.719585616549 80.3781589282371,263.59689869287104 79.99220141085243,263.2697303662826 79.56702895854687,262.80543203842353 79.22441426398291,262.4758467126976 78.70636433423351,261.9537931443847 78.23372117122926,261.4726272951484 77.84363576596661,261.07565789608634 77.35860893930658,260.59928557803323 76.93343648700102,260.16621127657163 76.50413614682475,259.71147448748343 76.10785890973057,259.31688078458865 75.75905238332052,258.97280880098697 75.29672894002579,258.4891744460365 74.83853338464542,258.04162314956193 74.3989133247378,257.59406314576336 73.96135720877646,257.153713353111 73.63112617786828,256.828859742036 73.24104077259108,256.4342165902217 72.81999620817805,255.99865744591443 72.42371897108387,255.60640651637914 72.00061046272458,255.37538443350786 71.3690436160905,255.02884695761531 70.68175028300175,254.66545830079122 70.04399160455068,254.35260253902925 69.45163969284476,254.0493690460953 68.87786327664071,253.7677915075583 68.22152910268778,253.44289006271902 67.6044098636703,253.12039075477333 67.13176670066605,252.87490317455922 66.4073223765954,252.5162940566679 65.80877863306523,252.20581587269407 65.21642672136659,251.88570606775102 64.59724353839556,251.5655918050379 64.00901951458218,251.2575077032816 63.43524309836357,250.9710820608143 62.90480950496567,250.71353662880938 62.23609166734968,250.36452185858434 61.66231525114563,250.09493440804363 61.06789939550072,249.77720228147336 60.50031481111364,249.47872264579019 60.03592742388719,249.24282470714752 59.46421495161485,248.95396679030455 58.91726980666135,248.66991963122746 58.38890015720244,248.41234840902325 57.8481468440732,248.1331090558342 57.689223160457914,248.27995086289957 57.266114652091346,248.32809551339233 56.67582668432442,248.19329023779392 56.15777675458958,248.10903653891546 55.47461130938609,248.08014948531672 54.787317976297345,247.98867357600102 54.38484890736436,247.7960915238291 53.974124062668125,247.60110055139194 53.38177215095493,247.317036667102 52.83276306206244,247.12685634103036 52.28581791711622,246.96315555907677 51.901924343670544,246.84760136363184 51.379746526043164,246.55149108473415 50.752307567301614,246.21445035029865 50.19297875869961,246.01703848081524 49.687312492606,245.76906750909802 49.12591974004317,245.51146376181168 48.554207267770835,245.3429363825835 48.087755936612666,245.21052114573467 47.9226404211513,244.85901517773164 47.460316977871116,244.86142277115323 47.00831325430772,244.49787330647814 46.60997207325272,244.13672575632336 46.170352013352385,243.83335742522104 45.798842103577044,243.56369332209033 45.49337839998043,243.96818828935284 45.047566508248565,243.8165035115453 44.570795457359054,243.51313095021578 44.10021623830835,243.17123008545968 43.654404346576484,242.83895535335614 43.17556935174798,242.48018955573207 42.70499013269,242.14068118888827 42.2694979606822,241.7722728135268 41.81130240528,241.512216283445 41.37993812115019,241.28586838730916 40.90935890210676,241.08359816642587 40.49863405740325,240.94152635056344 40.02186300651374,240.78018949352008 39.578115058728145,240.650155977557 39.142622886705794,240.52975391713517 38.6988749389202,240.40694316492045 38.292277982094674,240.37082223040306 37.63800775210984,240.35637384067923 37.074551055593474,240.32506896509403 36.490454919679905,240.30098826250833 36.04051514004823,240.16854394674738 36.03638725216297,239.75434951838542 36.04464302792621,239.36182115648626 36.048770915826026,238.95002038355233 36.05909063553554,238.35518400026012 36.08179401891539,237.85184886428578 36.09417768257117,237.3629529715763 36.13958444933087,236.8234695531828 36.19118304790754,236.36345358371 36.226270094943175,235.82153812260185 36.26754897380306,235.38558795012432 36.30469996477768,234.8773703850875 36.34185095575958,234.39322848899974 36.33565912392805,233.88739768254345 36.30469996477768,233.41287007100436 36.28406052535138,232.83956981034498 36.286124469283095,232.49028321450533 36.28199658140511,232.01090881197706 36.27993263746612,231.38698440487315 36.27580474957358,230.7558158009124 36.26961291774205,230.2547230102591 36.26548502986407,229.77289269101675 36.24071770253795,229.25491380333187 36.2180143191581,228.64777946424329 36.19737487972452,228.2767450074225 36.14164839326986,227.56116159372505 36.08592190680065,226.98530551906333 36.04670697187976,226.51545406975492 35.99510837330308,225.88897048545732 35.95382949443592,225.2696987252366 35.898103007959435,224.7853538948002 35.84444046544377,224.17569136925158 35.7825221471503,223.56842244918153 35.718539884903294,223.0864515309422 35.650429734785575,222.64784918252008 35.57406380887551,222.1827287258402 35.495633939041,221.71277877558714 35.40894829342869,221.15605635694556 35.342902087235416,220.55593781416246 35.30575109626079,220.07390349928937 35.27066404923244,219.55088479006736 35.20255389910017,218.9603654372313 35.08078120645223,218.38429310719766 34.95488062592631,217.89980264577935 34.79802088623546,217.369502825366 34.637033258666634,216.87534875385063 34.47191774319799,216.37154166948312 34.33156955506274,215.91593624096822 34.195349254812754,215.41451872558355 33.993082748376764,214.84800014221764 33.801135961657565,214.38754279188288 33.60299734309956,213.88609178750448 33.452329435254796,213.45695672120382 33.22323165756097,212.9458415339668 33.008581487461925,212.4178379119221 32.804251037079666,211.90428845275528 32.5957926988267,211.35938299378904 32.331607874097244,211.20748225590796 31.80530216857005,211.40760523932295 31.312019566139497,211.58361557286844 30.880655282002408,211.52333821385764 30.756818645408202,210.9060889167322 30.643301728538063,210.35392601727654 30.52772086771438,209.83791894448586 30.364669296206557,209.30260958453619 30.226385052003025,208.8685657698261 30.042694041061623,208.35011374975147 29.885834301370778,207.9160518555782 29.69801540253684,207.34693599909224 29.52051622341969,206.82844947639387 29.322377604876237,206.2689531549786 29.13249476209603,205.69738458419488 28.967379246649216,205.2005665375691 28.760984852313413,204.6096766469327 28.579357785311004,204.0814805083446 28.414242269856913,203.59427507405053 28.255318586234353,203.13117909271205 28.067499687393138,202.60777285843687 27.912703891663114,202.1398327109382 27.710437385227124,201.5536879757983 27.514362710622663,200.98682588403426 27.334799587559246,200.45854599701306 27.177939847875678,200.00021108409055 27.00456855664379,199.49361969190977 26.880731920049584,199.09798812500776 26.666081749950536,198.5045279257265 26.484454682955402,197.94965281525947 26.286316064404673,197.37063832674176 26.067538006420364,196.7288801159957 25.945765313772426,196.21739073166827 25.817800789300236,195.68417497756673 25.66300499355566,195.12923133101503 25.61140639497171,194.79867153123996 25.03969392269937,194.979635518157 24.44940595493972,195.1364698132238 23.87975742661365,195.31501831464448 23.421561871218728,195.48150147017077 22.804442632201244,195.72036648599897 22.329735525258002,195.91338689547956 22.09857380361791,195.97370543881334 22.117149299105222,195.97129270013647 21.70436051046272,196.13535834920367 21.039770560753823,196.25599410379255 20.798289119389665,195.894084927957 20.75288235264452,195.49356541977613 20.67238853884919,195.02065382244837 20.560935565918044,194.3908940895035 20.366924835252576,194.03136829123105 19.811723914528557,194.31126805857275 19.36178413491143,194.28955182011669" stroke="red" stroke-dasharray="none" stroke-linecap="round" stroke-linejoin="round" stroke-width="0.5"><title>2024-04-05 108.1km</title><desc>1712276378000</desc></polyline></svg>