<?xml version="1.0" encoding="utf-8" ?>
<svg baseProfile="full" height="300mm" version="1.1" viewBox="0,0,200,300" width="200mm" xmlns="http://www.w3.org/2000/svg" xmlns:ev="http://www.w3.org/2001/xml-events" xmlns:xlink="http://www.w3.org/1999/xlink"><defs /><rect fill="#222222" height="300" width="200" x="0" y="0" /><text fill="#FFFFFF" style="font-size:12px; font-family:Arial; font-weight:bold;" x="10" y="20">Over 10km Runs</text><text fill="#FFFFFF" style="font-size:4px; font-family:Arial" x="10" y="280">Runner</text><text fill="#FFFFFF" style="font-size:9px; font-family:Arial" x="10" y="290">yihong0618</text><text fill="#FFFFFF" style="font-size:4px; font-family:Arial" x="65" y="280">SPECIAL TRACKS</text><rect fill="yellow" height="2.6" width="2.6" x="65" y="283" /><text fill="#FFFFFF" style="font-size:3px; font-family:Arial" x="70" y="285.5">Over 20.0 km</text><rect fill="red" height="2.6" width="2.6" x="65" y="287" /><text fill="#FFFFFF" style="font-size:3px; font-family:Arial" x="70" y="289.5">Over 40.0 km</text><text fill="#FFFFFF" style="font-size:4px; font-family:Arial" x="120" y="280">STATISTICS</text><text fill="#FFFFFF" style="font-size:3px; font-family:Arial" x="120" y="285">Number: 5</text><text fill="#FFFFFF" style="font-size:3px; font-family:Arial" x="120" y="290">Weekly: 1.2</text><text fill="#FFFFFF" style="font-size:3px; font-family:Arial" x="141" y="285">Total: 317.5 km</text><text fill="#FFFFFF" style="font-size:3px; font-family:Arial" x="141" y="290">Avg: 63.5 km</text><text fill="#FFFFFF" style="font-size:3px; font-family:Arial" x="167" y="285">Min: 18.7 km</text><text fill="#FFFFFF" style="font-size:3px; font-family:Arial" x="167" y="290">Max: 108.1 km</text><polyline fill="none" opacity="1" points="74.46561659616418,37.662420441862196 74.59008835954592,38.034295427729376 74.65923933917657,38.56785361104994 74.76988090667874,39.133746620456805 74.88052247406449,39.699637536512455 74.99116404145025,40.29786280017288 75.07414521701867,40.86374941004033 75.17095658852486,41.39729772503779 75.26776796003105,41.93084417922364 75.36457933147904,42.48055676158401 75.44756050710566,43.04643529787427 75.54437187855365,43.676983201294206 75.66884364193538,44.35603188331879 75.77948520932114,45.09974841022631 75.90395697270287,45.77879077749094 75.98693814827129,46.53866794848 75.93161736457841,46.82968373791664 76.11140991159482,47.31470882358553 76.15290049946634,48.17158271734661 76.24971187085612,49.093120983205154 76.3050326546072,49.885316108644474 76.3050326546072,50.240994218576816 76.20822128310101,50.37033150800562 76.22205147903878,50.79067694391415 76.38801383017562,51.45352701583761 76.51248559349915,52.27804382961767 76.74759892426664,53.05405559571227 76.94122166727902,53.92706412856933 77.1348444102332,54.8000676806987 77.24548597773537,55.49523361388128 77.41144832887221,55.867065258469665 77.75720322702546,56.46522731274308 78.03380714560626,57.128052804037 78.25509028037777,57.69387717147765 78.40722243557684,58.292032085053506 77.99231655779295,58.59919180776342 77.39761813287623,58.74468830329715 76.76142912020441,58.97101591038518 76.05608912790194,59.229675622846116 75.40606991923414,59.48833489815297 74.8252016903134,59.63383054843871 74.78371110250009,59.860156840470154 74.67306953511434,60.2966423156613 74.94967345369514,61.007949311475386 75.24010756821372,61.73541895576636 75.43373031116789,62.51138276488928 75.7103342297487,63.255011056768126 76.2635420668521,63.82081277144607 76.77525931614218,64.28961832188361 77.0933538225363,65.01707236746734 77.43910872068955,65.74452295539959 77.77103342296323,66.43963917570363 78.08912792929914,67.13475223894056 78.40722243557684,67.81369683452067 78.73914713790873,68.50880365747435 79.04341144824866,69.22007248767477 79.37533615058055,69.89900783312623 79.69343065691646,70.59410518601362 79.9976949673146,71.27303443683195 80.34344986552605,71.93579580074584 80.66154437180376,72.63088390433404 80.99346907413565,73.35829830715375 81.29773338453379,74.05337995127775 81.6158278908697,74.71612927706155 82.00307337683626,75.2010659903026 82.33499807910994,75.75065907476528 82.55628121393966,76.26792135182768 82.68075297732139,76.65586691253702 82.15520553203532,76.93066108992207 81.58816749905236,77.18929045325785 80.91048789856723,77.48024796480604 80.14982712257188,77.86819045322773 79.41682673839387,78.23996774882835 78.55935459083412,78.61174414151174 77.79869381478056,79.0805043932196 77.31463695730781,79.30680193207809 76.77525931614218,79.5815913509141 76.00076834420906,79.921036422631 75.29542835184839,80.26048074173741 74.71456012292765,80.55143241620681 73.91240875906078,80.93936712198774 73.11025739531033,81.31113695929525 72.43257779482519,81.63441434483684 71.7410679984605,81.95769104771898 71.47829427581746,82.07083773250633 70.89742604683852,82.32945841214678 70.31655781785958,82.63656990187883 69.76334998075617,82.99217190979107 69.11333077214658,83.4285914269858 68.39416058390634,83.94582776234893 67.64733000379056,84.4953894540522 66.9834805992432,84.96413169107109 66.31963119475404,85.35205521572789 65.71110257395776,85.75614117539953 65.11640414898284,86.0794091752905 65.00576258159708,86.12789931643056 64.85363042639801,86.16022606860497 64.31425278523238,86.48349321531714 63.62274298880948,86.77443306376517 62.93123319244478,87.03304579832184 62.26738378795562,87.25933158269618 61.4928928159643,87.5341067284171 60.73223203996895,87.82504458045878 60.137533615052234,88.00283966236748 59.3215520553058,88.29377662383195 58.4917402996216,88.60087615001248 57.64809834805783,88.89181197508879 56.88743757200427,89.16658419117448 56.12677679595072,89.42519288526091 55.26930464844918,89.69996414416528 54.48098348057829,89.99089788086712 53.80330388015136,90.18485339819745 53.208605455292854,90.37880866986234 52.807529773330316,90.50811204787169 52.35113330773311,90.71822980414436 51.701114099123515,90.92834727211448 50.995774106821045,91.18695299069805 50.248943526647054,91.5102095247712 49.4467921628966,91.73648869256431 48.63081060315017,92.02741855979548 47.80099884752417,92.3183478742867 47.01267767959507,92.6416020198667 46.25201690354152,92.93253016743984 45.4775259316084,93.19113250124792 44.70303495961707,93.46589700241748 43.887053399928845,93.7568235838844 43.04341144830687,93.9992619795812 42.62850557046477,94.1447248327604 42.241260084556416,94.27402503065241 41.49442950444063,94.51646260748385 40.70610833656974,94.85587457023212 39.945447560516186,95.13063608427183 39.17095658858307,95.4053971053363 38.590088359604124,95.56702100507391 37.76027660386171,95.8256188898813 36.87514406454284,96.16502795086126 36.142143680364825,96.56908537604613 35.61659623513697,96.98930396723154 35.16019976948155,97.47417013959785 34.952746830589604,97.71660265010723 34.51018056087196,98.13681809249101 33.88782174419612,98.57319444682798 33.071840184391476,98.8964353890915 32.32500960427569,99.05805560432782 31.60583941609366,99.17118965355621 31.246254321944434,99.20351365224633 30.540914329641964,99.36513354348426 29.669611986202653,99.51059129970963 28.715328467194922,99.70453475980321 27.830195927759632,99.8661541222391 26.945063388440758,100.01161140263139 26.101421436760575,100.14090664697869 25.257779485196806,100.27020178217208 24.358816749881953,100.41565867878671 23.487514406442642,100.57727729075123 22.782174414081965,100.70657205754833 21.98002305038972,100.83586671519151 21.1087207068922,100.98132307453488 20.265078755270224,101.11061750017689 19.43526699958602,101.19142646077671 18.605455243901815,101.33688248242834 17.78947368421359,101.51466187684855 16.945831732649822,101.66011759148387 16.157510564720724,101.78941144410055 15.34152900497429,101.93486689780548 14.5532078371034,102.03183712353348 14.207452938950155,102.11264559804113 14.055320783751085,102.14496897593199 14.539377641165629,102.33890909988258 14.80215136386687,102.88840478412749 15.064925086509902,103.40557539185102 15.25854782940587,103.6964830912475 15.548981943924446,104.22981243836693 15.631963119492866,104.61768716068764 15.687283903185744,104.8924311613082 15.894736842077691,105.31262691487791 15.82558586250525,105.19949740234006 15.64579331537243,104.7308171029872 15.548981943924446,104.39142702538811 15.34152900497429,104.03587470884668 15.244717633526307,103.80961371399462 15.1064156742068,103.50254468638741 14.843641951621976,103.08234396671469 14.608528620854486,102.64598046056926 14.73300038423622,102.45204072546039 15.49366116017336,102.30658576294081 16.185170956654474,102.20961571118096 16.904341144836508,102.08032221329631 17.665001920890063,101.96719031315297 18.42566269688541,101.8055731679924 19.22781406075228,101.6924410648644 19.98847483668942,101.5631471304223 20.749135612742975,101.48233836592408 21.523626584734302,101.32072070905997 22.270457164850086,101.19142646077671 22.948136765277013,101.0782939040364 23.667306953517254,100.96516126363713 24.455628121388145,100.81970488894149 25.28543987707235,100.6904102176486 26.08759124088101,100.56111543724546 26.84825201687636,100.4318205476884 27.608912792929914,100.31868742972438 28.314252785232384,100.18939233545098 29.019592777534854,100.06009713205276 29.752593161712866,99.97928757448972 30.388782174442895,99.8661541222391 30.789857856289018,99.8661541222391 31.21859393006889,99.80150639776548 31.674990395724308,99.67221086686186 32.24202842876548,99.59140110459703 32.89204763737507,99.47826736583374 33.65270841342863,99.25199963754858 34.3580484057311,98.91259741829708 34.89742604683852,98.50854617646837 35.31233192473883,98.12065598138724 35.65808682289207,97.63579185592243 36.11448328854749,97.18325062042277 36.59854014596203,96.79535706844763 37.30388013832271,96.48827397626883 38.07837111025583,96.27816413735854 38.81137149443384,95.98724234603287 39.59969266230473,95.69632000205456 40.415674222051166,95.42155950296728 41.259316173614934,95.11447365589265 42.08912792929914,94.83971211286553 42.93276988086291,94.53262509897468 43.6796004610369,94.29018754772551 44.48175182478735,94.01542452564172 45.242412600899115,93.7568235838844 45.98924318095669,93.4820596047648 46.666922781441826,93.22345776227303 47.344602381810546,92.98101813829271 48.063772570108995,92.7547408096143 48.81060315016657,92.49613773880992 49.52977333846502,92.23753423127346 50.290434114518575,91.97893028699036 50.88513253943529,91.8011398219387 51.20322704571299,91.72032590596064 51.72877449094085,91.54253514064476 51.97771801770432,91.42939545524132 52.36496350361267,91.31625568623713 52.890510948956944,91.12230160200852 53.595850941259414,90.89602152658335 54.32885132537922,90.58892660359561 55.075681905436795,90.33031987503637 55.808682289673015,90.0393867832754 56.5555128697888,89.76461613344145 57.288513253908604,89.50600801261317 58.04917402990395,89.23123640562699 58.616212062945124,89.05344275016978 59.16941990010673,88.84332270931918 59.37687283899868,88.77867033096845 60.068382635421585,88.5523867920565 60.73223203996895,88.29377662383195 61.354590856703,88.08365554046759 61.92162888974417,87.87353416875703 62.47483672678936,87.67957572355226 63.09719554363983,87.46945379729732 63.774875144066755,87.2270050625375 64.49404533224879,86.91990278067533 64.89512101415312,86.72594312744332 65.4621590472525,86.45116653139121 66.05685747216921,86.09557255735854 66.69304648484103,85.64299721420684 67.28774490969954,85.27123789580946 67.88244333461626,84.83482363109943 68.35266999615123,84.46306235034717 68.83672685356578,84.09130016683775 69.37610449478962,83.71953708065848 69.87399154820014,83.39626409801713 70.399538993428,83.07299043274543 71.07721859385492,82.70122487384651 71.7410679984605,82.37794974098506 72.55704955820693,82.0223463063885 73.34537072607782,81.6505781961896 74.18901267758338,81.2626452925906 74.90818286588183,80.890875337529 75.51671148673631,80.59992430818966 76.20822128310101,80.27664473814366 76.96888205915457,79.921036422631 77.6880522473366,79.63008355014608 78.44871302344836,79.29063783324091 79.19554360350594,78.96735549837467 79.80407222436043,78.6602366479201 80.53707260848023,78.32078878054745 81.22858240490314,78.01366863296425 81.85094122163719,77.70654786919476 82.54245101806009,77.3347692781681 83.37226277362788,76.9629897842533 84.14675374561921,76.65586691253702 84.67230119090527,76.41340105231211 85.04571648093406,76.18709923622373 85.68190549366409,75.87997480790364 85.98616980400402,75.45969827585213 85.26699961582199,75.4920272808231 84.67230119090527,75.78298801829806 84.07760276598856,76.05778376257513 83.42758355737897,76.39723664797202 82.80522474064492,76.65586691253702 82.4456396465539,76.02545487706084 82.14137533615576,75.28188862647221 81.67114867462078,74.52215416166291 81.35305416828487,73.74625124190061 80.99346907413565,72.97034438919218 80.60622358811088,72.2105984515656 80.2742988858954,71.56400319388194 79.92854398768395,70.9174052048329 79.63810987316538,70.1899792021868 79.29235497501213,69.44638460408896 78.96043027273845,68.63812550880539 78.614675374527,67.92685397433524 78.26892047637375,67.26407525126706 77.95082597003784,66.61745909700403 77.66039185546106,65.93850919490797 77.46676911250688,65.45354313513963 77.34229734918335,65.19489394160337 77.16250480210874,64.90391307637037 76.85824049176881,64.37044671991316 76.56780637725024,63.72381834033877 75.8901267767651,63.545995057036635 75.59969266230473,62.705373102406156 75.35074913559947,61.96174213985796 75.14329619664932,61.21810756390914 74.83903188625118,60.5714658650395 74.71456012292765,59.97331986099016 75.35074913559947,59.60149819361686 76.18056089128368,59.391337721128366 76.91356127540348,59.132678281952394 77.6880522473366,58.85785214869247 78.39339223969728,58.63152437424287 78.78063772566384,58.195034149772255 78.44871302344836,57.3543828020629 78.33807145594619,56.93405539645755 78.03380714560626,56.12573021755088 77.71571263927035,55.33356739956071 77.43910872068955,54.52523376629688 77.21782558580162,53.652228646184085 77.07952362654032,52.89238680237031 77.02420284290565,52.10020724557398 76.94122166727902,51.29185653140303 76.96888205915457,51.081684646211215 76.92739147134125,50.66134000974125 76.581636573188,50.01465369880316 76.48482520162361,49.20629196651862 76.41567422205117,48.18775010321406 76.36035343830008,47.379378718847875 76.36035343830008,46.95902391112759 76.31886285054497,46.3284895340621 76.22205147903878,45.665617258884595 76.15290049946634,45.00274211172655 76.0284287360846,44.30752850598947 75.91778716864064,43.693151062121615 75.80714560119668,43.03026736876927 75.68267383793136,42.35121280224121 75.51671148673631,41.381129621644504 75.35074913559947,40.39487208194623 75.22627737221774,39.47328142124752 75.08797541295644,38.58402201179706 74.93584325769916,37.72709441740881 74.68689973105211,36.78931909610401 74.35497502877843,35.80303195209126 74.06454091431806,35.075438999338076 73.96772954281187,34.81673844883335 73.88474836724345,34.67121919686906 73.51133307721466,34.89758241784875 73.01344602374593,35.30180162220495 72.2942758355639,35.59283878788119 71.57510564732365,35.94855012734479 70.85593545908341,36.25575470937474 70.10910487896763,36.546790060107014 69.26546292734565,36.918667758087395 68.50480215140851,37.24203893450613 67.89627353049582,37.452229832604644" stroke="#4dd2ff" stroke-dasharray="none" stroke-linecap="round" stroke-linejoin="round" stroke-width="0.5"><title>2024-05-25 18.7km</title><desc>1716643451000</desc></polyline><polyline fill="none" opacity="1" points="180.34141044347052,104.91910386315612 180.42214697724557,104.86602283890716 180.40972597204382,104.86361006218249 180.46562049543718,104.89497613998356 180.53393602401047,104.851546174752 180.45112932269694,104.85878450796554 180.49460284089582,104.85637173048599 180.5173746837536,104.6923022700812 180.68505825389002,104.8153544746674 180.55463769933704,105.051805889967 180.50702384608303,105.1627924540553 180.49667300841975,105.24723839548824 180.50081334348943,105.37993853671651 180.61674272531673,105.44749467934344 180.6229532279176,105.49816165661832 180.5711990396012,105.56813015678017 180.53186585648655,105.65740000439655 180.43042764737766,105.72978070859972 180.41800664218317,105.89866813623485 180.43042764737766,105.97346074531742 180.39316463178693,105.78285974750906 180.50702384608303,105.60190797753967 180.42214697724557,105.5922571766514 180.39730496684933,105.4788599641015 180.46976083049958,105.32444584315272 180.50495367855183,105.15796696236066 180.37039278892917,105.29549308052447 180.15302519799297,105.24241292144688 179.84457023561117,105.14107773348769 179.6189219745429,105.0614569167119 179.69551817324827,104.73814532489814 179.8859735862643,104.46549844938636 180.11369201486377,104.16630702293332 180.31863860061276,103.95638814339327 180.4594099928363,103.8116153903702 180.3662524538522,103.74646735535862 180.08470966940513,103.51482840878816 179.81144755509013,103.2132117140045 179.6002904667548,102.96467659635528 179.42846656153415,102.87057036804799 179.22973047838605,102.67270473938152 178.91506501341792,102.34453361642227 178.63973273155716,102.01635782820449 178.35404961204767,101.70265602224026 178.07664716265572,101.39860251101891 177.79510437820136,101.12591619351406 177.61499980286317,100.97871250621392 177.36864986646833,100.74945899248632 177.14093143786158,100.51055027626535 176.98980920797476,100.34886317625205 176.89251133393554,100.25715954149382 176.61924921962782,99.96756672373158 176.50539000531717,99.81794234412337 176.3232152624405,99.67555695303417 176.07065482344478,99.42698374103202 175.8553574000398,99.20012818161376 175.5903759558496,98.92017569368181 175.33988568438508,98.65228694335747 175.06662357007735,98.3843950829214 174.82234380120644,98.13098100094976 174.57806403235008,97.87756413571515 174.33378426348645,97.65069334268628 174.07294315435865,97.39003052859698 173.88662807641958,97.20418579798206 173.70652350106684,97.03282114830836 173.40220887375472,96.716637960777 173.02543838279962,96.32321313467037 172.71077291782422,95.99977911114001 172.48512465675594,95.76806239556026 172.31537091907376,95.70289164990936 171.94895126578194,95.49772328539802 171.60530345534062,95.31427708473348 171.1974804513884,95.10427766923385 170.84555197083682,94.90393161712018 170.50190416040277,94.73496371436886 170.13134417204128,94.55392530203426 169.73594217329082,94.35598834498705 169.3902241953183,94.17977474654981 169.0548570550236,94.00355980170389 168.6801567315997,93.83458530231292 168.33236858610326,93.66078166841908 167.97629977046745,93.4652510145097 167.62230112237012,93.29144459697454 167.38630202363856,93.1659169251543 167.13374158465012,93.05004462157558 166.80665511446568,92.87623507448006 166.42988462351786,92.68793992000428 166.04897379750037,92.48757287465924 165.68669447926368,92.29444636377775 165.32648532857274,92.1013182352508 164.94350433501677,91.91301675239993 164.59364602198912,91.73919863399169 164.241717541423,91.5629650371975 163.88357855826325,91.3601740260001 163.48403622443584,91.16462386155035 163.14245858154754,90.99804278351985 162.86298596463166,90.85077445120987 162.49656631133257,90.66004849153614 162.14256766323524,90.47897808232119 161.96660342295945,90.38482090743491 161.85274420865608,90.34619221161302 161.486324555357,90.15546207713123 161.07850155141205,89.95024434715378 160.6893100552552,89.75226786441817 160.3125395643001,89.54704654473971 159.93162873827532,89.3587241966452 159.53415657199366,89.15108495240565 159.1553159135001,88.95551604661705 158.8033874329485,88.784090085368 158.43489761211094,88.59817598191876 158.0808989640136,88.41708937439944 157.82419818996277,88.33499631025916 157.68342679773923,88.49676765700497 157.61511126915138,88.67785363846633 157.5447255730396,88.82272139920133 157.46191887173336,88.97000268914235 157.3998138457464,89.08830992891853 157.35634032756207,89.19937331566689 157.3356386522355,89.25731921804072 157.38118233795103,89.11245418895669 157.39567351069127,89.09555320958862 157.41223485094815,89.10521091360533 157.5343747353836,88.82272139920133 157.61511126915138,88.63680760737043 157.45363820160128,88.55230084258255 157.21349876780005,88.49918214612262 156.84500894697703,88.42433286602318 156.57588716771716,88.33741081632616 156.3854317547084,88.3108512357503 155.94241590271122,88.2698045510133 155.47869837537291,88.25773198277057 155.03361235583725,88.2215142400837 154.6299296869547,88.07905723328804 154.35666757263243,87.948672082357 154.07305462065415,87.81104251161196 153.70042446476873,87.63477887845511 153.28225062315323,87.44161170470761 152.84958560880477,87.30156449120477 152.42520126460295,87.17358956908902 152.0380799359773,87.06010177940152 151.80208083724574,86.95868668591174 151.54952039825002,86.81622187209359 151.17896040988853,86.6013156558729 150.79804958386376,86.40331040160345 150.41299842278386,86.26325687723511 150.01966659157188,86.11112880859037 149.7050011265892,85.95417022464244 149.36135331616242,85.78755148088385 148.98458282520005,85.64990900108205 148.60988250177616,85.5412433045658 148.2641645238109,85.42291785212365 148.03437592768023,85.32874001684831 147.92672721597773,85.11864961232641 147.8335696770082,84.95443968628751 147.81700833673676,84.58013327401386 147.8977448705191,84.19616102176224 148.03644609520416,83.80976738851314 148.08198978092696,83.42095225220874 148.13374396925065,83.09975218890031 147.8459906821954,82.92345250570725 147.49406220162928,82.72300054145671 147.39469416005886,82.45733862337147 147.3180979613535,82.23273115642769 146.9496081405232,82.02985801305294 146.61217083269003,81.84630458139327 146.29129486511374,81.657919274925 146.28301419498166,81.36809271712809 146.29543520018342,80.92126962671864 146.29336503265222,80.56380491131131 146.29957553524582,80.29087203418203 146.3037158703155,80.04208969035062 146.3037158703155,79.85852041206272 146.29750536771462,79.6097333962316 146.3057860378467,79.15079883720318 146.3244175456348,78.62180502105002 146.33269821577414,78.20149989795391 146.33890871836775,77.74495287876562 146.34511922096863,77.31255343663724 146.34511922096863,76.88980869840816 146.3616805612255,76.4791349455063 146.34097888590622,76.35593139058437 146.22090916900197,76.25205337097577 145.81101599752583,76.22064829599367 145.39905265850393,76.18924317815436 145.03677334028907,76.1626695834384 144.57719614801317,76.12884860031409 144.1900748193948,76.09744335719552 143.7656904751857,76.06362227821592 143.35165696863987,76.02738535271783 143.03078100107086,76.00322737068927 142.7430277140229,75.98148516517722 142.37039755811566,75.9621587430247 141.9749955593652,75.92350585004169 141.5982250684101,75.88726870390747 141.24215625278157,75.86311057477542 140.8467542540311,75.83653660344135 140.48861527087138,75.80029932034813 140.44514175269433,75.40893302668337 140.4658434280136,75.05621449124192 140.4741240981457,74.66000366090157 140.4761942656769,74.33384938188283 140.48654510334745,73.92313000890681 140.49482577346498,73.54622813272181 140.50103627607314,73.2248902464089 140.49689594100346,73.14999129704665 140.49896610853466,72.8793866091255 140.50724677866674,72.8093188050243 140.49689594100346,72.50971613183901 140.49689594100346,72.34058386728248 140.5403694591878,72.18353136519909 140.51966778386122,71.9104990782107 140.51138711373642,71.60363591389614 140.52380811892363,71.16387211538677 140.51345728126762,70.7506797855367 140.51138711373642,70.40755536661345 140.542439626719,70.07167509649844 140.50310644360434,69.71645825011365 140.51138711373642,69.34432043020206 140.50103627607314,69.07608748724488 140.48240476828505,68.80785141507113 140.48240476828505,68.62177590501415 140.48654510334745,68.95526081502976 140.45342242281185,69.11716841116322 140.32300186825887,69.31290592298501 139.97728389028634,69.37573489450006 139.59430289673764,69.3467369289774 139.49079452009755,69.17274836786419 139.25272525382752,69.0664213768323 138.96083163171716,69.05433873310358 139.03535766290588,69.05675526236337 139.39556681358954,69.10508579409543 139.76819696948223,69.17516488467663 140.13047628771164,69.23316121189964 140.44100141762465,69.25249328846985 140.44514175269433,69.60288435921939 140.44100141762465,69.90494134172877 140.18016030849685,69.98226729136331 139.93381037209474,69.9653522621029 139.565320551279,69.96051939431527 139.14300637459382,69.94360434905502 138.77037621871568,69.92910572892652 138.3646233822874,69.91460709965395 137.94437937314797,69.90010846124096 137.54897737439023,69.8880262555831 137.1390842029141,69.87836048648387 136.7084893561114,69.87111115699554 136.2903155144959,69.84453026264782 136.1847369703246,69.59805141524157 136.17438613267586,69.17758140123078 136.16610546252923,68.80301830399003 136.16196512746683,68.67977362813144 136.13712311707786,68.36803414616224 136.11435127421282,68.07562350331864 136.08743909629266,67.7010424527889 136.05638658329553,67.35062239613035 136.02740423784417,67.07269924259344 136.0149832326424,66.83344096678047 135.97772021705896,66.45883967450209 135.94045720146096,66.09631648207687 135.9176853586032,65.74103820593518 135.89077318067575,65.40267283707726 135.86179083522438,65.19481735480258 135.82245765209518,64.83227422391246 135.7934753066438,64.40930000909611 135.76656312872365,64.05157859679821 135.72515977807052,63.64792680253595 135.67133542221563,63.261187893132956 135.61544089882227,62.90586578242073 135.5988795585654,62.61338563613026 135.50572201959585,62.22421206494073 135.44568716114009,61.880960338110526 135.38979263776127,61.52561688003516 135.34424895203847,61.23070180888499 135.30284560137807,60.91886126279496 135.27593342346518,60.60218164705111 135.25730191566254,60.2951674697415 135.2324599052663,59.934964502414005 135.2055477273534,59.59651361367287 135.18691621955077,59.26289285632811 135.11446035590052,58.89542090591203 135.03165365459427,58.527943075298026 134.9509171208265,58.20155980803611 134.86604025198176,57.887260425373825 134.77288271300495,57.56086805142513 134.66109366624005,57.21754662160674 134.55758528959996,56.9129049979274 134.46856808569282,56.63969121471746 134.3754105467233,56.330206187731164 134.28225300774648,55.99895587233914 134.19323580383934,55.62417785467005 134.09386776226893,55.372710464393094 133.97379804537195,55.04628233928088 133.83095648560993,54.68357897797796 133.77506196223112,54.487716779764014 133.61772922973614,54.19029320867958 133.5121506855794,53.87352077668402 133.43555448685947,53.63170681725387 133.2533797439828,53.2617265280096 133.112608351752,52.91350433640764 132.9759772946054,52.55802206549561 132.83727606990578,52.21704410068378 132.7316975257345,51.94861107454199 132.6199084789696,51.66566475556283 132.50811943219014,51.36820460675153 132.42945306595357,51.16505887434687 132.21208547501737,51.28597916983381 131.85601665938884,51.4165723731694 131.49166717362823,51.54474646107519 131.17493154112162,51.668083114949695 130.84991523848294,51.71645024922509 130.75675769950612,51.331928715022514 130.67602116573107,50.94256386552115 130.5973547994945,50.59914342082811 130.5166182657049,50.2049291082094 130.44002206699952,49.820382239544415 130.32409268517222,49.457596265432585 130.21023347086157,49.1117349611759 130.15847928255243,48.92066249385607 130.011497387728,48.55302491473594 129.88314700069895,48.18296271625877 129.7568667812011,47.79112564494426 129.62437605910236,47.401700688127676 129.5436395253273,47.16707500638768 129.40493830064224,46.76554507458604 129.2745177460747,46.38577836846525 129.15030769411533,46.00600537267201 129.02816780967987,45.647997043784926 128.91430859538377,45.32626857390096 128.79216871094832,44.99727840228297 128.66381832391198,44.60538688973793 128.54788894208468,44.26670981598727 128.45266123557667,43.97883036931307 128.3325915186797,43.63772483273897 128.21252180179,43.27484103011193 128.14213610567822,43.07404285707344 128.01378571864188,42.71598873785115 127.90820717446331,42.38938044023416 127.79641812769842,42.08454182992682 127.65357656795095,41.67324521561568 127.51694551078253,41.27161904561581 127.39894596142403,40.925634231554795 127.28508674712066,40.594161363187595 127.1629468626852,40.22880979993897 127.04287714578822,39.88038963744475 126.92487759642245,39.536803455450354 126.8441410626474,39.27064160381997 126.76133436133387,39.021414521375846 126.614352466524,38.629420809033036 126.50463358727575,38.31243333427483 126.38870420544845,37.97850285340064 126.27277482361387,37.63246830641947 126.1527051067169,37.28642853205383 126.02849505475751,36.918604298964055 125.9311971807183,36.57255373962653 125.86081148459925,36.27005770921642 125.77386444822332,35.92157732972373 125.68898757937859,35.58035182006461 125.59168970534665,35.217340377215805 125.57305819755129,34.92450695337902 125.48818132871384,34.80108017359453 125.26046290010709,34.88820502838644 124.95407810526376,34.977749672612845 124.57523744677019,35.086654849095794 124.19018628569029,35.20765999329524 123.84446830772504,35.316564076401846 123.48425915702683,35.43272786086709 123.1302605089295,35.57551170534316 122.76384085563768,35.727974827656 122.40984220754035,35.817516188295485 122.11173808283638,35.95303758172486 121.92749317241396,36.02079797771876 121.77016043992626,36.09097817649308 121.46584581261413,36.18051811789155 121.1097769969856,36.262797755396605 120.79097119694052,36.3353971900724 120.70816449563426,35.98933781879714 120.66676114497386,35.65295341812998 120.62328762679681,35.38190627766926 120.58188427614368,35.120536353921125 120.51563891508704,34.72605572745124 120.45767422417703,34.418694946278265 120.34588517741213,34.075026825097666 120.22995579557755,34.07744704117249 119.92357100073423,34.22265953730857 119.58820386042498,34.35334999643965 119.3563450967631,34.31704716594686" stroke="red" stroke-dasharray="none" stroke-linecap="round" stroke-linejoin="round" stroke-width="0.5"><title>2024-05-01 58.8km</title><desc>1714551575000</desc></polyline><polyline fill="none" opacity="1" points="19.234843993370305,114.10810529000628 19.493339395288785,114.0 19.59211406106624,114.24815003179901 19.644653776907944,114.49875430608154 19.684583960952295,114.77146765251382 19.73502208814898,115.04909146670616 19.7833586267152,115.34390958649237 19.825390399397293,115.65592135781299 19.850609462999273,115.86474579477726 19.87372693796351,116.20377441566416 19.87372693796351,116.30695605818619 19.911555533362844,116.38802702749854 20.212082707970694,116.31678285739508 20.56514959839842,116.24062505484835 20.86987995027448,116.17429386227013 21.14728964990354,116.08830870136262 21.262877024753834,116.03426072317961 21.538185135737876,115.92616438987352 21.83871231033845,115.82789455983766 22.168661725809216,115.638723967646 22.48179843221442,115.46429257706586 22.76130972046667,115.311971137422 23.078649604140082,115.32425516148578 23.37077042420424,115.25300773155868 23.64607853521011,115.17193280430911 23.96972318476037,115.08348710666178 24.26604718210001,115.00241158821882 24.55816800215689,114.91150839796683 24.76622527688596,114.90168100475421 24.84188246769918,115.21124189526017 24.93225077893294,115.57976139048878 25.01211114700709,115.90896719960256 25.091971515088517,116.23816834738318 25.16342552862625,116.53051471281469 25.190746180858696,116.65580488705382 25.281114492099732,116.92357966281088 25.39249868968909,117.23802683886788 25.478663823654642,117.50333833623154 25.573235312163888,117.7760164431711 25.6636036234122,118.0462348363726 25.76868305508833,118.3311890133391 25.88216884130088,118.67018167642345 25.972537152541918,118.98460523686117 26.02297527974588,119.10988219001047 26.113343591001467,119.33832666158924 26.20161031360476,119.58396337496924 26.294080213476263,119.86644238848749 26.36973740428948,120.10961722632965 26.42437870876165,120.25945096166106 26.529458140437782,120.51490297359123 26.581997856279486,120.67210281740336 26.630334394845704,120.84403893023591 26.72280429473176,121.1240464512357 26.825782137770148,121.4507176329189 26.935064746707212,121.77738422775474 27.040144178397895,122.09176579239647 27.098988660131,122.23667461455625 27.216677623604483,122.56824225331547 27.311249112121004,122.89243715388147 27.38480471429648,123.07909277493673 27.47096984827658,123.26329093315144 27.538220684538828,123.48187085586505 27.626487407156674,123.76675845979116 27.710550952499034,124.04427492742798 27.79671608647186,124.29968538911089 27.84925580230629,124.49124139588639 27.91020187268441,124.63613527674534 28.021586070266494,124.94065506926927 28.130868679210835,125.25744965723243 28.244354465423385,125.62335431889187 28.368348194795544,125.9843418719247 28.479732392377628,126.31094483419838 28.589015001321968,126.63999882371536 28.71300873070868,126.99605946833799 28.8138849851166,127.31773716139287 28.944183480394713,127.68115394068991 29.06397403250594,128.02001042154734 29.190069350523117,128.3662282540554 29.299351959467458,128.70753015633636 29.40022821387538,128.9628894589423 29.41704092294094,128.98744309046197 29.511612411450187,128.96534482326388 29.555745772762748,129.05128241124112 29.843663415558694,128.93833580154023 30.1820191855586,128.81802250598957 30.518273366928042,128.70507476483726 30.661181394003506,128.89904989583556 30.799886243818037,129.17896052773358 30.968013334510033,129.46868904153234 31.121429304766934,129.74613754457823 31.276946863647026,130.0358590019623 31.407245358925138,130.06041150217789 31.459785074759566,130.36240513753728 31.541747031464183,130.73313993702868 31.642623285886657,131.09650341791166 31.72248365395353,131.361656974992 31.798140844752197,131.5040530098522 31.905321865080623,131.7544715112981 32.010401296756754,132.0097974075834 32.11548072844016,132.29703569568846 32.25628716687788,132.64809990464164 32.38028089625004,132.96233470942207 32.500071448383096,133.26183581256555 32.64087788682082,133.5834269726547 32.72494143216318,133.78472605053867 32.58623658234865,133.84364252482555 32.55681434147846,133.87310070609237 32.57572863918176,133.84118767470136 32.5589159301162,133.83382312278445 32.76066843893204,133.84118767470136 32.85944310470222,134.12840338359638 32.9855384227194,134.454892154572 33.13054803843988,134.79855960285204 33.283964008696785,135.17904265119614 33.4058561494312,135.51288072515854 33.50252922657819,135.82216761407108 33.6076086582616,136.19281554207555 33.69377379222715,136.4996388374202 33.78414210347546,136.71318546696784 33.8934247124198,137.07154667837858 33.98799620092905,137.38572183782526 34.084669278076035,137.72934606967465 34.17293600067933,138.0582388041421 34.271710666456784,138.3674919183959 34.36207897771237,138.7135560153547 34.433532991250104,139.0399805616962 34.49868223888916,139.34922065279352 34.5407140115567,139.62900577225082 34.55962830926728,139.87688276605695 34.58274578423152,140.20083684471865 34.61216802510171,140.60577311367524 34.63948867732688,140.78247037268193 34.65419979776925,140.9861613848243 34.68992680453812,141.37635968015275 34.73616175447387,141.73219520091698 34.795006236221525,142.09538723681908 34.845444363425486,142.43648811999628 34.90428884515859,142.80212309514172 34.92530473149236,142.9395414695864 34.96733650416718,143.15302912393963 35.01567304274067,143.45730700116474 35.06400958131417,143.79102656057512 35.08502546764794,143.98732995349746 35.110244531257194,144.24006813926644 35.108142942612176,144.3529406192538 35.150174715286994,144.52470204092788 35.179596956157184,144.87067477969322 35.20271443112142,145.1994668119114 35.21742555156379,145.5159861072225 35.21532396292605,145.59204824367043 35.2426446151585,145.77116132742594 35.27416844465915,146.04841585510985 35.29938750826841,146.33302769560032 35.318301805971714,146.5808334536032 35.34352086958097,146.872799237055 35.36663834454521,147.2040165013459 35.38345105361077,147.4248253991209 35.419178060379636,147.73886112168657 35.435990769452474,147.96947841428846 35.459108244409435,148.1927334095817 35.486428896656435,148.5067587992853 35.503241605721996,148.7569947567681 35.5221559034253,148.96061615414874 35.53056225796172,149.11026448236044 35.52425749205577,149.3874793423638 35.53476543522265,149.68186319980487 35.545273378396814,149.98114964895285 35.54947655565775,150.2460885495493 35.57679720790475,150.52083682607554 35.58310197380342,150.93785928128636 35.587305151064356,151.3327972091447 35.587305151064356,151.70319875978566 35.587305151064356,152.07850029787187 35.5894067397021,152.50040070683826 35.59571150560805,152.80210388260093 35.587305151064356,153.17002930931085 35.555781321556424,153.300028240772 35.61882898057229,153.49379888969088 35.627235335094156,153.77586721375883 35.650352810072945,154.07510118990285 35.66716551914578,154.36206787704032 35.68607981684909,154.68336827436542 35.6818766395736,155.024285236972 35.6629623418703,155.32350321898593 35.63143851237692,155.65950572832662 35.614625803311355,155.89249733139877 35.599914682868985,155.97833575725053 35.75543224174908,155.98324080062775 36.09378801175626,156.02738614468944 36.43634695902438,156.07153140533046 36.781007494930236,156.1009615327439 37.17820774667052,156.15001166270304 37.49554763033666,156.16963168584516 37.84020816624252,156.20641918482215 38.11761786587158,156.20641918482215 38.418145040472155,156.23584914230378 38.72287539233366,156.2530166003762 39.02970733282564,156.27999400899716 39.33653927332489,156.30206641105724 39.66018392289698,156.32904376304214 39.903968204394914,156.36337852959514 40.09941594731208,156.35602108386956 40.414654242340475,156.38545085287296 40.74460365781124,156.41733306079368 41.070349896013795,156.4516676975818 41.36457230471569,156.46883499705473 41.67350583384541,156.49335968870218 41.9298996471407,156.5252417493557 42.17578551726183,156.50562202487163 42.535157173602784,156.54731391969472 42.86300500045036,156.57919590671554 43.211868713609874,156.61107785022068 43.56703719268262,156.64541220226238 43.8927834308779,156.6699367085439 44.27737415082083,156.7018185282177 44.638847395792254,156.72389053173174 44.870022145485564,156.7386051891517 45.128517547404044,156.75822471797255 45.29033987219009,156.76803447620296 45.56564798318868,156.78274910582513 45.87668310094887,156.82198807283385 45.89769898729719,157.15551663156293 45.88508945549256,157.4399931102853 45.878784689593886,157.7833221787041 45.87247992368793,158.11438471682595 45.86617515778926,158.4184676559289 45.85566721462237,158.77404349299286 45.85356562598463,159.09773541237155 45.85356562598463,159.45330091367578 45.85146403736144,159.7573664303436 45.85146403736144,160.05161961522754 45.843057682817744,160.30663604539222 45.84726086008595,160.49789654197775 45.83675291691907,160.91474091946293 45.83044815102039,161.4026845994631 45.82204179648397,161.87345477703093 45.80733067604888,162.295178343702 45.798924321519735,162.69482795854128 45.792619555628335,163.01846558496254 45.74218142840982,163.3739714504245 45.64550835127011,163.72456849250193 45.49629555828869,164.03593348584218 45.32186370169802,164.32522952755244 45.29244146082783,164.37916568183937 45.35548911983642,164.34484268896267 45.454263785613875,164.4257468058804 45.65811788306746,164.56058637868955 45.89139422139124,164.74936047436677 46.15829597785341,164.91606879821484 46.28439129587059,165.0165835368134 46.505058102397015,165.23967568129774 46.767756681583705,165.42354123350378 47.009439374451176,165.6196628958478 47.27213795364514,165.6711445596775 47.448671398859005,165.6613385372093 47.536938121469575,165.769204558228 47.646220730413916,165.98248363542552 47.71977633258939,166.041318900654 48.05182733669062,166.10260547787766 48.371268808987224,166.23988682807976 48.699116635820246,166.3207843892651 48.9660183922897,166.43109879448093 49.22661538284592,166.558572570284 49.44728218936507,166.65662884814628 49.67635535042791,166.76939305948872 49.92224122054904,166.87970534888336 50.22276839515689,166.9875657510329 50.533803512917075,167.10032836692335 50.69562583770312,167.18367429885075 50.93730853055604,167.31359530632653 51.20421028702549,167.4729314057895 51.41436915037775,167.5979482008879 51.69177885001409,167.7278669074476 52.05745527225372,167.84062595465184 52.36638880137616,167.9337743228225 52.66481438734627,168.0244710617535 52.96954473921505,168.11516744904839 53.219633786611666,168.24753451834295 53.42348788406525,168.340681266287 53.610529272446,168.42647399549787 53.80807860400091,168.52207123742664 54.08548830362997,168.65688719676655 54.41543771909346,168.8137629714638 54.779012552702625,168.9240656207112 55.119469911340275,168.95347957268496 55.40948914276669,168.9853446455927 55.66798454469972,168.9828934876732 55.98112125110492,168.99514927467135 56.18077217127575,169.0343677499277 56.403540566439915,169.05887926357173 56.71457568421465,169.1422182178885 57.021407624706626,169.18633872057762 57.336645919742296,169.28928623663342 57.47535076954955,169.3432109452151 57.80109700775938,169.49027770055727 58.095319416454004,169.63489244189623 58.368525938814855,169.74028906315107 58.50933237725985,169.8040170224358 58.734202361054486,169.8898043858353 59.04733906745969,170.01235721651574 59.3709837170245,170.1520666605211 59.7051363097562,170.2795201625213 59.98674918665347,170.3971689328191 60.306190658964624,170.48050312056876 60.6718670811897,170.6667784671099 61.02493397163198,170.84079751697755 61.34647703256633,171.00256054358033 61.611277200398035,171.13491127910856 61.83614718418539,171.26235942808853 62.103048940654844,171.39470869431898 62.367849108472,171.52705721207167 62.62003974450636,171.65450322547986 62.85121449419239,171.7647924846042 63.13492895972013,171.92164742457317 63.408135482088255,172.0785013133118 63.67503723855043,172.20839514418913 63.97556441314373,172.36524711119273 64.28659953091119,172.51964723957462 64.56611081918527,172.66914480603918 64.82670780973422,172.79903535905396 65.1125238638997,172.9534326259527 65.41515262713074,173.10292742185266 65.69886709265847,173.2352662805315 65.99939426725177,173.38966067002184 66.29361667596095,173.53915267995217 66.57522955285094,173.6861930698651 66.79589635937737,173.7989234099714 67.0417822294985,173.9239064133253 67.32969987229444,174.06359250978494 67.61131274919171,174.2106296055954 67.90763674653135,174.36991875057174 68.23338298473391,174.52920681174328 68.52970698206627,174.6860432284575 68.83653892255825,174.85513131324842 69.12865974262968,175.02421817684626 69.42498373995477,175.16144719742078 69.77594904176658,175.3452348043029 70.10169527996914,175.5094171797391 70.41903516363527,175.6760488612199 70.66912421102461,175.80347228809478 70.984362506053,175.95784974167145 71.30170238972642,176.12447823192633 71.60012797568925,176.26660159542917 71.89855356165208,176.4185256163164 72.20748709078907,176.62190623033348 72.35669988377049,176.7640265748123 72.4386618404751,176.8179340660481 72.70346200829954,176.9992583531548 72.97246535339218,177.2614409882881 73.19523374855635,177.48686670157804 73.40118943464768,177.70003902125245 73.59873876620259,177.89115738238252 73.84672622495418,178.1459794379116 74.1157295700541,178.42285025942329 74.3952408583209,178.70706822938882 74.66634579203674,178.99373286083392 74.92273960534658,179.25344308767126 75.17703182999685,179.5107003792291 75.425019288763,179.763054786903 75.67720992479008,180.00805646535264 75.91258785174432,180.2530555815174 76.14376260143763,180.4882523225624 76.34551511025347,180.73079648876774 76.57668985995406,180.92678994026028 76.67546452572424,181.02723594869167 76.71329312113085,181.0590845931565 76.74902012790699,181.08603341234993 76.87091226864868,181.2085276543803 77.06636001157312,181.4143165393034 77.16723626598105,181.50986076434674 77.35637924299954,181.71809682799358 77.54342063138029,181.9214314337587 77.7787985583418,182.149262088642 77.97844947852718,182.36729150129577 78.10454479655164,182.46773133470924 78.34412590076681,182.6857577842602 78.58580859362701,182.95032648192864 78.82538969784946,183.20019417606454 79.07127556797786,183.45495849382132 79.3150598494758,183.71216965899657 79.33817732444732,183.7660611644951 79.49159329468966,183.90323898294082 79.66602515128034,184.0624622296964 79.90350466687232,184.2976207387146 80.122069884761,184.5131806327172 80.32592398221459,184.73853658409826 80.35534622308478,184.8193702560875 80.45201930023177,184.90510263388205 80.5234733137695,185.10596011969574 80.66007657494629,185.2602762872466 80.76095282935421,185.38519815501422 80.70000675899064,185.45623186136254 80.56340349780658,185.6350398934228 80.4562224774927,185.7795549775219 80.40158117302053,185.87018262658603" stroke="red" stroke-dasharray="none" stroke-linecap="round" stroke-linejoin="round" stroke-width="0.5"><title>2024-05-01 52.5km</title><desc>1714541844000</desc></polyline><polyline fill="none" opacity="1" points="186.0,148.31298320277074 185.80015723018005,148.3453916439821 185.51829806350725,148.38320138819563 185.2318182547533,148.38590207993366 184.96497617482237,148.38590207993366 184.81480530731642,148.38725242558667 184.57568707985047,148.39400415171167 184.27419018435467,148.39400415171167 184.00503778338316,148.39670484116505 183.73588538241165,148.40885793663801 183.4782845866357,148.41290896589544 183.20220122254977,148.40615724975123 182.95268655040854,148.3750993095682 182.70894768086146,148.34944269335847 182.42939883521467,148.38725242558667 182.20760801553843,148.46827290370038 181.9950584800099,148.48312660230386 181.79406054966967,148.44801783232288 181.66814805307513,148.16309309310873 181.604614224525,148.0145516104276 181.50527041987516,147.77823205673667 181.4475123939119,147.59187412663505 181.34701342874905,147.3636494809125 181.3077379710885,147.24345853178056 181.19337707968953,146.96931090044836 181.09634359608754,146.72892045216122 180.99237914935657,146.50743311413135 180.70474418008234,145.76596279919704 180.51645301545796,145.73354781445505 180.42404017392255,145.5012380164144 180.34895474017685,145.46341974240295 180.16181873606547,145.6390036390785 179.9434933979428,145.5998351328326 179.80025349355856,145.54310811773667 179.62004845256888,145.51339386641848 179.35089605160465,145.52825100072096 179.16607036853384,145.57282229992143 178.90846957275062,145.65926316414425 178.80450512602692,145.702483376881 178.60812783776782,145.76596279919704 178.33550995524274,145.86185664742698 178.07790915945952,145.96315218410473 177.97394471273583,146.03203269021287 177.7706364613623,146.13737862818653 177.6770684593066,146.20085588929942 177.40329541626124,146.3237577748705 177.28546904330142,146.356171261933 177.01400632129662,146.4399057228511 176.85228384861693,146.48582438775793 176.56464887933544,146.576310685522 176.41563317235705,146.62763098747928 176.2215662051458,146.80454939546416 175.970896372477,146.94230096327556 175.83343227069417,146.98956831585747 175.6058656484165,147.0935558760093 175.317075518622,147.21779964338566 175.13456015659176,147.29882753643506 174.9150796579488,147.40686392786574 174.75220202474156,147.478437534146 174.58816923101404,147.5743185293768 174.34327520095394,147.74987341660653 174.15613919684256,147.88626439497602 174.0013476872773,147.95378414258903 173.71371271800308,148.06181499674312 173.5265767138917,148.13068418959938 173.2920791284996,148.17659677864776 173.01715092492668,148.2252099284433 172.8438768470587,148.23331210209744 172.56779348297277,148.2400639095522 172.30672720563598,148.167144200268 172.16117698022572,148.11447970702375 171.9301448763872,147.9524337511357 171.71297469877754,147.81739388487676 171.518907731559,148.0226539176365 171.29480659083492,148.1360856792262 171.09727414205554,148.2184581131405 170.81310465434217,148.3237860256395 170.52084904297953,148.42911307007307 170.29328242070187,148.51013328281533 170.15466315840604,148.57359875738712 169.95597554910637,148.6802740577932 169.76883954500227,148.72753498222028 169.51239390973933,148.7585920659776 169.28482728746167,148.80855330324084 169.1901041248857,148.82205630681347 168.93712397119089,148.90172373753376 168.72803991721594,149.01784825560844 168.4877665292297,149.15152517366005 168.20359704150906,149.28250019201732 168.08577066854923,149.3608145103226 167.82470439121244,149.4890869262099 167.56825875595678,149.638961486854 167.40076048067567,149.74832830054856 167.26445153941313,149.81043743251394 166.99067849637504,149.87389645134954 166.6787851561894,149.97381001280883 166.46161497857975,150.03861839191904 166.19130741709523,150.1074769347597 165.9302411397657,150.19793759407003 165.65993357827392,150.3370027324827 165.4104189061327,150.46121497528657 165.26024803863402,150.53007124219312 165.03383657687664,150.63132978461363 164.8224422018684,150.72043663862314 164.6364613582773,150.79604196719083 164.4597217988412,150.87569709761465 164.42506698326906,150.89864848378693 164.26796515266324,150.94995143333563 164.04155369090586,151.06605734861023 163.80128030291235,151.19296260829833 163.56909303856082,151.31176639089153 163.31264740330516,151.4602695670883 163.09201174413465,151.56017073355997 162.9118067031377,151.65197111741963 162.6877055624209,151.76132071473057 162.50634536091093,151.85446963426966 162.29957162797655,151.93141823001497 162.18867621813843,151.69787106224794 162.06969468465832,151.4589195459821 161.96226475638105,151.26991518430896 161.84328322290094,151.10520910561263 161.69657783696312,150.8999985640421 161.5752859824497,150.71233604119425 161.4817179804013,150.62727945831557 161.27494424746692,150.75418907268522 161.0450673041487,150.87299693182376 160.8948964366573,150.94455113254844 160.60841662789608,151.02555540487083 160.3727638819837,150.99720396792964 160.20757592774316,150.92835021650808 159.92687192158337,150.75823935878725 159.59418569205445,150.66373234883122 159.27998203083553,150.61377836137854 159.00389866675687,150.5948768017206 158.7405220683795,150.55977383107893 158.50255900143384,150.5017187066096 158.32466428147745,150.48821747709007 158.13059731425165,150.46796560608618 157.8626000738077,150.4436633185378 157.58536154920148,150.41396045991314 157.31043334562855,150.39235833757266 157.03550514207018,150.3653556333229 156.79523175408394,150.33025203254056 156.55149288453686,150.32080104663237 156.3135298175839,150.34780384497662 156.0917389979004,150.45716459510277 156.0062571194867,150.38695780128364 155.89305138860072,150.20603851740998 155.75905276837875,149.99001213838437 155.6342954323045,149.79423507935462 155.54534807232994,149.65921467109183 155.42752169937012,149.4661330095014 155.33279853680142,149.3027539410241 155.18147250878974,149.07861066439364 155.0174397150622,148.82610720510638 154.87419981068524,148.60465621520143 154.77139052447455,148.4385654546959 154.55768582842575,148.47097357745497 154.42946301079792,148.5506431965805 154.21113767267525,148.66542058830782 154.01245006337558,148.7477896106202 153.83571050394676,148.82070600709903 153.59312679491268,148.91522664268177 153.34014664121787,149.0232493703097 153.10449389529822,149.15017490875107 153.03633942466695,149.19068279400926 152.8515137416034,149.26764742234445 152.63318840347347,149.3554135382601 152.42872499157966,149.4269762329386 152.20462385085557,149.5093403478959 151.88810986860335,149.8927990769189 151.74024932214525,149.9481566053164 151.58892329413356,149.99001213838437 150.7941728569349,149.92115296287193 150.60819201335107,149.95220714676634 150.35752218068956,149.99406266657024 150.0721975324559,150.0372682207062 149.82037253926683,150.0656217862561 149.58240947232116,150.08857462659853 149.35022220796236,150.09937594896746 149.11687978309055,150.11017726221326 148.8604341478349,150.11152742572995 148.5439201655754,150.1209785663359 148.43302475573728,150.13042969995695 148.2066132939799,150.12502905303063 147.87854770652484,150.12907953844024 147.58860241621005,150.13718050541138 147.26746779188397,150.1412309869711 146.9497986491042,150.1223287287121 146.6379053089331,150.1196284038224 146.36644258692104,150.1209785663359 146.07534213609324,150.11557791541873 145.79810361148702,150.11557791541873 145.51277896323882,150.11422775233314 145.23438527812687,150.11827824116062 144.98140512442478,150.11422775233314 144.700701118265,150.11827824116062 144.44194516196876,150.11287758910294 144.15199987165397,150.11422775233314 143.961398385989,150.10612677081917 143.71881467695493,150.11422775233314 143.40230069470272,150.1169280783597 143.1135105649082,150.11557791541873 142.83858236134256,150.1209785663359 142.57982640504633,150.12367889094367 142.32915657238482,150.11827824116062 142.1708995812587,150.11287758910294 141.85438559899922,150.1169280783597 141.57830223491328,150.1196284038224 141.3033740313549,150.11827824116062 141.11508286672324,150.1263792149748 140.85286142887344,150.11557791541873 140.54443357024866,150.12907953844024 140.2706605272033,150.1317798613327 140.0442490654459,150.1263792149748 139.73466604630084,150.13042969995695 139.43663463235862,150.13313002256837 139.16401674982626,150.12907953844024 138.91334691716474,150.13042969995695 138.66152192398295,150.12907953844024 138.39699016509257,150.13718050541138 138.1798199874902,150.13718050541138 137.91066758651868,150.13583034460407 137.59761908582004,150.13448018365762 137.3665869819888,150.1452814672457 137.11360682828672,150.14258114720542 136.7890067223998,150.13988082659398 136.49675111104443,150.1196284038224 136.35813184874132,150.14933194624155 136.02198013765883,150.14798178671754 135.82444768887945,150.14933194624155 135.59919138763507,150.14798178671754 135.268815479154,150.15338242394955 134.9904217940275,150.14258114720542 134.71664875098213,150.1452814672457 134.4590479552062,150.15473258289967 134.17603362800583,150.15878305890146 133.9091915480749,150.16013321728315 133.6481252707381,150.16013321728315 133.45521346403984,150.16958432196043 133.19183686566248,150.16958432196043 132.91113285950996,150.16418369157054 132.6766352741106,150.16418369157054 132.44791349131265,150.16418369157054 132.153347558924,150.16958432196043 131.8749538737975,150.16958432196043 131.82528197147622,150.17363479325377 131.77561006914766,149.9684092997204 131.61735307802155,149.96165840515187 131.34011455341533,149.95355732696225 131.14027178360266,149.9279038788345 130.94620481637685,149.93870533695008 130.64701824190706,149.9252035128775 130.3628487541937,149.91845259549336 130.0925411927019,149.89955000784903 129.8129923470624,149.88334776762986 129.54499510661844,149.87389645134954 129.25736013733695,149.87929720436205 128.97434581013658,149.8887485166506 128.70288308813178,149.89819982195058 128.4487477739167,149.90765112026202 128.17497473086405,149.91035148992614 127.91852909560839,149.9171024115867 127.67825570762216,149.9252035128775 127.48072325884277,149.92655369592467 127.33863851497881,149.93465479122642 127.04407258259016,149.94275588139317 126.77029953953752,149.950856966424 126.68135217956296,150.02106615501543 126.67442121645581,150.33565259277748 126.66055929021968,150.6083779186165 126.64207672190969,150.8891979179998 126.6016461037434,151.09845881123238 126.5461983988207,151.2874657069724 126.42028590222617,151.55747071229416 126.28744244252448,151.83826987090742 126.16846090904437,152.0961136686101 126.05294485713239,152.37420115307668 125.9951868311764,152.65498238202872 126.0055832758444,152.94655636592233 126.06911710440181,153.30831484896225 126.12109932776366,153.59987394307973 126.16961606957193,153.86443107517334 126.05294485713239,154.03180112967038 125.77917181408702,154.0668945731286 125.50886425259523,154.10603714652189 125.24548765422514,154.14248012445842 125.06990325530933,154.18297220044133 124.94861140078865,154.1883711342216 124.6990967286547,154.22346414828826 124.47153010636976,154.26935486761704 124.22894639734295,154.28420182981245 124.12036130853812,154.28015266001057 124.15848160567111,154.28690127563368 124.39759983314434,154.2882509983301 124.65751094996085,154.236961435764 124.90933594314265,154.20321819037963 125.13228192334645,154.17352406084046 125.3159524458897,154.147879075329 125.57932904426707,154.10738688829588 125.84848144523858,154.06959406479382 126.01135907843855,154.04799811553312 125.9605320155897,153.88737709923953 125.89930850808014,153.64036773622956 125.85656756887329,153.4594944678911 125.81729211122001,153.29886606346372 125.75722376421618,153.07074326692236 125.68906929359218,152.77647234964206 125.63015610710863,152.51459253796838 125.57239808115264,152.2567571762711 125.5308123024588,152.09206380621072 125.45110622663924,151.8274700172651 125.33905565627356,151.61147102929772 125.19581575190387,151.36981783779538 125.1750228625533,151.09980887039637 125.21776380176016,150.89189808036645 125.28360795135814,150.66373234883122 125.34945210094884,150.42746176784203 125.42107205313368,150.1709344791998 125.48345072117809,149.96300858434915 125.5400535866138,149.76048011097737 125.37024499029212,149.65921467109183 125.12419579971174,149.59575458657127 124.87006048548938,149.53229418702085 124.59744260296429,149.4607320819341 124.3433072887492,149.3999714895599 124.0845513324457,149.33515987268675 123.85698471016804,149.27034792720679 123.65367645879451,149.22443926699998 123.37181729211443,149.147474378502 123.1061303726965,149.07455984612898 122.9189943685924,149.02730020483614 122.64175584399345,148.95303470119688 122.36451731938723,148.88416993951978 122.10691652361129,148.8180054072409 121.82390219641093,148.7464393030632 121.59518041361298,148.69512751001275 121.36183798874117,148.6249110383369 121.1365816874968,148.47367425064203 120.96792825169541,148.3089321418347 120.7703958029233,148.11583008135494 120.57401851465693,147.92272510299608 120.39381347366725,147.7512238294712 120.18241909865174,147.61078012747748 119.89709445041808,147.53920726249999 119.6418039756827,147.56756637016315 119.50087439233903,147.6215835439716 119.26753196746722,147.786334513783 119.03418954258814,147.98754388261932 118.82164000705961,148.1360856792262 118.58483210062695,148.23871354834318 118.33647258900601,148.29677895134319 118.10428532464721,148.31838461534517 117.92408028365753,148.3237860256395 117.72423751384486,148.3332384881587 117.46432639702834,148.35214339222512 117.21134624332626,148.37374896262918 116.96991769481247,148.38860277109507 116.70769625696266,148.4075075932642 116.44778514014615,148.4264123874691 116.23985624669149,148.43451443356844 115.9868760929894,148.46017087899963 115.71772369202517,148.4817762667808 115.48322610663308,148.50878295014718 115.23140111345128,148.52768759454648 114.97726579922892,148.54254122410202 114.72082016397326,148.5965542769618 114.4840122575406,148.71673250061667 114.2887901297945,148.88552023252942 114.14439506489725,149.07726039178306 114.06237866803713,149.25954590434594 114.01501708675642,149.46208231404216 114.00462064208114,149.76048011097737 114.02541353142442,150.0548204353663 114.04851674180827,150.34645370641465 114.07046479166456,150.63267989309497 114.09125768101512,150.89864848378693 114.11551605191926,151.18081215922484 114.13630894126254,151.47781982851666 114.15248118853197,151.79507040162662 114.1501708674914,152.05021515297904 114.14670538593782,152.34855256051924 114.12475733607425,152.66578153698538 114.10280928621069,152.96815417443486 114.08317155738041,153.23812370434462 114.06353382855741,153.52023577600812 114.04158577869384,153.79154343165192 114.019637728823,154.0857910028235 114.04274093921413,154.37193352750546" stroke="red" stroke-dasharray="none" stroke-linecap="round" stroke-linejoin="round" stroke-width="0.5"><title>2024-04-21 79.4km</title><desc>1713660889000</desc></polyline><polyline fill="none" opacity="1" points="19.302961732530093,194.31609388653123 19.674471642305434,194.36676501855254 20.287462993444933,194.17614446142943 20.45464245284529,194.88312157030487 20.570223313668976,195.55629785497877 20.644525295618223,196.22221615674607 20.636269519840425,196.48520028167331 21.290539749847085,196.35491494698 21.868444053943676,196.4924383340258 21.96338547533378,196.8326242067469 21.893211381269793,197.30067308194157 21.688880930887535,197.53710649574896 21.887019549438264,197.30308568016153 21.951001811677997,196.75300669078388 21.492806256283075,196.29942281942567 21.856060390287894,196.17878729428048 22.244081851611554,196.0388492866423 22.923119408937055,195.74690688905866 23.643435845107888,195.45737355183155 24.231659868928546,195.29571584127007 24.991191240027547,195.0954517170194 25.44938679542247,195.10751587060804 25.631013862432155,195.82894066710833 25.79612937787897,196.50691443184405 25.977756444903207,197.1293779570933 26.208918166536023,197.79525038701468 26.462783271548687,198.53589002947774 26.70426471290557,199.2668560954262 26.978769257351814,200.04845729743465 27.19548337139713,200.67564879897327 27.430772980915208,201.3679517331675 27.690829917766678,202.1325964478492 27.934375303062552,202.85379940178973 28.120130257950223,203.3892597815793 28.30588521284517,203.91506001802736 28.514343551105412,204.5445572347253 28.74344132880651,205.22227240595748 28.978730938331864,205.91926100064484 29.22227632362774,206.608993499598 29.418350998239475,207.1733046125737 29.67221610325214,207.92328628799805 29.88480232940492,208.55749596829264 30.05610967669054,208.95778655994036 30.69180441120261,208.70700291266076 31.20985434094473,208.74799658150187 31.579300306773803,209.4062966101592 31.91572316953534,209.8789105862179 32.117989675964054,210.60710280053536 32.281041247471876,211.21712677718642 32.56999339952745,211.87294468526125 32.86307343946828,212.63000521536924 33.20156024615426,213.42320418357303 33.35841998583783,213.8475181781614 33.6308605863378,214.50326069395487 33.84963864432211,215.05773418879653 34.04777726287284,215.67246083867758 34.22527644198999,216.284760382292 34.464693939400604,217.02962238977307 34.70823932469648,217.8178480215156 34.92082555084926,218.63979141048003 35.04672613138973,219.18452355631234 35.071493458708574,219.81601097435487 35.112772337575734,220.4113285850908 35.17056276798394,221.0379619828982 35.29852729245613,221.86942983038352 35.39759660173149,222.50807304312366 35.51317746256245,223.1780267857157 35.5957352202895,223.89374708677678 35.65971748252923,224.39738871012196 35.700996361389116,225.0769258899145 35.769106511506834,225.80222525463432 35.826896941922314,226.5202731078698 35.876431596559996,226.99735286546456 35.9342220269682,227.72981962937774 35.97756484978163,228.23819562853532 36.00439612104674,228.67669098788247 36.02503556048032,229.42837780399532 36.05186683173088,230.0403097686558 36.060122607508674,231.00153999448048 36.064250495393935,231.84710018633268 36.058058663562406,232.5529143058684 36.10552937425382,233.02986854462324 36.14061642128945,233.78382142722512 36.13855247735046,234.5184801085761 36.0890178227055,235.10619011346353 36.21904629113851,235.37595359860825 36.97444977435225,235.45061971703035 37.71953353785648,235.51324272573947 38.38412348757265,235.5662312919194 39.05903315699834,235.61440260950803 39.82062847205816,235.6697994996921 40.4129803837568,235.722787704266 41.14774442753696,235.78781851534768 41.818526209084666,235.84080644734786 42.532650813431246,235.9010198578908 43.17660132371384,235.94437341563025 43.78546478697535,235.99495246279002 44.338601763753104,236.04071436175946 44.97842438615044,236.09129319652675 45.527433475042926,236.12982937674315 46.09708200337627,236.1731825021343 46.17757581715705,236.77770921538286 46.163128209562274,237.63991497791721 46.14661665800668,238.41298254371213 46.144552714067686,238.99818459818925 46.134232994350896,239.69655435277855 46.113593554917315,240.79463761649458 46.09295411549101,241.69281140852763 46.04548340479232,242.57168740575617 45.79368224371865,243.26754070322386 45.471706988573715,243.80446499420577 45.31071936099761,244.13191041728714 45.48821854012931,243.86465751780815 45.87211211356043,243.71537976974105 46.42112120245292,244.1198720652792 46.932979300378065,244.54121063086495 47.53358698784723,244.8734607344686 47.938120000726485,245.21533625863594 48.5820705110018,245.42720022676258 49.29413117140939,245.66072983654885 49.99380816817575,246.00981606317873 50.68110150125722,246.2481546462659 51.32917989942507,246.61408381954243 51.78118362299574,246.8644530533329 52.50150005917385,247.08593125490006 53.122747186091146,247.27851925984396 53.53347203078738,247.47832760862912 53.973092090687715,247.6925780037909 54.63149020857236,248.00552442876506 55.31052776589786,248.10181477892002 55.97924560349202,248.12829455446808 56.50555130901921,248.19329023779392 57.2547629604087,248.3762400630094 57.86569036759465,248.62177569693813 58.484873550558405,248.88415891561272 59.184550547317485,249.1657962843583 59.89041937588627,249.45705865036507 60.52817805434461,249.688140215334 61.244366602637456,250.05401460787652 61.75209681267006,250.32119551730466 62.19378081652394,250.53541940829018 62.75517356907949,250.81944351095262 63.35990914444119,251.15160283959085 63.892406681792636,251.42839861346692 64.45379943434091,251.702784177789 65.05647106576362,252.0156759997535 65.65707875324006,252.31171587952485 66.29070954379858,252.62941297298676 66.80050369778473,252.89897070028746 67.43000660046528,253.2118462419312 68.10491626989824,253.55600442003924 68.67662874217058,253.86165107021588 69.15959162488434,254.11675461233426 69.71479254560109,254.40073447174473 70.26586557843984,254.69193051607908 70.69929380651593,254.9109267645781 71.27926205456606,255.20452285843567 71.80969564796396,255.4764568803239 72.21422866082867,255.77485865542985 72.71576703903702,256.1911707920917 73.1368116034646,256.61710084392143 73.58675138307444,257.0622735413599 74.19355090238241,257.69271959370053 74.73224027156539,258.23893178351136 75.2668017528631,258.77069418776045 75.73118914008228,259.23266783759937 76.13365820901527,259.6850080484055 76.4391219126046,259.966513158457 76.70949856916559,260.22154900262103 76.97987522572657,260.5559785146561 77.10164791838179,260.7243944143902 77.5020530433685,261.05881661864987 77.9251615517278,261.4485687386041 78.40606049048802,261.94176412075103 79.03143550529057,262.5937281377428 79.48756711673195,263.04600228934396 79.9602102797362,263.55119163256495 80.0737271966209,263.7364249471975 80.18518016955204,263.96736309610424 80.36061540472292,264.13094288323555 80.60622473395779,264.41479916713433 80.62067234155984,264.5110208419683 80.68878249169211,264.7299236540639 80.54017852777906,264.8959035198186 80.44317316244269,265.1075862501166 80.32140046980203,265.4154849291117 80.2698018712108,265.73781194736694 80.18105228165223,265.95670309619163 80.20788355292461,265.66564957410264 80.31727258190949,265.4154849291117 80.25535426361603,265.10036982544807 80.5670097990369,264.6072421146455 80.60828867791133,264.3546604161347 80.50096359285817,264.2223546109635 80.25535426361603,263.9890134287889 80.4411092185037,263.7243968551338 80.2863134227664,263.61133248253645 79.9251232326933,263.3274662912263 79.48137528490042,262.8583577093559 79.16765580553329,262.53839611545664 78.64547798789863,262.02115556052377 78.1748987688552,261.54480281385077 77.784813363578,261.1430228825793 77.27914709749166,260.6546222626148 76.85397464519338,260.211925059828 76.43499402471934,259.7740314042803 76.03871678762516,259.3770327008624 75.68578237332258,259.03055550721365 75.2317147058202,258.5541408460449 74.76526337465475,258.089747362661 74.32770725869341,257.65421956679165 73.89221508667106,257.2114646258851 73.53928067238303,256.8649548142748 73.18428231414873,256.4991887942615 72.7446622542484,256.0564116189653 72.30917008223332,255.64972289855177 71.95417172399902,255.41870125081914 71.34118037285953,255.07938399809427 70.64769520793925,254.7087764553944 69.99755286581785,254.39592128299955 69.40107306623395,254.08787510812363 68.83142453790788,253.803891384694 68.17921825185476,253.48861721035428 67.55177929311321,253.15889837265604 67.09564768166456,252.92303820080997 66.3732673015329,252.564429833772 65.75202017463016,252.24432502252967 65.16586009475577,251.9242157538465 64.54461296784575,251.60891580068346 63.95432500009338,251.29842536083925 63.39086830359156,251.01200022826924 62.83773132679926,250.74723432606152 62.18965292863868,250.41025513021668 61.607620736642275,250.13585413535657 61.02146065677516,249.82052964831018 60.43530057690805,249.51723636501083 59.97916896544484,249.2765245609262 59.40952043711877,248.9924813890102 58.858447404280014,248.70362032520097 58.34039747453062,248.4484566982901 57.77694077803608,248.16199604284157 57.58086610343162,248.2269916308378 57.21554802548053,248.34494611723312 56.617004281957634,248.21736266644257 56.10927407191775,248.1234800520997 55.434364402492065,248.087371252117 54.73881529362552,248.0127462190285 54.299195233725186,247.8177570852895 53.91530166027951,247.63480281307056 53.318821860681055,247.34833201294532 52.776004603620095,247.14852253359095 52.231123402612866,246.98482190601862 51.79975911848305,246.85241613337348 51.33743567520287,246.59963935741325 50.71206066040759,246.2481546462659 50.134156356310996,246.04352065939565 49.61817037049332,245.79795746881427 49.073289169493364,245.5379465232727 48.493320921450504,245.37182687827226 48.00210226295894,245.22255892607973 47.81015547624702,244.90475940956094 47.39943063154351,244.86383036432017 46.945362964041124,244.54121063086495 46.522254455674556,244.16802543543236 46.107401723085786,243.88391909203347 45.67397349501698,243.5685087802758 45.40978867028025,243.89836526210638 44.99493593769148,243.86224981989108 44.49546150343667,243.55887786290077 44.039329891995294,243.21697767926162 43.58732616841735,242.8871114095491 43.11468300542765,242.52353068803495 42.637911954545416,242.1984702016034 42.19622795069154,241.81320736939233 41.750416058952396,241.54833542210508 41.30873205511307,241.31717195272358 40.84847255577188,241.10767804807438 40.41917221558106,240.96319837930423 39.958912716239865,240.79945365545973 39.50690899268375,240.6621961488636 39.069352876722405,240.5442021977251 38.63179676075379,240.42861569834167 38.243775299430126,240.3756383582895 37.591569013369735,240.3611899716052 37.023984428989934,240.3298851025811 36.441952237000805,240.3058044050449 35.90739075571037,240.22633792395754 35.90739075571037,239.80492016891367 35.913582587541896,239.40998450697407 35.91771047542716,239.01985846180105 35.932158083036484,238.42502388860703 35.94866963457753,237.9240986054574 35.96105329823331,237.42797913421782 36.00439612104674,236.89572253232836 36.04567499989935,236.41403170702506 36.09314571059804,235.87693451263294 36.12823275762639,235.45784545752758 36.179831356224895,234.9472208599782 36.21079051536071,234.45585438427406 36.21079051536071,233.95484243456485 36.17570346832508,233.47790743080986 36.157127972830494,232.90942649117278 36.15506402889878,232.5625498432055 36.15506402889878,232.07354121255776 36.15300008495251,231.47129950598355 36.14887219706725,230.8425422875698 36.14680825312098,230.32217844689512 36.13029670157994,229.80421196948373 36.11378515003889,229.358510517146 36.0890178227055,228.67669098788247 36.07250627117173,228.29361034029898 36.018843728641514,227.63103435907215 35.96518118611857,227.0648178882584 35.92596625119768,226.58533002325748 35.87230370868201,225.97089623527972 35.83102482981485,225.36367489442455 35.78149017516989,224.86728359055815 35.72369974476169,224.25039397375622 35.663845370407216,223.6431270338453 35.59986310816748,223.1418787025632 35.529689014103496,222.69604765351323 35.459514920032234,222.26466772999993 35.374893218351644,221.7850793955531 35.292335460631875,221.23558895958558 35.22009742262162,220.63547250091506 35.18088248770073,220.14861948258476 35.147859384611365,219.6256024799386 35.085941066310625,219.04231597181933 34.96829626154795,218.4517835021561 34.84239568101475,217.96970488757688 34.691727773155435,217.43458573735552 34.52867620164034,216.94043307080028 34.36356068617897,216.43421683894485 34.22734038592898,215.99307642218628 34.08699219778646,215.48683923748104 33.89091752317472,214.91791170464967 33.719610175903654,214.4164723222566 33.48225662243203,213.91984364233576 33.35429209794529,213.5268725336191 33.12106643235893,213.01093702719118 32.90641626227443,212.4877568997381 32.70002186795318,211.96697585891343 32.495691417570924,211.43412743103727 32.26659363988438,211.16167072428652 31.750607654066698,211.3786719041982 31.242877444034093,211.5643268352669 30.768170337105403,211.60049320492726 30.644333700511197,210.98083483515256 30.528752839687513,210.42385131371702 30.411108034924837,209.9199021544773 30.26044012706552,209.3677154462348 30.11183616315975,208.91438189471046 29.938464871920587,208.4224565977329 29.783669076190563,207.9883960768002 29.593786233410356,207.4144589599855 29.41422311034694,206.8983855538536 29.218148435749754,206.32683271974565 29.032393480854807,205.774559234178 28.865214021447173,205.26568408089406 28.66294751501846,204.6989140586502 28.473064672245528,204.1490131153023 28.3120770446767,203.6666329734744 28.144897585269064,203.19871450778737 27.955014742496132,202.66083763104325 27.79196317097376,202.16877774036948 27.612400047924893,201.64293732154692 27.408069597542635,201.0519554352304 27.236762250242464,200.54779962088833 27.073710678734642,200.070168060196 26.894147555685777,199.54669169791487 26.75999119937478,199.1245246030303 26.56598046871659,198.58655179840935 26.367841850158584,198.0003158845775 26.182086895270913,197.4478411067339 25.969500669118133,196.8181483153985 25.833280368868145,196.28494659005628 25.70737978832767,195.75897069843268 25.556711880475632,195.21368014735162 25.50717722583795,194.79867153123996 24.997383071859076,194.9530942231704 24.38851960861939,195.1195800178266 23.827126856056566,195.28606459846196 23.36273946883739,195.45496075859774 22.75593994952942,195.68417497756673 22.266785234984127,195.88443393807574 21.986088858706353,195.97129270013647 22.014984073910455,195.9688799612086 21.649665995959367,196.11364384569242 20.997459709906252,196.2463432668792 20.677548398714862,195.97129270013647 20.630077688016172,195.53699558557855 20.55990359394491,195.10751587060804 20.44638667707477,194.45362955463133 20.287462993444933,194.0 19.76115728791774,194.27748723427248" stroke="red" stroke-dasharray="none" stroke-linecap="round" stroke-linejoin="round" stroke-width="0.5"><title>2024-04-05 108.1km</title><desc>1712276378000</desc></polyline></svg>