<?xml version="1.0" encoding="utf-8" ?>
<svg baseProfile="full" height="300mm" version="1.1" viewBox="0,0,200,300" width="200mm" xmlns="http://www.w3.org/2000/svg" xmlns:ev="http://www.w3.org/2001/xml-events" xmlns:xlink="http://www.w3.org/1999/xlink"><defs /><rect fill="#222222" height="300" width="200" x="0" y="0" /><text fill="#FFFFFF" style="font-size:12px; font-family:Arial; font-weight:bold;" x="10" y="20">Over 10km Runs</text><text fill="#FFFFFF" style="font-size:4px; font-family:Arial" x="10" y="280">Runner</text><text fill="#FFFFFF" style="font-size:9px; font-family:Arial" x="10" y="290">yihong0618</text><text fill="#FFFFFF" style="font-size:4px; font-family:Arial" x="65" y="280">SPECIAL TRACKS</text><rect fill="yellow" height="2.6" width="2.6" x="65" y="283" /><text fill="#FFFFFF" style="font-size:3px; font-family:Arial" x="70" y="285.5">Over 20.0 km</text><rect fill="red" height="2.6" width="2.6" x="65" y="287" /><text fill="#FFFFFF" style="font-size:3px; font-family:Arial" x="70" y="289.5">Over 40.0 km</text><text fill="#FFFFFF" style="font-size:4px; font-family:Arial" x="120" y="280">STATISTICS</text><text fill="#FFFFFF" style="font-size:3px; font-family:Arial" x="120" y="285">Number: 5</text><text fill="#FFFFFF" style="font-size:3px; font-family:Arial" x="120" y="290">Weekly: 1.2</text><text fill="#FFFFFF" style="font-size:3px; font-family:Arial" x="141" y="285">Total: 317.5 km</text><text fill="#FFFFFF" style="font-size:3px; font-family:Arial" x="141" y="290">Avg: 63.5 km</text><text fill="#FFFFFF" style="font-size:3px; font-family:Arial" x="167" y="285">Min: 18.7 km</text><text fill="#FFFFFF" style="font-size:3px; font-family:Arial" x="167" y="290">Max: 108.1 km</text><polyline fill="none" opacity="1" points="74.52093737991527,37.82410532938957 74.61774875142146,38.32532739483577 74.71456012292765,38.85888456304383 74.8252016903134,39.4247764958709 74.93584325769916,40.00683458572894 75.04648482520133,40.621226833580295 75.12946600071155,41.15477599436417 75.22627737221774,41.688323294350994 75.32308874378214,42.238036748138256 75.40606991923414,42.771580270229606 75.50288129079854,43.38596141495509 75.6135228581843,44.04884356712864 75.72416442562826,44.74405834842764 75.86246638494777,45.45543764512695 75.94544756051619,46.21531642210903 75.97310795233352,46.76501361031842 75.94544756051619,47.05602896923665 76.13907030347036,47.767397516348865 76.20822128310101,48.688938216655515 76.2635420668521,49.56197165491176 76.31886285054497,50.12782400054857 76.2635420668521,50.30566287699912 76.20822128310101,50.4996686882223 76.19439108716324,51.14635294927575 76.45716480980627,51.922370454863994 76.66461774869822,52.698384024814004 76.83058009983506,53.506727308558766 77.05186323472299,54.41206671688997 77.25931617361493,55.20423430518713 77.16250480210874,55.786232369122445 77.6465616596397,56.15806330664782 77.89550518628675,56.83705660041596 78.13061851705424,57.45138127016253 78.39339223969728,58.01720444211969 78.22742988856044,58.51836036151508 77.66039185546106,58.68002321125823 77.06569343060255,58.85785214869247 76.34652324242052,59.148844509691116 75.68267383793136,59.375171519015566 75.01882443332579,59.56916583205748 74.79754129849607,59.81165837746812 74.63157894735923,59.989485999933095 74.8252016903134,60.66846229408111 75.11563580483198,61.395933552106726 75.35074913559947,62.188064989226405 75.58586246636696,62.915529023943236 75.91778716864064,63.67532110174943 76.65078755281866,63.98247001999698 76.92739147134125,64.66142859938554 77.30080676142825,65.40504644460452 77.60507107182639,66.13249518857629 77.95082597003784,66.81144423011574 78.26892047637375,67.50655560483574 78.58701498270966,68.20166382266325 78.90510948904557,68.91293408011552 79.22320399532327,69.59187078796094 79.54129850171739,70.2869695355912 79.87322320399107,70.94973516915343 80.21897810214432,71.64482775046781 80.5094122166629,72.32375234083156 80.84133691893658,73.03500344375789 81.14560122933472,73.74625124190061 81.46369573567063,74.4251665117481 81.76796004606877,75.05558513764117 82.21052631578641,75.44353377082734 82.47330003837124,76.07394820274203 82.59777180175297,76.36490783415502 82.41797925473657,76.8175106060371 81.85094122163719,77.0761401605414 81.22858240490314,77.3347692781681 80.48175182478735,77.6903836014244 79.76258163654711,78.09448978416913 78.9327698808629,78.43393815333548 78.11678832117468,78.83804237324512 77.39761813287623,79.2744737326866 77.0933538225363,79.419950576048 76.34652324242052,79.77556005549559 75.6135228581843,80.11500469715975 75.00499423744623,80.42212062914041 74.28582404914778,80.76156383717898 73.45601229346357,81.14949801050534 72.7506723011611,81.4889396057988 72.0591625047382,81.81221661588643 71.60276603914099,81.99001868047344 71.16019976948155,82.20014812692534 70.57933154050261,82.49109611517633 70.02612370339921,82.83053473586915 69.41759508254472,83.21846366659156 68.72608528618002,83.70337344774453 67.97925470612245,84.25293600973964 67.27391471381998,84.75400603812886 66.59623511333484,85.15809357627586 66.00153668841813,85.57834348453616 65.3653476756881,85.9501020572643 64.97810218977975,86.12789931643056 64.99193238565931,86.11173593773856 64.59085670381319,86.35418643856246 63.940837495203596,86.64512653269048 63.23549750284292,86.93606607404945 62.55781790241599,87.16235200176015 61.85247791005531,87.40480083884904 61.06415674218442,87.7119021481194 60.44179792545037,87.90586055236054 59.70879754127236,88.16447137587238 58.865155589650385,88.4715711614117 58.04917402990395,88.7463441316504 57.205532078340184,89.03727968031308 56.47253169422038,89.31205163532286 55.67038033035351,89.57066008374386 54.82673837878974,89.87775704894739 54.1075681905495,90.10403862917155 53.47137917787768,90.28183106472716 52.93200153671205,90.47578621357388 52.60007683438016,90.55660078646906 51.97771801770432,90.79904424901179 51.34152900497429,91.07381304255978 50.594698424916714,91.36474416889541 49.79254706110805,91.62334915045358 49.018056089116726,91.88195369527966 48.17441413749475,92.1890460249997 47.37226277368609,92.49613773880992 46.61160199769074,92.80322883679764 45.837111025699414,93.07799403394165 45.048789857828524,93.33659612212796 44.260468689957634,93.62752294924576 43.40299654239789,93.86996154967346 42.72531694202917,94.12856230030593 42.50403380714124,94.1447248327604 41.85401459853165,94.4033251193905 41.065693430718966,94.67808744545619 40.29120245866943,95.00133660963911 39.51671148673631,95.29226027404366 38.89435267000226,95.48620907652366 38.14752208994469,95.69632000205456 37.23472915869206,96.0195670168614 36.44640799082117,96.37513794499682 35.83787936990848,96.8115193193662 35.353822512493934,97.24789945020166 34.96657702646917,97.65195401820529 34.745293891697656,97.94287264700688 34.17825585859828,98.37924955398194 33.44525547447847,98.78330113689299 32.65693430660758,98.99340753868455 31.951594314246904,99.12270364274445 31.315405301575083,99.20351365224633 30.859008835977875,99.23583764418436 30.084517863986548,99.44594342511846 29.116404149099253,99.60756306044641 28.245101805659942,99.78534446237609 27.34613907028688,99.9469637395232 26.488666922727134,100.07625903842563 25.645024971221574,100.22171611928206 24.773722627782263,100.35101118622697 23.8747598924092,100.4964680060948 23.100268920476083,100.64192468780675 22.36726853629807,100.77121940001962 21.49596619285876,100.90051400304947 20.63849404535722,101.04597030098375 19.822512485610787,101.17526467209973 18.96504033805104,101.27223537878308 18.17671917018015,101.46617660793709 17.31924702267861,101.59547062423371 16.53092585480772,101.74092626213678 15.714944295061287,101.87022004653409 14.88513253943529,101.96719031315297 14.304264310398139,102.08032221329631 14.0,102.16113066229445 14.373415290086996,102.12880728782329 14.650019208609592,102.64598046056926 14.968113714945503,103.24395976455708 15.1064156742068,103.47022159502376 15.424510180542711,104.00355173001299 15.631963119492866,104.45607281241973 15.618132923555095,104.7308171029872 15.81175566650927,105.15101329996833 15.894736842077691,105.32878826698288 15.714944295061287,104.8924311613082 15.604302727617323,104.55304144184629 15.43834037653869,104.19748950049689 15.300038417219184,103.92274425318465 15.17556665383745,103.68032156690606 14.981943910825066,103.3086060359492 14.70533999230247,102.80759671893611 14.608528620854486,102.48436403171218 15.147906262020115,102.38739409251139 15.880906646198127,102.25810074475885 16.558586246625055,102.14496897593199 17.31924702267861,102.01567542349221 18.079907798732165,101.88638176191307 18.868228966544848,101.74092626213678 19.642719938536175,101.62779411127849 20.417210910469294,101.54698538093362 21.164041490585078,101.38536779228889 21.938532462576404,101.23991181666497 22.643872454878874,101.12677929570782 23.32155205536401,101.01364669116447 24.096043027297128,100.86819036255474 24.925854782923125,100.75505756693019 25.728006146731786,100.60960099268414 26.502497118723113,100.48030614401796 27.26315789477667,100.36717306190985 27.982328082958702,100.25403989621555 28.715328467194922,100.10858284613641 29.420668459497392,100.02777331414109 30.126008451799862,99.91463989773183 30.63772570108995,99.84999219367455 30.95582020742586,99.8661541222391 31.42604686896084,99.73685864591971 31.993084902060218,99.639886967052 32.573953130980954,99.54291522680433 33.32078371109674,99.38129552319879 34.03995389933698,99.05805560432782 34.67614291206701,98.70249090560537 35.118709181726445,98.31460120175325 35.50595466775121,97.86206197222054 35.907030349597335,97.39335921748716 36.36342681519454,96.97314173507039 36.97195543604903,96.64989673312812 37.74644640798215,96.35897564800689 38.47944679216016,96.13270331083913 39.22627737221774,95.80945653484378 40.02842873608461,95.53469623871206 40.872070687648375,95.25993544969242 41.70188244333258,94.9690117239661 42.55935459083412,94.66192496934673 43.333845562825445,94.38716261426453 44.108336534700356,94.12856230030593 44.896657702629454,93.86996154967346 45.643488282803446,93.59519777350943 46.34882827504771,93.32043350439926 47.026507875474636,93.07799403394165 47.745678063773084,92.86787951574661 48.464848252013326,92.60927663605253 49.19784863613313,92.35067331956816 49.958509412186686,92.09206956636626 50.663849404489156,91.84962815110339 50.968113714887295,91.78497704213078 51.50749135616934,91.62334915045358 51.89473684207769,91.46172108812607 52.12985017284518,91.39706981547351 52.655397618189454,91.20311583364673 53.26392623898573,91.02532446775876 53.983096427167766,90.73439269651135 54.71609681134578,90.44346037255309 55.490587783337105,90.16869044778286 56.22358816745691,89.8939200300374 56.956588551576715,89.6191491192003 57.71724932768848,89.34437771527155 58.381098732177634,89.11809501238167 58.934306569281034,88.94030122550612 59.29389166343026,88.7948334281391 59.750288129085675,88.64936549257254 60.427967729454394,88.42308176253573 61.077986938122194,88.1806345378136 61.67268536303891,87.97051329920941 62.22589320014231,87.76039177224447 62.806761429063044,87.56643318373244 63.470610833668616,87.34014785318868 64.16212063003331,87.06537235938595 64.78447944676736,86.77443306376517 65.1855551287299,86.59663655543409 65.78025355358841,86.28953300921421 66.40261237032246,85.83695823940798 67.01114099111874,85.43287249296554 67.60583941597724,85.0449491731124 68.17287744907662,84.60853426333051 68.60161352279829,84.25293600973964 69.14099116402213,83.88117331601097 69.63887821743265,83.54173702467233 70.15059546678094,83.21846366659156 70.74529389169766,82.86286218427995 71.43680368800415,82.49109611517633 72.18363426811993,82.18398433362017 72.9857856319286,81.79605278161762 73.80176719173323,81.44044799542462 74.59008835954592,81.05251455934194 75.24010756821372,80.74539989198092 75.8901267767651,80.43828460852092 76.62312716094311,80.08267666843312 77.35612754512113,79.75939600614947 78.1029581251787,79.43611466120637 78.84978870529449,79.12899675112567 79.52746830577962,78.82187822496053 80.19131771026878,78.49859490018571 80.91048789856723,78.15914667437028 81.57433730305638,77.8520262025122 82.22435651166597,77.52874082961353 82.98501728766132,77.14079748095537 83.81482904334553,76.78518188100134 84.49250864383066,76.47805865258852 84.7967729542288,76.34874342469266 85.37764118320774,76.02545487706084 85.97233960812446,75.68600116725429 85.58509412209969,75.34654670467717 84.9350749135483,75.66983668610919 84.34037648863159,75.91230372407881 83.71801767189754,76.23559251066763 83.06799846328795,76.57504500182404 82.5839416058152,76.33257901352772 82.3073376872344,75.63750771869672 81.86477141757496,74.87777501886012 81.50518632348394,74.08570925320964 81.17326162121026,73.32596885152452 80.77218593924772,72.55005986843025 80.4126008451567,71.8388065121253 80.08067614288302,71.24070454078901 79.77641183248488,70.52944510028465 79.4444871302112,69.78585215135536 79.09873223205796,69.00992522278102 78.76680752972607,68.25015962705947 78.40722243557684,67.55505162943155 78.1029581251787,66.90843670447066 77.77103342296323,66.2456535713136 77.5497502880753,65.63136420217052 77.38378793693846,65.25955628095835 77.24548597773537,65.06556918086426 76.9965424509719,64.61293165790266 76.7199385323911,64.03096716129221 76.20822128310101,63.67532110174943 75.72416442562826,63.1095188492327 75.46139070298523,62.28506039365311 75.24010756821372,61.5575933620421 74.96350364963291,60.83012287248857 74.7422205148032,60.264310100945295 74.99116404145025,59.69849523741868 75.79331540531712,59.45600251268479 76.56780637725024,59.2620080561901 77.34229734918335,58.9871821552515 78.1029581251787,58.712355760711944 78.72531694197096,58.51836036151508 78.57318478671368,57.66154440683022 78.42105263157282,57.20888498463319 78.17210910480935,56.51372683625959 77.86784479441121,55.6892328455433 77.56358048407128,54.89706776790263 77.31463695730781,54.040231536651845 77.14867460622918,53.23189107123471 76.9965424509719,52.47204714009422 76.96888205915457,51.647531371723744 76.95505186315859,51.13018587608531 76.95505186315859,50.920013768816716 76.73376872838708,50.28949571488192 76.51248559349915,49.62664060029783 76.45716480980627,48.64043621288147 76.4018440261134,47.73506265414471 76.37418363423785,47.18536895108991 76.33269304648275,46.61950572326896 76.2635420668521,45.972802328833495 76.19439108716324,45.293760822707554 76.09757971571526,44.63088406443421 75.95927775639575,43.984172264128574 75.84863618901,43.35362562672526 75.7518248175038,42.658404527101084 75.6135228581843,41.88234003302932 75.41990011523012,40.78290859397384 75.29542835184839,39.89365679725597 75.14329619664932,38.97206311712216 75.01882443332579,38.11513769636804 74.81137149437563,37.27437601452402 74.5071071840357,36.239586062554736 74.18901267758338,35.36647659573646 73.9538993468741,34.832907246018294 73.94006915099453,34.75206324280589 73.69112562423106,34.67121919686906 73.31771033420227,35.15628283166734 72.62620053783758,35.447320274222875 71.9208605455351,35.7868632573809 71.17402996541932,36.110236826352775 70.48252016899642,36.41744108371495 69.63887821743265,36.74081331967318 68.85055704956176,37.11269054595323 68.15904725313885,37.387555740817334 67.66116019972833,37.177364753893926" stroke="#4dd2ff" stroke-dasharray="none" stroke-linecap="round" stroke-linejoin="round" stroke-width="0.5"><title>2024-05-25 18.7km</title><desc>1716643451000</desc></polyline><polyline fill="none" opacity="1" points="180.34141044348507,104.89980168663351 180.41386630712077,104.8756739433029 180.39523479933268,104.86602283890716 180.46562049544445,104.88773781812597 180.51323434869119,104.85637173048599 180.44905915517302,104.84672061802485 180.48218183570862,104.86602283890716 180.52565535389294,104.68747668006654 180.67056708118616,104.82259281922234 180.52772552142414,105.08317171215458 180.4987431759655,105.16761794474041 180.47390116556926,105.27136575061559 180.49667300842702,105.3895894263369 180.61467255780008,105.44266924712974 180.60432172012952,105.50781249682768 180.5546376993443,105.57536826538671 180.5153045162224,105.66222539173577 180.40558563699597,105.73701876654195 180.40972597205837,105.92038214446438 180.41593647465197,105.95898477536502 180.3869541292006,105.76114560997485 180.48218183570862,105.59708257759667 180.3869541292006,105.59466987725136 180.3973049668566,105.45473282575949 180.47183099803806,105.29549308052447 180.48218183570862,105.15314146965648 180.35590161620348,105.31720765590035 180.10541134474624,105.23034923191153 179.8093773875662,105.12660124176364 179.57544845636585,105.04698037507842 179.7079391784573,104.70195344708009 179.89425425641093,104.43895743115172 180.13025335514976,104.13011424881915 180.31242809801915,103.95397527160821 180.4511293227115,103.80437672889275 180.3248491032209,103.74888024882421 180.03916598369688,103.47863461345878 179.7659038693746,103.17219153912993 179.58579929402913,102.96950254644253 179.38292287581862,102.84402751634661 179.18418679268507,102.6413356425146 178.86745116017119,102.30351189802786 178.6066100510434,101.98981399433796 178.30436559126974,101.65439382754812 178.03524381200987,101.37929739096217 177.76612203275727,101.1114371839376 177.57152628467884,100.95458066462925 177.32103601321433,100.71326086111367 177.1119490924175,100.49365764716458 176.96910753265547,100.34162342886157 176.8469676482273,100.22337389999666 176.58198620404437,99.93860724210208 176.478477827397,99.80346251396622 176.28388207931857,99.65142374884272 176.02718130526046,99.39319688415526 175.81188388185547,99.16875436487862 175.54897260521102,98.88880149632678 175.29641216620803,98.62332581108785 175.0314307220251,98.3602605283595 174.78301061809907,98.10201921436601 174.54080101676664,97.8510155411368 174.29238091283332,97.61931741911576 174.0356801387752,97.36589493387692 173.85557556343701,97.18729074823204 173.66719031795947,97.0062715816639 173.34838451791438,96.67560623708596 172.9736841944905,96.28700805892367 172.66936956717836,95.96357352775885 172.47684398662386,95.76082121069703 172.27189740088943,95.6811680271112 171.89305674240313,95.47599946937225 171.55561943456996,95.29255309592554 171.14365609554807,95.0801396828665 170.79379778252041,94.884621062316 170.45014997209364,94.71565301809096 170.07337948113855,94.53220059705745 169.680047649912,94.33184957547019 169.34675067714852,94.16287748143623 169.00103269918327,93.98907632169357 168.62633237575938,93.81768778428159 168.28061439777957,93.63905612207236 167.92454558215832,93.44593925502704 167.5746872691234,93.27213269193635 167.3469688405239,93.15384692069892 167.08819789894187,93.03073251437672 166.75490092616383,92.85692282170021 166.37606026767025,92.66862750952532 165.99100910659035,92.46584622294176 165.63494029096182,92.27271953007585 165.2726609727324,92.07717710544603 164.8917501467149,91.89611782616521 164.54396200121118,91.71747127705385 164.18996335312113,91.53640917294433 163.83182436995412,91.3384463118673 163.43228203613398,91.14531017506488 163.09898506336322,90.98114318660737 162.81744227891613,90.83146050178584 162.44274195549224,90.63832011752856 162.0908134749261,90.45966382138795 161.9459017476329,90.3799923239967 161.80720052294055,90.32929213683929 161.43043003197818,90.13373322749794 161.02260702803324,89.92851530407097 160.63548569941486,89.72812427457757 160.2607853759837,89.5253171215627 159.8736640473653,89.33699459592935 159.48033221615333,89.12694073284001 159.10149155765976,88.9362005090934 158.75163324462483,88.76477440417875 158.38521359134756,88.57403118312504 158.02914477571176,88.3953588858858 157.79935617958108,88.3398253221294 157.66272512241994,88.51849804990707 157.59233942630817,88.69716939250611 157.52609406525153,88.8372081251855 157.4350066938132,88.9844893225636 157.37911217043438,89.10762533897287 157.33770881977398,89.21385980491686 157.33149831718038,89.23076069753733 157.36876133276382,89.11486861357298 157.3894630080904,89.10038206210265 157.40809451588575,89.08830992891853 157.5385150704533,88.78891900313829 157.60269026396418,88.634393132681 157.41430501848663,88.54505739118395 157.1617445794982,88.49435316764357 156.79325475867518,88.4122603787273 156.55932582747482,88.33258180395205 156.3274670637984,88.30360770846346 155.87824070919305,88.26739003787225 155.4186635169317,88.25290295369814 154.97150732986483,88.21427068471712 154.58852633631614,88.06457003072319 154.31319405445538,87.93418479782486 154.02544076740014,87.79414057782742 153.64245977385144,87.61304765224122 153.22221576471202,87.41988029633285 152.79162091789476,87.28466218373615 152.36516640615446,87.15910179727143 151.99667658533144,87.050443218297 151.76688798920077,86.94661343076586 151.4956960424097,86.78966053819386 151.123065886517,86.57716876474842 150.7421550604995,86.38640743521682 150.35710389941232,86.25118325768744 149.965842235717,86.09181088673722 149.66359777595062,85.94209644313378 149.3075289603148,85.76823328771388 148.93282863688364,85.64024984881144 148.55812831346702,85.52192490486414 148.21034016797057,85.41325860468532 148.01574441989942,85.31425108494113 147.916376378329,85.0920863213014 147.81079783414316,84.9182167509025 147.80665749908076,84.53666503842578 147.8998150380503,84.15269206159792 148.03437592769478,83.7662976991578 148.07577927834063,83.37748182904033 148.11304229392408,83.08767691118192 147.79216632635507,82.89930175908194 147.44644834838982,82.701264681451 147.39883449513582,82.418696634546 147.26634377304435,82.21099483369107 146.89785395221406,82.0105366680873 146.5624868119121,81.82456789391836 146.26438268720085,81.64342803367617 146.2747335248714,81.32220317762585 146.2830141949962,80.87296390839765 146.2830141949962,80.53240571846618 146.28715453005861,80.26430317422455 146.2912948651283,80.01552054329659 146.28922469758982,79.83195105316736 146.2850843625274,79.57591747779225 146.2954352001907,79.07591917257741 146.31199654044758,78.57349447772685 146.32441754564206,78.14835732436404 146.32648771318054,77.69905611664217 146.33062804824294,77.26424014527038 146.33476838331262,76.84632594203686 146.35132972357678,76.4356514131996 146.3016457027843,76.35351562800861 146.175365483301,76.24963759749517 145.7489109715534,76.21581674219487 145.35557914033416,76.18682739808355 144.97052797924698,76.15783801745783 144.5171612895865,76.12401702723946 144.13418029602326,76.09502756749134 143.70565561674448,76.0587906914443 143.3143939530637,76.02496955565766 142.97074614262237,76.00081157109344 142.70369453090825,75.98390096680669 142.3124328672202,75.95732713495818 141.91910103600094,75.92350585004169 141.55061121517065,75.87518964250557 141.18626172941003,75.85827894590511 140.79292989819805,75.83412078633955 140.4472119202328,75.77855692310186 140.43272074750712,75.36786333835335 140.4534224228264,75.01756007642325 140.4575627578888,74.63342830007241 140.4658434280209,74.28794581590046 140.47619426568417,73.87722562344061 140.48240476827777,73.50998724228157 140.48861527088593,73.20556150862467 140.48654510334745,73.13549469803365 140.48861527088593,72.88663499046925 140.49482577347953,72.77307675363772 140.48447493581625,72.48555445589773 140.48240476827777,72.31400582692186 140.52587828647665,72.15695314336881 140.50517661114282,71.87667184355087 140.4989661085492,71.55289436627572 140.50724677867402,71.12037853550464 140.5031064436189,70.7096017797976 140.49482577347953,70.3664767479604 140.53622912413266,70.0450944339882 140.48861527088593,69.67537839688339 140.5010362760804,69.31532242506 140.48861527088593,69.03983955224612 140.47412409816025,68.76676993848923 140.46791359555937,68.63385877606743 140.47412409816025,68.99392541922134 140.43686108256225,69.13650058525309 140.27331784748094,69.33465443255227 139.92138936690753,69.3684854065541 139.54875921102212,69.3467369289774 139.47837351491034,69.13891710587268 139.20511140059534,69.05917179136668 138.94427029146755,69.05433873310358 139.05605933823244,69.05917179136668 139.42868949412514,69.10991884169016 139.79303897988575,69.18241443358056 140.15117796304548,69.23799423257333 140.43686108256225,69.27182534878739 140.43272074750712,69.6463808092376 140.42858041243744,69.93635504013037 140.13254645525012,69.98226729136331 139.88826668639376,69.96776869561836 139.51149619543867,69.96051939431527 139.08711185122957,69.94118791300025 138.71034136027447,69.92668929135289 138.31079902645433,69.90977422119613 137.88641468223796,69.8976920206187 137.49308285102597,69.8880262555831 137.07904934447288,69.87836048648387 136.64845449767017,69.86869471332102 136.23649115865555,69.84211381617934 136.1723159651374,69.55455487379913 136.16196512748866,69.12683450024088 136.15368445734202,68.79093552183986 136.14954412227962,68.64835821294582 136.12263194435218,68.3390349097026 136.09986010149441,68.03454071834312 136.07087775603577,67.66237567423377 136.03982524304593,67.307121602591 136.01498323265696,67.06303228981778 135.99842189238552,66.79235596181388 135.9590887092636,66.41533719330619 135.9259660287571,66.05764700406871 135.9031941858775,65.70478501182879 135.87214167289494,65.37125294291764 135.84315932744357,65.17064799066975 135.80589631185285,64.79118564158853 135.7789841339254,64.36821067049277 135.75414212353644,64.00807155872099 135.70859843781363,63.60200189763964 135.65270391442027,63.22009650145628 135.59680939103418,62.867190935365215 135.56368671052041,62.59163076572986 135.4850203442693,62.17828431417911 135.42912582089775,61.837449189575636 135.3711611299732,61.49177435926504 135.33182794685126,61.2210323981908 135.28628426113573,60.87534829188735 135.26351241827797,60.57800745122586 135.2428107429514,60.25407077237469 135.21589856502396,59.893867160528316 135.19105655462772,59.569920832507705 135.16414437670028,59.21937674806577 135.09375868058123,58.85915690782895 135.01095197928953,58.489260856313194 134.93021544549993,58.16771238890942 134.84326840913127,57.850994835163874 134.74597053509206,57.517348717672576 134.63625165585108,57.181279973601704 134.53688361428794,56.88630910877873 134.43958574024145,56.596170134878776 134.36298954153608,56.32053471341351 134.2574109973575,55.955433577844815 134.17874463112094,55.597580472509435 134.07109591941844,55.341276846918845 133.94688586745906,55.007594253796924 133.80404430769704,54.64489028117168 133.73572877912375,54.47320840229804 133.59081705183053,54.151603680376866 133.48937884272164,53.842085106032755 133.4024318063457,53.600270815388285 133.2223272310075,53.21578084698558 133.0877663413703,52.87723088758321 132.94906511667796,52.52174805475079 132.81243405951682,52.18802446546033 132.7047853478216,51.9147544338266 132.59506646858063,51.63422606029599 132.48741775687813,51.34402068530471 132.41082155816548,51.160222049275035 132.16033128670824,51.30048956246901 131.80219230354123,51.428664298840886 131.4419831528503,51.56167506066595 131.12731768788217,51.677756549963306 130.82093289303884,51.68501162354187 130.73398585664836,51.288397569249355 130.65531949041906,50.906287300815166 130.57458295662946,50.55561088466493 130.49384642286168,50.16381434196046 130.41310988908663,49.77201110782153 130.29925067478325,49.421317352456754 130.18332129295595,49.07787413364167 130.13156710463227,48.89163868869582 129.98872554487752,48.509488495401456 129.85830499031,48.14426305653615 129.72788443574973,47.74758777932584 129.59953404872795,47.36541852310984 129.51258701234474,47.123535956034175 129.3780261227148,46.71958638096112 129.24760556815454,46.34707567583973 129.12132534865668,45.9576261954262 129.0012556317597,45.6020361102037 128.8853262499324,45.28272602812467 128.76939686809783,44.96099243253775 128.6369061459991,44.564262083385984 128.52511709924147,44.23768011971515 128.42367889013258,43.94496196144428 128.307749508298,43.596598290418115 128.18974995893223,43.255487065936904 128.11315376021957,43.03049603322688 127.99101387578412,42.68695707763618 127.87922482901922,42.35067100017841 127.7695059497928,42.04099312604376 127.6245942224923,41.627276311892274 127.48796316533117,41.22806879695236 127.37824428610475,40.89901979872593 127.25817456920049,40.54819029481223 127.14017501984199,40.19735541949922 127.01596496787533,39.83925635193373 126.90003558604076,39.50534812500882 126.8192990522657,39.23434656630525 126.73442218342097,38.980279693711054 126.58744028859655,38.588285277530304 126.47565124183166,38.26887746064676 126.36593236260524,37.94704538331462 126.24586264570098,37.58891113989375 126.1299332638664,37.25738999156056 126.00158287683007,36.877465695106366 125.91049550539901,36.5386743828949 125.84010980927997,36.23375791709077 125.75109260537283,35.880436934978206 125.6662157365281,35.546470995535856 125.56684769496496,35.17377861737077 125.57512836509704,34.90998619029233 125.44677797806798,34.81076072938049 125.24390155986475,34.89304528837965 124.90232391695463,34.98501003381898 124.51727275586745,35.09875539229142 124.14671276751324,35.21976047255339 123.78857378434623,35.32624441428197 123.43250496872497,35.45450850485577 123.07850632062036,35.59003204644614 122.70794633225887,35.74733515152184 122.3642985218321,35.83203637595216 122.07447506725293,35.96271765056554 121.89437049189291,36.03531803648366 121.7287570892804,36.10065818703697 121.41616179184348,36.19019809058227 121.05802280867647,36.27247769331734 120.75163801383314,36.32813725696542 120.69160315537738,35.9385174707877 120.64812963719305,35.62391280652082 120.60465611900872,35.35528540336236 120.5632527683556,35.08181463002256 120.49700740730623,34.687333336492884 120.43490238132654,34.379972035549144 120.31897299948469,34.04598421229275 120.1906226124629,34.09196833222268 119.87181681241782,34.23960093520145 119.54680050977913,34.363030741513285 119.33564342144382,34.29284524697141" stroke="red" stroke-dasharray="none" stroke-linecap="round" stroke-linejoin="round" stroke-width="0.5"><title>2024-05-01 58.8km</title><desc>1714551575000</desc></polyline><polyline fill="none" opacity="1" points="19.2390861783133,114.09339228329009 19.485047354952258,114.00737308863427 19.57754557523731,114.28017572453246 19.62799914991774,114.53085640597601 19.665839330948074,114.80365290044938 19.714190673359553,115.07890377743388 19.766746480330767,115.37626936730885 19.8045866613611,115.6736311548375 19.829813448704954,115.90217936602858 19.852938003779855,116.22902398044789 19.855040236056084,116.32486476338636 19.90969827529625,116.38138606562461 20.225033117152634,116.31012005325465 20.5803103722792,116.23885382251319 20.88513405273261,116.17004484079371 21.124788532535604,116.08649080359646 21.269842559777317,116.02259633731228 21.549439452886872,115.91446684064067 21.843751971944585,115.81616686194866 22.18431360113027,115.61710813252648 22.491239513852634,115.44508069758922 22.764529710111674,115.30254271605736 23.090375713349204,115.31483050749193 23.374177071003942,115.25339148537205 23.660080660942185,115.16491900834626 23.975415502791293,115.07398861176625 24.276034718670417,114.99288822835842 24.5682450054519,114.90441476023989 24.74903698144044,114.92161796095934 24.828921808039013,115.24356122676727 24.919317796026007,115.61710813252648 24.999202622631856,115.94149926194223 25.07908744923043,116.2732582370354 25.150563346716808,116.56323628007704 25.177892366344167,116.68119241569912 25.272492818898172,116.95642107250751 25.379706665124104,117.26604941865662 25.46589818855864,117.53144186355348 25.562600873388874,117.80666046008992 25.65509909366665,118.07941853507327 25.75810847532557,118.36691682774835 25.871629018394742,118.70601281136987 25.957820541836554,119.00333203464834 26.012478581083997,119.12864726324369 26.100772336802038,119.36944718040468 26.19116832479631,119.61515881260675 26.283666545074084,119.89772398180503 26.357244674829417,120.13605889144856 26.41400494636764,120.2785672588052 26.519116560317343,120.54392534132239 26.563263438169088,120.6815172298302 26.617921477423806,120.87316171877319 26.710419697694306,121.15816855264893 26.81553131164401,121.48739623995061 26.924847390153445,121.81416239873761 27.027856771812367,122.1212692679619 27.08882150790305,122.27359277162759 27.208648747800908,122.60526146817938 27.299044735795178,122.9320119327349 27.374725097841292,123.09170034074486 27.458814389006875,123.28823841591111 27.52818805420975,123.51425515086885 27.614379577644286,123.79677298354909 27.700571101078822,124.08174401946053 27.786762624520634,124.33723232725606 27.826705037812644,124.49691109578634 27.900283167575253,124.66887162168132 28.013803710644424,124.9759408302034 28.12311978915386,125.29774501448992 28.236640332215757,125.66867409037877 28.360672036666074,126.02485870096643 28.47209034745174,126.349104781204 28.5814064259539,126.68071542045072 28.70333589814254,127.03442823067235 28.80634527980874,127.35866025378346 28.938785913378524,127.72218776020054 29.056510921000154,128.05869127294136 29.180542625457747,128.40747080453912 29.289858703967184,128.74150827636004 29.386561388797418,128.9846648937455 29.39707255018584,128.9846648937455 29.49587746729958,128.9723843173706 29.550535506554297,129.05589210905964 29.859563651560165,128.93063030924532 30.20012528074585,128.8127362352443 30.52597128398338,128.7071222872146 30.652105220717203,128.93308642943884 30.797159247958916,129.21308243419298 30.9632355979993,129.50289931531734 31.118800786651263,129.78043244029868 31.270161510721664,130.06533026204488 31.387886518357845,130.0874342577281 31.44885125444125,130.4042558912788 31.53294054559956,130.77755957358386 31.63174546270602,131.13857783994354 31.7032213601924,131.36943012559823 31.791515115910443,131.53397237983336 31.900831194412604,131.78937895037234 32.001738343795296,132.04232692914775 32.11105442230473,132.3370201403577 32.254006217270216,132.6906470743579 32.375935689458856,132.99761054806186 32.495762929356715,133.30702563752857 32.63451025976974,133.61889224520382 32.70598615725612,133.793241049676 32.550420968611434,133.85463116329993 32.54411427177547,133.8767315646237 32.558829897723626,133.8497199601661 32.550420968611434,133.8374419477841 32.752235267384094,133.8718203661374 32.85104018450511,134.16894601161403 32.98137858579139,134.50290089352893 33.128534845323884,134.8442174828997 33.27779333712533,135.22236096171218 33.39762057702319,135.55138990672276 33.492221029577195,135.86568187551165 33.60153710807208,136.23644273465288 33.6793197024017,136.51144035783545 33.77392015496298,136.75451591318233 33.88323623346514,137.11053109175919 33.9799389182881,137.42725726729986 34.07664160311833,137.7709862328793 34.16283312656742,138.09997921107788 34.26584250822634,138.40932658308884 34.352034031668154,138.75795124251454 34.42140769687103,139.08202019536293 34.486576897521445,139.3888995219968 34.5244170785445,139.65894998908334 34.54543940132862,139.91181259166478 34.56856395639625,140.25305001010202 34.595892976023606,140.6482899883813 34.623221995650965,140.8127667636254 34.64003985388263,141.03124904464494 34.67788003489841,141.42647583685903 34.72412914504093,141.77751016761067 34.78088941657188,142.1408128634921 34.83344522355037,142.48201767578576 34.89020549508132,142.84285474588978 34.915432282417896,142.9655871712639 34.95327246344823,143.1889585286499 35.00372603814321,143.5031475877022 35.04577068371873,143.80996875754136 35.07099747106258,144.02351391054617 35.09412202613021,144.28123821673762 35.08571309702529,144.36469119151116 35.134064439429494,144.56595890279277 35.16349569134036,144.91449156524686 35.18662024640798,145.24583821337728 35.201335872363416,145.54036461784926 35.201335872363416,145.61399563820305 35.228664891990775,145.81034389011256 35.25809614389436,146.09013729502476 35.28122069896199,146.37238162969334 35.30434525402961,146.61535445359186 35.32746980908996,146.91477203042632 35.35269659644109,147.25345285690491 35.36951445467275,147.4596039975986 35.40315017114335,147.78109797641264 35.41786579709151,147.9872444575176 35.44519481671887,148.24001682480048 35.47042160407,148.54432167510095 35.480932765465695,148.78727189358142 35.50405732053332,148.97868543663026 35.51246624964551,149.15046548531427 35.50615955280955,149.42776489710195 35.51667071419797,149.7271464055866 35.53138634014613,150.01916237561272 35.52718187559367,150.27191274583856 35.56081759206427,150.58109879890617 35.565022056624,150.9908867036811 35.56922652117646,151.38594488199487 35.56922652117646,151.7515517761458 35.56922652117646,152.1367823783039 35.571328753459966,152.54654298782407 35.57763545029593,152.8507917242132 35.571328753459966,153.2163756898026 35.53979526927287,153.33169293485662 35.60286223763978,153.54024395359374 35.611271166751976,153.8223982507552 35.63439572182688,154.10945608193106 35.65121358005854,154.40141726644288 35.67013367055915,154.73508272395702 35.66172474144696,155.0662900462521 35.642804650946346,155.37050596844892 35.60916893446847,155.69189106758677 35.59445330852759,155.92495383232563 35.586044379400846,155.99609884476195 35.76893858768017,155.99855211719296 36.11370468141831,156.04516424437497 36.454266310604,156.086869753035 36.80323686891643,156.11876215061602 37.196354305080604,156.16292078310107 37.511689146922436,156.18500006804243 37.85855747295136,156.21443908218862 38.131847669203125,156.22179882992896 38.430364652813296,156.25123779771093 38.73939279782644,156.26841051178963 39.042114245996345,156.29294293858402 39.35324462327844,156.31747533962698 39.67698839423974,156.3444609510152 39.893518318967836,156.3910723882127 40.11635494053189,156.3714465312496 40.431689782381,156.40333854044002 40.765944714738,156.43277727951863 41.08338178885606,156.4597627577623 41.37979654017545,156.48429498367113 41.68882468518859,156.5088271838231 41.92637693270808,156.54071900552117 42.1996671289744,156.5210932742466 42.557046616391744,156.5652511464432 42.880790387353045,156.59714289113253 43.233965410217934,156.62903459230256 43.58714043307555,156.6584730470604 43.91508866859658,156.68545826468107 44.30189940792479,156.71734984532122 44.655074430782406,156.73942860642637 44.87370658778673,156.75414776891012 45.142792319500586,156.77377330446143 45.29625527585449,156.781132876049 45.584261098083516,156.7958520122629 45.878573617126676,156.86208801050088 45.88277808168641,157.20062462520946 45.868062455738254,157.48518784113185 45.86175575888774,157.83352775086496 45.85544906205905,158.1548789791268 45.849142365230364,158.46886675141468 45.842835668387124,158.82209795360723 45.83863120382739,159.1483414749746 45.840733436110895,159.49665659985658 45.83652897155844,159.80326773160778 45.83442673927493,160.0951577925789 45.8302222747152,160.34779918877211 45.83232450698415,160.54892922216095 45.82181334559573,160.98061711011906 45.81760888104327,161.46870915550062 45.80289325508056,161.9347171785048 45.79238209369214,162.35411645888962 45.78397316457995,162.74898259075417 45.77556423546048,163.0678137326595 45.718803963922255,163.425880448538 45.61789681453956,163.77167940206164 45.46443385817838,164.0806869072112 45.287846346749575,164.37007118639485 45.287846346749575,164.37742836715915 45.34670885055675,164.36516639793263 45.451820464506454,164.45345243291376 45.66835038923455,164.59569034393462 45.90380040447053,164.7845220963427 46.15396604566922,164.9365673345692 46.29271337608952,165.05427909832724 46.51765222992981,165.27743935782928 46.78043126479315,165.46136104830111 47.01798351232719,165.65754259097594 47.28286477945949,165.69187419179616 47.43842996811145,165.6747083976843 47.53513265293441,165.80958215496503 47.63603980233165,166.0180218867754 47.741151416281355,166.05725739331137 48.07330411635485,166.13327599996774 48.38863895819668,166.26569491844202 48.7207916582629,166.34416503497232 48.97936622857378,166.45941754146952 49.237940798884665,166.58693029134884 49.46287965273223,166.6874687003019 49.68571627429628,166.79536309760624 49.9379841477712,166.90570912565636 50.240705595948384,167.01605463329543 50.54763150867075,167.13375593451383 50.70109446503193,167.20977104355006 50.95336233850685,167.34954011564696 51.21403914109396,167.50402075030797 51.428466833545826,167.63152780741984 51.716472655767575,167.7565821308417 52.08015884002816,167.86937565323205 52.384982520474296,167.9601004832257 52.685601736360695,168.0483729531643 52.986220952247095,168.14645308477884 53.23218212888605,168.2739566413129 53.43189419538976,168.36713187789974 53.61689063592348,168.4504988803783 53.820807166986924,168.55102928248198 54.10460852464894,168.69079034348033 54.44096568927489,168.850165973372 54.80465187353548,168.9457908303266 55.141009038168704,168.97521378462443 55.42270816354721,169.00708861004568 55.685487198410556,168.99973288495676 56.00082204026694,169.01689623990205 56.18161401624093,169.06593432752925 56.42337072832743,169.08309763392208 56.73239887332602,169.16401019452678 57.04983594744408,169.21549986016544 57.333637305106095,169.3086713481407 57.495509190586745,169.3724200472534 57.82135519383155,169.5219836212691 58.11356548059848,169.6666425622716 58.3868556768648,169.76961956871492 58.517194078158354,169.8260115469202 58.75474632567784,169.91672879198632 59.0700811675124,170.04422270424038 59.395927170757204,170.1839748486782 59.72807987083797,170.30901553378862 60.00347229937324,170.41689323517676 60.335624999446736,170.51741519124698 60.70351564826706,170.70374743148568 61.05038397428871,170.87781963162888 61.36782104840677,171.0347286745473 61.630600083277386,171.1720232243315 61.85343670484144,171.29460696334536 62.12042020426452,171.42454502585133 62.38530147141864,171.5593856489104 62.63546711261006,171.68441898719902 62.86671266329358,171.79474196641786 63.154718485508056,171.95409646301414 63.42590644949814,172.1109982921953 63.692889948913944,172.2409318235168 63.99981586164358,172.40273483553756 64.30463954208972,172.55227904926505 64.584236435192,172.70182230781757 64.84701547006989,172.83420406755067 65.13502129227709,172.9886485079005 65.43564050817076,173.13328602825823 65.72154409810173,173.26811681038453 66.0221633139954,173.4225583886291 66.31437360076234,173.57209608896665 66.59186826158839,173.71673000535702 66.81050041859999,173.82949481191827 67.06066605979868,173.95696741761822 67.34867188201315,174.09669620742534 67.63247323966789,174.24622960277884 67.93309245555429,174.40556741586806 68.2589384587991,174.56245281873817 68.55325097784953,174.72178848026306 68.85807465829566,174.89337951878042 69.15448940961505,175.05516420357708 69.45090416095627,175.1997889605609 69.80618141610466,175.38118146103625 70.12572072249168,175.54541399965092 70.44736226118403,175.71454779841042 70.6933234378157,175.83955895163672 71.01076051193377,175.9939835726709 71.32819758605183,176.16066297348698 71.62040787283331,176.29792747178908 71.92733378554112,176.4572513271978 72.2300552337183,176.6582429527498 72.34147354450397,176.7881512565691 72.45919855213288,176.85187959504583 72.72828428383218,177.04306357022142 72.98896108642657,177.30287518932346 73.21179770798335,177.5308207462258 73.4178164713303,177.74160713687888 73.613324073267,177.93278385108533 73.87189864357788,178.1974874953139 74.13467767844122,178.4695409021151 74.41847903611051,178.7587473660078 74.68756476780982,179.04059768843763 74.94193487356097,179.30528881720966 75.1984072116029,179.55527213781534 75.44436838823458,179.81015434634537 75.69663626170222,180.05278002693194 75.93208627694548,180.29540319546504 76.16122959535278,180.53557315093167 76.36514612640894,180.76838861545184 76.59428944481624,180.97179391771715 76.67417427141481,181.05021476755246 76.7120144524306,181.08207316284825 76.75195686573716,181.1139315148357 76.88439749930694,181.24871637097203 77.07359840441495,181.44966689900502 77.18501671519334,181.55504270678102 77.37001315574162,181.7608917552734 77.56341852540936,181.9691895474025 77.79466407608561,182.19218866140181 77.98806944575335,182.40293312694848 78.12051007933042,182.50585415405658 78.36857348825288,182.73619957725168 78.6082279680486,182.99839852771584 78.84788244785159,183.24834246046703 79.09384362449055,183.50318451088606 79.3250891751668,183.75067269678402 79.33349810428626,183.79477922788283 79.50798338343157,183.94425074399624 79.68036643031519,184.10352262225933 79.92422537466337,184.3436535625442 80.14075529939873,184.55682896912185 80.33836513361894,184.7798034699117 80.3551829918506,184.84596033147136 80.45609014123329,184.9464203939442 80.52966827100317,185.1424387887546 80.67051783368515,185.29925232477763 80.7525048925745,185.40951121437138 80.68523345964059,185.4952677700694 80.5422816646751,185.67168026988475 80.44347674757591,185.8186896725947 80.39092094059015,185.9068948718359" stroke="red" stroke-dasharray="none" stroke-linecap="round" stroke-linejoin="round" stroke-width="0.5"><title>2024-05-01 52.5km</title><desc>1714541844000</desc></polyline><polyline fill="none" opacity="1" points="186.0,148.3227035743903 185.79664280900033,148.355119809994 185.51124947844073,148.38888663467242 185.22470070931013,148.39428931834482 184.95779439611943,148.39293864764204 184.812209134383,148.39293864764204 184.56610071572504,148.4010426697214 184.26568668356776,148.40239333957197 183.99646949320595,148.40779601753184 183.7272523028514,148.4159000301961 183.4684340597596,148.41995203460374 183.19575055364112,148.40644534825515 182.95426388933993,148.382133276873 182.69544564624084,148.3537691351503 182.4216067015368,148.40374400927521 182.21016144043824,148.47938128498026 181.99640530217584,148.4915372339774 181.7999807426895,148.42940670655298 181.67403793690028,148.1444128091407 181.6139551304659,148.00799168063077 181.51343197355163,147.76215983265956 181.46143723721616,147.59061502803706 181.35629232595966,147.35287983886428 181.31238565972308,147.2286074118083 181.20608530987374,146.9624982591522 181.10440671438118,146.7112429073086 180.99926180312468,146.49915793206765 180.70693584105902,145.7939838506245 180.5185993516643,145.71833067964326 180.43771865070448,145.4954214105628 180.3510607568096,145.47785869680138 180.15001444298105,145.65618666835053 179.93741374329693,145.5953933213359 179.81840356902103,145.54946037839636 179.6115800622647,145.51703702512532 179.3469846262451,145.53730163056025 179.16558076836372,145.58728751987474 178.89982989376585,145.6751000950935 178.81317199987097,145.71157591045176 178.60288217735797,145.7818253354999 178.32326603973343,145.87504032242123 178.08062393683213,145.97636018902358 177.977789902754,146.04660815821808 177.7790544660893,146.14657575617366 177.67159867766168,146.22087549121352 177.40469236447098,146.33164883939116 177.28337131302396,146.36947366516324 177.00028885964275,146.45322823806328 176.84661552780744,146.4978070610705 176.5646885130118,146.5883151020953 176.4156369355187,146.64099859198996 176.2215232532035,146.8274153506636 175.96617132586107,146.95844579267487 175.83098501138738,147.00437367085397 175.59643097859225,147.11243861548246 175.3064158936977,147.23536137911378 175.14003273742128,147.30830399857768 174.90547870462615,147.42582178761222 174.76220432005357,147.48390489351368 174.5831113393433,147.598719558815 174.3323811663504,147.76891351801805 174.16599801007396,147.894531415227 174.00077029239037,147.96747027288438 173.70151169881137,148.07957918704142 173.51779696376616,148.14846489960564 173.27631029945042,148.18763504118942 173.03251275796356,148.2200516193152 172.83377732130612,148.24841605774236 172.56224925378046,148.24166262572726 172.29534294058976,148.17007602704598 172.1590011875378,148.11469743983253 171.92560259331367,147.94720952083844 171.7083801392946,147.84185309250825 171.5200436498999,148.033655172424 171.28664505568304,148.1552183808517 171.08097698751226,148.23625987754986 170.80020541130216,148.3416130551459 170.51250120357872,148.44291336863625 170.29065699521743,148.5239530414574 170.1543152421582,148.59148570970592 169.94171454248135,148.69143340400933 169.75799980742886,148.73600442116276 169.50495875725755,148.77112087068508 169.27849279455404,148.81839286195282 169.1872131463242,148.83324973739582 168.92492858747573,148.92104001256666 168.7285040279894,149.03449116757474 168.47546297782537,149.17630369563358 168.19815771736467,149.30190776407017 168.0756812273321,149.37618915938856 167.8168629842403,149.50854403063022 167.55920017973403,149.65845452603662 167.40206053214206,149.76649703651947 167.25185351606342,149.8245695086971 166.97801457135938,149.8893942824061 166.66026896042604,149.99068233343678 166.46846615527465,150.04740329157994 166.17729563180183,150.1230308444192 165.92078826587385,150.21891513447827 165.64694932118437,150.3580136012606 165.41817248130246,150.46875110478595 165.25410020220443,150.5484274958826 165.02763423949364,150.64971032733865 164.8231216099157,150.73343686242606 164.63478512052097,150.81041077399823 164.46031389414566,150.88873462955598 164.43604968385625,150.90764031593426 164.26273389607377,150.96570760651412 164.02933530185692,151.08724294279364 163.79593670764007,151.20877712427227 163.55560548190988,151.33166051147145 163.30256443174585,151.47884894888648 163.1038289950884,151.56527072849713 162.9074044355948,151.66519518334462 162.67747215713462,151.78267293605586 162.49606829925324,151.87449387668403 162.30426549410913,151.92445499399219 162.191032512761,151.68545004526186 162.06855602272117,151.44509028264383 161.96572198863578,151.26819341493865 161.84209006001765,151.09669564276737 161.69881567545235,150.88603381493886 161.57633918541978,150.70507793611887 161.47466058991267,150.63755642991327 161.27014796032745,150.77259908585074 161.0390602432817,150.89008503665445 160.88423147286085,150.96300680814693 160.5907500722169,151.034577772195 160.3781493725255,150.99946753799122 160.1967455146514,150.9224947642042 159.9113521840991,150.75099235672224 159.573964117204,150.6645650751716 159.26777289211896,150.61865034429593 158.99162307025108,150.60244510581015 158.72818307282432,150.56328236135596 158.49825079436414,150.5133159270863 158.31453605931165,150.4917087599124 158.1192669384036,150.4728024586857 157.8488943094635,150.44714386232226 157.57043361042452,150.4187843011814 157.29659466572775,150.39717697429478 157.02622203678038,150.37016776434575 156.7847353724719,150.3377566371155 156.5397823923995,150.32560244322212 156.30407292101154,150.36206499024138 156.09262765991298,150.46740065320228 156.00712520460365,150.37962099431843 155.89158134608442,150.19730746989262 155.7575504701963,149.97987831288447 155.63507398016372,149.78540438199707 155.53917257759167,149.64359860944933 155.42709503482183,149.45722291665516 155.3288827550714,149.29515488855213 155.17636486182892,149.06285379902602 155.01460345989472,148.8129903575118 154.8690181981583,148.59013505983876 154.7696504798223,148.43616003937404 154.54665083287546,148.48748525226074 154.4241743428429,148.56312203249126 154.19655294155382,148.68197892584885 154.0082164521591,148.76031581956886 153.82334627852106,148.83730160951654 153.58070417562703,148.92779308568606 153.327663125463,149.04259478297809 153.09657540841,149.1654989869494 153.03302628621896,149.20736718224362 152.838912603911,149.28299970362878 152.6240010270485,149.36673518758744 152.41948839747056,149.44101620628408 152.1964887505237,149.52340010413081 151.88105401674693,149.90289940223101 151.7331578778394,149.96097125495362 151.5898834932741,149.99743484164628 150.7960971852226,149.9272085819739 150.59736174856516,149.96232176002013 150.34200982122275,150.00688834715038 150.05777192926325,150.04740329157994 149.80588631768478,150.07576367630827 149.57017684629682,150.09737154626782 149.3356228134944,150.1081754675497 149.1045350964414,150.11897937971025 148.83878422184353,150.12032986809027 148.5233494880813,150.12843279536082 148.43900247135025,150.13653571750183 148.18827229835733,150.1324842570748 147.85666142439732,150.1351852308353 147.57011265525944,150.14193766274275 147.24658985139104,150.14733960570265 146.93231055621436,150.12978328274312 146.6180312610304,150.1270823078412 146.3511249478397,150.12438133236628 146.0576435471885,150.1230308444192 145.78149372532062,150.12438133236628 145.49610039477557,150.1216803563275 145.21763969573658,150.1257318201724 144.9669095227364,150.1216803563275 144.68382706935517,150.12438133236628 144.4238533876778,150.12032986809027 144.13268286420498,150.1216803563275 143.95821163782966,150.11222693568106 143.69939339473785,150.1216803563275 143.38395866097562,150.12438133236628 143.0962544532522,150.1230308444192 142.82241550854815,150.12843279536082 142.57399621272634,150.1351852308353 142.31286709246342,150.1257318201724 142.1511056905365,150.12032986809027 141.83913727251638,150.12438133236628 141.557210257728,150.1270823078412 141.28914850595174,150.1270823078412 141.10774464807037,150.13383474402417 140.82697307186754,150.12438133236628 140.52540360111743,150.13788620402465 140.25849728792673,150.1392366904065 140.0262541323027,150.1351852308353 139.71313027570432,150.13788620402465 139.41964887504582,150.14193766274275 139.14812080752017,150.13653571750183 138.8962351959417,150.13788620402465 138.64434958436323,150.13788620402465 138.3832204641003,150.14328814869532 138.16368713290285,150.14463863450783 137.88869274962053,150.14328814869532 137.57441345443658,150.14193766274275 137.35025836890418,150.152741546377 137.0902846872268,150.14733960570265 136.76329556760902,150.14733960570265 136.49638925441832,150.11897937971025 136.33347241390584,150.15679300038937 136.0053278556952,150.15544251585925 135.8135250505511,150.15679300038937 135.5708829476498,150.15679300038937 135.24851558236696,150.16219493706922 134.9723657604991,150.1500405763254 134.69737137722404,150.15409203119088 134.44201944988163,150.16354542088447 134.15547068074375,150.16624638808662 133.88971980614588,150.16759687147442 133.6309015630468,150.16759687147442 133.44372051223763,150.17975121553172 133.17103700612643,150.17569976879622 132.89142086850188,150.1716483207765 132.66495490579837,150.17299880359042 132.42462368006818,150.17299880359042 132.13460859517363,150.17840073343086 131.85614789614192,150.17840073343086 131.8191738614114,150.174349286267 131.77757807233866,149.967723778851 131.5973296530501,149.967723778851 131.31886895400385,149.95962074974705 131.12475527168135,149.933961123701 130.92948615078058,149.9461156898251 130.62560580286663,149.93261061564135 130.34252334948542,149.92450756428298 130.07215072054532,149.90830144616666 129.79137914432795,149.89074479503142 129.52447283114452,149.88129120366375 129.2367686234138,149.888043769638 128.95253073145432,149.89749735601072 128.68331354109978,149.9069509353949 128.42796161375736,149.9150539978782 128.1541226690606,149.92180654602362 127.90223705748213,149.9258580732012 127.66190583175921,149.93261061564135 127.47472478094278,149.933961123701 127.31642969477252,149.9434146761314 127.0229482941213,149.95151771550536 126.75373110375949,149.95827024439404 126.68556022723351,150.0514547789644 126.6751612799635,150.37016776434575 126.66360689411522,150.64025729700643 126.64165356099693,150.91979395671024 126.60352408768085,151.11560102175918 126.53766408832598,151.32085762366205 126.4128767211223,151.58957674881367 126.28000128381973,151.87044296673048 126.16099110954383,152.126998065286 126.04660268960288,152.4065022379309 125.99576339185296,152.6860003046486 126.01309497062903,152.98574506953537 126.07664409282006,153.34623960792487 126.12863882914826,153.632467738963 126.17716724973434,153.89843814141022 126.02927111081954,154.04289690659152 125.75774304329389,154.07934886073872 125.49199216868874,154.1171507776071 125.22624129409087,154.15225245758575 125.07141252366273,154.19275427639695 124.93044901626854,154.20085462478164 124.68318515903229,154.23460602119667 124.45209744197928,154.28320787567554 124.21523253201303,154.2926582148366 124.1054658664143,154.28725802188183 124.1759476201114,154.29535831045814 124.42552235451876,154.2940082627174 124.6854960362034,154.2413562897982 124.9281381391047,154.20895496804042 125.15807041756489,154.17790362438154 125.33947427544626,154.15360252027585 125.60638058862969,154.11175051060764 125.87559777898423,154.07529864873868 126.02002760214236,154.0536974964225 125.95878935712972,153.8754865987039 125.8975511121098,153.62841738553743 125.85595532303705,153.45155070242345 125.81898128830653,153.30438495790895 125.75312128895166,153.05325418290886 125.68610585101123,152.7589118396827 125.62717848316242,152.50101917562642 125.570561992492,152.24717210520976 125.52896620341926,152.07568745717163 125.44577462528105,151.81913132960744 125.32907532817626,151.59767874532372 125.1904226979459,151.3519159015259 125.18233462784701,151.08319178352394 125.22739673267643,150.8779313676523 125.29210129344574,150.65376162391476 125.35911673139344,150.4106815578789 125.42728760791942,150.16759687147442 125.4931476072743,149.95016720929925 125.54514234361704,149.75029071814242 125.349873222709,149.6611555999225 125.10723111981497,149.5990307561351 124.84841287672316,149.53285396009687 124.57688480919023,149.46262514887803 124.32153288185509,149.40184990475336 124.0650255159344,149.33702265927604 123.85358025483583,149.28029854985834 123.63058060788171,149.22492477172636 123.35674166319222,149.1479413158595 123.08752447283041,149.0763597918849 122.90380973777792,149.02908875444973 122.61610553005448,148.95480534249782 122.34573290111439,148.88592397483808 122.08229290368035,148.81839286195282 121.80152132747025,148.7468094928263 121.57736624193058,148.69683595982224 121.34281220912817,148.6225506173023 121.1255897551091,148.46722532442345 120.95574028308329,148.30109270498178 120.75238309207634,148.10524253510903 120.55942484834668,147.91344152939928 120.38148730622197,147.74595097323981 120.16079853643896,147.60682408445336 119.87424976730108,147.54604001690313 119.62120871713705,147.5811597356369 119.48602240267064,147.6378913851222 119.24800205411157,147.81213701981505 119.01575889848027,148.0120438143349 118.80084732162504,148.1538676848886 118.56398241165152,148.2524681152363 118.31440767724416,148.30514474578104 118.08563083736954,148.32675560833195 117.91000417241594,148.32810628603056 117.70086978848849,148.3416130551459 117.44320698398224,148.36052250793728 117.19363224957488,148.38348394871628 116.94867926950246,148.39699065932473 116.6852392720757,148.4159000301961 116.42526559039834,148.43480937309596 116.21728664505645,148.44291336863625 115.96309015629959,148.46992664999107 115.6950284045306,148.49018657354645 115.46278524889931,148.51719975500873 115.21436595307023,148.53610894807116 114.9555477099857,148.5509661515689 114.69788490547944,148.6130960881992 114.46448631126259,148.73735505561945 114.27383894470404,148.90888447195994 114.1432743845653,149.08716457590072 114.05546105209214,149.28975258557057 114.01039894727,149.49368793987742 114.0057771929205,149.79620856686324 114.02657508746051,150.08521712390666 114.05083929774264,150.38097145517077 114.07279263086821,150.66591550594057 114.09359052540094,150.9305971832555 114.11669929710479,151.21282824376522 114.13865263022308,151.51260752603957 114.15251789324975,151.8312841043671 114.1490515774858,152.0689360460492 114.14442982315086,152.38489826842124 114.12247649003257,152.69950247211 114.100523156907,153.00059710504047 114.08088070095982,153.2706311081747 114.06239368360548,153.55281055294836 114.04044035047991,153.8255330987713 114.01848701736162,154.11985091025417 114.04968385916436,154.40606174053846" stroke="red" stroke-dasharray="none" stroke-linecap="round" stroke-linejoin="round" stroke-width="0.5"><title>2024-04-21 79.4km</title><desc>1713660889000</desc></polyline><polyline fill="none" opacity="1" points="19.30708962042263,194.345048832889 19.705430801455805,194.34746174342217 20.295718769215455,194.21957713344636 20.45670639679156,194.91448864811173 20.574351201554236,195.60455345707305 20.6445252956255,196.26081952071945 20.63833346379397,196.48520028167331 21.325626796889992,196.3428514524603 21.884955605491996,196.5310412411618 21.96338547533378,196.890527680358 21.868444053943676,197.31273607047478 21.686816986941267,197.5298687745053 21.911786876757105,197.28861008703643 21.946873923792737,196.71681681902555 21.451527377415914,196.3066609306643 21.856060390287894,196.17878729428048 22.258529459213605,196.03161109050234 22.95614251201914,195.7276047808009 23.682650780036056,195.44289678859423 24.277066635680967,195.28606459846196 25.018022511299932,195.0858003895537 25.457642571200267,195.15094677076013 25.637205694263685,195.86995744560772 25.802321209717775,196.54551731451102 25.988076164605445,197.16797978750947 26.215109998360276,197.8314385497888 26.473102991272754,198.5793144097297 26.714584432615084,199.30786669983354 26.989088977068604,200.08705419474427 27.193419427443587,200.68288552350896 27.44522058851726,201.418607221809 27.686702029881417,202.1325964478492 27.94056713489408,202.89239156041185 28.130449977667013,203.4278510359709 28.312077044669422,203.95365038456475 28.52053538293694,204.5783228790351 28.75582499246957,205.2680958381934 28.991114601994923,205.9578479836855 29.23259604334453,206.65240254126365 29.4183509982322,207.18536239035348 29.68047187902266,207.9618698889317 29.89512204912171,208.5960784991239 30.08087700400938,208.94572971674825 30.720699626406713,208.69735733284506 31.23049378037831,208.7841674047413 31.595811858329398,209.44246639222365 31.934298665022652,209.86926550065982 32.12624545174185,210.65773782090218 32.289297023249674,211.24364918975516 32.58031311924424,211.90911056702862 32.883712878894585,212.6878686839209 33.21187996586377,213.45454582730963 33.36873970554734,213.88368093882673 33.634988474223064,214.522546954071 33.857894420092634,215.08907359391378 34.053969094697095,215.71103137209138 34.23353221776779,216.32091929194212 34.4729497151784,217.0706011495422 34.714431156535284,217.86123580032108 34.927017382688064,218.69522934512315 35.03847035561921,219.22549845912545 35.069429514762305,219.84493364512127 35.10864444969047,220.41614890743585 35.17262671192293,221.0861638417773 35.296463348517136,221.8959399028936 35.39346871384623,222.52253268330605 35.51317746255518,223.20935507830836 35.59367127634323,223.90820585233814 35.659717482521955,224.43353481230588 35.696868473503855,225.10102258301958 35.769106511521386,225.8552362680457 35.82896088586131,226.56123489094352 35.87643159656727,227.02626647098077 35.93215808302921,227.75632292214323 35.97756484977435,228.25987966214052 36.00439612103946,228.70319318585098 36.02503556047304,229.47415280750465 36.049802887791884,230.09812926722043 36.05599471962341,231.0593570690944 36.060122607508674,231.88082558727 36.05599471962341,232.60590971111742 36.10346543031483,233.07563635909355 36.14061642128945,233.83199648787559 36.13648853340419,234.52570614269098 36.08488993482024,235.14231933562405 36.260325169998396,235.38077077487287 37.013664709273144,235.45302829745197 37.76081241671636,235.51324272573947 38.388251375450636,235.57104842822446 39.100312035858224,235.61681117272929 39.8598434069645,235.67702517115868 40.4439395428999,235.72760480770376 41.18283147456532,235.78781851534768 41.85361325611302,235.8432149868022 42.57186574835214,235.9034283910296 43.203432594986225,235.9491904725437 43.816423946125724,235.99976950908604 44.369560922903474,236.0431228802281 45.00525565740827,236.09370170968577 45.55632869024703,236.13464639472295 46.1259772185731,236.1779995110046 46.17344792927179,236.8162442427565 46.156936377730744,237.68808194215126 46.14248877012142,238.4563313557701 46.136296938297164,239.04153230494376 46.130105106465635,239.74230887088015 46.10740172309306,240.8596540573435 46.08676228365948,241.74096986863333 46.028971853244,242.63188316087508 45.77717069217033,243.29161829454824 45.45106754914741,243.83094972402796 45.31897513677541,244.13913342545857 45.50060220377782,243.8453959274193 45.901007328764535,243.73464146917468 46.44795247371803,244.13431808692803 46.96187451558217,244.56528688685648 47.56661009093659,244.87827591802852 47.952567608328536,245.23459670012198 48.60890178226691,245.43683036070433 49.33953793816909,245.68721242591164 50.020639439426304,246.02426089618712 50.72238038012438,246.26741422176383 51.35188328280492,246.6285282725803 51.824526445801894,246.88371211213962 52.532459218316944,247.09796805250517 53.14957845734898,247.29296329513454 53.558239358098945,247.49277151829483 53.99579547406756,247.70461448357673 54.67276908743952,248.01756074460172 55.343550868979946,248.10422203250528 56.01226870658866,248.1331090558342 56.54476624393283,248.2053264552742 57.28985000743705,248.38827618465257 57.89458558280603,248.63621888781017 58.522024541540304,248.90100911167792 59.22170153828483,249.1850534142577 59.91725064715138,249.47150131625312 60.56326510138024,249.70739690752816 61.27738970574137,250.0732709935055 61.77892808393517,250.33323062029922 62.220612087781774,250.54986139650828 62.77787695245934,250.8314783530459 63.38880435964529,251.16845137327255 63.919237953057745,251.44524694425672 64.48269464955229,251.71722543254873 65.085366280975,252.03252390010493 65.6901018563367,252.3285635629054 66.32166870295623,252.64866720118516 66.82114313721831,252.91341120362267 67.46509364750091,253.23350669876163 68.13587542904133,253.57525787224404 68.7055239573674,253.88090426647614 69.18435895220318,254.13360097303666 69.74368776080519,254.41758062439294 70.29269684970495,254.7087764553944 70.72199718989577,254.9277725434622 71.30196543793863,255.216555405279 71.8427187510606,255.50052168314141 72.2348681002768,255.7820780052425 72.7343425345316,256.21523484705904 73.1553870989519,256.63875809345336 73.62183843011007,257.10318087050473 74.2203821736548,257.7240008181143 74.75907154282322,258.2726184543262 75.28950513623568,258.79234940982315 75.75182857951586,259.25913479701194 76.1439779287175,259.7042563707546 76.4391219126046,259.9713251816811 76.73839378437697,260.2552327707199 76.9860670575581,260.570414211501 77.11403158203757,260.7436418673042 77.52062853885582,261.08046968736926 77.95612071087089,261.48225071071647 78.43701964963839,261.9778511727818 79.0458831128999,262.620191231812 79.51027050011908,263.0796819238294 79.98497760705504,263.5824648941616 80.08198297238414,263.7484530329748 80.18930805743003,263.9769854686965 80.36680723654717,264.1405651874611 80.58145740663895,264.4340435342692 80.62273628551338,264.51823745136426 80.67639882802905,264.7419512207798 80.52985880806227,264.90793099982875 80.43491738667217,265.13404645456103 80.3152086379705,265.43232301938406 80.26567398332554,265.7594606152488 80.18518016954476,265.94227077682444 80.20169172108581,265.6512170723072 80.3069528621927,265.40105227051754 80.26980187121808,265.0642876681595 80.57526557482197,264.5879978922767 80.60209684607253,264.3474437554669 80.48857992919511,264.21032677279436 80.23471482418245,263.9769854686965 80.44936499427422,263.7243968551338 80.26154609544756,263.60411558883425 79.89210012961121,263.3010040102654 79.45248006969632,262.83430060129285 79.13256875850493,262.5167444183535 78.61039094087027,261.98988017755073 78.14187566575856,261.51352678353396 77.74972631654964,261.11174630622554 77.25231582623383,260.6305628508853 76.82920731787453,260.1926771621529 76.40403486557625,259.74515900227925 76.00775762847479,259.3529719532253 75.65895110206475,259.0064943972302 75.20488343456964,258.5300792377984 74.73843210339692,258.06809147922286 74.2988120434893,257.62775076092294 73.86331987148151,257.1874016131824 73.51864123295672,256.84811045427705 73.15332315500564,256.47512503639155 72.71989492692956,256.03234739782056 72.29678641857754,255.63769057835088 71.91495678907813,255.39944934209052 71.29370966216084,255.05772528005946 70.60641632907209,254.69193051607908 69.95627398695797,254.37666851797803 69.36392207525205,254.07343534241227 68.78808171510173,253.7870447824189 68.14000331693387,253.46936368558636 67.51462830214587,253.14445802350383 67.05230485885113,252.9013774514715 66.32786053478776,252.54276874654897 65.71693312759453,252.22988409890604 65.12870910377387,251.90736777412167 64.50539803292486,251.58966070158567 63.91511006516521,251.28157692243258 63.35371731260966,250.9951515799039 62.80677216766344,250.73279246185666 62.15043799371779,250.39099902694215 61.57046974567493,250.1190048446988 60.98224572185427,249.80127305091446 60.40227747381141,249.49797951346955 59.94408191840921,249.26208177249828 59.37443339009042,248.97803842205758 58.82336035725166,248.68917717669137 58.30118253962428,248.43160617035937 57.74391767493944,248.14755255388081 57.566418495829566,248.2510640241817 57.178397034505906,248.33772443138696 56.58191723491473,248.207733698011 56.072123080950405,248.116258296639 55.38895763573237,248.0849639967746 54.69960035870463,248.0031171648443 54.27649185034534,247.8081279493872 53.88227855719015,247.6203589926954 53.2837348136527,247.33629534651118 52.74091755659174,247.13889311719686 52.19397241163824,246.9751924210177 51.78737545482727,246.85241613337348 51.29615679633571,246.5803800604499 50.67284572547942,246.23370995405458 50.10113325321436,246.03389077980682 49.58721121135022,245.7859199900122 49.036138178526016,245.52590890821375 48.460297818353865,245.3597891761492 47.98146282353264,245.22255892607973 47.79983575652295,244.87827591802852 47.364343584515154,244.86623795723608 46.91233986095176,244.5219496078971 46.50161501624825,244.15357943499293 46.07437861999642,243.86224981989108 45.66778166318545,243.56610105130676 45.38502134296141,243.92725757499102 44.96397677855566,243.84058052730143 44.46863023217884,243.53961601603623 44.0063067888841,243.1977155456134 43.556367009274254,242.8678489991944 43.083723846270004,242.50426797266482 42.60695279538777,242.1743914639792 42.167332735487435,241.7963519728728 41.71532901192404,241.53388777345572 41.27983683990897,241.30272415860782 40.815449452682515,241.09804609845014 40.39440488825494,240.95356636905854 39.9258896131505,240.7922295966273 39.47801377747237,240.65738008109838 39.042521605457296,240.5369780585661 38.600837601603416,240.4213915228156 38.20662430844823,240.37082223040306 37.55235407845612,240.35878190627045 36.98476949406904,240.3298851025811 36.40273730208719,240.3033963338985 35.905326811771374,240.20225711780404 35.903262867825106,239.78324704661463 35.91151864358835,239.39312734580017 35.913582587541896,238.9909599724324 35.92596625119768,238.39612465023856 35.94660569063126,237.89279041221198 35.95898935428704,237.40148701612452 36.00233217710047,236.86682136797208 36.04361105596763,236.39235538211142 36.091081766659045,235.85044060365544 36.126168813694676,235.424125315727 36.175703468339634,234.9183172409921 36.20872657142172,234.42935883406608 36.20459868353646,233.92593756511815 36.16951163650083,233.45141075093306 36.15093614101352,232.87811145366686 36.15093614101352,232.53364321904883 36.15093614101352,232.04704291011694 36.146808253128256,231.4351645006136 36.14268036523572,230.80640629133086 36.14061642128945,230.2932689983536 36.12823275763367,229.79457527297927 36.10965726215363,229.31514450786744 36.08488993482024,228.65982593686203 36.06837838328647,228.28638234201026 36.012651896809984,227.59248389418826 35.95692541034805,227.03108540168796 35.919774419373425,226.55400634631405 35.866111876843206,225.93716213846892 35.82276905403705,225.32993990367868 35.7711704554531,224.83354786895688 35.71544396899844,224.22147686542667 35.65558959464397,223.60938950964737 35.59160733240424,223.11777994877048 35.521433238332975,222.66953850701975 35.449195200315444,222.22851820547112 35.3666374425884,221.75615917495634 35.284079684861354,221.20184788916777 35.21390559079009,220.6017305463356 35.1746906558692,220.11487681063045 35.14166755277256,219.59426928483845 35.07562134660111,219.00857166957212 34.955912597892166,218.42044870066638 34.83207596129796,217.940779847886 34.677280165553384,217.4056600215372 34.514228594038286,216.9115067305538 34.35117702252319,216.41011102485027 34.21289277832693,215.95932762489429 34.07254459019168,215.45550037704743 33.876469915579946,214.88898280816647 33.692778904638544,214.40682914953322 33.47606479059323,213.90296772114198 33.33571660245798,213.49794187853513 33.10455488083244,212.98200571973575 32.889904710726114,212.4564139316244 32.685574260343856,211.9404542849661 32.47917986602988,211.40278301934268 32.237698424673,211.1881932011438 31.715520607038343,211.39072746495003 31.213982228837267,211.57156011377265 30.757850617388613,211.566737928355 30.631950036855415,210.94948980232584 30.518433119970723,210.3925055176078 30.400788315208047,209.88614439771663 30.245992519470747,209.34119085829298 30.103580387381953,208.90232502864637 29.921953320379544,208.38869663048536 29.769221468588512,207.9570469423761 29.57933862581558,207.38552057259585 29.399775502744887,206.8694465132612 29.203700828147703,206.30030460408852 29.015881929306488,205.74079535687088 28.850766413852398,205.23915473378293 28.644372019538423,204.6579131289618 28.458617064643477,204.1200705939027 28.29556549312838,203.6352779118497 28.13457786555955,203.17459473960116 27.944695022779342,202.63912932987296 27.779579507325252,202.14948105815165 27.595888496376574,201.60434305265517 27.393621989940584,201.02542119604004 27.218186754769704,200.5092035020043 27.059263071139867,200.04122037193156 26.881763892022718,199.52256807410959 26.751735423596983,199.11969979113564 26.547404973222,198.54553989888518 26.359586074388062,197.97860315434264 26.169703231607855,197.41647750884113 25.95092517363082,196.7747205863052 25.82089670519781,196.25599410379255 25.69499612467189,195.7276047808009 25.540200328927313,195.17748783573734 25.490665674296906,194.79625866839342 24.949912361167662,194.96515845199247 24.35549650552275,195.126818503104 23.789975865089218,195.29812865133135 23.327652421809034,195.46461193001232 22.712597126723267,195.7034771225335 22.231698187963048,195.89649767479386 21.977833082943107,195.97129270013647 22.00672829814721,195.9664672220224 21.614578948931012,196.12329473868704 20.95618083103909,196.2511686858452 20.669292622937064,195.9375143319303 20.62388585619192,195.52010608647288 20.54958387424267,195.07132339070267 20.43606695735798,194.42950054998437 20.256503834287287,194.00723884026047 19.724006296950392,194.29196473651973" stroke="red" stroke-dasharray="none" stroke-linecap="round" stroke-linejoin="round" stroke-width="0.5"><title>2024-04-05 108.1km</title><desc>1712276378000</desc></polyline></svg>