<?xml version="1.0" encoding="utf-8" ?>
<svg baseProfile="full" height="300mm" version="1.1" viewBox="0,0,200,300" width="200mm" xmlns="http://www.w3.org/2000/svg" xmlns:ev="http://www.w3.org/2001/xml-events" xmlns:xlink="http://www.w3.org/1999/xlink"><defs /><rect fill="#222222" height="300" width="200" x="0" y="0" /><text fill="#FFFFFF" style="font-size:12px; font-family:Arial; font-weight:bold;" x="10" y="20">Over 10km Runs</text><text fill="#FFFFFF" style="font-size:4px; font-family:Arial" x="10" y="280">Runner</text><text fill="#FFFFFF" style="font-size:9px; font-family:Arial" x="10" y="290">yihong0618</text><text fill="#FFFFFF" style="font-size:4px; font-family:Arial" x="65" y="280">SPECIAL TRACKS</text><rect fill="yellow" height="2.6" width="2.6" x="65" y="283" /><text fill="#FFFFFF" style="font-size:3px; font-family:Arial" x="70" y="285.5">Over 20.0 km</text><rect fill="red" height="2.6" width="2.6" x="65" y="287" /><text fill="#FFFFFF" style="font-size:3px; font-family:Arial" x="70" y="289.5">Over 40.0 km</text><text fill="#FFFFFF" style="font-size:4px; font-family:Arial" x="120" y="280">STATISTICS</text><text fill="#FFFFFF" style="font-size:3px; font-family:Arial" x="120" y="285">Number: 5</text><text fill="#FFFFFF" style="font-size:3px; font-family:Arial" x="120" y="290">Weekly: 1.2</text><text fill="#FFFFFF" style="font-size:3px; font-family:Arial" x="141" y="285">Total: 317.5 km</text><text fill="#FFFFFF" style="font-size:3px; font-family:Arial" x="141" y="290">Avg: 63.5 km</text><text fill="#FFFFFF" style="font-size:3px; font-family:Arial" x="167" y="285">Min: 18.7 km</text><text fill="#FFFFFF" style="font-size:3px; font-family:Arial" x="167" y="290">Max: 108.1 km</text><polyline fill="none" opacity="1" points="72.21129466005368,36.01322482746036 72.8889742604224,35.7868632573809 73.45601229346357,35.54433263205283 73.8155973876128,35.641344928357285 74.00922013062518,36.158742802756024 74.2305032654549,36.78931909610401 74.39646561653353,37.452229832604644 74.52093737991527,37.82410532938957 74.61774875142146,38.32532739483577 74.71456012292765,38.85888456304383 74.8252016903134,39.4247764958709 74.93584325769916,40.00683458572894 75.04648482520133,40.621226833580295 75.12946600071155,41.15477599436417 75.22627737221774,41.688323294350994 75.32308874378214,42.238036748138256 75.40606991923414,42.771580270229606 75.50288129079854,43.38596141495509 75.6135228581843,44.04884356712864 75.72416442562826,44.74405834842764 75.86246638494777,45.45543764512695 75.94544756051619,46.21531642210903 75.97310795233352,46.76501361031842 75.94544756051619,47.05602896923665 76.13907030347036,47.767397516348865 76.20822128310101,48.688938216655515 76.2635420668521,49.56197165491176 76.31886285054497,50.12782400054857 76.2635420668521,50.30566287699912 76.20822128310101,50.4996686882223 76.19439108716324,51.14635294927575 76.45716480980627,51.922370454863994 76.66461774869822,52.698384024814004 76.83058009983506,53.506727308558766 77.05186323472299,54.41206671688997 77.25931617361493,55.20423430518713 77.16250480210874,55.786232369122445 77.6465616596397,56.15806330664782 77.89550518628675,56.83705660041596 78.13061851705424,57.45138127016253 78.39339223969728,58.01720444211969 78.22742988856044,58.51836036151508 77.66039185546106,58.68002321125823 77.06569343060255,58.85785214869247 76.34652324242052,59.148844509691116 75.68267383793136,59.375171519015566 75.01882443332579,59.56916583205748 74.79754129849607,59.81165837746812 74.63157894735923,59.989485999933095 74.8252016903134,60.66846229408111 75.11563580483198,61.395933552106726 75.35074913559947,62.188064989226405 75.58586246636696,62.915529023943236 75.91778716864064,63.67532110174943 76.65078755281866,63.98247001999698 76.92739147134125,64.66142859938554 77.30080676142825,65.40504644460452 77.60507107182639,66.13249518857629 77.95082597003784,66.81144423011574 78.26892047637375,67.50655560483574 78.58701498270966,68.20166382266325 78.90510948904557,68.91293408011552 79.22320399532327,69.59187078796094 79.54129850171739,70.2869695355912 79.87322320399107,70.94973516915343 80.21897810214432,71.64482775046781 80.5094122166629,72.32375234083156 80.84133691893658,73.03500344375789 81.14560122933472,73.74625124190061 81.46369573567063,74.4251665117481 81.76796004606877,75.05558513764117 82.21052631578641,75.44353377082734 82.47330003837124,76.07394820274203 82.59777180175297,76.36490783415502 82.41797925473657,76.8175106060371 81.85094122163719,77.0761401605414 81.22858240490314,77.3347692781681 80.48175182478735,77.6903836014244 79.76258163654711,78.09448978416913 78.9327698808629,78.43393815333548 78.11678832117468,78.83804237324512 77.39761813287623,79.2744737326866 77.0933538225363,79.419950576048 76.34652324242052,79.77556005549559 75.6135228581843,80.11500469715975 75.00499423744623,80.42212062914041 74.28582404914778,80.76156383717898 73.45601229346357,81.14949801050534 72.7506723011611,81.4889396057988 72.0591625047382,81.81221661588643 71.60276603914099,81.99001868047344 71.16019976948155,82.20014812692534 70.57933154050261,82.49109611517633 70.02612370339921,82.83053473586915 69.41759508254472,83.21846366659156 68.72608528618002,83.70337344774453 67.97925470612245,84.25293600973964 67.27391471381998,84.75400603812886 66.59623511333484,85.15809357627586 66.00153668841813,85.57834348453616 65.3653476756881,85.9501020572643 64.97810218977975,86.12789931643056 64.99193238565931,86.11173593773856 64.59085670381319,86.35418643856246 63.940837495203596,86.64512653269048 63.23549750284292,86.93606607404945 62.55781790241599,87.16235200176015 61.85247791005531,87.40480083884904 61.06415674218442,87.7119021481194 60.44179792545037,87.90586055236054 59.70879754127236,88.16447137587238 58.865155589650385,88.4715711614117 58.04917402990395,88.7463441316504 57.205532078340184,89.03727968031308 56.47253169422038,89.31205163532286 55.67038033035351,89.57066008374386 54.82673837878974,89.87775704894739 54.1075681905495,90.10403862917155 53.47137917787768,90.28183106472716 52.93200153671205,90.47578621357388 52.60007683438016,90.55660078646906 51.97771801770432,90.79904424901179 51.34152900497429,91.07381304255978 50.594698424916714,91.36474416889541 49.79254706110805,91.62334915045358 49.018056089116726,91.88195369527966 48.17441413749475,92.1890460249997 47.37226277368609,92.49613773880992 46.61160199769074,92.80322883679764 45.837111025699414,93.07799403394165 45.048789857828524,93.33659612212796 44.260468689957634,93.62752294924576 43.40299654239789,93.86996154967346 42.72531694202917,94.12856230030593 42.50403380714124,94.1447248327604 41.85401459853165,94.4033251193905 41.065693430718966,94.67808744545619 40.29120245866943,95.00133660963911 39.51671148673631,95.29226027404366 38.89435267000226,95.48620907652366 38.14752208994469,95.69632000205456 37.23472915869206,96.0195670168614 36.44640799082117,96.37513794499682 35.83787936990848,96.8115193193662 35.353822512493934,97.24789945020166 34.96657702646917,97.65195401820529 34.745293891697656,97.94287264700688 34.17825585859828,98.37924955398194 33.44525547447847,98.78330113689299 32.65693430660758,98.99340753868455 31.951594314246904,99.12270364274445 31.315405301575083,99.20351365224633 30.859008835977875,99.23583764418436 30.084517863986548,99.44594342511846 29.116404149099253,99.60756306044641 28.245101805659942,99.78534446237609 27.34613907028688,99.9469637395232 26.488666922727134,100.07625903842563 25.645024971221574,100.22171611928206 24.773722627782263,100.35101118622697 23.8747598924092,100.4964680060948 23.100268920476083,100.64192468780675 22.36726853629807,100.77121940001962 21.49596619285876,100.90051400304947 20.63849404535722,101.04597030098375 19.822512485610787,101.17526467209973 18.96504033805104,101.27223537878308 18.17671917018015,101.46617660793709 17.31924702267861,101.59547062423371 16.53092585480772,101.74092626213678 15.714944295061287,101.87022004653409 14.88513253943529,101.96719031315297 14.304264310398139,102.08032221329631 14.0,102.16113066229445 14.373415290086996,102.12880728782329 14.650019208609592,102.64598046056926 14.968113714945503,103.24395976455708 15.1064156742068,103.47022159502376 15.424510180542711,104.00355173001299 15.631963119492866,104.45607281241973 15.618132923555095,104.7308171029872 15.81175566650927,105.15101329996833 15.894736842077691,105.32878826698288 15.714944295061287,104.8924311613082 15.604302727617323,104.55304144184629 15.43834037653869,104.19748950049689 15.300038417219184,103.92274425318465 15.17556665383745,103.68032156690606 14.981943910825066,103.3086060359492 14.70533999230247,102.80759671893611 14.608528620854486,102.48436403171218 15.147906262020115,102.38739409251139 15.880906646198127,102.25810074475885 16.558586246625055,102.14496897593199 17.31924702267861,102.01567542349221 18.079907798732165,101.88638176191307 18.868228966544848,101.74092626213678 19.642719938536175,101.62779411127849 20.417210910469294,101.54698538093362 21.164041490585078,101.38536779228889 21.938532462576404,101.23991181666497 22.643872454878874,101.12677929570782 23.32155205536401,101.01364669116447 24.096043027297128,100.86819036255474 24.925854782923125,100.75505756693019 25.728006146731786,100.60960099268414 26.502497118723113,100.48030614401796 27.26315789477667,100.36717306190985 27.982328082958702,100.25403989621555 28.715328467194922,100.10858284613641 29.420668459497392,100.02777331414109 30.126008451799862,99.91463989773183 30.63772570108995,99.84999219367455 30.95582020742586,99.8661541222391 31.42604686896084,99.73685864591971 31.993084902060218,99.639886967052 32.573953130980954,99.54291522680433 33.32078371109674,99.38129552319879 34.03995389933698,99.05805560432782 34.67614291206701,98.70249090560537 35.118709181726445,98.31460120175325 35.50595466775121,97.86206197222054 35.907030349597335,97.39335921748716 36.36342681519454,96.97314173507039 36.97195543604903,96.64989673312812 37.74644640798215,96.35897564800689 38.47944679216016,96.13270331083913 39.22627737221774,95.80945653484378 40.02842873608461,95.53469623871206 40.872070687648375,95.25993544969242 41.70188244333258,94.9690117239661 42.55935459083412,94.66192496934673 43.333845562825445,94.38716261426453 44.108336534700356,94.12856230030593 44.896657702629454,93.86996154967346 45.643488282803446,93.59519777350943 46.34882827504771,93.32043350439926 47.026507875474636,93.07799403394165 47.745678063773084,92.86787951574661 48.464848252013326,92.60927663605253 49.19784863613313,92.35067331956816 49.958509412186686,92.09206956636626 50.663849404489156,91.84962815110339 50.968113714887295,91.78497704213078 51.50749135616934,91.62334915045358 51.89473684207769,91.46172108812607 52.12985017284518,91.39706981547351 52.655397618189454,91.20311583364673 53.26392623898573,91.02532446775876 53.983096427167766,90.73439269651135 54.71609681134578,90.44346037255309 55.490587783337105,90.16869044778286 56.22358816745691,89.8939200300374 56.956588551576715,89.6191491192003 57.71724932768848,89.34437771527155 58.381098732177634,89.11809501238167 58.934306569281034,88.94030122550612 59.29389166343026,88.7948334281391 59.750288129085675,88.64936549257254 60.427967729454394,88.42308176253573 61.077986938122194,88.1806345378136 61.67268536303891,87.97051329920941 62.22589320014231,87.76039177224447 62.806761429063044,87.56643318373244 63.470610833668616,87.34014785318868 64.16212063003331,87.06537235938595 64.78447944676736,86.77443306376517 65.1855551287299,86.59663655543409 65.78025355358841,86.28953300921421 66.40261237032246,85.83695823940798 67.01114099111874,85.43287249296554 67.60583941597724,85.0449491731124 68.17287744907662,84.60853426333051 68.60161352279829,84.25293600973964 69.14099116402213,83.88117331601097 69.63887821743265,83.54173702467233 70.15059546678094,83.21846366659156 70.74529389169766,82.86286218427995 71.43680368800415,82.49109611517633 72.18363426811993,82.18398433362017 72.9857856319286,81.79605278161762 73.80176719173323,81.44044799542462 74.59008835954592,81.05251455934194 75.24010756821372,80.74539989198092 75.8901267767651,80.43828460852092 76.62312716094311,80.08267666843312 77.35612754512113,79.75939600614947 78.1029581251787,79.43611466120637 78.84978870529449,79.12899675112567 79.52746830577962,78.82187822496053 80.19131771026878,78.49859490018571 80.91048789856723,78.15914667437028 81.57433730305638,77.8520262025122 82.22435651166597,77.52874082961353 82.98501728766132,77.14079748095537 83.81482904334553,76.78518188100134 84.49250864383066,76.47805865258852 84.7967729542288,76.34874342469266 85.37764118320774,76.02545487706084 85.97233960812446,75.68600116725429 85.58509412209969,75.34654670467717 84.9350749135483,75.66983668610919 84.34037648863159,75.91230372407881 83.71801767189754,76.23559251066763 83.06799846328795,76.57504500182404 82.5839416058152,76.33257901352772 82.3073376872344,75.63750771869672 81.86477141757496,74.87777501886012 81.50518632348394,74.08570925320964 81.17326162121026,73.32596885152452 80.77218593924772,72.55005986843025 80.4126008451567,71.8388065121253 80.08067614288302,71.24070454078901 79.77641183248488,70.52944510028465 79.4444871302112,69.78585215135536 79.09873223205796,69.00992522278102 78.76680752972607,68.25015962705947 78.40722243557684,67.55505162943155 78.1029581251787,66.90843670447066 77.77103342296323,66.2456535713136 77.5497502880753,65.63136420217052 77.38378793693846,65.25955628095835 77.24548597773537,65.06556918086426 76.9965424509719,64.61293165790266 76.7199385323911,64.03096716129221 76.20822128310101,63.67532110174943 75.72416442562826,63.1095188492327 75.46139070298523,62.28506039365311 75.24010756821372,61.5575933620421 74.96350364963291,60.83012287248857 74.7422205148032,60.264310100945295 74.99116404145025,59.69849523741868 75.79331540531712,59.45600251268479 76.56780637725024,59.2620080561901 77.34229734918335,58.9871821552515 78.1029581251787,58.712355760711944 78.72531694197096,58.51836036151508 78.57318478671368,57.66154440683022 78.42105263157282,57.20888498463319 78.17210910480935,56.51372683625959 77.86784479441121,55.6892328455433 77.56358048407128,54.89706776790263 77.31463695730781,54.040231536651845 77.14867460622918,53.23189107123471 76.9965424509719,52.47204714009422 76.96888205915457,51.647531371723744 76.95505186315859,51.13018587608531 76.95505186315859,50.920013768816716 76.73376872838708,50.28949571488192 76.51248559349915,49.62664060029783 76.45716480980627,48.64043621288147 76.4018440261134,47.73506265414471 76.37418363423785,47.18536895108991 76.33269304648275,46.61950572326896 76.2635420668521,45.972802328833495 76.19439108716324,45.293760822707554 76.09757971571526,44.63088406443421 75.95927775639575,43.984172264128574 75.84863618901,43.35362562672526 75.7518248175038,42.658404527101084 75.6135228581843,41.88234003302932 75.41990011523012,40.78290859397384 75.29542835184839,39.89365679725597 75.14329619664932,38.97206311712216 75.01882443332579,38.11513769636804 74.81137149437563,37.27437601452402 74.5071071840357,36.239586062554736 74.18901267758338,35.36647659573646 73.9538993468741,34.832907246018294 73.94006915099453,34.75206324280589 73.69112562423106,34.67121919686906 73.31771033420227,35.15628283166734 72.62620053783758,35.447320274222875 71.9208605455351,35.7868632573809 71.17402996541932,36.110236826352775 70.48252016899642,36.41744108371495 69.63887821743265,36.74081331967318 68.85055704956176,37.11269054595323 68.15904725313885,37.387555740817334 67.66116019972833,37.177364753893926 67.3568958893884,36.530621444035205 66.96965040336363,36.546790060107014 66.37495197844692,36.83782485719712 65.72493276983732,37.12885910051409 65.61429120245157,37.533072408812586 65.96004610060481,37.71092592606146 66.58240491739707,37.371387213643175" stroke="#4dd2ff" stroke-dasharray="none" stroke-linecap="round" stroke-linejoin="round" stroke-width="0.5"><title>2024-05-25 18.7km</title><desc>1716643451000</desc></polyline><polyline fill="none" opacity="1" points="180.45733982529782,105.36063674537945 180.31035793048068,105.20380909275627 180.43663814997126,104.96253370132945 180.52979568894807,104.8539589527445 180.56498853700032,104.86361006218249 180.56912887207,104.90704000472397 180.66021624350833,104.84189506027906 180.57119903959392,104.8756739433029 180.60639188765344,104.84913339651393 180.61260239024705,104.73573253480936 180.7906367980613,104.79605221142629 180.7243914370265,104.97459753077055 180.616742725324,105.15072872292876 180.63951456818177,105.20863457487212 180.60225155258377,105.36063674537945 180.70783009676234,105.46438368412055 180.75544395000907,105.4788599641015 180.70368976169266,105.55124122787674 180.66642674609466,105.63809844496245 180.58154987726448,105.71530458590314 180.52979568894807,105.85041471150726 180.55877803439944,105.99517468323575 180.52358518633991,105.82387528492836 180.6333040655809,105.65016192149415 180.57119903959392,105.5922571766514 180.49874317595823,105.522288749582 180.57119903959392,105.37028764307252 180.64572507077537,105.17726892309292 180.5173746837536,105.24965113214057 180.33934027593205,105.27136575061559 180.03088531355024,105.1627924540553 179.80730722002045,105.08317171215458 179.7783248745618,104.8153544746674 179.97085045510175,104.51375476801331 180.17579704084346,104.23627955868506 180.4200768097071,103.9684524985023 180.54635702921223,103.84780866372785 180.52358518633991,103.74888024882421 180.27516508242115,103.5799770974063 179.99776263303647,103.28801302173451 179.7348513563702,102.96467659635528 179.6147816394805,102.9284819385557 179.42018589140935,102.73061680623869 179.10966076148907,102.42416380285431 178.81362680430902,102.0718584731203 178.55278569519578,101.77987532386214 178.2401903977443,101.43479956761257 177.98555979122466,101.18624530233501 177.80545521587192,101.03180246888769 177.5425439392202,100.80254948247966 177.2920536677484,100.54916195349506 177.14300160539278,100.38264863404402 177.06226507161773,100.29818489682475 176.799353794966,100.0327254245567 176.63167022480775,99.82518225579588 176.5012496702475,99.71417002726594 176.24661906372785,99.47766393359598 176.03132164032286,99.25080887238437 175.77255069873354,98.98292396042962 175.51792009220662,98.70779567859972 175.24465797787707,98.44231791087986 175.0024483765519,98.1961448878501 174.75195810509467,97.92583422939788 174.51388883882464,97.70137743677151 174.2551178972426,97.44795585289285 174.0481011439624,97.2428030080755 173.87627723874903,97.0810930093885 173.60301512441947,96.79870118920917 173.23038496853405,96.40769142374666 172.90536866590264,96.07219010741028 172.60726454118412,95.80185456156141 172.49340532688802,95.72944271666711 172.15389785151638,95.54117085607504 171.80196937095025,95.35531122997418 171.41277787480794,95.15013977373565 171.04428805397038,94.944966492405 170.6985700760124,94.77358505841767 170.3383609253142,94.59737465059516 169.94709926162614,94.39702419518471 169.58067960833432,94.21115534891578 169.25980364075076,94.03976846192018 168.88510331733414,93.87562208028066 168.533174836768,93.7018187556605 168.17917618867068,93.50628844970925 167.81896703797975,93.3324823414714 167.53121375093178,93.17798692329052 167.31384615998832,93.07659874257115 167.007461365145,92.91727355791409 166.6348312092523,92.728978738558 166.26427122089808,92.53585424963421 165.88957089748146,92.33789996976157 165.5293617467687,92.1423580979208 165.15052108828968,91.95405695023328 164.78824177006027,91.77541085005942 164.43838345703261,91.61366251128675 164.08231464140408,91.40121520795401 163.69105297770875,91.20325118598885 163.3329139945563,91.03667038707317 163.04930104257073,90.88457382377055 162.70358306460548,90.70350517811858 162.34130374637607,90.51519227794233 162.09909414504364,90.39689236160666 162.0287084489246,90.36792086098103 161.6933413086299,90.20374833631831 161.29172880728584,89.99611670417289 160.89632680852083,89.79814061542493 160.51541598250333,89.5856765798053 160.1448559941491,89.40218333662779 159.74324349279777,89.19695889990908 159.35819233170332,88.99414707311007 159.0000533485436,88.82272139920133 158.64191436539113,88.63680760737043 158.27963504715444,88.45572130340406 157.96703974971024,88.3060222178101 157.8304086925491,88.43640534699625 157.7517423263198,88.63197865773145 157.68135663020803,88.79133346164963 157.6047604314881,88.92895717834472 157.54265540550114,89.04485019711683 157.490901217192,89.16798589105565 157.44742769899312,89.27180567087089 157.51160289251857,89.10521091360533 157.50953272498737,89.10038206210265 157.53230456784513,89.11003976408938 157.62132177175226,88.88791159445464 157.74346165618044,88.64646550361795 157.62960244187707,88.56678773855492 157.41844535354176,88.51366907548254 157.04995553271146,88.44606332722287 156.7104480573471,88.34706883803847 156.59037834045012,88.31326574434388 156.165993996241,88.2698045510133 155.7043466364412,88.25773198277057 155.25512028184312,88.23358682730577 154.82452543502586,88.1152751998543 154.5388423155091,87.977646624091 154.26351003365562,87.84484634197725 153.91158155309677,87.6782412693974 153.49340771148854,87.4802452690019 153.06488303220976,87.33053984658727 152.64049868800066,87.20256508539387 152.23681601911085,87.0866628015483 151.96976440738945,86.98283317723144 151.73997581126605,86.85485648492067 151.37976666056784,86.64719467930263 151.00713650468242,86.44194570678337 150.6158748409871,86.29223353833004 150.2266833448375,86.15459407355593 149.87682503180258,85.98556202697546 149.56422973435838,85.82618781863312 149.19159957846568,85.66922729346516 148.8127589199794,85.57746526035407 148.46911110954534,85.43740671568412 148.17514731991105,85.3528882164428 148.06749860820128,85.16936126469591 147.98055157182534,85.00756655515397 147.93293771857861,84.66706949910986 147.98469190688047,84.27826883381931 148.1296036341737,83.89429154964273 148.19791916274698,83.50547784017726 148.24967335107794,83.15046828617051 148.0447267653435,82.97416899119708 147.6886579497077,82.76405710994186 147.4816411964348,82.53945263436799 147.51890421202552,82.27620374034814 147.1524845587337,82.07333097994342 146.81297708335478,81.88494753069972 146.4776099430601,81.69656254035726 146.40308391188591,81.45504106749286 146.411364582018,81.017880759342 146.41343474954192,80.63143379664507 146.421715419674,80.35125569279808 146.4237855872052,80.09764326238837 146.42792592227488,79.90199747867518 146.4237855872052,79.63871842964545 146.42585575474368,79.28848016556003 146.44241709500056,78.72084131791235 146.45276793267112,78.30295356135684 146.4631187703344,77.83916173535545 146.46518893785833,77.40917971511408 146.47346960799769,76.97435826725996 146.48175027812977,76.57576472313667 146.49210111578577,76.31969492536336 146.3699612313576,76.2931214812852 146.03252392352442,76.23031140055537 145.60606941178412,76.19165895797596 145.2624216013428,76.16991693049567 144.79870407401177,76.13126438647487 144.38467056747322,76.09744335719552 143.98512823365309,76.0708696564725 143.55867372191278,76.03463274238493 143.2481485919925,76.01047476795975 142.90450078156573,75.99114837015986 142.58362481399672,75.96699035008714 142.18615264771506,75.93075327241786 141.79282081648853,75.89693194845313 141.45331334112416,75.86794220263073 141.0517008397801,75.8413682368755 140.6790706838874,75.80996260142456 140.5734921397161,75.49590388940123 140.5797026423097,75.12144366898792 140.59626398257387,74.73248176169909 140.59626398257387,74.42324027384893 140.60661482023716,74.01252249668869 140.6148954903765,73.61629369233196 140.62317616050132,73.29495678472449 140.62110599296284,73.1741522750981 140.6148954903765,72.91321236920703 140.62731649555644,72.86972209710984 140.62524632803252,72.57978484854902 140.60454465271323,72.38890749834172 140.65422867349116,72.2052771602157 140.64387783582788,71.9805696203075 140.6335269981646,71.68337240540313 140.6397375007582,71.2556916250087 140.63766733323428,70.84250094483468 140.6314568306334,70.49212876219462 140.6355971656958,70.12241991234623 140.62938666309492,69.80345063822278 140.6314568306334,69.39023386354711 140.6314568306334,69.14375014634606 140.61282532283803,68.89968033259538 140.61282532283803,68.61935933004679 140.60661482023716,68.86826521787043 140.60040431763628,69.10025274549662 140.52173795139242,69.283907878229 140.18016030848958,69.39023386354711 139.79717931494088,69.35156992577868 139.60672390191758,69.24524376165755 139.43697016424267,69.08333706738449 139.10988369408005,69.04950567384185 139.11195386160398,69.05675526236337 139.43282982918026,69.08575359359384 139.80753015260416,69.16308229808783 140.1698094708263,69.21866214380498 140.50517661112826,69.25007677978647 140.56935180464643,69.51589121232064 140.56107113452163,69.82278223532558 140.38717706176976,69.98710015458528 140.07044142926316,69.96776869561836 139.76819696947496,69.96051939431527 139.35416346292914,69.94602078485332 138.97325263691164,69.93152216624367 138.5737103030915,69.91943997709495 138.16588729915384,69.90010846124096 137.75806429520162,69.89285913861204 137.35852196138148,69.8831933715428 136.9279271145715,69.87111115699554 136.50768310543208,69.85419604596973 136.30894702228397,69.69229363945487 136.30066635215917,69.27182534878739 136.2882453469574,68.84409971579589 136.2861751794262,68.69910616999005 136.26547350410692,68.43086569969637 136.24270166124916,68.15778885303735 136.21785965084564,67.785625804132 136.18473697033187,67.43762373624304 136.15161428980355,67.09686660671468 136.14126345214027,66.9180275104809 136.10814077161194,66.54584438990241 136.0708777560285,66.16640474513588 136.04810591317073,65.81354442259544 136.01912356769753,65.4679294030775 135.99428155731584,65.25040679583617 135.95287820666272,64.9168681326737 135.92389586120407,64.49631248360856 135.89491351573815,64.13859242583203 135.8576505001547,63.739776336982686 135.80589631182374,63.34337045603206 135.74793162091373,62.97838094517465 135.72101944299357,62.67139852314176 135.64235307674244,62.32090176641759 135.5885287209021,61.958313287579585 135.52435352737666,61.59088445787529 135.4705291715436,61.264544714285876 135.4332661559456,61.00588695733131 135.39807330789336,60.6577822009167 135.38358213515312,60.37977808571668 135.35874012476415,60.02441140406518 135.3359682818991,59.66420419042515 135.31526660657983,59.349924825472044 135.24902124553046,58.960695958157885 135.17449521435628,58.61256020216024 135.09168851305003,58.28134281286839 135.00681164419802,57.954956040532124 134.9157242727597,57.63340009102649 134.81014572859567,57.29491527922073 134.7004268493547,56.97093228551239 134.61762014804845,56.72431530043832 134.49755043115147,56.33987765798156 134.42509456750122,56.09325389402329 134.31330552073632,55.67979046324217 134.23877948955487,55.44524941737291 134.12285010772757,55.12124031933308 133.98621905056643,54.76579224219313 133.90755268432258,54.50464320855281 133.77299179469264,54.26767206963996 133.65085191026446,53.92913762695753 133.5680452089582,53.66314277606034 133.4169229790641,53.34636306804532 133.2637305816461,52.9763781785623 133.12916969200887,52.63298817265604 132.9904684673238,52.292011321795144 132.87867942055163,52.0114875604977 132.766890373794,51.728542016862775 132.65510132702912,51.43108268321703 132.5660841231147,51.19407980338474 132.4108215581582,51.25453995431417 132.06096324512328,51.389970114258176 131.69247342430754,51.51572597557788 131.36952728919277,51.65357295479225 131.0320899813596,51.728542016862775 130.89752909172967,51.421409144206336 130.81472239041614,51.01753525083586 130.73605602417956,50.683789782458916 130.6656703280678,50.29441393299385 130.57458295662218,49.91470565304189 130.4731447475133,49.5253167494775 130.35307503063086,49.177037844554434 130.29097000463662,48.9593608436262 130.16261961761484,48.647353539792675 130.03426923058578,48.26036183981887 129.91005917861912,47.88303864536647 129.77342812145798,47.483940049660305 129.69062142015173,47.234802253753514 129.558130698053,46.85988105186516 129.42356980842305,46.460764649527846 129.30350009153335,46.097925528232736 129.1730795369731,45.71330979092454 129.06750099279452,45.41335341737613 128.93708043824154,45.05775489091684 128.81701072133728,44.694893566216706 128.6948708369091,44.341703027894255 128.5996431304011,44.041728708329174 128.48371374856652,43.71755849838337 128.36364403166954,43.3498374869323 128.2891180004808,43.14903997088004 128.16076761345903,42.786148431558104 128.0593294043574,42.46921845388715 127.94340002252284,42.1450260036072 127.80883913290018,41.770021553629704 127.66806774066936,41.36113874128023 127.54385768870998,40.98854094992748 127.44034931206988,40.68610322326822 127.30578842243995,40.29655754963096 127.19192920814385,39.96023639263876 127.06771915618447,39.59971398678317 126.98491245487094,39.33839218668618 126.92073726135277,39.09158552753979 126.76547469640354,38.711691650460125 126.64954531456897,38.38502627296293 126.53154576519592,38.03657806931005 126.4238970535007,37.71474272832165 126.29554666646436,37.34692537317642 126.17547694958193,37.003301191891296 126.07196857294184,36.64757213690973 126.00365304436127,36.352337025049565 125.91463584045414,36.003857897516355 125.82975897160213,35.64327321835117 125.7345312651014,35.30930382030965 125.65379473132634,34.95354845194379 125.64344389366306,34.79139961371038 125.39709395726823,34.88336476737277 125.16109485853667,34.96322894328296 124.78432436758158,35.060033631561964 124.38478203376144,35.18103891643477 124.05355522852187,35.292363213799035 123.6747145700283,35.406107045639146 123.33934742972633,35.55131111639639 122.9729277764418,35.689254130846166 122.60443795561878,35.805416024886654 122.2939128256985,35.9312574118685 122.08689607243286,35.99659785930635 121.94405451267812,36.071618143143496 121.65837139315408,36.16357815582887 121.31472358272731,36.245857854191854 120.97728627489414,36.3184573425624 120.840655217733,36.086138169694095 120.79925186707987,35.7182946595949 120.7537081813498,35.44240814964178 120.71437499822787,35.188299213194114 120.6481296371785,34.80834059082008 120.59430528132361,34.47435901573044 120.49493723976775,34.13795235980615 120.38107802546438,34.03630333316869 120.11609658127418,34.191196907962876 119.78693994356581,34.324307736647825 119.50953749418841,34.38239221939148 119.37083626948879,34.30252601763277 119.19280186167452,34.392072952186936 119.34806442663103,34.40175368089149" stroke="red" stroke-dasharray="none" stroke-linecap="round" stroke-linejoin="round" stroke-width="0.5"><title>2024-05-01 58.8km</title><desc>1714551575000</desc></polyline><polyline fill="none" opacity="1" points="19.076338859471434,114.36192578679038 19.348268777845078,114.25188138306476 19.624382233421784,114.1345001088448 19.91095453201706,114.00733638973361 20.028093573782826,114.21764523959791 20.086663094669348,114.4817513200469 20.128498466721794,114.76786283856563 20.18079268179281,115.05886152319727 20.233086896863824,115.36941910770656 20.270738731720485,115.67508195158734 20.297931723544025,115.93183562030572 20.32094117818633,116.23749103548471 20.32512471539667,116.34752599669446 20.440171988542716,116.34508078102044 20.804139725441928,116.27661463719414 21.157648619329848,116.20570306040827 21.488148058582738,116.11767459383191 21.619929480555584,116.05654351725752 21.87094171291392,115.95873345884684 22.18261523473484,115.84625138059528 22.511022905389837,115.68486309592481 22.847797650450957,115.49657534120706 23.149012329260586,115.32784864903624 23.471144694107352,115.32784864903624 23.78700175313861,115.24470750765795 24.071482283135992,115.16645674875872 24.408257028189837,115.07353362887443 24.719930550018034,114.98794621462002 25.025328766038,114.89502237784473 25.194762022867508,114.94148434287672 25.28261630418274,115.29361409758712 25.376745891320752,115.67752723805643 25.46250840403809,116.01497429294432 25.541995610947197,116.35730685681665 25.602656900438888,116.61894333079181 25.652859346904734,116.77298959089603 25.765814851460163,117.09574985871768 25.859944438583625,117.38182906052862 25.962441100127762,117.67523995337797 26.05447891865333,117.95886694764886 26.163250885998423,118.24738049675761 26.278298159151745,118.59701497827882 26.37870305209799,118.93441947087558 26.433089035774174,119.07867061556863 26.52721862290491,119.313382421411 26.619256441423204,119.57254060936248 26.71756956576428,119.8683685799515 26.797056772673386,120.1226309224403 26.855626293552632,120.26931946524564 26.966490029495617,120.55535945070187 26.987407715525478,120.66781864814948 27.073170228250092,120.90495907858713 27.173575121181784,121.22766174251592 27.28443885713932,121.56991722937528 27.401577898897813,121.90972302977934 27.47269803139352,122.12240469870812 27.581469998745888,122.4035326430785 27.694425503301318,122.74088167172522 27.769729173000087,123.00733503979609 27.859675222927763,123.17845026523173 27.93288712402864,123.39112028340969 28.02492494254693,123.69178835651473 28.11277922386944,123.98023048209325 28.202725273797114,124.25155835560508 28.255019488860853,124.44221928432489 28.326139621363836,124.61576825252996 28.445370431734773,124.93841921666171 28.560417704888096,125.28061987413275 28.679648515251756,125.66925591925246 28.805154631430923,126.03344352873683 28.922293673189415,126.36829554094948 29.043616252158245,126.72758392390097 29.164938831119798,127.08686673576449 29.286261410088628,127.4461439769475 29.41804283206875,127.81030365940023 29.54564071684581,128.1720136521726 29.66487152719492,128.53860585740404 29.775735263152455,128.8269876504546 29.817570635219454,128.94429447178663 29.907516685139854,128.89052891904612 29.9409849827789,128.9687333181646 30.221281975565944,128.87586556483075 30.576882638059033,128.74878277305652 30.926207994736615,128.63391888092337 31.06426472251769,128.8587583065255 31.21696383053495,129.1520238445937 31.38848885596235,129.45506100233615 31.551646806990902,129.74587519432134 31.71480475801218,129.99514159771206 31.806842576537747,130.0684547356359 31.8800544776459,130.43257321831516 31.978367601972423,130.828453938042 32.0766807263135,131.18278588579778 32.13106670998968,131.3342916864167 32.24820575174817,131.57132296887357 32.365344793506665,131.84989271866834 32.46993322365597,132.12357202040403 32.614265257252555,132.4876582268189 32.74604667923268,132.8273039630476 32.8694610267994,133.1327365275829 33.01797659760632,133.47725963194534 33.10792264752672,133.69227854971177 32.96149884532497,133.75336310589591 32.94685646511061,133.7777968833143 32.96149884532497,133.7509197267409 32.974049456948705,133.74114620752698 33.16858393701841,133.81933424583985 33.279447672961396,134.13452710193087 33.42168793795281,134.49613843538646 33.57857058317313,134.857744130657 33.724994385374885,135.24621964305334 33.837949889930314,135.5687226726477 33.940446551467176,135.9303116463252 34.05340205601533,136.31876919569004 34.12870572573593,136.51421707509508 34.24375299888197,136.8733482606658 34.34415789182094,137.21048676323153 34.44665455336508,137.56472121584738 34.54287590909371,137.91406437887417 34.641189033434785,138.238973228983 34.73741038917069,138.59807771738087 34.81271405886946,138.9400768251271 34.879650654162106,139.26252851000027 34.91730248901149,139.541005904759 34.940311943639244,139.81459447684574 34.96541316687217,140.19077349708277 34.992606158717535,140.57915972423325 35.01770738195046,140.71839094000825 35.04699214239372,141.01883440193888 35.084643977243104,141.41697706295236 35.13902996091201,141.79313011276463 35.197599481798534,142.16194958723645 35.25826077128295,142.53809056527643 35.29172906892927,142.77256497428607 35.32728913518076,142.94109199296327 35.37749158163933,143.25127620605963 35.42978579670307,143.6054184690729 35.45488701995055,143.81545891439418 35.47998824318347,144.08411252841324 35.47998824318347,144.21111133660997 35.52182361523592,144.39916598828677 35.55320014428435,144.76061740535806 35.5762095989121,145.1098522814682 35.58876021053584,145.38825953903688 35.59712728494196,145.4810612164856 35.624320276780054,145.7106216673783 35.655696805828484,146.01344262087878 35.67870626045624,146.28939698662543 35.705899252287054,146.56779010388527 35.72472516971902,146.88525186700463 35.75400993015501,147.20759321750666 35.77492761618487,147.4639979155072 35.8063041452333,147.7838893322387 35.82094652544765,147.94749621668598 35.84813951727847,148.28691577948666 35.87533250913111,148.56528495675775 35.88997488934547,148.78016414568992 35.90043373235676,148.92911332620497 35.89415842654853,149.2221253204043 35.90461726955982,149.53222565584474 35.919259649774176,149.83988016620788 35.91716788118356,150.09869747217635 35.950636178822606,150.45029372218596 35.950636178822606,150.8653657807845 35.95691148463811,151.28287196008387 35.95481971602567,151.653982266811 35.95691148463811,152.08856443469267 35.96318679044634,152.45966187587874 35.961095021841174,152.81610515484317 35.93599379860825,153.07488931589796 35.982012707871036,153.19939764979972 35.99874685669056,153.50212101281977 36.01757277412253,153.8219293153652 36.03430692294205,154.10999714953323 36.05313284036674,154.4322382932187 36.05313284036674,154.8008571544142 36.03430692294205,155.1133241946991 36.000838625303004,155.46484459526437 35.98410447648348,155.70651178771732 35.973645633457636,155.7870669603235 36.172363650730404,155.79439014399577 36.53423961902445,155.83832919758788 36.89193205011543,155.8822681681322 37.2684503986311,155.9237660085273 37.65333582156018,155.9554996012048 37.99847764104197,155.98967419103246 38.339435923306155,156.01896665662753 38.63228352770966,156.02873080362042 38.95023235533881,156.05314115317378 39.27236472018558,156.07755147709395 39.586130010618945,156.09463868859348 39.92499652427796,156.1214899955794 40.23457827750826,156.14101819936695 40.401919765739876,156.15322331839707 40.73032743639487,156.1849565979137 41.0712857186445,156.2166898341202 41.41433576952113,156.25330505285274 41.723917522751435,156.27283314593478 42.046049887590925,156.29724323921982 42.284511508318246,156.32409431224005 42.594093261541275,156.31433028927313 42.96224453564355,156.36070936183933 43.30320281791501,156.39732435377846 43.67762939782551,156.42661630582188 44.03950536612683,156.45102623766616 44.395106028612645,156.48520009920867 44.79881736896641,156.51693292565687 45.11049089079461,156.5340198142785 45.34476897431159,156.55110669033638 45.55394583460293,156.56575257410987 45.80495806694671,156.57551649149536 46.1354575061996,156.60236724317474 46.21285294450354,156.89772346535392 46.20657763869531,157.2077214155761 46.20239410149952,157.56165103070998 46.194027027078846,157.90825274374583 46.187751721270615,158.2280004475324 46.179384646857216,158.59899990741906 46.17520110964688,158.94070470082988 46.17729287825932,159.2994893312116 46.17310934105626,159.62165856918182 46.16892580383865,159.91941707895785 46.164742266635585,160.16103798643235 46.164742266635585,160.43926501357055 46.15637519222946,160.9249340432052 46.143824580613,161.42035481822495 46.13754927479749,161.8986821085673 46.12499866318831,162.33063248757753 46.12081512597797,162.6991261902749 46.081071522523416,163.0456513682111 45.99112547259574,163.42145453144985 45.84679343899916,163.75332760360106 45.66480957055319,164.0559136330412 45.610423586877005,164.1510810064974 45.67945195077482,164.10959784026818 45.78404038091685,164.19500427837374 46.00576785281737,164.3438547499627 46.25259654795809,164.54150718355595 46.488966400080244,164.68547518356354 46.66258319412009,164.83432251846352 46.90941188926081,165.05881178056188 47.1750665018335,165.2564581429815 47.4281705027679,165.43702248862064 47.68754980953236,165.42970233968845 47.779587628057925,165.45410282718876 47.92182789304934,165.65662588622763 47.974122108120355,165.78838693035686 48.26069440671563,165.83474712036877 48.59956092037464,165.9665071563013 48.93842743404821,166.05434676594996 49.233366807049606,166.16658578481656 49.50738849402842,166.30078390141352 49.739574808954785,166.40570189010396 49.98012819827272,166.52281908640725 50.239507505029906,166.6374957702301 50.55536456406844,166.75217188917668 50.87540516030276,166.87660703880647 51.0343795741137,166.95468365586203 51.30630949249462,167.1108361044735 51.561505262041464,167.26210779033318 51.799966882768786,167.39873943601378 52.130466322021675,167.52317113000754 52.500709364736394,167.63540306791765 52.812382886557316,167.7305558089065 53.13660702000925,167.82082856270245 53.423179318604525,167.95013757325978 53.64909032770811,168.05992767890712 53.8478083449736,168.1501991557434 54.046526362253644,168.24291003794133 54.32054804923246,168.37953592835584 54.65732279429358,168.54055827007505 55.03802468001231,168.66498386240528 55.397808879708464,168.69670008353023 55.69902355851809,168.73085596566125 55.973045245496905,168.72597655699246 56.30354468475707,168.74549418552488 56.47716147878964,168.80892636526005 56.755366702971514,168.82112484155004 57.05867315038631,168.89675525195526 57.431007961698924,168.96994573782285 57.633909516174754,169.04069632217397 57.887013517123705,169.15048128613307 58.217512956376595,169.3041793661705 58.51245232937799,169.43835940036115 58.736271569883684,169.52618591320788 58.9119801325287,169.59693480768328 59.223653654356895,169.71891515551033 59.55833663082012,169.86041155858402 59.90766198749043,169.99702795964913 60.215151972115564,170.12388532879413 60.5393761055675,170.20683015810755 60.924261528489296,170.40199329718052 61.29450457119674,170.58495725486682 61.6270957790548,170.75084333421364 61.9053010032294,170.89477294582684 62.13748731814849,171.02406488949055 62.41569254233764,171.16067446531633 62.695989535117405,171.29728323996096 62.944909998863295,171.42413352762378 63.20638107421837,171.5583013494179 63.507595753028,171.72418049712542 63.79207628302538,171.8681040947231 64.07446504440304,172.0193448831833 64.40914802086627,172.1900994319949 64.708270931078,172.3510954316771 64.99484322967328,172.48769722556972 65.28141552826855,172.64381258067624 65.60145612451015,172.80480544497186 65.89639549751155,172.94628310428743 66.21016078793764,173.10239538651877 66.51974254116794,173.2609458524912 66.81259014556417,173.4146168129464 67.04268469188537,173.53169876920037 67.30624753583834,173.6658544541242 67.60537044605007,173.81220522946023 67.90449335626909,173.970750865421 68.22871748971374,174.1390519755114 68.55921692895936,174.30003450857112 68.87298221939272,174.47321144635134 69.1846557412282,174.6585825170132 69.49842103165429,174.80736612539476 69.83937931391847,174.9829783424866 70.19707174500218,175.16346729771067 70.52338764705928,175.3317597938858 70.80368463984632,175.48053910448652 71.11954169887031,175.63663440935306 71.45422467534081,175.80980141494365 71.77426527157513,175.9634555679113 72.0796634875951,176.11710870787647 72.40597938963765,176.32929471206626 72.54821965463634,176.47318986859682 72.66326692779694,176.5390398981781 72.94565568918188,176.74146660193765 73.21340207035246,177.01217908468607 73.44558838526427,177.25118388866758 73.66104055136384,177.46335956942494 73.87230918025307,177.67797208647426 74.15888147884834,177.96818359783174 74.42871962861682,178.24863666774036 74.72575077022339,178.55835048560039 75.00186422580009,178.8412351019324 75.26333530116244,179.1192390532524 75.53108168233302,179.37529239162723 75.79464452628599,179.63622004369972 76.04565675862978,179.89226770486857 76.2903936851726,180.13368149590679 76.51002938847523,180.38972369466137 76.74221570339432,180.60187081533877 76.85307943933731,180.71403977730733 76.89282304279914,180.74573960355883 76.93465841485158,180.77987782978926 77.07899044844817,180.92618394760575 77.26724962271692,181.12613415754095 77.39693927609187,181.25049256975763 77.57892314453784,181.45775511652937 77.80274238504353,181.69915270196543 78.03283693136473,181.9307945004566 78.20436195679213,182.09172323767962 78.39471289966605,182.25752744195597 78.65409220640868,182.5232993693662 78.90301267015457,182.7841918022168 79.16030020830658,183.04751952307743 79.42386305226682,183.32791151351194 79.50753379638627,183.43762920102745 79.62258106954687,183.54490821874424 79.81293201240624,183.72045463811446 80.05348540172417,183.95695258669548 80.28357994805265,184.18369579131286 80.49484857694188,184.4177509813453 80.51994980016752,184.49333080157885 80.6245382303241,184.60548105135967 80.70402543721866,184.80296170250222 80.8567245452432,184.9711846424816 80.90692699170177,185.0589526514159 80.81279740457103,185.18329009890658 80.67264890817751,185.35394826172706 80.59106993266323,185.49047389326734 80.51994980016752,185.6318745981025 80.44673789907392,185.82690864699362 80.43837082466052,185.89517017897379 80.62035469310649,185.97318311386516" stroke="red" stroke-dasharray="none" stroke-linecap="round" stroke-linejoin="round" stroke-width="0.5"><title>2024-05-01 52.5km</title><desc>1714541844000</desc></polyline><polyline fill="none" opacity="1" points="186.0,148.14801594802339 185.7907210732301,148.18430908280152 185.58374191487383,148.22194629839214 185.33306715643994,148.26361594291393 185.055945061089,148.2810902693518 184.7868721552295,148.2837786251357 184.57644334425277,148.26092758286995 184.38556256488664,148.28646698035118 184.10614070111478,148.29184368907772 183.83246825840615,148.28915533499548 183.5530463946343,148.30125292387947 183.30237163618585,148.30662962635324 183.02294977242127,148.3133505012538 182.75962628763227,148.28243444731652 182.54689770822006,148.26092758286995 182.2628763075918,148.2461415924754 181.99495328595367,148.33620144935685 181.78912401181879,148.37249404728118 181.5867443903262,148.38727989082327 181.42806036891852,148.21522537520286 181.3199712528949,147.9477297493013 181.24867843168613,147.81330771329704 181.14748862093984,147.56059043998994 181.09459394714213,147.3979346455635 181.01985147329106,147.20973526297348 180.93935957837675,147.01212291412594 180.83931965184456,146.7674557519249 180.74502914636832,146.52816133696888 180.64383933562203,146.34532661467802 180.3011738401401,145.74034004318491 180.15398866086616,145.53463805149113 180.10224387127528,145.35313353034599 179.97115707099147,145.4553141721144 179.75497883893695,145.5816943562313 179.55489898587257,145.47144788258993 179.4594585961895,145.44993626407268 179.18808592190908,145.42842460916563 178.98340653198102,145.4526252183805 178.75917911044235,145.52657123890458 178.52805238361907,145.60320575182232 178.43951129921334,145.6260615697629 178.19688573025633,145.72286222554249 177.9094146770003,145.82100658249692 177.7702786872178,145.88016171940944 177.59204663419223,145.987715808732 177.46210971812252,146.0468701700829 177.27467859139142,146.17190007379395 177.05620059091598,146.24046433777494 176.8802683063186,146.29423997241156 176.62614389523515,146.36952547885448 176.43756288429722,146.43136681144097 176.22943384173414,146.4958965769847 176.038553062368,146.59941239194268 175.8534217040651,146.78493213389356 175.59699752455344,146.88037964243085 175.45096222950087,146.93684121168917 175.18993851314008,147.04707498164043 174.92316537571605,147.17075075698813 174.76793100695068,147.2460310749284 174.52185578535864,147.3670163667257 174.4264153956683,147.3939018308438 174.1929889004241,147.55924618574863 173.96071228938672,147.71921144290445 173.82157629961148,147.81868462201055 173.61689690968342,147.88858422845715 173.31677713008685,148.00956340888206 173.14889403497364,148.0525779513282 172.86717240278085,148.09693654589046 172.68894034976256,148.10769012127548 172.43711570710002,148.14936014004616 172.18414118023065,148.10500172828506 171.93691607442452,148.03375910690738 171.797780084642,147.95579502629334 171.56895312624692,147.76625966510528 171.36312385211204,147.81734039504317 171.16074423061946,147.96654872099043 170.92271819851157,148.08483876271202 170.68699193483917,148.16683462342462 170.41331949213782,148.27436937740913 170.15229577576974,148.36442903446823 169.9867124490993,148.42088401678848 169.8004312065823,148.5203517094469 169.63139822726225,148.59831233033856 169.39107242673344,148.63460418055638 169.15764593148924,148.67627247351538 168.96561526790902,148.715252365967 168.84027788868116,148.7434791100859 168.56430567755888,148.86176192823223 168.382623971891,148.967946703312 168.10550187655463,149.1157974458174 167.908871676118,149.21660378525758 167.71569112833095,149.3093449122116 167.45121775932785,149.44643925306718 167.23273975884513,149.59294039658744 167.12810029545653,149.6682063832841 166.887774494935,149.73406375647664 166.61180228379817,149.8160489897282 166.29443424099736,149.911473760003 166.11275253533677,149.95448187325746 165.81953206101025,150.03377770103725 165.5723069552041,150.14936056506667 165.29058532300405,150.28644585696657 165.14455002795148,150.36842753186647 164.9122734169141,150.46922394937155 164.6983949532878,150.5659877591952 164.50981394234987,150.6345283460696 164.31663339455554,150.72188346104667 164.1993452048264,150.77429624226716 164.153349836306,150.79445494680385 163.94407090952154,150.88180896423546 163.6979956879295,151.01485470048374 163.47491815059766,151.11564599914436 163.22079373952147,151.26078406721172 162.9643695600098,151.40726432848714 162.81488461231493,151.46504965603071 162.57915834864252,151.58196335375214 162.3606803481598,151.69887597781053 162.16979956879368,151.79159901968615 162.02951369480434,151.70693887782636 161.92142457877344,151.46908118072224 161.78458835741912,151.2325629057941 161.69489738880657,151.1022072054311 161.55691128323815,150.88987238177288 161.42122494609794,150.68828541085168 161.3108360616534,150.5323892974875 161.17055018765677,150.55658019885686 160.95782160823728,150.7003807191386 160.76809071308526,150.79042320845474 160.55651201788714,150.88449677065 160.25869200670422,150.90331139965838 160.11955601692898,150.86030649248914 159.87118102690874,150.7339787374085 159.5676115946626,150.58211498931087 159.20999760440463,150.52298171231723 158.9466741196229,150.4759436821587 158.67300167691428,150.46922394937155 158.4131278447676,150.427561526918 158.23144613909972,150.39530665458733 158.02791663339303,150.36305170051037 157.8048390960612,150.34289231270122 157.53346642178076,150.3133251528243 157.25174478958797,150.28778982310814 156.97692246267252,150.26494237940824 156.72394793579588,150.24075092372823 156.48937155633757,150.21924736896472 156.24559610317374,150.20983955233623 156.00986983949406,150.28913378910693 155.85923500758508,150.3442362728847 155.76264473368792,150.19102389820273 155.63960712289554,149.99614584436858 155.51082009103266,149.79185668075024 155.40043120658083,149.60906885977965 155.2923420905572,149.45315952592136 155.17505390082806,149.27708720558712 155.0738640900745,149.09698017399933 154.9151800686741,148.851008990202 154.7622454683369,148.61444205432963 154.61506028907024,148.38727989082327 154.496622215127,148.29990874790565 154.27009502515284,148.40475404740482 154.16200590912194,148.4840595333153 153.90213207697525,148.6050330511507 153.74574782400305,148.66820765327066 153.5468178551455,148.76364103183187 153.30649205461668,148.82950308688123 153.0454683382559,148.97601133356875 152.8936836221401,149.06203373822973 152.783294737681,149.11848562523483 152.56136708456324,149.2045070666927 152.35438792621426,149.2851516399105 152.14510899943707,149.3590753830431 151.95767787271325,149.42627841322337 151.62306156671548,149.81336095766983 151.49427453485987,149.87652956096736 150.66750778567803,149.86443346971282 150.5525193643698,149.82008103675162 150.33174159545888,149.86174544787355 150.05691926854342,149.90475372918172 149.7901461311194,149.9396978507193 149.54637067795557,149.965233878861 149.3163938353391,149.98404986680634 149.07146849796118,149.9948018474306 148.84954084484343,149.99748984116377 148.55862013894512,150.0042098230242 148.28034815938736,150.01764977609128 148.2125049908209,150.0163057814234 147.91123532700294,150.01227379656848 147.5869679789248,150.02974572171843 147.28799808352778,150.02571374112085 146.96143096702144,150.01899377061545 146.6590114189894,150.00958580595216 146.35659187095735,150.0082418104339 146.08751896510512,150.0042098230242 145.7931486065645,150.00152183070622 145.51717639542767,150.0055538189672 145.2412041842981,150.0055538189672 144.98018046793732,150.00286582693752 144.7134073305133,150.0055538189672 144.43628523516963,150.00689781476922 144.16721232931013,150.00017783433395 143.87514173919772,150.00286582693752 143.73025632835197,150.00017783433395 143.43473608560453,150.00286582693752 143.13231653757248,150.0042098230242 142.85174478958652,150.0055538189672 142.5803721153061,150.01092980133126 142.3457957358478,150.0136177916611 142.11466900901723,150.00689781476922 141.88584205062216,150.0042098230242 141.6110197237067,150.0055538189672 141.30860017567466,150.00689781476922 141.07517368043045,150.0082418104339 140.90499081689632,150.0163057814234 140.57037451089855,150.0082418104339 140.28290345763526,150.02168175924544 140.05177673081926,150.02033776500048 139.78615347760206,150.02033776500048 139.46878543480125,150.01899377061545 139.1882136868153,150.02168175924544 138.93753892837412,150.01899377061545 138.68111474886246,150.0163057814234 138.4258404535649,150.02168175924544 138.18091511617968,150.02302575334488 137.94173919986497,150.02436974730244 137.65081849396665,150.02436974730244 137.38174558811443,150.03243370807286 137.15291862971935,150.03243370807286 136.85624850275053,150.02974572171843 136.5365806915288,150.02705773479465 136.3548989858682,150.00017783433395 136.08582608001598,150.04049766373555 135.82020282679878,150.0378096790837 135.639671005345,150.03915367148147 135.33265192046383,150.0378096790837 135.0371316777091,150.04049766373555 134.769208656071,150.03243370807286 134.49323644494143,150.0351216938625 134.23451249700156,150.04587363133305 133.9550906332297,150.04721762288227 133.69406691687618,150.04721762288227 133.43879262157134,150.04856161428688 133.2479118422125,150.0620015205177 132.97193963108293,150.05528156917626 132.70401660943753,150.05259358764488 132.50508664057998,150.05528156917626 132.21761558732396,150.05662555972685 131.94624291303626,150.05931354040604 131.750762596821,150.0633455103589 131.71281641779206,149.9786738730927 131.6656711650503,149.84964934256823 131.4069472171177,149.8483053301561 131.1447736165428,149.83755322576508 130.98378982672148,149.82142505214324 130.73081529984483,149.8227690673957 130.4318454044551,149.81336095766983 130.16277249860286,149.7985767711898 129.89139982432243,149.7837925675376 129.61312784476468,149.77035236749543 129.34060528627015,149.76497628350535 129.05773376986326,149.77438442899802 128.7760121376632,149.7837925675376 128.5172881897306,149.79185668075024 128.2528148207275,149.79992078885425 127.99179110436671,149.80395284098722 127.74456599856057,149.80932890851454 127.50768985067407,149.81739300554818 127.36740397668473,149.81873702122084 127.14202667092468,149.8281451269704 126.85570550187549,149.83755322576508 126.62342889083811,149.83889723931043 126.62227900663129,150.04587363133305 126.60618062764843,150.3549879492175 126.60043120657792,150.62780869700782 126.56363491176307,150.89121628420162 126.53258803800418,151.04979577439644 126.43024834304379,151.3010999035614 126.302611195395,151.56986888308893 126.1738241635394,151.8440073968186 126.05768585801707,152.09798339928693 125.9610955841199,152.3855479955464 125.93694801565289,152.65966894771645 125.97949373153097,152.99559344042427 126.03928771061328,153.32613449179007 126.08758284756186,153.59754796517154 126.13587798450317,153.86626847832667 125.86680507865094,153.9213554832868 125.59428252016369,153.95628858250348 125.33325880379562,153.99256516104924 125.08143416114035,154.02884163628278 125.00669168729655,154.0489951889922 124.7824642657506,154.07452297664713 124.5478878862923,154.11348634338538 124.30411243312119,154.1564802649118 124.13967899065756,154.16319805204057 124.03503952726896,154.1511060326602 124.20982192765223,154.16319805204057 124.47889483350446,154.1336397621708 124.74221831829345,154.08930219875128 124.94919747664244,154.0610873053156 125.18952327717125,154.02749806497013 125.3850035933865,154.00062660891854 125.65637626766693,153.96031931855032 125.90015172083076,153.9267298124796 125.93579813143151,153.87298641851703 125.87945380499878,153.64188724040105 125.81621017328143,153.40406568501476 125.78516329952254,153.25492108789513 125.74261758364446,153.09368172078212 125.67017487822159,152.8047894157762 125.60578136229014,152.52798412877382 125.55058692006423,152.27132919041924 125.49999201469473,152.05095118846293 125.45054699353204,151.83863218857914 125.34590753014345,151.60480843365895 125.225169687772,151.38307504372733 125.09753254012321,151.12639702389606 125.14007825600856,150.89927969578366 125.19987223509088,150.66006298014872 125.26196598259412,150.4557844731571 125.33210891958879,150.19236787442242 125.39535255130613,149.97732987430754 125.45974606723757,149.75288008621828 125.45514653038117,149.58890827759114 125.1987223508695,149.52036205922923 124.9652958556253,149.45987979522124 124.68702387606754,149.3873006989461 124.43059969655587,149.32816186997752 124.1730256328301,149.26095832161081 123.92120099017484,149.19509849985843 123.73376986345102,149.1493996477011 123.47159626287612,149.0795069681144 123.20942266230122,149.0069257021878 122.96679709334421,148.94106456554618 122.75981793499523,148.88998834732047 122.46429769224778,148.81202951366686 122.21247304959252,148.75019975421583 121.93420107002748,148.67627247351538 121.68122654315812,148.62250690865312 121.45469935319124,148.56202037659568 121.21322366844834,148.45852053249746 121.02349277329631,148.29318786590284 120.84986025712715,148.11978788272245 120.64518086719909,147.91950123956758 120.46119939311757,147.74340769319497 120.2783678032356,147.5807542365401 120.02539327636623,147.46514803592436 119.74597141260165,147.44363978965157 119.5217439910557,147.5000988585507 119.36650962229032,147.58747549495638 119.13423301125295,147.78104621328748 118.90540605285787,147.96654872099043 118.69037770502473,148.0861829614105 118.44660225185362,148.16817881345924 118.20742633553891,148.2044718907173 117.97744949292974,148.21522537520286 117.84866246107413,148.22194629839214 117.57728978678642,148.24076486443028 117.32891479677346,148.25555086107943 117.08398945939553,148.27571355608052 116.83446458516119,148.29318786590284 116.57229098458629,148.31200632655873 116.32851553142245,148.3308247593768 116.11118741515384,148.3402339653485 115.84901381457894,148.36846154151226 115.59258963506727,148.3886240575648 115.35916313982307,148.4155073626025 115.11193803401693,148.4289489938119 114.85206420187023,148.4558322136354 114.6025393276359,148.54320228575034 114.38636109558138,148.68568142400636 114.20812904255581,148.87789131823592 114.11498842130095,149.02843130562542 114.03334664217982,149.24886164521104 114.0,149.49213703846453 114.01494849476876,149.79051266223723 114.03794617902895,150.07409742398977 114.05979397907504,150.37380336094975 114.0758923580579,150.64124799158435 114.10348957916722,150.9140626037497 114.12533737922058,151.20031007328544 114.14603529505257,151.50670868294583 114.15408448455128,151.82385035422521 114.15178471612307,152.05229496832908 114.13683622134704,152.37882927066494 114.11268865288002,152.68654323324427 114.09199073704076,152.97140717299226 114.07244270542287,153.24417186026676 114.05404455801181,153.5182743308187 114.03219675796572,153.80043247695448 114.01839814740379,154.08795863381692 114.08509143176343,154.37010416068642 114.22537730575277,154.61328171958849 114.2656232532172,154.63880837643956" stroke="red" stroke-dasharray="none" stroke-linecap="round" stroke-linejoin="round" stroke-width="0.5"><title>2024-04-21 79.4km</title><desc>1713660889000</desc></polyline><polyline fill="none" opacity="1" points="19.372103854620946,194.3933069951945 19.41131878955639,194.2750743163342 19.71884643708472,194.40054571074506 20.37518061103765,194.1375375724856 20.56919134169584,194.8010843938373 20.682708258580533,195.46461193001232 20.767329960239294,196.11846929270177 20.754946296576236,196.47796222702164 21.33285060068738,196.38145461248132 21.945841951812326,196.42488308949942 22.084126196008583,196.72646745711063 22.063486756589555,197.28137228703054 21.82200531521812,197.53469392225816 21.9540977275974,197.32962424371544 22.082062252076867,196.83744950182154 21.712616286233242,196.29218470588967 21.974737167023704,196.17637457727142 22.360694684401096,196.04850021125276 22.975749979486864,195.78068553924277 23.691938527779712,195.49115263036583 24.26365100005205,195.31743112267395 25.0458857545309,195.1195800178266 25.559807796380483,195.02789233908152 25.743498807336437,195.75655793706392 25.906550378851534,196.42729578024773 26.079921670083422,197.04734885077596 26.315211279608775,197.73011154951564 26.562884552797186,198.4538659748523 26.800238106268807,199.18242226626717 27.08093448254658,199.96643867411694 27.31416014813294,200.65152636730636 27.524682430332177,201.2618160594684 27.805378806617227,202.07953044852184 28.044796304020565,202.76937882757738 28.22229548314499,203.3072531496291 28.412178325925197,203.84993862672127 28.608253000515106,204.48184947725713 28.84354261005501,205.1330370374435 29.078832219573087,205.83967514243704 29.322377604876237,206.52458679376286 29.541155662860547,207.16365838577076 29.77438132843963,207.8388844339861 29.98903149853868,208.48274212955585 30.160338845831575,208.96743202991456 30.760946533293463,208.73352823618552 31.301699846422707,208.6828889554945 31.664953980434802,209.33154554595603 31.995185011342983,209.90061201386197 32.222218845097814,210.5010100134241 32.397654080268694,211.18095980141334 32.668030736836954,211.79579061309414 32.95079105705372,212.5335657758933 33.29134180767869,213.33882262167936 33.46884098679584,213.7896576422263 33.75160130701988,214.47915284594274 33.95593175740214,214.99987671276176 34.15407037595287,215.58808757021325 34.33156955506274,216.21967420097644 34.56685916460265,216.94766465014618 34.816596381722775,217.72866177350988 35.025054719990294,218.54096693319661 35.169530796010804,219.10739412857765 35.200489955161174,219.75334506238323 35.241768834028335,220.39445744888326 35.28304771288822,220.9150467835716 35.421331957084476,221.804359522328 35.526593098184094,222.48156367908268 35.63185423929099,223.12018982529298 35.722667772788554,223.85760013296021 35.7825221471503,224.33714507976765 35.82380102601019,225.00704533658245 35.88778328824992,225.69379325432965 35.94763766260439,226.43834932206482 35.997172317242075,226.9443444939443 36.061154579489084,227.6671753610135 36.1003695144027,228.17073405949122 36.13132867355307,228.65500734857596 36.145776281147846,229.3416459677319 36.17467149635195,229.92707949491523 36.189119103961275,230.88108728746192 36.193246991846536,231.77724026947544 36.193246991846536,232.4276519520954 36.23658981465269,232.93592379719303 36.26754897380306,233.68747100237124 36.27580474957358,234.4775325389619 36.226270094943175,235.0291142493461 36.2634210859178,235.38077077487287 37.0229524570168,235.45302829745197 37.77422805234528,235.51324272573947 38.48422476882115,235.55659701625518 39.09721611995337,235.6071769183127 39.867067210769164,235.6625738259445 40.48625039374019,235.74446466177324 41.19418316626252,235.78059287877477 41.867028891749214,235.833580827466 42.56876983244729,235.89379425696643 43.25193527765077,235.94196488679154 43.833967469632626,235.9877268914479 44.39536022219545,236.03348880482918 45.043438620363304,236.0864761694429 45.586255877424264,236.12501235776108 46.13939285420929,236.16595698692072 46.31070020149491,236.71027276174573 46.29418864994659,237.545989106884 46.27767709840555,238.3286929525384 46.279741042351816,238.90908072163802 46.261165546864504,239.6219020484914 46.24465399530891,240.669420248616 46.224014555882604,241.59649418526715 46.1951193406785,242.44407188298464 45.95363789932162,243.20975438103596 45.627534756291425,243.75631086173235 45.4273321938017,244.1174643941231 45.5903837653168,243.90318065011888 45.93919029171957,243.67685632239954 46.475815716949,244.07653394581394 46.99180170276668,244.50028093775472 47.590345446289575,244.87586832636953 48.02790156225092,245.16236996124462 48.636765025505156,245.39590226358268 49.330250190418155,245.61739462445257 50.05882240237406,245.9785188938331 50.713092632373446,246.21445035029865 51.402449909415736,246.57797264719557 51.83587813748454,246.83074966156528 52.56445034944045,247.0666723656159 53.18776142029674,247.25685318988144 53.59848626500025,247.44943976204013 54.05255393250263,247.66850502531634 54.677928947297914,247.9621936395415 55.36522228038666,248.0970002709928 56.0318761740491,248.1234800520997 56.56024582351529,248.18606850428296 57.303265643073246,248.35457502816644 57.922448826044274,248.58807488291677 58.54163200900075,248.8649015335468 59.23098928602849,249.13209626819298 59.95336966616014,249.4305804060059 60.578744680955424,249.6472196908362 61.29906111714081,250.01550178821708 61.85426203786483,250.30675338539731 62.26705082650733,250.50894240630623 62.82431569117762,250.79296683616667 63.42079549076152,251.11549879726226 63.95535697205196,251.3971088235212 64.51468578066851,251.6739016410429 65.11529346814496,251.9771664668806 65.71177326774341,252.27802047572732 66.34746800225548,252.59331125165954 66.88409342748491,252.87490317455922 67.48263717102236,253.1733387127315 68.15961078438704,253.5199041536962 68.73751508848363,253.8255512837677 69.23698952275299,254.0902817348615 69.77774283587496,254.36463553164867 70.33500770054525,254.65823860042474 70.78081959227711,254.88686134476302 71.35046812060318,255.17323820719685 71.86439016246732,255.4331401717991 72.31020205419918,255.7700457542942 72.78903704903496,256.13101054451 73.21627344527224,256.57137991682976 73.63731800969254,256.98286498887137 74.26475696842681,257.63015701725635 74.80138239367079,258.1715582938923 75.33594387496123,258.7153529721072 75.8085870379582,259.18454601521626 76.2234397705397,259.64410530994974 76.55573474540142,259.9544830959967 76.7683209715542,260.14455734753574 77.09029622669186,260.5319189997881 77.19762131173775,260.6786816491949 77.58770671700768,261.0251340267969 77.98604789804813,261.38120464651183 78.48552233231021,261.8960537736166 79.09644973950344,262.5263673973586 79.55464529489836,262.9810485693797 80.02728845788806,263.4766167603739 80.1779563657401,263.7147743769565 80.28940933867852,263.93849595418396 80.46897246174194,264.11169826272817 80.71458179097681,264.3546604161347 80.74966883801244,264.4989931546006 80.82397081996896,264.70105746830814 80.6856865757727,264.87425403997077 80.58661726649734,265.0715041041385 80.45452485413989,265.40105227051754 80.40086231161695,265.692109137226 80.28528145078599,265.98075694169165 80.34513582514774,265.72097408050104 80.44833302230836,265.4130794866451 80.34719976908673,265.17012850252286 80.65885530451487,264.65535260016986 80.7310933425324,264.3931492348729 80.64234375297383,264.24641026845893 80.41324597527273,264.02028609560875 80.53708261186694,263.7388305648601 80.47516429357347,263.63298315006614 80.10778227168339,263.3755794513836 79.66403432388324,262.91368896248605 79.33380329296779,262.5889166628185 78.83226491476671,262.0788946174416 78.36581358360127,261.60494890652626 77.96540845861455,261.19354649304114 77.45974219252821,260.70755287988686 77.02425002051314,260.25763875226403 76.6135251758169,259.8293700735285 76.21724793870817,259.42515412065404 75.86018563653488,259.0714593364264 75.41437374480302,258.61670090969164 74.94379452575231,258.1402776780724 74.51036629766895,257.70715708717944 74.06249046199082,257.2547779853048 73.70336421587126,256.89864349726486 73.36694135313155,256.5473162344824 72.91493762956088,256.10213356977874 72.47531756966055,255.67860044133886 72.15540625846188,255.46201798654693 71.54654279521492,255.1227013729731 70.8509936863411,254.74728141320156 70.20291528817324,254.43683335515925 69.59405182493356,254.12156785950538 69.03265907237073,253.83277124558845 68.38045278631762,253.5247175258155 67.74888593968353,253.1925924853913 67.29894616007368,252.9567326592187 66.58688549965882,252.60534516506232 65.9449989333225,252.27561365926886 65.36503068527236,251.96031852596388 64.74791144625488,251.6474259504812 64.15349559059541,251.3369360308352 63.583847062283894,251.04329054246045 63.02039036578208,250.77371105352358 62.39088746309426,250.44395327213533 61.800599495341885,250.16233156714588 61.224759135184286,249.8566357249365 60.624151447707845,249.55093581637084 60.16182800442766,249.30300298279872 59.60043525187211,249.02377445292586 59.049362219033355,248.73491378250037 58.535440177161945,248.47975050309287 57.96785559278942,248.19329023779392 57.728438095378806,248.20051196903478 57.41471861600439,248.35457502816644 56.80998304064269,248.23902783066478 56.31670043821214,248.1331090558342 55.64385471272544,248.09218576206695 54.935921940203116,248.0295970541374 54.46327877720614,247.8370153449814 54.102088587140315,247.66128312685942 53.52212033910473,247.38203464541948 52.9710473062587,247.16778135426102 52.424102161297924,247.004080863926 51.93494744675263,246.85241613337348 51.538670209665725,246.64056530984817 50.91329519487044,246.27945144824662 50.325071171049785,246.06278040646612 49.8049572973614,245.8268473921962 49.26833187213197,245.56683677368346 48.68423573619657,245.403124874254 48.16205791856919,245.2321891458214 47.94327986058488,244.9577263010142 47.59860122206737,244.85660758406084 47.128022003002116,244.5821402510337 46.68840194310178,244.1993250718915 46.292124706014874,243.92725757499102 45.825673374842154,243.59258605602554 45.575936157707474,243.84058052730143 45.18172286455956,243.90077295623814 44.66986476663442,243.58777060289867 44.21579709913203,243.25309413630748 43.76998520740017,242.92322838541804 43.30353387622745,242.56205607029005 42.82057099352096,242.23699612926794 42.378886989674356,241.84932603453126 41.93513904187421,241.57963862965153 41.489327150142344,241.34365955165958 41.02906765080115,241.12453395020566 40.59357547878608,240.97523838643247 40.147763587054214,240.82353383516056 39.685440143766755,240.67664434610379 39.24375613992743,240.55624242460362 38.81032791184407,240.44306404259987 38.436754058129736,240.37804642185802 37.79073960388632,240.36359803668347 37.22109107556025,240.33229317094083 36.636994939646684,240.3058044050449 36.048770915826026,240.26968331137869 36.0343233082167,239.85067447100846 36.0425790839945,239.4485151146073 36.04670697187976,239.07524713137173 36.05909063553554,238.49245530326698 36.07560218708386,237.98189823462053 36.08385796286166,237.48096327865096 36.127200785660534,236.95352475183972 36.17054360847396,236.46220124460524 36.2180143191581,235.9371478283647 36.25310136620101,235.5204684465225 36.30263602083869,235.0074366159115 36.33565912392805,234.51125407219297 36.343914899698575,234.01506079558203 36.31295574055548,233.5164480014555 36.29644418901444,232.97446527858483 36.286124469283095,232.61795410432023 36.28406052535138,232.11931093556996 36.28199658140511,231.54116035490188 36.27993263746612,230.91481410921006 36.271676861695596,230.34626962616494 36.255165310132725,229.8379403753661 36.242781646491494,229.44765150082094 36.22214220705064,228.73692321167255 36.205630655509594,228.30565699903855 36.151968112979375,227.72741023760864 36.102433458356245,227.13469216679732 36.061154579489084,226.65038675397045 36.0054280930126,226.04318341835096 35.96002132626745,225.42873509346646 35.91461455951503,224.9299355131625 35.854760185167834,224.31304758327133 35.80316158656933,223.7106019331859 35.73505143645161,223.19248600300853 35.66900523026561,222.7538856848314 35.60089508014789,222.33214668980145 35.516273378467304,221.84291972719984 35.431651676801266,221.3006608835858 35.35322180695948,220.7005461300796 35.31400687203859,220.21369449520353 35.278919825010234,219.6834482659342 35.227321226426284,219.1122147254173 35.1117403656026,218.51445297647115 34.987903729008394,218.0299652695412 34.83723582114908,217.48761612142334 34.67624819358025,216.99587512075414 34.509068734172615,216.4848389659128 34.376976321815164,216.05816324786247 34.23869207762618,215.50612466872553 34.04261740302172,214.98059085490968 33.84035089657846,214.44058023630168 33.629828614371945,213.9704713312476 33.510119865663,213.58232285363192 33.27483025613765,213.06397766251757 33.0601800860386,212.55044270714643 32.851721747778356,212.02001891457076 32.645327353457105,211.49922722578413 32.43686901519686,211.12068138137147 31.943586412766308,211.35456076364244 31.42347253906337,211.54744917652533 30.91574232903804,211.65835927746775 30.78777780456585,211.05075821514401 30.659813280086382,210.48413157010327 30.55661608291848,209.98741751852867 30.40801211901271,209.4231758489077 30.244960547490336,208.93367286720422 30.088100807814044,208.492387799899 29.9312410681232,208.04385982474196 29.741358225357544,207.47715867369516 29.56385904623312,206.96108668279885 29.36572042768239,206.38471213797493 29.18202941674099,205.84208683917677 29.006594181570108,205.3090956733904 28.81877528273617,204.78091569736534 28.62270060813171,204.20689804816357 28.46171298056288,203.73175488708148 28.275958025667933,203.21318635648458 28.100522790489777,202.70184214365872 27.93747121897468,202.21943145365003 27.76616387168906,201.72253779526181 27.555641589489824,201.10743601757895 27.39259001796745,200.62740391016087 27.22128267068183,200.12806332668515 27.041719547618413,199.59735122499478 26.897243471590627,199.1534734529905 26.721808236427023,198.663750468324 26.509222010266967,198.04615380283576 26.33172283114982,197.50574302044697 26.125328436835844,196.90982880560114 25.976724472930073,196.34767685102452 25.850823892382323,195.81928964969302 25.706347816361813,195.28123897552723 25.65681316172413,194.84210301891653 25.194489718443947,194.93137859523267 24.57943442335818,195.10510304039963 24.02216955869517,195.26434928722665 23.553654283583455,195.43083281222061 22.953046596107015,195.64557063866414 22.451508217913215,195.84824268970078 22.123341130944027,195.97370543881334 22.135724794592534,195.9857691283578 21.836452922827448,196.09434204745412 21.196630300430115,196.2415178468891 20.814800670937984,196.04367474944956 20.765266016293026,195.57318732731255 20.697155866175308,195.1726621898597 20.58983078112942,194.51636484735718 20.424715265668056,194.00482589376406 19.95826393450261,194.250945122958 19.458789500240528,194.28713890345352 19.242075386209763,194.4415650554929" stroke="red" stroke-dasharray="none" stroke-linecap="round" stroke-linejoin="round" stroke-width="0.5"><title>2024-04-05 108.1km</title><desc>1712276378000</desc></polyline></svg>