<?xml version="1.0" encoding="utf-8" ?>
<svg baseProfile="full" height="300mm" version="1.1" viewBox="0,0,200,300" width="200mm" xmlns="http://www.w3.org/2000/svg" xmlns:ev="http://www.w3.org/2001/xml-events" xmlns:xlink="http://www.w3.org/1999/xlink"><defs /><rect fill="#222222" height="300" width="200" x="0" y="0" /><text fill="#FFFFFF" style="font-size:12px; font-family:Arial; font-weight:bold;" x="10" y="20">Over 10km Runs</text><text fill="#FFFFFF" style="font-size:4px; font-family:Arial" x="10" y="280">Runner</text><text fill="#FFFFFF" style="font-size:9px; font-family:Arial" x="10" y="290">yihong0618</text><text fill="#FFFFFF" style="font-size:4px; font-family:Arial" x="65" y="280">SPECIAL TRACKS</text><rect fill="yellow" height="2.6" width="2.6" x="65" y="283" /><text fill="#FFFFFF" style="font-size:3px; font-family:Arial" x="70" y="285.5">Over 20.0 km</text><rect fill="red" height="2.6" width="2.6" x="65" y="287" /><text fill="#FFFFFF" style="font-size:3px; font-family:Arial" x="70" y="289.5">Over 40.0 km</text><text fill="#FFFFFF" style="font-size:4px; font-family:Arial" x="120" y="280">STATISTICS</text><text fill="#FFFFFF" style="font-size:3px; font-family:Arial" x="120" y="285">Number: 5</text><text fill="#FFFFFF" style="font-size:3px; font-family:Arial" x="120" y="290">Weekly: 1.2</text><text fill="#FFFFFF" style="font-size:3px; font-family:Arial" x="141" y="285">Total: 317.5 km</text><text fill="#FFFFFF" style="font-size:3px; font-family:Arial" x="141" y="290">Avg: 63.5 km</text><text fill="#FFFFFF" style="font-size:3px; font-family:Arial" x="167" y="285">Min: 18.7 km</text><text fill="#FFFFFF" style="font-size:3px; font-family:Arial" x="167" y="290">Max: 108.1 km</text><polyline fill="none" opacity="1" points="73.05493661155924,35.7060197583196 73.5389934690902,35.511995186287095 73.88474836724345,35.77069456099707 74.07837111019762,36.32042927959992 74.28582404914778,36.96717347810045 74.43795620434685,37.59774643898709 74.56242796772858,37.93728464898595 74.63157894735923,38.47084317069675 74.7422205148032,39.02056818600977 74.85286208224716,39.58645952072402 74.96350364963291,40.1846852270246 75.0603150211391,40.76674042562081 75.15712639258709,41.30028907889209 75.25393776409328,41.83383587145363 75.35074913559947,42.383548802361474 75.43373031116789,42.933259758065105 75.53054168261588,43.54764025351324 75.64118325005984,44.22668950962543 75.7518248175038,44.95423893946281 75.8901267767651,45.63328195249778 75.97310795233352,46.425494991999585 75.94544756051619,46.79734867757361 76.06991932383971,47.20153644113452 76.13907030347036,48.009908765074215 76.23588167491835,48.93144800470327 76.29120245866943,49.772145627532154 76.31886285054497,50.19249270678847 76.22205147903878,50.33799719593662 76.23588167491835,50.66134000974125 76.31886285054497,51.308023587524076 76.48482520162361,52.148708152613835 76.7199385323911,52.924720574723324 76.89973107952392,53.765396257527755 77.0933538225363,54.65456743455434 77.2731463695527,55.38206728179648 77.30080676142825,55.83473210783268 77.71571263927035,56.335895174823236 77.97848636191338,57.01488767948467 78.1997694967431,57.59687885704625 78.42105263157282,58.17886782127607 78.08912792929914,58.5830255219189 77.49442950444063,58.712355760711944 76.88590088358615,58.92251716562896 76.1667306952877,59.19734318270639 75.51671148673631,59.43983631735318 74.88052247406449,59.61766437187907 74.79754129849607,59.84399068784842 74.63157894735923,60.16731341576087 74.89435266994406,60.8624549676606 75.18478678446263,61.60609127175121 75.39223972341279,62.382055736583425 75.65501344599761,63.12568465688673 76.11140991159482,63.788481301264255 76.7199385323911,64.17645849291875 77.02420284290565,64.87158183495922 77.38378793693846,65.61519865914306 77.70188244333258,66.32648093633179 78.03380714560626,67.00542911737284 78.33807145594619,67.70053961107624 78.66999615827808,68.37948169690208 78.98809066455578,69.10691630395013 79.32001536688767,69.7696870471409 79.62427967734402,70.46478498725628 79.94237418362172,71.143714811682 80.28812908183318,71.82264162469073 80.60622358811088,72.50156542635523 80.93814829038456,73.22898044371686 81.22858240490314,73.92406267506885 81.56050710717682,74.6029771562753 81.90626200533006,75.15257238809136 82.27967729535885,75.6213432324439 82.54245101806009,76.21942808758467 82.68075297732139,76.55888061450969 82.25201690354152,76.88216803560499 81.69880906643812,77.14079748095537 81.03495966194896,77.43175508458808 80.2742988858954,77.8035334401211 79.55512869759696,78.17531089269323 78.7114867460914,78.54708744243544 77.9231655781623,78.98351963135065 77.32846715324558,79.30680193207809 76.89973107952392,79.51693506147421 76.12524010753259,79.85638027651294 75.41990011523012,80.21198874221591 74.83903188625118,80.48677653633058 74.06454091431806,80.85854747267149 73.24855935451342,81.2626452925906 72.55704955820693,81.56975892235641 71.86553976172581,81.90919958581799 71.5474452553899,82.03851011680672 71.00806761428248,82.28096706802899 70.42719938530354,82.58807865499693 69.87399154820014,82.92751706071431 69.23780253552832,83.34777309175115 68.53246254322585,83.84884608257562 67.77180176717229,84.39840812240436 67.09412216668716,84.89947767475678 66.4302727621398,85.27123789580946 65.82174414134352,85.67532406881219 65.21321552054724,86.04708240601758 64.99193238565931,86.12789931643056 64.92278140602866,86.12789931643056 64.42489435261814,86.435003186838 63.76104494812898,86.72594312744332 63.05570495582651,87.00071923040377 62.39185555133736,87.21084179988247 61.631194775225595,87.48561703262385 60.856703803292476,87.79271817975678 60.26200537843397,87.95435011506197 59.47368421050487,88.24528716862551 58.630042258882895,88.5523867920565 57.81406069919467,88.82715961727081 57.0119093353278,89.11809501238167 56.265078755270224,89.37670378839539 55.43526699958602,89.65147513432021 54.619285439897794,89.9585719374154 53.913945447595324,90.15252749575302 53.31924702267861,90.33031987503637 52.83519016514765,90.50811204787169 52.4479446792393,90.65357821751968 51.7979254705715,90.86369577421283 51.134076066024136,91.1384644517093 50.38724548596656,91.44555827254953 49.585094122216105,91.68800032761646 48.7967729542288,91.97893028699036 47.95313100266503,92.26985969362431 47.16480983479414,92.59311394156248 46.39031886286102,92.8840421812638 45.615827890869696,93.1426445969555 44.84133691893658,93.41740918511641 44.039185555127915,93.70833585871151 43.181713407626376,93.95077433112601 42.65616596234031,94.1447248327604 42.33807145594619,94.20937494536338 41.63273146370193,94.46797512283956 40.85824049176881,94.79122473053576 40.08374951983569,95.08214879409934 39.30925854778616,95.35690990212606 38.71456012292765,95.51853385308641 37.9124087591772,95.76096945955942 37.02727621974191,96.10037866393395 36.25278524780879,96.48827397626883 35.69957741070539,96.90849278923997 35.22935074917041,97.37719702796312 34.96657702646917,97.68427833754686 34.62082212831592,98.0560075200483 34.02612370339921,98.50854617646837 33.21014214371098,98.86411132554349 32.44948136765743,99.02573157497682 31.744141375354957,99.15502765165002 31.273914713819977,99.20351365224633 30.6653860930237,99.31664759399428 29.835574337281287,99.49442933360115 28.85363042645622,99.67221086686186 27.996158278896473,99.83383026340744 27.11102573951939,99.97928757448972 26.253553591959644,100.10858284613641 25.42374183627544,100.23787800861464 24.524779101077,100.399496808197 23.63964656164171,100.54495358205168 22.9066461774637,100.6904102176486 22.13215520553058,100.80354306101799 21.26085286209127,100.9489994510659 20.417210910469294,101.0782939040364 19.60122935072286,101.17526467209973 18.74375720327953,101.30455893398903 17.94160583941266,101.49850012225215 17.08413369191112,101.62779411127849 16.309642719978,101.77324971846247 15.49366116017336,101.91870518751966 14.691509796422906,102.01567542349221 14.248943526705261,102.09648390654183 14.013830195937771,102.14496897593199 14.497887053410523,102.24193906859728 14.73300038423622,102.79143510074937 15.03726469463436,103.35709072157624 15.189396849775221,103.59951391954382 15.50749135616934,104.1328436042968 15.64579331537243,104.55304144184629 15.659623511310201,104.82778555847472 15.867076450260356,105.28030420553114 15.867076450260356,105.26414284831844 15.659623511310201,104.77930133837799 15.57664233574178,104.45607281241973 15.369189396791626,104.1005206459522 15.27237802540185,103.85809824104945 15.134076066082343,103.56719084864017 14.88513253943529,103.16315188691078 14.650019208609592,102.7106269843789 14.691509796422906,102.4682023794594 15.35535920097027,102.33890909988258 16.06069919327274,102.22577739076223 16.76603918557521,102.11264559804113 17.526699961628765,101.98335201831651 18.28736073768232,101.8378966106684 19.075681905495003,101.7086027990299 19.85017287748633,101.59547062423371 20.610833653481677,101.51466187684855 21.385324625473004,101.35304425410868 22.14598540152656,101.20758824776567 22.823665001953486,101.09445570292883 23.52900499419775,100.98132307453488 24.317326162126847,100.85202853969531 25.14713791781105,100.70657205754833 25.93545908568194,100.57727729075123 26.709950057673268,100.44798241484386 27.470610833610408,100.33484930884151 28.175950825971086,100.2055542282178 28.89512101415312,100.09242094315414 29.614291202451568,99.99544948944822 30.291970802936703,99.89847797430411 30.734537072654348,99.8661541222391 31.121782558620907,99.83383026340744 31.550518632342573,99.70453475980321 32.14521705725929,99.60756306044641 32.753745678055566,99.51059129970963 33.51440645410912,99.3004856074549 34.23357664234936,98.96108349562564 34.814444871328305,98.58935651015781 35.22935074917041,98.20146651974937 35.60276603914099,97.71660265010723 36.03150211297907,97.26406165336084 36.50172877451405,96.86000606200832 37.165578179003205,96.55292309948709 37.94006915099453,96.31048874676344 38.673069535172544,96.05189168077777 39.44756050716387,95.7448070977116 40.2635420668521,95.47004668567388 41.0933538225363,95.1629609358788 41.93699577410007,94.88819947979937 42.794467921659816,94.58111256315897 43.54129850171739,94.33867508867115 44.32961966964649,94.06391215357871 45.1041106415214,93.78914872549649 45.850941221637186,93.53054740163498 46.542451018001884,93.25578301647329 47.22013061848702,93.02950609382242 47.93930080672726,92.80322883679764 48.67230119090527,92.54462584783323 49.391471379145514,92.28602242219495 50.15213215519907,92.02741855979548 50.80215136386687,91.81730260004406 51.07875528233126,91.76881426064938 51.64579331537243,91.57486074966437 51.936227429891005,91.42939545524132 52.240491740289144,91.34858134303067 52.793699577392545,91.1546272997657 53.4575489818817,90.94451014233346 54.19054936605971,90.65357821751968 54.923549750237726,90.37880866986234 55.68421052634949,90.10403862917155 56.431041106407065,89.81310510748881 57.16404149052687,89.5544970685296 57.924702266580425,89.27972554857843 58.51940069149714,89.0857688846736 59.07260852860054,88.87564888817724 59.3215520553058,88.7948334281391 59.94391087209806,88.58471303238184 60.607760276587214,88.34226606361335 61.24394928931724,88.11598187971686 61.82481751823798,87.92202374165936 62.36419515940361,87.7119021481194 62.97272378025809,87.51794349812553 63.65040338068502,87.27549484018527 64.36957356886705,86.9845559438545 64.83980023046024,86.74210644124832 65.35151747986674,86.51581989244733 65.94621590466704,86.1763894421747 66.58240491739707,85.72381433787814 67.17710334225558,85.33589175513771 67.77180176717229,84.93180468630453 68.28351901646238,84.5115530033654 68.739915482176,84.15595452448179 69.27929312328342,83.78419159528858 69.77718017663574,83.44475508890173 70.28889742604224,83.13764522042766 70.93891663465183,82.7658798185148 71.61659623507876,82.44260482213576 72.41874759888742,82.08700153775862 73.19323857087875,81.69906974001788 74.03688052244252,81.34346472859033 74.78371110250009,80.9555310466967 75.40606991923414,80.6645801402774 76.08374951971928,80.34130070677202 76.83058009983506,79.98569254144968 77.56358048407128,79.69473979178292 78.31041106412886,79.33913012457197 79.05724164424464,79.03201201996126 79.69343065691646,78.72489329919335 80.39877064921893,78.40160976960033 81.1041106415214,78.0783255573042 81.74029965425143,77.77120492330869 82.41797925473657,77.39942648925353 83.26162120630033,77.0276471524121 84.02228198229568,76.70436003855139 84.64464079902973,76.41340105231211 84.94890510948608,76.25175693210622 85.57126392622013,75.92846817965619 86.0,75.58901425474323 85.39147137920372,75.44353377082734 84.78294275834924,75.73449460047414 84.18824433343252,76.00929043175711 83.5520553207607,76.34874342469266 82.91586630808888,76.63970253382286 82.50096043030499,76.13860594636935 82.21052631578641,75.42736926404177 81.74029965425143,74.66763552128396 81.42220514791552,73.8917333389254 81.07645024970407,73.11582722362073 80.66154437180376,72.33991717531171 80.31578947365051,71.67715756116377 79.98386477131862,71.04672502118046 79.69343065691646,70.3192996330763 79.34767575870501,69.57570566321374 79.01575105643133,68.78361246096028 78.66999615827808,68.0561763173464 78.32424126012484,67.37723279738566 78.00614675373072,66.74678254641185 77.70188244333258,66.05166772106895 77.52208989625797,65.5505364700366 77.35612754512113,65.21105952897051 77.19016519392608,64.96857553863083 76.89973107952392,64.46744074120943 76.63695735682268,63.83697850396857 76.00076834420906,63.626823847793275 75.64118325005984,62.86703152921109 75.39223972341279,62.09106952333241 75.18478678446263,61.34743557583715 74.88052247406449,60.66846229408111 74.70072992698988,60.10264892480336 75.1986169804004,59.64999672322301 76.0284287360846,59.40750392158225 76.77525931614218,59.18117696007539 77.5497502880753,58.90635091395234 78.28275067225331,58.66385693398479 78.79446792165982,58.34053102960752 78.49020361120347,57.467547675565584 78.3795620437595,57.06338702881476 78.08912792929914,56.2873955949035 77.77103342296323,55.47906700013846 77.48059930850286,54.670734135390376 77.24548597773537,53.797729845391586 77.10718401841586,53.03788872410951 77.01037264696788,52.245709920607624 76.94122166727902,51.42119293262658 76.96888205915457,51.11401880111953 76.94122166727902,50.75834272065549 76.60929696500534,50.12782400054857 76.48482520162361,49.36796465466614 76.42950441798894,48.38175859990588 76.37418363423785,47.508718427372514 76.37418363423785,47.088363974995445 76.33269304648275,46.44166256231256 76.23588167491835,45.77879077749094 76.18056089128368,45.11591612068878 76.05608912790194,44.43687081136159 75.94544756051619,43.80632603977574 75.82097579713445,43.15961075395171 75.7103342297487,42.48055676158401 75.55820207454963,41.57514674986305 75.3784095274168,40.55655408157327 75.25393776409328,39.651132682847674 75.10180560889421,38.745705925291986 74.97733384557068,37.87261076235154 74.7422205148032,36.983342048028135 74.41029581252951,35.98088748080772 74.10603150213137,35.18862035262282 73.9538993468741,34.81673844883335 73.91240875906078,34.687388009464485 73.55282366502797,34.80056964987307 73.15174798312364,35.25329537407379 72.43257779482519,35.54433263205283 71.71340760664316,35.88387539985706 70.98040722246515,36.191080111806514 70.2612370341667,36.49828420682752 69.41759508254472,36.8539934407745 68.6431041106116,37.177364753893926 67.99308490206022,37.452229832604644 67.57817902415991,36.983342048028135 67.24625432188623,36.46594696266402 66.83134844410233,36.62763311486924 66.1951594313723,36.918667758087395 65.57280061463825,37.209701847619726 65.69727237796178,37.662420441862196" stroke="#4dd2ff" stroke-dasharray="none" stroke-linecap="round" stroke-linejoin="round" stroke-width="0.5"><title>2024-05-25 18.7km</title><desc>1716643451000</desc></polyline><polyline fill="none" opacity="1" points="180.33519994087692,105.28584215159026 180.37660329152277,105.051805889967 180.50702384607575,104.85637173048599 180.55877803439944,104.87326116758413 180.53600619154167,104.87808671876519 180.62709356298,104.87084839160707 180.6229532279176,104.87808671876519 180.58776037986536,104.83706950152919 180.60846205518465,104.83948228102781 180.70990026429354,104.7212557889743 180.7844262954677,104.86119728520316 180.6333040655809,105.12177574250563 180.63951456818177,105.17003068970735 180.58776037986536,105.31479492630933 180.65814607597713,105.42336750823051 180.75544395000907,105.45232011054031 180.72646160455042,105.52470145749976 180.68298808635882,105.59708257759667 180.6250233954488,105.68152693100092 180.5194448512775,105.76597097562808 180.55049736426736,105.95415945002969 180.54221669414983,105.90590614124267 180.56912887207,105.73460608081587 180.58776037986536,105.5994952776964 180.4883923382804,105.59708257759667 180.54428686167375,105.42095478973533 180.63744440065057,105.2375874463869 180.59190071492776,105.16037970833713 180.4676906629611,105.33168402813317 180.16337603565626,105.20622183393425 179.91909626678535,105.08558446593997 179.69551817325555,104.98907411778418 179.88804375378822,104.62956952127024 180.06814832914824,104.37381116615506 180.32691927073756,104.06255425203199 180.4656204954299,103.93225941426317 180.56912887207,103.79472517672366 180.40972597204382,103.70303522989161 180.11990251746465,103.41589856714927 179.8300790628782,103.09738985614422 179.71207951351244,102.96950254644253 179.49471192257624,102.79335471472041 179.2483619861814,102.57377128909684 178.93783685627568,102.22146824256379 178.68113608221756,101.91983464966142 178.36647061723488,101.55786913544398 178.11184001071524,101.31414249156114 177.89240225225512,101.10178450582862 177.65226281844662,100.90631690576811 177.3934918768573,100.64327764614245 177.20924696644215,100.45745911460108 177.09124741708365,100.33197042880602 176.919423511863,100.16304227430555 176.66893324040575,99.88551476471184 176.5757757014362,99.77691613509523 176.36668878062483,99.60074393787363 176.1161985091603,99.34251650609258 175.88848008056084,99.10841998203796 175.62349863637064,98.83087978913318 175.36886802984372,98.56781687264447 175.11630759085529,98.3071644194606 174.86167698432837,98.04409553213372 174.62153755052714,97.79791826035398 174.3669069440075,97.55897898463991 174.12883767774474,97.32245079976019 173.95494360499288,97.15591419445809 173.743786516643,96.93869072870075 173.39392820362264,96.58147435993124 173.04199972304923,96.21218405566833 172.73354476068198,95.90081704863223 172.59070320091996,95.74875256419546 172.32572175673704,95.63289323653225 171.94688109824347,95.4373793014729 171.60323328780214,95.24910505694606 171.1954102838572,95.03669124376029 170.84969230589923,94.84841372847404 170.5019041603955,94.67944541899124 170.120993334378,94.4863372637974 169.73387200575235,94.28839972667447 169.41506620571454,94.12908291406893 169.04864655241545,93.95769541714435 168.6842970666621,93.77906483942752 168.33650892116566,93.59319101258006 167.97629977046745,93.4097296624168 167.6367922950958,93.23350883335843 167.4256352067532,93.12729288865557 167.1544432599694,92.99210825144655 166.80872528201144,92.81347019383247 166.43195479104907,92.62517452681459 166.0427632948922,92.42480693605467 165.69083481432608,92.2316798994434 165.3182046584334,92.03855124517395 164.94764467007917,91.85749166256937 164.6019266921212,91.67401650174907 164.2458578764854,91.49295405636803 163.87529788813117,91.29016242935177 163.48610639197432,91.11392540000634 163.1714409269989,90.94734395562591 162.8712666347492,90.79041830552342 162.4965663113253,90.59727757740075 162.15498866842972,90.42344953852626 162.06597146451531,90.3703351540862 161.85895471125696,90.29307764916484 161.4739035501625,90.0878611443386 161.06815071374876,89.88505715645624 160.68723988771671,89.67500828793345 160.31460973182402,89.48668698533584 159.91920773307356,89.28870652099795 159.53001623692398,89.08106664598381 159.15738608103857,88.89998383259626 158.80545760047244,88.72614299322231 158.43903794717335,88.53057048155279 158.0871094666145,88.3543123516647 157.90286455619935,88.35189784737122 157.78486500683357,88.54988635903828 157.7124091431906,88.72614299322231 157.64409361461003,88.86135264827499 157.5654272483589,88.98931819833888 157.5074625574489,89.12452630948792 157.45777853666368,89.23800393343299 157.48262054705265,89.17764356472071 157.501252054848,89.11486861357298 157.53023440031393,89.11245418895669 157.56128691330377,89.02312030048597 157.7041284730658,88.72614299322231 157.73311081851716,88.61507732601967 157.53023440031393,88.5353994524412 157.21556893532397,88.48228071702579 156.8553597846403,88.38811538515438 156.68767621448933,88.3205092685912 156.36887041444425,88.28912064705582 155.91136338970682,88.26739003787225 155.45385636497667,88.24807392362345 155.0067001779098,88.19012548371393 154.65891203240608,88.0355955982759 154.39186042069196,87.90762475253723 154.07926512324775,87.75792210655709 153.6838631244973,87.56717055182708 153.26154894782667,87.38366123683409 152.8350944360791,87.26051600870414 152.4086399243315,87.13495549066465 152.07120261649106,87.02871144101664 151.85797536061727,86.92005224717468 151.5495203982573,86.74378179844098 151.17274990729493,86.52887490657122 150.78976891373895,86.35501617902264 150.4047177526445,86.22220654496414 150.0175964240334,86.05076024900154 149.72777296943968,85.9034602997508 149.36342348368635,85.72959685277237 148.98665299273125,85.62093153212481 148.61402283683856,85.4881176664021 148.2765855290054,85.39152528314298 148.1296036341737,85.2756138886416 148.04058643027383,85.04620420101128 147.93707805364102,84.83852609257701 147.94742889129702,84.4497283211731 148.06749860820128,84.06575389516911 148.18135782249738,83.67694308005593 148.2248313406817,83.29295577134326 148.19170866016793,83.06111127792246 147.84599068218813,82.85341527071068 147.51062354189344,82.65296269687678 147.56237773021712,82.35348813136625 147.3180979613535,82.16510697387821 146.9558186431168,81.97189392953442 146.6225216703533,81.7835096504732 146.39687340928504,81.59512383029869 146.411364582018,81.22559332184755 146.41343474954192,80.78359806234221 146.4196452521428,80.47202253493742 146.4237855872052,80.21116536232148 146.42792592227488,79.95996677310359 146.4237855872052,79.76915062841726 146.4237855872052,79.48171572879983 146.43413642488304,78.94548304606906 146.44862759760144,78.48170416606445 146.4672591053968,78.04448739446343 146.46518893785833,77.60484668659774 146.469329272928,77.16036622540742 146.47139944046648,76.75936018285574 146.49003094825457,76.36317867677099 146.39480324174656,76.31969492536336 146.22090916900925,76.24239027554722 145.7882441546608,76.20615363154684 145.43010517150105,76.18441161776718 144.99951032469835,76.14817488247172 144.560634807749,76.1143538780525 144.18593448432512,76.08778019684723 143.74498879985185,76.049127514867 143.40134098942508,76.00322737068927 143.0183599958691,75.9983957712393 142.7554487192101,75.97906936329127 142.35797655292845,75.94766391576377 141.9687850567716,75.9186742338552 141.60857590608066,75.87035801617458 141.22766508005589,75.85103150069517 140.8426139189687,75.82687333353533 140.56935180464643,75.69158712867284 140.57142197217763,75.28330786685547 140.5921236475042,74.92333966827027 140.5879833124418,74.58027748632594 140.60454465271323,74.1961384091901 140.61282532283803,73.78783260994533 140.61903582543164,73.43508922114233 140.62110599296284,73.19348103926677 140.62317616050132,73.08958874088967 140.62317616050132,72.89871562097687 140.62938666309492,72.70784091725545 140.60868498777563,72.46139275458518 140.61696565789316,72.25601726863897 140.64801817089028,72.1110452333287 140.6355971656958,71.80418474462203 140.6397375007582,71.45141093520579 140.63766733323428,71.03097480745419 140.65215850595996,70.64436009045312 140.6314568306334,70.28431929052385 140.65215850595996,69.97260156188531 140.62317616050132,69.58596905086961 140.63766733323428,69.25249328846985 140.62524632803252,68.98184273739571 140.61075515529956,68.70393930292084 140.60247448517475,68.69427303605153 140.60868498777563,69.05675526236337 140.5734921397161,69.19449701000485 140.33128253839095,69.37573489450006 139.97107338769274,69.35881941905427 139.623285242189,69.33707093234989 139.5880923941295,69.11233536509826 139.25893575643568,69.04950567384185 139.07883118108293,69.05192220359459 139.27135676163016,69.06158832010806 139.64605708505405,69.12683450024088 140.006266235745,69.19449701000485 140.35819471630384,69.24524376165755 140.56935180464643,69.34190393116842 140.56935180464643,69.71645825011365 140.53208878906298,69.99193301679588 140.19465148122254,69.98226729136331 139.9420910422341,69.96293582833641 139.55289954607724,69.95327009072207 139.13265553693782,69.938771476689 138.75588504598272,69.92427285351732 138.37704438748915,69.90735778159433 137.929888200415,69.89285913861204 137.53655636920303,69.8880262555831 137.11631236004905,69.87594404357696 136.68778768077755,69.86627826939912 136.31308735736093,69.82278223532558 136.30480668722157,69.46031208505701 136.29652601710404,69.02534036224642 136.2882453469574,68.7522705762949 136.2778945093014,68.58311067499926 136.25512266644364,68.30520242091734 136.2302806560474,67.94995828280298 136.19922814305755,67.5971253379521 136.1661054625365,67.22978665528717 136.15161428980355,67.04369837209742 136.1226319443449,66.71018573157926 136.08536892875418,66.32591516783395 136.04810591317073,65.98272470530355 136.02947440537537,65.6274446732823 136.00256222744065,65.33499916551955 135.97150971445808,65.08847196250281 135.93424669886736,64.68967235852688 135.9073345209399,64.2836147420312 135.88042234301247,63.91864016620093 135.83073832222726,63.51015181247021 135.77277363131725,63.13549634601077 135.72101944299357,62.799509796381244 135.67340558973956,62.51427994860023 135.605090061159,62.09368032243947 135.5491955377729,61.75284394262599 135.4933010143941,61.41925450400413 135.4539678312649,61.16543320767778 135.41256448061176,60.790739501378994 135.40014347541,60.51998927742352 135.3732312974971,60.181547009415226 135.34631911957695,59.81167225616082 135.32768761178158,59.48288969704481 135.28007375852758,59.13234428418582 135.211758229947,58.774540689597416 135.1248111935638,58.42398446401785 135.04614482732723,58.097599719149 134.9550574558889,57.768792618620864 134.85775958184968,57.43998080957317 134.74597053507023,57.111164291700334 134.66730416883365,56.8669666245878 134.54309411687427,56.50187417889174 134.47270842075523,56.26250578194595 134.36505970906,55.8635529073963 134.29053367787856,55.57581895509247 134.18081479863758,55.27357352461513 134.0524644116158,54.93021788722035 133.91376318691619,54.57960295742487 133.839237155742,54.420010939800704 133.69639559598,54.071806322275734 133.59702755440958,53.76954108635982 133.49972968037764,53.515635211728295 133.32583560762578,53.133562030308894 133.19334488553432,52.7974290983293 133.05257349331077,52.4467815841781 132.92422310627444,52.125148463257574 132.81450422704074,51.85187768280048 132.70478534779977,51.5713485405322 132.61162780883024,51.312581549318566 132.5122597672671,51.18440616444968 132.21622581007978,51.3270919251263 131.85601665938884,51.455266512890375 131.50408817883,51.605205687974376 131.1873525463161,51.69226669483578 130.93893244239007,51.59795058915188 130.84991523847566,51.19407980338474 130.77331903977029,50.82406020844064 130.7008631761273,50.4661270787019 130.61184597222018,50.084003114770894 130.5207586007673,49.68736138188433 130.40689938647847,49.331829121796545 130.29511033969902,49.01982688442513 130.22265447606333,48.81666035535818 130.0963742565582,48.424834110132 129.9680238695364,48.064444802123035 129.83346297991375,47.660511800149834 129.7133932630095,47.31462339564314 129.61816555650876,47.03887645482246 129.47946433181642,46.630087607998576 129.35111394478008,46.26725116599482 129.2248337252895,45.865705477423035 129.10890434345492,45.524628013799884 128.99090479409642,45.1980597301681 128.88325608238665,44.87874402182206 128.75076536028791,44.50136517802639 128.64311664858542,44.179620616885586 128.53132760181325,43.87480581453383 128.41332805245474,43.509506545453405 128.31603017841553,43.22645608903622 128.22080247190752,42.94824069577953 128.10487309007294,42.62405502102047 127.98480337317596,42.273251923918 127.87301432641107,41.9587342373743 127.73017276664905,41.54259651103348 127.59561187702639,41.14338752097501 127.4962438354487,40.84337133927875 127.36168294583331,40.45382833919575 127.25196406659234,40.1344465290731 127.1215435120248,39.75456994336673 127.01803513539926,39.4569552246212 126.93108809902333,39.17143503173429 126.83793056004652,38.89317040307833 126.6930188327533,38.50843374080978 126.5853701210508,38.191444591941035 126.4756512418171,37.87445105669212 126.35144118985772,37.499376704163296 126.23551180802315,37.175113926909034 126.11337192358769,36.79518826572894 126.03056522228144,36.48059536904475 125.95396902356879,36.15389817187861 125.86702198720013,35.798155923772356 125.78214511834813,35.47144899141131 125.68070690925379,35.086654849095794 125.69105774691707,34.85190304584103 125.52337417675881,34.83980237220385 125.32049775856285,34.90998619029233 124.95614827278769,35.00437098579823 124.5628164415757,35.1253765648089 124.2046774584087,35.23912122605543 123.83411747005448,35.35044524106888 123.49253982715891,35.490809532137064 123.1364710115231,35.61907270101074 122.76384085563768,35.7763756066106 122.438824552999,35.87801690946253 122.17384310880152,35.977237746164974 122.00822970618901,36.04983808605357 121.8012129529161,36.12243819579453 121.48654748793342,36.19745806742321 121.1159874995792,36.28941757483335 120.86135689305229,36.26763772486811 120.81788337487524,35.85381664017223 120.77440985668363,35.56341141406483 120.73093633849203,35.29962347526998 120.6812523177141,34.98985027334675 120.61914729172713,34.609888358132594 120.54669142807688,34.288004860116416 120.43283221377351,34.0 120.26100830856012,34.121010886703516 119.93185167086631,34.26622310656239 119.61511603834515,34.387232586297614 119.45157280326384,34.27832408331051 119.24869638504606,34.36061055562459 119.24248588245973,34.45983796717883" stroke="red" stroke-dasharray="none" stroke-linecap="round" stroke-linejoin="round" stroke-width="0.5"><title>2024-05-01 58.8km</title><desc>1714551575000</desc></polyline><polyline fill="none" opacity="1" points="19.12236604365171,114.30346155601 19.37565872585401,114.19333483820992 19.64569803165068,114.08076031861856 19.873870778421406,114.02447285357084 19.959697224461706,114.30590881045464 20.007843767351005,114.55552740525673 20.043430342542706,114.8296153116753 20.09367021338403,115.10369997378984 20.14809674013668,115.40469992754515 20.17949665942433,115.68856621785926 20.20670992279338,115.93327574434261 20.22973653027293,116.23426491569262 20.23182985821768,116.3296996898116 20.30509633654583,116.36395823074963 20.637935480917804,116.2929940539907 20.989614576850727,116.22447671149712 21.291053801942326,116.15106504815594 21.494106613296026,116.077653152106 21.66994616125885,116.0042410233491 21.950452106837474,115.89412239387093 22.2372380362649,115.78889743647778 22.586823804253072,115.5882345645623 22.88616970138537,115.4193827520412 23.152022351292544,115.28723699645889 23.48695482362382,115.29947274624283 23.756994129427767,115.24318824368675 24.054246698629868,115.15019615712117 24.359872579610965,115.06209804642094 24.66131180470984,114.97889396744358 24.952284390041314,114.890795205014 25.107190658491163,114.94218619049752 25.190923776572163,115.27500124020662 25.280936878509237,115.64451822847695 25.36048334067891,115.96753487170281 25.437936474903836,116.29544109819108 25.50910962527996,116.5817434845012 25.53841621660831,116.68941184222604 25.636802630353486,116.97815633051505 25.73728237204341,117.27179110151155 25.827295473980485,117.54584686261296 25.921495231828885,117.81745249806954 26.01569498967001,118.09394865749528 26.120361387263983,118.38512246112259 26.23130776873586,118.7203348290077 26.310854230898258,118.99682021206172 26.371560741506983,119.12405131512423 26.45948051549931,119.37117126873818 26.547400289484358,119.62073527941175 26.63950671936618,119.89965658075926 26.71486652563908,120.1394283488753 26.769293052399007,120.27399305007748 26.876052777959558,120.54556670329293 26.90535936928063,120.66055639004844 26.97443919169018,120.87096157356427 27.066545621586556,121.15965394887098 27.17121201918053,121.48993318748398 27.280065072693105,121.81286833601371 27.37845148643828,122.10399540829894 27.445437980895804,122.27279850628474 27.56475767416123,122.60306188118739 27.652677448153554,122.92598151956554 27.723850598522404,123.06542269983402 27.807583716596127,123.26112820459093 27.8787568669577,123.50575776184633 27.964583312998002,123.78218605453003 28.05250308698305,124.07573461466745 28.13623620506405,124.32280177173561 28.165542796399677,124.45734218551115 28.253462570384727,124.6530359389526 28.3685956077461,124.96125025082074 28.475355333299376,125.28902922928319 28.58839504270145,125.65838655472726 28.7098080639189,126.00816985541496 28.82494110128755,126.3285960801677 28.93170082683355,126.66369357836084 29.053113848058274,127.0134617140593 29.15987357361155,127.33876580439392 29.289659906629822,127.70075296166942 29.404792943991197,128.03338482727668 29.526205965215922,128.3855780731992 29.637152346673247,128.70841718371412 29.72297879270627,128.94076073241558 29.733445432466397,128.91630362636351 29.831831846204295,128.91385791434368 29.905098324532446,128.984783458307 30.22956415709632,128.85760646662857 30.56868328532437,128.740211701519 30.872215838367993,128.6521652377487 30.993628859585442,128.8991836367877 31.142255144186493,129.18043900694647 31.30553472442989,129.46658227495027 31.46253432083904,129.7429395162053 31.611160605432815,130.00706548379821 31.717920330978814,130.04130381495634 31.780720169554115,130.37145655807217 31.86863994353189,130.7456239868061 31.96493302932504,131.1002215358876 32.02982619583781,131.29830470385969 32.12611928163096,131.48415897794985 32.23915899104031,131.74337429500338 32.33545207683346,131.99525055529375 32.45058511418756,132.29603124513415 32.58874475902121,132.64571446280752 32.71225110819796,132.94648672110998 32.83157080145611,133.26192660859851 32.96763711834501,133.5651361021737 33.024156973049685,133.71429415732564 32.85459740893566,133.7754242308365 32.86925070459256,133.7900954245215 32.87971734435996,133.76808863052247 32.89227731207211,133.75586262483012 33.08277015569911,133.81943778406094 33.18534322534833,134.11530450309874 33.31722288632591,134.45517979794568 33.46375584296038,134.79749520790028 33.61028879961668,135.16914622248441 33.72542183697806,135.4870009217375 33.81962159481918,135.80974123983106 33.93056797627651,136.18137604766162 33.99964779869333,136.4234244664949 34.102220868342556,136.69480908649894 34.204793937984505,137.0444260379918 34.305273679696256,137.36469988335375 34.399473437530105,137.70208281987652 34.48320655560383,138.0345713522329 34.58787295320508,138.34260794955662 34.67369939924538,138.6897554075913 34.740685893717455,139.0075619103045 34.80348573227093,139.3131409843336 34.83907230745535,139.5698242990875 34.8600055869756,139.83383846302968 34.88303219444788,140.1882972040912 34.91024545781693,140.56719539342885 34.937458721207804,140.713864000807 34.95629867276875,140.95586517815718 34.99397857589793,141.34697286174924 35.04212511880178,141.6989641465898 35.09864497350645,142.06072740915988 35.15097817230708,142.40048642420516 35.20540469905245,142.75001749156036 35.23052463448403,142.86000869766212 35.2682045376132,143.09465486361296 35.31844440846908,143.4124011025724 35.35821763955755,143.68859238004188 35.38333757498185,143.91589778267553 35.4084575103916,144.17741845193814 35.3938042147347,144.24096508594448 35.448230741494626,144.47070915894255 35.475444004863675,144.81532100943878 35.4963772843912,145.15015174214932 35.50893725210335,145.41165852109043 35.51521723595215,145.49719748296775 35.540337171383726,145.70493365104267 35.5696437627048,145.98842942541705 35.59267037018435,146.26214620216706 35.6198836335534,146.51142117632662 35.6387235851289,146.80712625728484 35.6659368485125,147.14681588078747 35.68268347211415,147.3496497636679 35.716176719353825,147.66978156795085 35.728736687065975,147.8555048686958 35.758043278394325,148.13164334895373 35.781069885859324,148.41999684502662 35.7894431976747,148.65947414853508 35.812469805146975,148.83541508529925 35.820843116955075,149.03334704763074 35.816656461051025,149.30947153799025 35.82502977285185,149.61002809652564 35.841776396475325,149.89591975401163 35.839683068516024,150.1353818558855 35.8710829877964,150.4774662950258 35.8710829877964,150.87330057958934 35.87736297165975,151.2691281263833 35.87526964370045,151.62829914401118 35.87736297165975,152.02167056073995 35.8815496275638,152.41503532419665 35.88573628346785,152.725324574325 35.879456299611775,153.07714359846068 35.852243036228174,153.17975647812273 35.9129495468369,153.4069691007935 35.9234161866043,153.68792787707935 35.942256138172525,153.96399710841615 35.96109608974075,154.25716438667405 35.97784271334967,154.5991882086455 35.967376073596824,154.92166320680917 35.94853612202132,155.22947608099275 35.9129495468369,155.53728488288107 35.90248290708405,155.7547029318248 35.90038957912475,155.825546576345 36.10972237432725,155.8279894567877 36.45512148641137,155.8695183851505 36.79633394259872,155.91104723938042 37.148013038531644,155.94769028450537 37.52899872580019,155.97944754359378 37.84718457451527,156.01120475935204 38.18839703069534,156.0331904987179 38.460529664451315,156.0502905038593 38.75778223363886,156.07471906083265 39.06550144259381,156.0942618879435 39.366940667678136,156.1162475488345 39.68093986049644,156.14067603655894 39.999125709189684,156.16754734343886 40.19589853668003,156.21640418554125 40.438724579129484,156.1944186192959 40.75063044397393,156.22617554165845 41.08974957220198,156.25793242067812 41.397468781149655,156.27991792691864 41.69681467828923,156.30678907300535 42.00034723133285,156.3336601880619 42.21177335449465,156.35075997239255 42.51949256343505,156.34587432100852 42.87117165937525,156.3898451465393 43.1935441639871,156.42404462006743 43.54731658787205,156.45335841451197 43.896902355867496,156.47778654833928 44.22555484433542,156.50954308397922 44.610727187515295,156.53885677072503 44.95193964368082,156.56084201154044 45.16336576684262,156.5754988272165 45.437591728550615,156.59504123375882 45.586218013151665,156.60236963197713 45.88347058233194,156.619469218851 46.14513657633506,156.71473811570468 46.14513657633506,157.04695480711416 46.13048328067816,157.33275507750477 46.12629662476684,157.68450443826805 46.11792331296601,157.99716607369555 46.11373665706924,158.31959398607978 46.10745667319861,158.6664432685484 46.10327001729456,158.99374700638873 46.10536334525386,159.33325870719636 46.10117668934981,159.64101323633804 46.09699003343849,159.92678165602956 46.09280337754171,160.1734678125449 46.09489670549374,160.39084255617126 46.08443006573361,160.83291302095495 46.08233673778159,161.31405199834808 46.06768344211014,161.77564299211372 46.05931013030931,162.19326505414938 46.04884349054919,162.57913141316385 46.03628352283704,162.89416945874655 45.975577012228314,163.25316110608765 45.87091061461979,163.59505276830714 45.713911018232466,163.89786690638903 45.535978142303065,164.18846709485115 45.565284733631415,164.1469530041977 45.61971126037679,164.15672103218458 45.732750969793415,164.24951709373454 45.958830388612114,164.39847841944538 46.19328311923891,164.58651020803882 46.41726921009831,164.72325964634 46.57845546241151,164.8600082817975 46.80662820917496,165.07978119258223 47.066200875233335,165.2629237009587 47.30274693380488,165.4607159927382 47.56022627190396,165.4729253384303 47.69838591674488,165.4558322526682 47.80514564229088,165.61211142703905 47.89725207218726,165.80990075395493 48.033318389061606,165.8416445636176 48.361970877536805,165.92710845155852 48.67597007033328,166.05164098412934 49.00462255880848,166.12977870388931 49.25791524101078,166.25186836635112 49.51330125115055,166.37639916292756 49.735194014057925,166.476511673578 49.95708677697985,166.58394901133033 50.214566115078924,166.69138585363908 50.52019199607457,166.79882220050968 50.82163122116617,166.9233500735645 50.96607084984862,166.99415974375734 51.223550187947694,167.14066182645547 51.47265621423867,167.289604666199 51.69454897715332,167.41901324577157 51.99180154634814,167.5410961525431 52.351853954089165,167.65097022173723 52.653293179180764,167.74131073494027 52.95473240427964,167.829209276475 53.24989164550789,167.93175715584402 53.488531032038736,168.05627897407612 53.68530385954364,168.14661791590152 53.86742339135526,168.22963176988014 54.08094284246181,168.33461945580348 54.36772877188923,168.47378844991727 54.70684790011728,168.63493045740142 55.06899363582488,168.7179425718423 55.399739452237554,168.74479936908756 55.6718720860008,168.7740976580535 55.93981806386728,168.76677308926628 56.25381725666375,168.79118830960397 56.41291018102493,168.8497847340641 56.67457617502805,168.8595507904829 56.9718287442156,168.93279608317062 57.30885454449162,168.9938336512114 57.55377391487127,169.07684448721375 57.7421734305608,169.15008909694552 58.064545935172646,169.30146056095145 58.35551852050412,169.44306523396335 58.62555782630807,169.54072312786047 58.74906417548482,169.59931766777845 58.99607687383104,169.6920920547018 59.312169394572265,169.81904588046382 59.63872855509544,169.9582060103985 59.96738104355609,170.08027561573 60.22904703756649,170.17060671207582 60.57863280555466,170.29511656834256 60.944965197159036,170.48554212083218 61.28617765333911,170.65399419736787 61.59599019023881,170.80535589442297 61.85974951219396,170.94451013583966 62.07745561919728,171.06657457593064 62.34330826909718,171.19596218456172 62.60916091901163,171.3277903302078 62.85198696144653,171.4522940054485 63.08643969207333,171.56703209777697 63.375318949452776,171.72327029415283 63.645358255264,171.87950744342743 63.91121090517845,172.00889054008076 64.21893011411885,172.17000810941863 64.52036933921045,172.32135996330362 64.79878195682977,172.4678285637856 65.0625412787922,172.6020906392132 65.34932720821962,172.7558807937603 65.64657977740717,172.89502339280625 65.93127237887529,173.03416516147627 66.23271160397417,173.18795246604532 66.52368418930564,173.3344156225994 66.79372349511686,173.47843682941857 67.00933627417544,173.58584189609974 67.26472228432249,173.71765652904287 67.54941488579061,173.85679338876616 67.83201415932126,174.0081342935282 68.13764004031691,174.1667970906401 68.46001254492876,174.32301786687458 68.75307845821953,174.4841194462515 69.05451768330386,174.6549835415517 69.35386358044343,174.8087601569623 69.65320947759028,174.96009488372874 70.00488857351593,175.14071891723142 70.3209810942717,175.29937400883318 70.6412602709388,175.46779130971663 70.88408631336642,175.5947136893592 71.2022721620815,175.7484841086116 71.51836468283727,175.9120166166831 71.8030572843054,176.04869962434168 72.11705647710914,176.21711151446289 72.41221571834467,176.41237015470142 72.48757552462484,176.52952455426384 72.6341084812666,176.5954236454345 72.90833444298187,176.8028825316469 73.16162712518417,177.05915272607854 73.38351988809154,177.2885731784063 73.58657269943069,177.49114468084736 73.78334552692831,177.68883324630588 74.04710484888346,177.9548559559098 74.30458418698254,178.22331616555311 74.58927678845066,178.51373782285737 74.85722276631714,178.7919534990633 75.10632879260811,179.05796363088302 75.36590145865193,179.30688779641605 75.61082082903886,179.55824970019967 75.85992685533711,179.79984742459783 76.09437958595663,180.039002304311 76.32045900477533,180.28059505131387 76.52769847203308,180.49534206001954 76.75168456289975,180.71008709260605 76.81239107350848,180.76865357671522 76.8479776486929,180.80037702757727 76.8982175195415,180.84186147516812 77.0405638202792,180.98583633887756 77.21849669620133,181.17617462590533 77.33781638946675,181.2884246828762 77.51784259334818,181.49340165472495 77.7188020767353,181.70813750393972 77.944881495554,181.93019181566342 78.12909435532492,182.1302829024662 78.27562731197395,182.23764814434617 78.5205466823536,182.47189786699164 78.75918606888445,182.73298593340587 78.99782545542257,182.98431093974978 79.24483815375424,183.23807324932022 79.4583576048608,183.4674329634272 79.46463758871687,183.5064726903438 79.65094377645437,183.66751087375997 79.82887665236922,183.8309878934324 80.06751603890007,184.07010147241817 80.28103549001389,184.2823737200615 80.46734167774412,184.49708391522654 80.48199497340102,184.55320102711084 80.58247471510549,184.66787470590862 80.65783452137111,184.8557431327099 80.80227415006084,185.01433218651073 80.86507398862159,185.10948510175695 80.78971418234869,185.20951723558392 80.64736788161827,185.3827426000571 80.55316812376986,185.52668946049016 80.49874159702449,185.62184028786214 80.43384843051172,185.82433947601385 80.33336868881452,185.91704936167298 80.49874159702449,186.0" stroke="red" stroke-dasharray="none" stroke-linecap="round" stroke-linejoin="round" stroke-width="0.5"><title>2024-05-01 52.5km</title><desc>1714541844000</desc></polyline><polyline fill="none" opacity="1" points="186.0,148.1581722732135 185.75826951670024,148.20661411118635 185.56028073990456,148.2389085674631 185.28171513533744,148.2765853296214 184.99739404307184,148.2819677151174 184.73149051143992,148.28062211895758 184.57839453868655,148.2819677151174 184.34357064061624,148.28869569378458 184.04198308526247,148.28869569378458 183.77607955363055,148.28869569378458 183.50787382692215,148.30215164045876 183.2500279780652,148.30753401515267 182.97376456858183,148.30215164045876 182.72052310987783,148.2671661495324 182.4868503093603,148.24563656888313 182.2048314121712,148.27523973289044 181.9780651968831,148.3600120491601 181.76626324961398,148.377504679107 181.5613678875743,148.35597528498874 181.43820045085158,148.07608984933722 181.3691345984771,147.91326904947528 181.27359350269398,147.69123733094693 181.21028313801799,147.49207831390777 181.11589313978038,147.27676776425142 181.0756047258983,147.15430826485044 180.96279716701974,146.88112513708802 180.86610497369838,146.64561773590776 180.76480839022406,146.4249097025331 180.47473181025998,145.65778494454662 180.29170730147598,145.64836382681278 180.19271291307814,145.412833617037 180.12364706070366,145.36438114762495 179.9452269420799,145.53665575640935 179.72306511695206,145.51242978044866 179.56651585156942,145.44782695245158 179.4053621960411,145.4209090106733 179.13255207916518,145.43167619421365 178.94722537531197,145.4747448372982 178.69743720922997,145.55818991854994 178.5788741626602,145.60529577121815 178.3981518489527,145.66316843726509 178.1276439271678,145.76007091682004 177.8686469807726,145.8596643631745 177.75583942189405,145.92830263612723 177.5520951573999,146.0346239360788 177.4669139394755,146.09384047758704 177.19065052998485,146.2243850619634 177.0720874834151,146.25533873613222 176.8096372443979,146.33608709707914 176.64387919870933,146.38319007109385 176.36070920398197,146.47201234789918 176.20646213369037,146.52584372919773 176.01307774704765,146.69271956467037 175.76444067851116,146.83940700067342 175.624006778693,146.8878538559684 175.40414714864164,146.9847470134955 175.1186749588378,147.10855386392905 174.92183727957308,147.19467965852982 174.71809301507892,147.2969532829493 174.54197509152436,147.3750036541578 174.38772802123276,147.46112764646386 174.14714863547124,147.6374108767577 173.94570656605356,147.78274178089032 173.80066827606788,147.84733276143743 173.51980047643156,147.94960114393234 173.32986938240356,148.0209193982746 173.10195206957724,148.0680161397213 172.81187548962043,148.12049516072875 172.65072183408483,148.12587761219402 172.3756095221397,148.13798811967263 172.118914770821,148.06397928299612 171.96581879806035,148.01284565368405 171.74020368031051,147.85944353381637 171.5226462453502,147.70603956596005 171.3292618587002,147.91057777909828 171.10825113111787,148.0249562686522 170.91371564692963,148.1056934074668 170.63054565220955,148.21065092270146 170.33701577963075,148.31829875770472 170.1056451741897,148.39903403683365 169.9663623719025,148.46093073755765 169.77297798525979,148.56992202283254 169.5876512813993,148.61970785515314 169.3286543350041,148.64931014967624 169.1041903147925,148.70178677542754 169.0063470239329,148.71255118475165 168.76116324801842,148.7892473378697 168.53785032534506,148.90900005692401 168.31338630514074,149.03547923427413 168.03251850548986,149.16464816168718 167.90819997122162,149.24672357039617 167.65035412237194,149.3705084324547 167.39596156613698,149.5238923536681 167.2221458376589,149.63152909034397 167.09207181569946,149.69476524903257 166.8215638939073,149.7593465339196 166.51422085085505,149.85890870670482 166.279396952792,149.9275254269205 166.02500439654978,149.9921055318755 165.76255415753985,150.07955723554005 165.49434843083145,150.2154425378776 165.234200386898,150.34863563563158 165.09376648707257,150.41052286383 164.8670002717845,150.51142530868128 164.6528961294389,150.6042548522055 164.46756942557113,150.67690358842174 164.2903004044856,150.75896925517827 164.248860893058,150.7818399205962 164.10382260308688,150.8248904735392 163.88166077795177,150.94193342909603 163.64108139219024,151.07108302897996 163.40855968920368,151.19215959011035 163.1530160354232,151.3361046715163 162.92049433244392,151.44507136212997 162.75358518920984,151.5298225884635 162.52681897392176,151.63878762272998 162.34954995283624,151.7316089541191 162.13429471294512,151.8230843874262 162.02609154423408,151.59439457308417 161.9098306927408,151.35628375859233 161.79472093877848,151.1571820350582 161.68191337991448,151.0011271581925 161.5368750899288,150.7993292252686 161.41600984827528,150.60829090397328 161.32622424019792,150.51277066921557 161.12132887815824,150.63116183984312 160.89341156533192,150.753587916176 160.74491998273152,150.82219981824164 160.46290108554967,150.90964582459765 160.21656621208967,150.88812070948188 160.0600169467143,150.82354514595954 159.7826024396927,150.65403273465836 159.45223744583927,150.55313141914849 159.13568562247383,150.50335314249787 158.86172440805967,150.48182734101192 158.59697197397327,150.4495385705959 158.35754368575,150.3876515319089 158.18257685974095,150.37823391271377 157.98919247309823,150.3567078998367 157.72444003901182,150.33249109188546 157.44817662952119,150.30289270853973 157.17306431757606,150.2800211834092 156.8991031031619,150.25445884202873 156.65622152233118,150.21947871281282 156.41794433164614,150.2087155768122 156.17621384834638,150.23293262003335 155.95405202321854,150.34190874489286 155.86541751267214,150.28405733788532 155.75260995380086,150.10646533128147 155.61908263921214,149.88850812153396 155.49821739755862,149.6988015889292 155.40728069193574,149.5602198539691 155.2898687429115,149.36916295128867 155.19662984220486,149.2009766865158 155.0458360645207,148.98704054878908 154.8823802139159,148.73407997610957 154.73964411901397,148.51071699593467 154.6325920478339,148.33713703527883 154.42884778333973,148.35866646124396 154.2976226638275,148.43940148446927 154.08582071655837,148.55108408958222 153.87747206190397,148.63854568690203 153.7117140162154,148.70716898122737 153.46883243537013,148.80404829670988 153.21674207421165,148.90900005692401 152.9784648835266,149.03547923427413 152.90824793362117,149.07584466480057 152.73097891253565,149.1525386303838 152.50651489232405,149.24268708724776 152.30507282290637,149.31399810117455 152.081759900233,149.39607254757902 151.97585892660572,149.41490923115725 151.61786759181268,149.8333455203683 151.46477161905204,149.8817809878392 150.67166541431652,149.81316402123957 150.49324529568548,149.8387272480677 150.24575932468724,149.88043556067623 149.9602871348834,149.9234891594915 149.7081967737322,149.95308842427858 149.4710706805854,149.97461511911024 149.24200227022084,149.9880692849074 149.0071783721578,149.9988326073153 148.7585413036213,149.9988326073153 148.44083838271035,150.00825050696767 148.31191545828187,150.01901381232437 148.10586899870395,150.01363216078335 147.78125949255627,150.0176683996533 147.48772961998475,150.0284316970583 147.1700266990665,150.0284316970583 146.85002158307907,150.01228674754384 146.54267854002683,150.00825050696767 146.26871732561267,150.00959592063282 145.9797918431941,150.00555967920445 145.701226238627,150.00421426511457 145.41805624389963,150.00286885088008 145.14179283442354,150.00690509315518 144.8874002781813,150.00421426511457 144.60998577115242,150.00825050696767 144.34983772721898,150.00152343650007 144.06436553742242,150.00286885088008 143.8583190778445,149.9947963624818 143.63270396010194,150.00286885088008 143.31730323426746,150.00555967920445 143.02722665430338,150.00690509315518 142.75211434235825,150.01094133415972 142.48505971318082,150.01094133415972 142.24448032742657,150.00825050696767 142.09138435466593,150.00017802198 141.77253033621673,150.00555967920445 141.49972021935537,150.00825050696767 141.2223057123192,150.00690509315518 141.0289213256765,150.01363216078335 140.7802842571473,150.00421426511457 140.4671857263893,150.01228674754384 140.19207341444417,150.02035922485538 139.9687604917708,150.01497757388006 139.6625685462568,150.01901381232437 139.36328318597953,150.02035922485538 139.09047306911816,150.0176683996533 138.84183600058168,150.01901381232437 138.5897456394232,150.0176683996533 138.32614430286048,150.0257408735588 138.10858686790016,150.0257408735588 137.84268333626096,150.02305004949176 137.531887000594,150.0243954615953 137.29936529760744,150.03381334234655 137.05072822907096,150.03246793123708 136.72842091799976,150.02708628537857 136.4245311675695,150.01632298683944 136.2979104382175,150.03650416413984 135.96063885913463,150.03650416413984 135.7580456921787,150.0378495748264 135.54394154982583,150.03650416413984 135.2112743609032,150.03919498536834 134.9338598538743,150.03112251998664 134.65989863946743,150.03381334234655 134.40090169307223,150.04054039576567 134.1223360885051,150.0472674456305 133.85528145933495,150.04861285517836 133.59398231786327,150.04861285517836 133.39714463860582,150.05803071802893 133.13929878975614,150.05803071802893 132.86073318518174,150.05264908296522 132.6224559944967,150.05264908296522 132.40029416937614,150.05264908296522 132.10446210171358,150.05803071802893 131.82934978976846,150.05803071802893 131.7614350349395,150.06206694283173 131.71539113335166,149.86563585247404 131.5715039409115,149.85083612708786 131.29524053142086,149.84276354235408 131.0914962669267,149.81854575746547 130.90041407536773,149.82661835754425 130.60458200770518,149.81585488963538 130.3214120129851,149.8091277175754 130.05205518873845,149.7889461800778 129.7746406817023,149.77280092706678 129.5064349549939,149.76338285335714 129.2198116676518,149.76876461061238 128.93779277046997,149.77683724223516 128.66613375113957,149.7876007431105 128.41404338998836,149.79567336279888 128.14238437065796,149.79836423488814 127.884538521801,149.80643684775532 127.64395913603221,149.81316402123957 127.43561048138508,149.81585488963538 127.30553645941836,149.82392749142036 127.01430878190877,149.83065465566506 126.74034756750916,149.84007267963898 126.63559769141284,149.89254440004606 126.62984220371436,150.20602479138688 126.61718013077189,150.47913661326857 126.599913667691,150.76031458957914 126.55617196117964,150.98229281966996 126.51012805959908,151.15449144992363 126.3846584277926,151.42623767973782 126.2522822107494,151.7047042899594 126.13256806663412,151.96298672137254 126.01745831267908,152.23740606991305 125.95414794801763,152.51854525586077 125.96105453324708,152.8050587164007 126.02321380038484,153.16689045807016 126.07616428720212,153.46011459634337 126.12335928632092,153.72508657208982 126.02666709299956,153.90397316786493 125.75385697613092,153.9389431865511 125.48219795680052,153.97794809425432 125.2197477177906,154.01426290105883 125.03096772130812,154.05461256510443 124.92391565013531,154.06133749669607 124.67527858159156,154.09496210146153 124.44966346384172,154.14069142165044 124.20447968792723,154.15952109406226 124.09627651920891,154.15548616660544 124.11354298229708,154.15952109406226 124.3449135877454,154.16355602024942 124.6039105341406,154.1137918414015 124.8594541879138,154.07882230223913 125.07816272042692,154.04923261727436 125.26233832674916,154.02502282395744 125.5224863706826,153.98467306628027 125.79184319493652,153.94701317724503 125.96105453324708,153.92414819034911 125.92191721690324,153.7775423000976 125.860909047311,153.53005697260323 125.81831843834516,153.34847500846536 125.77687892692484,153.18303141172873 125.72047514748556,152.96647191459306 125.65025819757284,152.6732364217305 125.5927033206026,152.41093290283152 125.5351484436178,152.1513143613056 125.49601112727396,151.9925812490801 125.41773649458628,151.7235375608334 125.304928935715,151.5082985208819 125.16449503588956,151.27153137814912 125.13226430478244,150.99978184922293 125.17370381621004,150.79260257246642 125.24046747350076,150.5638942642072 125.304928935715,150.32980033260083 125.37859917824244,150.07417560957128 125.43960734783468,149.86429042360487 125.49486002973572,149.66247448381546 125.34521734959708,149.55214708507629 125.09888247613708,149.4902556869356 124.84794321252411,149.42701851303627 124.57628419319371,149.3557081318213 124.32189163695875,149.29381577924232 124.0640457881018,149.22923213419472 123.82922189003875,149.1659936644537 123.63353530831955,149.1202464906337 123.35381860621419,149.04355233061324 123.09021726965875,148.9708942793568 122.89798398056155,148.92245534825634 122.62862715630763,148.85114214222995 122.35006155174779,148.77982853692447 122.09566899551282,148.7152422856616 121.81249900078546,148.6439279194292 121.58112839534442,148.59279661860546 121.35090888742707,148.52417270803198 121.12068937952426,148.377504679107 120.95378023629746,148.21334212966394 120.7592447521165,148.0236106453367 120.56240707285178,147.82983940322265 120.38283585668978,147.65894148573625 120.17678939711186,147.5149548458412 119.89246830485354,147.43825101782295 119.63577355353482,147.4624733292203 119.49188636109466,147.51360916862814 119.2628179507301,147.67239809786315 119.03029624774354,147.8728999340574 118.8173432029289,148.0236106453367 118.58251930486585,148.12856883707354 118.33503333386761,148.18912124650615 118.1036627284193,148.21199652625 117.91488273194409,148.21872454188815 117.72725383299985,148.22679815595984 117.46940798413561,148.24698216874003 117.21386433036241,148.26582055180552 116.97443604214641,148.2819677151174 116.71313690067473,148.30080604643172 116.45413995427953,148.32098994191801 116.25039568977809,148.3263723086502 115.99600313354313,148.35328410816783 115.72664630929648,148.37615909304168 115.49067131368793,148.4030707873544 115.23858095253672,148.42190893953466 114.98879278645472,148.4340191655092 114.73324913268152,148.48515110377957 114.49497194199648,148.60086999554278 114.29813426273904,148.76771863976046 114.14849158259312,148.9641666610496 114.06676365729072,149.136392570741 114.01726646309544,149.33687136069966 114.003453292622,149.63287454379497 114.02417304833216,149.9275254269205 114.04719499912608,150.2154425378776 114.0690658523672,150.50335314249787 114.08978560807736,150.76973192637251 114.1139586564168,151.04821288270978 114.13467841212696,151.34417631018096 114.1519448752224,151.65896623053868 114.14964268013864,151.93070170368992 114.14734048506216,152.20915729212447 114.12546963180648,152.52796129352828 114.10359877855808,152.82927082642254 114.0851812179244,153.09963626453464 114.06446146221424,153.38075643554657 114.04259060896584,153.64976514932914 114.0218708532484,153.94297818253835 114.03913731634384,154.22811466556414 114.1450382899784,154.4917257418565 114.24748597099824,154.6477378935897" stroke="red" stroke-dasharray="none" stroke-linecap="round" stroke-linejoin="round" stroke-width="0.5"><title>2024-04-21 79.4km</title><desc>1713660889000</desc></polyline><polyline fill="none" opacity="1" points="19.237947498317226,194.44880375574212 19.446405836584745,194.36676501855254 19.863322513119783,194.33539718818247 20.439162873270107,194.24853220222394 20.59602261296095,194.93861714017294 20.711603473784635,195.63591954374715 20.779713623902353,196.2825338842722 20.77764967996336,196.48520028167331 21.483518508532143,196.338026052872 22.028399709553923,196.55275534774955 22.10063774756418,196.93154255200716 21.98299294278695,197.32238645671532 21.828197147056926,197.52021847593824 22.06761464446754,197.27895968652228 22.079998308130598,196.6926902060004 21.57433204204426,196.3066609306643 21.993312662518292,196.17878729428048 22.410229339046055,196.02437289207228 23.107842391844315,195.71795372055567 23.846734323524288,195.43324560800102 24.44321412310819,195.2836517871183 25.173850279010367,195.08097472428926 25.599022731315927,195.17990065829508 25.7765219104258,195.8892594335266 25.94163742589444,196.57205675848672 26.12945632471383,197.19451850807673 26.356490158475935,197.85556395977983 26.616547095312853,198.61067641078444 26.85596459273802,199.3368153174415 27.132533081123256,200.11358952382034 27.330671699673985,200.69494672596738 27.590728636510903,201.45237748517684 27.82395430210454,202.13500853580445 28.079883351056196,202.91409962099897 28.271830137775396,203.45197053687843 28.45345720478508,203.9850050094101 28.6619155430526,204.60244116585636 28.899269096516946,205.2994486599564 29.13249476209603,205.9819648150078 29.373976203452912,206.67893024837213 29.555603270462598,207.20465482157852 29.821852039131045,207.9811616649804 30.040630097115354,208.6177811441139 30.232576883834554,208.93126149652926 30.876527394124423,208.69012314531392 31.3780657723255,208.8082812551238 31.74338385026931,209.46899086271333 32.07980671300902,209.86926550065982 32.26968955578923,210.69390562397348 32.43067718335806,211.2629381977531 32.72375722329889,211.93322112310125 33.033348814780766,212.72403327745633 33.35326012597943,213.47383297134547 33.51218380960927,213.912611106216 33.77636863433872,214.54424397727962 33.999274580208294,215.11077008000575 34.19122136692749,215.73754857610948 34.376976321815164,216.3522569674351 34.614329875286785,217.09711677854648 34.85581131664367,217.89016094050385 35.06839754278917,218.73138444756478 35.17159473995707,219.25442187579029 35.204617843046435,219.86421540533593 35.241768834028335,220.42337938905257 35.30781504020706,221.10303446842227 35.43371562074026,221.91280993305554 35.53072098607663,222.5442221264566 35.64836579083931,223.22622414118996 35.728859604620084,223.92748419222517 35.794905810806085,224.46004191766042 35.82999285784172,225.11307092007155 35.90635878374451,225.89138007051588 35.964149214145436,226.5901490466822 36.009555980905134,227.04554218773046 36.0632185234208,227.77077925073172 36.110689234112215,228.26951700381687 36.13958444933087,228.72246749239457 36.16022388875717,229.505472494091 36.18499121608329,230.13426637977318 36.189119103961275,231.09790170450287 36.19118304790754,231.9025061759694 36.189119103961275,232.63240736782063 36.23658981465269,233.10695112689973 36.27580474957358,233.86331022304148 36.26961291774205,234.53052349749305 36.22007826310437,235.16640545212067 36.42440871348663,235.38317936261956 37.17568430881511,235.45543687761528 37.922832016258326,235.51324272573947 38.539951255283086,235.5782741307903 39.26439557935373,235.61921973569952 40.02186300651374,235.67943372780974 40.59976731061033,235.73001335904155 41.344851074121834,235.79022706036812 42.01356891172327,235.84562352600915 42.73388534790138,235.90583692390646 43.35719641875767,235.9491904725437 43.97431565778243,236.00217803185296 44.52951657849917,236.0431228802281 45.16108342512598,236.09611022258832 45.71215645796474,236.13464639472295 46.28180498628353,236.1876335257257 46.30863625755592,236.84996233862148 46.28799681811506,237.72179875695474 46.27354921052029,238.48041399375143 46.269421322635026,239.07283893112435 46.26529343474249,239.77361454124366 46.23639821953839,240.90299824895192 46.217822724051075,241.774680730603 46.15177651786507,242.6680005381968 45.8999753567914,243.30847259345137 45.57180826982221,243.8478036271008 45.46241924083006,244.14154109434094 45.64611025177146,243.83094972402796 46.050643264650716,243.74908773315474 46.599652353543206,244.14635643136353 47.115638339360885,244.5821402510337 47.72450180260057,244.87586832636953 48.09807565632218,245.2418193615249 48.764729549977346,245.44164542615727 49.50774936954258,245.70406496688156 50.17646720713674,246.03148330928343 50.88646392361261,246.28426633708114 51.501519218683825,246.63815790289664 51.99067393322912,246.8957490157045 52.69035092998092,247.10519012804616 53.30127833718143,247.3025926469436 53.71200318187039,247.50240078637216 54.145431409953744,247.71424366285464 54.83478868698148,248.02718979273777 55.50144258063665,248.10422203250528 56.17016041824536,248.13551630613438 56.70678584347479,248.21495542470984 57.449805663040024,248.39790507743237 58.048349406570196,248.64825487328017 58.67991625319701,248.90823062049822 59.38165719389508,249.1946819731602 60.07101447092282,249.47872264579019 60.723220756975934,249.72183941608637 61.4352814173908,250.0853062263268 61.93062796376762,250.34285869816085 62.374375911553216,250.56189637975694 62.929576832277235,250.84110622218577 63.54256818340946,251.18048603262832 64.07300177682191,251.45487455630064 64.63645847332373,251.72685293068207 65.24119404868543,252.0445581070744 65.84799356798612,252.3430044245415 66.47956041462021,252.66310786175018 66.97284301704349,252.92063145189059 67.62298535915761,253.24794699198173 68.29170319675177,253.58729127168954 68.85928778114612,253.8929375059597 69.33605883202108,254.14322745932805 69.89745158457663,254.42961358301181 70.4464606734764,254.72080926164017 70.87576101366722,254.93739869728597 71.45160137382481,255.22618143821092 71.99854651877104,255.51496055274401 72.38037614827044,255.78929735279235 72.88397847041779,256.2296732679497 73.30295909089182,256.6531962484805 73.78179408571305,257.1296502799978 74.37414599741169,257.74325078122274 74.91283536660194,258.2942741452298 75.44326896000712,258.81400461149497 75.89940057145577,259.2783834756374 76.28329414489417,259.71388052588736 76.576374184835,259.97373119292024 76.8942215520874,260.2768865955986 77.13157510555175,260.58484989929457 77.25953963003849,260.7508596579937 77.66820053079573,261.0949050552008 78.1119484785886,261.5039033810408 78.59284741734882,262.00190917603686 79.18313538511575,262.64184283160284 79.66197037993697,263.09892740712894 80.13874143082649,263.60170995709996 80.22129918855353,263.75566988142964 80.32449638571416,263.9817966534938 80.50612345271657,264.15018748766306 80.70632601520629,264.436449079034 80.76411644561449,264.52785959371613 80.80539532448165,264.7467622457134 80.65679136056133,264.9175529793065 80.56597782707104,265.14847928053496 80.44420513441582,265.4515665360341 80.40086231161695,265.773893049196 80.32243244176789,265.9326492255568 80.33275216148468,265.64159539942557 80.43182147076732,265.3842141573805 80.415309919219,265.0354219016226 80.71458179097681,264.57597024513416 80.7331572864714,264.3426326470908 80.61344853776973,264.2031100668737 80.35958343274979,263.96736309610424 80.58661726649734,263.7219912359651 80.3864147040149,263.60170995709996 80.00871296240803,263.2841643610918 79.57322079038568,262.81986632438384 79.24298975947022,262.4950927008831 78.72493982972082,261.9730395691131 78.25436061067012,261.4942799745222 77.86221126145392,261.0924991611955 77.37099260296964,260.61372124770605 76.94788409461034,260.180647217936 76.52064769836579,259.7283167510468 76.12437046127161,259.3337233369966 75.77556393486157,258.9896516052777 75.31943232342019,258.5108299330841 74.85504493618646,258.05606042406 74.41542487627885,257.61090695951134 73.97786876032478,257.17055748930943 73.6414458975778,256.8384851001683 73.26168021202466,256.4534676327785 72.83650775972637,256.0155024280357 72.42578291502286,255.62084531949768 72.02537779003615,255.3874168909424 71.3979388312946,255.04328612337304 70.71270944215212,254.67989769472115 70.06669498792326,254.36463553164867 69.47434307621734,254.061402197407 68.89643877212075,253.77741814700494 68.24836037393834,253.45733022443164 67.62711324704287,253.13242439228816 67.15859797193843,252.8869369405711 66.43415364786779,252.53073480038074 65.82941807250609,252.2178499889451 65.23913010473916,251.89774035158916 64.61581903389015,251.577626256465 64.02965895402303,251.26954231601485 63.46207436962868,250.98311682350868 62.92338500045298,250.72316454734573 62.260858994683076,250.37655693889428 61.68295469057921,250.10937667306098 61.09060277887329,249.78923766934167 60.518890306593676,249.48835108164712 60.05656686332077,249.2524532418429 59.48485439104843,248.96600260933337 58.93584530215594,248.67954840597122 58.411603540575015,248.42197729171312 57.86053050773626,248.14033080599802 57.69541499227489,248.2655074480772 57.28881803546392,248.3329099728944 56.69440217981173,248.20051196903478 56.18254408190842,248.11385104431247 55.49937863670493,248.0849639967746 54.80795741571637,247.99589537155953 54.39723257102014,247.80331337992175 53.99476350208715,247.61072977406184 53.39828370250325,247.32666600882476 52.85340250149602,247.13167105225875 52.30645735653525,246.9703776769984 51.91224406338006,246.85000874862635 51.404513853362005,246.56593557713677 50.77707489461318,246.22408015419387 50.21361819811864,246.02426089618712 49.703824044139765,245.77629000243905 49.14655917946948,245.5162788116213 48.57278276326542,245.3501590099113 48.10220354420744,245.21774381470095 47.92883225297555,244.86623795723608 47.47889247335843,244.86623795723608 47.026888749795035,244.50750383007107 46.622355736923055,244.14635643136353 46.18892750884697,243.8478036271008 45.80090604752331,243.56610105130676 45.50576206363621,243.94892678579527 45.07646172345267,243.826134320876 44.58730700890737,243.52757735354135 44.11879173380294,243.18326893477206 43.67091589811753,242.85340218082456 43.19620879118884,242.4922287673562 42.721501684245595,242.15753633262102 42.286009512223245,241.78431239635938 41.82987790077459,241.52425600264542 41.39644967269851,241.29309229080172 40.929998341533064,241.08841414477683 40.515145608944295,240.94634235871854 40.04043850200105,240.78500553551567 39.59462661026919,240.65497204683015 39.15913443824684,240.5345700116759 38.717450434400234,240.41657540452252 38.317045309413515,240.36841416607786 37.660711135467864,240.35637384067923 37.09725443897332,240.32747703395762 36.513158303037926,240.3033963338985 36.038451196109236,240.18540053846482 36.03638725216297,239.7687982870484 36.04464302792621,239.3786783406522 36.04670697187976,238.97169429264795 36.05909063553554,238.37445019758525 36.08179401891539,237.87111548417306 36.09417768257117,237.38222000194037 36.137520505377324,236.8451454708138 36.182927272129746,236.3779044874591 36.224206150996906,235.83598936767885 36.2634210859178,235.40244805554175 36.30676390872395,234.8966395028583 36.34185095575958,234.41008932377736 36.33565912392805,233.9066676319253 36.30469996477768,233.43214041906322 36.28406052535138,232.85884064010133 36.28406052535138,232.5119632270289 36.28406052535138,232.0301803380753 36.27993263746612,231.41107446540082 36.27580474957358,230.78231559552478 36.271676861695596,230.27399601241086 36.26548502986407,229.78493857241847 36.24071770253795,229.2862337894403 36.2180143191581,228.6525980540482 36.199438823678065,228.28156367522206 36.143712337208854,227.57561804541183 36.08798585073964,227.0069907380257 36.048770915826026,226.53473021613536 35.997172317242075,225.91306632463238 35.955893438374915,225.29861451065153 35.90223089585925,224.80945089455417 35.84650440938276,224.19978901022478 35.78458609109657,223.58770107499367 35.72060382884956,223.10091080603524 35.65249367872457,222.65748888482813 35.576127752821776,222.20441849075542 35.49769788298727,221.73446898554357 35.413076181313954,221.17774709415244 35.344966031181684,220.58003926355923 35.30781504020706,220.0955952614877 35.272727993178705,219.57257704772383 35.206681786992704,218.98446856609007 35.084909094344766,218.40357609748935 34.95900851380429,217.9190860441413 34.804212718059716,217.38878667043355 34.641161146551894,216.89463301519936 34.4781095750368,216.3908263552912 34.339825330833264,215.937631943214 34.199477142698015,215.4362149031531 34.001338524147286,214.869696856862 33.811455681374355,214.40200756163904 33.6071252309921,213.89573517967983 33.46058521102532,213.47624386320604 33.2294234893925,212.96512910682395 33.01477331928618,212.43712592990232 32.81250681286474,211.92357690371864 32.604048474589945,211.3810830168586 32.35224731352355,211.1978377305586 31.825941608010908,211.3979607983474 31.33059506162681,211.57879338999555 30.884783169894945,211.54503808140362 30.760946533293463,210.9277893698254 30.647429616423324,210.37321577557668 30.52978481165337,209.86203168381508 30.370861128038086,209.32190022955 30.23051293989556,208.88544540546172 30.0488858728786,208.3694051982584 29.89615402110212,207.93775514597655 29.70420723436837,207.3662282939822 29.52670805525122,206.85015379918877 29.328569436707767,206.283423059911 29.140750537873828,205.71908998083927 28.975635022419738,205.219860643816 28.76717668415222,204.633794900672 28.585549617142533,204.10077555927455 28.42249804563471,203.61598246793437 28.261510418058606,203.15529890671496 28.073691519231943,202.62465711763252 27.912703891663114,202.1422447981222 27.71869316100492,201.5802216014854 27.520554542446916,201.00612354818622 27.343055363329768,200.48266863244316 27.1861956236462,200.0195095816598 27.00869644452905,199.50568152228334 26.882795863988576,199.11005016429044 26.67227358178934,198.52141521771227 26.488582570840663,197.96412798939127 26.294571840175195,197.39235163499325 26.073729838251893,196.75059403444902 25.947829257718695,196.23669242588585 25.82399262112449,195.70588988950658 25.66919682538719,195.1533595961264 25.613470338917978,194.79867153123996 25.06239730607922,194.9699841417314 24.467981450427033,195.1316441586696 23.900396866054507,195.30777988903537 23.440137366713316,195.4718503058957 22.827146015573817,195.713128188896 22.348311020738038,195.90373591375464 22.10476563544944,195.97370543881334 22.13366085065354,195.9664672220224 21.727063893835293,196.1281201836573 21.064537888072664,196.25358139494347 20.800353063335933,195.91579964027005 20.754946296576236,195.50562936300594 20.67858037068072,195.0447822023052 20.56506345381058,194.4101973279012 20.377244554983918,194.01689062371042 19.834427297908405,194.30161639958533 19.38035963040602,194.27990015195064" stroke="red" stroke-dasharray="none" stroke-linecap="round" stroke-linejoin="round" stroke-width="0.5"><title>2024-04-05 108.1km</title><desc>1712276378000</desc></polyline></svg>