<?xml version="1.0" encoding="utf-8" ?>
<svg baseProfile="full" height="300mm" version="1.1" viewBox="0,0,200,300" width="200mm" xmlns="http://www.w3.org/2000/svg" xmlns:ev="http://www.w3.org/2001/xml-events" xmlns:xlink="http://www.w3.org/1999/xlink"><defs /><rect fill="#222222" height="300" width="200" x="0" y="0" /><text fill="#FFFFFF" style="font-size:12px; font-family:Arial; font-weight:bold;" x="10" y="20">Over 10km Runs</text><text fill="#FFFFFF" style="font-size:4px; font-family:Arial" x="10" y="280">Runner</text><text fill="#FFFFFF" style="font-size:9px; font-family:Arial" x="10" y="290">yihong0618</text><text fill="#FFFFFF" style="font-size:4px; font-family:Arial" x="65" y="280">SPECIAL TRACKS</text><rect fill="yellow" height="2.6" width="2.6" x="65" y="283" /><text fill="#FFFFFF" style="font-size:3px; font-family:Arial" x="70" y="285.5">Over 20.0 km</text><rect fill="red" height="2.6" width="2.6" x="65" y="287" /><text fill="#FFFFFF" style="font-size:3px; font-family:Arial" x="70" y="289.5">Over 40.0 km</text><text fill="#FFFFFF" style="font-size:4px; font-family:Arial" x="120" y="280">STATISTICS</text><text fill="#FFFFFF" style="font-size:3px; font-family:Arial" x="120" y="285">Number: 5</text><text fill="#FFFFFF" style="font-size:3px; font-family:Arial" x="120" y="290">Weekly: 1.2</text><text fill="#FFFFFF" style="font-size:3px; font-family:Arial" x="141" y="285">Total: 317.5 km</text><text fill="#FFFFFF" style="font-size:3px; font-family:Arial" x="141" y="290">Avg: 63.5 km</text><text fill="#FFFFFF" style="font-size:3px; font-family:Arial" x="167" y="285">Min: 18.7 km</text><text fill="#FFFFFF" style="font-size:3px; font-family:Arial" x="167" y="290">Max: 108.1 km</text><polyline fill="none" opacity="1" points="73.9953899346292,36.094068164151395 74.20284287357936,36.72464472413412 74.38263542071218,37.387555740817334 74.5071071840357,37.79176836559782 74.60391855548369,38.276822105413885 74.70072992698988,38.81037944286072 74.81137149437563,39.376271555083804 74.9220130618778,39.958329829460126 75.04648482520133,40.57272227216163 75.11563580483198,41.10627160212607 75.21244717633817,41.639819071264355 75.32308874378214,42.18953269936901 75.39223972341279,42.72307639058272 75.48905109486077,43.33745773007104 75.6135228581843,43.984172264128574 75.7103342297487,44.679387339245295 75.84863618901,45.40693461635965 75.93161736457841,46.15064603484643 75.97310795233352,46.74884607417334 75.91778716864064,47.023693956725765 76.13907030347036,47.68656034798187 76.20822128310101,48.6081015351665 76.2635420668521,49.481135434660246 76.33269304648275,50.11165681970306 76.27737226273166,50.28949571488192 76.20822128310101,50.46733440342359 76.18056089128368,51.14635294927575 76.45716480980627,51.84153548165341 76.65078755281866,52.633716377589735 76.8167499039555,53.42589317234524 77.03803303878522,54.33123305889603 77.2316557817976,55.15573436663544 77.14867460622918,55.75389920141606 77.61890126776416,56.09339712157089 77.86784479441121,56.772390702259145 78.11678832117468,57.40288204382523 78.36573184782173,57.96870539509109 78.26892047637375,58.486027771112276 77.72954283520812,58.66385693398479 77.12101421435364,58.84168589017645 76.41567422205117,59.11651205245289 75.73799462156603,59.34283910963859 75.08797541295644,59.552999648672994 74.79754129849607,59.77932606030663 74.645409143297,59.957153720315546 74.79754129849607,60.60379801488307 75.08797541295644,61.33126958030334 75.33691893960349,62.107235438597854 75.55820207454963,62.850865694199456 75.86246638494777,63.6106580930209 76.62312716094311,63.917807141071535 76.89973107952392,64.59676600733656 77.2731463695527,65.34038416674593 77.57741067989264,66.06783321801049 77.9231655781623,66.74678254641185 78.24126008455642,67.44189421477495 78.55935459083412,68.13700272624556 78.87744909711182,68.84827328420943 79.19554360350594,69.52721027885855 79.51363810978364,70.2223093201319 79.84556281211553,70.88507523362932 80.17748751438921,71.58016810861591 80.48175182478735,72.25909298578335 80.79984633112326,72.95417962124338 81.11794083751738,73.68159248771553 81.43603534379508,74.36050804438128 81.74029965425143,75.00709148938768 82.18286592396908,75.39504024542111 82.45946984243346,76.02545487706084 82.57011140987743,76.31641460067476 82.45946984243346,76.80134624437778 81.90626200533006,77.05997582623968 81.28390318859601,77.31860497109301 80.56473300041398,77.64189078778145 79.83173261617776,78.06216132880945 79.01575105643133,78.40160976960033 78.18593930080533,78.80571407491516 77.45293891656911,79.24214552649937 77.14867460622918,79.3876224005362 76.41567422205117,79.74323195515899 75.66884364193538,80.08267666843312 75.04648482520133,80.38979266531533 74.3688052247162,80.72923594502208 73.5389934690902,81.11717020027572 72.80599308485398,81.45661186728103 72.11448328848928,81.77988894563168 71.61659623507876,81.99001868047344 71.21552055323264,82.18398433362017 70.6346523242537,82.47493235253205 70.06761429121252,82.7982072805753 69.48674606223358,83.16997260400967 68.79523626581067,83.65488253871445 68.04840568569489,84.20444527475047 67.32923549751285,84.70551546188653 66.66538609290728,85.12576661241474 66.05685747216921,85.5298531693843 65.42066845949739,85.917775260692 64.97810218977975,86.11173593773856 64.99193238565931,86.09557255735854 64.6323472915683,86.30569636909058 64.00998847483424,86.62896320864093 63.304648482531775,86.90373948565684 62.62696888210485,87.13002546112693 61.92162888974417,87.38863759500964 61.13330772181507,87.67957572355226 60.48328851320548,87.88969736141735 59.77794852090301,88.13214504682401 58.934306569281034,88.43924489719211 58.11832500959281,88.7140179254493 57.27468305802904,89.0211166087538 56.54168267379282,89.27972554857843 55.75336150592193,89.5544970685296 54.89588935842039,89.84543108163052 54.16288897418417,90.08787567025865 53.52669996157056,90.26566812460078 52.97349212446716,90.4596232939075 52.68305801000679,90.5242749624158 52.0330388013972,90.78288136346964 51.41067998460494,91.0576501860196 50.663849404489156,91.33241851547791 49.875528236618266,91.60718635191733 49.087207068747375,91.84962815110339 48.243565117241815,92.15672054560855 47.441413753374945,92.46381232430576 46.68075297732139,92.7709034870204 45.90626200538827,93.06183138897177 45.11794083751738,93.32043350439926 44.32961966964649,93.59519777350943 43.48597771796631,93.85379898824613 42.76680752978427,94.11239976619254 42.54552439489635,94.1447248327604 41.9231655781623,94.38716261426453 41.13484441029141,94.64576249154925 40.36035343835829,94.9690117239661 39.58586246642517,95.25993544969242 38.922013061877806,95.48620907652366 38.21667306951713,95.66399526305031 37.317710334202275,95.98724234603287 36.51555897039361,96.34281334928528 35.87936995772179,96.76303256141546 35.40914329618681,97.1994128304359 34.96657702646917,97.65195401820529 34.78678447945276,97.89438624722243 34.23357664234936,98.33076329235337 33.51440645410912,98.75097704945074 32.72608528618002,98.97724551802094 32.02074529387755,99.10654163564323 31.343065693450626,99.20351365224633 30.928159815608524,99.2196756490739 30.16749903955497,99.44594342511846 29.199385324609466,99.59140110459703 28.328082981170155,99.76918252525502 27.4291202458553,99.93080181947153 26.55781790241599,100.06009713205276 25.728006146731786,100.2055542282178 24.856703803350683,100.33484930884151 23.957741067977622,100.48030614401796 23.155589704227168,100.62576284111128 22.43641951592872,100.75505756693019 21.57894736842718,100.88435218363884 20.70764502498787,101.02980849693995 19.905493661121,101.15910288164741 19.04802151361946,101.25607359857531 18.25970034574857,101.45001484818931 17.40222819824703,101.57930887819384 16.60007683438016,101.72476453143463 15.784095274691936,101.85405832945253 14.954283519007731,101.96719031315297 14.304264310398139,102.08032221329631 14.027660391875543,102.14496897593199 14.31809450633591,102.11264559804113 14.622358816792257,102.59749554983864 14.954283519007731,103.19547504311777 15.092585478327237,103.45406004681718 15.396849788725376,103.93890575198748 15.618132923555095,104.43991136823024 15.618132923555095,104.71465568779968 15.797925470629707,105.10252918218612 15.90856703807367,105.34494961741439 15.72877449094085,104.9409153455781 15.604302727617323,104.58536430467211 15.452170572418254,104.22981243836693 15.300038417219184,103.93890575198748 15.189396849775221,103.6964830912475 15.009604302758817,103.34092916142254 14.719170188240241,102.83991995010001 14.594698424916714,102.50052568226238 15.078755282389466,102.40355575327703 15.82558586250525,102.25810074475885 16.503265462990385,102.16113066229445 17.25009604304796,102.01567542349221 18.01075681904331,101.90254347557493 18.799077986972407,101.74092626213678 19.573568958905526,101.62779411127849 20.348059930838645,101.54698538093362 21.09489051095443,101.40152955883241 21.869381482887547,101.25607359857531 22.574721475190017,101.14294108955073 23.266231271612924,101.01364669116447 24.02689204766648,100.88435218363884 24.842873607354704,100.75505756693019 25.65885516704293,100.62576284111128 26.433346139092464,100.4964680060948 27.19400691514602,100.38333493591927 27.91317710338626,100.25403989621555 28.66000768338563,100.12474474741612 29.351517479866743,100.02777331414109 30.056857472169213,99.93080181947153 30.610065309272613,99.84999219367455 30.90049942373298,99.88231604911562 31.398386477143504,99.75302058643138 31.937764118309133,99.639886967052 32.518632347288076,99.54291522680433 33.25163273146609,99.39745750121074 33.97080291970633,99.09037962694129 34.62082212831592,98.73481500320486 35.07721859391313,98.34692538123636 35.47829427581746,97.91054838216223 35.86553976178402,97.42568359147117 36.32193622743944,97.00546619773377 36.91663465235615,96.68222126402543 37.67729542829329,96.37513794499682 38.41029581252951,96.16502795086126 39.157126392645296,95.84178124311438 39.95927775645396,95.56702100507391 40.789089512079954,95.27609786270477 41.63273146370193,94.98517416763934 42.476373415323906,94.69424991987762 43.264694583194796,94.41948762284301 44.039185555127915,94.16088736343954 44.827506722998805,93.88612410936912 45.57433730305638,93.62752294924576 46.29350749135483,93.33659612212796 46.971187091839965,93.11031931887555 47.676527084142435,92.8840421812638 48.39569727232447,92.62543932884 49.12869765650248,92.38299875801022 49.88935843255604,92.124395059378 50.60852862079628,91.88195369527966 50.94045332306996,91.78497704213078 51.466000768356025,91.6395119473309 51.86707645020215,91.46172108812607 52.088359585090075,91.41323263620143 52.61390703031793,91.23544151431997 53.194775259296875,91.04148732774775 53.913945447595324,90.76671847621037 54.66077602759469,90.47578621357388 55.421436803706456,90.201016346924 56.16826738376403,89.91008300945396 56.901267767942045,89.65147513432021 57.63426815206185,89.37670378839539 58.325777948542964,89.13425807365275 58.878985785588156,88.95646430557827 59.29389166343026,88.7948334281391 59.69496734533459,88.66552860332013 60.35881674988195,88.43924489719211 61.02266615437111,88.1967976980959 61.61736457928782,87.98667648165429 62.17057241644943,87.77655497685191 62.75144064537017,87.58259640879987 63.40145985397976,87.37247434945311 64.10679984628223,87.09769891366886 64.74298885901226,86.79059637250612 65.13023434492061,86.61279988290335 65.72493276983732,86.32185972724983 66.34729158657137,85.88544845725119 66.95582020742586,85.46519939193968 67.55051863234257,85.09343964184518 68.13138686126331,84.64086133634555 68.56012293504318,84.28526315782801 69.09950057620881,83.91350054263603 69.59738762967754,83.55790067464113 70.09527468302986,83.25079103310418 70.68997310788836,82.9113533441705 71.38148290436948,82.52342363524076 72.11448328848928,82.21631191858614 72.91663465229794,81.82838044849632 73.73261621204438,81.4727757373912 74.52093737991527,81.1010062926216 75.18478678446263,80.76156383717898 75.82097579713445,80.470612562116 76.55397618137067,80.11500469715975 77.28697656549048,79.77556005549559 78.03380714560626,79.46844282641541 78.78063772566384,79.16132498119259 79.4859777179663,78.85420651988534 80.12216673069634,78.5309232633881 80.85516711481614,78.19147510926996 81.5190165193053,77.88435470225522 82.15520553203532,77.56106939761958 82.9020361120929,77.1731261308596 83.74567806377308,76.80134624437778 84.43718786013778,76.51038744248217 84.76911256241146,76.36490783415502 85.3084902035771,76.05778376257513 85.94467921624891,75.73449460047414 85.65424510178855,75.3303821877198 84.99039569718298,75.63750771869672 84.39569727226626,75.89613926684251 83.78716865152819,76.2032636627846 83.12331924703903,76.55888061450969 82.61160199769074,76.39723664797202 82.33499807910994,75.71833012442221 81.92009220132604,74.94243326772994 81.53284671530128,74.16653247833892 81.2009220130858,73.4067924777919 80.81367652706103,72.61471910058754 80.45409143297002,71.90346604472143 80.12216673069634,71.28919938227045 79.80407222436043,70.59410518601362 79.47214752202854,69.85051255121653 79.14022281981306,69.09075112799474 78.79446792165982,68.31482067561592 78.43488282751059,67.6197129716893 78.13061851705424,66.97309831991151 77.79869381478056,66.3103154667624 77.56358048407128,65.67986082092102 77.39761813287623,65.29188744036946 77.2731463695527,65.09790038129722 77.02420284290565,64.66142859938554 76.74759892426664,64.09562999240006 76.27737226273166,63.67532110174943 75.7518248175038,63.190347870477126 75.48905109486077,62.34972396247031 75.25393776409328,61.622257238210295 75.00499423744623,60.894787056022324 74.75605071068276,60.312808420465444 74.9220130618778,59.730827571693226 75.72416442562826,59.48833489815297 76.51248559349915,59.29434048268013 77.2731463695527,59.019514639803674 78.03380714560626,58.72852203284856 78.68382635415765,58.56685923440091 78.60084517864743,57.74237630564312 78.42105263157282,57.24121784487215 78.1997694967431,56.59455934134894 77.89550518628675,55.75389920141606 77.57741067989264,54.97790112700022 77.32846715324558,54.12106534832856 77.16250480210874,53.2965584656049 77.01037264696788,52.55288178018236 76.98271225509234,51.72836644745257 76.95505186315859,51.11401880111953 76.96888205915457,50.96851504998631 76.78908951207995,50.33799719593662 76.52631578943692,49.691309518399066 76.45716480980627,48.73744020498998 76.41567422205117,47.799732371699065 76.37418363423785,47.21770392949111 76.34652324242052,46.68417591243633 76.2635420668521,46.03747279132949 76.20822128310101,45.35843157215277 76.11140991159482,44.695555094091105 75.97310795233352,44.03267574396159 75.86246638494777,43.40212930647249 75.76565501338337,42.72307639058272 75.62735305418028,41.9631802681688 75.43373031116789,40.879917568163364 75.30925854778616,39.99066633533221 75.15712639258709,39.052904890151694 75.03265462926356,38.17981148051331 74.83903188625118,37.35521868473734 74.53476757585304,36.32042927959992 74.21667306951713,35.431151541968575 73.9538993468741,34.849076041558874 73.9538993468741,34.76823204691755 73.73261621204438,34.655050382585614 73.35920092195738,35.12394530385791 72.69535151741002,35.431151541968575 71.97618132922798,35.75452586291067 71.24318094504997,36.094068164151395 70.55167114868527,36.38510382252571 69.72185939300107,36.708476126834285 68.9197080291924,37.08035343172378 68.21436803688994,37.371387213643175 67.68882059160387,37.24203893450613 67.38455628120573,36.579127287172014 67.01114099111874,36.530621444035205 66.4302727621398,36.80548768484732" stroke="#4dd2ff" stroke-dasharray="none" stroke-linecap="round" stroke-linejoin="round" stroke-width="0.5"><title>2024-05-25 18.7km</title><desc>1716643451000</desc></polyline><polyline fill="none" opacity="1" points="180.33312977333844,105.1121247409701 180.46148016037478,104.89980168663351 180.53393602401047,104.8756739433029 180.5153045162224,104.86602283890716 180.58569021233416,104.88773781812597 180.6333040655809,104.85637173048599 180.56912887206272,104.84672061802485 180.60225155259832,104.86602283890716 180.64572507078265,104.68747668006654 180.79063679807587,104.82259281922234 180.64779523831385,105.08317171215458 180.6188128928552,105.16761794474041 180.59397088245896,105.27136575061559 180.61674272531673,105.3895894263369 180.73474227468978,105.44266924712974 180.72439143701922,105.50781249682768 180.674707416234,105.57536826538671 180.6353742331121,105.66222539173577 180.52565535388567,105.73701876654195 180.52979568894807,105.92038214446438 180.53600619154167,105.95898477536502 180.5070238460903,105.76114560997485 180.60225155259832,105.59708257759667 180.5070238460903,105.59466987725136 180.5173746837463,105.45473282575949 180.59190071492776,105.29549308052447 180.60225155259832,105.15314146965648 180.47597133309318,105.31720765590035 180.22548106163595,105.23034923191153 179.9294471044559,105.12660124176364 179.69551817325555,105.04698037507842 179.828008895347,104.70195344708009 180.01432397330063,104.43895743115172 180.25032307203946,104.13011424881915 180.43249781490886,103.95397527160821 180.5711990396012,103.80437672889275 180.44491882011062,103.74888024882421 180.15923570058658,103.47863461345878 179.8859735862643,103.17219153912993 179.70586901091883,102.96950254644253 179.50299259270832,102.84402751634661 179.30425650957477,102.6413356425146 178.9875208770609,102.30351189802786 178.7266797679331,101.98981399433796 178.42443530815945,101.65439382754812 178.15531352889957,101.37929739096217 177.88619174964697,101.1114371839376 177.69159600156854,100.95458066462925 177.44110573010403,100.71326086111367 177.2320188093072,100.49365764716458 177.08917724954517,100.34162342886157 176.967037365117,100.22337389999666 176.70205592093407,99.93860724210208 176.5985475442867,99.80346251396622 176.40395179620828,99.65142374884272 176.14725102215016,99.39319688415526 175.93195359874517,99.16875436487862 175.66904232210072,98.88880149632678 175.41648188309773,98.62332581108785 175.1515004389148,98.3602605283595 174.90308033498877,98.10201921436601 174.66087073365634,97.8510155411368 174.41245062972303,97.61931741911576 174.1557498556649,97.36589493387692 173.97564528032672,97.18729074823204 173.78726003484917,97.0062715816639 173.46845423480408,96.67560623708596 173.0937539113802,96.28700805892367 172.78943928406807,95.96357352775885 172.59691370351356,95.76082121069703 172.39196711777913,95.6811680271112 172.01312645929283,95.47599946937225 171.67568915145966,95.29255309592554 171.26372581243777,95.0801396828665 170.91386749941012,94.884621062316 170.57021968898334,94.71565301809096 170.19344919802825,94.53220059705745 169.80011736680171,94.33184957547019 169.46682039403822,94.16287748143623 169.12110241607297,93.98907632169357 168.74640209264908,93.81768778428159 168.40068411466928,93.63905612207236 168.04461529904802,93.44593925502704 167.6947569860131,93.27213269193635 167.46703855741362,93.15384692069892 167.20826761583157,93.03073251437672 166.87497064305353,92.85692282170021 166.49612998455996,92.66862750952532 166.11107882348006,92.46584622294176 165.75501000785152,92.27271953007585 165.3927306896221,92.07717710544603 165.01181986360461,91.89611782616521 164.6640317181009,91.71747127705385 164.31003307001083,91.53640917294433 163.95189408684382,91.3384463118673 163.5523517530237,91.14531017506488 163.21905478025292,90.98114318660737 162.93751199580583,90.83146050178584 162.56281167238194,90.63832011752856 162.2108831918158,90.45966382138795 162.0659714645226,90.3799923239967 161.92727023983025,90.32929213683929 161.55049974886788,90.13373322749794 161.14267674492294,89.92851530407097 160.75555541630456,89.72812427457757 160.3808550928734,89.5253171215627 159.993733764255,89.33699459592935 159.60040193304303,89.12694073284001 159.22156127454946,88.9362005090934 158.87170296151453,88.76477440417875 158.50528330823727,88.57403118312504 158.14921449260146,88.3953588858858 157.91942589647078,88.3398253221294 157.78279483930964,88.51849804990707 157.71240914319787,88.69716939250611 157.64616378214123,88.8372081251855 157.5550764107029,88.9844893225636 157.49918188732408,89.10762533897287 157.45777853666368,89.21385980491686 157.45156803407008,89.23076069753733 157.48883104965353,89.11486861357298 157.5095327249801,89.10038206210265 157.52816423277545,89.08830992891853 157.658584787343,88.78891900313829 157.72275998085388,88.634393132681 157.53437473537633,88.54505739118395 157.2818142963879,88.49435316764357 156.91332447556488,88.4122603787273 156.67939554436452,88.33258180395205 156.4475367806881,88.30360770846346 155.99831042608275,88.26739003787225 155.5387332338214,88.25290295369814 155.09157704675454,88.21427068471712 154.70859605320584,88.06457003072319 154.43326377134508,87.93418479782486 154.14551048428984,87.79414057782742 153.76252949074114,87.61304765224122 153.34228548160172,87.41988029633285 152.91169063478446,87.28466218373615 152.48523612304416,87.15910179727143 152.11674630222115,87.050443218297 151.88695770609047,86.94661343076586 151.6157657592994,86.78966053819386 151.2431356034067,86.57716876474842 150.8622247773892,86.38640743521682 150.47717361630203,86.25118325768744 150.0859119526067,86.09181088673722 149.78366749284032,85.94209644313378 149.42759867720451,85.76823328771388 149.05289835377334,85.64024984881144 148.67819803035673,85.52192490486414 148.33040988486027,85.41325860468532 148.13581413678912,85.31425108494113 148.0364460952187,85.0920863213014 147.93086755103286,84.9182167509025 147.92672721597046,84.53666503842578 148.01988475494,84.15269206159792 148.15444564458448,83.7662976991578 148.19584899523034,83.37748182904033 148.23311201081378,83.08767691118192 147.91223604324477,82.89930175908194 147.56651806527952,82.701264681451 147.51890421202552,82.418696634546 147.38641348993406,82.21099483369107 147.01792366910377,82.0105366680873 146.6825565288018,81.82456789391836 146.38445240409055,81.64342803367617 146.3948032417611,81.32220317762585 146.40308391188591,80.87296390839765 146.40308391188591,80.53240571846618 146.40722424694832,80.26430317422455 146.411364582018,80.01552054329659 146.40929441447952,79.83195105316736 146.40515407941712,79.57591747779225 146.4155049170804,79.07591917257741 146.43206625733728,78.57349447772685 146.44448726253177,78.14835732436404 146.44655743007024,77.69905611664217 146.45069776513265,77.26424014527038 146.45483810020232,76.84632594203686 146.47139944046648,76.4356514131996 146.421715419674,76.35351562800861 146.2954352001907,76.24963759749517 145.86898068844312,76.21581674219487 145.47564885722386,76.18682739808355 145.09059769613668,76.15783801745783 144.6372310064762,76.12401702723946 144.25425001291296,76.09502756749134 143.82572533363418,76.0587906914443 143.4344636699534,76.02496955565766 143.09081585951208,76.00081157109344 142.82376424779795,75.98390096680669 142.4325025841099,75.95732713495818 142.03917075289064,75.92350585004169 141.67068093206035,75.87518964250557 141.30633144629974,75.85827894590511 140.91299961508776,75.83412078633955 140.5672816371225,75.77855692310186 140.55279046439682,75.36786333835335 140.5734921397161,75.01756007642325 140.5776324747785,74.63342830007241 140.5859131449106,74.28794581590046 140.59626398257387,73.87722562344061 140.60247448516748,73.50998724228157 140.60868498777563,73.20556150862467 140.60661482023716,73.13549469803365 140.60868498777563,72.88663499046925 140.61489549036924,72.77307675363772 140.60454465270595,72.48555445589773 140.60247448516748,72.31400582692186 140.64594800336636,72.15695314336881 140.62524632803252,71.87667184355087 140.6190358254389,71.55289436627572 140.62731649556372,71.12037853550464 140.6231761605086,70.7096017797976 140.61489549036924,70.3664767479604 140.65629884102236,70.0450944339882 140.60868498777563,69.67537839688339 140.62110599297012,69.31532242506 140.60868498777563,69.03983955224612 140.59419381504995,68.76676993848923 140.58798331244907,68.63385877606743 140.59419381504995,68.99392541922134 140.55693079945195,69.13650058525309 140.39338756437064,69.33465443255227 140.04145908379724,69.3684854065541 139.66882892791182,69.3467369289774 139.59844323180005,69.13891710587268 139.32518111748504,69.05917179136668 139.06434000835725,69.05433873310358 139.17612905512215,69.05917179136668 139.54875921101484,69.10991884169016 139.91310869677545,69.18241443358056 140.2712476799352,69.23799423257333 140.55693079945195,69.27182534878739 140.55279046439682,69.6463808092376 140.54865012932714,69.93635504013037 140.25261617213982,69.98226729136331 140.00833640328347,69.96776869561836 139.63156591232837,69.96051939431527 139.20718156811927,69.94118791300025 138.83041107716417,69.92668929135289 138.43086874334404,69.90977422119613 138.00648439912766,69.8976920206187 137.61315256791568,69.8880262555831 137.19911906136258,69.87836048648387 136.76852421455987,69.86869471332102 136.35656087554526,69.84211381617934 136.2923856820271,69.55455487379913 136.28203484437836,69.12683450024088 136.27375417423173,68.79093552183986 136.26961383916932,68.64835821294582 136.24270166124188,68.3390349097026 136.21992981838412,68.03454071834312 136.19094747292547,67.66237567423377 136.15989495993563,67.307121602591 136.13505294954666,67.06303228981778 136.11849160927522,66.79235596181388 136.0791584261533,66.41533719330619 136.0460357456468,66.05764700406871 136.0232639027672,65.70478501182879 135.99221138978464,65.37125294291764 135.96322904433327,65.17064799066975 135.92596602874255,64.79118564158853 135.8990538508151,64.36821067049277 135.87421184042614,64.00807155872099 135.82866815470334,63.60200189763964 135.77277363130997,63.22009650145628 135.7168791079239,62.867190935365215 135.68375642741012,62.59163076572986 135.605090061159,62.17828431417911 135.54919553778745,61.837449189575636 135.4912308468629,61.49177435926504 135.45189766374097,61.2210323981908 135.40635397802544,60.87534829188735 135.38358213516767,60.57800745122586 135.3628804598411,60.25407077237469 135.33596828191367,59.893867160528316 135.31112627151742,59.569920832507705 135.28421409358998,59.21937674806577 135.21382839747093,58.85915690782895 135.13102169617923,58.489260856313194 135.05028516238963,58.16771238890942 134.96333812602097,57.850994835163874 134.86604025198176,57.517348717672576 134.75632137274079,57.181279973601704 134.65695333117765,56.88630910877873 134.55965545713116,56.596170134878776 134.48305925842578,56.32053471341351 134.3774807142472,55.955433577844815 134.29881434801064,55.597580472509435 134.19116563630814,55.341276846918845 134.06695558434876,55.007594253796924 133.92411402458674,54.64489028117168 133.85579849601345,54.47320840229804 133.71088676872023,54.151603680376866 133.60944855961134,53.842085106032755 133.5225015232354,53.600270815388285 133.3423969478972,53.21578084698558 133.20783605826,52.87723088758321 133.06913483356766,52.52174805475079 132.93250377640652,52.18802446546033 132.8248550647113,51.9147544338266 132.71513618547033,51.63422606029599 132.60748747376783,51.34402068530471 132.53089127505518,51.160222049275035 132.28040100359794,51.30048956246901 131.92226202043094,51.428664298840886 131.56205286974,51.56167506066595 131.24738740477187,51.677756549963306 130.94100260992855,51.68501162354187 130.85405557353806,51.288397569249355 130.77538920730876,50.906287300815166 130.69465267351916,50.55561088466493 130.61391613975138,50.16381434196046 130.53317960597633,49.77201110782153 130.41932039167295,49.421317352456754 130.30339100984565,49.07787413364167 130.25163682152197,48.89163868869582 130.10879526176723,48.509488495401456 129.9783747071997,48.14426305653615 129.84795415263943,47.74758777932584 129.71960376561765,47.36541852310984 129.63265672923444,47.123535956034175 129.4980958396045,46.71958638096112 129.36767528504424,46.34707567583973 129.24139506554639,45.9576261954262 129.1213253486494,45.6020361102037 129.0053959668221,45.28272602812467 128.88946658498753,44.96099243253775 128.7569758628888,44.564262083385984 128.64518681613117,44.23768011971515 128.54374860702228,43.94496196144428 128.4278192251877,43.596598290418115 128.30981967582193,43.255487065936904 128.23322347710928,43.03049603322688 128.11108359267382,42.68695707763618 127.99929454590892,42.35067100017841 127.8895756666825,42.04099312604376 127.74466393938201,41.627276311892274 127.60803288222087,41.22806879695236 127.49831400299445,40.89901979872593 127.3782442860902,40.54819029481223 127.26024473673169,40.19735541949922 127.13603468476504,39.83925635193373 127.02010530293046,39.50534812500882 126.93936876915541,39.23434656630525 126.85449190031068,38.980279693711054 126.70751000548626,38.588285277530304 126.59572095872136,38.26887746064676 126.48600207949494,37.94704538331462 126.36593236259068,37.58891113989375 126.25000298075611,37.25738999156056 126.12165259371977,36.877465695106366 126.03056522228871,36.5386743828949 125.96017952616967,36.23375791709077 125.87116232226253,35.880436934978206 125.7862854534178,35.546470995535856 125.68691741185467,35.17377861737077 125.69519808198675,34.90998619029233 125.56684769495769,34.81076072938049 125.36397127675446,34.89304528837965 125.02239363384433,34.98501003381898 124.63734247275715,35.09875539229142 124.26678248440294,35.21976047255339 123.90864350123593,35.32624441428197 123.55257468561467,35.45450850485577 123.19857603751007,35.59003204644614 122.82801604914857,35.74733515152184 122.4843682387218,35.83203637595216 122.19454478414264,35.96271765056554 122.01444020878262,36.03531803648366 121.84882680617011,36.10065818703697 121.53623150873318,36.19019809058227 121.17809252556617,36.27247769331734 120.87170773072285,36.32813725696542 120.81167287226708,35.9385174707877 120.76819935408275,35.62391280652082 120.72472583589843,35.35528540336236 120.6833224852453,35.08181463002256 120.61707712419593,34.687333336492884 120.55497209821624,34.379972035549144 120.43904271637439,34.04598421229275 120.3106923293526,34.09196833222268 119.99188652930752,34.23960093520145 119.66687022666883,34.363030741513285 119.45571313833352,34.29284524697141 119.26939806038718,34.33882887115033" stroke="red" stroke-dasharray="none" stroke-linecap="round" stroke-linejoin="round" stroke-width="0.5"><title>2024-05-01 58.8km</title><desc>1714551575000</desc></polyline><polyline fill="none" opacity="1" points="19.185268563698628,114.20830783045312 19.45568355384603,114.10047812833545 19.707232381908398,114.00245069123775 19.801563192428148,114.26222249345119 19.85187295803189,114.50973820106992 19.891701522479707,114.78665858384011 19.942011288090725,115.06112508040496 19.992321053701744,115.35519272171041 20.03005337790819,115.6615092159991 20.05520826071006,115.87715360108268 20.078266903277836,116.21041825210341 20.080363143519207,116.30843635569545 20.12648042865476,116.37949922175176 20.43253150278906,116.30843635569545 20.786796102285734,116.23492281684048 21.090750936193217,116.16630997033099 21.34858848494332,116.08299409809115 21.476459139201324,116.02418271395436 21.75525909029966,115.91636145566008 22.052925203483028,115.81834169493231 22.386227400653297,115.62475145031931 22.696470955248515,115.45076390219947 22.971078425871383,115.30373115368639 23.291803181629803,115.31598391833359 23.578988093657244,115.24981891230709 23.859884284989676,115.16649974727261 24.178512800521275,115.07582855104374 24.47617891371192,114.99495934717379 24.765460065980733,114.90428748017803 24.96041040770797,114.90918867123764 25.03797129636223,115.22286274461294 25.12810962641379,115.59289467293638 25.207766755302146,115.92126243281928 25.28742388417595,116.24962554325612 25.358696052127925,116.5412276914376 25.385947175171168,116.66374850856846 25.478181745449547,116.93329202797577 25.58718623760069,117.24448837707314 25.673132087191334,117.50912450702162 25.767462897711084,117.7811084943769 25.859697468004015,118.05308929258535 25.96241323945287,118.33731807044023 26.075610212072206,118.67789796753459 26.16574854211649,118.98172041847647 26.21815454796888,119.10667849753918 26.306196637786343,119.33944175223223 26.394238727603806,119.58445318167287 26.48647329788946,119.86621312683747 26.56193794630235,120.10631890148943 26.61644019238156,120.25087117982912 26.723348444305884,120.51302301416217 26.771561969682807,120.6600227466879 26.8218717353011,120.84132113425403 26.91410630557948,121.12061587826793 27.016822077035613,121.4489054022797 27.125826569186756,121.77474041211644 27.230638580876985,122.08587182825977 27.28933330741711,122.23041177580672 27.40881900073873,122.56358517501576 27.50105357103166,122.88940453529358 27.57651821944455,123.06088657198052 27.660367828793824,123.2519650633094 27.727447516277607,123.47243829099716 27.815489606087795,123.75660069546211 27.899339215444343,124.03586035889566 27.985285065034986,124.2930702345966 28.033498590404633,124.46454190178338 28.100578277888417,124.62376445862901 28.211679010280932,124.9299586139623 28.32068350243935,125.2483962515289 28.43388047505141,125.6133694027194 28.5575586488485,125.97343796315545 28.668659381226462,126.29676007544731 28.77766387338488,126.62497640263427 28.90134204718197,126.98013063495455 29.001961578411283,127.30098944331257 29.134024713137478,127.66348108405509 29.251414166225004,128.00147494874363 29.377188580248912,128.3492606020718 29.484096832173236,128.6847953455599 29.584716363395273,128.93215727135794 29.59729380479257,128.94440284281518 29.693720855546417,128.92970815629633 29.74193438092334,129.0129779236413 30.039600494113984,128.89542051825993 30.379191411993816,128.77541338652554 30.710397368922713,128.66520220913117 30.842460503656184,128.8758275595137 30.98500483954558,129.1550256613009 31.152704058251402,129.44401665294936 31.305729595304,129.72075889340158 31.458755132371152,130.00729384517217 31.58243330616824,130.02933484891219 31.639031792481546,130.3379067053629 31.72288140183082,130.7101466647946 31.82140469281876,131.07013621534134 31.896869341224374,131.31992160497248 31.978622710346826,131.47175062753377 32.085530962263874,131.7239805200752 32.18824673372728,131.9762076744064 32.297251225878426,132.2676123368219 32.43769932154828,132.61778285297623 32.56137749533082,132.92876902687385 32.67876694841834,133.23240505506874 32.819215044088196,133.54828026095856 32.89677593273518,133.7343752715842 32.75003911637032,133.79559040989443 32.73117295427073,133.82007642006647 32.75003911637032,133.79069320476265 32.735365434738924,133.78089879140316 32.93870073740982,133.80293621565033 33.03512778816366,134.09431797141042 33.16299844242167,134.42242414694192 33.30973525878653,134.76521669609792 33.46066455561959,135.14473112117776 33.582246489175304,135.47282246868963 33.676577299695055,135.78621883430424 33.78348555161938,136.1559231770825 33.865238920734555,136.44482711387354 33.95747349102021,136.6725200595447 34.06647798317135,137.02996900259677 34.16080879368383,137.34334437667712 34.257235844452225,137.68609385564014 34.34527793426241,138.01414933873093 34.445897465491726,138.32261519754502 34.53393955530191,138.67024641959324 34.60521172325389,138.9933919087507 34.668098930262204,139.29939675506648 34.70792749471002,139.57357367711484 34.72679365681688,139.82571567179548 34.75194853961875,140.1561889039349 34.781295902888814,140.5551984746362 34.80854702592478,140.72655017694524 34.82322070756345,140.9346184040478 34.8588567915358,141.32871900326063 34.90707031691272,141.68120083887152 34.96366880322603,142.0410205368571 35.01397856884432,142.38370078913613 35.07267329538445,142.74595728139866 35.09782817817904,142.87568289677984 35.13556050238549,143.09107477375073 35.18587026800378,143.40192089883567 35.229891312912514,143.7201055444457 35.252949955487566,143.92325192685712 35.27810483828216,144.18024179722124 35.27181611758715,144.27814195360952 35.31583716249588,144.46415111596252 35.347280766007316,144.80924312361822 35.37033940857509,145.13964556935935 35.382916849979665,145.44312220106804 35.382916849979665,145.5189907406275 35.410167973008356,145.70498998467338 35.44161157651979,145.98398606348383 35.464670219087566,146.26542608764066 35.48563262142852,146.51015377703698 35.51078750423039,146.80627084067964 35.533846146805445,147.13909213449006 35.55061606867821,147.35199737804214 35.586252152657835,147.67012802110548 35.60092583428923,147.88792264648873 35.6260807170911,148.12284490183083 35.65123559990025,148.43362382616942 35.66590928154619,148.67832872111467 35.686871683872596,148.87653780053552 35.69525664480898,149.03804024719284 35.68896792410669,149.31210244149952 35.699449125269894,149.6081838654136 35.71202656668174,149.90181461685643 35.71202656668174,150.16118536719114 35.741373929951806,150.45236229550028 35.74766265065409,150.8658762138457 35.75185513111501,151.25980867908402 35.75185513111501,151.62682050756666 35.75185513111501,152.00361330099258 35.75395137135638,152.41954631888802 35.760240092058666,152.72048145936242 35.75395137135638,153.08747027110076 35.720411527603574,153.2122451499199 35.78539497486054,153.41041564252737 35.79168369555555,153.69176591509313 35.81683857837197,153.98534518525594 35.83360850023746,154.27158141144173 35.850378422110225,154.59940319608722 35.84408970140066,154.9345595054656 35.8273197795279,155.23546215743954 35.793779935789644,155.56327037971278 35.77910625416553,155.79566893743868 35.76652881275368,155.8739500349766 35.934228031444945,155.878842594846 36.2759151895516,155.92287558738826 36.61760234765825,155.96446222617305 36.963481986225815,155.99626372339299 37.357575150170305,156.0427427566392 37.672011185248266,156.06231284816022 38.01579458357446,156.09656046877717 38.2924982944387,156.10145298189855 38.590164407629345,156.12836178570615 38.89621548175637,156.1454855537686 39.20017031565658,156.1723943067227 39.508317630010424,156.1968567824515 39.83113862601749,156.2213192324889 40.05962881149753,156.26290533861902 40.26925283487071,156.25067413863871 40.5836888699414,156.28002900781212 40.914894826870295,156.31183007434265 41.23561958263599,156.34118486646548 41.531189455599815,156.3632009362973 41.83933676996094,156.38766321170442 42.08669311754784,156.4194641313461 42.34453066629794,156.39989433978553 42.70089150603599,156.44148012721416 43.025808742269874,156.47328097340323 43.37588086130563,156.50508177620577 43.73014546081686,156.53688253559994 44.05506269705802,156.56379083658067 44.438674659824756,156.59314531130076 44.7950354995628,156.61760734531344 45.01933320457465,156.6322845533996 45.283459474034316,156.65185414979715 45.44067749156238,156.65919274421503 45.72157368288754,156.6738699261059 46.025528516787745,156.725239989928 46.03600971795095,157.06281187788227 46.02133603631955,157.3465641748644 46.01714355585136,157.6914653321328 46.010854835149075,158.0167929513991 46.00456611444679,158.32254785245277 45.996181153510406,158.67721851270835 45.991988673042215,159.00008642105058 45.991988673042215,159.35230085691546 45.989892432815395,159.65559235662113 45.987796192574024,159.9490965024488 45.98360371211311,160.2034637730594 45.98569995233993,160.3991290156755 45.97521875116945,160.82224948748262 45.971026270708535,161.30650511251406 45.95844882930396,161.7760767195341 45.94587138789939,162.19428097044874 45.93748642697028,162.59046755269628 45.9291014660339,162.91083573090873 45.87669546019606,163.26543659787785 45.77817216920084,163.61269566960436 45.627242872375064,163.92326806487472 45.453254932966956,164.21182768635117 45.43648501110147,164.2436179347951 45.49937221811706,164.21916390138358 45.59999174933182,164.30230751040835 45.80961577271228,164.44169466059793 46.044394678894605,164.62998826010698 46.30223222763743,164.78893621939278 46.43219912212953,164.89653114629255 46.65440058692184,165.11905544316687 46.91643061613286,165.3048982841119 47.157498243010195,165.50052072766266 47.41952827222849,165.5420902855676 47.58513125070749,165.52741868535122 47.67736582098587,165.64968173852685 47.782177832683374,165.85997269103427 47.86812368225219,165.9064320644029 48.203522119656554,165.97734356116416 48.52005439495406,166.11183029053973 48.84706787142932,166.19007675814828 49.10909790065489,166.30255559554098 49.36903168963181,166.42970493263238 49.59332939465094,166.52995680596723 49.81762709965551,166.63998885399087 50.06498344724241,166.75002038306047 50.36474580067443,166.86005139320514 50.67498935527692,166.97252700056197 50.830111132563616,167.05321568921318 51.07746748014324,167.1876962168517 51.33949750937609,167.34418167325202 51.55331401321018,167.47132533379227 51.834210204542615,167.5984683014958 52.198956005209766,167.7109403492541 52.50291083911725,167.80140660295365 52.80267319253471,167.88942748611953 53.10453178620082,167.98478306818652 53.35188813377317,168.11436823458644 53.55312719622452,168.20727791093668 53.73759633679583,168.29285228556 53.938835399239906,168.38820621905143 54.21973159056506,168.52512400622436 54.55093754749396,168.68404543038014 54.91358710793429,168.78673254423484 55.25108178557275,168.81607163663284 55.53617045735882,168.8478556117716 55.79610424635757,168.84296577225905 56.110540281413705,168.8576352877135 56.297105662211834,168.89919886477037 56.529788328160066,168.9236479931642 56.840031882755284,169.00432993512914 57.15237167759187,169.05078304790914 57.45213403102389,169.15102366042265 57.60096708761557,169.20725601063532 57.92588432384946,169.35639332673054 58.217261716337816,169.50063998808037 58.489772946733865,169.6033235088562 58.62602856192825,169.66444443768887 58.85661498764239,169.75245829399137 59.1689547824717,169.87714402225356 59.49177577847149,170.01649787146198 59.825077975634485,170.14118218916337 60.101781686498725,170.2560867549273 60.42669892273261,170.34654314279214 60.79354096363386,170.53234435343984 61.14361308266962,170.70592046396087 61.46224159820122,170.86482703900765 61.72427162742679,170.99928560371518 61.94856933243864,171.123964671644 62.212695601898304,171.25597707653833 62.478918111577514,171.38798873485757 62.72837069939851,171.5151103669159 62.95895712511265,171.62511891283248 63.24404579690599,171.78157461852788 63.516557027294766,171.93802927564866 63.78068329673988,172.06759249488096 64.08673437087418,172.2264898009289 64.39068920476711,172.37805237738758 64.67158539609227,172.5271694358962 64.93151918507647,172.65917390605318 65.21870409711119,172.8131781779266 65.51846645053593,172.95740347965148 65.80145888209518,173.09184999245736 66.10122123551992,173.2458514103837 66.39469486824237,173.3949629265062 66.67349481933343,173.54162906258716 66.89360004388436,173.6516280600663 67.14095639147126,173.77873736733636 67.42604506325733,173.91806792843818 67.70903749481658,174.0647307788131 68.00670360800723,174.22361449387245 68.33162084424839,174.38249712789002 68.62719071720494,174.53893435749342 68.93114555109787,174.71003637741524 69.22461918382032,174.87380427943208 69.52018905678415,175.01557258063804 69.87235741606128,175.1988923838344 70.1930821718197,175.3602126203241 70.51380692759267,175.5288644034008 70.75906703493092,175.65351928638847 71.07559931024298,175.80994800215922 71.39213158554048,175.97370819145 71.68560521826294,176.11546981618812 71.98746381192177,176.2694512957678 72.2935148860488,176.46987011376405 72.4213855403068,176.60674051342176 72.52200507152884,176.6653990106206 72.7882275812226,176.85114994660216 73.05235385067499,177.1102211536836 73.27665155568684,177.3375171105763 73.4820830985991,177.54770280146295 73.67703344033362,177.738334699623 73.92858226838871,177.99739606778712 74.19480477806792,178.27356209858954 74.47570096939307,178.55705657526414 74.74401971932093,178.8405476120115 74.99976102783694,179.1044844506887 75.25340609611885,179.35619921364923 75.50076244371303,179.6103550579519 75.75231127176812,179.85228930300946 75.9870901779359,180.09666478534382 76.21767660365731,180.33126284405262 76.41891566609411,180.57074593305697 76.64950209181552,180.7686841847044 76.73754418163298,180.85665620284817 76.77527650583943,180.88842379468588 76.8130088300386,180.91774768727737 76.93878324406978,181.0472611061141 77.13373358581885,181.25252618650302 77.23854559749452,181.35271444006685 77.4251109783072,181.55797683771198 77.61377259933943,181.76323743264766 77.84645526528766,181.98560104295393 78.04140560703672,182.20063197273885 78.17137250152155,182.30081616220195 78.41453636863298,182.52561814649198 78.65560399552487,182.7870699087198 78.89247914193402,183.03630157634507 79.13983548952092,183.29041740347566 79.37671063593007,183.54453046825074 79.39138431757601,183.59095467204497 79.55489105580637,183.7351134541168 79.72887899519992,183.8939314221625 79.96785038185044,184.1309346911694 80.18376312593318,184.34594588757864 80.38500218837726,184.56828493151625 80.40806083094503,184.64158305400815 80.50658412193297,184.73442701261047 80.57785628987767,184.93233000966757 80.71620814530615,185.0886966251619 80.80844271559909,185.20597090053707 80.7455555085835,185.28171022410243 80.60510741292092,185.4600631460071 80.50239164147206,185.60665357009384 80.44998563561967,185.6946073834315 80.38500218837726,185.89494538992767" stroke="red" stroke-dasharray="none" stroke-linecap="round" stroke-linejoin="round" stroke-width="0.5"><title>2024-05-01 52.5km</title><desc>1714541844000</desc></polyline><polyline fill="none" opacity="1" points="186.0,148.22317611132894 185.78900169747067,148.26226301625047 185.5445665054649,148.30269761944055 185.26554142779787,148.3215670570653 184.98882234250777,148.32561050435652 184.77090606284037,148.30269761944055 184.58988566121843,148.32695831983256 184.3143195721059,148.33369739508998 184.03875348301517,148.33234958032153 183.7562694167791,148.34313209446373 183.50261025525833,148.3485233481142 183.2258911699755,148.35526241197476 182.96070204657008,148.32695831983256 182.74509175928688,148.3040454373404 182.45914870448178,148.2878716131545 182.19511257726845,148.37278396135207 181.98872625949298,148.41321821422116 181.7869519264641,148.42804407482527 181.61746148672682,148.27169776845858 181.50562085642014,147.99808712117283 181.43759408128972,147.86734498592432 181.33382442429865,147.61394404197563 181.28193959581404,147.4548919416311 181.20238285879168,147.25000834682032 181.1274381065232,147.0680366046754 181.02828043429326,146.82135965303314 180.93258175063238,146.57467792960324 180.8288120936486,146.39134853037103 180.49674919130484,145.78337702533372 180.33994170964434,145.582510888461 180.28575088876823,145.3964709722659 180.16007430419995,145.47735822593677 179.94561701310158,145.62160588796633 179.74499567627208,145.50836487044035 179.64583800404216,145.48679503877065 179.38295487301366,145.45983269786302 179.1604266085924,145.48275069126885 178.95288729462482,145.5568968582602 178.70845210261905,145.635086894481 178.62197738845862,145.6580045728433 178.38676616596786,145.75102296207297 178.0985171187931,145.8521291371444 177.94747461807856,145.91144438668653 177.77567818595708,146.01794152857838 177.63731864331203,146.0813001656452 177.46091022644396,146.1999282565239 177.2383819620154,146.27407025285902 177.06773852608603,146.32529538031122 176.80370239887998,146.40482872303437 176.62268199725077,146.46279338910153 176.40822470614512,146.52884582689876 176.21798033501545,146.62455385419617 176.0392659257559,146.81327180333756 175.77407680235774,146.9143695558405 175.63341126733576,146.96828802945765 175.37052813630726,147.0788201876985 175.10072702815523,147.20417867119795 174.94507254267955,147.27966275505332 174.69487236972782,147.40232343845128 174.60147967844387,147.42658585146 174.37088044070697,147.5896819853824 174.1402812029628,147.7500802812865 173.98923870224098,147.85386633908183 173.79899433110404,147.92395514713553 173.48537936777575,148.04795747948083 173.32857188610797,148.0924362832011 173.04378182750224,148.1328714247211 172.8604554334961,148.14500194218363 172.61256125292857,148.19217606709663 172.3531371104691,148.15174111356555 172.0971719565714,148.07626219070153 171.9691893796262,148.0075220687795 171.73743714569719,147.81747392145007 171.53105082791444,147.84308341134874 171.3327354834546,148.00078282120103 171.087147295264,148.1234365698283 170.855395061335,148.20026304242037 170.58444095699087,148.31078452469865 170.31463984883158,148.40108795181914 170.14169042052526,148.46308694957952 169.96758799602685,148.5614760449016 169.78772059058974,148.63695209684192 169.55596835666074,148.6760377339524 169.31960413797788,148.71512325131516 169.11667680876417,148.75825195908783 169.00253018608055,148.7825117931361 168.7223521122287,148.89976700736952 168.5436377029764,149.00219596779516 168.26691861768631,149.15044695404958 168.05476731896488,149.26096020491423 167.87835890208953,149.34586607669735 167.61201678249927,149.48063614155672 167.38718252570834,149.635619956377 167.27418889920955,149.71378499233742 167.04820164622652,149.77577761142766 166.77263555712125,149.85663709674827 166.45094962047733,149.95232015915644 166.27338820740988,149.99679232421659 165.97591519072012,150.0763027785224 165.72686801396776,150.18815562980853 165.44553694391652,150.32830721627943 165.29103545463295,150.41051079604222 165.0638952054578,150.51158004543868 164.85174390673637,150.60725819736308 164.6591935432225,150.6800270157837 164.4643371873317,150.76492344622056 164.3375076065713,150.82152075278373 164.3006117285331,150.84038646586487 164.09191941837344,150.9239342885994 163.84633123018284,151.05464510768616 163.6203439771998,151.15705677295864 163.37014380424807,151.30258772591787 163.11302565416554,151.44946450535826 162.95737116868986,151.50875373570034 162.72446593856876,151.62598390330731 162.50193767414748,151.74456044890212 162.31399929538748,151.83618702521017 162.16641578324197,151.77285696177205 162.05688114531222,151.53300834146194 161.9219805912362,151.29719772021144 161.8308938923219,151.16244683783952 161.69368734586897,150.95223262069248 161.55648079940875,150.7474051814188 161.44233417672513,150.58300183235406 161.30858661884122,150.59513002062067 161.0975883163046,150.74066738086185 160.89811997565994,150.837691365703 160.69865163501527,150.92797691130818 160.39887262594857,150.95358015875263 160.25590109854966,150.91180641277515 160.01261890272872,150.79187457588432 159.70938090510026,150.63690480310197 159.35656407135684,150.57222121088307 159.0844569708206,150.52505588488475 158.81004387790745,150.51966555081435 158.54946673926315,150.4778903845745 158.36037536431104,150.44420063477628 158.15053005796653,150.41051079604222 157.93837875925237,150.3916444475044 157.66627165871614,150.36334487239765 157.3849405886649,150.33639283776574 157.1093744995669,150.31483116907748 156.8545623418686,150.29057424825805 156.61704512699362,150.26766489181227 156.37260993498057,150.25284116866806 156.1362457162977,150.32830721627943 155.97713224226027,150.39703483564426 155.8814335585921,150.25014594442928 155.75806296640076,150.05204540429804 155.63008038945554,149.84989882587524 155.513627774395,149.65583509778935 155.4098581174112,149.5075899837111 155.2968644909197,149.33104128265313 155.1930948339359,149.15449013863326 155.0362873522754,148.91054904193243 154.88063286679244,148.67064661871336 154.73420235083177,148.44152211497385 154.62120872434025,148.33774083853132 154.38945649041125,148.44691332704133 154.2799218524815,148.52104226196207 154.02626269096072,148.6423432263182 153.86023123979248,148.70838437755538 153.66998686865554,148.8000327557029 153.42555167664977,148.8674208490138 153.1649745379982,149.01163017279032 153.0000960830148,149.1046241058748 152.8974794222231,149.15853332193547 152.6795631425557,149.24343987533211 152.4708708324033,149.3256504441879 152.26217852224363,149.39842657131976 152.06155718540685,149.4712022833519 151.7364122601939,149.8539417888287 151.60381769848755,149.91862902183493 151.496589052942,149.928062549252 150.66297280850267,149.8633753640679 150.44390353265044,149.90515254200272 150.1717964321142,149.94962487144312 149.89968933157797,149.986011207523 149.6564071357643,150.01026870727037 149.42119591326627,150.03183089055983 149.17791371744534,150.04126433428974 148.95769144540827,150.0453072366072 148.67059539442562,150.05069777104745 148.37773436248244,150.05743593588977 148.31893155685975,150.0628264652023 148.02030554399244,150.05878356843277 147.6951606187722,150.0763027785224 147.39768760208972,150.07091225490058 147.07023668449983,150.06686936069127 146.765845690672,150.05608830320398 146.4603017006666,150.05474067037994 146.1916535886994,150.05069777104745 145.89648656439385,150.04800250411336 145.61861448291165,150.05204540429804 145.34074240142945,150.05204540429804 145.07785927040823,150.04935013765316 144.81267014701007,150.05069777104745 144.53479806552787,150.05474067037994 144.26614995356067,150.04665487043258 143.97213592543267,150.04935013765316 143.825705409472,150.04800250411336 143.53284437754337,150.04935013765316 143.22845338373008,150.04935013765316 142.94596931748674,150.05204540429804 142.6738622169505,150.05743593588977 142.43865099445975,150.06013120083026 142.1942158024467,150.05474067037994 141.98091150754044,150.05069777104745 141.7018864298734,150.05204540429804 141.39980142842978,150.05339303740766 141.15997822118516,150.05474067037994 140.9916407776327,150.06147883308586 140.6607308714738,150.05339303740766 140.37132882810693,150.06821699223838 140.13496460942406,150.06686936069127 139.8743874707725,150.06552172900228 139.55616052269033,150.06552172900228 139.27367645646154,150.06821699223838 139.01886429874867,150.06552172900228 138.76635813342727,150.06417409717415 138.5069339909678,150.06686936069127 138.259039810393,150.06956462364087 138.02267559171014,150.07225988602113 137.7344265445281,150.07225988602113 137.45194247829932,150.07360751699616 137.22941421387804,150.07899803947657 136.93655318194942,150.07360751699616 136.61486724529823,150.07360751699616 136.42346987796918,150.04665487043258 136.16635172788665,150.0870838189312 135.89078563878866,150.08438855968325 135.70976523715944,150.08573618937953 135.40998622809275,150.08438855968325 135.11136021522543,150.0870838189312 134.84155910706613,150.07899803947657 134.56484002177604,150.08169329986504 134.3077218716935,150.09247433571636 134.0240848092726,150.09382196456136 133.7623546744362,150.09382196456136 133.50638952054578,150.09516959326083 133.31614514940884,150.10864587242395 133.03942606411874,150.10325536246455 132.77308394452848,150.0978648502296 132.56785062293784,150.1019077346209 132.28421356051695,150.10325536246455 132.0109534637886,150.107298245146 131.79995516125928,150.10999349955637 131.76305928322108,150.03991669989682 131.72385741279868,149.89032839774518 131.47019825128518,149.89571899764724 131.201550139318,149.8849377955603 131.03321269576554,149.86472301710182 130.79454248469847,149.87011362782323 130.4924574832694,149.85933240410395 130.2226563751101,149.8445082066146 129.9517022707587,149.82968399190577 129.67152419690683,149.81755507615526 129.40057009255543,149.81081678464398 129.1146270377576,149.82025039176096 128.8321429715288,149.8283363351693 128.5692598405003,149.83642227345536 128.30868270184874,149.84585586164485 128.04118758607365,149.84855117127154 127.79675239406788,149.85528944285943 127.5580821830008,149.8633753640679 127.41395765941706,149.86472301710182 127.19488838355755,149.8741565843684 126.9066393363828,149.88359014466005 126.66566313294607,149.88359014466005 126.65759215961589,150.07225988602113 126.64145021298464,150.3862540570808 126.63453223584656,150.65981349673257 126.5999423501853,150.92528182964634 126.56650546071614,151.09641838617063 126.47080677704798,151.33492771235342 126.34397719629487,151.60307694369203 126.21484162315755,151.8806526266926 126.09723601191217,152.133968856484 125.99692534349015,152.42231206498855 125.96925343496696,152.69717522925384 126.00845530538209,153.02861999901234 126.06956410338171,153.36544530067385 126.11798994330456,153.63759365525948 126.16756877941953,153.90704175811697 125.91506261409813,153.97709733370266 125.6418025173698,154.01077776210968 125.3800723825334,154.0484997364747 125.12410722864297,154.0848743919587 125.04339749543578,154.1077768996729 124.82548121576838,154.12933216353213 124.58911699708551,154.16974818522067 124.34698779745668,154.21420566136567 124.1682733882044,154.2209416290989 124.05527976171288,154.20612249539317 124.22246420906595,154.2209416290989 124.49226531723252,154.19534493280753 124.75514844825375,154.14684578863398 124.96499375460553,154.1212489438476 125.21058194279613,154.08622159943025 125.39967331774096,154.05927742297263 125.6717804182772,154.02020826614626 125.9265925759828,153.98383342648958 125.96925343496696,153.93937514844583 125.91621561028296,153.7157341903494 125.85164782372158,153.47188024872867 125.81821093423787,153.31829029327764 125.77785606763791,153.16469849050736 125.70521730775363,152.87771938205788 125.64064952118497,152.5961232831487 125.58530570412404,152.33877404845316 125.53226787944732,152.1110628083661 125.48614803189412,151.9076014007005 125.38468436729454,151.6704502369821 125.26361976748012,151.44811701965318 125.12987220958166,151.19074464114328 125.16907407999679,150.95358015875263 125.22557089324982,150.72314908276803 125.28783268743427,150.51697038292423 125.35931845114101,150.25418878057644 125.42273324151756,150.03722143068626 125.48614803189412,149.81081678464398 125.48614803189412,149.64640136911657 125.24401883227256,149.56958360458248 125.00880760976725,149.5089376743208 124.73208852448442,149.43750987567546 124.47612337058672,149.37686331766417 124.21554623194243,149.31082562665688 123.96188707042893,149.24343987533211 123.77279569547682,149.1976173611447 123.51452454920945,149.12888328129156 123.24933542580402,149.0547578782125 123.0025942414286,148.98737077442183 122.80081990839972,148.93750408846427 122.50334689170995,148.86068205570155 122.24968773019646,148.79733722456604 121.97181564871426,148.72455766859912 121.71239150625479,148.66660328078797 121.48871024564869,148.60730084397892 121.24773404221196,148.51025989819846 121.05057169393694,148.34313209446373 120.87992825801484,148.17330643806326 120.6735419402321,147.9724779424887 120.48906255004113,147.79456012374976 120.30688915222709,147.63011872072912 120.06014796784439,147.5088081300746 119.77651090542349,147.48185006434232 119.54475867149449,147.53576613882615 119.39486916695023,147.6166398231935 119.16081094065157,147.80938670343494 118.93251769528433,147.99808712117283 118.71690740800113,148.12208873284726 118.4736252121802,148.20565435645494 118.23149601255136,148.24474131506304 118.00089677481446,148.25687172614016 117.87176120167715,148.26226301625047 117.60311308970995,148.28113251368814 117.35291291675821,148.29730634642237 117.10732472856034,148.31752360849623 116.85712455561588,148.33369739508998 116.59424142458738,148.35391459948823 116.34404125164292,148.37278396135207 116.12958396053727,148.38087082218044 115.87015981807781,148.40917479470136 115.61304166799528,148.42804407482527 115.37783044549724,148.45634794268153 115.13108926112182,148.46982595292138 114.86935912627814,148.49543413314314 114.61800595714158,148.57899731104317 114.39893668128207,148.7191665738619 114.21791627966013,148.90785353414503 114.11875860743748,149.0601488311404 114.03343688946916,149.29195765216173 114.0011529961921,149.5210668834361 114.0138359542616,149.81890273403133 114.03689587803092,150.10325536246455 114.05880280561541,150.40377281761994 114.07379175606911,150.674636747166 114.10261666079168,150.9468424670349 114.12337059219135,151.2325174742091 114.14643051596067,151.5383982475978 114.15450148928358,151.85639868145063 114.15334849309147,152.0854618824269 114.13835954263777,152.4128803808153 114.11414662267634,152.72142757731308 114.09339269128395,153.0097575194177 114.07379175606911,153.28191345431333 114.05649681324576,153.55945264205184 114.03343688946916,153.8396802653533 114.01614194663853,154.12933216353213 114.0795567370078,154.41358880266853" stroke="red" stroke-dasharray="none" stroke-linecap="round" stroke-linejoin="round" stroke-width="0.5"><title>2024-04-21 79.4km</title><desc>1713660889000</desc></polyline><polyline fill="none" opacity="1" points="19.21214819902525,194.34022301104415 19.470141191923176,194.48499722254746 20.13885902952461,194.20268665970252 20.489729499880923,194.5790999676883 20.605310360690055,195.22091860279215 20.675484454761317,195.83617892748953 20.70437966996542,196.4200577072461 21.013971261447296,196.44418460832276 21.686816986941267,196.32596254942655 22.02530379363452,196.57205675848672 22.089286055866978,197.25483366740264 21.82097334323771,197.43577818956146 21.800333903818682,197.38993904620656 22.070710560379666,197.0642372202783 21.89733926914778,196.38628000289282 21.72396797791589,196.23186700386395 22.15120437416772,196.10881839765534 22.710533182769723,195.88202118996924 23.40814623558981,195.5997279014482 24.12846267176792,195.35844882007586 24.770349238104245,195.18713912444582 25.420491580225644,194.9941125751393 25.649589357919467,195.53217001567828 25.810576985488296,196.1715491424984 25.98188433276664,196.87363918238952 26.194470558926696,197.4912675557789 26.435952000283578,198.1981420314478 26.689817105296243,198.9725425388042 26.949874042147712,199.69143290578722 27.193419427443587,200.40547610939757 27.37711043838499,200.95064271980846 27.688765973813133,201.85038039997744 27.909607975736435,202.4630501250067 28.103618706401903,203.0757034238668 28.301757324952632,203.65216141191377 28.51640749505168,204.26237097124977 28.726929777258192,204.90391760386046 28.97047516254679,205.61297451246355 29.207828716025688,206.28583470983904 29.441054381612048,206.98761403175195 29.64951271987229,207.56397337805902 29.878610497566115,208.25606770522245 30.082940947941097,208.88062265369263 30.50604945630039,208.81069263876816 31.162383630253316,208.58402146522712 31.502934380885563,209.10970223946606 31.85793273911986,209.7366451616963 32.10560601229372,210.18755117667024 32.3264480142243,211.0531693623616 32.52871452066029,211.54986027139057 32.80734695299179,212.25388910251968 33.13964192784624,213.07121046689645 33.36873970554734,213.63054041397845 33.6308605863378,214.29352156558525 33.84138286853704,214.80219589930857 34.0457133189193,215.3783583839322 34.24797982535529,216.06780572481694 34.45437421967654,216.72589517752021 34.69379171708715,217.44663810815655 34.91256977507146,218.24208055225245 35.09626078602014,218.94108291587872 35.14785938460409,219.54606428557963 35.18707431953226,220.17513154708467 35.220097422614344,220.6402927760846 35.3294864516065,221.4549047056571 35.44506731243018,222.2164683512874 35.560648173239315,222.91775931385018 35.65558959462942,223.59252072892014 35.72782763264695,224.18533042868148 35.77736228728463,224.77089568278825 35.820705110090785,225.38777128597758 35.90119892387884,226.2455863178693 35.94866963457025,226.84796532251676 36.0002682331542,227.4141871506581 36.043611055960355,227.99244181408176 36.0890178227055,228.53213300505377 36.095209654544306,229.06458373685928 36.115849093977886,229.71507237221522 36.15093614100624,230.51972536968606 36.146808253128256,231.5098434489464 36.15919191676949,232.11690200505473 36.14061642128945,232.77212177869296 36.214918403245974,233.41527886539734 36.23762178661855,234.22943687761108 36.208726571414445,234.7978851032167 36.16125586072303,235.34464192823725 36.74122410876589,235.41930814856642 37.48424392832385,235.48674839676642 38.21694402816502,235.54214559519096 38.80723199591739,235.5830912645797 39.577083086747734,235.64571391169375 40.33455051390774,235.7107449412506 40.90419904223381,235.7589159554027 41.58942843138357,235.81672103888377 42.26227415687026,235.86970890413613 43.011485808267025,235.927513708466 43.56875067293004,235.97086721614323 44.15697469674342,236.0142206419041 44.79679731914075,236.06961656670137 45.316911192836415,236.1129698058612 45.884495777216216,236.14909744258694 46.270453294600884,236.49591986074665 46.26632540670107,237.26902596688342 46.24155807939678,238.0902721469265 46.26632540670107,238.63454227844522 46.22504652784846,239.40998450697407 46.2147268081244,240.27931560858087 46.2002792005369,241.32921177421304 46.18376764898858,242.155128455699 46.014524245634675,243.00268553237584 45.70906054203806,243.55887786290077 45.39534106267092,244.06208788781987 45.47377093251271,244.0572725331349 45.740019701195706,243.6190710302144 46.233302303618984,243.92003450018092 46.76786378490942,244.33174613875053 47.34164020112803,244.79641766021996 47.87826562635746,244.96254146690626 48.36948428484902,245.29960057092285 49.01962662695587,245.51146376181168 49.808053213273524,245.87258969657705 50.404533012864704,246.1277819335901 51.164064383963705,246.46241651424316 51.634643603021686,246.7392687775191 52.33019271188823,247.01130296897463 52.926672511472134,247.18704015879484 53.360100739548216,247.35073934548018 53.87402278141235,247.60110055139194 54.39620059903973,247.84905174909363 55.11032520340086,248.0825567411739 55.78317092888756,248.11144379174038 56.36933100875467,248.17643952273284 57.02979307059286,248.30643043315285 57.675807524814445,248.4966009957152 58.29499070778547,248.78065029726895 58.94306910595333,249.02618160992097 59.659257654246176,249.32707424893306 60.30114422058978,249.531678993073 61.02765248859214,249.8927417448449 61.6220683442516,250.19603007257683 62.12773461033066,250.46320933105198 62.606569605159166,250.6990947434315 63.176218133485236,250.99755853042552 63.72316327843873,251.29601844182253 64.27836419917003,251.57281247665378 64.87278005481494,251.87126491883282 65.46306802257459,252.17212031366216 66.09876275707938,252.48741254202832 66.69730650062411,252.8002936847006 67.23186798191455,253.0698494084263 67.89645793163072,253.40919631679753 68.50119350698515,253.71965824988 69.05433048377017,254.02770935786248 69.549677030147,254.26837141433862 70.11313372664154,254.55956913488262 70.64975915187824,254.8435435256415 71.1141465391047,255.07216442768367 71.60949308548152,255.3200350481984 72.19978105322662,255.68100690160645 72.56509913118498,255.95534172093903 73.0232946865799,256.42459106290517 73.42576375550561,256.81201535560285 74.03875510664511,257.43284316161044 74.57538053187454,257.9838739609404 75.12232567682804,258.53489156146316 75.61973616714386,259.03055550721365 76.05522833915893,259.4973360616368 76.43293008077308,259.8630544157295 76.58772587651038,260.01222733846043 76.97987522572657,260.40921508266183 77.13260707752488,260.6738697738965 77.41123950986366,260.87356175339664 77.80751674695057,261.2825640130268 78.32350273276097,261.7709513067075 78.84980843828089,262.3074436296138 79.3472189285967,262.83430060129285 79.82398997947894,263.28897569068613 80.07991902843787,263.69552940854373 80.23471482418245,263.8518943112467 80.3647432926009,264.0371252062996 80.56081796721264,264.24159913896983 80.67433488408278,264.4436657118076 80.7362532023908,264.67700228586 80.72386953872046,264.8213330035269 80.57732951875369,264.9993396425489 80.47206837763952,265.3024288612869 80.3668072365399,265.63197372250943 80.34823174105986,265.8917575878204 80.35235962893785,265.7762984539713 80.30282497430017,265.514107854091 80.25948215149401,265.3192670342323 80.54224247171805,264.76360082504107 80.71561376294994,264.460504512821 80.64750361281767,264.28730482851824 80.45349288215948,264.1020759464409 80.37093512442516,263.856705522172 80.5587540232591,263.66185067509105 80.23058693628263,263.5151070471584 79.76826349300973,263.07727623728897 79.44835218180378,262.7092032340388 78.9736450748751,262.2593282367088 78.49274613610032,261.7829804196135 78.00978325339383,261.27294051395256 77.58667474503454,260.8591262467162 77.12847918963962,260.39477928469023 76.72188223282865,259.9881672550473 76.31941316389566,259.53342694719686 75.89217676765111,259.1436423870564 75.53098657758528,258.7803187334139 75.06453524641984,258.2990865182164 74.62491518651223,257.86596891737463 74.1749754068951,257.40637410100135 73.77044239401584,257.0021155722279 73.46910657831177,256.69891701294364 73.01710285474837,256.2465180808722 72.59193040244281,255.80614248826168 72.30917008222605,255.5582771071622 71.71062633869587,255.23099445317894 71.03571666925563,254.87723516979167 70.39176615898032,254.54031650687284 69.7601993123535,254.22745904244948 69.17610317641811,253.93144382996252 68.57755943288794,253.6402381544067 67.91503342711803,253.29848794681493 67.35364067455521,253.0096809940933 66.79018397806067,252.72809072203563 66.10908247679617,252.3815133445678 65.53117817269958,252.07825385308024 64.92231470945262,251.75814227176852 64.31964307803719,251.44284004061228 63.73348299815552,251.13475429356367 63.15145080617367,250.85795498347034 62.59624988544965,250.56911736668917 61.95642726304504,250.24417070891286 61.401226342321024,249.96976773105416 60.78410710330354,249.65203387396832 60.270185061439406,249.38003094567648 59.75007118775102,249.1200605361537 59.194870267027,248.8239795430818 58.666500617560814,248.56400284264782 58.12368336049258,248.29920873520132 57.754237394663505,248.18606850428296 57.572610327661096,248.41716285086477 56.98232235989417,248.28476533249523 56.493167645348876,248.16199604284157 55.82238586380117,248.10181477892002 55.137156474658696,248.05848417129346 54.54480456295278,247.89479002721419 54.200125924442546,247.7238728381053 53.706843322004715,247.49036420065022 53.13925873761764,247.22796506482155 52.569610209298844,247.05945027796588 52.024729008291615,246.89815639565677 51.69449797737616,246.75612054668454 51.071186906527146,246.39260106889378 50.47677105087496,246.13018939402173 49.94427351352351,245.91110946118897 49.41796780801087,245.65591481701813 48.844191391792265,245.45609061646246 48.29105441499996,245.27070998438649 47.95669549620652,245.06847486115657 47.76268476554105,244.85419999013357 47.242570891852665,244.70733628346534 46.78231139251875,244.32933848980247 46.39635387513408,244.03319574456873 45.94641409551696,243.70334119938525 45.64920616769086,243.6575945744844 45.30865541705862,244.0091189307568 44.788541543377505,243.68648719028897 44.33860176374583,243.3638509170505 43.87627832047292,243.033986757202 43.42221065296326,242.6872631162114 42.93718382629595,242.34534995427202 42.497563766395615,241.97212907101493 42.047623986771214,241.6591004263537 41.59149237532256,241.4158983025336 41.145680483590695,241.1895494567707 40.68748492820305,241.0209903559262 40.27882402743853,240.88132616338044 39.79998903261003,240.72239691068899 39.36036897270242,240.59717914877 38.92694074463361,240.4840009685904 38.56575055456051,240.38286254822378 37.985782306524925,240.3756383582895 37.36866306750744,240.34674157581867 36.799014539174095,240.31784475696804 36.20666262747545,240.29135597439927 35.996140345261665,239.99516114202925 36.002332177093194,239.57133099473685 36.01058795287099,239.21733049861723 36.01471584075625,238.7236472208515 36.033291336243565,238.13843816589724 36.04567499990662,237.6375066270557 36.074570215110725,237.1317473453728 36.11997698185587,236.61634308533212 36.16125586072303,236.14428042764303 36.198406851697655,235.6722080570962 36.239685730564815,235.1977173657633 36.28509249731724,234.67504367132278 36.307795880697086,234.18848879202415 36.28302855336369,233.67783593763124 36.26032516999112,233.16958053424605 36.26858094576892,232.74803314788915 36.24794150632806,232.26384630326538 36.243813618450076,231.74110574620863 36.243813618450076,231.12921917306994 36.23555784267228,230.49081617022603 36.21904629112396,230.02585487122997 36.221110235077504,229.6717070374125 36.194278963812394,228.96098569475544 36.177767412264075,228.48876543243568 36.1344245894652,228.05026647806153 36.08488993482024,227.35636088191495 36.043611055960355,226.84073686832562 35.985820625544875,226.27209132709322 35.93834991485346,225.63355303245226 35.91564653148089,225.15403521865483 35.835152717692836,224.53233386730972 35.783554119108885,223.90338626483208 35.71957185686915,223.3659958986118 35.65558959462942,222.90329992315492 35.61843860364752,222.50566310220165 35.49666591100686,221.94172995585723 35.4182360411578,221.47418511038268 35.33980617131601,220.9174568918661 35.28820757273934,220.39204728555524 35.255184469649976,219.84493364512127 35.21184164684382,219.3074480447758 35.11483628151473,218.707281052275 34.99099964492052,218.18664152033125 34.852715400724264,217.67081104848512 34.68966382920917,217.16220046495982 34.5328040895256,216.67527358365624 34.39245590138307,216.22449540594062 34.2294043298607,215.67487149892258 34.074608534130675,215.1734487020658 33.84963864432211,214.6045133782518 33.663883689427166,214.15128359152004 33.49670423002681,213.68599048276155 33.31094927514641,213.23756433661765 33.10042699292535,212.73849909886667 32.881648934948316,212.19361350956933 32.68144637246587,211.69211441884545 32.50394719334872,211.21712677718642 32.080838684982155,211.28946055719825 31.54834114763071,211.48958282343483 31.04267488154437,211.65594819403123 30.788809776531707,211.2677604472119 30.667037083876494,210.67461613611886 30.55352016699908,210.1537938149413 30.425555642519612,209.5895562499536 30.254248295233992,209.08800006132333 30.107708275267214,208.68771174895664 29.938464871927863,208.1837243308546 29.767157524634968,207.66766828738946 29.593786233395804,207.13954280096186 29.39564761485235,206.57281923525807 29.22021237968147,206.0519034819681 29.011754041421227,205.45862386092995 28.84457458202087,204.99315386682974 28.64643596347014,204.38537566827836 28.471000728291983,203.8812933938425 28.29969338101364,203.36996412994813 28.116002370057686,202.8586234251834 27.961206574320386,202.3882763536185 27.810538666468346,201.96616176436146 27.585568776652508,201.29317437801365 27.41838931725215,200.80832171788097 27.23057041841821,200.25832713983982 27.05926307113259,199.76139082749614 26.916850939051074,199.3295781664765 26.757927255428513,198.8639833023608 26.535021309551666,198.23432955584758 26.365777906212315,197.71563622705798 26.16351139976905,197.13902842081188 25.975692500949663,196.51415247731347 25.855983752240718,196.00024554740048 25.71976345199073,195.46219913753885 25.60005470327451,194.94344283552527 25.356509317978634,194.86864444294406 24.745581910785404,195.05202071128952 24.171805494574073,195.1992032295948 23.690906555806578,195.3656872296233 23.129513803243754,195.57077454631508 22.54335372337664,195.7830982980613 22.10992549530056,195.9930073390242 22.035623513344035,195.97129270013647 21.922106596459344,196.05815113178141 21.395800890946703,196.1956763061662 20.795193203470262,196.26081952071945 20.74153066094732,195.6938260520892 20.685804174478108,195.31984393043967 20.586734865202743,194.7238726643427 20.442258789182233,194.1375375724856 20.118219590098306,194.15925395555132 19.52793162233138,194.40778442399642" stroke="red" stroke-dasharray="none" stroke-linecap="round" stroke-linejoin="round" stroke-width="0.5"><title>2024-04-05 108.1km</title><desc>1712276378000</desc></polyline></svg>