<?xml version="1.0" encoding="utf-8" ?>
<svg baseProfile="full" height="300mm" version="1.1" viewBox="0,0,200,300" width="200mm" xmlns="http://www.w3.org/2000/svg" xmlns:ev="http://www.w3.org/2001/xml-events" xmlns:xlink="http://www.w3.org/1999/xlink"><defs /><rect fill="#222222" height="300" width="200" x="0" y="0" /><text fill="#FFFFFF" style="font-size:12px; font-family:Arial; font-weight:bold;" x="10" y="20">Over 10km Runs</text><text fill="#FFFFFF" style="font-size:4px; font-family:Arial" x="10" y="280">Runner</text><text fill="#FFFFFF" style="font-size:9px; font-family:Arial" x="10" y="290">yihong0618</text><text fill="#FFFFFF" style="font-size:4px; font-family:Arial" x="65" y="280">SPECIAL TRACKS</text><rect fill="yellow" height="2.6" width="2.6" x="65" y="283" /><text fill="#FFFFFF" style="font-size:3px; font-family:Arial" x="70" y="285.5">Over 20.0 km</text><rect fill="red" height="2.6" width="2.6" x="65" y="287" /><text fill="#FFFFFF" style="font-size:3px; font-family:Arial" x="70" y="289.5">Over 40.0 km</text><text fill="#FFFFFF" style="font-size:4px; font-family:Arial" x="120" y="280">STATISTICS</text><text fill="#FFFFFF" style="font-size:3px; font-family:Arial" x="120" y="285">Number: 5</text><text fill="#FFFFFF" style="font-size:3px; font-family:Arial" x="120" y="290">Weekly: 1.2</text><text fill="#FFFFFF" style="font-size:3px; font-family:Arial" x="141" y="285">Total: 317.5 km</text><text fill="#FFFFFF" style="font-size:3px; font-family:Arial" x="141" y="290">Avg: 63.5 km</text><text fill="#FFFFFF" style="font-size:3px; font-family:Arial" x="167" y="285">Min: 18.7 km</text><text fill="#FFFFFF" style="font-size:3px; font-family:Arial" x="167" y="290">Max: 108.1 km</text><polyline fill="none" opacity="1" points="74.05071071838029,36.25575470937474 74.25816365733044,36.90249918130576 74.43795620434685,37.5492409189319 74.5485977717326,37.88877923661494 74.63157894735923,38.4223379274481 74.72839031886542,38.97206311712216 74.83903188625118,39.53795463121787 74.94967345369514,40.13618052718812 75.0603150211391,40.718235910346266 75.14329619664932,41.25178473276901 75.24010756821372,41.78533169445291 75.33691893960349,42.33504479964904 75.41990011523012,42.884755929684616 75.51671148673631,43.49913661988103 75.64118325005984,44.16201828169869 75.7518248175038,44.88956801913446 75.8901267767651,45.568611319191405 75.95927775639575,46.36082469357643 75.94544756051619,46.79734867757361 76.0284287360846,47.13686647072609 76.13907030347036,47.92907172490959 76.23588167491835,48.85061145138752 76.29120245866943,49.691309518399066 76.31886285054497,50.17632553275325 76.23588167491835,50.321830037311884 76.22205147903878,50.58050437035854 76.24971187085612,51.21102122507 76.48482520162361,52.06787329899089 76.70610833651153,52.84388613095507 76.87207068764837,53.68456225794216 77.07952362654032,54.57373390464636 77.2731463695527,55.31740076876304 77.21782558580162,55.81856552998943 77.70188244333258,56.2873955949035 77.95082597003784,56.95022185644484 78.18593930080533,57.54837967680942 78.42105263157282,58.13036882544111 78.14444871299202,58.56685923440091 77.5497502880753,58.696189486872754 76.94122166727902,58.89018466058769 76.23588167491835,59.18117696007539 75.57203227042919,59.423670120333554 74.9220130618778,59.60149819361686 74.79754129849607,59.84399068784842 74.61774875142146,60.118815050125704 74.86669227806851,60.797790770433494 75.17095658852486,61.5252614136989 75.3784095274168,62.31739218143048 75.62735305418028,63.06102141593874 76.04225893196417,63.75614982424304 76.70610833651153,64.11179569593514 76.9965424509719,64.80691933166236 77.35612754512113,65.53437091846718 77.67422205145704,66.26181904772238 78.00614675373072,66.94076751561079 78.31041106412886,67.63587830297183 78.64233576640254,68.33098593346949 78.96043027273845,69.04225558997132 79.29235497501213,69.7050266131846 79.59661928541027,70.41628988456796 79.92854398768395,71.07905495815794 80.26046868995763,71.75798205797037 80.57856319629354,72.45307096898614 80.89665770257125,73.16432147107844 81.2009220130858,73.85940399597166 81.53284671530128,74.55448336462723 81.85094122163719,75.1364078506158 82.25201690354152,75.57284976336814 82.52862082212232,76.17093480800395 82.65309258550406,76.49422304840118 82.3073376872344,76.86600368079962 81.74029965425143,77.12463315340574 81.1041106415214,77.39942648925353 80.34344986552605,77.75504066231952 79.62427967734402,78.15914667437028 78.78063772566384,78.49859490018571 77.99231655779295,78.93502722734411 77.32846715324558,79.30680193207809 76.96888205915457,79.48460690645152 76.19439108716324,79.82405219326029 75.4752208989812,80.17966073400748 74.89435266994406,80.4544485861552 74.14752208988648,80.82621960100369 73.31771033420227,81.23031750628434 72.62620053783758,81.53743120084982 71.9208605455351,81.87687193599413 71.57510564732365,82.0223463063885 71.06338839797536,82.24863949668361 70.48252016899642,82.555751148524 69.92931233189302,82.89518962588045 69.2931233192212,83.2992820701038 68.60161352279829,83.80035521970422 67.84095274674473,84.34991743354476 67.14944295043824,84.85098714455671 66.48559354589088,85.23891095590079 65.8770649250364,85.64299721420684 65.25470610830234,86.01475562991982 64.97810218977975,86.12789931643056 64.95044179796241,86.12789931643056 64.48021513636922,86.41883984056767 63.81636573182186,86.69361649466737 63.11102573951939,86.96839265560266 62.44717633497203,87.19467853555398 61.71417595085222,87.46945379729732 60.925854782923125,87.77655497685191 60.31732616206864,87.9381869291974 59.55666538607329,88.21296085663198 58.71302343450952,88.5200605449354 57.88321167882532,88.81099652354897 57.08106031495845,89.0857688846736 56.348059930838645,89.36054075270658 55.51824817515444,89.6191491192003 54.688436419470236,89.92624598718248 53.983096427167766,90.13636454191874 53.360737610433716,90.31415693997405 52.84902036114363,90.49194913158135 52.50326546293218,90.62125241398462 51.853246254322585,90.84753289548098 51.20322704571299,91.12230160200852 50.45639646559721,91.42939545524132 49.654245101846755,91.65567474244745 48.86592393391766,91.94660476323043 48.02228198229568,92.23753423127346 47.23396081442479,92.56078854747466 46.45946984249167,92.8517168485705 45.68497887055855,93.12648195878137 44.910487898567226,93.40124657591514 44.108336534700356,93.67601070005912 43.264694583194796,93.91844922363816 42.68382635421585,94.12856230030593 42.39339223969728,94.17704989243066 41.70188244333258,94.45181262452388 40.92739147134125,94.75889980050852 40.15290049946634,95.04982392543752 39.378409527475014,95.34074749768479 38.78371110261651,95.50237146567088 37.99538993468741,95.7448070977116 37.096427199372556,96.06805401016027 36.30810603144346,96.45594940448063 35.741067998460494,96.8761683061166 35.270841336925514,97.32871044911735 34.96657702646917,97.66811617874191 34.66231271607103,98.0236832790979 34.08144448715029,98.46005995583255 33.2931233192794,98.8317872552143 32.518632347288076,99.0095695576747 31.813292354985606,99.1388656480558 31.273914713819977,99.20351365224633 30.734537072654348,99.2843236191693 29.918555512907915,99.47826736583374 28.936611601966433,99.65604891782277 28.079139454464894,99.81766833142319 27.19400691514602,99.96312565785774 26.336534767528065,100.09242094315414 25.492892816022504,100.23787800861464 24.607760276587214,100.38333493591927 23.722627737210132,100.528791725068 22.975797157210764,100.67424837608996 22.21513638115721,100.78738123131916 21.34383403765969,100.93283763674845 20.486361890099943,101.06213210332498 19.67038033035351,101.17526467209973 18.82673837884795,101.28839715727372 18.02458701498108,101.48233836592408 17.16711486747954,101.61163236861466 16.37879369960865,101.75708799115091 15.562812139920425,101.90254347557493 14.746830580057576,101.99951372177748 14.276603918522596,102.09648390654183 14.0,102.14496897593199 14.47022666153498,102.19345402989711 14.691509796422906,102.72678861104941 15.02343449863838,103.3247675995226 15.147906262020115,103.53486777092621 15.479830964293797,104.08435916424787 15.64579331537243,104.52071857216652 15.631963119492866,104.77930133837799 15.853246254322585,105.23182012874167 15.880906646198127,105.29646556104126 15.687283903185744,104.81162415345898 15.59047253173776,104.4883956957492 15.396849788725376,104.1328436042968 15.27237802540185,103.89042125051492 15.147906262020115,103.61567545239814 14.912792931252625,103.21163661862374 14.663849404489156,102.72678861104941 14.677679600485135,102.4682023794594 15.28620822133962,102.35507076579961 16.005378409579862,102.24193906859728 16.69688820594456,102.12880728782329 17.457548981939908,101.99951372177748 18.218209757935256,101.85405832945253 19.006530925864354,101.7086027990299 19.781021897797473,101.59547062423371 20.5555128697888,101.51466187684855 21.302343449904583,101.35304425410868 22.076834421779495,101.22375003309571 22.76834421826061,101.11061750017689 23.4598540145671,100.99748488364276 24.234344986558426,100.85202853969531 25.077986938122194,100.72273389571637 25.866308105993085,100.59343914259807 26.64079907798441,100.46414428026765 27.40145985397976,100.35101118622697 28.10679984628223,100.22171611928206 28.83980023051845,100.09242094315414 29.55897041875869,100.01161140263139 30.236650019185618,99.89847797430411 30.706876680720598,99.8661541222391 31.080291970807593,99.83383026340744 31.509028044587467,99.72069670369092 32.08989627356641,99.62372501462232 32.68459469842492,99.51059129970963 33.459085670358036,99.31664759399428 34.164425662660506,98.99340753868455 34.77295428351499,98.62168063163699 35.187860161357094,98.23379072308308 35.57510564732365,97.76508910619305 35.990011525165755,97.29638605467335 36.46023818664253,96.8923305485514 37.11025739531033,96.58524765085895 37.870918171305675,96.32665104887565 38.60391855548369,96.0842163378984 39.378409527475014,95.76096945955942 40.180560891283676,95.48620907652366 41.024202842847444,95.19528578063182 41.85401459853165,94.92052438257087 42.711486746091396,94.61343753075926 43.47214752214495,94.35483759887575 44.260468689957634,94.08007469282893 45.03495966194896,93.82147386028373 45.78179024200654,93.56287259100645 46.473300038371235,93.27194564104138 47.15097963885637,93.04566874222655 47.88398002309259,92.81939150912513 48.603150211274624,92.56078854747466 49.322320399514865,92.30218514912121 50.09681137150619,92.04358131400659 50.760660776053555,91.83346537640318 51.03726469463436,91.76881426064938 51.604302727559116,91.59102355163486 51.922397233953234,91.44555827254953 52.21283134847181,91.36474416889541 52.73837879369967,91.17079014610499 53.40222819824703,90.96067301082076 54.12139838648727,90.66974111676973 54.854398770665284,90.39497159811435 55.61505954666063,90.12020158641099 56.36189012683462,89.84543108163052 57.09489051095443,89.57066008374386 57.855551287007984,89.2958885928092 58.464079907746054,89.0857688846736 59.031117940845434,88.89181197508879 59.30772185936803,88.7948334281391 59.88859008834697,88.61703926594055 60.55243949283613,88.37459234827838 61.18862850550795,88.13214504682401 61.783326930424664,87.9381869291974 62.32270457159029,87.72806535784912 62.91740299650701,87.5341067284171 63.59508259699214,87.2916580959718 64.30042258929461,87.01688251519226 64.8121398386429,86.75826975337986 65.29619669611566,86.53198322842945 65.89089512103237,86.22487955256656 66.5270841337042,85.75614117539953 67.1217825585627,85.36821867461549 67.71648098347941,84.96413169107109 68.24202842876548,84.54388009685499 68.68459469842492,84.1882816930738 69.23780253552832,83.81651884235907 69.73568958893884,83.47708240768407 70.24740683822893,83.15380891309178 70.86976565496298,82.7982072805753 71.56127545138588,82.4587685881852 72.335766423319,82.11932914321369 73.1240875912481,81.73139742737112 73.9538993468741,81.3757924909878 74.72839031886542,80.98785889112332 75.35074913559947,80.68074409401743 76.01459854008863,80.3736286808562 76.76142912020441,80.01802059062175 77.49442950444063,79.71090384796844 78.24126008455642,79.37145831028465 78.98809066455578,79.06434027053183 79.63810987316538,78.75722161460726 80.32961966964649,78.43393815333548 81.04878985777032,78.09448978416913 81.68497887050034,77.8035334401211 82.3488282749895,77.44791937970149 83.1786400306737,77.05997582623968 83.95313100266503,76.7366887806129 84.60315021121642,76.42956545493507 84.90741452167276,76.28408576980291 85.50211294658948,75.96079708563047 86.0,75.6051787444303 85.4467921628966,75.41120475559728 84.8382635419839,75.71833012442221 84.2435651171254,75.97696153607103 83.60737610445358,76.31641460067476 82.95735689584399,76.62353815336246 82.52862082212232,76.2032636627846 82.23818670760375,75.4920272808231 81.78179024200654,74.74845843913499 81.44986553979106,73.95639200435835 81.1041106415214,73.18048621682101 80.70303495967528,72.40457649625023 80.34344986552605,71.72565226435836 80.02535535919014,71.11138488832512 79.7210910487338,70.38395980757196 79.38916634651832,69.64036615188525 79.04341144824866,68.86443848571798 78.69765655009542,68.12083744785923 78.35190165194217,67.44189421477495 78.03380714560626,66.79527881175454 77.72954283520812,66.11632969847415 77.53592009219574,65.58286756802408 77.3699577410589,65.22722511467873 77.21782558580162,65.00090675959655 76.92739147134125,64.51593772879278 76.66461774869822,63.90164141707646 76.05608912790194,63.64298960081942 75.66884364193538,62.947860678556026 75.41990011523012,62.15573317409144 75.1986169804004,61.42826552776387 74.89435266994406,60.716960485544405 74.71456012292765,60.151147295560804 75.12946600071155,59.66616289631929 75.94544756051619,59.423670120333554 76.70610833651153,59.21350940364937 77.48059930850286,58.93868341558846 78.21359969262267,58.66385693398479 78.79446792165982,58.421362569744815 78.5178640030208,57.54837967680942 78.40722243557684,57.128052804037 78.11678832117468,56.36822821952228 77.79869381478056,55.543733444807 77.5082597003202,54.751567614017404 77.2731463695527,53.87856378519791 77.12101421435364,53.102556200450636 77.01037264696788,52.326544680283405 76.95505186315859,51.50202812789939 76.95505186315859,51.11401880111953 76.95505186315859,50.80684405301872 76.63695735682268,50.19249270678847 76.49865539756138,49.464968185537145 76.4433346138685,48.46259540093888 76.38801383017562,47.57338824060571 76.37418363423785,47.12069897388574 76.33269304648275,46.50633282659692 76.24971187085612,45.843461321957875 76.18056089128368,45.180586945367395 76.06991932383971,44.50154192306218 75.94544756051619,43.87099741802376 75.83480599307222,43.22428240557201 75.72416442562826,42.545228700197185 75.57203227042919,41.672155221691355 75.39223972341279,40.60505864811421 75.26776796003105,39.73197409705608 75.11563580483198,38.81037944286072 74.99116404145025,37.9534531164245 74.78371110250009,37.09652198970434 74.45178640028462,36.06173083464091 74.13369189394871,35.25329537407379 73.9538993468741,34.81673844883335 73.92623895499855,34.70355682034278 73.59431425278308,34.75206324280589 73.20706876681652,35.220957866768 72.48789857851807,35.511995186287095 71.7825585862156,35.85153802590503 71.04955820203759,36.17491145816166 70.34421820973512,36.46594696266402 69.48674606223358,36.82165627190261 68.71225509030046,37.16119620445534 68.04840568569489,37.43606131222623 67.60583941597724,37.048016310698586 67.28774490969954,36.46594696266402 66.90049942367477,36.595295898092445" stroke="#4dd2ff" stroke-dasharray="none" stroke-linecap="round" stroke-linejoin="round" stroke-width="0.5"><title>2024-05-25 18.7km</title><desc>1716643451000</desc></polyline><polyline fill="none" opacity="1" points="180.330024522038,105.09040997275952 180.46044507659826,104.88532504365685 180.52462027010915,104.8756739433029 180.50391859478987,104.86843561538626 180.58465512856492,104.88291226894762 180.61570764156204,104.86602283890716 180.56188328570715,104.83948228102781 180.5908656311658,104.86602283890716 180.650900489607,104.69471506471382 180.77511054157367,104.82983116151263 180.62605847921805,105.10006098337544 180.60949713896116,105.16761794474041 180.57430429090164,105.28584215159026 180.61363747402356,105.39924031191913 180.72749668832694,105.44508196336392 180.70886518053157,105.51505062434262 180.66125132727757,105.58260637173044 180.6177778090787,105.66946347084195 180.50391859478987,105.7442568222159 180.52047993505403,105.9348581386148 180.52255010257795,105.94450879634314 180.51012909738347,105.74908219140525 180.58051479349524,105.59708257759667 180.48114675191755,105.59466987725136 180.51219926491467,105.4378438139247 180.58879546362732,105.27619121862153 180.58051479349524,105.14831597595003 180.46044507659826,105.32927130005373 180.18304262721358,105.22311101516243 179.9077103453601,105.1121247409701 179.66964107909735,105.03250382436818 179.83318431417865,104.67782549702315 180.0174292245938,104.41965485327819 180.25963882592623,104.1059857012333 180.42525222853146,103.95156239958123 180.55567278310627,103.80196384122974 180.41697155840666,103.73681577898788 180.1292182713587,103.45933123274699 179.85181582197401,103.14564903419523 179.6924129219551,102.96950254644253 179.47297516348044,102.82713659483125 179.27009874528449,102.61720553899613 178.9554332803018,102.27696839435157 178.694592171174,101.9656832097935 178.38820737633068,101.61819711530916 178.12529609968624,101.35999225475462 177.87066549315205,101.10902401478597 177.65950840480946,100.93768836050731 177.40901813335222,100.68912874198577 177.2102820502041,100.48400471069544 177.07365099305025,100.33679692933765 176.9349497683579,100.20406779693258 176.6782489942998,99.92171419435908 176.57267045013577,99.79380928882165 176.37600453451887,99.63453049088093 176.11930376046075,99.37389008659011 175.90193616951728,99.14944737952828 175.6369547253271,98.86949427674881 175.38439428633865,98.604018369384 175.12562334474933,98.3433663251435 174.8772032408233,98.0851248220697 174.63085330442846,97.83412096505344 174.38036303296394,97.6000091372498 174.1298727615067,97.3514135649275 173.95183835369244,97.1752228479836 173.7551724380828,96.98213558547468 173.42601580038172,96.64422898738303 173.0616663146211,96.26287131020035 172.7532113522393,95.94426386006126 172.5834576145644,95.75599375285856 172.35159885088797,95.66185812300319 171.97482835994015,95.46151691398518 171.6353208845685,95.27807042536006 171.2233575455466,95.06565687892544 170.87763956758863,94.87255195734724 170.53192158962338,94.70358382471022 170.15308093113708,94.51771744903817 169.76181926744903,94.31736630163505 169.43266262974794,94.15322189581093 169.08073414917453,93.97942066330324 168.70810399328911,93.80561812097221 168.3623860153166,93.6245724131386 168.00424703216413,93.43386939714037 167.65852905418433,93.2600627430802 167.437021128193,93.14660491498762 167.16996951646433,93.01383440730206 166.83874271122477,92.84243862151015 166.45990205273847,92.65414319105184 166.0707105565889,92.4513617770881 165.71671190848429,92.2606490580547 165.35029225520702,92.06510653106307 164.97559193177585,91.88404715699471 164.6257336187482,91.7029863610569 164.275875305706,91.52192414318233 163.91152581995266,91.32396115773008 163.514053653671,91.13565332574763 163.18696718349383,90.96907203837873 162.8992138964386,90.81938927517331 162.52451357302198,90.62383452347058 162.17672542752553,90.44759240009262 162.05044520802767,90.37516373954713 161.88690197294636,90.31722064727182 161.5080613144528,90.119247316361 161.10023831050785,89.91402926396586 160.71725731695187,89.71122374665538 160.34048682599678,89.5108308280669 159.95336549737112,89.32009378121074 159.56003366615187,89.11245418895669 159.1832631751895,88.92412828991473 158.83340486216184,88.75270209520386 158.46905537640123,88.55712980891803 158.11091639323422,88.383286383405 157.8997593048989,88.34465433299374 157.76726858280745,88.53057048155279 157.692742551626,88.70924173056846 157.6327076931775,88.84686593745755 157.5395501542007,88.98931819833888 157.48572579836036,89.11486861357298 157.44225228017604,89.22351745935703 157.44639261523116,89.21385980491686 157.4753749606898,89.11728303793097 157.50021697108605,89.10521091360533 157.52091864640533,89.06658007326769 157.65547953604982,88.76718886521121 157.71137405942136,88.63197865773145 157.51056780874933,88.54022842232553 157.24351619702793,88.48952418815315 156.8812368788058,88.40501688331096 156.6659394554008,88.32775279056295 156.4071685138042,88.29877868900803 155.95173165660526,88.2698045510133 155.4942246318751,88.25290295369814 155.04706844480097,88.20702712706952 154.67443828891555,88.05491189062559 154.4032463421172,87.924526603083 154.10514221740596,87.7820677603977 153.72009105631878,87.5985601567154 153.29984704717208,87.40780728282516 152.8713223678933,87.27741833388063 152.44279768862907,87.14944327766352 152.08465870545479,87.04319929481608 151.861080611925,86.93695482209296 151.57746765993943,86.77517252498728 151.20483750404674,86.56026592589842 150.8218565105053,86.37433388019781 150.43680534941086,86.24152435749966 150.04761385326128,86.07732243471037 149.75157989607396,85.9300226552823 149.39137074537575,85.75374463220578 149.01460025442793,85.6330054819482 148.6398999309895,85.50985089682399 148.2941819530315,85.40601416645222 148.12028788027965,85.3045917919444 148.0271303413101,85.0751823928822 147.91534129453794,84.88682349417104 147.91534129453794,84.51010107629918 148.02091983870923,84.12129776157053 148.14927022575284,83.73490287248569 148.1886034088675,83.35091653004747 148.21137525172526,83.08043174150953 147.8739379438921,82.88239622137371 147.53029013345804,82.68677409671363 147.51786912826356,82.3945453585984 147.34811539056682,82.1965039404713 146.97962556975108,81.99846081925898 146.64632859697304,81.8100767575288 146.37099631512683,81.63618240962569 146.3834173203286,81.29080501895805 146.3916979904534,80.84398042876455 146.3916979904534,80.51308311696994 146.397908493047,80.24739570191741 146.40204882811668,79.99619750799684 146.397908493047,79.81262786379557 146.3958383255158,79.5421015096781 146.40618916318635,79.03002506419034 146.42068033590476,78.54209257019102 146.4372416761762,78.11453925911519 146.43517150863772,77.67006864077848 146.4413820112386,77.23042078096842 146.44552234630828,76.81975310604685 146.46001351903396,76.40907810301178 146.3937681579846,76.34143681134628 146.25713710082346,76.24963759749517 145.82447208648227,76.21340096491804 145.44563142799598,76.18682739808355 145.04401892665192,76.15542223409284 144.59479257204657,76.1216012403238 144.215951913553,76.09261177752705 143.78328689920454,76.05637489768378 143.4044462407328,76.01772216295467 143.0504475926282,75.9983957712393 142.78960648350767,75.98390096680669 142.39006414968753,75.95491133053838 141.99880248599948,75.92350585004169 141.63445300023886,75.86794220263073 141.26389301187737,75.85586313109343 140.87263134818932,75.83170496898856 140.5476150455579,75.7543986798446 140.54347471048823,75.34128879506898 140.56417638582207,74.9837374102026 140.566246553346,74.61651669083403 140.57659739101655,74.25653806009723 140.58487806114135,73.84823333279746 140.59108856373496,73.48582661694672 140.5972990663431,73.20072932164658 140.5972990663431,73.12583029361485 140.5972990663431,72.89388336953562 140.60350956893672,72.7513314954067 140.59108856373496,72.48072211766885 140.59108856373496,72.2946763237378 140.63456208193384,72.14003971348757 140.61179023907607,71.85250950262525 140.6097200715376,71.51906660567329 140.6138604066,71.09138276989506 140.6159305741312,70.68302185462744 140.60350956893672,70.3398964262069 140.64077258452744,70.02093016867548 140.5972990663431,69.64879727627522 140.6097200715376,69.29599040132052 140.5972990663431,69.01567423050437 140.58487806114135,68.74502089175985 140.57659739101655,68.65319135653226 140.58280789361743,69.0132576969354 140.54554487801943,69.1558327430921 140.35715963254188,69.34915342750719 140.00109081690607,69.36365241331077 139.63674133115273,69.3467369289774 139.58498714283633,69.12200145620773 139.29102335318748,69.05433873310358 139.05088391939353,69.05433873310358 139.19786581421795,69.05917179136668 139.56635563504096,69.11716841116322 139.92863495327765,69.1872474649117 140.28263360137498,69.24041074251909 140.54554487801943,69.29357389720462 140.5414045429643,69.6729619326452 140.53312387282494,69.96051939431527 140.21845840784954,69.98226729136331 139.97417863899318,69.96776869561836 139.5911976454372,69.95810296003947 139.16681330122083,69.94118791300025 138.78797264273453,69.92668929135289 138.39878114658495,69.90977422119613 137.96404596469802,69.89527557974361 137.57071413348604,69.88560981369119 137.1546104594163,69.87836048648387 136.72608578013023,69.86869471332102 136.3203329437165,69.84211381617934 136.28099976059457,69.52314065380233 136.27064892294584,69.09541969587917 136.2623682527992,68.78368584949749 136.2561577502056,68.62902562841191 136.23131573980936,68.32453527774669 136.20647372941312,68.00554106121854 136.17749138396175,67.6406255827169 136.14643887097918,67.28053774380169 136.12573719564534,67.05819881191383 136.10296535278758,66.76335473762083 136.06570233718958,66.38633549343649 136.0325796566758,66.03347854727872 136.0098078138035,65.6781992998076 135.97875530082092,65.35433452058169 135.9477027878238,65.14889554122601 135.91250993977155,64.75976491141591 135.8855977618441,64.33920638724885 135.86075575145514,63.979066820907974 135.81314189820114,63.57057954139782 135.75724737481505,63.1935079147388 135.70135285143624,62.84301912290357 135.65994950077584,62.57471029673252 135.5874936371256,62.15169452178088 135.53366928128526,61.80844171143872 135.4757045903607,61.467601099611784 135.43637140724604,61.2089456290887 135.3908277215305,60.84633959882194 135.3742663812518,60.56108549900637 135.3514945384086,60.22747875254936 135.32251219294267,59.86485722787802 135.30388068514003,59.54332802055069 135.26661766956386,59.19036596342448 135.198302140976,58.83256327283743 135.11342527213856,58.46266679296059 135.0326887383635,58.14595330741031 134.94367153445637,57.82440003260126 134.84430349287868,57.49075352866748 134.73458461365226,57.1546843953256 134.64349724220665,56.87905567911366 134.53791869803536,56.56473819258281 134.46753300192358,56.30119175255459 134.3557439551587,55.924000758290276 134.28328809150844,55.583072796522174 134.17149904474354,55.317097111879775 134.04521882525296,54.98099615721185 133.90237726549094,54.62070981254328 133.8299214018407,54.46111808074238 133.68915000961715,54.1250045918423 133.589781968054,53.820321924209566 133.4966244290772,53.571252929292314 133.32066018879414,53.18676247473013 133.18816946670267,52.84821208723224 133.04739807447913,52.49756534906555 132.91283718484192,52.166259714964326 132.8051884731467,51.89540775954447 132.69339942637453,51.61246078449403 132.5940313848041,51.331928715022514 132.50915451596666,51.16264046193828 132.24210290423798,51.307744755344174 131.88396392107825,51.438337834793856 131.52582493791124,51.578603647763885 131.2111594729431,51.68259326594125 130.92547635342635,51.658409675867006 130.83852931705042,51.256958357042095 130.7598629507993,50.88210289246854 130.68119658455544,50.52658914800122 130.59631971571798,50.13721063041339 130.51351301441173,49.74298837983224 130.39965380010835,49.38987558146255 130.28165425074985,49.056106432401066 130.22575972736377,48.86987081071129 130.08912867020263,48.480464169941115 129.9566379481039,48.11765700259093 129.8282875610821,47.71856248967015 129.70200734157697,47.346068011624084 129.61299013767712,47.09450987654236 129.47635908051598,46.68814090594242 129.34386835840996,46.32046753676332 129.21965830645058,45.92617967547085 129.09958858956088,45.57300810468041 128.9836592077263,45.253697618336446 128.87187016094686,44.93680175412919 128.7373092713242,44.54007098635884 128.62759039209777,44.218326968439214 128.51994168039528,43.91593185772581 128.4081526336231,43.56756774552923 128.29222325178853,43.24097158208497 128.21355688555195,43.00630331756656 128.09348716865497,42.667602617064404 127.97755778681312,42.32405822220426 127.86783890757943,42.01196061080918 127.7229271802862,41.59824327255592 127.58836629066354,41.199035251867826 127.48278774649953,40.88450282233498 127.35650752699439,40.5167363527853 127.24057814516709,40.177998856221166 127.11429792566196,39.81022104711519 127.00250887889706,39.488410621501316 126.9197021775908,39.21256951619398 126.83275514121488,38.95124330030194 126.68577324639773,38.55924838729334 126.57812453468796,38.24467971728882 126.46633548792306,37.922847300000285 126.34419560349488,37.557453134788375 126.2303363891915,37.233191179695496 126.10198600216972,36.84842663613381 126.01503896578652,36.51931472798242 125.94258310214354,36.20713803295439 125.85356589823641,35.85381664017223 125.76868902939168,35.5222703758991 125.66932098782127,35.14473739810819 125.68174199301575,34.890625158508556 125.5347600981986,34.818021143544684 125.34016435012018,34.89788554734878 124.98616570202284,34.98985027334675 124.59904437340447,35.10601571513325 124.23262472010538,35.224600662457306 123.86827523434476,35.33350466500269 123.51634675378591,35.469028922672805 123.16027793815738,35.599712268722215 122.78971794979589,35.75701530730839 122.44814030689304,35.85139661183348 122.16866768996988,35.969977699518495 121.99063328216289,36.042578062417306 121.81880937694223,36.1054981907746 121.50414391196682,36.19503807540423 121.14186459373741,36.279737644072156 120.84790080408857,36.31361738383748 120.79614661577943,35.90705719883954 120.75267309758055,35.602132323658225 120.71126974692743,35.33592474806392 120.6657260612119,35.05035318115006 120.60155086769373,34.660711654723855 120.53530550665164,34.34608943494277 120.41937612482434,34.02662244995008 120.27860473259352,34.09922897429715 119.95565859747876,34.24928172836553 119.63271246237855,34.37029129763869 119.44018688183132,34.28316447222096 119.2414507986905,34.348509622361235" stroke="red" stroke-dasharray="none" stroke-linecap="round" stroke-linejoin="round" stroke-width="0.5"><title>2024-05-01 58.8km</title><desc>1714551575000</desc></polyline><polyline fill="none" opacity="1" points="19.195758349218522,114.19852536024337 19.46620086958137,114.08823370327991 19.705196585251542,114.01470564052761 19.79324763839395,114.29411103861457 19.84146607225557,114.54165160499906 19.877105784238665,114.81614894528866 19.927420671745494,115.09064303642117 19.981928466550016,115.38964183150347 20.01547172489518,115.67883372009237 20.042725622290163,115.9165565551557 20.0636901587568,116.23024893836555 20.067883066047216,116.32582624310635 20.13077667543257,116.37238940273528 20.453630536954734,116.3013192794424 20.807931203169574,116.23024893836555 21.1098205282251,116.15917837952657 21.332044614719052,116.080755441164 21.493471545472858,116.01213515258496 21.772299880431092,115.90185212059077 22.063706937246025,115.80137156823366 22.407525335227547,115.60040915751233 22.71151111392828,115.43130529202426 22.979857180653198,115.2940606686534 23.309000403110986,115.30631468590946 23.587828738054668,115.24749534405055 23.879235794876877,115.15681523307285 24.189510934520513,115.06613476752318 24.48930380593083,114.98525729639186 24.780710862760316,114.89702700619455 24.948427154449746,114.93133882560142 25.030188846663805,115.25729857805345 25.12033635345142,115.629818399555 25.200001591998443,115.95331760077897 25.279666830560018,116.28171368986114 25.348849800873722,116.57089445563724 25.378200151928468,116.68362496391637 25.47463701965171,116.96544883766182 25.57736324831785,117.26932465636128 25.667510755105468,117.53643801589715 25.7618511691835,117.81089991541558 25.8540951296236,118.08290805845354 25.958917811927677,118.37451684963526 26.072126308827137,118.7102299947419 26.153888001041196,118.99693007583119 26.210492249476374,119.12435119691145 26.298543302626058,119.36693947387175 26.388690809413674,119.6144259104185 26.4809347698465,119.8962141837037 26.55640710111038,120.13634409858605 26.610914895907626,120.27110979889221 26.71783403187146,120.540638851533 26.753473743854556,120.6680514957734 26.81636735323991,120.86897001342186 26.90861131366546,121.15319323819676 27.013433995984087,121.48396588427022 27.12244958559313,121.8073834688239 27.223079360599513,122.10874579813026 27.285972969992144,122.26800073333106 27.40547082782723,122.59875749194725 27.495618334614846,122.9221595431427 27.56689775858831,123.07405895138618 27.650755904433026,123.27005671907318 27.72203532840649,123.50525185586957 27.80798992790369,123.78454298583529 27.89394452740089,124.07118038849876 27.979899126890814,124.32351636935891 28.013442385235976,124.47050693870187 28.095204077435483,124.65424384167454 28.208412574334943,124.96291856528842 28.317428163929435,125.28628768378621 28.43063666083617,125.6561968346723 28.55223097230919,126.00895238978046 28.667535922853858,126.3323069410435 28.774455058810418,126.66300580215102 28.896049370297987,127.01574606334361 29.00087205260934,127.33908659617191 29.130852178670466,127.70406406172151 29.248253582860343,128.03719284913495 29.369847894340637,128.38746281803833 29.480959937587613,128.71568302997366 29.573203898020438,128.95327237921083 29.581589712608547,128.94102556493635 29.682219487622206,128.9336774732801 29.743016643362353,129.01205699781713 30.061677597594098,128.88469013614304 30.401303088285204,128.76712010550546 30.713674681574048,128.66914462539535 30.83946190034476,128.9067344506384 30.98621365557483,129.18596062350116 31.151833493626327,129.47498067084598 31.306971063444507,129.75175073548962 31.45791572597227,130.02851750276022 31.569027769226523,130.05300997822815 31.629824924959394,130.3763082344085 31.717875978109078,130.75103467468216 31.814312845825043,131.10861113271494 31.88139936250809,131.32168489862488 31.975739776586124,131.49802033068045 32.08685181984765,131.75517377034703 32.18328868757817,132.00742628420267 32.296497184470354,132.3037582636789 32.4369595787648,132.65641288501138 32.5606503438903,132.9600834095636 32.67805174808018,133.27354559543346 32.81641768873669,133.5796569309423 32.881407751767256,133.7412820897116 32.71788436735369,133.80250344725027 32.72207727465138,133.8220942476146 32.73465599652991,133.79515689286927 32.73465599652991,133.7829126303841 32.931722639274085,133.82944079348817 33.03444886793295,134.1281983584322 33.164428994001355,134.46613261482162 33.3111807492387,134.8065107035909 33.45793250447605,135.18361442081186 33.57743036230386,135.50684130941227 33.66967432274396,135.82516642837618 33.780786365990934,136.1949078255857 33.85416224360961,136.45200930454848 33.95269556498533,136.70910794039082 34.05751824728941,137.06414423990282 34.156051568665134,137.37999956319436 34.25248843639565,137.7227834312107 34.338443035885575,138.05087182908392 34.44116926455172,138.35936863722054 34.52712386404892,138.70703473819958 34.596306834377174,139.0302126495826 34.65920044375525,139.33624819837132 34.694840155745624,139.59821142920555 34.71790114585019,139.85527528269085 34.74096213596931,140.20291902240933 34.76611957971909,140.59217591690322 34.795469930773834,140.74640797889333 34.8122415599355,140.97653010668364 34.849977725563804,141.3682221102481 34.89609970578749,141.7207392746277 34.954800407875155,142.08304301619864 35.00511529538926,142.42330963558015 35.061719543831714,142.77825871942878 35.08687698758877,142.89331001902065 35.12461315323162,143.12341091149574 35.174928040731174,143.43918396404842 35.216857113649894,143.73047468552613 35.24201455741422,143.95322395332914 35.26507554751879,144.21023968973714 35.252496825640264,144.2836722358952 35.30490816679958,144.49907303453801 35.334258517832495,144.84419970316048 35.35522305430641,145.1795306419026 35.36780177618493,145.45856146274127 35.37199468347535,145.53443768636862 35.3971521272324,145.73758893833474 35.428598931917804,146.019060634153 35.451659922036924,146.29808139047782 35.4768173657867,146.54528119606766 35.495685448593576,146.84142800177506 35.52293934600311,147.17917761113495 35.539710975172056,147.38231450894455 35.57325423351722,147.70537194832468 35.58792940903368,147.9011621539994 35.61518330643594,148.1654763198003 35.63824429655506,148.4616025153773 35.6487265647811,148.70143750000898 35.67178755488567,148.88743027704913 35.6801733694665,149.0685270797112 35.67598046218336,149.3450640742867 35.68436627675692,149.6460696362592 35.70113790593314,149.9348355428374 35.69694499864272,150.17954960965653 35.7283918033354,150.5050153340053 35.73048825698061,150.90878227928806 35.73677761791623,151.30520119705943 35.73677761791623,151.66735579197666 35.73677761791623,152.05397407732744 35.738874071568716,152.45771417089782 35.74516343251162,152.76357321930482 35.738874071568716,153.1232583218607 35.70742726686876,153.23336489605208 35.770320876261394,153.44868291496095 35.78080314449471,153.7300614172891 35.80176768095407,154.01143652117025 35.818539310123015,154.30504170213862 35.83740739292989,154.64268308619648 35.82692512470385,154.96808645662713 35.81015349554218,155.27391254937538 35.774513783544535,155.58707430878894 35.761935061673285,155.81704979561619 35.75564570073038,155.88310616479794 35.952712343481835,155.88799922172984 36.29653074146336,155.92959016419627 36.638252685792395,155.97362755177892 36.98836044470954,156.00543227994422 37.376204369269544,156.0470230128176 37.692768869848805,156.0714881151216 38.03658726782305,156.09595319174878 38.309126241838385,156.11063222539087 38.606822659603495,156.13754376306133 38.91500134558737,156.15466927084708 39.21479421699769,156.1766877623686 39.52716581029381,156.2035992237561 39.84792321815621,156.2305106540607 40.055472129133705,156.27699396048592 40.28817848386825,156.25742205329698 40.60055007714982,156.2867799079213 40.938079114195716,156.31858420869685 41.25045070748456,156.34304902590884 41.54814712524967,156.36996029518014 41.854229357595614,156.39442505845545 42.07854989774205,156.41888979605574 42.36995695456426,156.40665743046884 42.72216116713389,156.45069391653487 43.04711148230126,156.48494445927645 43.39931569486362,156.5143020272826 43.749423453780764,156.54121309879156 44.07856667623855,156.5705705959117 44.464314147153345,156.60237450939167 44.8102289987728,156.62194612687563 45.02616372433113,156.6366248292088 45.298702698339184,156.6586428653718 45.44964736087422,156.66598220613378 45.74105441769643,156.6806608807292 46.019882752640115,156.76139342574243 46.0219792062926,157.09655281904634 46.007304030768864,157.38033364662806 46.00101466981869,157.7301621530496 45.99472530889034,158.04818351174436 45.98843594795471,158.3662005314618 45.98214658701181,158.7160142419507 45.97795367971412,159.04136074354938 45.9800501333666,159.3862720010129 45.97585722607619,159.69448625398218 45.97166431877122,159.98068155462897 45.96956786514056,160.2350744280866 45.96956786514056,160.44054356875495 45.95908559689997,160.87838248292792 45.956989143262035,161.36268634181943 45.94231396772375,161.82496700575575 45.93392815315019,162.24321304326986 45.92344588491687,162.63210175173117 45.912963616683555,162.9500562546582 45.85426291458862,163.30713845179343 45.751536685922474,163.65198661729664 45.596399116104294,163.9576988125773 45.420297009826754,164.24873309955183 45.432875731698005,164.23161353613978 45.489479980147735,164.22916788320072 45.59849556975678,164.31965687131378 45.82071965625073,164.4663950248032 46.05552246462321,164.65470763602207 46.29242172664817,164.79655249521966 46.44336638918321,164.92372301501382 46.66768692932965,165.14626975650572 46.92974363510439,165.32968580466877 47.16664289712935,165.52777351698933 47.42660314925888,165.54978315898006 47.575451358141436,165.53266455033736 47.676081133155094,165.67694957279127 47.77251800088561,165.8799252971403 47.894112312365905,165.91660746855814 48.22325553482369,165.9973080426571 48.537723581757746,166.126917471438 48.86896325786074,166.2051718722887 49.12263414904737,166.32255298144082 49.38049794753897,166.44726976285892 49.60481848768541,166.54997719993662 49.82704257417936,166.65512958379804 50.08071346538054,166.7651722687424 50.384699244081276,166.87521443471633 50.68868502278201,166.99503753633508 50.83753323165729,167.06839831527395 51.09330057650368,167.21267384101156 51.349067921342794,167.36428444918056 51.565002646893845,167.491440973914 51.85640970372333,167.61615150781654 52.21909618452628,167.7261896607215 52.523081963227014,167.8166650866242 52.82287483463733,167.90469489404495 53.120571252395166,168.00495065916948 53.36375987536303,168.1321036929421 53.56082651809993,168.22257754511702 53.74321798532765,168.30571537028845 53.95495980358828,168.4084146277928 54.23798104583693,168.5477914686635 54.57551008286828,168.7091741392651 54.9381965636785,168.79720058012936 55.27153269341943,168.8240974819546 55.54826457473246,168.85588468960123 55.81451418779034,168.84854918398923 56.12898223473894,168.86811052717349 56.29669852642837,168.921904136374 56.550369417615,168.93657509918376 56.85435519633029,169.01482007842424 57.179305511490384,169.0710584952194 57.44345867091761,169.15663843468064 57.617464323557215,169.22754728966174 57.942414638710034,169.37669969526542 58.23382169553952,169.52096095128945 58.506360669547576,169.618764685496 58.63214788832556,169.67744672931076 58.873240057633666,169.77035966362018 59.18980455820565,169.8975030796446 59.51685132703278,170.03687102849108 59.84599454949057,170.15912293007932 60.11643706983887,170.2593690116173 60.45396610689204,170.3693947031079 60.82084549497813,170.55765968343985 61.16466389295965,170.73125331980373 61.47913193988643,170.88528602891165 61.74328509931365,171.0222031393314 61.963412732162396,171.14444988077412 62.22756589158962,171.2740307278018 62.49381550466205,171.40850065764243 62.74119703491306,171.53319026412646 62.971806936002395,171.64320995210983 63.261117539179395,171.80212636388023 63.531560059542244,171.95859685090727 63.7978096726074,172.08817317920693 64.1059883586131,172.24953137513512 64.40787768366863,172.40110927066053 64.68670601861959,172.54779661972134 64.94876272438705,172.67981444595353 65.23807332756405,172.83627905121284 65.53576974534371,172.97562945756908 65.82088744122302,173.11253431008663 66.12277676627127,173.26899601580772 66.41208736945555,173.41567791280795 66.68672279710881,173.55991421304498 66.90475397631963,173.66992435164138 67.15632841386105,173.79949118356308 67.4414461097549,173.93883584200557 67.72446735198173,174.09040277204986 68.02845313069702,174.24930252956437 68.3513069922119,174.40575661908224 68.6469069563318,174.56465423095688 68.94879628138733,174.73577352701795 69.24649269915244,174.89222435767078 69.54418911691027,175.04134058017007 69.89848978313239,175.22223439177287 70.21505428370438,175.3835709336363 70.53581169158133,175.55223976312482 70.77900031453464,175.67690724555723 71.09766126876639,175.83335177229128 71.41422576934565,175.99712851359072 71.70143991887744,176.1340156551796 72.01381151215173,176.2977902884304 72.3115079299314,176.49578495364767 72.40375189036422,176.61800304511962 72.53792492372304,176.68400054863923 72.80836744407861,176.88199194048502 73.06413478891773,177.1410892517979 73.28635887541168,177.37085238802683 73.49181133274396,177.5761707255715 73.68887797548814,177.76926608702888 73.94883822762495,178.0356861809505 74.20879847975448,178.3045474160499 74.49391617564106,178.59540290476616 74.7601657887135,178.87403417910173 75.01174022625491,179.14044167643442 75.26960402475379,179.38973768446704 75.51488910135231,179.64391911125495 75.76646353890101,179.88587770862068 76.00126634727349,180.12538981244143 76.22768334106513,180.36489946159418 76.43313579839742,180.58974302095157 76.66164924584155,180.79992091383065 76.73083221616253,180.868350517605 76.76647192814562,180.8976774293169 76.81259390836931,180.93433601721335 76.95095984901127,181.07608201607945 77.13335131623899,181.2715923280939 77.24865626679093,181.37912230261463 77.4310477340041,181.58440542575772 77.62811437674827,181.79701818839385 77.8566278241924,182.01696039054877 78.04530865234119,182.2246816812676 78.18577104665019,182.32976351350044 78.43105612325598,182.5594756413102 78.67214829256409,182.8233974271243 78.90904755459633,183.0726541556851 79.15433263119485,183.32679553487833 79.37655671769608,183.56627238327383 79.3828460786317,183.60537041130192 79.56523754585942,183.76176186957673 79.74133965214423,183.923039465275 79.98243182145234,184.16251020659365 80.19627009337273,184.37509952383516 80.39124028246442,184.5950174732152 80.40381900435023,184.6536619103881 80.50444877937116,184.7636198336586 80.57782465698256,184.95421234243986 80.7224799585747,185.11303824642528 80.79375938254816,185.2156636414329 80.7224799585747,185.30851480120873 80.57992111062777,185.4819988749514 80.48348424289725,185.6261607176948 80.4289764481,185.7190102475779 80.36608283871465,185.92181188616996" stroke="red" stroke-dasharray="none" stroke-linecap="round" stroke-linejoin="round" stroke-width="0.5"><title>2024-05-01 52.5km</title><desc>1714541844000</desc></polyline><polyline fill="none" opacity="1" points="186.0,148.23291322899786 185.79241747152992,148.2706601617774 185.54101196482952,148.31245127852162 185.2630820239283,148.3299765448064 184.99322473691427,148.33267273748334 184.78218249964266,148.3097550815728 184.590745278947,148.3353689295909 184.31050886550656,148.3407613120953 184.03603863341414,148.3380651211246 183.75580221998098,148.35019797599216 183.5043967132733,148.3555903522265 183.22416029984015,148.36233081931732 182.96006919417414,148.33132464121718 182.74672048436332,148.3097550815728 182.46187112584448,148.29492598816796 182.19316707510734,148.38524838079138 181.98673778290686,148.4216467761753 181.78376819951518,148.4364757222993 181.6246215943538,148.2639196462569 181.51621738504036,147.99564423716492 181.4447167363469,147.8608303441215 181.34323194465105,147.60737636836984 181.29018307626393,147.44424641196838 181.21522271876165,147.2554984046492 181.1344961799041,147.05730999110074 181.03416462448513,146.81192959353484 180.93959925039235,146.57193760544396 180.83811445870379,146.38856989708165 180.4944500504571,145.7818197141014 180.34683580799174,145.57551807538493 180.29494017586694,145.39348444587085 180.16347124116874,145.49596295698393 179.94666282254911,145.62271155513736 179.74599971169664,145.5121436992422 179.6502811013488,145.49056937166824 179.3781173417956,145.4689950075972 179.1728412858647,145.4932661646144 178.9479602133506,145.56742774703253 178.71615972322616,145.64428565913477 178.62736053048866,145.66720810464176 178.38402767767548,145.7642909464348 178.0957186103551,145.86272140645906 177.9561770217697,145.92204898799082 177.7774254000251,146.02991661092983 177.64710970160377,146.089243414639 177.45913218970963,146.21463779614987 177.24001729854353,146.28340193353142 177.06357214934542,146.33733433086581 176.80870693383622,146.41283930397185 176.61957618567976,146.47486091177416 176.4108404209328,146.5395787896523 176.21940320023714,146.64339636615114 176.0337321608822,146.82945692134308 175.77656047282653,146.9251826712989 175.63009946663078,146.98180883309033 175.36831483350397,147.09236394826166 175.10076401903643,147.21640025395573 174.9450771226766,147.2919000234342 174.69828456104733,147.4132380024821 174.6025659506995,147.44020184108922 174.36845898803585,147.60602819545875 174.1355052616418,147.7664597713374 173.99596367306367,147.86622292719585 173.7906876171255,147.936326299734 173.4896929508468,148.05765814959432 173.32132045552862,148.10079808480805 173.03877756955626,148.14528599021924 172.86002594781894,148.15607091362108 172.60746720484167,148.19786240570556 172.35375522560207,148.1533746836294 172.10580942771048,148.08192438110382 171.96626783912507,148.00373302544722 171.73677382153983,147.81364514498728 171.53034452933935,147.86487478163872 171.3273749459404,148.01451806850946 171.08865503819834,148.13315294049062 170.85224160300277,148.2153878293875 170.57777137091034,148.32323606062346 170.31598673778353,148.41355825284154 170.14992071501183,148.47017780849364 169.9630964393873,148.56993546191006 169.79357070779952,148.64812334775797 169.55254432751826,148.68452099325623 169.3184373648619,148.72631075449863 169.12584690788208,148.76540427820873 169.00014415453188,148.79371330681533 168.72336744990753,148.9123409341646 168.5411561193614,149.01883525113863 168.26322617846745,149.16711699704138 168.0660227764165,149.26821719956297 167.87227908318164,149.36122867849645 167.60703474124603,149.49872266649436 167.38791985007992,149.64565087916253 167.28297534957528,149.72113627561976 167.0419489693013,149.7871856312886 166.7651722646624,149.8694098617434 166.44687905434694,149.96511280715367 166.2646677238081,150.00824629443468 165.97059247513243,150.0877732794661 165.72264667724085,150.20369308199315 165.44010379126848,150.3411779946564 165.29364278506546,150.4233986563877 165.06068905867141,150.52448890805044 164.84618711258372,150.62153479647623 164.65705636442726,150.69027518773055 164.46331267118512,150.7778849537881 164.34568257172214,150.83045052481793 164.29955312095262,150.8506679944985 164.08966411993606,150.9382766598119 163.8428715583068,151.07171024101353 163.61914372206957,151.17279535890975 163.36427850656037,151.31835652259088 163.10710681851197,151.46526379213992 162.9571861035074,151.52321757113623 162.72077266830456,151.64047208690317 162.50165777713846,151.75772552587568 162.31022055643552,151.85071886701098 162.16952573158778,151.76581193025322 162.06112152227433,151.52726084822734 161.92388640622812,151.29005309295917 161.8339339772283,151.15931738943345 161.69554562491248,150.94636358321895 161.55946374513587,150.74418896107636 161.4487530632905,150.58783839105217 161.30805823843548,150.61209981192405 161.0947095286101,150.75631952869935 160.90442554418405,150.84662450312862 160.69223007063556,150.94097230151783 160.39354187688878,150.95984177752143 160.25400028831064,150.91671150567254 160.00490125414944,150.79001548939232 159.70044687905465,150.63770903948352 159.3417903993104,150.5784033815953 159.0776992936444,150.53122822969908 158.80322906155925,150.52448890805044 158.54259766470204,150.48270503442745 158.36038633414864,150.45035613511118 158.15626351448736,150.41800715381123 157.93253567824286,150.3977889988655 157.6603719186969,150.36813564702152 157.37782903272455,150.34252587862738 157.1022055643698,150.31961183177282 156.84849358512292,150.29534985497503 156.61323338619695,150.27378361466162 156.3687472971069,150.2643483730708 156.13233386190404,150.34387376245468 155.9812599106299,150.39913687686112 155.88438806400518,150.24547786895437 155.76099178319419,150.05003172122997 155.6318293210279,149.84514702916113 155.52111863918253,149.6618263588407 155.41271442986908,149.50546252978347 155.2950843304061,149.3288769366245 155.19359953870298,149.14824487052374 155.0344529335489,148.90155664997565 154.88107250972826,148.66430009191117 154.7334582672629,148.4364757222993 154.61467493153032,148.34884988157773 154.38748738648428,148.4540008182321 154.27908317716356,148.5335374895485 154.01845178030635,148.6548636603111 153.86161164768419,148.71822242429425 153.6621017731013,148.8139340030839 153.42107539282006,148.8799880542574 153.15929075969325,149.02692339080022 153.00706357215677,149.1131965615241 152.89635289029684,149.16981301283795 152.6737782903292,149.25608521755112 152.46619576185913,149.3369648797816 152.25630676084984,149.41110411986665 152.0683292489557,149.4785030552821 151.73273749458895,149.86671399373608 151.60357503243722,149.93006674140906 150.77439815482649,149.91793538853653 150.65907452789543,149.87345366268892 150.43765316419012,149.9152395307774 150.16202969583537,149.95837318660233 149.89447888136783,149.99341917462243 149.64999279227777,150.01902964347846 149.41934553841566,150.0379004823817 149.173706213056,150.04868380637345 148.95113161308836,150.0513796359446 148.65936283696647,150.05811920739143 148.38027965979563,150.07159833960213 148.31223871991097,150.07025042702207 148.01009081736265,150.06620668842697 147.6848781894223,150.08372954642346 147.38503675940592,150.07968581209752 147.05751765893365,150.0729462520385 146.75421652011573,150.06351086198174 146.45091538129054,150.06216294854858 146.18105809427652,150.05811920739143 145.88582960934582,150.05542337923998 145.6090529047142,150.05946712125024 145.33227620008984,150.05946712125024 145.07049156696303,150.05677129338892 144.8029407524882,150.05946712125024 144.52501081159426,150.06081503496898 144.25515352458024,150.05407546495007 143.96223151218146,150.05677129338892 143.81692374224804,150.05407546495007 143.52054202104773,150.05677129338892 143.21724088222982,150.05811920739143 142.93585123251978,150.05946712125024 142.66368747297383,150.06485877527575 142.4284272740406,150.06755460143359 142.19662678390887,150.06081503496898 141.96713276632363,150.05811920739143 141.69150929796888,150.05946712125024 141.3882081591437,150.06081503496898 141.15410119648732,150.06216294854858 140.98342222862993,150.07025042702207 140.64783047427045,150.06216294854858 140.35952140695008,150.07564207649102 140.12772091682564,150.0742941643348 139.86132333862042,150.0742941643348 139.5430301282977,150.0729462520385 139.26164047859493,150.07564207649102 139.01023497188726,150.0729462520385 138.75306328384613,150.07025042702207 138.49704483206006,150.07564207649102 138.2514055067004,150.07698998850174 138.01153236268874,150.07833790036966 137.71976358656684,150.07833790036966 137.44990629955282,150.08642536859406 137.22041228196758,150.08642536859406 136.9228773244904,150.08372954642346 136.60227764162846,150.08103372368078 136.42006631108234,150.05407546495007 136.1502090240756,150.09451283169437 135.88381144587038,150.0918170112318 135.70275335159386,150.0931649215363 135.39483926769026,150.0918170112318 135.09845754648995,150.09451283169437 134.82975349574554,150.08642536859406 134.55297679112118,150.08912119019715 134.2934986305263,150.0999044709106 134.01326221709314,150.1012523803629 133.7514775839736,150.1012523803629 133.49545913218753,150.1026002896706 133.30402191149187,150.1160793749077 133.02724520686752,150.10933983406812 132.7585411561231,150.10664401673512 132.55903128153295,150.10933983406812 132.27072221421986,150.11068774251908 131.99855845466664,150.11338355899898 131.8025082888853,150.11742728264835 131.764451492003,150.03250881697386 131.7171688049566,149.90310816381225 131.457690644369,149.9017602334361 131.19475277497259,149.89097678531743 131.0332996972793,149.87480159605275 130.77958771803242,149.87614952927743 130.4797462880233,149.86671399373608 130.2098890010093,149.85188670950447 129.93772524145606,149.83705940804975 129.6586420642925,149.82358002814453 129.38532506847696,149.8181882721974 129.101628946235,149.82762384361013 128.81908606025536,149.83705940804975 128.55960789967503,149.84514702916113 128.29436355773214,149.8532346451475 128.03257892460533,149.8572784512171 127.78463312671374,149.86267019065326 127.54706645524129,149.87075779553743 127.40637163038627,149.8721057291841 127.18033732160984,149.88154126073823 126.89318149055907,149.89097678531743 126.66022776415775,149.89232471682953 126.65907452789543,150.0999044709106 126.64292922012828,150.40991989567556 126.63716303878027,150.683535950051 126.6002594781603,150.94771140329158 126.56912209888833,151.1067531725248 126.46648407092289,151.35878988464356 126.33847484503349,151.62834235934588 126.20931238287449,151.90328002111346 126.09283551967383,152.15799639538 125.9959636730564,152.4463992783867 125.97174571140204,152.72131932740194 126.01441545337002,153.05822308200095 126.07438373937475,153.3897277018541 126.12281966267619,153.66193237944117 126.17125558598491,153.93143624648565 125.90139829897089,153.98668383695258 125.62808130315534,154.02171877052024 125.36629667002853,154.05810109982758 125.11373792705854,154.09448332552074 125.03877756955626,154.11469562835555 124.81389649704215,154.14029783270416 124.57863629811618,154.17937478252588 124.33415020902612,154.22249403670958 124.16923742251674,154.22923140702733 124.0642929220121,154.2171041378988 124.23958483494789,154.22923140702733 124.50944212195463,154.19958695104742 124.77353322762065,154.15512013808802 124.98111575609073,154.12682299470998 125.22214213637199,154.0931358375301 125.41819230214605,154.06618604782489 125.69035606169928,154.02576125666656 125.93484215078206,153.99207383298562 125.97059247513243,153.93817377031155 125.91408389793651,153.70640090920097 125.85065590313025,153.4678860742497 125.81951852385828,153.3183067019836 125.77684878189757,153.15659730195875 125.7041948969345,152.86686283976815 125.63961366585136,152.58925063074912 125.58425832492503,152.3318475111637 125.53351592907711,152.1108270797822 125.4839267694988,151.89788914347082 125.37898226898687,151.6633837630734 125.25789246071508,151.4410039925906 125.12988323482568,151.18357772424315 125.17255297679367,150.9557983207269 125.2325212627984,150.7158842584604 125.29479602133506,150.51101025408298 125.3651434337662,150.24682576303258 125.42857142857247,150.03116090026379 125.49315265964833,149.80605681298312 125.4885397145772,149.64160700603497 125.23136802652152,149.57286096687767 124.99726106386515,149.51220238950918 124.71817788669432,149.43941171609458 124.46100619864592,149.38010049004606 124.20268127432792,149.31270103493443 123.95012253135792,149.24664922356806 123.76214501945651,149.20081715354354 123.49920715006738,149.1307207280588 123.23626928067097,149.05792787866903 122.99293642785051,148.9918747485799 122.78535389938042,148.94064963679284 122.48897217817284,148.86246354339346 122.23641343520285,148.8004535424643 121.95733025803202,148.72631075449863 121.70361827879242,148.67238845629254 121.47643073374638,148.61172559843362 121.23425111719553,148.50792403935066 121.04396713276947,148.34210940736284 120.86982845610328,148.16820394155457 120.6645524001724,147.9673334377967 120.48003459708707,147.7907265567228 120.29667003027134,147.62759894490682 120.04295805103175,147.51165573776416 119.76272163759859,147.4900847922654 119.53784056508448,147.54670844640805 119.38215366873192,147.63433979663205 119.14919994233787,147.82847479780594 118.91970592475263,148.01451806850946 118.70405074239534,148.13450105769607 118.45956465330528,148.21673593790456 118.21969150929363,148.25313481401918 117.98904425544606,148.2639196462569 117.85988179328706,148.2706601617774 117.58771803372656,148.2895335862877 117.33861899956537,148.30436268596623 117.09297967421298,148.32458415774363 116.84272740377492,148.34210940736284 116.5797895343785,148.36098272618437 116.33530344529572,148.37985601708715 116.11734179039922,148.38929265207116 115.85440392100281,148.41760251514825 115.59723223295441,148.43782380745506 115.36312527029077,148.46478548068808 115.1151794723919,148.47826629593328 114.8545480755347,148.505227883702 114.6042958051039,148.5928526505004 114.387487386477,148.73574713325615 114.20873576473969,148.92851734335636 114.11532362692378,149.0794961736292 114.03344385181117,149.30056909521136 114.0,149.54455366664934 114.01499207150482,149.8437990926659 114.0380567968823,150.12821053945027 114.05996828600473,150.42879015668495 114.07611359377188,150.69701442185124 114.10379126423504,150.9706243227174 114.1257027533502,151.25770623941207 114.14646100619575,151.56499803932275 114.15453366008296,151.88306421822108 114.15222718754376,152.1121747769348 114.13723511604621,152.43966096758322 114.11301715439186,152.74827195483158 114.0922589015463,153.03396630857605 114.07265388497035,153.30752613901404 114.05420210465672,153.58242765253362 114.03229061554157,153.86540832493938 114.01845178030635,154.15377265649295 114.08533948392869,154.4367406728461" stroke="red" stroke-dasharray="none" stroke-linecap="round" stroke-linejoin="round" stroke-width="0.5"><title>2024-04-21 79.4km</title><desc>1713660889000</desc></polyline><polyline fill="none" opacity="1" points="19.22246791874204,194.33057136430034 19.46394936008437,194.48499722254746 20.153306637133937,194.19303495480926 20.483537668042118,194.6128803456868 20.5991185288658,195.24263395532944 20.673420510822325,195.85306819279504 20.696123894194898,196.42488308949942 21.036674644827144,196.44177191936433 21.709520370321115,196.32837525063042 22.01498407391773,196.5768821086258 22.07690239220392,197.2596588732613 21.818909399305994,197.45266627181263 21.790014184101892,197.38993904620656 22.054199008831347,197.03769834830928 21.86431616606569,196.3718038285915 21.75492713706626,196.22221615674607 22.1635880378235,196.1015802237016 22.72291684643278,195.86995744560772 23.428785675016115,195.5876640079441 24.12433478388266,195.36086162351603 24.788924733591557,195.17990065829508 25.428747355996165,194.98928689050263 25.6475254139732,195.55871063750237 25.80644909759576,196.2005017358406 25.981884332773916,196.90259088555285 26.192406614980428,197.51780590065937 26.433888056344585,198.22226705408139 26.687753161349974,198.99907916256961 26.949874042140436,199.72279337994587 27.193419427443587,200.4344233361062 27.379174382331257,200.98441367486703 27.6908299177594,201.8793257960806 27.911671919682703,202.50164294354545 28.101554762455635,203.0998232964339 28.29762943706737,203.67145682529008 28.514343551098136,204.28648959147176 28.726929777250916,204.92562375394482 28.968411218607798,205.63709170762377 29.203700828140427,206.3147744891703 29.43899043766578,207.01172977680653 29.647448775926023,207.59291153960294 29.87654655361257,208.28500499089205 30.07055728427804,208.8878567809661 30.520497063909716,208.8010471026755 31.16857546207757,208.57919864989526 31.504998324824555,209.1338157465907 31.859996683051577,209.75834672433302 32.101478124415735,210.2188972536551 32.32438407027803,211.07245853098175 32.52871452066029,211.57879338999555 32.80941089693806,212.282821330733 33.13964192785352,213.1025525927962 33.370803649500886,213.64741653609417 33.63498847423034,214.32486201727443 33.83931892460532,214.82389265737947 34.04571331892657,215.40246528471653 34.245915881416295,216.09673313129497 34.454374219683814,216.7548217523181 34.69379171709443,217.4779742425526 34.91050583113247,218.27582598420668 35.08800501024962,218.94590354773572 35.141667552779836,219.57257704772383 35.17881854375446,220.20164358089278 35.21184164684382,220.65957386661103 35.32535856372124,221.49346549886832 35.44093942454492,222.24779795898758 35.556520285354054,222.95390775067244 35.64939776279789,223.62625827795637 35.71957185686915,224.20701829757127 35.77117045546038,224.79258299739195 35.81244933431299,225.42150619158747 35.89294314810104,226.26968178206153 35.93834991485346,226.86483170677457 35.992012457376404,227.44310023032267 36.03535528018983,228.00930735614384 36.08076204693498,228.55863537015284 36.084889934827515,229.09590398300497 36.105529374261096,229.71989073768054 36.14061642128945,230.56068000652522 36.13855247734318,231.54116035490188 36.1488721970527,232.14099129879833 36.136488533411466,232.77693950181128 36.204598683529184,233.44659316947764 36.22730206690176,234.2583413646098 36.19634290775866,234.8243802277757 36.15093614100624,235.3566848834398 36.7597996042532,235.42171673227676 37.50075547986489,235.4891569733918 38.229327691828075,235.54455416600103 38.82580749141198,235.5854998310897 39.595658582235046,235.64812247163718 40.34280628968554,235.713153494351 40.922774537721125,235.7589159554027 41.60387603897834,235.8191295808665 42.27672176447231,235.87693451263294 43.02799735980079,235.92992223882356 43.58113433658582,235.97327574194787 44.1693583603992,236.01662916315217 44.81537281462079,236.0720250821414 45.32310302466067,236.1129698058612 45.894815496933006,236.14909744258694 46.262197518823086,236.51759608781686 46.25600568698428,237.30033501116486 46.23123835967999,238.11676346987042 46.253941743052565,238.6610329731302 46.21472680813167,239.43406614432388 46.204407088407606,240.3226608959685 46.18789553686656,241.35810732001846 46.17344792927179,242.18402296205932 45.99388480620837,243.02917118693767 45.68635715867276,243.582955148755 45.37470162323734,244.07171859415575 45.471706988573715,244.04282646302272 45.74001970118843,243.60462468445257 46.24568596727477,243.93929602796015 46.77611956068722,244.3510073212292 47.351959920837544,244.8180860509783 47.88239351425,244.98180212038096 48.38393189245107,245.30682321188033 49.042330010342994,245.5210938604232 49.824564764821844,245.88703461587284 50.41691667652776,246.13741177381053 51.1723201597415,246.47445363854604 51.64289937879221,246.74889836141665 52.338448487651476,247.01852507175863 52.947311950905714,247.19666955500725 53.36835651531874,247.36036867307848 53.87815066929761,247.60832246877544 54.41271215058805,247.86108814689942 55.12477281099564,248.0849639967746 55.80174642437487,248.11385104431247 56.36313917693042,248.17643952273284 57.04836856608017,248.30883766530496 57.68612724453851,248.50382263163192 58.30943831538025,248.79268620708535 58.95958065749437,249.03581023539846 59.679897093679756,249.33910987254967 60.31559182819183,249.54612161206387 61.044164040147734,249.90718413692412 61.63032412001485,250.20565820791126 62.1318624982232,250.4704303489816 62.616889324875956,250.7111296485382 63.19066574109456,251.01200022826924 63.73348299815552,251.30805303438683 64.28868391887954,251.58484692429738 64.88516371847072,251.8832992102307 65.47545168623765,252.184154447561 66.11114642074244,252.49944651087026 66.70556227639463,252.80992072924892 67.24631558950932,253.0818830723947 67.91296948316449,253.42122980315253 68.50944928276294,253.7292849094756 69.0605223156017,254.0373358884808 69.56206069380278,254.27799784420495 70.12345344635833,254.56919544284392 70.65801492765604,254.8507631678258 71.12653020276048,255.08419704377775 71.61981280519103,255.3320675345949 72.20597288505815,255.6930391991409 72.57541885090177,255.97459316433378 73.03361440629669,256.44143573307156 73.42989164339815,256.826453401869 74.04907482634735,257.4569059175483 74.58570025159133,258.0055299236665 75.13058145259856,258.5541408460449 75.62592799896811,259.04980437707854 76.06142017099046,259.5141784819425 76.44118585655087,259.87989656834 76.58153404468612,260.01463334541586 76.97368339390232,260.41402701330844 77.11815946992283,260.6883053967831 77.41743134168792,260.89280908154797 77.79926097118005,261.2825640130268 78.33382245247049,261.78779206301806 78.86219210193667,262.3339070528418 79.35134681648196,262.8487348691506 79.8281178673642,263.3010040102654 80.08198297238414,263.68590691829195 80.22852299235092,263.8615167321004 80.36267934865464,264.0419363785222 80.55875402326637,264.24641026845893 80.67227094013651,264.4460712555665 80.72799742660573,264.68181332436507 80.70735798717942,264.8285495156633 80.5649458550979,265.0041506137004 80.45555682610575,265.3096452226273 80.35648751682311,265.63918998057306 80.16041284221865,266.0 80.33997596528206,265.764271427568 80.30901680613897,265.5068915568263 80.24709848783823,265.31686158170487 80.54224247172533,264.7467622457134 80.69703826745535,264.45328788532424 80.6330560052229,264.28489926817383 80.43285344271862,264.09245362613547 80.3750630123177,263.84227188636396 80.53811458382552,263.657039423435 80.19756383319327,263.5078901232864 79.73936827780562,263.05803073588686 79.4235848544995,262.70198605749465 78.94681380360998,262.24489359922154 78.46385092089622,261.7637338359491 77.99120775789925,261.2633170108584 77.55777952982316,260.8422848108148 77.09958397443552,260.37553153997214 76.69505096155626,259.96891917019275 76.29670978051581,259.5238027165851 75.86947338427126,259.1316118943432 75.50209136238118,258.7610696380798 75.03770397515473,258.282243208354 74.60014785918611,257.84912529038775 74.14814413562999,257.38953013748505 73.74773901065055,256.9876776362198 73.44433925099293,256.68207253134824 72.99027158348326,256.2320796705535 72.56303518723871,255.78929735279235 72.28027486702194,255.55587063405255 71.67966717953823,255.21896191388987 70.99856567828101,254.86279589976766 70.35874305589095,254.53069018683163 69.72304832137888,254.21301936439704 69.149271905153,253.91700396602027 68.5424723858523,253.62820478267713 67.8820103240214,253.28404768534529 67.3330012351289,253.00246077378688 66.75303298708604,252.71365010228874 66.07399542976782,252.36947931398936 65.49609112566395,252.06381282512302 64.88929160635598,251.74851478674282 64.28661997494783,251.43321242352795 63.70252383901243,251.12271961026454 63.1204916470233,250.84832712138996 62.55909889446775,250.55467539056554 61.923404159948404,250.23213555928487 61.37026718316338,249.9601394968995 60.75108400021418,249.6399984142463 60.2433537901743,249.37040246443757 59.71911202860065,249.1080247978134 59.16391110787663,248.81435082885037 58.633477514464175,248.5543740194753 58.094788145288476,248.28957980107043 57.73359795522265,248.19810472554127 57.54371511244972,248.41475563007043 56.94723531285854,248.28235809782382 56.464272430144774,248.15958879531718 55.78729881676554,248.09940752508555 55.0979415397378,248.05848417129346 54.52003723564121,247.88756819988703 54.1774225410627,247.7190582509902 53.67382021891535,247.47832760862912 53.106235634528275,247.22074302787405 52.538651050148474,247.05463555160713 51.99789773701923,246.89334163549393 51.66560276216478,246.744083569969 51.03816380343778,246.3805639017046 50.44581189172459,246.12296701196283 49.91537829831941,245.9014795260864 49.387008648853225,245.6462847749317 48.811168288695626,245.45368308537763 48.26009525585687,245.2683024338694 47.94018394466548,245.0540294270777 47.73172560639068,244.85660758406084 47.21367567664856,244.69289062224743 46.75548012125364,244.31248494011015 46.37158654781524,244.0235650220693 45.91751888030558,243.69130262272301 45.62650278431829,243.67685632239954 45.279760201854515,243.99948819816382 44.75964632816613,243.6744486047919 44.311770492487994,243.35181216240926 43.849447049200535,243.0243556156529 43.39537938169087,242.67281618421475 42.910352555038116,242.33571852386558 42.47073249513778,241.95768168904942 42.01872877156711,241.65187663801225 41.564661104064726,241.4062664822086 41.11678526838659,241.17991754148534 40.65858971299167,241.01376636681198 40.24786486829544,240.8741021303067 39.7710938174132,240.71758085555302 39.333537701444584,240.58995502627658 38.90010947337578,240.4791848634395 38.538919283302675,240.38286254822378 37.950695259489294,240.3732302944718 37.337703908349795,240.34433350897416 36.76599143609201,240.31784475696804 36.171575580432545,240.29135597439927 35.985820625544875,239.98071251585316 35.992012457376404,239.55447395206284 35.99820428920793,239.20288138280375 36.00439612103946,238.69956483809983 36.02503556045849,238.11917177043506 36.037419224128826,237.62064816392194 36.0663144393402,237.1124801046899 36.11172120608535,236.599483871938 36.15300008495251,236.12019533776038 36.19015107591986,235.6577567088516 36.231429954794294,235.17363128213583 36.27477277760045,234.65577436742205 36.297476160980295,234.17162779435967 36.27064488970791,233.65615702714604 36.24794150634261,233.15030996558198 36.26032517000567,232.7432154186863 36.23762178661127,232.2469838906418 36.233493898733286,231.7218339771789 36.233493898733286,231.10512881643444 36.22523812295549,230.46672514283455 36.21079051536071,230.00417250801365 36.20872657140717,229.6500243392511 36.183959244095604,228.9344837948338 36.167447692547285,228.46708161535753 36.12204092580214,228.01412608016835 36.07250627116446,227.3322665602118 36.031227392297296,226.8214609793249 35.973436961881816,226.25040541272938 35.92803019513667,225.60704728465316 35.89913497993257,225.13475791079873 35.82276905403705,224.50823657610454 35.77117045546038,223.88410790466696 35.70512424927438,223.3467170862168 35.643205930973636,222.88643062247502 35.59573522028222,222.49361339381176 35.484282247351075,221.92485994699382 35.40585237750929,221.4549047056571 35.32742250766023,220.89335579756334 35.27582390907628,220.37517613513592 35.24280080598692,219.8256518686685 35.20152192712703,219.28575553594237 35.100388673912676,218.68317763161394 34.97655203731847,218.16976874485044 34.83620384918322,217.64670653657595 34.675216221607116,217.1429164290148 34.51629253797728,216.65357858058633 34.37594434984203,216.2100317880031 34.21289277832693,215.65317554759167 34.05603303863609,215.1493415600471 33.83106314882025,214.58281641219583 33.643244249993586,214.1295861957242 33.48019267847849,213.66670351755238 33.29030983569828,213.2158660743753 33.081851497445314,212.7192113349538 32.863073439461004,212.17432528628888 32.66287087697128,211.67041469081414 32.48537169784686,211.20024886227475 32.05194346977805,211.29669392261712 31.517381988480338,211.49681612558197 31.00965177845501,211.66077036064416 30.772298224983388,211.24364918975516 30.652589476274443,210.65532663200247 30.539072559397027,210.13932635895435 30.409044090971292,209.57026583070547 30.237736743685673,209.06870921900918 30.091196723718895,208.66842056898167 29.921953320379544,208.16925562851247 29.750645973086648,207.64837624683787 29.575210737915768,207.1202503147906 29.37707211936504,206.55111464917718 29.201636884186883,206.03019840132401 28.993178545933915,205.4369182169794 28.82806303047255,204.97385956922335 28.631988355860813,204.3660808576151 28.454489176743664,203.86682196820766 28.285245773404313,203.35066846202426 28.101554762455635,202.83691531189834 27.944695022772066,202.36897985676296 27.791963170981035,201.9420406951649 27.56492933721165,201.26905259833984 27.40187776570383,200.79143611644577 27.21405886686989,200.2414411318805 27.04275151958427,199.74209211187008 26.902403331449023,199.3102790860321 26.7393517599412,198.83985895752994 26.514381870125362,198.21020454594873 26.347202410725004,197.69151066924314 26.144935904289014,197.1173148716971 25.963308837286604,196.4996763840827 25.841536144638667,195.97853091539218 25.70325190044241,195.440483993827 25.60005470327451,194.93861714017294 25.325550158828264,194.87347015307932 24.71049486375705,195.05925921798735 24.140846335423703,195.206441689621 23.67233106031199,195.36810003228857 23.090298868330137,195.58525122847277 22.512394564218994,195.78551105661973 22.09341394375224,195.99542007540185 22.029431681512506,195.97853091539218 21.891147437323525,196.06538931950854 21.356585956018534,196.20291445029216 20.78280953981448,196.2391051365139 20.729146997291537,195.6769366689914 20.673420510822325,195.30295427069723 20.574351201539685,194.70215681836453 20.42368329369492,194.1182341035328 20.085196487008943,194.17131860388145 19.499036407120002,194.41502313495948" stroke="red" stroke-dasharray="none" stroke-linecap="round" stroke-linejoin="round" stroke-width="0.5"><title>2024-04-05 108.1km</title><desc>1712276378000</desc></polyline></svg>