<?xml version="1.0" encoding="utf-8" ?>
<svg baseProfile="full" height="300mm" version="1.1" viewBox="0,0,200,300" width="200mm" xmlns="http://www.w3.org/2000/svg" xmlns:ev="http://www.w3.org/2001/xml-events" xmlns:xlink="http://www.w3.org/1999/xlink"><defs /><rect fill="#222222" height="300" width="200" x="0" y="0" /><text fill="#FFFFFF" style="font-size:12px; font-family:Arial; font-weight:bold;" x="10" y="20">Over 10km Runs</text><text fill="#FFFFFF" style="font-size:4px; font-family:Arial" x="10" y="280">Runner</text><text fill="#FFFFFF" style="font-size:9px; font-family:Arial" x="10" y="290">yihong0618</text><text fill="#FFFFFF" style="font-size:4px; font-family:Arial" x="65" y="280">SPECIAL TRACKS</text><rect fill="yellow" height="2.6" width="2.6" x="65" y="283" /><text fill="#FFFFFF" style="font-size:3px; font-family:Arial" x="70" y="285.5">Over 20.0 km</text><rect fill="red" height="2.6" width="2.6" x="65" y="287" /><text fill="#FFFFFF" style="font-size:3px; font-family:Arial" x="70" y="289.5">Over 40.0 km</text><text fill="#FFFFFF" style="font-size:4px; font-family:Arial" x="120" y="280">STATISTICS</text><text fill="#FFFFFF" style="font-size:3px; font-family:Arial" x="120" y="285">Number: 5</text><text fill="#FFFFFF" style="font-size:3px; font-family:Arial" x="120" y="290">Weekly: 1.2</text><text fill="#FFFFFF" style="font-size:3px; font-family:Arial" x="141" y="285">Total: 317.5 km</text><text fill="#FFFFFF" style="font-size:3px; font-family:Arial" x="141" y="290">Avg: 63.5 km</text><text fill="#FFFFFF" style="font-size:3px; font-family:Arial" x="167" y="285">Min: 18.7 km</text><text fill="#FFFFFF" style="font-size:3px; font-family:Arial" x="167" y="290">Max: 108.1 km</text><polyline fill="none" opacity="1" points="73.88474836724345,35.77069456099707 74.07837111019762,36.32042927959992 74.28582404914778,36.96717347810045 74.43795620434685,37.59774643898709 74.56242796772858,37.93728464898595 74.63157894735923,38.47084317069675 74.7422205148032,39.02056818600977 74.85286208224716,39.58645952072402 74.96350364963291,40.1846852270246 75.0603150211391,40.76674042562081 75.15712639258709,41.30028907889209 75.25393776409328,41.83383587145363 75.35074913559947,42.383548802361474 75.43373031116789,42.933259758065105 75.53054168261588,43.54764025351324 75.64118325005984,44.22668950962543 75.7518248175038,44.95423893946281 75.8901267767651,45.63328195249778 75.97310795233352,46.425494991999585 75.94544756051619,46.79734867757361 76.06991932383971,47.20153644113452 76.13907030347036,48.009908765074215 76.23588167491835,48.93144800470327 76.29120245866943,49.772145627532154 76.31886285054497,50.19249270678847 76.22205147903878,50.33799719593662 76.23588167491835,50.66134000974125 76.31886285054497,51.308023587524076 76.48482520162361,52.148708152613835 76.7199385323911,52.924720574723324 76.89973107952392,53.765396257527755 77.0933538225363,54.65456743455434 77.2731463695527,55.38206728179648 77.30080676142825,55.83473210783268 77.71571263927035,56.335895174823236 77.97848636191338,57.01488767948467 78.1997694967431,57.59687885704625 78.42105263157282,58.17886782127607 78.08912792929914,58.5830255219189 77.49442950444063,58.712355760711944 76.88590088358615,58.92251716562896 76.1667306952877,59.19734318270639 75.51671148673631,59.43983631735318 74.88052247406449,59.61766437187907 74.79754129849607,59.84399068784842 74.63157894735923,60.16731341576087 74.89435266994406,60.8624549676606 75.18478678446263,61.60609127175121 75.39223972341279,62.382055736583425 75.65501344599761,63.12568465688673 76.11140991159482,63.788481301264255 76.7199385323911,64.17645849291875 77.02420284290565,64.87158183495922 77.38378793693846,65.61519865914306 77.70188244333258,66.32648093633179 78.03380714560626,67.00542911737284 78.33807145594619,67.70053961107624 78.66999615827808,68.37948169690208 78.98809066455578,69.10691630395013 79.32001536688767,69.7696870471409 79.62427967734402,70.46478498725628 79.94237418362172,71.143714811682 80.28812908183318,71.82264162469073 80.60622358811088,72.50156542635523 80.93814829038456,73.22898044371686 81.22858240490314,73.92406267506885 81.56050710717682,74.6029771562753 81.90626200533006,75.15257238809136 82.27967729535885,75.6213432324439 82.54245101806009,76.21942808758467 82.68075297732139,76.55888061450969 82.25201690354152,76.88216803560499 81.69880906643812,77.14079748095537 81.03495966194896,77.43175508458808 80.2742988858954,77.8035334401211 79.55512869759696,78.17531089269323 78.7114867460914,78.54708744243544 77.9231655781623,78.98351963135065 77.32846715324558,79.30680193207809 76.89973107952392,79.51693506147421 76.12524010753259,79.85638027651294 75.41990011523012,80.21198874221591 74.83903188625118,80.48677653633058 74.06454091431806,80.85854747267149 73.24855935451342,81.2626452925906 72.55704955820693,81.56975892235641 71.86553976172581,81.90919958581799 71.5474452553899,82.03851011680672 71.00806761428248,82.28096706802899 70.42719938530354,82.58807865499693 69.87399154820014,82.92751706071431 69.23780253552832,83.34777309175115 68.53246254322585,83.84884608257562 67.77180176717229,84.39840812240436 67.09412216668716,84.89947767475678 66.4302727621398,85.27123789580946 65.82174414134352,85.67532406881219 65.21321552054724,86.04708240601758 64.99193238565931,86.12789931643056 64.92278140602866,86.12789931643056 64.42489435261814,86.435003186838 63.76104494812898,86.72594312744332 63.05570495582651,87.00071923040377 62.39185555133736,87.21084179988247 61.631194775225595,87.48561703262385 60.856703803292476,87.79271817975678 60.26200537843397,87.95435011506197 59.47368421050487,88.24528716862551 58.630042258882895,88.5523867920565 57.81406069919467,88.82715961727081 57.0119093353278,89.11809501238167 56.265078755270224,89.37670378839539 55.43526699958602,89.65147513432021 54.619285439897794,89.9585719374154 53.913945447595324,90.15252749575302 53.31924702267861,90.33031987503637 52.83519016514765,90.50811204787169 52.4479446792393,90.65357821751968 51.7979254705715,90.86369577421283 51.134076066024136,91.1384644517093 50.38724548596656,91.44555827254953 49.585094122216105,91.68800032761646 48.7967729542288,91.97893028699036 47.95313100266503,92.26985969362431 47.16480983479414,92.59311394156248 46.39031886286102,92.8840421812638 45.615827890869696,93.1426445969555 44.84133691893658,93.41740918511641 44.039185555127915,93.70833585871151 43.181713407626376,93.95077433112601 42.65616596234031,94.1447248327604 42.33807145594619,94.20937494536338 41.63273146370193,94.46797512283956 40.85824049176881,94.79122473053576 40.08374951983569,95.08214879409934 39.30925854778616,95.35690990212606 38.71456012292765,95.51853385308641 37.9124087591772,95.76096945955942 37.02727621974191,96.10037866393395 36.25278524780879,96.48827397626883 35.69957741070539,96.90849278923997 35.22935074917041,97.37719702796312 34.96657702646917,97.68427833754686 34.62082212831592,98.0560075200483 34.02612370339921,98.50854617646837 33.21014214371098,98.86411132554349 32.44948136765743,99.02573157497682 31.744141375354957,99.15502765165002 31.273914713819977,99.20351365224633 30.6653860930237,99.31664759399428 29.835574337281287,99.49442933360115 28.85363042645622,99.67221086686186 27.996158278896473,99.83383026340744 27.11102573951939,99.97928757448972 26.253553591959644,100.10858284613641 25.42374183627544,100.23787800861464 24.524779101077,100.399496808197 23.63964656164171,100.54495358205168 22.9066461774637,100.6904102176486 22.13215520553058,100.80354306101799 21.26085286209127,100.9489994510659 20.417210910469294,101.0782939040364 19.60122935072286,101.17526467209973 18.74375720327953,101.30455893398903 17.94160583941266,101.49850012225215 17.08413369191112,101.62779411127849 16.309642719978,101.77324971846247 15.49366116017336,101.91870518751966 14.691509796422906,102.01567542349221 14.248943526705261,102.09648390654183 14.013830195937771,102.14496897593199 14.497887053410523,102.24193906859728 14.73300038423622,102.79143510074937 15.03726469463436,103.35709072157624 15.189396849775221,103.59951391954382 15.50749135616934,104.1328436042968 15.64579331537243,104.55304144184629 15.659623511310201,104.82778555847472 15.867076450260356,105.28030420553114 15.867076450260356,105.26414284831844 15.659623511310201,104.77930133837799 15.57664233574178,104.45607281241973 15.369189396791626,104.1005206459522 15.27237802540185,103.85809824104945 15.134076066082343,103.56719084864017 14.88513253943529,103.16315188691078 14.650019208609592,102.7106269843789 14.691509796422906,102.4682023794594 15.35535920097027,102.33890909988258 16.06069919327274,102.22577739076223 16.76603918557521,102.11264559804113 17.526699961628765,101.98335201831651 18.28736073768232,101.8378966106684 19.075681905495003,101.7086027990299 19.85017287748633,101.59547062423371 20.610833653481677,101.51466187684855 21.385324625473004,101.35304425410868 22.14598540152656,101.20758824776567 22.823665001953486,101.09445570292883 23.52900499419775,100.98132307453488 24.317326162126847,100.85202853969531 25.14713791781105,100.70657205754833 25.93545908568194,100.57727729075123 26.709950057673268,100.44798241484386 27.470610833610408,100.33484930884151 28.175950825971086,100.2055542282178 28.89512101415312,100.09242094315414 29.614291202451568,99.99544948944822 30.291970802936703,99.89847797430411 30.734537072654348,99.8661541222391 31.121782558620907,99.83383026340744 31.550518632342573,99.70453475980321 32.14521705725929,99.60756306044641 32.753745678055566,99.51059129970963 33.51440645410912,99.3004856074549 34.23357664234936,98.96108349562564 34.814444871328305,98.58935651015781 35.22935074917041,98.20146651974937 35.60276603914099,97.71660265010723 36.03150211297907,97.26406165336084 36.50172877451405,96.86000606200832 37.165578179003205,96.55292309948709 37.94006915099453,96.31048874676344 38.673069535172544,96.05189168077777 39.44756050716387,95.7448070977116 40.2635420668521,95.47004668567388 41.0933538225363,95.1629609358788 41.93699577410007,94.88819947979937 42.794467921659816,94.58111256315897 43.54129850171739,94.33867508867115 44.32961966964649,94.06391215357871 45.1041106415214,93.78914872549649 45.850941221637186,93.53054740163498 46.542451018001884,93.25578301647329 47.22013061848702,93.02950609382242 47.93930080672726,92.80322883679764 48.67230119090527,92.54462584783323 49.391471379145514,92.28602242219495 50.15213215519907,92.02741855979548 50.80215136386687,91.81730260004406 51.07875528233126,91.76881426064938 51.64579331537243,91.57486074966437 51.936227429891005,91.42939545524132 52.240491740289144,91.34858134303067 52.793699577392545,91.1546272997657 53.4575489818817,90.94451014233346 54.19054936605971,90.65357821751968 54.923549750237726,90.37880866986234 55.68421052634949,90.10403862917155 56.431041106407065,89.81310510748881 57.16404149052687,89.5544970685296 57.924702266580425,89.27972554857843 58.51940069149714,89.0857688846736 59.07260852860054,88.87564888817724 59.3215520553058,88.7948334281391 59.94391087209806,88.58471303238184 60.607760276587214,88.34226606361335 61.24394928931724,88.11598187971686 61.82481751823798,87.92202374165936 62.36419515940361,87.7119021481194 62.97272378025809,87.51794349812553 63.65040338068502,87.27549484018527 64.36957356886705,86.9845559438545 64.83980023046024,86.74210644124832 65.35151747986674,86.51581989244733 65.94621590466704,86.1763894421747 66.58240491739707,85.72381433787814 67.17710334225558,85.33589175513771 67.77180176717229,84.93180468630453 68.28351901646238,84.5115530033654 68.739915482176,84.15595452448179 69.27929312328342,83.78419159528858 69.77718017663574,83.44475508890173 70.28889742604224,83.13764522042766 70.93891663465183,82.7658798185148 71.61659623507876,82.44260482213576 72.41874759888742,82.08700153775862 73.19323857087875,81.69906974001788 74.03688052244252,81.34346472859033 74.78371110250009,80.9555310466967 75.40606991923414,80.6645801402774 76.08374951971928,80.34130070677202 76.83058009983506,79.98569254144968 77.56358048407128,79.69473979178292 78.31041106412886,79.33913012457197 79.05724164424464,79.03201201996126 79.69343065691646,78.72489329919335 80.39877064921893,78.40160976960033 81.1041106415214,78.0783255573042 81.74029965425143,77.77120492330869 82.41797925473657,77.39942648925353 83.26162120630033,77.0276471524121 84.02228198229568,76.70436003855139 84.64464079902973,76.41340105231211 84.94890510948608,76.25175693210622 85.57126392622013,75.92846817965619 86.0,75.58901425474323 85.39147137920372,75.44353377082734 84.78294275834924,75.73449460047414 84.18824433343252,76.00929043175711 83.5520553207607,76.34874342469266 82.91586630808888,76.63970253382286 82.50096043030499,76.13860594636935 82.21052631578641,75.42736926404177 81.74029965425143,74.66763552128396 81.42220514791552,73.8917333389254 81.07645024970407,73.11582722362073 80.66154437180376,72.33991717531171 80.31578947365051,71.67715756116377 79.98386477131862,71.04672502118046 79.69343065691646,70.3192996330763 79.34767575870501,69.57570566321374 79.01575105643133,68.78361246096028 78.66999615827808,68.0561763173464 78.32424126012484,67.37723279738566 78.00614675373072,66.74678254641185 77.70188244333258,66.05166772106895 77.52208989625797,65.5505364700366 77.35612754512113,65.21105952897051 77.19016519392608,64.96857553863083 76.89973107952392,64.46744074120943 76.63695735682268,63.83697850396857 76.00076834420906,63.626823847793275 75.64118325005984,62.86703152921109 75.39223972341279,62.09106952333241 75.18478678446263,61.34743557583715 74.88052247406449,60.66846229408111 74.70072992698988,60.10264892480336 75.1986169804004,59.64999672322301 76.0284287360846,59.40750392158225 76.77525931614218,59.18117696007539 77.5497502880753,58.90635091395234 78.28275067225331,58.66385693398479 78.79446792165982,58.34053102960752 78.49020361120347,57.467547675565584 78.3795620437595,57.06338702881476 78.08912792929914,56.2873955949035 77.77103342296323,55.47906700013846 77.48059930850286,54.670734135390376 77.24548597773537,53.797729845391586 77.10718401841586,53.03788872410951 77.01037264696788,52.245709920607624 76.94122166727902,51.42119293262658 76.96888205915457,51.11401880111953 76.94122166727902,50.75834272065549 76.60929696500534,50.12782400054857 76.48482520162361,49.36796465466614 76.42950441798894,48.38175859990588 76.37418363423785,47.508718427372514 76.37418363423785,47.088363974995445 76.33269304648275,46.44166256231256 76.23588167491835,45.77879077749094 76.18056089128368,45.11591612068878 76.05608912790194,44.43687081136159 75.94544756051619,43.80632603977574 75.82097579713445,43.15961075395171 75.7103342297487,42.48055676158401 75.55820207454963,41.57514674986305 75.3784095274168,40.55655408157327 75.25393776409328,39.651132682847674 75.10180560889421,38.745705925291986 74.97733384557068,37.87261076235154 74.7422205148032,36.983342048028135 74.41029581252951,35.98088748080772 74.10603150213137,35.18862035262282 73.9538993468741,34.81673844883335 73.91240875906078,34.687388009464485 73.55282366502797,34.80056964987307 73.15174798312364,35.25329537407379 72.43257779482519,35.54433263205283 71.71340760664316,35.88387539985706 70.98040722246515,36.191080111806514 70.2612370341667,36.49828420682752 69.41759508254472,36.8539934407745 68.6431041106116,37.177364753893926 67.99308490206022,37.452229832604644 67.57817902415991,36.983342048028135 67.24625432188623,36.46594696266402 66.83134844410233,36.62763311486924 66.1951594313723,36.918667758087395" stroke="#4dd2ff" stroke-dasharray="none" stroke-linecap="round" stroke-linejoin="round" stroke-width="0.5"><title>2024-05-25 18.7km</title><desc>1716643451000</desc></polyline><polyline fill="none" opacity="1" points="180.32898943827604,105.15314146965648 180.4594099928363,104.92634217518753 180.54221669414983,104.86361006218249 180.53600619154167,104.86119728520316 180.5836200447884,104.89738891343768 180.65814607597713,104.84913339651393 180.57119903959392,104.86119728520316 180.616742725324,104.8539589527445 180.6333040655809,104.69954065321144 180.8071981383182,104.81294169264947 180.68298808635882,105.03974210085471 180.62709356298,105.16037970833713 180.6229532279176,105.24000018403967 180.6229532279176,105.37752581367931 180.7326721071513,105.44990739506648 180.74716327988426,105.49574894593934 180.69540909156058,105.56571745341171 180.65607590843865,105.65498731034495 180.55877803439944,105.72736802210966 180.54014652661135,105.88901745934709 180.55463769932976,105.97587340609789 180.5153045162151,105.79009778881664 180.6333040655809,105.60914607556151 180.55049736426736,105.5922571766514 180.5153045162151,105.4860981006841 180.58983054739656,105.33168402813317 180.6291637305112,105.16037970833713 180.49253267335735,105.28825488419898 180.28758608760108,105.24723839548824 179.9770609577099,105.14349048122313 179.75141269663436,105.06386967277285 179.81144755508285,104.7502092715713 179.9998328005604,104.47273690360635 180.22548106162867,104.17837126836093 180.43870831750246,103.95638814339327 180.5774095421948,103.81644116342795 180.49667300842702,103.74646735535862 180.2172003914893,103.52689299462327 179.9439382771816,103.22768940538117 179.722430351183,102.96226362093148 179.5609572836329,102.8802223065486 179.36222120048478,102.68476976529018 179.04962590304058,102.35659881383617 178.76808311858622,102.02359705032904 178.48861050167034,101.71713466096844 178.20499754968478,101.40584192687675 177.9275951003001,101.13315569489714 177.7495606924931,100.9859520537666 177.5011405885598,100.75911181793163 177.26928182489064,100.51778997067231 177.11608942747262,100.35368967325121 177.02500205601973,100.26439931538334 176.751739941712,99.97963316369533 176.62960005726927,99.8203556482622 176.45363581700076,99.68279690937743 176.20107537800504,99.43422377535353 175.98577795459278,99.20978165510678 175.72286667794106,98.92982928428682 175.47237640648382,98.66435407107383 175.19704412462306,98.39163544436997 174.95483452330518,98.14063492173591 174.70848458690307,97.88480465620341 174.4683451531091,97.66276099422794 174.20543387645012,97.39968475940805 174.01497846344137,97.21142652979142 173.8369440556271,97.04247552861307 173.53883993090858,96.73111972817787 173.15999927242228,96.3376951490518 172.84326363991568,96.011847626296 172.60726454118412,95.77530357815886 172.44786164115794,95.7077191188655 172.0835121554046,95.5049645528652 171.73986434497056,95.32151840978622 171.33618167608802,95.11151906021587 170.98011286045949,94.91117307100103 170.63646505002544,94.74220522130236 170.26797522920242,94.56116686581663 169.87257323045196,94.3632299709152 169.52064474988583,94.18218864055234 169.19148811217747,94.00838762634521 168.81678778875357,93.84182709197194 168.46692947572592,93.6680235126496 168.1108606600901,93.47249292014749 167.75686201199278,93.29868655719838 167.51465241066762,93.16833092529123 167.2662323067343,93.05487264585463 166.9432861716341,92.88347716509816 166.56444551314053,92.69518206975954 166.18560485465423,92.49722915774692 165.8233255364321,92.30168863713334 165.4610462181954,92.10856056926787 165.0822055597091,91.92025914555961 164.73027707914298,91.7464410817538 164.37627843104565,91.57262170751892 164.02020961540984,91.36741659282598 163.62066728159698,91.17186648981078 163.27701947116293,91.00287123749695 162.99547668671585,90.85560293604067 162.6331973684937,90.66729127832514 162.2771285528579,90.48380664501929 162.09081347491156,90.38723519877385 161.98523493074026,90.35102080213437 161.62295561251813,90.16270502244879 161.21513260857319,89.95748735695634 160.82594111240905,89.75951093642834 160.44710045393003,89.55428968124397 160.06825979543646,89.36596739233391 159.6707876291548,89.15832821334334 159.28987680313003,88.96275936901475 158.93794832257117,88.78891900313829 158.57152866927936,88.60541941662086 158.21545985364355,88.42191836906568 157.94840824191488,88.33258180395205 157.8097070172298,88.48952418815315 157.74139148864924,88.6706102265216 157.668935624999,88.81789248850691 157.58819909122394,88.96517380930527 157.52609406524425,89.08106664598381 157.48055037952872,89.19213006762766 157.45570836913248,89.26214803665971 157.5033222223792,89.11003976408938 157.5157432275737,89.09313878294961 157.53230456784513,89.10762533897287 157.6503041172109,88.83479367148539 157.73725115357956,88.63922208180884 157.58612892368546,88.55471532588672 157.34805965742999,88.50159663497652 156.9795698365997,88.42674736272602 156.70009721967654,88.33741081632616 156.52206281186955,88.31326574434388 156.08111712740356,88.2698045510133 155.61739960005798,88.25773198277057 155.1723135805296,88.22392875803598 154.76449057658465,88.08630083116077 154.4891582947239,87.95350117517592 154.2055453427456,87.81828619372027 153.8391256894538,87.64202261597347 153.4188816803071,87.44644090379188 152.9882868334971,87.30639371963116 152.5639024892953,87.17841882433822 152.17057065806875,87.06493105843401 151.93043122426752,86.96351598619913 151.68408128787996,86.82105120223969 151.31352129952575,86.6085597182755 150.93468064103217,86.40813981829524 150.54962947993772,86.2680863232763 150.15629764871846,86.11837302512322 149.83749184868793,85.9589997354833 149.4959142057778,85.79238102664567 149.1212138823539,85.65473857569123 148.74444339139882,85.54607290196327 148.39872541343357,85.42533266334976 148.15858597963233,85.3335696587983 148.04886710040591,85.12589414093236 147.95984989649878,84.96409912610397 147.93914822116494,84.59462266764967 148.0136742523464,84.21065065692346 148.15444564456993,83.82425726673318 148.20205949782394,83.43302735519501 148.25588385367882,83.10699735248818 147.98055157182534,82.93311279727095 147.62862309125921,82.73024582356629 147.51062354189344,82.4718293524711 147.45472901851463,82.23997659278393 147.08623919768434,82.03710351323207 146.7467317223127,81.85355013933258 146.4196452521428,81.66033448092276 146.40515407940984,81.38258413165204 146.4175750846116,80.9381766041879 146.4155049170804,80.5734661928127 146.421715419674,80.30053343020882 146.42585575474368,80.05175119076557 146.42585575474368,79.86818198952278 146.4196452521428,79.62181049792162 146.42585575474368,79.17495351577236 146.44448726253904,78.63629816428147 146.45276793267112,78.22082443973522 146.46104860279593,77.75944657410946 146.4672591053968,77.32704740426561 146.4672591053968,76.90430293227291 146.4838204456537,76.49604518588058 146.47139944046648,76.35351562800861 146.35339989109343,76.25446914419626 145.9497172222109,76.22306407251381 145.53361354813387,76.18924317815436 145.17547456497414,76.16508536604306 144.7158973727128,76.12884860031409 144.32463570901746,76.09744335719552 143.90439169987803,76.06603807122337 143.48621785826253,76.02980114952334 143.1694822257632,76.00564317003591 142.8713781010374,75.98390096680669 142.50702861528407,75.9621587430247 142.1136967840721,75.92350585004169 141.73278595804732,75.88968451542132 141.3787873099427,75.86311057477542 140.98338531119225,75.83653660344135 140.62317616050132,75.80271514098968 140.56935180464643,75.42342819329679 140.58591314491787,75.06829398255286 140.59626398257387,74.66966742086697 140.59833415010507,74.34834522579695 140.60868498777563,73.93762611160491 140.61696565789316,73.55830841683564 140.62317616050132,73.23455460920923 140.62110599296284,73.15723959312527 140.61903582543164,72.8793866091255 140.62938666309492,72.81898334242032 140.62110599296284,72.51938079511274 140.61696565789316,72.3502486016132 140.66250934361597,72.19077996582018 140.6418076682894,71.92016399325439 140.6355971656958,71.6229659978253 140.64801817089028,71.17836995705875 140.6355971656958,70.76517788769343 140.6335269981646,70.42205368509167 140.66043917609204,70.07892436276052 140.62524632803252,69.72854054591335 140.6335269981646,69.35156992577868 140.62524632803252,69.08817011954488 140.60454465271323,68.82235074221717 140.60661482023716,68.61935933004679 140.61075515529956,68.94076157169184 140.5776324747785,69.11233536509826 140.4617030929512,69.3056564152248 140.11391494744748,69.37815138997757 139.7288637863603,69.34915342750719 139.61086423699453,69.1848309493671 139.38521597592626,69.0664213768323 139.0850416836838,69.05433873310358 139.1471467096635,69.05675526236337 139.50321552529203,69.10266926992517 139.87584568118473,69.17516488467663 140.23812499942142,69.23074470118627 140.55486063192075,69.25007677978647 140.5672816371225,69.5883855242555 140.56314130205283,69.89044269722217 140.316791365658,69.98226729136331 140.06216075913107,69.9653522621029 139.69988144090166,69.96051939431527 139.27963743175496,69.94360434905502 138.90907744340075,69.92910572892652 138.5012544394558,69.91702353849723 138.08308059783303,69.90010846124096 137.68560843155137,69.8880262555831 137.27778542760643,69.87836048648387 136.84719058079645,69.87111115699554 136.42901673918823,69.84694670886165 136.30894702228397,69.61255024410639 136.2985961846207,69.19208049522967 136.2882453469574,68.80543485965245 136.284105011895,68.68219019675234 136.26133316903724,68.38011715056382 136.2385613261722,68.08770666140481 136.21164914825204,67.71554247798304 136.1785264677237,67.36270593527661 136.14747395474114,67.07753271744514 136.1391932846018,66.84552477778743 136.09986010148714,66.4733404832732 136.06259708588914,66.10840068060497 136.04189541056985,65.74828883789269 136.01291306510393,65.4123404881775 135.98600088718376,65.20448509333619 135.94666770406184,64.84677605895922 135.91768535861047,64.42380211105592 135.88870301315183,64.06608092451279 135.84936983001535,63.66242938501637 135.79554547417501,63.273273582588445 135.73965095078893,62.917951658775564 135.72308961053204,62.62305446079881 135.62993207155523,62.23871554609832 135.56989721309947,61.89788131806199 135.51400268972066,61.53770348251237 135.46638883646665,61.23311916093007 135.42498548580625,60.93336556811664 135.39807330789336,60.60943390084503 135.37944180009072,60.30967216889803 135.35459978969448,59.95188691593103 135.32975777929823,59.608601231293505 135.30905610397895,59.277398207421356 135.24074057539838,58.90750889254741 135.15586370656092,58.542448890622836 135.0771973403098,58.2184834988966 134.99232047147234,57.89693123976758 134.89916293249553,57.572956740597874 134.78737388573063,57.23205326477 134.68179534155934,56.92257622271427 134.59484830519068,56.65419822299009 134.49755043115147,56.330206187731164 134.40853322724433,56.015881186811384 134.31330552073632,55.633849622363414 134.21807781423558,55.38238233804077 134.10007826486253,55.0583723526197 133.959306872639,54.695669182365236 133.9034123492529,54.492552903555406 133.74607961677248,54.20238367290585 133.63636073753878,53.88077515609257 133.56390487388126,53.643797575734425 133.3817301309973,53.276235671322866 133.24095873877377,52.925595473281646 133.1022575140887,52.570113389665494 132.9635562893891,52.229135604524345 132.85797774522507,51.95828439129036 132.74618869846745,51.675338191593255 132.634399651688,51.377878168186726 132.55159295038175,51.16747728650262 132.3466463646473,51.28114237025147 131.99264771654998,51.41173560111383 131.6262280632509,51.53990971604071 131.30949243075156,51.66566475556283 130.98033579303592,51.72612366384601 130.88303791900398,51.34643907859754 130.80023121769773,50.95223760642875 130.7215648514466,50.61123577732906 130.64289848521003,50.219440184591804 130.56423211896617,49.834893559174816 130.45037290465552,49.46968922367341 130.3365136903667,49.123828101750405 130.28475950203574,48.9279184394145 130.1377776072186,48.56995572215965 130.00942722018954,48.19505634653433 129.8831470006844,47.80563824844285 129.75065627860022,47.41621353805749 129.66991974482517,47.17916917237926 129.53328868765675,46.78247720164654 129.4007979655653,46.39787294650523 129.2786580811371,46.020519105943094 129.15444802917773,45.66009201099405 129.04265898239828,45.33836371083089 128.91844893044617,45.00695465118588 128.79009854340984,44.61990150966449 128.67416916157526,44.278805511925384 128.57894145507453,43.99092621714226 128.46094190570147,43.64982086056261 128.3388020212733,43.28451800606672 128.27255666022393,43.090977710669904 128.13799577060126,42.723246647155975 128.03448739396117,42.40147712684302 127.92269834719627,42.09663867743075 127.78192695496546,41.69018110426805 127.64322573028039,41.2885552310745 127.52522618091461,40.93531219946999 127.41343713414972,40.60867852351839 127.28715691465186,40.24090762707965 127.1691573652788,39.89490724999996 127.04908764838183,39.54648200996962 126.96835111461405,39.282739936885264 126.89175491589413,39.038352370133 126.7406326860073,38.64393921428382 126.6309138067736,38.32453217335569 126.51498442493903,37.98818206627766 126.39905504311173,37.649407182145296 126.27898532620748,37.29610803736432 126.15477527424082,36.933123788565354 126.0574774002016,36.587073448603405 125.98709170409711,36.28457760996389 125.89807450018998,35.93367743176168 125.81319763134525,35.59003204644614 125.71796992483723,35.23428103921833 125.68691741184011,34.92934720570338 125.6227422183365,34.798660034013665 125.38260278453527,34.88820502838644 125.0907091624249,34.97532955169481 124.71186850393133,35.08181463002256 124.32060684025055,35.205239896678904 123.9810993648789,35.3141439912888 123.61882004664949,35.425467641602154 123.26689156608336,35.5706715896049 122.90047191279882,35.723134744141134 122.54440309716301,35.815096156129584 122.24215863738209,35.94819754576929 122.05584355944302,36.015957956080456 121.90058099448652,36.08855817322183 121.6004067022368,36.17809812408086 121.24640805413947,36.25795778489919 120.92346191903198,36.332977212627156 120.83030438006244,36.006277909738856 120.79097119694052,35.66505366209458 120.74749767875619,35.39158658792803 120.70609432811034,35.13263687921244 120.6398489670537,34.74057660718063 120.58188427614368,34.42837566373055 120.47216539689543,34.08470768785082 120.36037635013054,34.07260660876818 120.05606172281841,34.21781913559971 119.72276475004765,34.35092980952686 119.48262531626096,34.3291481158376 119.32322241623478,34.32188754667186" stroke="red" stroke-dasharray="none" stroke-linecap="round" stroke-linejoin="round" stroke-width="0.5"><title>2024-05-01 58.8km</title><desc>1714551575000</desc></polyline><polyline fill="none" opacity="1" points="19.17266409941658,114.23516144332461 19.438769224951102,114.12737941133855 19.71116029832774,114.00734883122277 19.82221204362577,114.20086721478947 19.882976206150488,114.45807269186844 19.922787209186936,114.7226239190095 19.97097947601287,115.00676816991654 20.017076426891435,115.29090893747161 20.065268693724647,115.6142372980994 20.08831716916029,115.80284342571758 20.113460960550583,116.15310787710769 20.11555627649068,116.2755767162289 20.136509435986227,116.38334875945657 20.39842392961873,116.31966533992636 20.750437009060988,116.24618425384324 21.056353137624683,116.17025355353508 21.372745845932513,116.091873214913 21.46913037959166,116.04288536869171 21.733140189171536,115.94001055464832 22.032770369893115,115.8395847005504 22.351258394148317,115.6681249197336 22.669746418410796,115.48931551159694 22.954709387478943,115.33010049412405 23.26062551603536,115.33499943403876 23.577018224350468,115.24681835702904 23.828456138238835,115.18313181498706 24.1553254262908,115.09250066499771 24.450764975117636,115.01166717817796 24.739918576080527,114.92348487104391 24.9850705421195,114.87449455544083 25.0605019162831,115.16108643274129 25.146409870190837,115.52115838385726 25.22812719221838,115.85428119418066 25.309844514224096,116.18005107723002 25.378989940538304,116.47642421175442 25.41461031167273,116.63318202357004 25.49213700179098,116.8658674460421 25.605284063043655,117.18427529225846 25.69119201695139,117.44634616171606 25.787576550610538,117.72555859504973 25.87557982047292,117.99252172459637 25.978250301974185,118.2692784212013 26.089302047272213,118.60481087097833 26.18359126498399,118.92809301830312 26.235974163711944,119.06524165857809 26.326072749514424,119.28075931160492 26.411980703429435,119.52076524974473 26.50417460519384,119.80485070108807 26.583796611252183,120.05464710195884 26.640370141874882,120.2309723532635 26.73675467553403,120.4489281028782 26.80380478590814,120.64484163540874 26.83942515704257,120.78198012353278 26.93161905879242,121.05625466722086 27.032194224346313,121.37705381293017 27.139055337756872,121.70274611670538 27.24801176710025,122.02353632158702 27.30877592962497,122.18025664068227 27.419827674930275,122.49124538881733 27.520402840484167,122.81202469018353 27.58954826680565,123.02995618904242 27.677551536668034,123.20625882497916 27.746696962989517,123.40704630636355 27.834700232844625,123.6935327530573 27.920608186759637,123.96287575871793 28.006516140660096,124.2322156377686 28.075661566988856,124.45013379724696 28.115472570018028,124.56276485270246 28.22442899937596,124.86147935208646 28.333385428726615,125.16753530170172 28.44862780591211,125.52990032721027 28.570156130968826,125.89715640405484 28.677017244364833,126.2252335845169 28.788068989670137,126.54596127040531 28.91169263066695,126.89851178103345 29.016458428115584,127.22657480727503 29.142177385059767,127.58401133387633 29.263705710109207,127.92430537833025 29.38942466705339,128.26949064333348 29.49838109639677,128.6146707756434 29.60105157790531,128.87906059735724 29.634576633092365,128.9647418380191 29.72467521890212,128.91578116778692 29.756104958127253,128.986774105937 30.003352240120876,128.91578116778692 30.344888739826274,128.79093099134298 30.686425239524397,128.67832045235264 30.856145831399772,128.81296342421047 30.988150736178795,129.0895910797608 31.15368069615215,129.3784553790556 31.308734076388646,129.65507629691274 31.465882772565237,129.9439335607949 31.610459573057597,129.9879962173527 31.660747155830904,130.25726619057423 31.73617853000178,130.62199962937666 31.83675369555567,130.98917515692665 31.928947597320075,131.2902547573467 31.979235180086107,131.415091495639 32.09447755729343,131.65741971901116 32.20133867068944,131.91443173828702 32.30400915219798,132.1885747572287 32.444395320773765,132.53859194418328 32.56801896177785,132.85923243015532 32.6832613389779,133.1456022519269 32.82783813945571,133.48091969256166 32.93050862096425,133.72567389240976 32.81945687565894,133.77707194674258 32.74612081744999,133.816232292751 32.77964587262977,133.78686203943653 32.760788029081596,133.77462442292017 32.93888988476101,133.7599392746033 33.04784631410439,134.01937552820164 33.16727932320646,134.3351006451976 33.31185612369154,134.68263806074538 33.46690950392076,135.05709157014462 33.592628460864944,135.40217083315292 33.693203626418835,135.70808787976057 33.79377879198,136.06784117308416 33.89435395752662,136.41779991650037 33.971880647644866,136.59644815205866 34.08083707699552,136.94884612422175 34.173030978759925,137.26697859254273 34.271510828366445,137.60468367822068 34.36370473012357,137.93748968622276 34.45380331593333,138.2482674641451 34.550187849592476,138.5859582913381 34.625619223756075,138.91630326616723 34.686383386280795,139.2246210067915 34.7366709690541,139.51825314816597 34.75552881260228,139.75315619067987 34.7785772880452,140.06390969344284 34.80791171132296,140.4725319926565 34.83515081866062,140.6829574408639 34.847722714359406,140.85178578386694 34.8875337173813,141.23103338845613 34.92734472041775,141.59559460902346 34.986013567002374,141.95525678889317 35.036301149768406,142.30023365252964 35.09496999634575,142.66233152170025 35.11801847178867,142.83603863332974 35.15992479077249,143.02197720230288 35.20602174165106,143.3180079088488 35.25630932441709,143.65562510681775 35.27935779986001,143.85134297738114 35.3045015912503,144.10332731033486 35.31497817098716,144.25745230429493 35.3422172783321,144.38221940848598 35.373647017571784,144.7247139012252 35.39879080896935,145.0525253349697 35.411362704653584,145.38767105451188 35.411362704653584,145.48796919968117 35.43860181199125,145.62740736587875 35.47003155123093,145.90628119083158 35.49517534261395,146.19004410742127 35.51403318615485,146.44934167707652 35.54127229349979,146.7306518095811 35.56222545298078,147.05109659890695 35.57898798058159,147.29570797144152 35.610417719813995,147.58923822385805 35.633466195256915,147.85830436891047 35.65232403879054,148.03931075224136 35.67746783018811,148.36218350768831 35.7026116215784,148.6239028324744 35.71727883321728,148.83180860936773 35.72566009701404,148.96144303595247 35.72566009701404,149.2427227989574 35.72985072890879,149.53133676101424 35.73613667675818,149.83217631835396 35.75499452029908,150.11099975285288 35.775947679794626,150.34335006337278 35.782233627629466,150.77135772149813 35.782233627629466,151.15533503720508 35.784328943584114,151.539306018949 35.784328943584114,151.89881450905887 35.784328943584114,152.3267935679287 35.792710207388154,152.6324880786924 35.782233627629466,152.9993161933089 35.75499452029908,153.16316421716874 35.81366336686915,153.32701108797482 35.826235262567934,153.6106835410901 35.845093106108834,153.92125200508417 35.86185563370236,154.19513571713833 35.88071347724326,154.50080569899 35.88071347724326,154.85293254456883 35.86395094965701,155.15125806679134 35.83671184231207,155.49359412110607 35.81366336686915,155.73078115050157 35.792710207388154,155.84570595577134 35.90166663673881,155.85793196550912 36.236917188580264,155.89460995622358 36.57845368827839,155.9386234688318 36.919990187983785,155.967965764361 37.316004902357236,156.01442432334443 37.632397610665066,156.04865688646169 37.976029426303285,156.07799904336935 38.26308771132608,156.08044422143757 38.56062257609301,156.10978633830382 38.86234807276196,156.12934772900553 39.17035951727303,156.15135427391397 39.472085013927426,156.17336079802408 39.79266835414455,156.19781246709135 40.07553600726533,156.21737378386206 40.236875335351215,156.2247092734142 40.5511727277044,156.25405120853247 40.8696607519596,156.28583826319664 41.2070066197557,156.32251558004828 41.49825553668052,156.3371864906203 41.80626698119886,156.36163798770576 42.07865805456822,156.3934248955411 42.29238028137479,156.37630887363775 42.650679308659164,156.41298604802432 42.98802517646254,156.44966316466343 43.32746636021329,156.479004816385 43.68576538749767,156.51568182906885 44.01472999150428,156.5376880089516 44.38560091448744,156.57191980300195 44.756471837477875,156.59392592975382 45.01000506729906,156.60859666937176 45.24887108551047,156.6281576411493 45.42906825711543,156.64038324017747 45.6805061710038,156.65016371477031 45.99689887931163,156.6770599987376 46.057663041843625,156.97047198820655 46.05347240994888,157.26632533535667 46.04718646209949,157.59885023215793 46.03880519829545,157.93870533217887 46.03251925044606,158.23210143079814 46.026233302596665,158.59150661609783 46.0220426707092,158.90934331678 46.01785203881445,159.26629321147993 46.01994735475455,159.57189665288206 46.015756722859805,159.8726065267074 46.00947077501041,160.1293070071315 46.015756722859805,160.31021802788382 46.00318482716102,160.70137219034768 45.99689887931163,161.1829717344881 45.990612931469514,161.65722754943272 45.975945719830634,162.08991644611524 45.96546914007922,162.49326326822302 45.96127850818448,162.8257135832755 45.91937218920066,163.1679368960231 45.8292736033909,163.52482157040868 45.690982750747935,163.83770226961678 45.51916684292519,164.12613544424312 45.44583078472351,164.25324045620073 45.51707152697054,164.18724370956807 45.60297948089283,164.26057341652086 45.78317665251234,164.38034477518704 46.0220426707092,164.5661113794995 46.288147796236444,164.74209942875677 46.41386675317335,164.8325372151121 46.63387492782931,165.0500753184824 46.89369410551444,165.2407250211054 47.13884607156069,165.4338173616925 47.39447461733653,165.51447571401877 47.59981558035361,165.5095873369719 47.673151638569834,165.5902454271927 47.796775279566646,165.79555567057105 47.84287223043793,165.88843352013282 48.159264938745764,165.93242816185557 48.484038910857635,166.06685571949492 48.80462225106021,166.14751188209084 49.08329927228624,166.25505299826364 49.34311844997137,166.38214640523256 49.5673172565148,166.4823541800397 49.79570669496752,166.59722597751897 50.036668029104476,166.7047650197801 50.32582163007464,166.81230356613924 50.63802370648773,166.92228565743608 50.820316194069164,167.01027095702375 51.044515000605315,167.1300281925105 51.31481075804186,167.2913328846298 51.5306283007958,167.4184206441605 51.79044747847365,167.54795168643977 52.14665118981793,167.66281823528152 52.46304389812576,167.7581326016607 52.760578762885416,167.85100263525237 53.06859020740376,167.93409656238327 53.32840938508161,168.06606866172115 53.53794097999344,168.1662692013997 53.72232878350769,168.25180590688797 53.91719316677336,168.34223008302433 54.17910766041314,168.4717559948931 54.49759568466834,168.6257198224357 54.85799002790736,168.75035646229117 55.20790779139497,168.78701417080447 55.513823919965944,168.81389645376657 55.761071201945015,168.8212279801137 56.06698733050871,168.8261156630524 56.31004398060759,168.86521708975124 56.490241152219824,168.8847677785252 56.80034791267826,168.96785802299382 57.09159682960308,169.00940303423886 57.44570522499271,169.11693095504233 57.5630429181474,169.16091950705777 57.87943562644796,169.30265983261415 58.179065807169536,169.44684307325224 58.45355219649355,169.5568127424831 58.612796208624786,169.6276818101869 58.820232487574685,169.70588191090974 59.12405330019101,169.82562530711584 59.44254132445349,169.9624741501757 59.77569656034757,170.09199106582673 60.07113610916713,170.21417617618135 60.36657565798669,170.28259955845897 60.73535126502247,170.4683191559543 61.09365029231412,170.64426267406998 61.41842426441144,170.81043033400056 61.68662470589334,170.93749892248707 61.91501414434606,171.06945403191276 62.17902395393321,171.20629557938264 62.443033763513085,171.333362011992 62.698662309296196,171.462871317779 62.92495643179427,171.57283148484748 63.2036334530203,171.724331310681 63.48021515829896,171.88316071707777 63.74422496787156,172.0126669713827 64.03337856884173,172.15927695790924 64.3518665931042,172.32054687921118 64.63263893027761,172.47204185065493 64.89664873986476,172.60154483686347 65.17532576108351,172.75303798414097 65.47914657370711,172.90453014799277 65.75991891087324,173.03891753474454 66.05745377564017,173.18796445859334 66.35289332445973,173.33701043058136 66.6357609775805,173.4836120974178 66.8662457319806,173.605779449681 67.10301643421553,173.72305950623377 67.38588408734358,173.85988549404465 67.67084705641173,174.00892717517854 67.96000065738917,174.16285446977963 68.28267931353912,174.32411054679505 68.5823094942607,174.4780357628788 68.88613030687702,174.64661935870208 69.17737922379456,174.8176449508992 69.4728187726214,174.95690772180205 69.81645058825961,175.1328174027676 70.14751050820632,175.30139626980053 70.45971258461941,175.46264448173315 70.7174364463499,175.5970171408626 71.02335257492086,175.7509339636672 71.34184059918334,175.91462216969558 71.64775672773976,176.0636507322797 71.93271969680791,176.2029060703262 72.25120772106311,176.40323685405747 72.44607210433605,176.57180654763033 72.49426437116927,176.61333802439003 72.74360696910298,176.77702018406308 73.02018867437437,177.0335346932061 73.24438748092507,177.26317386306255 73.45391907582962,177.48303903700798 73.65087877504266,177.66625843385373 73.88555416134477,177.9105487267043 74.16004055066878,178.1914794041022 74.43033630809077,178.46752103861945 74.70482269742934,178.75577342207725 74.96464187510719,179.01715174483252 75.21398447304819,179.2760843951237 75.4633270709819,179.52768601288153 75.71476498487755,179.77195683506943 75.95363100305985,180.01866777238502 76.18621107340732,180.2458349448807 76.39783798425924,180.48765563627967 76.61365552702046,180.6903922664842 76.74566043181403,180.82229226182244 76.78337611888855,180.8540458531752 76.81480585812096,180.87847166329993 76.9174763396295,180.98105978694184 77.10815009099315,181.1813495869992 77.21291588844906,181.2790513053369 77.39939900791069,181.48178106727755 77.58169149548485,181.67962407850064 77.81427156583231,181.91410251481284 78.02170784478949,182.13392391155503 78.15161743362842,182.24383383431632 78.37162560828438,182.44167039231434 78.61468225837598,182.70544986380264 78.85354827656556,182.95457218582123 79.09870024260454,183.20613418821813 79.35013815650018,183.4699050295876 79.4067116871156,183.55538568194788 79.5240493802703,183.66284662983526 79.70843718378455,183.83136393933637 79.93054067438788,184.05116729930887 80.15264416498394,184.26852636660442 80.36008044394839,184.4956522207358 80.41246334266907,184.6055510351125 80.49627598062943,184.6714900756724 80.57589798669505,184.86442175542106 80.69742631173722,185.0231618165817 80.82733590058342,185.16236375214612 80.77914363376476,185.218532719442 80.649234044904,185.39192302783886 80.5360869836586,185.54089113871305 80.47951345304318,185.62880629961546 80.40617739481968,185.82173007698475 80.30350691331114,185.96581135300949" stroke="red" stroke-dasharray="none" stroke-linecap="round" stroke-linejoin="round" stroke-width="0.5"><title>2024-05-01 52.5km</title><desc>1714541844000</desc></polyline><polyline fill="none" opacity="1" points="186.0,148.2044735751797 185.77642256902618,148.24623674708891 185.54708283313084,148.2853053969684 185.26588235294184,148.30686046289975 184.98583433373278,148.313596413529 184.74036014405283,148.29338855096557 184.5824729891974,148.31224922368983 184.3185594237657,148.31898517147147 184.03390156062233,148.32033236060488 183.75731092436763,148.3270683041119 183.4957022809176,148.33380424407096 183.2271788715516,148.3418873673172 182.95980792317278,148.31629079278537 182.7385354141661,148.29204135898635 182.4573349339771,148.27183346225502 182.19226890755817,148.3459289270204 181.99058823529776,148.39846908657728 181.78314525810129,148.41328806679758 181.59875150059815,148.2893469746059 181.47659063625906,148.00912789017912 181.4178151260494,147.88248839873177 181.31524609843473,147.62920564195974 181.26338535414106,147.47426956017807 181.1723409363767,147.2425355582236 181.1124129651871,147.09028941514316 181.01214885954687,146.8383382634429 180.9095798319322,146.5836873865319 180.8047058823504,146.39640121958382 180.4993037214881,145.76311105948298 180.3218247298937,145.60006743485155 180.25843937574973,145.39390184845615 180.15010804321355,145.4397167114721 179.9403601440572,145.6041098639871 179.7340696278552,145.50170126395005 179.63265306122776,145.47609898534574 179.38833133253502,145.44241169828456 179.13824729892076,145.46936153505976 178.95961584633915,145.53269342712701 178.68417767107167,145.61623714369944 178.60926770707738,145.6364492509092 178.38684273709805,145.7267296050395 178.10218487395468,145.83048384898757 177.92009603841143,145.89785628231402 177.76797118847026,145.99621939534882 177.61008403360756,146.0689806616856 177.46141656662076,146.17138470314512 177.22861944777105,146.25627164008256 177.07418967587,146.30343080518833 176.7918367346865,146.38966425582294 176.62703481392964,146.4381703154031 176.39423769507994,146.51227643886068 176.2098439375768,146.59042424773634 176.0369747899167,146.7804022676246 175.76268907562917,146.8962739959279 175.63015606242698,146.94477812758214 175.3743097238912,147.05391174897977 175.09656662665657,147.1832540903606 174.9432893157209,147.25196667541786 174.69551020408107,147.37591785295626 174.59639855942805,147.4028636016319 174.37166866746702,147.55510601169044 174.14117647059174,147.71812462976231 173.97752701080026,147.82859887189989 173.8069627851146,147.90134967930862 173.48773109243484,148.02260010247483 173.327539015605,148.07379437936834 173.0555582232846,148.11555797932942 172.85963985594572,148.12768286981827 172.6222328931617,148.18022392871626 172.35486194477562,148.14789099501832 172.08979591837124,148.06975273340777 171.97224489795917,148.01316955536277 171.73368547418795,147.82590438957777 171.52624249699147,147.8030012668587 171.33262905161973,147.97544729715355 171.08715486194706,148.10208586525732 170.86242496998602,148.17618231648885 170.59390156062,148.2839582041397 170.31615846338536,148.37691417551378 170.1236974789863,148.44966185431622 169.96926770707796,148.53318645517902 169.76643457383034,148.62209913876177 169.561296518601,148.65577802367625 169.31582232892833,148.6988868665694 169.09570228090888,148.74603699660656 169.00120048019016,148.76085557289935 168.72576230492268,148.8672793875985 168.54597839135386,148.9723551940133 168.27745498198783,149.120537552124 168.03313325330237,149.23504092225812 167.88331332532834,149.3158662116066 167.62170468187105,149.4478797492784 167.37968787515274,149.6108741708249 167.25522208883194,149.69977934096005 167.05815126049856,149.75366096064135 166.78156062424387,149.82640078614259 166.45887154861703,149.92608061399642 166.28600240095693,149.97187919263615 165.98290516206907,150.0526998126079 165.73397358943475,150.15911284787762 165.45507803120563,150.3005465206743 165.28451380551996,150.38675294248696 165.07130852340924,150.48642839146123 164.8557983193241,150.58340916183988 164.66103241296514,150.6588381401807 164.46741896758613,150.739654407771 164.31759903961938,150.80565397985083 164.28993997598445,150.82047016338402 164.09402160864556,150.8985915738349 163.85200480191997,151.02385421623694 163.62266506602464,151.13295293495958 163.3737334933976,151.26898830202117 163.12019207682897,151.41849084433943 162.95654261704476,151.48044633945847 162.72720288114942,151.59627537117012 162.50362545018288,151.7188375039559 162.3203841536597,151.80638116374757 162.15558223289554,151.78483201090785 162.0449459783922,151.54644207943056 161.91702280912432,151.30939456729084 161.82367346938554,151.16527830207906 161.6876830732217,150.9618965038244 161.54823529411806,150.75312373592533 161.430684273706,150.58475611179074 161.30967587034684,150.56455184756578 161.10108043217042,150.71002183576365 160.8821128451309,150.81912323831602 160.7092436974781,150.90128540704427 160.4084513805501,150.94303974901777 160.25171668667463,150.90397923968249 160.0235294117665,150.7948785628314 159.72734693877283,150.63324621537504 159.38276110443985,150.56051099087927 159.09579831932206,150.5174084399232 158.82036014405458,150.50932669540634 158.55875150059728,150.4675709338253 158.3570708283296,150.42985593492085 158.15308523408748,150.39887567382812 157.95025210083986,150.38271202947726 157.67711884753226,150.3544256025798 157.3982232893104,150.32479213569513 157.1216326530557,150.30458745971464 156.86348139256006,150.2789948241898 156.6226170468144,150.24936118206915 156.3794477791089,150.23858529513564 156.1443457382993,150.29785256060495 155.96801920767757,150.3854059716241 155.87466986794607,150.25744309129368 155.75366146457964,150.06347585657932 155.6245858343318,149.8573824376972 155.50242496998544,149.65802092913782 155.40446578631236,149.51388600567407 155.29498199278896,149.33472537208036 155.19126050419436,149.16499192379706 155.03798319327325,148.9265530258699 154.87894357743062,148.68272106756285 154.7325810324037,148.45639772950926 154.63231692677073,148.33245705636182 154.39606242496666,148.4294542073967 154.28081632652902,148.4981600762676 154.0376470588235,148.61805766659563 153.86132052820903,148.6894568196367 153.67807923169312,148.77432699094788 153.4337575029931,148.8457252690041 153.17560624249018,148.9831321508491 152.979687875144,149.08955411053557 152.89786314525554,149.1367027961187 152.6881152460992,149.21887580291877 152.47606242496113,149.3023953656202 152.27438175270072,149.3724436093653 152.06002400960278,149.45461509721372 151.74194477791025,149.8277478160362 151.60249699879932,149.89240508361308 151.48609843937447,149.91395743330213 150.66900360143336,149.845259191703 150.45464585833543,149.88701699050034 150.18957983192377,149.93012167167035 149.91183673468913,149.96783814819537 149.6675150059964,149.99343140803376 149.4312605041996,150.0149835870161 149.19154861944116,150.02441265386915 148.96797118846735,150.03384171375455 148.68792316927284,150.0365357295841 148.3733013205201,150.04327076666686 148.32605042016803,150.04731178720795 148.03908763505024,150.0446177736585 147.71178871548182,150.0580878357332 147.41906362544978,150.05674083016402 147.0929171668613,150.05539382445568 146.78636254501907,150.04192375953244 146.4763505402152,150.04057675226068 146.21128451380355,150.0351887217421 145.91510204080987,150.0351887217421 145.6396638655424,150.03788273728333 145.3584633853534,150.0365357295841 145.09109243697458,150.0365357295841 144.83178871547716,150.0365357295841 144.54943577430095,150.04057675226068 144.28667466986371,150.03249470562605 143.99279711884446,150.0351887217421 143.84297719087772,150.03249470562605 143.55716686673986,150.0351887217421 143.2483073229232,150.0351887217421 142.965954381747,150.03788273728333 142.69166866746673,150.04327076666686 142.45887154861703,150.04731178720795 142.19380552220537,150.04057675226068 142.0082593037223,150.03384171375455 141.7201440576173,150.03788273728333 141.42165666265646,150.03922974484067 141.17272509002942,150.04057675226068 141.00331332533096,150.04731178720795 140.68753901560558,150.03788273728333 140.39481392556627,150.0526998126079 140.14703481391916,150.0526998126079 139.89810324129212,150.05135280647028 139.5811764705868,150.05135280647028 139.29651860743616,150.05539382445568 139.03606242496608,150.0500058001935 138.78252100840473,150.05135280647028 138.52552220888174,150.05135280647028 138.27313325330033,150.05539382445568 138.04264105641778,150.0580878357332 137.76028811524156,150.05674083016402 137.45603841535922,150.05674083016402 137.24513805521565,150.0661698661479 136.96393757501937,150.0580878357332 136.63894357742538,150.05943484115687 136.4315006002289,150.03114769735294 136.19870348138647,150.07290488758554 135.90482593036722,150.0702108794394 135.7215846338513,150.0702108794394 135.44038415365503,150.06886387514896 135.13498199279275,150.07425189144487 134.86300120047963,150.06482286143455 134.5887154861848,150.0661698661479 134.3317166866691,150.0769458987379 134.04705882352573,150.08098690861516 133.78429771908122,150.07963990546523 133.5272989195655,150.07963990546523 133.339447779108,150.09580393386568 133.06400960384053,150.0877219222266 132.78741896758584,150.08233391162048 132.5822809123565,150.08637491978607 132.31375750299776,150.0877219222266 132.0337094837887,150.0931099305535 131.79054021608317,150.0931099305535 131.76057623048837,150.0526998126079 131.7271548619392,149.8735467477618 131.4955102040767,149.8802818709055 131.21661464585486,149.87085269750332 131.04144057622761,149.84930027498194 130.82247298919538,149.8573824376972 130.51937575029297,149.845259191703 130.24739495797985,149.8331359341846 129.97541416566673,149.81831860379407 129.69421368547046,149.80754235269796 129.42684273709165,149.79541905933274 129.14103241296107,149.80350125619134 128.85752701079764,149.8129304793856 128.59130852340604,149.8223596956086 128.33430972389033,149.83178890486124 128.0657863145243,149.83448296336428 127.8180072028772,149.8412181071435 127.57829531812604,149.84795324736206 127.42040816326335,149.84930027498194 127.22333733493724,149.8600764907951 126.93291716686508,149.8681586466828 126.6770708283293,149.8735467477618 126.6517166866688,150.02037162607212 126.63788715485862,150.3409558534413 126.63097238894989,150.61169508098283 126.59985594236787,150.8810816441237 126.5629771908716,151.06695505610423 126.47999999999593,151.28784457507118 126.35322929171525,151.55452316698666 126.22300120047294,151.8346643716177 126.10429771908093,152.08651683901826 125.9982713085119,152.37338017173806 125.96254501800286,152.6494632052836 125.99596638655203,152.96863468353877 126.05819927970879,153.3147314436119 126.10545018006815,153.590794115481 126.15615846338187,153.85877119356974 125.94064825929672,153.95572633846223 125.66981992796354,153.99073773759937 125.40590636254638,154.02709562737618 125.14890756302339,154.0634534136043 125.04172869147442,154.09442477946322 124.85042016806256,154.10923714526507 124.60840336134424,154.14694127158236 124.37214885954018,154.19541784179273 124.16355342136376,154.20080411600975 124.05061224489327,154.1859918564469 124.19121248499141,154.20215068421112 124.4562785113958,154.1859918564469 124.71673469388043,154.13482210026905 124.93685474189988,154.10789056726753 125.18348139254522,154.07287948942758 125.36326530611404,154.0486409946816 125.63409363744722,154.00689681250424 125.89915966385888,153.9705388652028 125.96830732293165,153.9422603901512 125.91644657863071,153.72545666694623 125.85536614645389,153.48710298276092 125.81848739495035,153.32011808944662 125.78160864344682,153.1814112348502 125.7078511404543,152.89860618195326 125.6433133253231,152.61175465531414 125.58569027610793,152.35452550279206 125.5303721488599,152.11614621426907 125.48773109243484,151.92759447037042 125.39553421368328,151.68651353927999 125.27452581031685,151.46024349367144 125.13853541416029,151.20703178005897 125.16158463384636,150.94977430750532 125.21344537814002,150.73830747417014 125.27452581031685,150.5281840913176 125.34482593036228,150.2695659455294 125.40936374549347,150.0500058001935 125.4762064825918,149.8196656345417 125.48081632652611,149.65263273701112 125.26876350539533,149.56238018044678 125.0302040816241,149.50041536884964 124.76168067226536,149.43306197129186 124.4966146458537,149.3684023749911 124.24076830731792,149.30508953595927 123.9872268907493,149.2390821988929 123.79246098439035,149.1905867947653 123.54468187274324,149.12323176088012 123.27846338534437,149.04105813778006 123.02146458582865,148.98043791249347 122.83015606242407,148.93328864914838 122.53397358943039,148.85515520037097 122.2769747899074,148.79183981313236 122.00268907562713,148.72044123336218 121.72725090035237,148.65308371615902 121.51289315726171,148.6018917651145 121.27318127250328,148.51432610925986 121.0715006002356,148.35131767129587 120.89978391355544,148.18157113250527 120.69234093636624,147.98218342287964 120.50679471788317,147.8003067791269 120.32701080432162,147.63459468917608 120.08960384153033,147.5066042022945 119.80379351739975,147.46618588683486 119.5640816326486,147.5146878500109 119.4211764705833,147.58474591548293 119.18607442976645,147.77336187049514 118.95788715485833,147.96601671516237 118.74122448979324,148.095349802883 118.5015126050348,148.18426553966037 118.25603841536213,148.2287231755272 118.02554621848685,148.2408479584028 117.88148859543435,148.24893114057977 117.63370948378724,148.2637502945954 117.38132052820583,148.2826110111655 117.13123649459885,148.3028188908147 116.88691476589884,148.31898517147147 116.62300120047439,148.337845806338 116.36715486193862,148.35670641329943 116.15740696278226,148.36478952202742 115.90040816325927,148.39442754352967 115.63879951980198,148.41194088748944 115.40600240095955,148.44023162306712 115.16283313324675,148.4537033798597 114.90007202880952,148.47660533372982 114.64537815125368,148.55204677320125 114.42180072027986,148.68676251923716 114.2362545017968,148.86862651879983 114.12907563024783,149.024892772547 114.03918367346341,149.25794147291526 114.00345738294709,149.47077991774768 114.01152460984304,149.7698254021616 114.0334213685419,150.05539382445568 114.05647058823524,150.35577257670957 114.07145258102537,150.6292053804509 114.09795918366581,150.89993849050916 114.12100840335916,151.1827878417389 114.14405762304523,151.48583375959788 114.1521248499339,151.80503434276034 114.15327731092111,152.03264507139374 114.14175270107808,152.35856579133906 114.11639855941758,152.66966416836658 114.09565426169866,152.96190119046514 114.07721488594689,153.2325848129858 114.05877551019512,153.5113425437694 114.03572629050905,153.7900941870612 114.01613445377734,154.07961239647284 114.067995198071,154.36643093883777 114.19822328930604,154.61554040665396" stroke="red" stroke-dasharray="none" stroke-linecap="round" stroke-linejoin="round" stroke-width="0.5"><title>2024-04-21 79.4km</title><desc>1713660889000</desc></polyline><polyline fill="none" opacity="1" points="19.185316927767417,194.36676501855254 19.47220513587672,194.48017143028846 20.087260430962488,194.23888051671202 20.500049219597713,194.50671327507916 20.621821912252926,195.1533595961264 20.702315726033703,195.82411515891 20.727083053352544,196.40558155435792 20.943797167390585,196.44177191936433 21.63728233231086,196.31872444429973 22.045943233075377,196.56964408304157 22.116117327139364,197.22346980443763 21.833357006922597,197.38993904620656 21.835420950868865,197.4044145750977 22.109925495307834,197.14385365114504 21.975769139004115,196.44659729703562 21.651729939920187,196.25599410379255 22.11198943926138,196.13053290576136 22.65687064026133,195.9254506168927 23.337972141525825,195.62868121987412 24.105759288402623,195.3560360163865 24.712558807710593,195.21126732835728 25.391596365028818,195.01341530351783 25.655781189750996,195.44530958310497 25.814704873380833,196.0846911422159 25.983948276734736,196.78678385266903 26.19240661499498,197.41165233610263 26.43388805635186,198.11370425152927 26.691881049249787,198.88569519092562 26.94368221032346,199.60217593599737 27.195483371404407,200.32587104682898 27.37917438234581,200.88310065993392 27.682574142003432,201.75389548149542 27.893096424202668,202.34003508093338 28.10361870640918,203.02746360236233 28.31620493256196,203.63286598225386 28.524663270836754,204.19725056953212 28.726929777258192,204.83397542448438 28.974603050446603,205.5478579584451 29.207828716032964,206.20866178584765 29.441054381619324,206.91285506040913 29.643320888040762,207.4675125750855 29.884802329419472,208.17648998082586 30.107708275267214,208.8299836987244 30.452386913791997,208.83962922260253 31.11697686350817,208.60813552665968 31.48642282934452,209.0325388458241 31.845549075464078,209.67154035023668 32.11386178807879,210.09351268794308 32.3326398460631,210.98806829817113 32.522522688836034,211.47029400654174 32.803219065121084,212.1767363150866 33.129322208144,212.98441666342478 33.376995481332415,213.60160988995813 33.61641297874303,214.19467832139526 33.84138286855887,214.7322839833705 34.04571331893385,215.3012161307961 34.24797982536984,215.98102328600908 34.45024633180583,216.63188355695638 34.687599885270174,217.3526294476087 34.91256977508601,218.138433557373 35.10451656181249,218.9362622830031 35.174690655876475,219.46170529268056 35.20564981501957,220.0883646763723 35.24280080600147,220.57521897570587 35.335678283445304,221.34404206354156 35.45538703214697,222.13211919447713 35.57096789297066,222.81172357011746 35.67416509013128,223.49130778368635 35.74433918419527,224.11544715594027 35.79800172672549,224.69860448585678 35.84134454953164,225.28897591957139 35.919774419373425,226.17811888332653 35.971373017957376,226.79495660547036 36.01677978470252,227.32744769283272 36.06631443934748,227.93461700422267 36.111721206092625,228.4357605100322 36.117913037924154,228.97303200277565 36.148872197074525,229.6933897150593 36.17570346833236,230.40167924243542 36.17570346833236,231.41107446540082 36.183959244110156,232.05186078556835 36.16951163650083,232.7383976884812 36.23762178662582,233.31892689236156 36.2665170018372,234.13549704333673 36.24174967451836,234.71839954593452 36.19840685171221,235.31814740454502 36.67930579048698,235.40967381120936 37.42645349792292,235.47229693169902 38.163281485656626,235.53251130942044 38.75150550947001,235.57586556352362 39.521356600293075,235.6433053515084 40.272632195621554,235.70351928039963 40.84434466790117,235.75169030972938 41.54608560858469,235.8239466640789 42.214803446186124,235.86730036745757 42.95575932180509,235.9226966469996 43.52747179407743,235.96605016377907 44.13220736943913,236.0094035986349 44.74313477663236,236.05998250243647 45.29627175341011,236.1081527833394 45.85972844990465,236.14187191979363 46.295220621927,236.4164401863036 46.295220621927,237.1678733780227 46.27251723855443,238.00357305802754 46.295220621927,238.5791525452787 46.25187779912085,239.3353312706422 46.24568596728932,240.13964690356988 46.22504652785574,241.23289302552075 46.2002792005369,242.0588131718887 46.07025073211116,242.9256361817952 45.779234636123874,243.48905359114542 45.45519543703995,244.013934295539 45.47996276435879,244.10061068894902 45.737955757256714,243.66963316882357 46.20440708842216,243.8742883069408 46.73484068183461,244.27155483937895 47.29829737833643,244.74345039677064 47.857626186952984,244.91679735015896 48.311693854448094,245.280340183941 48.95358042078442,245.48738849762958 49.752326726818865,245.83166237589649 50.373573853728885,246.10611477831844 51.13104128088162,246.42871253263365 51.61194021965639,246.7127874009857 52.2806580572651,246.98963664700932 52.881265744734264,247.16296665060872 53.36835651533329,247.3459246801649 53.855447285932314,247.57943478563357 54.34460200047761,247.81294251783584 55.06698238059471,248.07774222921216 55.710932890891854,248.11385104431247 56.35694734511344,248.1668105371482 56.972002640184655,248.28957980107043 57.64278442173236,248.46771442936551 58.24958394104033,248.74935690226084 58.89147050738393,248.9948885492886 59.603531167791516,249.29578159803896 60.24541773413512,249.50038662078987 60.96986205820576,249.85182158466705 61.59730101694004,250.16955267961566 62.10503122697264,250.43913925489323 62.56735467024555,250.6653969755971 63.128747422808374,250.95664033726098 63.700459895073436,251.26232154913123 64.2432771521344,251.53911598972627 64.8273732880698,251.83034828096788 65.42798097554623,252.14323836661606 66.05541993428051,252.4537173957524 66.66634734148101,252.7714125268467 67.17820543939888,253.03134164139192 67.84898722094658,253.37068911813367 68.45578674025455,253.6787449016265 69.02543526857335,254.00364301366972 69.51252603917965,254.23467887806328 70.07598273567419,254.52828360619242 70.61879999273515,254.81225838329738 71.07286766024481,255.03606654162832 71.58266181422368,255.29356355595883 72.1688218940908,255.64250350719158 72.52175630837883,255.89518085647796 72.99233552743681,256.3668378143939 73.41338009186438,256.77351385457587 73.99747622778523,257.3630610270302 74.54235742879973,257.923718401973 75.08723862979969,258.4771436110859 75.59703278377856,258.98243326209194 76.03252495580091,259.4444026603942 76.397843033752,259.8053097989032 76.60010954018071,260.00500931607894 77.01496227276948,260.4116210481061 77.15943834879727,260.640186618597 77.39472795832262,260.8230374404102 77.80338885907986,261.2560993808893 78.29460751756415,261.70599398836566 78.80646561548201,262.23286472772634 79.33689920889447,262.7885920266999 79.81160631582316,263.25048502579193 80.07991902844515,263.7292080927127 80.25122637573804,263.82543263314074 80.36474329260818,264.02028609560875 80.55462613538839,264.2319768769812 80.68259065986786,264.4388546235423 80.77340419336542,264.65535260016986 80.77134024942643,264.79487243969743 80.61035262185032,264.98490672309345 80.5154112004675,265.278374307145 80.39776639569754,265.59108155079775 80.37919090021023,265.8628928586313 80.38125484414923,265.8099740944799 80.30901680614625,265.5550001625015 80.29250525459065,265.326483390294 80.52779486412328,264.8189274989818 80.7651484175949,264.48215438173975 80.68465460380685,264.3017381853151 80.5133472565285,264.1285373065566 80.36267934866919,263.892789572119 80.60416079002607,263.67628442403293 80.31727258191677,263.53435216641446 79.85288519469032,263.1374183254502 79.51027050011908,262.7452890828299 79.05620283260214,262.31466092987284 78.5670481180714,261.83109680837333 78.07995734747965,261.3210579690767 77.67129644671513,260.9144623064767 77.21722877920547,260.4525224222434 76.79824815873144,260.04109940534727 76.37720359431842,259.56711172266114 75.96235086172965,259.1893582019875 75.60941644744162,258.83325366254576 75.14296511627617,258.35202255464174 74.70128111242957,257.916499724337 74.25340527674416,257.4569059175483 73.83442465627013,257.0382103725897 73.53721672845859,256.73982498831356 73.09346878065844,256.2922396537542 72.67242421623814,255.85908426226342 72.38347206419712,255.5582771071622 71.801439872208,255.26709203324754 71.14097781037708,254.92055292544865 70.48464363643143,254.57641517116463 69.85514073375089,254.26355819789205 69.2586609341597,253.96513681057513 68.67869268611685,253.6739315617524 68.0141027363934,253.3345885608178 67.42381476864102,253.0337483787207 66.89957300706737,252.76900576205117 66.20815178608609,252.41761539850995 65.62611959408969,252.11194954969505 65.01312824296474,251.7918384376262 64.41045661154203,251.47412976830492 63.820168643775105,251.16845137327255 63.24020039573952,250.89165246898847 62.70563891444908,250.61003624975274 62.049304740496154,250.2754620684591 61.489975931886875,250.00346651884684 60.87492063681566,249.688140215334 60.354806763119996,249.40891636519154 59.84088472126314,249.15376056996865 59.28361985659285,248.8576800111132 58.75318626318767,248.58807488291677 58.20830506217317,248.33050274327252 57.805835993247456,248.16199604284157 57.6304007580693,248.39068340822632 57.081391669184086,248.29920873520132 56.56334173943469,248.1740322767182 55.91939122914482,248.10181477892002 55.24860944759712,248.06570594489858 54.62117048887012,247.91886276861078 54.26617213062855,247.74313117649763 53.79765685552411,247.52165931040327 53.23007227112976,247.25203850488833 52.658359798864694,247.07870917330547 52.109350709972205,246.9126006700899 51.77499179117149,246.7850092650806 51.166128327924525,246.4311199615331 50.56552064044081,246.1518565265851 50.02683127126511,245.94240672237174 49.508781341515714,245.68721242591164 48.937068869243376,245.46812826810856 48.38186794851936,245.28274773319572 48.00416620691976,245.11421867581885 47.8390506914584,244.8517923959589 47.323064705647994,244.75067321261304 46.85454943053628,244.37989906466646 46.46446402526635,244.05968021060107 46.02278002141975,243.7394568915115 45.71112448599888,243.5998092338359 45.37882951114443,244.03801110429777 44.87522718899709,243.71778748305223 44.4211595214947,243.40719038148382 43.94851635849045,243.0652879393656 43.50064052281232,242.73060385764984 43.017677640098555,242.38146778230293 42.569801804413146,242.01306327054226 42.12398991268128,241.68799555696205 41.66373041334009,241.4399778356419 41.228238241325016,241.21362922728622 40.76178691016685,241.03543832734977 40.338678401793004,240.89095820393413 39.878418902466365,240.73925309571132 39.43673489861976,240.6092193478653 39.00743455842894,240.4960412270466 38.61734915315901,240.40935122520568 38.08691555974656,240.3804544851664 37.45534871312702,240.34914964241216 36.89189201663248,240.31784475696804 36.30573193675809,240.29376404680625 36.02916344836558,240.04091506491386 36.02709950442659,239.6194939056022 36.03535528019711,239.26308597202114 36.03948316808237,238.79107775811826 36.05393077568442,238.19623725521524 36.07250627117901,237.69289863300764 36.097273598490574,237.1967741632052 36.14061642129673,236.66692065117968 36.18189530016389,236.20931004404156 36.22317417902377,235.71797059981327 36.262389113944664,235.26034106483166 36.30573193675809,234.72562551706687 36.33462715196947,234.24388912566428 36.31398771253589,233.7404637861273 36.28509249733179,233.22980095694584 36.2954122170413,232.7552597397862 36.27270883366873,232.31443346674314 36.27064488972246,231.82541954526278 36.26858094578347,231.20149009113084 36.262389113944664,230.56068000652522 36.25000545028888,230.08849269424536 36.25413333818142,229.69820808509576 36.22317417902377,229.04049121071148 36.20872657142172,228.55863537015284 36.16951163650083,228.1490499415595 36.117913037924154,227.42141542399077 36.074570215118,226.8985644380573 36.020907672602334,226.34196802264887 35.971373017957376,225.70584127970506 35.942477802753274,225.18777046839023 35.868175820789475,224.60703530897445 35.81451327827381,223.97327018443139 35.75259495997307,223.41901254902587 35.68861269773333,222.95390775067244 35.65352565070498,222.5562718082292 35.53381690198876,222.0019798860758 35.45745097609324,221.53684631362376 35.37489321835892,220.98252971977854 35.32535856373579,220.4402505039634 35.28614362880762,219.90759930645072 35.24486474994774,219.37011517707106 35.154051216442895,218.77477049513618 35.03227852379496,218.23725977219328 34.89605822353769,217.73589310386342 34.737134539907856,217.22005247531342 34.58027480022429,216.740358469493 34.42754294842598,216.26065441079663 34.27481109662767,215.7399592294987 34.1262071327219,215.23853785866595 33.90742907474487,214.67201491889682 33.71754623196466,214.22119728248254 33.54417494074005,213.74144041717773 33.36461181767663,213.29301535775267 33.152025591516576,212.79636229303287 32.93118358960055,212.25388910251968 32.73098102711083,211.754802406409 32.54935396010114,211.2629381977531 32.16752433060901,211.26534932260802 31.635026793257566,211.46788290328914 31.13761630294175,211.63424843169742 30.830088655406144,211.33768295013215 30.70831596275093,210.73489573164443 30.590671157988254,210.2068410752836 30.46889846533304,209.65225000013743 30.301719005939958,209.14587249062242 30.151051098080643,208.74076240999239 29.981807694741292,208.23195327253597 29.81256429140194,207.72795580918864 29.639193000162777,207.19742016177042 29.44518226949731,206.64275609467768 29.26768309038016,206.11943026773406 29.065416583958722,205.52374066914672 28.89204529271956,205.0486248817433 28.693906674176105,204.4456718466081 28.51640749505168,203.9295314131159 28.34510014776606,203.43026298721088 28.16347308076365,202.92857164993438 28.00661334108736,202.44857780125494 27.855945433220768,202.0264643259652 27.635103431304742,201.36312739505775 27.46173214006558,200.85415400172315 27.271849297299923,200.31139736928162 27.106733781838557,199.8216992087364 26.95606587397924,199.38506293192222 26.80539796613448,198.9363561839873 26.588683852096437,198.30911692458722 26.415312560857274,197.7880127475728 26.215109998374828,197.2065815526912 26.014907435870555,196.56481873137272 25.895198687168886,196.05815113178141 25.76104233085789,195.52251887282728 25.620694142715365,194.97239698621706 25.46589834698534,194.84451587692456 24.844651220068044,195.03030517745174 24.26468297203246,195.1847263026557 23.72599360284221,195.3656872296233 23.22858311253367,195.5466467223123 22.62384753717197,195.76379622039713 22.153268318121263,195.9930073390242 22.05832689673116,195.97129270013647 22.00672829814721,196.0291983579482 21.51344569572393,196.1908508754659 20.848855746007757,196.29701011516954 20.776617707990226,195.7444941264148 20.720891221521015,195.3656872296233 20.621821912252926,194.7914329419309 20.49179344382719,194.20268665970252 20.211097067556693,194.12788584004556 19.616681211904506,194.38365537089703 19.203892423262005,194.35711338303008" stroke="red" stroke-dasharray="none" stroke-linecap="round" stroke-linejoin="round" stroke-width="0.5"><title>2024-04-05 108.1km</title><desc>1712276378000</desc></polyline></svg>