<?xml version="1.0" encoding="utf-8" ?>
<svg baseProfile="full" height="300mm" version="1.1" viewBox="0,0,200,300" width="200mm" xmlns="http://www.w3.org/2000/svg" xmlns:ev="http://www.w3.org/2001/xml-events" xmlns:xlink="http://www.w3.org/1999/xlink"><defs /><rect fill="#222222" height="300" width="200" x="0" y="0" /><text fill="#FFFFFF" style="font-size:12px; font-family:Arial; font-weight:bold;" x="10" y="20">Over 10km Runs</text><text fill="#FFFFFF" style="font-size:4px; font-family:Arial" x="10" y="280">Runner</text><text fill="#FFFFFF" style="font-size:9px; font-family:Arial" x="10" y="290">yihong0618</text><text fill="#FFFFFF" style="font-size:4px; font-family:Arial" x="65" y="280">SPECIAL TRACKS</text><rect fill="yellow" height="2.6" width="2.6" x="65" y="283" /><text fill="#FFFFFF" style="font-size:3px; font-family:Arial" x="70" y="285.5">Over 20.0 km</text><rect fill="red" height="2.6" width="2.6" x="65" y="287" /><text fill="#FFFFFF" style="font-size:3px; font-family:Arial" x="70" y="289.5">Over 40.0 km</text><text fill="#FFFFFF" style="font-size:4px; font-family:Arial" x="120" y="280">STATISTICS</text><text fill="#FFFFFF" style="font-size:3px; font-family:Arial" x="120" y="285">Number: 5</text><text fill="#FFFFFF" style="font-size:3px; font-family:Arial" x="120" y="290">Weekly: 1.2</text><text fill="#FFFFFF" style="font-size:3px; font-family:Arial" x="141" y="285">Total: 317.5 km</text><text fill="#FFFFFF" style="font-size:3px; font-family:Arial" x="141" y="290">Avg: 63.5 km</text><text fill="#FFFFFF" style="font-size:3px; font-family:Arial" x="167" y="285">Min: 18.7 km</text><text fill="#FFFFFF" style="font-size:3px; font-family:Arial" x="167" y="290">Max: 108.1 km</text><polyline fill="none" opacity="1" points="73.94006915099453,35.94855012734479 74.14752208988648,36.546790060107014 74.34114483284065,37.19353330160084 74.47944679216016,37.71092592606146 74.59008835954592,38.098969246057095 74.67306953511434,38.66486398992129 74.78371110250009,39.23075664040516 74.89435266994406,39.796647197625134 75.01882443332579,40.41104028960399 75.08797541295644,40.96075833302166 75.18478678446263,41.49430630968709 75.29542835184839,42.027852425555466 75.3784095274168,42.57756465932471 75.46139070298523,43.17577866940701 75.57203227042919,43.80632603977574 75.68267383793136,44.48537414766906 75.80714560119668,45.22909004589019 75.91778716864064,45.924299464109936 76.00076834420906,46.63567327315104 75.90395697270287,46.86201879147848 76.12524010753259,47.46021604951238 76.18056089128368,48.349423867533915 76.24971187085612,49.25479379091121 76.31886285054497,49.98231931150076 76.3050326546072,50.27332855116401 76.20822128310101,50.40266581335163 76.20822128310101,50.96851504998631 76.42950441798894,51.61519732953457 76.56780637725024,52.4235463355144 76.78908951207995,53.19955736378324 76.98271225509234,54.08873182882962 77.17633499810472,54.94556778849801 77.19016519392608,55.59223326043866 77.52208989625797,55.94789810516522 77.79869381478056,56.5783928437595 78.07529773336137,57.24121784487215 78.31041106412886,57.80704179390159 78.36573184782173,58.38902995880926 77.88167499040719,58.63152437424287 77.28697656549048,58.79318710445659 76.62312716094311,59.03568087948952 75.93161736457841,59.27817427026457 75.28159815591061,59.520667276810855 74.79754129849607,59.6823290677421 74.7422205148032,59.876322991374764 74.72839031886542,60.40980501341983 75.00499423744623,61.13727750098042 75.28159815591061,61.897078407142544 75.4752208989812,62.656875541099 75.76565501338337,63.40050312603125 76.41567422205117,63.83697850396857 76.83058009983506,64.4027780671604 77.16250480210874,65.14639716915553 77.49442950444063,65.87384714242944 77.84018440259388,66.56896277528722 78.15827890892979,67.26407525126706 78.46254321932793,67.94301927316701 78.79446792165982,68.63812550880539 79.09873223205796,69.34939373801171 79.43065693427343,70.02832850988489 79.74875144060934,70.70726027025376 80.06684594694525,71.38618901919108 80.39877064921893,72.06511475669686 80.71686515555484,72.76020227305708 81.03495966194896,73.48761606133485 81.35305416828487,74.18269711814355 81.65731847868301,74.82928131421795 82.09988474834245,75.26572410261724 82.37648866692325,75.86381034721853 82.55628121393966,76.26792135182768 82.61160199769074,76.7366887806129 82.05839416058734,76.99531847170147 81.46369573567063,77.23778341030993 80.77218593924772,77.54490511446784 80.01152516325237,77.94901168126671 79.25086438719882,78.30462457760586 78.39339223969728,78.6925649769546 77.66039185546106,79.16132498119259 77.28697656549048,79.32296602918359 76.63695735682268,79.64624761305458 75.86246638494777,79.98569254144968 75.18478678446263,80.32513671716151 74.57625816366635,80.61608826873999 73.76027660391992,81.00402281071001 72.9857856319286,81.3757924909878 72.30810603144346,81.69906974001788 71.6442566269543,81.99001868047344 71.3676527083735,82.13549294335826 70.78678447945276,82.39411351385934 70.21974644635338,82.70122487384651 69.65270841337042,83.05682673158299 68.98885900882306,83.5094097195688 68.25585862464504,84.0428093807277 67.52285824046703,84.57620718353428 66.85900883597787,85.028785680086 66.22281982324785,85.43287249296554 65.58663081063423,85.82079482999688 65.01959277753485,86.11173593773856 65.00576258159708,86.11173593773856 64.7706492508878,86.19255281399819 64.18978102185065,86.54814656275266 63.49827122548595,86.83908628836798 62.806761429063044,87.0815356374078 62.12908182863612,87.3078213500994 61.34076066076523,87.59875963217928 60.63542066840455,87.85737097435049 59.999231655790936,88.05132919430616 59.16941990010673,88.3584292068117 58.3534383403603,88.64936549257254 57.49596619285876,88.94030122550612 56.749135612742975,89.21507335458591 55.974644640809856,89.48984499057406 55.11717249325011,89.76461613344145 54.35651171725476,90.0393867832754 53.69266231264919,90.21717929388979 53.111794083728455,90.41113452463469 52.77986938145477,90.50811204787169 52.22666154435137,90.76671847621037 51.59047253173776,90.97683587760548 50.87130234343931,91.23544151431997 50.110641567385755,91.5586979459913 49.308490203577094,91.78497704213078 48.4786784479511,92.07590681729198 47.64886669226689,92.36683603965503 46.874375720275566,92.69009008287685 46.12754514021799,92.99718079186277 45.32539377640933,93.23962039024627 44.550902804418,93.51438480436627 43.734921244729776,93.78914872549649 42.91893968498334,94.04774961265502 42.60084517864743,94.12856230030593 42.11678832117468,94.32251257673488 41.356127545121126,94.56495007677586 40.567806377250236,94.90436193205824 39.79331540531712,95.17912335912115 39.04648482520133,95.45388429317973 38.43795620434685,95.59934576453816 37.594314252841286,95.8741059446038 36.72301190934377,96.22967721054738 36.03150211297907,96.64989673312812 35.53361505956855,97.05395287892316 35.07721859391313,97.55498101908597 34.89742604683852,97.781251254768 34.399538993427996,98.21762862229662 33.7495197848184,98.65400474633498 32.93353822513018,98.928759445771 32.200537840952165,99.07421761650767 31.481367652711924,99.18735165377439 31.163273146376014,99.20351365224633 30.40261237032246,99.39745750121074 29.489819439069834,99.54291522680433 28.563196311995853,99.73685864591971 27.664233576681,99.88231604911562 26.79293123324169,100.02777331414109 25.949289281619713,100.17323044101067 25.091817134118173,100.30252554889012 24.206684594682883,100.44798241484386 23.349212447181344,100.59343914259807 22.643872454878874,100.72273389571637 21.81406069919467,100.85202853969531 20.94275835575536,100.99748488364276 20.126776796067134,101.12677929570782 19.28313484438695,101.22375003309571 18.467153284698725,101.38536779228889 17.63734152901452,101.54698538093362 16.793699577392545,101.6924410648644 16.019208605459426,101.82173489019624 15.189396849775221,101.95102860633051 14.442566269717645,102.06416051842098 14.124471763381734,102.12880728782329 14.138301959319506,102.12880728782329 14.56703803309938,102.45204072546039 14.857472147559747,103.0176975998038 15.064925086509902,103.42173694522353 15.313868613156956,103.7934522016003 15.57664233574178,104.3106197531597 15.618132923555095,104.66617143189069 15.72877449094085,104.95707673688594 15.922397233953234,105.34494961741439 15.784095274691936,105.08636780623056 15.618132923555095,104.68233285220049 15.50749135616934,104.32678121104254 15.313868613156956,103.97122874444176 15.230887437588535,103.7772906874452 15.078755282389466,103.43789849684981 14.78832116787089,102.98537440612563 14.580868228978943,102.58133390950388 14.843641951621976,102.43587906981702 15.631963119492866,102.29042409190151 16.309642719978,102.19345402989711 17.042643104097806,102.06416051842098 17.78947368421359,101.93486689780548 18.56396465614671,101.77324971846247 19.36611601995537,101.66011759148387 20.14060699188849,101.5631471304223 20.887437572004274,101.45001484818931 21.6619285439956,101.30455893398903 22.394928928115405,101.15910288164741 23.07260852860054,101.04597030098375 23.805608912778553,100.93283763674845 24.621590472583193,100.80354306101799 25.43757203227142,100.67424837608996 26.22589320014231,100.528791725068 26.986553976195864,100.41565867878671 27.73338455631165,100.28636366639694 28.452554744493682,100.15706854482414 29.15789473685436,100.04393522393366 29.890895121032372,99.96312565785774 30.48559354589088,99.84999219367455 30.831348444102332,99.88231604911562 31.301575105637312,99.78534446237609 31.785631963110063,99.67221086686186 32.35266999620944,99.57523914705962 33.03034959663637,99.44594342511846 33.777180176693946,99.18735165377439 34.46868997311685,98.84794929120108 34.96657702646917,98.44389787886757 35.38148290436948,98.03984540046076 35.741067998460494,97.55498101908597 36.18363426817814,97.10243954476027 36.72301190934377,96.74687030536006 37.45601229346357,96.43978711597447 38.202842873637564,96.22967721054738 38.94967345369514,95.92259298404679 39.73799462156603,95.63167051717755 40.567806377250236,95.35690990212606 41.41144832887221,95.06598636064155 42.241260084556416,94.77506226635887 43.07107184018241,94.48413761940901 43.817902420298196,94.24169999139849 44.62005378404865,93.9669368823379 45.380714560102206,93.69217328021477 46.113714944338426,93.41740918511641 46.777564348769374,93.17496986819606 47.48290434113005,92.94869282608852 48.20207452937029,92.70625276712235 48.935074913548306,92.44764961443434 49.66807529772632,92.1890460249997 50.41490587790031,91.93044199884753 50.912792931252625,91.8011398219387 51.31386861309875,91.68800032761646 51.7979254705715,91.5102095247712 52.005378409521654,91.42939545524132 52.475605071056634,91.30009285525011 53.0011525163427,91.08997589745559 53.72032270452473,90.83137001503201 54.46715328464052,90.54043787528644 55.21398386481451,90.26566812460078 55.946984248934314,89.99089788086712 56.69381482899189,89.71612714407092 57.426815213111695,89.4575189413008 58.159815597347915,89.19891030178405 58.72685363038909,89.0049535355356 59.25240107567515,88.81099652354897 59.515174798318185,88.73018102941569 60.19285439874511,88.5038974187919 60.842873607354704,88.26145032203931 61.465232424088754,88.05132919430616 62.018440261192154,87.84120777828502 62.58547829429153,87.64724929213116 63.221667306963354,87.43712732152198 63.91317710332805,87.17851526947925 64.60468689969275,86.87141289042484 64.96427199384198,86.70977981192118 65.55897041870048,86.40267649262387 66.16749903949676,85.99859223932435 66.803688052285,85.56218004782568 67.38455628120573,85.19042053325393 67.99308490206022,84.75400603812886 68.43565117171966,84.39840812240436 68.94736842100974,84.02664578196709 69.45908567035804,83.65488253871445 69.95697272376856,83.33160941954702 70.51018056087196,83.00833561777836 71.20169035723666,82.62040615464502 71.89320015365956,82.31329463253496 72.709181713406,81.94152722880244 73.49750288127689,81.58592278050492 74.32731463696109,81.19798971309501 75.01882443332579,80.84238353767432 75.64118325005984,80.55143241620681 76.34652324242052,80.21198874221591 77.10718401841586,79.8725443155854 77.8263542066561,79.5815913509141 78.57318478671368,79.24214552649937 79.32001536688767,78.91886308924586 79.91471379174618,78.61174414151174 80.66154437180376,78.27229616664408 81.35305416828487,77.96517592172313 81.97541298501892,77.64189078778145 82.69458317320095,77.27011203971051 83.5105647330056,76.88216803560499 84.27122550900094,76.59120938736305 84.68613138684304,76.39723664797202 85.14252785249846,76.13860594636935 85.80637725698762,75.81531695500598 85.9031886284356,75.3303821877198 85.15635804837802,75.55668527029047 84.56165962351952,75.83148142075515 83.9669611986028,76.10627707799722 83.30311179405544,76.46189425502962 82.7222435650765,76.60737377124315 82.40414905874059,75.91230372407881 82.05839416058734,75.15257238809136 81.60199769487372,74.37667266381322 81.29773338453379,73.61693370626017 80.92431809444679,72.84102619800251 80.550902804418,72.08127961853461 80.21897810214432,71.4670136696659 79.87322320399107,70.78808527922956 79.56895889359294,70.06065866201243 79.23703419126105,69.30089828193013 78.8912792931078,68.50880365747435 78.54552439489635,67.79753152202466 78.21359969262267,67.15091762147495 77.89550518628675,66.48813553831133 77.60507107182639,65.82535058505891 77.42527852475177,65.37271530911676 77.31463695730781,65.1625627616595 77.10718401841586,64.7907537015708 76.8167499039555,64.25728695069847 76.45716480980627,63.67532110174943 75.82097579713445,63.4166689029953 75.55820207454963,62.559880372311454 75.30925854778616,61.83241464706953 75.08797541295644,61.08877944269625 74.79754129849607,60.47446937454515 74.76988090667874,59.84399068784842 75.48905109486077,59.552999648672994 76.31886285054497,59.35900531518564 77.05186323472299,59.084179588389816 77.84018440259388,58.80935336809489 78.5178640030208,58.61535809186171 78.72531694197096,58.03337078768527 78.42105263157282,57.27355069834448 78.28275067225331,56.80472365472815 77.97848636191338,55.98023123187886 77.66039185546106,55.18806766072521 77.39761813287623,54.36356652721588 77.20399538992206,53.506727308558766 77.03803303878522,52.76305164463702 77.01037264696788,51.95470443216618 76.94122166727902,51.16252002080728 76.96888205915457,51.04935048439074 76.88590088358615,50.53200296619616 76.55397618137067,49.885316108644474 76.48482520162361,49.02845181233715 76.41567422205117,48.009908765074215 76.36035343830008,47.2985413455317 76.34652324242052,46.84585126557795 76.29120245866943,46.21531642210903 76.22205147903878,45.53627599227184 76.13907030347036,44.8734002847923 76.01459854008863,44.19435389908904 75.8901267767651,43.57997600072122 75.79331540531712,42.90092387415643 75.65501344599761,42.205700717328 75.48905109486077,41.18711224732397 75.33691893960349,40.23318991147971 75.1986169804004,39.31159827679221 75.0603150211391,38.4223379274481 74.88052247406449,37.58157793401915 74.61774875142146,36.595295898092445 74.28582404914778,35.641344928357285 74.02305032656295,34.97842634416884 73.96772954281187,34.81673844883335 73.84325777943013,34.655050382585614 73.45601229346357,34.99459512431349 72.8889742604224,35.35030785489653 72.16980407218216,35.65751363840536 71.43680368800415,36.01322482746036 70.73146369570168,36.30426063963387 69.95697272376856,36.611464507339406 69.12716096814256,36.9995106162678 68.38033038802678,37.29054455195728 67.79946215904783,37.387555740817334 67.48136765271192,36.72464472413412 67.10795236262493,36.48211558560433 66.61006530927261,36.72464472413412" stroke="#4dd2ff" stroke-dasharray="none" stroke-linecap="round" stroke-linejoin="round" stroke-width="0.5"><title>2024-05-25 18.7km</title><desc>1716643451000</desc></polyline><polyline fill="none" opacity="1" points="180.33416485709313,105.13142674001938 180.46458541166066,104.91186554884553 180.54118161037331,104.86843561538626 180.52876060517156,104.86602283890716 180.58879546362732,104.89256336628205 180.6509004896143,104.8539589527445 180.57223412335588,104.8539589527445 180.61363747402356,104.86119728520316 180.64261981947493,104.68747668006654 180.80409288701776,104.81776725643795 180.66746182987117,105.06386967277285 180.62812864674197,105.16520519952792 180.61156730648509,105.2544766046758 180.62191814414837,105.38235125950087 180.73991769351414,105.44508196336392 180.73991769351414,105.50057436705538 180.69023367272894,105.57054285989761 180.6509004896143,105.65740000439655 180.54532194543572,105.73219339482966 180.5391114428494,105.90590614124267 180.5494622805054,105.96863542300707 180.51219926491467,105.77562170392775 180.61984797661717,105.5994952776964 180.53497110777244,105.5922571766514 180.52047993503948,105.46920911178859 180.59293579868245,105.31479492630933 180.62191814414837,105.15555421613863 180.4894274220569,105.30273127458531 180.2617089934647,105.2375874463869 179.9553241986141,105.13625223725467 179.72760577000736,105.05663140383876 179.82283347651537,104.7260813719331 180.01121872199292,104.45825999289627 180.24307748566207,104.15424277119928 180.43974340126442,103.95638814339327 180.58258496102644,103.8067896163011 180.47493624932395,103.75129314203514 180.1913232973311,103.5027638166448 179.92013135055458,103.19873401354562 179.71725493234408,102.96467659635528 179.5371503569986,102.86091842550559 179.33841427385778,102.66305271411875 179.0237488088751,102.33005537119607 178.7525568620913,102.00911860382075 178.46066323998093,101.68817737442805 178.18533095812018,101.39136309288915 177.90792850874277,101.1186766898536 177.72368359831307,100.97147295638388 177.4752634943943,100.73497974674501 177.25375556839572,100.50572381206803 177.1067736735713,100.34644992737412 177.0032652969312,100.24750650611895 176.7300031826162,99.95791356722839 176.62235447090643,99.81311573508174 176.43396922543616,99.66831699442628 176.1772684513635,99.41250366557506 175.96404119549697,99.19047470408441 175.69905975132133,98.910522099035 175.44856947984954,98.64021980932557 175.17737753306574,98.37474126412235 174.93102759667818,98.12132707612545 174.68881799534574,97.86791010485831 174.4424680589509,97.63862568482546 174.18369711734704,97.38278985282705 173.99945220693917,97.19935864216677 173.8172774640625,97.02558036043774 173.5067523341495,96.70456981433017 173.13205201073288,96.31114478239942 172.81945671329595,95.98771058966122 172.60622945742216,95.76323493923883 172.42405471453822,95.69565044458432 172.05349472617672,95.49048201566438 171.71191708327387,95.30944953343533 171.30202391179773,95.09703627597264 170.9521655987628,94.89669016096377 170.60851778833603,94.72772220515799 170.23588763244334,94.5466837359836 169.8404856336856,94.3463328402122 169.49890799079003,94.17253306301973 169.16147068294958,93.99873197604393 168.7847001919945,93.82975744128089 168.43691204649804,93.65353982190936 168.0829133984007,93.46042307615608 167.7289147502961,93.28661662223203 167.49498581910302,93.1610889241274 167.24242538011458,93.04280258327162 166.9132687424135,92.86899298158096 166.53442808391992,92.6806977679662 166.15351725788787,92.48033065969867 165.79330810719694,92.2872040881557 165.43102878896752,92.09407589896364 165.0480477954261,91.90818848901836 164.7002596499151,91.7319561839522 164.34626100183232,91.55572253179344 163.9901921861965,91.35293145689684 163.59064985238365,91.15738123100891 163.25114237700473,90.99080010064245 162.97166976008884,90.84353172207557 162.60110977172735,90.65280570247705 162.24711112363002,90.47173523636411 162.0835678885487,90.38482090743491 161.96142800412053,90.34136362008394 161.59086801575904,90.14821912952539 161.18304501180683,89.94300133506113 160.79385351565725,89.74261043152 160.41708302470215,89.53980340595808 160.0341020311389,89.35148099868638 159.63870003238844,89.14384168919423 159.25985937390215,88.95068716375317 158.9100010608745,88.77684670681992 158.5415112400442,88.590932544932 158.18751259194687,88.40984588051288 157.93909248801356,88.33741081632616 157.79832109579002,88.50401112358668 157.73000556721672,88.68509704812823 157.66169003862888,88.82755030887711 157.5768131697987,88.97483156795533 157.51677831134293,89.09555320958862 157.47330479315133,89.20420214642945 157.45674345289444,89.25007598820594 157.50021697107877,89.11245418895669 157.51677831134293,89.09555320958862 157.5333396516071,89.10038206210265 157.65754970356647,88.81306357681387 157.73414590227912,88.63680760737043 157.56439216459694,88.54988635903828 157.32011239574058,88.49918214612262 156.9495524073791,88.41950387186262 156.6949218008449,88.33499631025916 156.48997521511046,88.30843672690207 156.0428190280436,88.2698045510133 155.58117166824377,88.2553174683635 155.13608564870083,88.21909972188405 154.73861348241917,88.07422816678445 154.4653513680969,87.9438429885231 154.1796682485874,87.80621338893434 153.80496792515623,87.62753513865937 153.38472391600953,87.43436790419582 152.95412906920683,87.29673526175793 152.52974472499773,87.16876031282845 152.14883389898023,87.05768713950783 151.91283480024867,86.95385738461664 151.65199369112088,86.80656320876187 151.2835038702906,86.59165690245754 150.9025930442731,86.39606627466492 150.51754188317864,86.25842743017711 150.12421005195938,86.10629932965094 149.81575508958485,85.95175546884457 149.46589677654993,85.78030716034482 149.0911964531333,85.64749421339002 148.71442596216366,85.53399890657602 148.36870798420568,85.42050304064105 148.1513403932695,85.32391037389243 148.04576184910547,85.10899023732054 147.95053414259746,84.94236538081714 147.9360429698645,84.56564387126855 148.02091983870923,84.18167137749333 148.15755089587037,83.79527750117995 148.20309458159318,83.40646212026877 148.2507084348399,83.09250702302779 147.95053414259746,82.91620728438102 147.6006758295698,82.7157552570643 147.51786912825628,82.44526300883444 147.42471158927947,82.22548571779771 147.05415160092525,82.02261251058917 146.71878446062328,81.83905902118386 146.40411899564788,81.65308886218736 146.40411899564788,81.35360129348192 146.41446983331116,80.90677792186216 146.41446983331116,80.55172830375159 146.41861016837356,80.28121063411163 146.42275050344324,80.03242818587933 146.42275050344324,79.85127422632104 146.41654000084236,79.59765628820969 146.42482067097444,79.12422866150155 146.44345217876253,78.60489634242731 146.45380301643308,78.18459091057048 146.4579433514955,77.72804355600056 146.4620836865579,77.29564379618932 146.46622402162757,76.8753144554139 146.48071519435325,76.46464044386084 146.45173284890188,76.35834715290002 146.3295929644737,76.24963759749517 145.9134892903894,76.22064829599367 145.5056662864372,76.18682739808355 145.13717646562145,76.1626695834384 144.67966944087675,76.12643281390228 144.29668844733533,76.09502756749134 143.86816376805655,76.06120648495562 143.46241093163553,76.02738535271783 143.13532446146564,76.00322737068927 142.85378167701856,75.98148516517722 142.474941018525,75.95974293911968 142.07953901977453,75.92350585004169 141.70069836128096,75.88485289213168 141.34669971318363,75.86069476046941 140.95129771443317,75.83653660344135 140.59522889880463,75.79546767829197 140.56417638582207,75.39685371419 140.58487806114135,75.0441349935918 140.59315873127343,74.650339896878 140.59729906633584,74.31935352883374 140.6055797364752,73.90863389707374 140.61386040659272,73.5341478422506 140.62007090920088,73.21764197164703 140.6159305741312,73.14515909838701 140.6180007416624,72.88180273649778 140.62628141179448,72.79723812757766 140.6159305741312,72.50005146450894 140.6159305741312,72.33333531386961 140.6573339247916,72.17145035908288 140.63663224945776,71.89841792868174 140.63042174686416,71.5867220771288 140.64284275205137,71.14937426456345 140.63249191439536,70.73618167424502 140.62835157933296,70.39305703900209 140.66561459492368,70.06442582795898 140.62214107673208,69.70195948676519 140.63042174686416,69.33465443255227 140.62007090920088,69.0640048485966 140.6014394014128,68.79335207877557 140.6014394014128,68.62419247973594 140.6055797364752,68.96734351082159 140.57038688841567,69.12441797835527 140.42961549617758,69.32015542846239 140.08182735069568,69.37331839877152 139.70091652466363,69.3467369289774 139.6098291532253,69.160665780013 139.35933888176805,69.0640048485966 139.0777960973137,69.05433873310358 139.16474313368963,69.05675526236337 139.53116278698872,69.10750231802194 139.89965260780446,69.17758140123078 140.26193192603387,69.23557772236381 140.56417638582207,69.25732630507446 140.56417638582207,69.61738318503194 140.5600360507524,69.91702353849723 140.2867739364301,69.98226729136331 140.04456433510495,69.96776869561836 139.66986401168106,69.96051939431527 139.24754983500316,69.94360434905502 138.8728495115647,69.92668929135289 138.46916684269672,69.91219066055783 138.04685266601155,69.90010846124096 137.6535208347923,69.8880262555831 137.24155749578495,69.87836048648387 136.81096264897496,69.87111115699554 136.39485897489794,69.84453026264782 136.30377160345233,69.58355257723633 136.2934207658036,69.160665780013 136.28514009565697,68.79818519188848 136.28099976059457,68.67010735110489 136.2561577502056,68.35836773807387 136.23338590734056,68.0611237052417 136.20440356188192,67.68895909147432 136.17335104889935,67.33612214076129 136.1464388709719,67.06786576670856 136.13194769823895,66.81894038517567 136.09468468264822,66.44433885658873 136.0594918345887,66.08181543544742 136.03671999173093,65.7289538142577 136.00773764627957,65.39058826748442 135.97875530081365,65.18756654822937 135.93942211769172,64.82018935437918 135.91250993977155,64.39721491713499 135.8855977618514,64.0370762599232 135.84419441119826,63.63342421090965 135.7882998878049,63.24668505739828 135.73240536442609,62.893779899706715 135.71170368909225,62.60613401494993 135.62061631764664,62.20729132533961 135.5626516267439,61.8664566310872 135.5067571033578,61.513530271193304 135.4632835851662,61.228284456597976 135.41981006698188,60.90435694831467 135.39496805659292,60.59492939098345 135.37633654879028,60.2806627614209 135.3494243708701,59.920459566617865 135.32458236048114,59.586843514991415 135.3018105176161,59.24838749607079 135.23142482150433,58.88333291291201 135.14861812019808,58.515854888859394 135.06581141888455,58.18705377737933 134.98300471757102,57.87517190166909 134.8857068435318,57.5439438758749 134.7759879642981,57.205457745305466 134.67247958765802,56.903233769078724 134.58139221621968,56.625184197269846 134.49444517985103,56.3277883195351 134.3971473058118,55.98444845001359 134.31227043696708,55.61692402622975 134.20876206033427,55.36303858667998 134.08869234343,55.03419231956832 133.94585078367527,54.66907072431968 133.88374575769558,54.48288065496672 133.73262352781603,54.17820273809775 133.62704498363019,53.86143013921719 133.5483786173936,53.622034205873206 133.36620387451694,53.24479918254656 133.22750264981732,52.90383142233259 133.08880142512498,52.54593073494652 132.95217036797112,52.207370893022016 132.84659182379983,51.93651942287033 132.73480277702038,51.65599131545787 132.62508389779396,51.36094943299031 132.5464175315501,51.16505887434687 132.31662893541943,51.29081596839933 131.96263028731482,51.418990758818836 131.5982808015542,51.54958320508376 131.2815451690476,51.672919832972184 130.96066920148587,51.70677683053145 130.87372216510266,51.31741834227614 130.7929856313276,50.93047168365956 130.71224909754528,50.58463258462325 130.63358273130143,50.192836537553376 130.55491636506486,49.80345235504501 130.43898698323028,49.44550330081802 130.32512776893418,49.099641814224015 130.27337358061777,48.91098789621901 130.12639168579335,48.53851278413822 129.99804129874974,48.168450351515276 129.86969091172796,47.77661303225432 129.7392703571677,47.389606639500926 129.65646365586144,47.15014316329507 129.51983259869303,46.751031812860674 129.38941204413277,46.37126486638044 129.2631318246422,45.98907267224786 129.14099194020673,45.62864508297571 129.02713272591063,45.31175440116385 128.90706300900638,44.98518308541679 128.7766424544534,44.590872260621836 128.66278324014274,44.259452395373955 128.5654853661108,43.96673451510469 128.44748581674503,43.62320959093631 128.32741609984805,43.27000254059385 128.25703040373628,43.05952725831412 128.13075018423842,42.706311521864336 128.02103130499745,42.37486440787325 127.91131242576375,42.07244497603642 127.76640069848509,41.65872872966247 127.62976964132395,41.25710230525874 127.5159104270133,40.915956259561426 127.39998104517872,40.5772246645156 127.27784116074326,40.2191315336313 127.15570127632236,39.86587201569637 127.03977189449506,39.52470525654098 126.95903536070546,39.25854326437366 126.87415849187528,39.00931605032383 126.72717659705086,38.614902394579985 126.61745771780261,38.29549494881758 126.50566867103771,37.96882363643272 126.38766912167193,37.617949260111345 126.26966957230616,37.27674902264516 126.14338935282285,36.904084800153214 126.04816164631484,36.56045397512207 125.97777595020307,36.25795778489919 125.88875874629593,35.90705719883954 125.80388187744393,35.568251531343776 125.70658400341199,35.20281979980791 125.69830333327991,34.922086826840314 125.5989352917095,34.80350031292619 125.37949753323483,34.890625158508556 125.06069173319702,34.98016979327076 124.67978090717224,35.091495067141295 124.29887008114747,35.212500185769386 123.94901176811982,35.32140424584577 123.59294295249128,35.43756800576739 123.23480396933155,35.58035182006461 122.86838431603246,35.73523495102745 122.51852600300481,35.81993622020855 122.22249204582477,35.95545759932429 122.0403173029481,36.02805800824717 121.87884423538344,36.09581818227525 121.57245944054011,36.185358104750776 121.21639062491886,36.26763772486811 120.89965499240498,36.3353971900724 120.82512896122353,35.97239771532804 120.78372561057768,35.64327321835117 120.74025209239335,35.37222596331776 120.69884874173295,35.10843582224334 120.63260338068358,34.71395498730453 120.57463868976629,34.4065940437049 120.46077947547019,34.06534595825178 120.34070975857321,34.08228747254361 120.03018462866021,34.22992013793191 119.69895782342792,34.35819036948487 119.47123939482117,34.307366401430045 119.2994154896005,34.3291481158376" stroke="red" stroke-dasharray="none" stroke-linecap="round" stroke-linejoin="round" stroke-width="0.5"><title>2024-05-01 58.8km</title><desc>1714551575000</desc></polyline><polyline fill="none" opacity="1" points="19.1810571775859,114.22295131991814 19.44720743859216,114.1127009352349 19.711262028256897,114.00245002615702 19.81394992423884,114.23275132873096 19.868437379256648,114.48265015365541 19.90825513483287,114.75459581381983 19.956455575804284,115.03388803596317 20.006751688124496,115.32297644119353 20.048665115049516,115.6414594938833 20.073813171205984,115.83989672212556 20.096865556013654,116.18287064281321 20.096865556013654,116.29311118268924 20.128300626216515,116.38130323718906 20.417503272052272,116.31515922776089 20.769576058271923,116.23676608335336 21.07344840352016,116.16817186455592 21.364746720682888,116.08487861176582 21.471625959362427,116.03343262966519 21.744063234422356,115.92809050061442 22.043744236965722,115.83009739270346 22.37066896703618,115.64635919898319 22.68292399767961,115.46996916302851 22.965839629454422,115.31562678063347 23.278094660090574,115.32787621360694 23.575679991299694,115.24702983640782 23.84392592365475,115.17353288519917 24.16875498238369,115.08288632446965 24.46424464224401,115.00203909288393 24.753447288065217,114.91384179140368 24.975588450804935,114.88934248144142 25.048936947932816,115.19313209497159 25.139050815821975,115.55816434876033 25.21868632699625,115.88644348035996 25.2983218381778,116.21471796372498 25.369574663956882,116.50869116813192 25.39681839145487,116.64097789410152 25.484836588009784,116.89819992292541 25.59800284072844,117.21666133858525 25.683925365934556,117.47877629927098 25.77823057652131,117.75313644889138 25.868344444432296,118.02014454918572 25.97103234041424,118.3018470103234 26.084198593132896,118.63988544688073 26.17640813237813,118.95832294538195 26.22670424469834,119.08814620939847 26.316818112587498,119.31104860923733 26.404836309149687,119.55354439149596 26.49704584839492,119.83522822831765 26.574585688220395,120.08016791452974 26.629073143230926,120.23692795632451 26.73176103921287,120.479414059173 26.788344165572198,120.65086734958095 26.83025759249722,120.81252214845154 26.924562803083973,121.08684286572134 27.025155027738947,121.41259450436155 27.134129937752732,121.73834156905832 27.24100917643227,122.05428736017893 27.29968797413312,122.20123742497344 27.4149498981933,122.52697341716157 27.51135078012885,122.85025574509382 27.58260360591521,123.04373316564852 27.668526131121325,123.22741276834131 27.73768328555161,123.44047928596046 27.825701482121076,123.72456493291247 27.909528335971117,123.99885122313572 27.995450861177233,124.25844061893986 28.054129658892634,124.45925306526442 28.10652144254709,124.58904555119807 28.21759202391695,124.89515703006691 28.326566933945287,125.2061621578141 28.44182885799819,125.5710368768614 28.563377796097484,125.9334570941428 28.67235270612582,126.2615894368646 28.783423287481128,126.58481974685856 28.907067896943772,126.9398781576001 29.00975579291844,127.26309902334833 29.137591745056852,127.6230442367796 29.25704501180735,127.96094690970676 29.384880963953037,128.308638729397 29.4917602026253,128.64897990450118 29.594448098592693,128.9085173040712 29.615404812066117,128.9501409567074 29.709710022660147,128.92075956258486 29.747432106902124,129.00400674936645 30.021965053303575,128.90362039884712 30.361463811437716,128.78119743281786 30.698866898244887,128.66856773398104 30.84975523519097,128.8424089965174 30.98597387272457,129.12153168143777 31.153627580439206,129.41044461095407 31.30870726009016,129.68711209788307 31.46378693972656,129.97601799083532 31.59790990590409,130.00050137588732 31.650301689565822,130.29674828924726 31.729937200740096,130.6664395500793 31.830529425373243,131.02878024096935 31.91226060790359,131.3078766488452 31.983513433682674,131.44497541033888 32.09039267235494,131.68979261453205 32.19517623967113,131.94195163722725 32.29995980700187,132.22593327862705 32.440369787218515,132.5760093173194 32.56401439667388,132.8942556835882 32.68137199207558,133.18801769058337 32.823877643641026,133.51359957504428 32.91399151154474,133.72901966707104 32.78405988805753,133.78532231643294 32.742146461132506,133.81714549267053 32.76519884594745,133.7877702546175 32.746337803822826,133.77797850033676 32.941235239042726,133.7755305611263 33.04182746368315,134.0570418799507 33.16547207313852,134.37771583526774 33.312169067387,134.72041593346876 33.465153075696435,135.09982800370017 33.586702013788454,135.43517415977112 33.68519856708008,135.74603817185198 33.78788646305475,136.11319503464256 33.880096002307255,136.43139295706715 33.966018527520646,136.6321001751494 34.07289776619291,136.98700503802684 34.16720297678694,137.3027434296764 34.265699530078564,137.64295286501874 34.353717726618925,137.9758148313049 34.450118608576304,138.2841973993527 34.542328147821536,138.6268398990669 34.61567664494942,138.95479298993996 34.678546785340586,139.26071520993537 34.72255588362168,139.54950209189155 34.74141692573903,139.7868920118999 34.76446931055398,140.10503965010685 34.793808709400764,140.5137306126362 34.82314810825483,140.69971933092347 34.83572213633306,140.8930481322368 34.87134854922624,141.2797009128317 34.91745331884158,141.63698194435347 34.974036445208185,141.9967045606154 35.02433255752112,142.3392923554802 35.08510702657077,142.70389810791494 35.10606374004419,142.85071760201936 35.15007283831801,143.05626333672808 35.1961776079479,143.35723774243888 35.244378048919316,143.69491170810397 35.267430433726986,143.88821561254554 35.290482818534656,144.14024234123826 35.29257848989073,144.26503126413445 35.330300574118155,144.42162818103498 35.361735644321016,144.76662704406772 35.384788029128686,145.09449356236837 35.39736205720692,145.4199087466095 35.39736205720692,145.49820344997715 35.424605784712185,145.66702550751506 35.45604085490777,145.94349956467158 35.48118891107151,146.22731022379776 35.497954281840066,146.47686501200587 35.52519800935261,146.76556231019458 35.54825039416755,147.09340066149707 35.56292009358731,147.32092754838413 35.598546506487764,147.62673975207872 35.617407548605115,147.87138662156758 35.63836426207126,148.07933443853835 35.66560798956925,148.39736868230466 35.68656470304268,148.6493465743133 35.70123440246243,148.8548410880103 35.71171275919187,148.99428276044637 35.707521416508825,149.27560990752318 35.71380843054067,149.566718766946 35.72428678727738,149.8651627256586 35.734765144006815,150.13424826056507 35.75781752882176,150.39354592406926 35.76410454286088,150.8167330770939 35.7682958855512,151.20566708690967 35.7682958855512,151.57991820738607 35.7682958855512,151.94927125796494 35.770391556899995,152.37487611673168 35.77667857094639,152.67573003049802 35.7682958855512,153.04261978667455 35.738956486697134,153.18203637834995 35.79973095575406,153.36547799047366 35.80811364112742,153.64675232251648 35.83116602594964,153.95492725568874 35.84793139672547,154.23374868133033 35.8667924388501,154.5492531109703 35.864696767494024,154.8941019010963 35.8458357253694,155.19003189845716 35.81440065518109,155.5299798997239 35.79553961306374,155.7623156076079 35.77877424228791,155.8576948588543 35.919184222504555,155.86503170815558 36.2565873092899,155.90660714389378 36.59818173878739,155.95062811262505 36.939776168277604,155.97997537889205 37.33585805277107,156.0264418081988 37.652304426112096,156.05089778640286 37.995994526936556,156.0875817055512 38.27681448737712,156.08513611274248 38.57649548993504,156.11692879928705 38.87827216384176,156.13404792022448 39.184240180431516,156.16094937055823 39.49020819702855,156.18295962499542 39.812941584401415,156.2074154388847 40.06861348867824,156.23676238164444 40.2530325671687,156.23431680448812 40.567383269168204,156.26366371336007 40.89221232786804,156.29545615625284 41.22123272928002,156.33213969029202 41.5125310464573,156.34681308772633 41.82269040574465,156.37371429236737 42.08464932406059,156.40550658507163 42.31726884353702,156.38594210238807 42.67562864379579,156.425071051317 43.006744716542016,156.45930882771972 43.352530488729826,156.49110100360485 43.706698946291,156.52533868296086 44.03362367635418,156.5473485931234 44.412940190086374,156.579140648857 44.77758700438426,156.6035960468289 45.01439786655101,156.61826927328002 45.265878428130236,156.6378335608515 45.43353213585215,156.64761569847542 45.70177806821448,156.65984336472684 46.01403309885063,156.6940807960873 46.047563840395014,157.01688838950213 46.03708548366558,157.3030095625909 46.03289414097526,157.6429267311778 46.02451145558007,157.9755027582869 46.01822444154095,158.27383897869913 46.007746084811515,158.63085927084285 46.00565041346272,158.9511947400424 46.00565041346272,159.30820465440956 46.00355474212847,159.611414259085 46.00355474212847,159.90972953624623 45.99517205673328,160.1640280689935 46.0014590707724,160.3498598574406 45.988885042694164,160.7581955560072 45.98259802864777,161.2423208280452 45.97421534326713,161.71665603913425 45.961641315196175,162.13963754480392 45.95116295845946,162.5406071459838 45.94487594442762,162.8633337668998 45.89667550344166,163.21539407645832 45.804465964196424,163.56744906978747 45.659864641282184,163.8779376037346 45.48592391951388,164.16641930780497 45.43981914989854,164.24465101914757 45.506880632987304,164.2006457138159 45.601185843581334,164.27887731030933 45.796083278815786,164.4084478146542 46.03079846962646,164.59669047208263 46.29904440198152,164.7653741598042 46.42268901142961,164.86316124613222 46.642734502813255,165.08318069109737 46.90469342114375,165.2689732724466 47.14779129733506,165.4645428115964 47.40765454430948,165.52321335352826 47.59416929415602,165.51587954385832 47.67799614800606,165.61366348315096 47.791162400724716,165.826342135475 47.85403254113044,165.8947900248204 48.180957271186344,165.95101492649337 48.50159498721041,166.087909772501 48.826424045924796,166.16613503801818 49.09466997827985,166.2761388737472 49.356628896610346,166.40325377108093 49.576674388001265,166.50347849013633 49.80510256476555,166.61592522323008 50.050296112312935,166.7259269375645 50.345785772180534,166.8334836677368 50.65594513146789,166.94348435603024 50.82569451054587,167.02904008827136 51.06040970134927,167.1561508824161 51.328655633711605,167.317482815919 51.53822276836581,167.43970323479698 51.810660043418466,167.57170056789255 52.17321118637483,167.6841421514 52.48337054566218,167.77702826809582 52.7809558768713,167.86746965790553 53.086923893475614,167.95546634928178 53.340500126410916,168.08746076394164 53.54378024701873,168.18278959893905 53.73029499685799,168.26834078586216 53.927288103433966,168.36366888171688 54.1976297071451,168.49566098674222 54.52245876585948,168.65209510715067 54.885009908815846,168.76697574630634 55.228700009640306,168.79875114237257 55.5262853408567,168.8280822387842 55.77776590243593,168.8280822387842 56.087925261723285,168.83785926272867 56.299588067733566,168.87696731753022 56.50915520239505,168.8989655695459 56.8214102330312,168.98451413020484 57.121091235581844,169.02606617505808 57.45220730834262,169.13116807582082 57.575851917790715,169.1776082997476 57.90277664784662,169.32670523599882 58.1982663077215,169.47091284167436 58.47070358277415,169.5784569165462 58.617400577022636,169.6444496261629 58.83535039706476,169.72755129127472 59.14550975635939,169.8473149350557 59.46614747237618,169.986631053338 59.79935921647848,170.1137257339251 60.08646619096544,170.23348739558423 60.39662555025279,170.31169876120475 60.763368035899475,170.4974497039202 61.11753649346065,170.67342291729074 61.43817420949199,170.83473053045418 61.70432447049825,170.9667086573063 61.93065697592829,171.09379799993258 62.19471156558575,171.22821866684535 62.45876615525776,171.3577505769572 62.712342388193065,171.487281768108 62.94286623631342,171.59481655042327 63.22368619674671,171.75122989473493 63.49612347179209,171.90764219076118 63.76227373282018,172.03717032991517 64.05776339267322,172.1886929011307 64.37001842331665,172.34754615340353 64.65083838374994,172.49662283750513 64.91279730206588,172.62614770802793 65.19571293386252,172.78011029836307 65.49748960775469,172.92918421969625 65.77830956820253,173.0635943161633 66.07799057075317,173.21266642700357 66.37138455927197,173.36418136736938 66.65430019105406,173.51080779262884 66.8785370251353,173.6256645157755 67.11953922999965,173.7478518987391 67.40664620447205,173.88714473517211 67.68746616491262,174.03376787560956 67.98086015342415,174.192608571846 68.30568921213853,174.34900450912573 68.60327454335493,174.5053993986785 68.90924255994469,174.67401146530574 69.19844520576589,174.845065940719 69.49393486564077,174.9819086186999 69.84181630916282,175.16273521297626 70.16874103921873,175.3288989567318 70.48518741255248,175.49261795942948 70.73666797413898,175.6221262080344 71.04892300478241,175.77606904081404 71.36536937810888,175.94222841976807 71.6671460520156,176.08639515819232 71.9584443691856,176.2330044878072 72.27069939982903,176.43581254302262 72.43416176485334,176.58486312329296 72.50541459063243,176.6337319589038 72.76318216625805,176.80965892031418 73.03561944130342,177.06866009046826 73.25985627539922,177.2958946004983 73.46523206735583,177.51091016548708 73.6622251739318,177.69904716096607 73.90532305013767,177.95070856456914 74.17776032519032,178.22924326719294 74.45229327157722,178.51021789120023 74.72263487528835,178.79607556174233 74.98040245091397,179.0550547043149 75.23188301250775,179.31158781661907 75.48126790273818,179.56567497928518 75.73065279298316,179.80754384537795 75.96746365514264,180.0542963705666 76.20008317461179,180.28638795124425 76.40336329523416,180.52824935560966 76.62969580065692,180.72613409680162 76.73867071067798,180.83606933989722 76.77848846626148,180.86782831382152 76.81201920779858,180.8947012580411 76.92518546050997,181.01196465289286 77.1200828957517,181.21473121778035 77.22067512038484,181.31000646588654 77.40928554156562,181.51765630156297 77.59580029141216,181.71797557065838 77.83051548223011,181.9451648584618 78.0316999314964,182.1674662169462 78.1553445409445,182.26762328079894 78.39215540311125,182.4777074347494 78.63315760796104,182.74153137146277 78.86996847012051,182.99313846222685 79.1172576890167,183.24474284409007 79.3645469079056,183.5036726806411 79.39598197810847,183.56962604851833 79.53639195831784,183.69664682519578 79.71452402278373,183.85786450913474 79.94714354223834,184.08747565433805 80.16509336228773,184.30242872467534 80.3704691542589,184.527150275464 80.4081912384936,184.6199694159459 80.5024964490949,184.6956900207042 80.57374927487399,184.89598205073526 80.70577656970272,185.0523063450928 80.81684715107258,185.18176161001247 80.75816835337173,185.24526770426746 80.62404538717965,185.42357235436066 80.51716614850739,185.57012310325808 80.46058302215533,185.65805311159784 80.39561721041537,185.85589442110359 80.28035528634791,185.9829027743708" stroke="red" stroke-dasharray="none" stroke-linecap="round" stroke-linejoin="round" stroke-width="0.5"><title>2024-05-01 52.5km</title><desc>1714541844000</desc></polyline><polyline fill="none" opacity="1" points="186.0,148.2135002605064 185.78213605289784,148.2539252857432 185.54467587775434,148.29435018283948 185.2657178079171,148.3132150909696 184.98675973807985,148.31995255139464 184.7550631594131,148.29704517142818 184.58561342277972,148.31995255139464 184.315877107314,148.32669000826445 184.03576631818578,148.32669000826445 183.75565552905027,148.33477495180432 183.49859912585816,148.34151240083702 183.22540465250495,148.34959733498363 182.9602792142323,148.3213000430551 182.74126254783187,148.29839266550516 182.45769360080885,148.27952773545167 182.19372088183445,148.359029751673 181.99084228558786,148.40484424779152 181.78565825075202,148.4196665495365 181.60813947903807,148.2808752313831 181.49056211076095,148.00328806357356 181.42716254943662,147.8752725280592 181.32341781272407,147.62058516724483 181.2726981636588,147.46426659587814 181.18624421639106,147.24460881319646 181.11938649717922,147.0788522756593 181.02140535694343,146.82953960413943 180.9211187781184,146.5802220571586 180.8162213221076,146.3942414686153 180.4980707961804,145.7769820975709 180.32977377884527,145.59098978930797 180.2721378139977,145.39556016447204 180.15340772642958,145.45890664696344 179.94246009510243,145.6152498095189 179.73958149885584,145.5047315656975 179.63814220073255,145.48181912692598 179.39030755191925,145.4508198794938 179.14708378028445,145.47642795887623 178.95573237700592,145.5451651807025 178.69637053521728,145.62603202590435 178.6145274651426,145.64624865703627 178.38513632507238,145.73789698266773 178.09926193945284,145.8403266844407 177.93442308000522,145.9036709565171 177.7718896591541,146.00609932616044 177.62318886986031,146.07483369168403 177.46065544900193,146.1853469925736 177.23241702822997,146.2662097764669 177.06873088807333,146.31337949686258 176.79668913401838,146.3969368588405 176.62493395878846,146.4508445436577 176.40245913450053,146.51822882911347 176.21456588911678,146.60448019476735 176.03935255599936,146.7945006757809 175.76846352124267,146.9050077381471 175.63128992491693,146.95621800323897 175.3719280831283,147.0653760396799 175.09988632907334,147.19339970642886 174.94196378540073,147.26751808384597 174.69412913658016,147.39014936214608 174.5984534349409,147.41440595879703 174.3702150141762,147.5720727122407 174.14197659339698,147.7324326240905 173.98059589183686,147.841584015644 173.80192440082465,147.9130035563021 173.4849265941957,148.03562862710623 173.32815676982864,148.08279180190402 173.0491986999914,148.12321724147387 172.86015273530938,148.1353448483569 172.61692896368186,148.18655017249148 172.35180352540192,148.14881995359065 172.09013624501677,148.07201166304094 171.97255887673964,148.0127207364112 171.73509870159614,147.82002332099273 171.52876194746204,147.82271840981502 171.33279966699774,147.98846527788282 171.08496501817717,148.11243713678596 170.85787931670347,148.18789767824273 170.58929572053603,148.29569767720568 170.31494852788455,148.38867444442621 170.13166615968657,148.45604848987023 169.97028545812645,148.54632915276215 169.77547589696042,148.62852442438543 169.55876466915652,148.66490576893648 169.31669361681998,148.70667681432406 169.10459326620185,148.75114261554518 169.0020012487803,148.77135429212285 168.72189045964478,148.88453908908468 168.5455244072291,148.98694351612085 168.2711772145849,149.13381158818356 168.04293879381294,149.2483405626008 167.88040537295456,149.33053131046108 167.61643265398016,149.46392172489323 167.38358335601515,149.6242578518486 167.26370054914878,149.7064461776772 167.0527529178289,149.76438189245437 166.77725300587917,149.84252732349796 166.45333888346795,149.93953477886134 166.28043098893977,149.98399628272 165.9784185331664,150.06348767618056 165.72943116504757,150.17261912148024 165.44932037591207,150.3154317015278 165.28793967435922,150.39896284703354 165.06661756936228,150.50000785667362 164.85451721875143,150.59431581037097 164.6597076575781,150.6697616714573 164.46605081571033,150.75194326251403 164.3277245000936,150.8125686871581 164.2942956404804,150.83008264509226 164.09256976353208,150.90956876745622 163.84934599189728,151.03890106084964 163.62110757112532,151.14532977745057 163.3721202030065,151.28543711425118 163.11621651911264,151.43362589272965 162.95714125614177,151.49424807887044 162.7254446774823,151.61010301133956 162.50066441459785,151.73269255048672 162.3162293271016,151.82025578608864 162.16061222202552,151.77849493327813 162.05110388882895,151.54139846900125 161.91854116968898,151.30295042319267 161.8263236259445,151.16419047008003 161.69030274891702,150.95672131792344 161.55197643329302,150.75194326251403 161.43555178431416,150.5821905410885 161.3087526616655,150.57949603524048 161.09780503033835,150.72499853688169 160.889162837615,150.82873541841127 160.7035750308205,150.91495763918283 160.4027152943454,150.94863803593125 160.25516722434259,150.90822154916714 160.01770704920636,150.79236024428246 159.71800003202225,150.63473329143198 159.3710315236749,150.56467624289053 159.08976801524113,150.520216762573 158.81426810329867,150.51482772413146 158.55375354221178,150.47171533463734 158.35779126174748,150.43803367898 158.14914906902413,150.40435193441226 157.9439650341883,150.38683739209682 157.67077056083508,150.35854461910822 157.39181249099784,150.33025178338175 157.1151598597571,150.3100425765906 156.8615616144525,150.28444420203778 156.61949056211597,150.25884577612123 156.37626679048117,150.24402561132865 156.13995933462866,150.3127371393448 155.9728150365845,150.39222648460145 155.8782920542435,150.25345662727887 155.7561038087806,150.058098444817 155.62699924753542,149.85330596607764 155.5059637213635,149.65524695491968 155.40682986183674,149.509732252518 155.2961688093419,149.33187869535232 155.1924240726221,149.15941227170788 155.03795968685154,148.9182248466177 154.88003714317892,148.67703286072447 154.73364179248165,148.44796362321267 154.62874433647085,148.3334274615654 154.39243688061833,148.4385312722934 154.27947038952698,148.50859999824024 154.03163574069913,148.62987188344323 153.8598805654765,148.69859210653703 153.67314003938372,148.786176167926 153.42876354845794,148.85624298401035 153.1705544259603,148.99637546147187 152.98957749635883,149.09743158111178 152.89735995261435,149.14593823415544 152.68525960199622,149.2294770375538 152.4731592513781,149.31301529384564 152.266822497244,149.38577397454264 152.05933302381163,149.46392172489323 151.74002977858618,149.8398326614306 151.60285618226044,149.90585171823568 151.4921951297656,149.92067227586813 150.66684811322193,149.85330596607764 150.44898416611977,149.89507312005026 150.1804005699596,149.93953477886134 149.90490065800986,149.97725970118518 149.66167688638234,150.00151137806097 149.42536943052983,150.023068385467 149.183298378186,150.0324995647543 148.9631289924946,150.0392361171198 148.67840732617333,150.0432780468327 148.37408943180344,150.0500145935057 148.32336978274543,150.0554038282835 148.02942636205262,150.051361902415 147.70320680105215,150.06752959821097 147.4081106610538,150.06348767618056 147.08189110005333,150.06079306078573 146.77526776708692,150.0500145935057 146.4674917148368,150.04731997526324 146.2012135572586,150.0419307370721 145.90611741726752,150.0405834271669 145.62831206672854,150.04462535644961 145.34935399689857,150.0432780468327 145.0842285586259,150.0419307370721 144.82256127823348,150.0432780468327 144.54129776981426,150.0486672844536 144.27501961224334,150.0392361171198 143.9822289108415,150.0405834271669 143.83583356014424,150.0405834271669 143.54534829733893,150.0419307370721 143.2387249643798,150.0419307370721 142.95630873664777,150.04462535644961 142.68196154401085,150.0500145935057 142.45026496533683,150.05405651979981 142.1909031235482,150.04731997526324 141.99494084309117,150.0419307370721 141.71252461536642,150.04462535644961 141.41051215959305,150.04597266592555 141.16613566866,150.04731997526324 140.99783865131758,150.05405651979981 140.67392452890635,150.04462535644961 140.38343926610105,150.0594457528714 140.14021549447352,150.0594457528714 139.88546452987066,150.0594457528714 139.56846672323445,150.058098444817 139.28489777621144,150.06214036855454 139.02784137301933,150.05675113662164 138.77424312771473,150.05675113662164 138.51603400522436,150.058098444817 138.26589391780726,150.06214036855454 138.03189190055127,150.06483498366742 137.74717023423,150.06483498366742 137.4532268135299,150.06348767618056 137.23766830502427,150.07157151895717 136.9494884808155,150.06483498366742 136.62672707769525,150.06618229100877 136.42961207793996,150.0378888069281 136.1817774291194,150.07965535661242 135.8982084820891,150.07696074463092 135.7149261138984,150.07696074463092 135.42444085108582,150.07696074463092 135.12242839531245,150.07965535661242 134.8526920798613,150.07157151895717 134.57719216791156,150.07426613207826 134.32013576471945,150.08504457886556 134.03541409839818,150.08639188407778 133.77259409871476,150.08639188407778 133.5166904148209,150.0877391891445 133.3276444501389,150.1025595354813 133.05214453819644,150.09582301655246 132.78240822273074,150.0890864940675 132.57491874930565,150.0931284079834 132.29826611805765,150.09582301655246 132.02161348681693,150.0998649283356 131.79568050463422,150.10121223198075 131.7622516450283,150.04597266592555 131.7253646275276,149.88159985951734 131.4821408558928,149.88833649156186 131.20664094395033,149.87755787857986 131.03603848801868,149.8573479546967 130.8089527865377,149.86273727086427 130.50578761146608,149.8519586362545 130.23489857671666,149.838485330185 129.9628568226617,149.82501200988554 129.6827460335262,149.81288600945027 129.41416243735875,149.80345466781273 129.1282880517465,149.81153867536068 128.84471910472348,149.8209700110201 128.57959366645082,149.8290540074695 128.32138454395317,149.838485330185 128.052800947793,149.8411799925325 127.80727173756168,149.8479166459265 127.56865884311264,149.85600062530102 127.41765261523688,149.85600062530102 127.20901042250625,149.86677925649383 126.91967787899921,149.87486322391487 126.67069051088038,149.87755787857986 126.65455244071927,150.04462535644961 126.6395670898637,150.3639337235627 126.63265077408141,150.6360805385939 126.60037463377375,150.90013823645222 126.56348761627305,151.08335873396481 126.47472823041608,151.31103348074976 126.3490818270584,151.57911865568258 126.21882454651495,151.85797514860315 126.10009445893957,152.10988374712724 125.99750244152528,152.3981580751297 125.96522630121035,152.67295557903435 126.00211331871105,152.99893318233717 126.06436016073712,153.3397190497708 126.1116216519149,153.6131493540879 126.16118858167465,153.88253309002994 125.92718656441866,153.96604089417087 125.6562975296547,154.00106013336517 125.39232481068757,154.037426164723 125.1375738460847,154.07379209251394 125.04420358303469,154.1007297500255 124.83786682890059,154.11823919693325 124.59810121515329,154.15864552124458 124.35948832071153,154.20443920089474 124.16583147884376,154.2098266818257 124.05171226845414,154.19501110380406 124.20617665423197,154.21117355170009 124.47360753109388,154.18962361662489 124.73642753077729,154.13978925247648 124.95083331999194,154.11419855746772 125.19751524951425,154.07783274475878 125.3819503370105,154.0535888120794 125.65283937176719,154.01318215532956 125.91565937144333,153.97681605491925 125.96753173980687,153.94044985094115 125.91565937144333,153.71955660890126 125.85225981012627,153.47710840755735 125.81767823121481,153.31816764381256 125.77963849442312,153.17538866043105 125.70586445942172,152.88713188437669 125.64131217879913,152.60425675765873 125.58598165255535,152.34696965116564 125.53180384559528,152.1125779298609 125.4868477930213,151.9172482073236 125.39001937208377,151.67746004673427 125.26898384591914,151.45383332010624 125.13411568818992,151.19921739672554 125.1652391092066,150.949985249953 125.21941691615211,150.73038748656018 125.28051103889447,150.52291128094294 125.35197963529208,150.26154034968567 125.41653191591467,150.0432780468327 125.48108419653727,149.81423334340252 125.48223691583553,149.64985755110047 125.25630393365282,149.56497414055684 125.01884375850932,149.50434278721787 124.74680200444709,149.43427953111677 124.48513472406921,149.37230017609545 124.22692560157157,149.30762574543223 123.97448007556522,149.24160359256985 123.7831286722867,149.19309730332498 123.52953042698937,149.12572715113674 123.26325226941844,149.04757732881717 123.01195946270309,148.98290125169024 122.81599718224606,148.93574140537567 122.51859560365119,148.85759041900747 122.26153920045908,148.79426082019563 121.98719200781488,148.72149876528965 121.72091385024396,148.66086340244328 121.50074446454528,148.60427013703338 121.25982613149972,148.51264241299305 121.06040569315519,148.34555486855334 120.88980323722353,148.17711762823092 120.68346648308943,147.9776850592807 120.49787867629493,147.79711504297939 120.3169017466862,147.63136568773552 120.07483069435693,147.50738915179954 119.79010902803566,147.47369966744736 119.55380157218315,147.524907648487 119.40855894078413,147.60037166675647 119.1734042042226,147.79172485394065 118.94401306415239,147.98172764232186 118.72845455564675,148.10839459517774 118.4875362226012,148.19463520487625 118.2431597316754,148.23640779054222 118.01376859159791,148.2485352897811 117.87774771457043,148.2552727843804 117.6183858727818,148.2727902536708 117.36709306607372,148.28896020396678 117.12041113654413,148.30917261300783 116.87257648773084,148.32669000826445 116.60860376874916,148.34555486855334 116.35615824274282,148.3644197009362 116.14290517283371,148.37250462055817 115.88469605033606,148.4021492819884 115.62763964713668,148.4196665495365 115.39363762988069,148.44796362321267 115.14580298106011,148.4614383981325 114.88528841997322,148.48569295711332 114.63169017466862,148.56519368817226 114.41036806967895,148.70398191229924 114.22593298218271,148.8885813846873 114.12334096476116,149.0408402527528 114.03458157890418,149.27798318845635 114.00230543858925,149.49625858500167 114.01267991226632,149.7940233192021 114.03458157890418,150.07830805069443 114.0576359648403,150.38010102326734 114.07146859640488,150.65224749346544 114.1014392981233,150.92304094251085 114.1221882454629,151.20595333313668 114.14524263139901,151.51176110125562 114.15331166647957,151.83103275818394 114.15331166647957,152.0586941670481 114.14063175421325,152.38468745714908 114.1152719296806,152.69585510400066 114.094522982341,152.98546319831712 114.07492675429239,153.25755411950558 114.0576359648403,153.53502700753597 114.03458157890418,153.81518768887508 114.01613807015383,154.10342351264808 114.07377403499413,154.39030597937744" stroke="red" stroke-dasharray="none" stroke-linecap="round" stroke-linejoin="round" stroke-width="0.5"><title>2024-04-21 79.4km</title><desc>1713660889000</desc></polyline><polyline fill="none" opacity="1" points="19.197700591430475,194.35228756373726 19.47633302376198,194.48499722254746 20.114091702213045,194.2219900572527 20.495921331705176,194.54290665007466 20.613566136467853,195.18713912444582 20.689932062370644,195.82652791313558 20.714699389689486,196.4152323239632 20.97888421441894,196.44418460832276 21.655857827798172,196.32113714626576 22.037687457290303,196.57205675848672 22.105797607415298,197.24518325261488 21.825101231137523,197.40923974935868 21.81478151142801,197.38993904620656 22.093413943759515,197.10766439880172 21.9427460359002,196.4152323239632 21.678561211170745,196.2511686858452 22.132628878680407,196.11846929270177 22.687829799404426,195.90373591375464 23.37512313250045,195.61420456525047 24.122270839943667,195.3512104082456 24.741454022914695,195.1992032295948 25.408107916562585,195.00376394136583 25.65371724581928,195.48873984069724 25.812640929434565,196.1281201836573 25.983948276720184,196.83021155882307 26.192406614987704,197.4502536893997 26.438015944229846,198.15954194222104 26.68981710530352,198.93153133233864 26.947810098201444,199.6455982891839 27.19548337139713,200.36687975006316 27.379174382338533,200.91445949827903 27.686702029881417,201.80455011449885 27.901352199980465,202.40033665587544 28.105682650355448,203.04917153463975 28.31001310073043,203.63768984119633 28.518471438990673,204.22860486018726 28.726929777258192,204.8677406412462 28.974603050446603,205.58162212071875 29.209892659971956,206.24965993415753 29.443118325558316,206.94902878674293 29.64951271987229,207.51574302743757 29.88273838545865,208.2126617080612 30.09945249950397,208.86133163645172 30.4812821289961,208.825160935261 31.145872078712273,208.5960784991239 31.494678605122317,209.0711205751868 31.853804851241875,209.70288713444643 32.10973390019353,210.13932635895435 32.33057590212411,211.02182442865524 32.526650576721295,211.51128272299502 32.805283009060076,212.21531274132576 33.13551403996826,213.03022454517486 33.37080364949361,213.6208969100353 33.62673269845982,214.2453054022444 33.84138286855159,214.76844534586417 34.04364937498758,215.33737659433245 34.25004376930883,216.024414546544 34.45437421969109,216.68009469265962 34.691727773155435,217.39842858686825 34.91256977508601,218.1890519158187 35.102452617858944,218.93867259957005 35.16024304826715,219.50026944228375 35.19945798318804,220.13174815282218 35.23248108628468,220.61137110985692 35.33361433949176,221.39947345168002 35.45125914426171,222.1730888237198 35.56684000507812,222.86474150334107 35.66590931436076,223.54432414410076 35.73608340843202,224.14918393491644 35.7876820070087,224.7371598192749 35.83102482982213,225.3371688344505 35.9115186436029,226.20944307406717 35.96105329823331,226.8238704663363 36.01058795287099,227.37081746277363 36.05599471962341,227.9683481610391 36.10140148636856,228.486356120442 36.107593318207364,229.0188079155232 36.13029670158721,229.7126631891042 36.16538374861557,230.45949782967546 36.1633198046693,231.46166351011925 36.173639524378814,232.08317695130972 36.153000084959785,232.7600774664461 36.22730206690903,233.36469413002487 36.25413333817414,234.1836713653829 36.22730206690903,234.75693803234026 36.18189530016389,235.32537318677169 36.71232889356179,235.4144909803963 37.45741265707329,235.47952266536595 38.192176700846176,235.5373284528123 38.78040072467411,235.5782741307903 39.54612392760464,235.6433053515084 40.30771924264991,235.70592783426764 40.87530382702971,235.75650740709898 41.56878899195726,235.8191295808665 42.23957077349769,235.86970890413613 42.98465453700919,235.9251051778574 43.550175177442725,235.96605016377907 44.14252708914864,236.0142206419041 44.7679021039512,236.06479953507733 45.30452752918063,236.1081527833394 45.87211211356771,236.14428042764303 46.28283695826394,236.45497582041753 46.2807730143104,237.21844972819235 46.25600568700611,238.0469226434161 46.28283695826394,238.60323505438828 46.23949413545779,239.37386200358378 46.23123835968727,240.20948136230254 46.21266286419268,241.2834604189684 46.1920234247591,242.10937874627234 46.04135551690706,242.96416088940714 45.748275476973504,243.5203541530118 45.426300221835845,244.0404187837812 45.475834876458975,244.07894162126468 45.740019701195706,243.64314825295878 46.21679075208522,243.89595756772906 46.75341617731465,244.30044668276423 47.323064705647994,244.76752644075896 47.86381801876996,244.94328079727347 48.342653013598465,245.28997037944646 48.98660352388106,245.49942613287567 49.78122194201569,245.8533297900467 50.39008540526993,246.11815208932057 51.1516807203152,246.44797195674983 51.624323883304896,246.7272317919651 52.30748932851566,247.0016734950732 52.90396912810684,247.17500340785045 53.36216468350176,247.34351734713346 53.86576700564183,247.58906401738386 54.371433271728165,247.82979349948255 55.08968576396728,248.08014948531672 55.748083881851926,248.11144379174038 56.37139495270094,248.1740322767182 57.002961799335026,248.29920873520132 57.66135991721967,248.48215771707874 58.27435126835917,248.76620719718267 58.914173890749225,249.0093315056438 59.63242638299562,249.3126314922738 60.27637689328549,249.5124221536389 61.00082121734158,249.8710781397076 61.60968468059582,250.18158786202002 62.11947883456742,250.4535813036091 62.58799410967913,250.68224586568977 63.153514750127215,250.9758959666433 63.71284355872194,251.27676308061564 64.26185264762898,251.55596423936004 64.85007667144237,251.84960317845253 65.44655647104082,252.15767934467658 66.07812331765308,252.47056497506492 66.68285889302206,252.7858531103102 67.20710065458843,253.05059553296633 67.87375454825815,253.38994272552554 68.48055406756612,253.70040491859618 69.04194682012167,254.01567618891386 69.53316547860595,254.25152515236732 70.0945582311615,254.54272308625877 70.63531154428347,254.82910423446083 71.09557104361738,255.05531875457746 71.59504547788674,255.30559605620874 72.18533344563184,255.66175521245532 72.54652363570494,255.92646452564077 73.00678313504613,256.3933080712959 73.41957192368136,256.7927646131484 74.0201796111578,257.3991552610005 74.56093292427977,257.95259308991444 75.10581412529427,258.5060176043953 75.60941644742707,259.0064943972302 76.04490861945669,259.47327543980464 76.41229064134677,259.8341821254362 76.59598165228817,260.0098213312467 76.99638677727489,260.40680911696654 77.1491186290732,260.6474044417446 77.40504767803213,260.84709665090304 77.80958069089684,261.27294051395256 78.31111906910519,261.73967558372533 78.82916899885458,262.2689513233345 79.34102709677245,262.81264918253873 79.81986209159368,263.2697303662826 80.07785508450615,263.71717999687644 80.24297059995297,263.8374606724137 80.36474329260818,264.0275028588403 80.56081796721992,264.23438244285717 80.68052671591431,264.4412601678014 80.75070081000013,264.6721912463563 80.74863686604658,264.8093054782821 80.593841070302,264.99212318395075 80.49477176103392,265.2904015873555 80.38125484414923,265.61513577824553 80.36474329260818,265.8773252277497 80.36680723654717,265.7883254740991 80.30076103036845,265.53094587223313 80.27599370304961,265.3216724865015 80.53811458384735,264.79006142481376 80.74244503420778,264.47493776103147 80.66607910831954,264.294521508049 80.48445204131713,264.1141038411697 80.36680723654717,263.8735447525196 80.58764923847048,263.67147317539093 80.2780576469886,263.51991832848216 79.8136702597767,263.1109558260159 79.4813752849077,262.72844902710494 79.01492395373498,262.2857917152505 78.53196107102849,261.8094444458784 78.0428063564832,261.2945933812134 77.63001756784797,260.88559133538183 77.17388595639204,260.42365087158214 76.76109716774954,260.01222733846043 76.34830837911431,259.55026934109446 75.92726381468674,259.16529725807777 75.57020151251345,258.80678621320294 75.10581412529427,258.32555455165857 74.6641301214404,257.89003122024224 74.21625428576226,257.43284316161044 73.80346549711248,257.0189598194429 73.50419362535467,256.7181678339439 73.05631778967654,256.27058207794107 72.63320928130997,255.8326133904975 72.34632107320795,255.5582771071622 71.75396916150203,255.2478399975953 71.08937921179313,254.90130059967487 70.43923686967173,254.5571625572611 69.80973396699119,254.24671193240465 69.21738205529255,253.95069696778592 68.62915803147916,253.65708486424774 67.96456808176299,253.31533490706897 67.38666377765912,253.01930795096268 66.84591046452988,252.7473448675828 66.15861713144841,252.40076778039293 65.58071282734454,252.0951017075622 64.97184936409758,251.77739722973638 64.3671137887286,251.45968836081374 63.77682582096895,251.15160283959085 63.19685757292609,250.87480373240578 62.65197637192614,250.5883733207338 62.00389797375101,250.2586128801522 61.446633109088,249.98661713113142 60.82951387005596,249.66888350700174 60.313527884252835,249.39447365996966 59.795477954510716,249.13450341384123 59.2402770337867,248.84082978328115 58.71190738432051,248.57603886593643 58.16702618330601,248.31365212883975 57.78313260986761,248.17643952273284 57.60769737469673,248.4099411877196 57.03392095847812,248.29198703497786 56.53651046816958,248.16921778392862 55.86779263056815,248.10181477892002 55.19494690508145,248.06089142941346 54.584019497880945,247.90441912680035 54.2352129714709,247.73350200931782 53.75431403271068,247.50721541889106 53.18466550438461,247.2400017880027 52.61501697605854,247.0690797276584 52.068071831105044,246.9053785340111 51.73577685624332,246.7705649104264 51.11865761721856,246.4118605232852 50.522177817634656,246.13981923324172 49.98555239239795,245.92796183789142 49.46337457476329,245.67276738095097 48.891662102490955,245.4584981472999 48.33852512570593,245.277932634428 47.98146282353264,245.09255056444272 47.803963644422765,244.85419999013357 47.2838497707271,244.72900475825918 46.81946238350065,244.35341496790716 46.43144092217699,244.04523414200594 45.985629030445125,243.72260290892154 45.680165326855786,243.62629419968653 45.34580640804052,244.02115734082145 44.83394831012265,243.70093348455703 44.379880642620265,243.38552065948716 43.91342931145482,243.05084124520727 43.46348953183042,242.70893349716243 42.97846270517766,242.3646128029577 42.53677870133106,241.99139223283055 42.08683892169938,241.6735479962008 41.63070731025073,241.4279380722437 41.189023306404124,241.20158934518622 40.72669986312394,241.02821434277575 40.3097831865889,240.8861421841666 39.8392039675382,240.7296209915039 39.39958390763786,240.60199522916628 38.97028356744704,240.49122512442045 38.598773657664424,240.39731092127113 38.037380905108876,240.37804642185802 37.41406983425986,240.34914964241216 36.846485249872785,240.31784475696804 36.25619728212041,240.29135597439927 36.01471584076353,240.01683406423217 36.01471584076353,239.59541246280605 36.02297161653405,239.23900415528806 36.02709950441931,238.7573625142486 36.04361105596763,238.1649294332401 36.06012260751595,237.66399847267348 36.08695387876651,237.16305657695375 36.132360645526205,236.64042765440172 36.1715755804471,236.1779995110046 36.21079051536071,235.69388506239557 36.252069394227874,235.23143784035346 36.29541221703403,234.69913027843722 36.32224348830641,234.21739333062033 36.299540104926564,233.70914988325785 36.27477277760045,233.19848635687595 36.283028553378244,232.75044201210767 36.26238911393739,232.28793544265318 36.2582612260594,231.7796492356665 36.25619728212041,231.16535466057394 36.250005450281606,230.52454356605267 36.233493898733286,230.05717380413444 36.23555784268683,229.6909805296691 36.21079051536071,229.00194311619998 36.1922150198734,228.5224957737828 36.15506402889878,228.0984535866137 36.10346543031483,227.3925023169777 36.06012260751595,226.87206015337506 36.00439612103946,226.3082344720824 35.95692541034805,225.66969718458495 35.934222026975476,225.17813183067665 35.8537282131947,224.56847975659002 35.80006567066448,223.9371233560778 35.73608340843202,223.39250423914928 35.67210114619229,222.92739890258053 35.639078043088375,222.52976249997118 35.51524140649417,221.97064994213906 35.438875480598654,221.50551573343 35.35838166681788,220.95119838126993 35.30884701217292,220.41614890743585 35.27169602120557,219.8762664972237 35.22835319839214,219.3363713579165 35.13547572094831,218.74102579857572 35.0116390843541,218.21074546375348 34.87541878410411,217.7021468760231 34.714431156535284,217.19112648841292 34.55757141684444,216.70902132533956 34.413095340831205,216.2486014155238 34.25417165719409,215.70621005896828 34.101439805395785,215.20478794871633 33.878533859526215,214.63826417346536 33.690714960692276,214.18744587213223 33.51940761342121,213.71492090008724 33.339844490350515,213.26408440697014 33.127258264197735,212.76743071424062 32.9084802062207,212.2249568377265 32.70621369978471,211.7234584341022 32.530778464606556,211.2460603166419 32.12418150780286,211.2774049430809 31.591683970444137,211.47752731478613 31.090145592250337,211.643892773056 30.811513159911556,211.30392728575316 30.687676523310074,210.70355036179353 30.572095662500942,210.18031746049382 30.448259025906736,209.62090314653142 30.27901562256011,209.11693629427464 30.130411658647063,208.71423709486044 29.96116825530771,208.20542736720017 29.791924851961085,207.69660631768784 29.618553560736473,207.16848149967336 29.422478886124736,206.608993499598 29.247043650953856,206.08566689978034 29.038585312686337,205.48997642137147 28.86934190933971,205.01968349945128 28.671203290796257,204.41431785372515 28.493704111679108,203.90541241620303 28.32446070833248,203.40131955557626 28.14076969739108,202.89480356816057 27.985973901646503,202.41963312625012 27.835305993794464,201.9999312184682 27.612400047924893,201.3269448267729 27.441092700639274,200.83244398399438 27.251209857859067,200.28486226996938 27.081966454519716,199.79275120561397 26.935426434552937,199.36093913741752 26.782694582747354,198.9001697718395 26.56391652477032,198.2729295186782 26.390545233531157,197.75182451598812 26.19034267104871,197.17280501173263 25.996331940375967,196.53586659996836 25.876623191674298,196.0291983579482 25.740402891431586,195.49115263036583 25.608310479052307,194.9579199154632 25.410171860508854,194.85658016311936 24.79718050937663,195.04236936546295 24.21927620528004,195.19196476726938 23.709482051301165,195.3656872296233 23.181112401842256,195.55629785497877 22.5846326022438,195.77827278016957 22.132628878680407,195.9930073390242 22.0459432330681,195.9688799612086 21.967513363226317,196.04367474944956 21.453591321362182,196.1908508754659 20.81583264291112,196.2873592955857 20.76010615643463,195.71795372055567 20.70437966997997,195.34155918889337 20.607374304636323,194.7576528281279 20.46909006045462,194.16890567472728 20.165690300796996,194.14477636913762 19.573338389091077,194.39571990062905" stroke="red" stroke-dasharray="none" stroke-linecap="round" stroke-linejoin="round" stroke-width="0.5"><title>2024-04-05 108.1km</title><desc>1712276378000</desc></polyline></svg>