<?xml version="1.0" encoding="utf-8" ?>
<svg baseProfile="full" height="300mm" version="1.1" viewBox="0,0,200,300" width="200mm" xmlns="http://www.w3.org/2000/svg" xmlns:ev="http://www.w3.org/2001/xml-events" xmlns:xlink="http://www.w3.org/1999/xlink"><defs /><rect fill="#222222" height="300" width="200" x="0" y="0" /><text fill="#FFFFFF" style="font-size:12px; font-family:Arial; font-weight:bold;" x="10" y="20">Over 10km Runs</text><text fill="#FFFFFF" style="font-size:4px; font-family:Arial" x="10" y="280">Runner</text><text fill="#FFFFFF" style="font-size:9px; font-family:Arial" x="10" y="290">yihong0618</text><text fill="#FFFFFF" style="font-size:4px; font-family:Arial" x="65" y="280">SPECIAL TRACKS</text><rect fill="yellow" height="2.6" width="2.6" x="65" y="283" /><text fill="#FFFFFF" style="font-size:3px; font-family:Arial" x="70" y="285.5">Over 20.0 km</text><rect fill="red" height="2.6" width="2.6" x="65" y="287" /><text fill="#FFFFFF" style="font-size:3px; font-family:Arial" x="70" y="289.5">Over 40.0 km</text><text fill="#FFFFFF" style="font-size:4px; font-family:Arial" x="120" y="280">STATISTICS</text><text fill="#FFFFFF" style="font-size:3px; font-family:Arial" x="120" y="285">Number: 5</text><text fill="#FFFFFF" style="font-size:3px; font-family:Arial" x="120" y="290">Weekly: 1.2</text><text fill="#FFFFFF" style="font-size:3px; font-family:Arial" x="141" y="285">Total: 317.5 km</text><text fill="#FFFFFF" style="font-size:3px; font-family:Arial" x="141" y="290">Avg: 63.5 km</text><text fill="#FFFFFF" style="font-size:3px; font-family:Arial" x="167" y="285">Min: 18.7 km</text><text fill="#FFFFFF" style="font-size:3px; font-family:Arial" x="167" y="290">Max: 108.1 km</text><polyline fill="none" opacity="1" points="75.04648482520133,40.52421769531793 75.11563580483198,41.05776719446294 75.21244717633817,41.59131483279634 75.30925854778616,42.12486061031814 75.39223972341279,42.674572495539906 75.48905109486077,43.27278612632654 75.59969266230473,43.9195009337418 75.7103342297487,44.61471630273445 75.83480599307222,45.342263887345325 75.93161736457841,46.06980801228201 75.98693814827129,46.71651099668816 75.90395697270287,46.95902391112759 76.12524010753259,47.62189058259537 76.19439108716324,48.511097461072495 76.24971187085612,49.416466427763226 76.33269304648275,50.07932245286065 76.27737226273166,50.28949571488192 76.20822128310101,50.43500011184369 76.18056089128368,51.11401880111953 76.4433346138685,51.77686747230473 76.62312716094311,52.55288178018236 76.80291970801773,53.345058993436396 77.02420284290565,54.26656610182545 77.21782558580162,55.09106775795226 77.14867460622918,55.7053994370508 77.59124087588862,56.044897464773385 77.84018440259388,56.70772477675928 78.1029581251787,57.3543828020629 78.35190165194217,57.90403997511021 78.29658086819109,58.45369517385552 77.78486361884279,58.64769065497967 77.17633499810472,58.82551962998696 76.48482520162361,59.084179588389816 75.80714560119668,59.32667290234531 75.14329619664932,59.552999648672994 74.79754129849607,59.746993736276636 74.67306953511434,59.924821433844045 74.76988090667874,60.53913370841474 75.0603150211391,61.28277158353012 75.32308874378214,62.042571767335176 75.53054168261588,62.78620233718539 75.82097579713445,63.545995057036635 76.56780637725024,63.88547569133516 76.87207068764837,64.53210338790086 77.2316557817976,65.27572186152975 77.5497502880753,66.00317122015986 77.89550518628675,66.68212083536491 78.21359969262267,67.37723279738566 78.53169419901678,68.07234160252847 78.84978870529449,68.76744725090975 79.1678832116304,69.47871487913653 79.4859777179663,70.15764907738776 79.81790242023999,70.82041527087858 80.1359969265759,71.51550843943551 80.45409143297002,72.19443360337755 80.77218593924772,72.88952053248067 81.09028044564184,73.61693370626017 81.40837495191954,74.31201417588454 81.7126392624341,74.94243326772994 82.1690357279731,75.34654670467717 82.43180945055792,75.97696153607103 82.57011140987743,76.30025018611923 82.51479062612634,76.78518188100134 81.96158278902294,77.04381149017718 81.35305416828487,77.28627635187877 80.63388397998642,77.60956223681569 79.88705339992885,78.02983286661038 79.09873223205796,78.36928137909854 78.25509028037777,78.75722161460726 77.52208989625797,79.22598142086645 77.21782558580162,79.35529421825777 76.48482520162361,79.71090384796844 75.73799462156603,80.05034863295441 75.08797541295644,80.3736286808562 74.43795620434685,80.68074409401743 73.60814444866264,81.08484238326491 72.86131386860507,81.42428412188019 72.18363426811993,81.74756126850843 71.61659623507876,81.99001868047344 71.27084133692551,82.16782053853967 70.6761429120088,82.44260482213576 70.1229350749054,82.7658798185148 69.54206684586825,83.13764522042766 68.86438724549953,83.60639161437575 68.11755666538374,84.13979093765374 67.3983864770853,84.65702487032104 66.72070687665837,85.07727615398471 66.11217825586209,85.49752628407441 65.47598924313206,85.88544845725119 64.99193238565931,86.11173593773856 65.00576258159708,86.09557255735854 64.67383787938161,86.27336964762071 64.06530925852712,86.59663655543409 63.35996926622465,86.88757618890668 62.68228966573952,87.11386218827101 61.99077986937482,87.35631110219401 61.20245870150393,87.66341250867117 60.538609296956565,87.87353416875703 59.86092969652964,88.09981871095079 59.017287744849455,88.40691862619133 58.20130618516123,88.69785481976578 57.35766423359746,88.98879046057118 56.61083365348168,89.26356250264507 55.82251248561079,89.53833405155456 54.96504033805104,89.82926809541823 54.232039953931235,90.07171270961408 53.582020745263435,90.24950518280093 53.01498271228047,90.44346037255309 52.73837879369967,90.5242749624158 52.102189781027846,90.76671847621037 51.466000768356025,91.02532446775876 50.73300038417801,91.30009285525011 49.944679216248915,91.59102355163486 49.156358048378024,91.83346537640318 48.32654629269382,92.124395059378 47.510564733005594,92.43148690286034 46.74990395689383,92.73857813050563 45.97541298501892,93.02950609382242 45.18709181714803,93.2881082638487 44.41260084521491,93.56287259100645 43.568958893592935,93.82147386028373 42.80829811748117,94.09623723040568 42.57318478671368,94.12856230030593 41.99231655779295,94.37100010745053 41.203995389922056,94.62960001197644 40.42950441798894,94.95284927851753 39.655013446114026,95.22761061855999 38.96350364963291,95.48620907652366 38.299654245143756,95.6478328909725 37.42835190158803,95.93875532709353 36.58470995002426,96.294326442905 35.93469074147288,96.73070804757299 35.450633884000126,97.15092619525967 35.00806761428248,97.61962969198066 34.814444871328305,97.86206197222054 34.28889742598403,98.29843910945056 33.59738762967754,98.71865295527095 32.78140606993111,98.96108349562564 32.07606607762864,99.09037962694129 31.384556281205732,99.18735165377439 30.997310795239173,99.2196756490739 30.25048021512339,99.42978145217057 29.3238570879912,99.57523914705962 28.397233960800804,99.75302058643138 27.512101421423722,99.91463989773183 26.64079907798441,100.06009713205276 25.797157126420643,100.18939233545098 24.939684978860896,100.31868742972438 24.040722243546043,100.46414428026765 23.22474068379961,100.62576284111128 22.50557049555937,100.73889573221095 21.6619285439956,100.86819036255474 20.79062620055629,101.01364669116447 19.974644640868064,101.14294108955073 19.13100268918788,101.23991181666497 18.328851325437427,101.43385308679717 17.48520937381545,101.5631471304223 16.66922781401081,101.7086027990299 15.867076450260356,101.85405832945253 15.03726469463436,101.96719031315297 14.345754898153245,102.08032221329631 14.055320783751085,102.14496897593199 14.262773722643033,102.11264559804113 14.594698424916714,102.5490106237412 14.926623127190396,103.14699030629708 15.078755282389466,103.43789849684981 15.369189396791626,103.89042125051492 15.604302727617323,104.40758847469988 15.604302727617323,104.69849427083682 15.7564348828746,105.03788366803201 15.90856703807367,105.34494961741439 15.7564348828746,104.98939951446664 15.604302727617323,104.61768716068764 15.466000768356025,104.26213536941214 15.300038417219184,103.95506724908773 15.2032270457712,103.72880613485177 15.03726469463436,103.37325228002737 14.746830580057576,102.88840478412749 14.580868228978943,102.5166873310809 15.009604302758817,102.41971741238376 15.7564348828746,102.27426241917419 16.434114483301528,102.16113066229445 17.180945063359104,102.03183712353348 17.94160583941266,101.90254347557493 18.716096811403986,101.75708799115091 19.504417979333084,101.64395585219609 20.278908951149788,101.5631471304223 21.02573953132378,101.41769132364425 21.800230503315106,101.27223537878308 22.51940069149714,101.14294108955073 23.197080291982275,101.02980849693995 23.957741067977622,100.90051400304947 24.773722627782263,100.77121940001962 25.58970418747049,100.64192468780675 26.364195159403607,100.51262986641086 27.12485593551537,100.38333493591927 27.857856319635175,100.27020178217208 28.590856703813188,100.14090664697869 29.296196696115658,100.04393522393366 30.001536688418128,99.9469637395232 30.568574721517507,99.84999219367455 30.87283903185744,99.88231604911562 31.356895889388397,99.76918252525502 31.882443334616255,99.65604891782277 32.4633115635952,99.55907718774688 33.16865155589767,99.41361947756377 33.90165194007568,99.12270364274445 34.57933154050261,98.76713909402315 35.04955820203759,98.37924955398194 35.450633884000126,97.95903477682441 35.82404917408712,97.47417013959785 36.28044563962612,97.0377906535432 36.847483672667295,96.69838352689112 37.594314252841286,96.39130024028418 38.34114483289886,96.18119026835484 39.08797541301465,95.8741059446038 39.87629658088554,95.58318338567915 40.719938532449305,95.30842268359265 41.56358048407128,95.01749904996541 42.39339223969728,94.72657486359822 43.19554360356415,94.43565012453473 43.970034575497266,94.17704989243066 44.758355743368156,93.91844922363816 45.50518632348394,93.64368553458189 46.23818670766195,93.36892135241942 46.90203611215111,93.12648195878137 47.607376104511786,92.9002048450493 48.34037648863159,92.65776470923447 49.05954667693004,92.39916147469194 49.82020745292539,92.14055780333001 50.5532078371034,91.89811646481394 50.92662312713219,91.78497704213078 51.41067998460494,91.65567474244745 51.83941605838481,91.47788390207279 52.06069919327274,91.41323263620143 52.572416442562826,91.25160435213184 53.125624279724434,91.0576501860196 53.85862466384424,90.78288136346964 54.59162504802225,90.49194913158135 55.35228582407581,90.21717929388979 56.09911640413338,89.94240896315023 56.832116788311396,89.66763813928992 57.56511717248941,89.39286682239617 58.27045716479188,89.15042113327945 58.82366500189528,88.97262738393329 59.29389166343026,88.81099652354897 59.63964656164171,88.68169171242334 60.303495966189075,88.4715711614117 60.96734537073644,88.21296085663198 61.56204379565315,88.0190028413781 62.12908182863612,87.80888138097362 62.69611986167729,87.59875963217928 63.34613907028688,87.38863759500964 64.03764886670979,87.13002546112693 64.70149827119894,86.80675967947172 65.07491356122773,86.64512653269048 65.66961198614445,86.35418643856246 66.2919708028785,85.917775260692 66.91432961967075,85.49752628407441 67.49519784859149,85.12576661241474 68.0898962735082,84.68935193307698 68.51863234722987,84.31759029910609 69.04417979251593,83.94582776234893 69.55589704186423,83.59022796954378 70.05378409521654,83.26695471383573 70.62082212831592,82.94368077552645 71.32616212061839,82.555751148524 72.03150211292086,82.24863949668361 72.8474836726673,81.86070810855017 73.64963503647596,81.50510347248928 74.46561659616418,81.13333410627092 75.12946600071155,80.79389172251103 75.7518248175038,80.50294050882803 76.48482520162361,80.14733271901787 77.2316557817976,79.80788814902189 77.96465616597561,79.51693506147421 78.7114867460914,79.19365320446377 79.43065693427343,78.87037066480843 80.05301575100748,78.5632516197511 80.78601613518549,78.20763932415866 81.46369573567063,77.91668319517339 82.09988474834245,77.59339795880078 82.83288513252046,77.20545477396809 83.66269688814646,76.8175106060371 84.3818670764449,76.52655183488969 84.72762197459815,76.38107224192936 85.25316941988422,76.09011264125002 85.9031886284356,75.76682354741206 85.7233960814192,75.31421766898711 85.04571648093406,75.6213432324439 84.45101805607555,75.87997480790364 83.84248943527928,76.17093480800395 83.19247022661148,76.52655183488969 82.63926238950808,76.47805865258852 82.36265847098548,75.78298801829806 81.97541298501892,75.00709148938768 81.54667691123905,74.23119102763303 81.24241260089912,73.47145134799939 80.84133691893658,72.69554310235253 80.48175182478735,71.95196067624784 80.14982712257188,71.35385914704239 79.83173261617776,70.65876524437044 79.51363810978364,69.93133801258227 79.1678832116304,69.15541182148445 78.83595850935671,68.37948169690208 78.4763734153239,67.66820896042918 78.15827890892979,67.03775990802387 77.8263542066561,66.37497733485361 77.57741067989264,65.71219189158 77.41144832887221,65.32421859302849 77.28697656549048,65.13023157489079 77.05186323472299,64.7099255255307 76.77525931614218,64.16029279622308 76.33269304648275,63.67532110174943 75.77948520932114,63.27117684909899 75.51671148673631,62.41438750391535 75.26776796003105,61.70308704505442 75.04648482520133,60.94328517577378 74.76988090667874,60.36130672461877 74.85286208224716,59.746993736276636 75.64118325005984,59.50450108831865 76.4433346138685,59.31050669339311 77.19016519392608,59.03568087948952 77.97848636191338,58.760854572057724 78.62850557046477,58.59919180776342 78.64233576640254,57.823208161687944 78.42105263157282,57.25738427249598 78.22742988856044,56.659225314710056 77.9231655781623,55.81856552998943 77.60507107182639,55.042567783501 77.35612754512113,54.20189911736816 77.17633499810472,53.361225832632044 77.01037264696788,52.61754946154542 76.9965424509719,51.809201480369666 76.95505186315859,51.11401880111953 76.96888205915457,51.00084922883252 76.83058009983506,50.40266581335163 76.52631578943692,49.7559784091427 76.47099500574404,48.86677876545582 76.41567422205117,47.88056948025769 76.37418363423785,47.2500389010238 76.34652324242052,46.732678536267485 76.27737226273166,46.102143226438784 76.20822128310101,45.40693461635965 76.11140991159482,44.76022609643405 75.98693814827129,44.08117920845689 75.86246638494777,43.4668008556182 75.76565501338337,42.787748226721305 75.64118325005984,42.044020460598404 75.44756050710566,40.976926480885595 75.30925854778616,40.07150757013005 75.17095658852486,39.133746620456805 75.04648482520133,38.26065367215779 74.85286208224716,37.43606131222623 74.56242796772858,36.41744108371495 74.2305032654549,35.47965773368196 73.98155973874964,34.89758241784875 73.9538993468741,34.78440084923932 73.77410679985769,34.655050382585614 73.4006915097707,35.09160776925273 72.76450249709887,35.39881407226494 72.04533230885863,35.72218846157193 71.29850172880106,36.06173083464091 70.60699193231994,36.36893518936995" stroke="#4dd2ff" stroke-dasharray="none" stroke-linecap="round" stroke-linejoin="round" stroke-width="0.5"><title>2024-05-25 18.7km</title><desc>1716643451000</desc></polyline><polyline fill="none" opacity="1" points="180.35072619736457,104.84189506027906 180.25963882592623,104.87326116758413 180.29690184150968,104.84913339651393 180.29897200904088,104.74538369366019 180.47079591426154,104.7839882887074 180.43353289867082,104.94081879245095 180.30932284670416,105.14349048122313 180.340375359694,105.18691989740182 180.2782703337216,105.34374766473047 180.36728753762145,105.45473282575949 180.44802407140378,105.45714554072401 180.41076105580578,105.53193957971598 180.36935770515993,105.60190797753967 180.31139301423536,105.6839396222731 180.20995480513375,105.76597097562808 180.2389371505924,105.94692146014131 180.23479681553,105.92279481078913 180.23479681553,105.74666950693972 180.29690184150968,105.59708257759667 180.20374430253287,105.59466987725136 180.22237581032823,105.45473282575949 180.29069133891608,105.30514400543325 180.31553334930504,105.15555421613863 180.18304262721358,105.29549308052447 179.97809604145732,105.24723839548824 179.67792174922215,105.14831597595003 179.4646944933629,105.07352069447188 179.4812558336198,104.78881385855311 179.66757091156614,104.50651632664812 179.8663069946997,104.23627955868506 180.10644642850093,103.97327823878004 180.2203056428043,103.86228595718603 180.2265161453979,103.76094471235956 180.01121872199292,103.61858364094769 179.74209694274032,103.3410976737432 179.46262432582444,103.0201749614389 179.37153695437883,102.94537278592179 179.17694120630767,102.77887675097736 178.90367909197812,102.53757601843063 178.60764513480535,102.19492464454925 178.36336536593444,101.90776922396071 178.05698057109112,101.55786913544398 177.81063063470356,101.32379508084887 177.58705254116649,101.10661084538515 177.36968495023757,100.93286198562964 177.12540518136666,100.68912874198577 176.9328796008267,100.48883117944024 176.7941783761271,100.34162342886157 176.6823893293622,100.23544020620648 176.42361838777288,99.95791356722839 176.31803984360158,99.81794234412337 176.144145770857,99.68279690937743 175.89779583445488,99.4414638074013 175.69491941624437,99.22667522399388 175.44235897725594,98.96120342586255 175.19807920839958,98.6981419951062 174.9351679317333,98.44231791087986 174.69916883300175,98.20579878137141 174.46109956674627,97.94514223859369 174.23131097060832,97.7206856337998 173.97668036408868,97.47933200950138 173.76966361081577,97.27659301388485 173.6102607107896,97.12212401189208 173.3784019471277,96.88559134820571 173.03061380162399,96.5187195617691 172.70145716393017,96.17597880566973 172.3971425366035,95.87909361222955 172.2750026521826,95.74875256419546 172.01623171059327,95.63289323653225 171.64981205729418,95.44220682599735 171.3227255871243,95.26358774570508 170.92732358837384,95.05841547354794 170.59402661560307,94.87255195734724 170.2627998103635,94.70841150282104 169.89845032461017,94.53220059705745 169.5196096661166,94.3390912089817 169.1925231959467,94.17253306301973 168.86750689330802,94.00355980170389 168.5072977426098,93.84182709197194 168.16986043476936,93.67285140753302 167.82828279188107,93.48697672459457 167.48463498144702,93.31799843999215 167.21965353725682,93.17798692329052 167.00435611384455,93.07659874257115 166.71039232420299,92.92210160998548 166.35225334104325,92.74346301002151 166.00032486047712,92.55999489921487 165.62976487211563,92.36686899492634 165.28818722921278,92.17856968078013 164.92176757592097,91.9950970750233 164.56569876029243,91.8261078569958 164.23861229012255,91.65228908338213 163.89082414461882,91.47122646736716 163.53061499392788,91.27567724487744 163.1621251730976,91.10909696927956 162.86195088085515,90.94734395562591 162.57626776133839,90.7976610513524 162.21398844310897,90.6117631881425 161.88069147033093,90.44034954427298 161.7668322560421,90.37516373954713 161.6219205287489,90.32446354176864 161.2555008754498,90.13373322749794 160.86216904423782,89.935758320702 160.48746872081392,89.74261043152 160.1251894025845,89.54704654473971 159.7587697492927,89.36596739233391 159.37578875573672,89.1655714720091 159.0072989349137,88.97483156795533 158.66572129200358,88.81064912057991 158.31793314650713,88.63197865773145 157.97014500101068,88.45572130340406 157.66169003863615,88.3060222178101 157.5312694840759,88.41467487668888 157.45053295029356,88.60783389434982 157.38221742172027,88.77201778652125 157.3118317256085,88.89515493809631 157.25386703467666,89.00139038337329 157.19590234376665,89.1317695787784 157.14000782038784,89.25490480834742 157.18348133858672,89.15349937296924 157.19176200870425,89.11245418895669 157.22074435417017,89.11245418895669 157.25179686716,89.02312030048597 157.38842792431387,88.73821531610156 157.42569093989732,88.62473523137487 157.22695485676377,88.54022842232553 156.95990324504237,88.48952418815315 156.60590459693776,88.40984588051288 156.38439667094644,88.33258180395205 156.16702908001025,88.3060222178101 155.73643423320027,88.2698045510133 155.29134821365733,88.25773198277057 154.86282353438583,88.22392875803598 154.4653513680969,88.0911298951396 154.19829975638277,87.96315935777966 153.9312481446541,87.83277355111386 153.58760033422732,87.67099754326773 153.18391766534478,87.4802452690019 152.77195432632288,87.3329544578919 152.36206115485402,87.21222358273371 151.96872932362749,87.09632134747699 151.693397041774,86.99732105987096 151.48431012096262,86.88141774365977 151.15515348326153,86.69548828948246 150.79701450010907,86.49023974716147 150.4202440091467,86.33328374582925 150.05382435585489,86.20530344571489 149.6811941999622,86.03868651810626 149.405861918116,85.89863077727387 149.05393343754258,85.72959685277237 148.69165411931317,85.62334632259808 148.32937480109103,85.49777688245194 147.99607782832027,85.40118453968898 147.8366749282941,85.3045917919444 147.74351738932455,85.08484178206345 147.63586867761478,84.9182167509025 147.62965817502118,84.55115445940282 147.7145350438659,84.18167137749333 147.84909593348857,83.80976738851314 147.89256945168017,83.43302735519501 147.94639380753506,83.11424251379867 147.69590353607055,82.95001829774992 147.3543258931677,82.7495665647184 147.17629148535343,82.52737706287917 147.20941416588175,82.27620374034814 146.85748568531562,82.08057646645102 146.52832904760726,81.89702343905446 146.20331274496857,81.71588414875623 146.09359386574215,81.50576078692029 146.09980436834303,81.10483043212298 146.10187453587423,80.69906248332154 146.11222537353024,80.41888520243447 146.11429554106144,80.17251960390968 146.12050604366232,79.9358129181619 146.11429554106144,79.74499657328852 146.11222537353024,79.4648076817648 146.12464637873927,78.94548304606906 146.13913755145768,78.49619739750597 146.15569889171456,78.07830556263616 146.15155855665216,77.65315926299809 146.15776905925304,77.23042078096842 146.15983922678424,76.83424738403482 146.1764005670484,76.4356514131996 146.13499721639528,76.35834715290002 146.02320816963038,76.24963759749517 145.62366583581024,76.22064829599367 145.2241235019901,76.18924317815436 144.88461602662574,76.1675011483967 144.4395300070828,76.13368017237553 144.05240867846442,76.09744335719552 143.65907684725244,76.0708696564725 143.24918367576902,76.03463274238493 142.95314971858897,76.01047476795975 142.60950190814765,75.99114837015986 142.31760828603728,75.97182195613095 141.93048695741163,75.94041649870996 141.55371646645654,75.90176356920529 141.23077033135633,75.87760545529818 140.84157883520675,75.84619986930193 140.47722934943886,75.81962587843009 140.26193192603387,75.6456862713203 140.26400209357234,75.25190146973364 140.28263360136043,74.90884418661881 140.27849326629803,74.58027748632594 140.292984439031,74.21063433987001 140.3012651091558,73.8168249767059 140.3074756117494,73.47374629476144 140.31368611435755,73.20072932164658 140.31161594681907,73.13066249632539 140.31368611435755,72.88663499046925 140.31989661695116,72.78515744378092 140.30954577928787,72.50005146450894 140.30954577928787,72.34058386728248 140.3530192974722,72.19077996582018 140.33231762214564,71.9322451313601 140.32610711955203,71.64954483670772 140.33438778968411,71.2242797287563 140.32610711955203,70.82558654830245 140.32196678448963,70.49212876219462 140.32610711955203,70.13208557885446 140.32196678448963,69.83244802778972 140.31989661695116,69.42164826511544 140.33024745461444,69.18241443358056 140.30954577928787,68.95526081502976 140.30333527669427,68.64594164076334 140.29505460656947,68.76676993848923 140.3074756117494,69.09058664524491 140.26607226109627,69.22591167899736 139.99695048185094,69.39023386354711 139.64709216880874,69.3564029215504 139.31379519604525,69.33707093234989 139.2868830181178,69.11233536509826 138.98049822328176,69.05192220359459 138.76727096740797,69.05192220359459 138.9142528622324,69.05917179136668 139.268251510337,69.11233536509826 139.61810982335737,69.18241443358056 139.96382780132262,69.23557772236381 140.25779159097874,69.25732630507446 140.25779159097874,69.60288435921939 140.25365125590906,69.89044269722217 140.0197223247087,69.98468372310344 139.7588812155809,69.96776869561836 139.4317947454183,69.95810296003947 139.03018224406696,69.94360434905502 138.66376259076787,69.93152216624367 138.2787114296807,69.91943997709495 137.89159010106232,69.90252490161583 137.49204776724218,69.89285913861204 137.1132071087486,69.88560981369119 136.6971034346716,69.87352760041176 136.29135059825785,69.8638618252262 135.997386808609,69.77445321208143 135.9953166410778,69.39748334463911 135.9849658034218,68.97459312524916 135.97668513328244,68.74018776746925 135.96840446315764,68.5710277772796 135.94563262029988,68.30520242091734 135.92079060990363,67.9644581509965 135.89180826445227,67.61887547062906 135.86282591899362,67.26845416146352 135.84212424365978,67.05819881191383 135.8214225683405,66.77785535429211 135.78415955273522,66.41533719330619 135.75103687222872,66.0697312229313 135.7303351968876,65.7289538142577 135.70342301896017,65.40267283707726 135.67651084104,65.20448509333619 135.63717765791807,64.85886091450448 135.61026547998335,64.45280628753608 135.58335330207046,64.11442195081327 135.54609028647246,63.72527380331849 135.49640626567998,63.34337045603206 135.44051174230844,62.990466783379816 135.40117855918652,62.690736119597204 135.34114370073803,62.369246464553726 135.28317900982074,62.001824207200116 135.22521431890345,61.65856915754739 135.16931979551737,61.337065057950895 135.1382672825348,61.10258178679396 135.0968639318744,60.742391481160666 135.0844429266799,60.488562705424556 135.06167108381487,60.15978983587229 135.03682907343318,59.799584745411266 135.01819756563782,59.48288969704481 134.97265387991501,59.146849717739315 134.90847868638957,58.80113439178058 134.82567198508332,58.4529962168308 134.74907578637794,58.14595330741031 134.6641989175332,57.83890629236157 134.57104137856368,57.517348717672576 134.46546283439238,57.193368862639545 134.3660947928147,56.903233769078724 134.28121792397724,56.63969121471746 134.1880603850077,56.330206187731164 134.10318351617025,56.03038858927357 133.99967513952288,55.65077520601699 133.91893860574783,55.41865182789661 133.80921972651413,55.10915033911442 133.67672900442267,54.76579224219313 133.59806263817882,54.507061268788675 133.47592275374336,54.2918529101953 133.34964253425278,53.96540941323474 133.25855516281445,53.680069812966394 133.1446959485038,53.4213265999897 132.9852930484849,53.05376113242528 132.8569426614631,52.72730002413846 132.72238177184045,52.39599770690256 132.60438222246012,52.100965339603135 132.4967335107649,51.832530955511174 132.39115496660088,51.559256690063194 132.30213776268647,51.312581549318566 132.20898022371694,51.179569343454204 131.93364794186346,51.31741834227614 131.58585979635973,51.44075621814227 131.24221198592568,51.578603647763885 130.93996752615203,51.68017490808052 130.64600373651047,51.68501162354187 130.5631970352042,51.30290796034569 130.48660083648429,50.93047168365956 130.4100046377789,50.59914342082811 130.33340843906626,50.219440184591804 130.2588824078848,49.85182342046937 130.14916352864384,49.48903794360194 130.03737448188622,49.155270237419245 129.98147995849286,48.956942198681645 129.85312957147107,48.647353539792675 129.7309896870429,48.27487414640564 129.61299013766984,47.91448248200686 129.47842924804718,47.52747841578275 129.39562254672637,47.27350344815386 129.2734826622982,46.93486578261036 129.14099194020673,46.54300738551319 129.02092222330975,46.199521060934785 128.8967121713431,45.81006907434494 128.78906345964788,45.49801892031064 128.6731340778133,45.171450257672404 128.56962570116593,44.864229565768255 128.44127531414415,44.50136517802639 128.33569676997286,44.191716358769554 128.22804805827764,43.896578434822004 128.11832917904394,43.55305245929776 128.00861029980297,43.24097158208497 127.93408426862152,43.018399678579954 127.81608471925574,42.68695707763618 127.70843600756052,42.36276770721997 127.60492763092043,42.07244497603642 127.46622640623536,41.67324521561568 127.33373568413663,41.2885552310745 127.21780630230205,40.94499016329428 127.11429792566196,40.640132339345655 126.98801770617138,40.26994238613406 126.8782988269304,39.94813841731411 126.7582291100407,39.59971398678317 126.67749257625837,39.350490483968315 126.61745771780261,39.11336269264757 126.47047582298546,38.75524668219259 126.35661660869664,38.42858192576023 126.24689772944839,38.10191251121796 126.13924901775317,37.789757384873155 126.01710913331772,37.43404054369421 125.90532008655282,37.11461663200316 125.79146087224944,36.75646937316378 125.71900500860647,36.46123566502865 125.64240880989382,36.14179818618868 125.55753194105637,35.798155923772356 125.47472523974284,35.48354933127848 125.37742736569635,35.11569614202017 125.39398870596779,34.880944636484855 125.25114714621304,34.818021143544684 125.0648320682667,34.89546541798882 124.72739476042625,34.98501003381898 124.35890493960324,35.09633528415907 123.99248528630415,35.212500185769386 123.65711814600945,35.316564076401846 123.30933000050572,35.425467641602154 122.97189269267255,35.568251531343776 122.6199642121137,35.70861448743926 122.26803573154757,35.810256091017436 121.96993160682905,35.93367743176168 121.7774060262891,35.99659785930635 121.64284513665189,36.06919813782406 121.37372335740656,36.15631816824862 121.04456671970547,36.23617790502067 120.71126974692743,36.30635744381652 120.53944584170677,36.15873816436397 120.49804249105364,35.78847578536988 120.45663914040051,35.51501018501949 120.41523578975466,35.26332214492504 120.36348160143098,34.94386795651553 120.30551691051369,34.58326658632359 120.23306104686344,34.27590388847602 120.12334216762974,34.0 119.96186910007964,34.113750251539386 119.64720363510423,34.25654232056149" stroke="red" stroke-dasharray="none" stroke-linecap="round" stroke-linejoin="round" stroke-width="0.5"><title>2024-05-01 58.8km</title><desc>1714551575000</desc></polyline><polyline fill="none" opacity="1" points="19.142314772841928,114.0 19.195320278595318,114.2528260019917 19.235604462970514,114.52795708371741 19.286489748476015,114.80804216686738 19.335254813770007,115.10547399141797 19.37765921837854,115.42025189751621 19.403101861134928,115.63092766378941 19.42642428365798,115.97296193684633 19.42642428365798,116.07705833437467 19.46458824779984,116.15884803691551 19.767779740694095,116.08697225289689 20.12397673932719,116.01013927471286 20.431408672680845,115.94322002413537 20.711277743030223,115.85647256332231 20.827889855689136,115.80194542375466 21.105638705805177,115.69289076433961 21.408830198692158,115.59374972488513 21.7417047748022,115.40290204419398 22.057617589074653,115.22692423524131 22.339606879657367,115.0732523925999 22.65976013438194,115.08564532045966 22.9544707463574,115.01376624771729 23.232219596487994,114.93197255215091 23.55873351189075,114.84274274075324 23.85768456432561,114.76094844875297 24.152395176286518,114.66923935789237 24.362296979059465,114.65932484010227 24.438624907343183,114.97163013714271 24.52979437722388,115.34341673536255 24.61036274595972,115.67554111268691 24.69093111471011,116.0076607873525 24.763018602527154,116.3025989442558 24.79058146551688,116.42899987629426 24.881750935397577,116.69914860453173 24.99412260759709,117.01638350640133 25.08105163701839,117.2840471180989 25.176461547373037,117.55914264791681 25.26763101726101,117.83175665744784 25.373642028760514,118.1192370905701 25.488133921178814,118.46123508704295 25.579303391066787,118.7784461639294 25.63018867658684,118.90483375766598 25.721358146489365,119.13530349962093 25.810407396144,119.38311790088846 25.90369708625076,119.66810122704555 25.980025014541752,119.91343192705972 26.035150740513927,120.06459401069151 26.14116175201343,120.32231072786271 26.19416725776682,120.48090422407586 26.242932323053537,120.65436463344122 26.336222013174847,120.9368545561083 26.440112804441014,121.26642183530748 26.55036425639264,121.59598448699398 26.656375267906697,121.91315319577188 26.71574143433827,122.05934670450188 26.834473767215968,122.39385385022979 26.929883677570615,122.720922894885 27.004091385620995,122.90923330800797 27.09102041504957,123.09506447169952 27.158867462407215,123.3155822108074 27.247916712069127,123.60299548068906 27.332725521264365,123.8829722656028 27.41965455069294,124.14064706416139 27.472660056439054,124.3339013072873 27.53414644311124,124.48007974225584 27.64651811530348,124.78729924955223 27.75676956726238,125.1069023742657 27.87126145968068,125.47605095715517 27.996354453251115,125.8402388388804 28.10872612543608,126.16973729387064 28.21897757739498,126.50170850564427 28.34407057097269,126.86092579954129 28.445841142012796,127.18545532042845 28.577294796261413,127.55209396467762 28.698147349372448,127.8939545716039 28.82536056317622,128.2432417921118 28.93561201513512,128.58756950029965 29.037382586175227,128.84519268623444 29.05434434801282,128.8699639975348 29.149754258352914,128.84766981854227 29.194278883187508,128.93436928466872 29.484749054696294,128.82042134882067 29.826104511725134,128.69904141790175 30.165339748520637,128.58509234057055 30.309514724154724,128.78078715462107 30.44944925933669,129.06317932921775 30.61906687773444,129.35547642597157 30.773842954535212,129.6353846437578 30.93073925155477,129.92767462153824 31.062192905803386,129.9524447915046 31.1151984115495,130.25711574603338 31.197887000518676,130.63113728825738 31.29965757156606,130.99772216157726 31.380225940294622,131.2652264327735 31.456553868571064,131.40888487713164 31.56468510031118,131.66152345932278 31.670696111810685,131.91911294277088 31.776707123317465,132.20889773678027 31.91876187871094,132.56307429919798 32.04385487228137,132.8800949470151 32.16470742540696,133.18225127182995 32.30676218080771,133.50669349259442 32.39157099000295,133.70977718385257 32.25163645482098,133.76921598108675 32.221953371605196,133.79893532333153 32.241035353676125,133.76673936753286 32.22407359183853,133.75930952531235 32.42761473391147,133.76673936753286 32.52726508471096,134.05650138215424 32.65447829851473,134.3858846334897 32.800773494382156,134.73259885938205 32.95554957118293,135.1164550733829 33.07852234451275,135.45325278281598 33.17605247509346,135.76528164910633 33.28206348660024,136.1392155496851 33.368992516021535,136.4487589814653 33.46016198590951,136.6641988048359 33.570413437875686,137.02573706115254 33.66582334822306,137.34269753485387 33.763353478803765,137.68936816118185 33.8524027284584,138.02117668830215 33.95205307926517,138.33317148050628 34.043222549167695,138.68230360252528 34.11531003698474,139.0116220598411 34.181036864109046,139.32360371343202 34.2234412687103,139.60586926286123 34.24252325078123,139.8559438057182 34.26584567331156,140.1827698934685 34.29552875652735,140.59129611767094 34.323091619509796,140.7695598830669 34.3379331611286,140.97505671423278 34.373976905037125,141.36871430556675 34.420621750090504,141.727704479772 34.47998791653663,142.0941163881689 34.53087320205668,142.43824129512177 34.59023936849553,142.80711780059755 34.61144157079252,142.9457544551824 34.65384597539378,143.16113478051557 34.702611040680495,143.4681102278155 34.75137610597449,143.80478837201008 34.77257830827148,144.0028320891488 34.79802095103514,144.25781092078068 34.795900730801804,144.37168406971978 34.83830513540306,144.54496823920454 34.86798821861885,144.89400819309412 34.891310641149175,145.22571512519244 34.90615218276071,145.54504051665026 34.90403196252737,145.62177698060987 34.931594825517095,145.80247798820346 34.96339812896622,146.08219051094238 34.98884077172988,146.36932557261025 35.00792275380081,146.61932824812538 35.03336539656448,146.91388244900736 35.05668781908753,147.24803611402967 35.07364958092512,147.47080258913593 35.10969332483364,147.78762238978015 35.12665508667851,148.02028421586328 35.14997750920156,148.24551847432303 35.177540372198564,148.56232785049906 35.194502134036156,148.81478227038497 35.213584116107086,149.02020886962055 35.22206499702588,149.17118390241012 35.21570433633315,149.45085640579236 35.22630543748528,149.74785011805398 35.23690653863741,150.04978988586117 35.241146979089535,150.31707759753954 35.26870984209381,150.59426164999604 35.27507050277927,151.01498121032273 35.27931094323867,151.41342045331294 35.27931094323867,151.787105792273 35.27931094323867,152.16573455943035 35.28143116347201,152.59137531892156 35.28779182416474,152.89575323879035 35.27931094323867,153.26694050178776 35.24750763978227,153.39809193644942 35.311114246687794,153.5935804555902 35.319595127599314,153.87814945133687 35.34291755013692,154.18003628094266 35.359879311981786,154.46954706610995 35.378961294052715,154.79369594635682 35.374720853578765,155.13763530219694 35.355638871507836,155.43950599587515 35.323835568073264,155.7784873294495 35.30687380623567,156.0135445154101 35.292032264616864,156.10014394028985 35.44892856163642,156.10509246924266 35.79028401866526,156.14962918306082 36.1358799161535,156.19416581272162 36.4835960338678,156.2238568524026 36.88431765733549,156.27334183541097 37.20447091206006,156.2931357995185 37.552187029781635,156.3302494374093 37.83205610013829,156.3302494374093 38.135247593032545,156.35994030565053 38.44267952636437,156.37725996151676 38.75223167993681,156.4044765378694 39.061783833523805,156.42674462241666 39.38829774894111,156.45396114163304 39.63424329562258,156.48860030244396 39.83142377701006,156.48117762941547 40.149456811501295,156.51086830750864 40.48233138761134,156.54303316657388 40.81096552325471,156.5776721964703 41.107796355463506,156.59499169232913 41.41946872926201,156.61973380719064 41.67813559732895,156.65189851768264 41.9262013642292,156.63210485488162 42.28875902355503,156.67416636845337 42.61951337943901,156.70633100465784 42.97146993761271,156.73849559696464 43.32978715647914,156.77313433958807 43.65842129212251,156.7978762674411 44.046421594212006,156.83004073481789 44.41109947377117,156.8523084172848 44.64432369906717,156.86715352723695 44.90511078734562,156.88694699263942 45.06836774505791,156.89684371910516 45.34611659518123,156.91168880101213 45.65990918922034,156.95127564038194 45.681111391531886,157.2877610905798 45.668390070146415,157.57475959043404 45.66202940945368,157.92113243656422 45.65566874876822,158.25513000369574 45.649308088075486,158.56190878465168 45.63870698693063,158.92063697293815 45.636586766690016,159.2471985772354 45.636586766690016,159.60591633813056 45.63446654647123,159.91267754219552 45.63446654647123,160.20953942342385 45.62598566554516,160.466816697186 45.63022610600456,160.65977281028245 45.6196250048597,161.0803127141371 45.613264344166964,161.57258225010082 45.60478346324817,162.0475260322546 45.58994192163664,162.4729883816599 45.58146104071784,162.8761810830074 45.57510038003966,163.20268791301714 45.52421509451233,163.56134550936622 45.42668496393162,163.91505076324574 45.2761493276048,164.22917615736515 45.10017104851431,164.5210369479555 45.07048796529125,164.5754512722542 45.13409457219677,164.54082398949686 45.23374492300354,164.62244536041544 45.439406285309815,164.75848035104536 45.67475073083915,164.94892802009053 45.94401870004367,165.11711429360003 46.07123191384744,165.2185201438133 46.29385503799858,165.44359010771404 46.55888256673643,165.62908571668413 46.80270789319184,165.82694609211467 47.067735421944235,165.87888416571332 47.24583392125351,165.86899120812814 47.33488317091542,165.97781351342746 47.44513462287432,166.19298341246758 47.5193423309247,166.25234028068735 47.854337127260806,166.31417019296532 48.176610602218716,166.45266860851916 48.50736495808815,166.53428336558682 48.77663292730722,166.64557576118932 49.03954023581173,166.77417965347013 49.26216335996287,166.87310524750683 49.49326736503281,166.9868691679476 49.74133313194034,167.09815942897148 50.044524624834594,167.20697606558497 50.35831721886643,167.3207383764293 50.521574176578724,167.404823210225 50.76539950301958,167.5358960300673 51.03466747223138,167.6966447208688 51.246689495230385,167.82276985012868 51.526558565594314,167.95384034865492 51.89547688561288,168.06759905917534 52.20714925941138,168.1615732325372 52.5082205320723,168.25307404178602 52.81565246541868,168.34457449627735 53.067958672792884,168.47811506345715 53.27362003509916,168.57208760222784 53.46231963556056,168.6586409253432 53.661620337181375,168.75508568291116 53.94148940753803,168.89109685072617 54.2743639836408,169.04936340479617 54.6411620834333,169.1606439402076 54.9846377606882,169.19031866104706 55.27722815242305,169.22246623318824 55.53801524071605,169.21999334457178 55.8539280549885,169.2323577850293 56.055348976820824,169.271923950977 56.2800923212053,169.29665277100685 56.59388491525169,169.38073056533176 56.90343706882413,169.42524221754684 57.221470103322645,169.52910241296559 57.36140463849006,169.58350519008673 57.69003877414798,169.73187576311648 57.98686960633495,169.87777258385722 58.26249823623948,169.98410359697118 58.404552991647506,170.04839653533782 58.631416556258046,170.13494444507342 58.94732937052322,170.25858376568067 59.273843285947805,170.39953180126213 59.61095830250997,170.5281152400039 59.89506781332602,170.64680702336955 60.21734128829121,170.73088000887037 60.58625960829522,170.91880677616246 60.94245660693559,171.09436858880326 61.26685030212684,171.25756572262435 61.5339980511053,171.3910898112299 61.76086161571584,171.51966784949218 62.03012958492036,171.65319045577417 62.29727733389154,171.78671230694454 62.55170376149181,171.915288190703 62.78492798679508,172.02655521728047 63.071157717837195,172.18480075191474 63.34678634773445,172.34304522599632 63.61605431694625,172.47409062830593 63.91924580982595,172.63233316361766 64.23303840386507,172.78810212357348 64.51502769446233,172.93892505803888 64.77793500297412,173.06996715342757 65.06628495425684,173.2257332265326 65.37159666736989,173.3765533658716 65.65782639841927,173.51006547233374 65.96101789129898,173.66582864252086 66.25784872350778,173.81664597119197 66.54195823431655,173.96498994505055 66.7645813584677,174.0787196939691 67.01264712536795,174.2048107319024 67.30311729687674,174.3457352129517 67.58722680769279,174.4940758635039 67.88617786012765,174.65477718354487 68.21481199577829,174.8154774101713 68.51376304820587,174.9737042573306 68.82331520177831,175.14429138951346 69.1180258137465,175.31487728967477 69.41697686617408,175.45332291167506 69.77105364458112,175.63873988429623 70.09968778023904,175.80437781564615 70.41984103496361,175.9724867673158 70.67214724232326,176.10103986430113 70.9901802768145,176.25678594843157 71.31033353155362,176.42489168058455 71.61140480420727,176.56827503622299 71.91247607686091,176.72154593679988 72.22414845066669,176.92672961800963 72.37468408699351,177.07010992786127 72.45737267596996,177.1244953349942 72.72452042494115,177.30742714932603 72.995908614379,177.5719341599197 73.2206519587562,177.79935838083475 73.4284335413031,178.01442057589702 73.6277342429239,178.20723329343855 73.87792023005022,178.46431446934002 74.14930841949536,178.74363988416553 74.43129771008535,179.03037758345818 74.70480611974199,179.3195836350642 74.96347298780893,179.58159631827039 75.22001963562798,179.8411343197422 75.47020562277612,180.09572597090119 75.72463205037639,180.3428997073479 75.9620967161245,180.5900708587942 76.19532094142778,180.8273527323363 76.39886208350072,181.07204716950764 76.63208630881127,181.26977819743843 76.73173665961076,181.37111470815944 76.76990062375262,181.40324570621306 76.80594436766114,181.43043343967838 76.92891714099824,181.55401365222133 77.12609762239299,181.76162695482162 77.22786819342582,181.85801822548092 77.41868801412784,182.06810040222445 77.60738761458924,182.2732376672975 77.84485228035192,182.50308815077733 78.04627320219879,182.72305049928582 78.17348641600256,182.82438078024643 78.41519152221736,183.04434013938408 78.65901684865821,183.3112543661082 78.90072195488028,183.56333725781406 79.14878772178781,183.82036018407234 79.39473326846928,184.0798516502291 79.41805569100688,184.1342209299055 79.57283176778583,184.27261489584635 79.74881004687632,184.43324973344716 79.98839493286505,184.67049303601925 80.20889783678285,184.88796397240367 80.4145591990964,185.1153178129407 80.44424228231219,185.1968681144026 80.5417724128929,185.28336055105865 80.61385990070994,185.48599873531748 80.75167421565857,185.6416829900918 80.8534447866914,185.7677123504418 80.79195840002649,185.83937580484417" stroke="red" stroke-dasharray="none" stroke-linecap="round" stroke-linejoin="round" stroke-width="0.5"><title>2024-05-01 52.5km</title><desc>1714541844000</desc></polyline><polyline fill="none" opacity="1" points="186.0,148.48719671180515 185.72629747752944,148.5075325098478 185.44911568570387,148.51431110203703 185.1962887793561,148.50617679098195 185.05711800521385,148.51431110203703 184.8112496375761,148.52108969064102 184.52015076833777,148.52244540793527 184.25804581037664,148.52786827566524 183.9959408524228,148.53600257296785 183.7454334589711,148.54006971968738 183.4775297187589,148.5332911411051 183.23166135111387,148.50075391408154 183.00202957378497,148.47770666168708 182.72484778196667,148.50346535281733 182.49985503044445,148.5888753797326 182.29225862569,148.60921101663098 182.08118295158056,148.61327814014567 181.96520730646444,148.35297963636458 181.88170484198054,148.1496177558929 181.79936213395558,147.97201241013317 181.71122064365773,147.73746112492972 181.64743403885223,147.56391752942181 181.5906059727422,147.42155579589598 181.50014496954827,147.18970616249135 181.4015656712072,146.9537846901003 181.30878515511722,146.7246384162736 181.21136561322055,146.55108111746267 180.86459843432385,145.94361207538896 180.72194839084113,145.74156800389665 180.67323861988552,145.56392931127084 180.5479849231633,145.6493589133488 180.33806900550553,145.7958083356716 180.14091040881613,145.68325939135775 180.04349086691946,145.66020707606367 179.80226152508112,145.6263065371122 179.55523340098443,145.65207095488768 179.38358944621723,145.71037970923953 179.10872716728773,145.7944523301694 179.04030153666827,145.82157241289315 178.83386488837277,145.8975083393907 178.55436358364386,145.98835966064507 178.32009278050828,146.0873461884621 178.22035372571554,146.1551447392494 178.0208756161228,146.25684189339063 177.93041461292887,146.31921574895296 177.65903160336165,146.44260661306362 177.54653522760054,146.4724371932307 177.29022905189777,146.55108111746267 177.12786314873665,146.59582658325417 176.85648013916943,146.682605223481 176.69411423600832,146.73955338705582 176.51203247317608,146.88056679912552 176.27544215714443,147.04191678232382 176.0968396636672,147.1069985540471 175.92171643954498,147.17885929340446 175.65845172513946,147.29275096134552 175.4102638445911,147.4052857828974 175.25485648014,147.48392398789383 175.0217454334561,147.59781294740606 174.92432589155942,147.6303524644145 174.69585387068219,147.79033722257373 174.46622209336056,147.95031998567356 174.33516961438,148.0452240718887 174.13917077413498,148.1130122750892 173.83415482748387,148.2350301382894 173.68338648883946,148.2784139877831 173.4096839663689,148.31773047467686 173.22528269063332,148.32857638089263 172.99333140040835,148.38145004241505 172.7323861988989,148.34891243034144 172.47376051029278,148.2757025014871 172.3554653522733,148.22282840418757 172.12235430559667,148.04929137418094 171.91475790084223,147.97201241013317 171.73035662510665,148.15504078120466 171.50072484777775,148.2743467581222 171.30472600753274,148.35297963636458 171.0298637286105,148.45465936789424 170.7457233980822,148.55633829365797 170.52189040301164,148.63496944376766 170.38735865468334,148.6946203396692 170.19831835314108,148.80172011595096 170.01971585966385,148.8532361456373 169.76804870976775,148.8789940829256 169.54653522760054,148.9332211503106 169.42360104378167,148.9481335536684 169.23108147289167,149.00507166163152 168.9712960278266,149.12843669553786 168.78921426500165,149.24095541761562 168.506233690925,149.38329696584424 168.3682226732417,149.4605674308732 168.1385908959055,149.5663052080572 167.87996520730667,149.7072875558406 167.6770078283589,149.84284604519053 167.58074804290663,149.91062475295803 167.33371991881722,149.9784031028048 167.0634966656944,150.0597366501661 166.75152218034054,150.1546251373711 166.57987822556606,150.19529141715157 166.288779356335,150.27255699378202 166.04523050158605,150.37964360291244 165.77268773557444,150.51926151110365 165.60916207596165,150.60194712909652 165.40272542765888,150.6995425830446 165.1893302406461,150.79442634081533 164.9968106697561,150.8689773727865 164.81008988112444,150.94623889454124 164.64192519570497,151.02078904491646 164.6233690924928,151.03705447473476 164.45056538126664,151.095338762374 164.22441287329275,151.2132619769318 163.99362133951945,151.33389494921357 163.7663090750939,151.45046056473984 163.5158016816422,151.59548839962827 163.28848941721662,151.7012085927272 163.12960278341052,151.7825312258483 162.90461003189557,151.88960524060167 162.73064656421775,151.98176950028028 162.50565381269553,152.0888418536415 162.40475500144385,151.88824987890803 162.2934183821344,151.65919169713834 162.1635256596055,151.43284024889726 162.0707451435228,151.30407566827125 161.9385329080833,151.10618232157958 161.80632067265833,150.9096413895668 161.7158596694644,150.77409416604496 161.55465352276224,150.82695775346383 161.34009857929777,150.96250441881875 161.1672948680789,151.04518718191957 160.94810089880775,151.14006838505884 160.65584227311774,151.15633366375732 160.52131052478217,151.11431498497313 160.28240069584717,150.99503540554906 159.98666280080943,150.8418679567103 159.64801391707442,150.77409416604496 159.37315163815947,150.73071875224377 159.10408814148832,150.7252968152152 158.8489417222372,150.68463221448656 158.64830385618552,150.64396748495255 158.45346477239946,150.61685759369266 158.26326471440552,150.5992361336721 157.99536097419332,150.57348164858922 157.72513772107777,150.54501610496482 157.45839373731724,150.52468353515542 157.19164975354215,150.49892890049978 156.9585387068655,150.46504114459185 156.7207886343822,150.4555525569067 156.48883734415722,150.48130727859007 156.26964337488607,150.58974764518098 156.18266164105444,150.53688308090477 156.07480429109273,150.3633773400843 155.94375181211944,150.15191404747384 155.8242968976483,149.96484746146598 155.73499565090606,149.8252235225409 155.62133951870055,149.64357457123333 155.50768338648777,149.47412360483668 155.39170774137165,149.28162459249597 155.23282110756554,149.03354062087146 155.08901130762388,148.81256561307328 154.94404175123054,148.59023108986366 154.81762829805666,148.5454925799695 154.61235140620556,148.63496944376766 154.49637576108944,148.7230899876804 154.23775007248332,148.84103499940193 154.08698173383164,148.9020406145637 153.8956219193933,148.99422632721416 153.6567120904583,149.0592981962427 153.40272542765888,149.20028611384714 153.22760220353666,149.29789222636282 153.13946071324608,149.3453393740183 152.9330240649433,149.4266769333144 152.72658741664054,149.50801397710256 152.53058857639553,149.57579445315423 152.31603363293107,149.65713055189644 152.0052189040216,150.03126996721494 151.86372861698328,150.09226992480126 151.7280371122033,150.12344756895254 150.9336039431655,150.05295887423836 150.74108437228278,150.08684771809112 150.4940562481861,150.1288697602049 150.21571469991613,150.1708916647449 149.96984633226384,150.199358038044 149.73789504203887,150.21969112317674 149.51754131632333,150.2318909587957 149.28443026963942,150.24409078281587 149.04899971005943,150.24273524738692 148.7370252246983,150.25357952682134 148.5688605392861,150.26849039608078 148.4227312264411,150.2617127303829 148.11655552333832,150.25900166310203 147.81037982023554,150.2779791220446 147.50652363002882,150.27120146135894 147.18643084952055,150.2617127303829 146.8941722238378,150.25493506110433 146.60423311104387,150.252223992391 146.3363293708244,150.25086845782062 146.0498695274,150.24544631810568 145.77964627428446,150.25086845782062 145.50942302116164,150.25086845782062 145.25311684545886,150.24815738825237 144.99333140040835,150.24951292310925 144.72310814728553,150.25357952682134 144.45984343288,150.24544631810568 144.17338358944107,150.24815738825237 144.03189330240275,150.24544631810568 143.7535517541255,150.24815738825237 143.44969556392607,150.24951292310925 143.1725137721005,150.25086845782062 142.90576978833997,150.25493506110433 142.67033922875999,150.2617127303829 142.4105537837022,150.25357952682134 142.25630617570278,150.24680185325087 141.9501304726,150.25086845782062 141.6787474630255,150.25357952682134 141.41200347926497,150.252223992391 141.22876195998833,150.25900166310203 140.98173383589165,150.24951292310925 140.6743983763372,150.25629059524817 140.40417512322165,150.26577933022963 140.18730066685384,150.26035719681204 139.8915627718161,150.26442379708988 139.5946651203194,150.26442379708988 139.32328211075946,150.26984592879035 139.08205276891385,150.26442379708988 138.8361844012761,150.26306826380824 138.57987822556606,150.26849039608078 138.35256596114777,150.26984592879035 138.10785734994715,150.26984592879035 137.8167584807088,150.26984592879035 137.5732096259744,150.28069018531914 137.33777906638716,150.2766235901945 137.04436068425275,150.27391252606412 136.73006668598828,150.27255699378202 136.55030443605938,150.24544631810568 136.29631777325994,150.28611231014747 136.0260945201444,150.2834012480207 135.84749202666717,150.2834012480207 135.56451145259052,150.2834012480207 135.2687735575455,150.2874678409953 135.00318933023664,150.2779791220446 134.73528559002443,150.2793346537528 134.48477819657273,150.2901789022635 134.20643664830277,150.29288996296145 133.94897071614105,150.29288996296145 133.69614380979328,150.29424549309624 133.51638155986439,150.30644525785283 133.2519570890072,150.30237867088817 132.97825456653663,150.29831208263568 132.75094230211107,150.29831208263568 132.53058857638825,150.29831208263568 132.24064946360886,150.30373420002252 131.97274572339666,150.30373420002252 131.89388228471944,150.3091563151147 131.8498115395778,150.1275142126051 131.7373151638094,150.09633657833547 131.46709191069385,150.08684771809112 131.25137721077772,150.06380331400487 131.07857349956612,150.07058108420915 130.80139170773327,150.06380331400487 130.51377210785722,150.05566998503582 130.25398666279943,150.03804775459685 129.98608292257995,150.0231366176322 129.7158596694644,150.01229214350406 129.44679617280053,150.0082254633462 129.17077413742663,150.01771438171363 128.89475210205273,150.02720329306703 128.64192519570497,150.03533664007227 128.38329950709885,150.04346998192523 128.12351406204834,150.0461810947263 127.88460423310607,150.05295887423836 127.65149318642216,150.06109220492544 127.50188460422942,150.06109220492544 127.30704552044335,150.0719366378189 127.02290518990048,150.08006995647975 126.76891852710833,150.08684771809112 126.73412583357276,150.20749127596264 126.72020875615999,150.52332802935416 126.71093070454663,150.78493799659736 126.68773557552777,151.05603078348395 126.65062336908886,151.24579232826363 126.58799652072776,151.44232811428083 126.46622209336056,151.70527473661878 126.33632937082439,151.97905879620612 126.22035372570826,152.2311518274637 126.10785734994715,152.4995034871754 126.04523050158605,152.77598115042474 126.04870977094106,153.05109762282882 126.10785734994715,153.4061653441786 126.1600463902505,153.69888554969202 126.20643664830277,153.95907568805524 126.1681646854122,154.17183141591886 125.89794143229665,154.2057093913245 125.63119744853611,154.24636284388453 125.37489127282606,154.2788855133076 125.13830095680169,154.3141183122716 125.07451435198163,154.330379571511 124.84488257466,154.36019182665768 124.6198898231305,154.39813459678953 124.37866048129217,154.4387874404374 124.22673238619609,154.44420780987002 124.12119454913773,154.43201197543294 124.29051899100887,154.44420780987002 124.55378370542167,154.41846103469106 124.81008988112444,154.36967752969667 125.01768628587888,154.3452857077291 125.26123514062056,154.31005299424578 125.43519860828383,154.28701616780108 125.69846332269663,154.24636284388453 125.95824876775441,154.21112985909622 126.0591475790061,154.18673773610135 126.0,153.9943093641432 125.93853290808329,153.75580259280196 125.89910118874104,153.58505070687988 125.86314873876108,153.44275573468167 125.79936213395558,153.1988178290403 125.73325601623219,152.91150724280124 125.67642795012216,152.65807228667472 125.61959988401941,152.40598763629805 125.5824876775805,152.25283701833996 125.5071035082583,151.98854625797412 125.39576688894886,151.77575435943254 125.26239489706495,151.54804956850603 125.21020585676888,151.28374430064468 125.24615830675612,151.08178430048793 125.31342418091663,150.84864531609674 125.37605102927773,150.6358345235849 125.44447665989719,150.38099912388589 125.50942302116164,150.16953612158704 125.5697303566194,149.96213633148272 125.52565961147775,149.8170900423902 125.26471440996829,149.75337760286675 125.03392287618772,149.69373162815918 124.76369962307945,149.62324057339538 124.51319222962775,149.5649496010401 124.26036532327998,149.4998802959226 124.0133371991833,149.43481066089134 123.83009567990666,149.39143072091247 123.5784285300033,149.32364927114213 123.31980284139718,149.2477336223783 123.07277471730049,149.18537400350942 122.88605392867612,149.13928191653304 122.59611481588217,149.06336517710315 122.34328790953441,148.99964899556926 122.07770368221827,148.9305098023833 121.80632067265105,148.8613702366838 121.59292548564554,148.81392129956657 121.36213395186496,148.73935832961524 121.15221803420718,148.58751966946147 120.98637286169833,148.42618912428406 120.79037402145332,148.23638588580525 120.60017396345938,148.04793560688995 120.42505073933717,147.88117513793895 120.22325311684108,147.74152852479529 119.94491156856384,147.66424770686535 119.69324441866775,147.6845848093517 119.54131632356439,147.73474952430388 119.33024064946221,147.8757519968658 119.10292838503665,148.0723393961489 118.88837344157218,148.23367439062986 118.66454044650163,148.34213375077434 118.42563061756664,148.41127611432694 118.19599884024501,148.4383906649973 117.97448535807052,148.44652501902237 117.85039141779998,148.45465936789424 117.5778486517811,148.47228377275314 117.33429979703942,148.48719671180515 117.09654972454882,148.5075325098478 116.85068135691108,148.52380112508126 116.5943751812083,148.5427811501122 116.3519860829183,148.56176114706705 116.14207016526052,148.56989542288375 115.88808350246109,148.59836534762962 115.63757610900939,148.6159895551018 115.40794433168776,148.64445937757682 115.17019425920444,148.65666071072792 114.91388808349438,148.6783519410128 114.66338069004996,148.7488481862165 114.44186720788275,148.87628272353686 114.25862568859884,149.04845290765024 114.14149028703832,149.21248691851451 114.05334879674774,149.42125444540306 114.01043780805776,149.61781816853272 114.00579878225108,149.91198032346074 114.0255146419222,150.19664695759002 114.04870977094106,150.48130727859007 114.07074514350825,150.76053936497738 114.09046100317937,151.02078904491646 114.11481588865718,151.29323227621262 114.13337199187663,151.580579071594 114.15308785154775,151.88824987890803 114.15308785154775,152.17964935237796 114.15192809509608,152.42089600597956 114.13105247897329,152.73667831612238 114.10785734994715,153.03483474401492 114.08930124673498,153.30316961125664 114.06842563061218,153.57556442444184 114.0498695274,153.84117768459328 114.0301536677216,154.12169184835602 114.02203537256719,154.40084479036886" stroke="red" stroke-dasharray="none" stroke-linecap="round" stroke-linejoin="round" stroke-width="0.5"><title>2024-04-21 79.4km</title><desc>1713660889000</desc></polyline><polyline fill="none" opacity="1" points="19.488716687417764,194.36676501855254 20.101708038557263,194.17614446142943 20.26888749795762,194.88312157030487 20.384468358781305,195.55629785497877 20.458770340730553,196.22221615674607 20.450514564952755,196.48520028167331 21.104784794959414,196.35491494698 21.682689099056006,196.4924383340258 21.77763052044611,196.8326242067469 21.707456426382123,197.30067308194157 21.503125975999865,197.53710649574896 21.701264594550594,197.30308568016153 21.765246856790327,196.75300669078388 21.307051301395404,196.29942281942567 21.670305435400223,196.17878729428048 22.058326896723884,196.0388492866423 22.737364454049384,195.74690688905866 23.457680890220217,195.45737355183155 24.045904914040875,195.29571584127007 24.805436285139876,195.0954517170194 25.2636318405348,195.10751587060804 25.445258907544485,195.82894066710833 25.6103744229913,196.50691443184405 25.792001490015537,197.1293779570933 26.023163211648352,197.79525038701468 26.277028316661017,198.53589002947774 26.5185097580179,199.2668560954262 26.793014302464144,200.04845729743465 27.00972841650946,200.67564879897327 27.245018026027537,201.3679517331675 27.505074962879007,202.1325964478492 27.74862034817488,202.85379940178973 27.934375303062552,203.3892597815793 28.1201302579575,203.91506001802736 28.32858859621774,204.5445572347253 28.55768637391884,205.22227240595748 28.792975983444194,205.91926100064484 29.03652136874007,206.608993499598 29.232596043351805,207.1733046125737 29.48646114836447,207.92328628799805 29.69904737451725,208.55749596829264 29.87035472180287,208.95778655994036 30.50604945631494,208.70700291266076 31.02409938605706,208.74799658150187 31.393545351886132,209.4062966101592 31.72996821464767,209.8789105862179 31.932234721076384,210.60710280053536 32.095286292584206,211.21712677718642 32.38423844463978,211.87294468526125 32.67731848458061,212.63000521536924 33.01580529126659,213.42320418357303 33.17266503095016,213.8475181781614 33.44510563145013,214.50326069395487 33.66388368943444,215.05773418879653 33.86202230798517,215.67246083867758 34.03952148710232,216.284760382292 34.27893898451293,217.02962238977307 34.52248436980881,217.8178480215156 34.73507059596159,218.63979141048003 34.86097117650206,219.18452355631234 34.8857385038209,219.81601097435487 34.927017382688064,220.4113285850908 34.98480781309627,221.0379619828982 35.11277233756846,221.86942983038352 35.21184164684382,222.50807304312366 35.32742250767478,223.1780267857157 35.40998026540183,223.89374708677678 35.47396252764156,224.39738871012196 35.515241406501445,225.0769258899145 35.583351556619164,225.80222525463432 35.64114198703464,226.5202731078698 35.690676641672326,226.99735286546456 35.74846707208053,227.72981962937774 35.79180989489396,228.23819562853532 35.81864116615907,228.67669098788247 35.83928060559265,229.42837780399532 35.866111876843206,230.0403097686558 35.874367652621004,231.00153999448048 35.878495540506265,231.84710018633268 35.872303708674735,232.5529143058684 35.91977441936615,233.02986854462324 35.95486146640178,233.78382142722512 35.95279752246279,234.5184801085761 35.90326286781783,235.10619011346353 36.03329133625084,235.37595359860825 36.78869481946458,235.45061971703035 37.53377858296881,235.51324272573947 38.19836853268498,235.5662312919194 38.87327820211067,235.61440260950803 39.63487351717049,235.6697994996921 40.22722542886913,235.722787704266 40.96198947264929,235.78781851534768 41.632771254196996,235.84080644734786 42.346895858543576,235.9010198578908 42.99084636882617,235.94437341563025 43.59970983208768,235.99495246279002 44.152846808865434,236.04071436175946 44.792669431262766,236.09129319652675 45.341678520155256,236.12982937674315 45.9113270484886,236.1731825021343 45.99182086226938,236.77770921538286 45.9773732546746,237.63991497791721 45.96086170311901,238.41298254371213 45.958797759180015,238.99818459818925 45.948478039463225,239.69655435277855 45.927838600029645,240.79463761649458 45.90719916060334,241.69281140852763 45.85972844990465,242.57168740575617 45.60792728883098,243.26754070322386 45.285952033686044,243.80446499420577 45.12496440610994,244.13191041728714 45.30246358524164,243.86465751780815 45.68635715867276,243.71537976974105 46.23536624756525,244.1198720652792 46.747224345490395,244.54121063086495 47.34783203295956,244.8734607344686 47.752365045838815,245.21533625863594 48.39631555611413,245.42720022676258 49.10837621652172,245.66072983654885 49.808053213288076,246.00981606317873 50.49534654636955,246.2481546462659 51.1434249445374,246.61408381954243 51.59542866810807,246.8644530533329 52.31574510428618,247.08593125490006 52.936992231203476,247.27851925984396 53.34771707589971,247.47832760862912 53.787337135800044,247.6925780037909 54.44573525368469,248.00552442876506 55.12477281101019,248.10181477892002 55.79349064860435,248.12829455446808 56.31979635413154,248.19329023779392 57.06900800552103,248.3762400630094 57.67993541270698,248.62177569693813 58.299118595670734,248.88415891561272 58.998795592429815,249.1657962843583 59.7046644209986,249.45705865036507 60.34242309945694,249.688140215334 61.058611647749785,250.05401460787652 61.56634185778239,250.32119551730466 62.00802586163627,250.53541940829018 62.56941861419182,250.81944351095262 63.17415418955352,251.15160283959085 63.706651726904965,251.42839861346692 64.26804447945324,251.702784177789 64.87071611087595,252.0156759997535 65.47132379835239,252.31171587952485 66.10495458891091,252.62941297298676 66.61474874289706,252.89897070028746 67.2442516455776,253.2118462419312 67.91916131501057,253.55600442003924 68.49087378728291,253.86165107021588 68.97383666999667,254.11675461233426 69.52903759071341,254.40073447174473 70.08011062355217,254.69193051607908 70.51353885162825,254.9109267645781 71.09350709967839,255.20452285843567 71.62394069307629,255.4764568803239 72.028473705941,255.77485865542985 72.53001208414935,256.1911707920917 72.95105664857692,256.61710084392143 73.40099642818677,257.0622735413599 74.00779594749474,257.69271959370053 74.54648531667772,258.23893178351136 75.08104679797543,258.77069418776045 75.54543418519461,259.23266783759937 75.9479032541276,259.6850080484055 76.25336695771693,259.966513158457 76.52374361427792,260.22154900262103 76.7941202708389,260.5559785146561 76.91589296349412,260.7243944143902 77.31629808848083,261.05881661864987 77.73940659684013,261.4485687386041 78.22030553560035,261.94176412075103 78.8456805504029,262.5937281377428 79.30181216184428,263.04600228934396 79.77445532484853,263.55119163256495 79.88797224173322,263.7364249471975 79.99942521466437,263.96736309610424 80.17486044983525,264.13094288323555 80.42046977907012,264.41479916713433 80.43491738667217,264.5110208419683 80.50302753680444,264.7299236540639 80.35442357289139,264.8959035198186 80.25741820755502,265.1075862501166 80.13564551491436,265.4154849291117 80.08404691632313,265.73781194736694 79.99529732676456,265.95670309619163 80.02212859803694,265.66564957410264 80.13151762702182,265.4154849291117 80.06959930872836,265.10036982544807 80.38125484414923,264.6072421146455 80.42253372302366,264.3546604161347 80.3152086379705,264.2223546109635 80.06959930872836,263.9890134287889 80.25535426361603,263.7243968551338 80.10055846787873,263.61133248253645 79.73936827780562,263.3274662912263 79.29562033001275,262.8583577093559 78.98190085064562,262.53839611545664 78.45972303301096,262.02115556052377 77.98914381396753,261.54480281385077 77.59905840869033,261.1430228825793 77.09339214260399,260.6546222626148 76.6682196903057,260.211925059828 76.24923906983167,259.7740314042803 75.85296183273749,259.3770327008624 75.50002741843491,259.03055550721365 75.04595975093252,258.5541408460449 74.57950841976708,258.089747362661 74.14195230380574,257.65421956679165 73.70646013178339,257.2114646258851 73.35352571749536,256.8649548142748 72.99852735926106,256.4991887942615 72.55890729936073,256.0564116189653 72.12341512734565,255.64972289855177 71.76841676911135,255.41870125081914 71.15542541797186,255.07938399809427 70.46194025305158,254.7087764553944 69.81179791093018,254.39592128299955 69.21531811134628,254.08787510812363 68.64566958302021,253.803891384694 67.9934632969671,253.48861721035428 67.36602433822554,253.15889837265604 66.90989272677689,252.92303820080997 66.18751234664524,252.564429833772 65.56626521974249,252.24432502252967 64.9801051398681,251.9242157538465 64.35885801295808,251.60891580068346 63.768570045205706,251.29842536083925 63.20511334870389,251.01200022826924 62.65197637191159,250.74723432606152 62.00389797375101,250.41025513021668 61.421865781754605,250.13585413535657 60.83570570188749,249.82052964831018 60.24954562202038,249.51723636501083 59.79341401055717,249.2765245609262 59.2237654822311,248.9924813890102 58.67269244939234,248.70362032520097 58.15464251964295,248.4484566982901 57.59118582314841,248.16199604284157 57.39511114854395,248.2269916308378 57.02979307059286,248.34494611723312 56.43124932706996,248.21736266644257 55.92351911703008,248.1234800520997 55.248609447604395,248.087371252117 54.55306033873785,248.0127462190285 54.113440278837516,247.8177570852895 53.72954670539184,247.63480281307056 53.133066905793385,247.34833201294532 52.590249648732424,247.14852253359095 52.045368447725195,246.98482190601862 51.61400416359538,246.85241613337348 51.1516807203152,246.59963935741325 50.52630570551992,246.2481546462659 49.948401401423325,246.04352065939565 49.43241541560565,245.79795746881427 48.887534214605694,245.5379465232727 48.307565966562834,245.37182687827226 47.81634730807127,245.22255892607973 47.62440052135935,244.90475940956094 47.21367567665584,244.86383036432017 46.75960800915345,244.54121063086495 46.336499500786886,244.16802543543236 45.921646768198116,243.88391909203347 45.48821854012931,243.5685087802758 45.22403371539258,243.89836526210638 44.80918098280381,243.86224981989108 44.309706548549,243.55887786290077 43.853574937107624,243.21697767926162 43.40157121352968,242.8871114095491 42.92892805053998,242.52353068803495 42.452156999657745,242.1984702016034 42.010472995803866,241.81320736939233 41.564661104064726,241.54833542210508 41.1229771002254,241.31717195272358 40.66271760088421,241.10767804807438 40.233417260693386,240.96319837930423 39.773157761352195,240.79945365545973 39.32115403779608,240.6621961488636 38.883597921834735,240.5442021977251 38.446041805866116,240.42861569834167 38.058020344542456,240.3756383582895 37.405814058482065,240.3611899716052 36.83822947410226,240.3298851025811 36.256197282113135,240.3058044050449 35.721635800822696,240.22633792395754 35.721635800822696,239.80492016891367 35.727827632654225,239.40998450697407 35.731955520539486,239.01985846180105 35.74640312814881,238.42502388860703 35.76291467968986,237.9240986054574 35.77529834334564,237.42797913421782 35.81864116615907,236.89572253232836 35.85992004501168,236.41403170702506 35.90739075571037,235.87693451263294 35.94247780273872,235.45784545752758 35.994076401337225,234.9472208599782 36.02503556047304,234.45585438427406 36.02503556047304,233.95484243456485 35.98994851343741,233.47790743080986 35.971373017942824,232.90942649117278 35.96930907401111,232.5625498432055 35.96930907401111,232.07354121255776 35.96724513006484,231.47129950598355 35.96311724217958,230.8425422875698 35.96105329823331,230.32217844689512 35.944541746692266,229.80421196948373 35.92803019515122,229.358510517146 35.90326286781783,228.67669098788247 35.88675131628406,228.29361034029898 35.83308877375384,227.63103435907215 35.7794262312309,227.0648178882584 35.74021129631001,226.58533002325748 35.68654875379434,225.97089623527972 35.64526987492718,225.36367489442455 35.59573522028222,224.86728359055815 35.53794478987402,224.25039397375622 35.478090415519546,223.6431270338453 35.41410815327981,223.1418787025632 35.343934059215826,222.69604765351323 35.27375996514456,222.26466772999993 35.189138263463974,221.7850793955531 35.106580505744205,221.23558895958558 35.03434246773395,220.63547250091506 34.99512753281306,220.14861948258476 34.962104429723695,219.6256024799386 34.900186111422954,219.04231597181933 34.78254130666028,218.4517835021561 34.65664072612708,217.96970488757688 34.505972818267765,217.43458573735552 34.34292124675267,216.94043307080028 34.1778057312913,216.43421683894485 34.04158543104131,215.99307642218628 33.90123724289879,215.48683923748104 33.70516256828705,214.91791170464967 33.53385522101598,214.4164723222566 33.29650166754436,213.91984364233576 33.16853714305762,213.5268725336191 32.93531147747126,213.01093702719118 32.72066130738676,212.4877568997381 32.51426691306551,211.96697585891343 32.309936462683254,211.43412743103727 32.080838684996706,211.16167072428652 31.564852699179028,211.3786719041982 31.057122489146423,211.5643268352669 30.582415382217732,211.60049320492726 30.458578745623527,210.98083483515256 30.342997884799843,210.42385131371702 30.225353080037166,209.9199021544773 30.07468517217785,209.3677154462348 29.92608120827208,208.91438189471046 29.752709917032917,208.4224565977329 29.597914121302892,207.9883960768002 29.408031278522685,207.4144589599855 29.228468155459268,206.8983855538536 29.032393480862083,206.32683271974565 28.846638525967137,205.774559234178 28.679459066559502,205.26568408089406 28.47719256013079,204.6989140586502 28.287309717357857,204.1490131153023 28.126322089789028,203.6666329734744 27.959142630381393,203.19871450778737 27.769259787608462,202.66083763104325 27.606208216086088,202.16877774036948 27.426645093037223,201.64293732154692 27.222314642654965,201.0519554352304 27.051007295354793,200.54779962088833 26.88795572384697,200.070168060196 26.708392600798106,199.54669169791487 26.57423624448711,199.1245246030303 26.38022551382892,198.58655179840935 26.182086895270913,198.0003158845775 25.996331940383243,197.4478411067339 25.783745714230463,196.8181483153985 25.647525413980475,196.28494659005628 25.52162483344,195.75897069843268 25.37095692558796,195.21368014735162 25.32142227095028,194.79867153123996 24.811628116971406,194.9530942231704 24.20276465373172,195.1195800178266 23.641371901168895,195.28606459846196 23.17698451394972,195.45496075859774 22.57018499464175,195.68417497756673 22.081030280096456,195.88443393807574 21.800333903818682,195.97129270013647 21.829229119022784,195.9688799612086 21.463911041071697,196.11364384569242 20.81170475501858,196.2463432668792 20.49179344382719,195.97129270013647 20.4443227331285,195.53699558557855 20.37414863905724,195.10751587060804 20.2606317221871,194.45362955463133 20.101708038557263,194.0 19.57540233303007,194.27748723427248" stroke="red" stroke-dasharray="none" stroke-linecap="round" stroke-linejoin="round" stroke-width="0.5"><title>2024-04-05 108.1km</title><desc>1712276378000</desc></polyline></svg>