<?xml version="1.0" encoding="utf-8" ?>
<svg baseProfile="full" height="300mm" version="1.1" viewBox="0,0,200,300" width="200mm" xmlns="http://www.w3.org/2000/svg" xmlns:ev="http://www.w3.org/2001/xml-events" xmlns:xlink="http://www.w3.org/1999/xlink"><defs /><rect fill="#222222" height="300" width="200" x="0" y="0" /><text fill="#FFFFFF" style="font-size:12px; font-family:Arial; font-weight:bold;" x="10" y="20">Over 10km Runs</text><text fill="#FFFFFF" style="font-size:4px; font-family:Arial" x="10" y="280">Runner</text><text fill="#FFFFFF" style="font-size:9px; font-family:Arial" x="10" y="290">yihong0618</text><text fill="#FFFFFF" style="font-size:4px; font-family:Arial" x="65" y="280">SPECIAL TRACKS</text><rect fill="yellow" height="2.6" width="2.6" x="65" y="283" /><text fill="#FFFFFF" style="font-size:3px; font-family:Arial" x="70" y="285.5">Over 20.0 km</text><rect fill="red" height="2.6" width="2.6" x="65" y="287" /><text fill="#FFFFFF" style="font-size:3px; font-family:Arial" x="70" y="289.5">Over 40.0 km</text><text fill="#FFFFFF" style="font-size:4px; font-family:Arial" x="120" y="280">STATISTICS</text><text fill="#FFFFFF" style="font-size:3px; font-family:Arial" x="120" y="285">Number: 5</text><text fill="#FFFFFF" style="font-size:3px; font-family:Arial" x="120" y="290">Weekly: 1.2</text><text fill="#FFFFFF" style="font-size:3px; font-family:Arial" x="141" y="285">Total: 317.5 km</text><text fill="#FFFFFF" style="font-size:3px; font-family:Arial" x="141" y="290">Avg: 63.5 km</text><text fill="#FFFFFF" style="font-size:3px; font-family:Arial" x="167" y="285">Min: 18.7 km</text><text fill="#FFFFFF" style="font-size:3px; font-family:Arial" x="167" y="290">Max: 108.1 km</text><polyline fill="none" opacity="1" points="73.37303111789515,35.57667007097916 73.74644640798215,35.560501352360006 73.96772954281187,36.0455621672736 74.18901267758338,36.67613892717054 74.3688052247162,37.322881621774286 74.49327698809793,37.75943139492301 74.60391855548369,38.228316800654284 74.68689973105211,38.76187430728169 74.79754129849607,39.32776659888623 74.9220130618778,39.89365679725597 75.04648482520133,40.52421769531793 75.11563580483198,41.05776719446294 75.21244717633817,41.59131483279634 75.30925854778616,42.12486061031814 75.39223972341279,42.674572495539906 75.48905109486077,43.27278612632654 75.59969266230473,43.9195009337418 75.7103342297487,44.61471630273445 75.83480599307222,45.342263887345325 75.93161736457841,46.06980801228201 75.98693814827129,46.71651099668816 75.90395697270287,46.95902391112759 76.12524010753259,47.62189058259537 76.19439108716324,48.511097461072495 76.24971187085612,49.416466427763226 76.33269304648275,50.07932245286065 76.27737226273166,50.28949571488192 76.20822128310101,50.43500011184369 76.18056089128368,51.11401880111953 76.4433346138685,51.77686747230473 76.62312716094311,52.55288178018236 76.80291970801773,53.345058993436396 77.02420284290565,54.26656610182545 77.21782558580162,55.09106775795226 77.14867460622918,55.7053994370508 77.59124087588862,56.044897464773385 77.84018440259388,56.70772477675928 78.1029581251787,57.3543828020629 78.35190165194217,57.90403997511021 78.29658086819109,58.45369517385552 77.78486361884279,58.64769065497967 77.17633499810472,58.82551962998696 76.48482520162361,59.084179588389816 75.80714560119668,59.32667290234531 75.14329619664932,59.552999648672994 74.79754129849607,59.746993736276636 74.67306953511434,59.924821433844045 74.76988090667874,60.53913370841474 75.0603150211391,61.28277158353012 75.32308874378214,62.042571767335176 75.53054168261588,62.78620233718539 75.82097579713445,63.545995057036635 76.56780637725024,63.88547569133516 76.87207068764837,64.53210338790086 77.2316557817976,65.27572186152975 77.5497502880753,66.00317122015986 77.89550518628675,66.68212083536491 78.21359969262267,67.37723279738566 78.53169419901678,68.07234160252847 78.84978870529449,68.76744725090975 79.1678832116304,69.47871487913653 79.4859777179663,70.15764907738776 79.81790242023999,70.82041527087858 80.1359969265759,71.51550843943551 80.45409143297002,72.19443360337755 80.77218593924772,72.88952053248067 81.09028044564184,73.61693370626017 81.40837495191954,74.31201417588454 81.7126392624341,74.94243326772994 82.1690357279731,75.34654670467717 82.43180945055792,75.97696153607103 82.57011140987743,76.30025018611923 82.51479062612634,76.78518188100134 81.96158278902294,77.04381149017718 81.35305416828487,77.28627635187877 80.63388397998642,77.60956223681569 79.88705339992885,78.02983286661038 79.09873223205796,78.36928137909854 78.25509028037777,78.75722161460726 77.52208989625797,79.22598142086645 77.21782558580162,79.35529421825777 76.48482520162361,79.71090384796844 75.73799462156603,80.05034863295441 75.08797541295644,80.3736286808562 74.43795620434685,80.68074409401743 73.60814444866264,81.08484238326491 72.86131386860507,81.42428412188019 72.18363426811993,81.74756126850843 71.61659623507876,81.99001868047344 71.27084133692551,82.16782053853967 70.6761429120088,82.44260482213576 70.1229350749054,82.7658798185148 69.54206684586825,83.13764522042766 68.86438724549953,83.60639161437575 68.11755666538374,84.13979093765374 67.3983864770853,84.65702487032104 66.72070687665837,85.07727615398471 66.11217825586209,85.49752628407441 65.47598924313206,85.88544845725119 64.99193238565931,86.11173593773856 65.00576258159708,86.09557255735854 64.67383787938161,86.27336964762071 64.06530925852712,86.59663655543409 63.35996926622465,86.88757618890668 62.68228966573952,87.11386218827101 61.99077986937482,87.35631110219401 61.20245870150393,87.66341250867117 60.538609296956565,87.87353416875703 59.86092969652964,88.09981871095079 59.017287744849455,88.40691862619133 58.20130618516123,88.69785481976578 57.35766423359746,88.98879046057118 56.61083365348168,89.26356250264507 55.82251248561079,89.53833405155456 54.96504033805104,89.82926809541823 54.232039953931235,90.07171270961408 53.582020745263435,90.24950518280093 53.01498271228047,90.44346037255309 52.73837879369967,90.5242749624158 52.102189781027846,90.76671847621037 51.466000768356025,91.02532446775876 50.73300038417801,91.30009285525011 49.944679216248915,91.59102355163486 49.156358048378024,91.83346537640318 48.32654629269382,92.124395059378 47.510564733005594,92.43148690286034 46.74990395689383,92.73857813050563 45.97541298501892,93.02950609382242 45.18709181714803,93.2881082638487 44.41260084521491,93.56287259100645 43.568958893592935,93.82147386028373 42.80829811748117,94.09623723040568 42.57318478671368,94.12856230030593 41.99231655779295,94.37100010745053 41.203995389922056,94.62960001197644 40.42950441798894,94.95284927851753 39.655013446114026,95.22761061855999 38.96350364963291,95.48620907652366 38.299654245143756,95.6478328909725 37.42835190158803,95.93875532709353 36.58470995002426,96.294326442905 35.93469074147288,96.73070804757299 35.450633884000126,97.15092619525967 35.00806761428248,97.61962969198066 34.814444871328305,97.86206197222054 34.28889742598403,98.29843910945056 33.59738762967754,98.71865295527095 32.78140606993111,98.96108349562564 32.07606607762864,99.09037962694129 31.384556281205732,99.18735165377439 30.997310795239173,99.2196756490739 30.25048021512339,99.42978145217057 29.3238570879912,99.57523914705962 28.397233960800804,99.75302058643138 27.512101421423722,99.91463989773183 26.64079907798441,100.06009713205276 25.797157126420643,100.18939233545098 24.939684978860896,100.31868742972438 24.040722243546043,100.46414428026765 23.22474068379961,100.62576284111128 22.50557049555937,100.73889573221095 21.6619285439956,100.86819036255474 20.79062620055629,101.01364669116447 19.974644640868064,101.14294108955073 19.13100268918788,101.23991181666497 18.328851325437427,101.43385308679717 17.48520937381545,101.5631471304223 16.66922781401081,101.7086027990299 15.867076450260356,101.85405832945253 15.03726469463436,101.96719031315297 14.345754898153245,102.08032221329631 14.055320783751085,102.14496897593199 14.262773722643033,102.11264559804113 14.594698424916714,102.5490106237412 14.926623127190396,103.14699030629708 15.078755282389466,103.43789849684981 15.369189396791626,103.89042125051492 15.604302727617323,104.40758847469988 15.604302727617323,104.69849427083682 15.7564348828746,105.03788366803201 15.90856703807367,105.34494961741439 15.7564348828746,104.98939951446664 15.604302727617323,104.61768716068764 15.466000768356025,104.26213536941214 15.300038417219184,103.95506724908773 15.2032270457712,103.72880613485177 15.03726469463436,103.37325228002737 14.746830580057576,102.88840478412749 14.580868228978943,102.5166873310809 15.009604302758817,102.41971741238376 15.7564348828746,102.27426241917419 16.434114483301528,102.16113066229445 17.180945063359104,102.03183712353348 17.94160583941266,101.90254347557493 18.716096811403986,101.75708799115091 19.504417979333084,101.64395585219609 20.278908951149788,101.5631471304223 21.02573953132378,101.41769132364425 21.800230503315106,101.27223537878308 22.51940069149714,101.14294108955073 23.197080291982275,101.02980849693995 23.957741067977622,100.90051400304947 24.773722627782263,100.77121940001962 25.58970418747049,100.64192468780675 26.364195159403607,100.51262986641086 27.12485593551537,100.38333493591927 27.857856319635175,100.27020178217208 28.590856703813188,100.14090664697869 29.296196696115658,100.04393522393366 30.001536688418128,99.9469637395232 30.568574721517507,99.84999219367455 30.87283903185744,99.88231604911562 31.356895889388397,99.76918252525502 31.882443334616255,99.65604891782277 32.4633115635952,99.55907718774688 33.16865155589767,99.41361947756377 33.90165194007568,99.12270364274445 34.57933154050261,98.76713909402315 35.04955820203759,98.37924955398194 35.450633884000126,97.95903477682441 35.82404917408712,97.47417013959785 36.28044563962612,97.0377906535432 36.847483672667295,96.69838352689112 37.594314252841286,96.39130024028418 38.34114483289886,96.18119026835484 39.08797541301465,95.8741059446038 39.87629658088554,95.58318338567915 40.719938532449305,95.30842268359265 41.56358048407128,95.01749904996541 42.39339223969728,94.72657486359822 43.19554360356415,94.43565012453473 43.970034575497266,94.17704989243066 44.758355743368156,93.91844922363816 45.50518632348394,93.64368553458189 46.23818670766195,93.36892135241942 46.90203611215111,93.12648195878137 47.607376104511786,92.9002048450493 48.34037648863159,92.65776470923447 49.05954667693004,92.39916147469194 49.82020745292539,92.14055780333001 50.5532078371034,91.89811646481394 50.92662312713219,91.78497704213078 51.41067998460494,91.65567474244745 51.83941605838481,91.47788390207279 52.06069919327274,91.41323263620143 52.572416442562826,91.25160435213184 53.125624279724434,91.0576501860196 53.85862466384424,90.78288136346964 54.59162504802225,90.49194913158135 55.35228582407581,90.21717929388979 56.09911640413338,89.94240896315023 56.832116788311396,89.66763813928992 57.56511717248941,89.39286682239617 58.27045716479188,89.15042113327945 58.82366500189528,88.97262738393329 59.29389166343026,88.81099652354897 59.63964656164171,88.68169171242334 60.303495966189075,88.4715711614117 60.96734537073644,88.21296085663198 61.56204379565315,88.0190028413781 62.12908182863612,87.80888138097362 62.69611986167729,87.59875963217928 63.34613907028688,87.38863759500964 64.03764886670979,87.13002546112693 64.70149827119894,86.80675967947172 65.07491356122773,86.64512653269048 65.66961198614445,86.35418643856246 66.2919708028785,85.917775260692 66.91432961967075,85.49752628407441 67.49519784859149,85.12576661241474 68.0898962735082,84.68935193307698 68.51863234722987,84.31759029910609 69.04417979251593,83.94582776234893 69.55589704186423,83.59022796954378 70.05378409521654,83.26695471383573 70.62082212831592,82.94368077552645 71.32616212061839,82.555751148524 72.03150211292086,82.24863949668361 72.8474836726673,81.86070810855017 73.64963503647596,81.50510347248928 74.46561659616418,81.13333410627092 75.12946600071155,80.79389172251103 75.7518248175038,80.50294050882803 76.48482520162361,80.14733271901787 77.2316557817976,79.80788814902189 77.96465616597561,79.51693506147421 78.7114867460914,79.19365320446377 79.43065693427343,78.87037066480843 80.05301575100748,78.5632516197511 80.78601613518549,78.20763932415866 81.46369573567063,77.91668319517339 82.09988474834245,77.59339795880078 82.83288513252046,77.20545477396809 83.66269688814646,76.8175106060371 84.3818670764449,76.52655183488969 84.72762197459815,76.38107224192936 85.25316941988422,76.09011264125002 85.9031886284356,75.76682354741206 85.7233960814192,75.31421766898711 85.04571648093406,75.6213432324439 84.45101805607555,75.87997480790364 83.84248943527928,76.17093480800395 83.19247022661148,76.52655183488969 82.63926238950808,76.47805865258852 82.36265847098548,75.78298801829806 81.97541298501892,75.00709148938768 81.54667691123905,74.23119102763303 81.24241260089912,73.47145134799939 80.84133691893658,72.69554310235253 80.48175182478735,71.95196067624784 80.14982712257188,71.35385914704239 79.83173261617776,70.65876524437044 79.51363810978364,69.93133801258227 79.1678832116304,69.15541182148445 78.83595850935671,68.37948169690208 78.4763734153239,67.66820896042918 78.15827890892979,67.03775990802387 77.8263542066561,66.37497733485361 77.57741067989264,65.71219189158 77.41144832887221,65.32421859302849 77.28697656549048,65.13023157489079 77.05186323472299,64.7099255255307 76.77525931614218,64.16029279622308 76.33269304648275,63.67532110174943 75.77948520932114,63.27117684909899 75.51671148673631,62.41438750391535 75.26776796003105,61.70308704505442 75.04648482520133,60.94328517577378 74.76988090667874,60.36130672461877 74.85286208224716,59.746993736276636 75.64118325005984,59.50450108831865 76.4433346138685,59.31050669339311 77.19016519392608,59.03568087948952 77.97848636191338,58.760854572057724 78.62850557046477,58.59919180776342 78.64233576640254,57.823208161687944 78.42105263157282,57.25738427249598 78.22742988856044,56.659225314710056 77.9231655781623,55.81856552998943 77.60507107182639,55.042567783501 77.35612754512113,54.20189911736816 77.17633499810472,53.361225832632044 77.01037264696788,52.61754946154542 76.9965424509719,51.809201480369666 76.95505186315859,51.11401880111953 76.96888205915457,51.00084922883252 76.83058009983506,50.40266581335163 76.52631578943692,49.7559784091427 76.47099500574404,48.86677876545582 76.41567422205117,47.88056948025769 76.37418363423785,47.2500389010238 76.34652324242052,46.732678536267485 76.27737226273166,46.102143226438784 76.20822128310101,45.40693461635965 76.11140991159482,44.76022609643405 75.98693814827129,44.08117920845689 75.86246638494777,43.4668008556182 75.76565501338337,42.787748226721305 75.64118325005984,42.044020460598404 75.44756050710566,40.976926480885595 75.30925854778616,40.07150757013005 75.17095658852486,39.133746620456805 75.04648482520133,38.26065367215779 74.85286208224716,37.43606131222623 74.56242796772858,36.41744108371495 74.2305032654549,35.47965773368196 73.98155973874964,34.89758241784875 73.9538993468741,34.78440084923932 73.77410679985769,34.655050382585614 73.4006915097707,35.09160776925273 72.76450249709887,35.39881407226494 72.04533230885863,35.72218846157193 71.29850172880106,36.06173083464091 70.60699193231994,36.36893518936995 69.79101037263172,36.67613892717054 68.98885900882306,37.06418487202609 68.26968882058281,37.33905015409982 67.71648098347941,37.29054455195728 67.41221667308128,36.62763311486924 67.03880138305249,36.51445282630448 66.49942374182865,36.78931909610401 65.83557433722308,37.08035343172378 65.57280061463825,37.419892790174345" stroke="#4dd2ff" stroke-dasharray="none" stroke-linecap="round" stroke-linejoin="round" stroke-width="0.5"><title>2024-05-25 18.7km</title><desc>1716643451000</desc></polyline><polyline fill="none" opacity="1" points="180.29793692527892,105.25688934056416 180.40972597204382,105.00355069572288 180.5194448512775,104.84189506027906 180.58776037986536,104.87808671876519 180.55463769932976,104.9022144595856 180.64779523830657,104.84913339651393 180.5960410499829,104.88773781812597 180.59190071492776,104.83948228102781 180.59811121752136,104.79122664310125 180.75751411754754,104.75744763654257 180.75958428507147,104.91186554884553 180.6250233954488,105.14107773348769 180.65193557337625,105.18450715420659 180.58776037986536,105.34374766473047 180.6809179188349,105.46197096990363 180.75958428507147,105.46197096990363 180.71404059934866,105.53676499326684 180.674707416234,105.61397147298521 180.60639188765344,105.69359038484981 180.52358518633991,105.80939922121797 180.55463769932976,105.99517468323575 180.53393602401047,105.86006540451308 180.60432172012224,105.69600307486144 180.57119903959392,105.59466987725136 180.49046250581887,105.55847934177473 180.55463769932976,105.40165303268441 180.65814607597713,105.19657086769075 180.55670786686824,105.20380909275627 180.4035154694502,105.30031854349 180.09299033952993,105.18450715420659 179.86527191093046,105.09040997275952 179.73899169143988,104.89980168663351 179.93565760704223,104.5620109857955 180.11990251746465,104.30383904717382 180.37867345905397,104.00947125872881 180.49874317595823,103.88882763827496 180.54428686167375,103.77059627865128 180.34348061099445,103.63788688850946 180.06193782654736,103.35074941554194 179.7721143719682,103.0201749614389 179.67274633039779,102.94054683079048 179.46986991218,102.76922477009248 179.17797629006964,102.50138069101376 178.8736616627575,102.14425041811955 178.62110122376907,101.84502890868134 178.29194458606798,101.47823596059425 178.04973498473555,101.25381371701587 177.85513923665712,101.0704132741248 177.58808762493572,100.84840026192796 177.33138685086305,100.58294711809322 177.17819445345958,100.42126052526146 177.08503691448277,100.32955717816367 176.85524831834482,100.0978839414056 176.63788072740863,99.83966207231788 176.54679335597757,99.74554310250642 176.30665392216906,99.54041068446531 176.07272499097598,99.29424937588738 175.83258555718203,99.04567205654894 175.57174444804696,98.76571769475231 175.3067630038713,98.50748091852984 175.05420256486832,98.24924125222242 174.80578246094956,97.98617170448779 174.56771319467953,97.74482085737327 174.30687208555173,97.49864039235581 174.08536415955314,97.28383372298049 173.91975075693335,97.12212401189208 173.6775411556082,96.87352329013265 173.3152618373715,96.48734209867507 172.9757543620144,96.14218718773918 172.65073805937573,95.84530155938592 172.54722968273563,95.74151137326771 172.24084488788503,95.58703209189844 171.87442523459322,95.39634530222429 171.50800558130868,95.20082936208382 171.11881408515183,94.98600129467741 170.77309610718657,94.8122063377923 170.41909745908924,94.63841007130031 170.03611646553327,94.44047383932957 169.6552056395085,94.24977757013403 169.34054017454037,94.08080487477855 168.96791001864767,93.91665878522508 168.6097710354734,93.7428557698804 168.25577238738333,93.54973977208465 167.89556323667784,93.3711060342921 167.56847676651523,93.19971290402282 167.3676705158432,93.10073882603683 167.08612773139612,92.95589794619082 166.7197080781043,92.77001748407383 166.35121825726674,92.57930740066695 165.96202676111716,92.38376757612787 165.6121684480895,92.18581199053187 165.23125762206473,91.9950970750233 164.86276780124172,91.81645129284334 164.52326032587007,91.6426324464228 164.16098100764066,91.44949885788628 163.77592984656076,91.24670684862394 163.40744002573047,91.07771214492459 163.10933590101922,90.9183731467765 162.7905301009814,90.74696178278282 162.41582977755024,90.5562349642114 162.10530464764452,90.40413523106872 162.04941012425115,90.3703351540862 161.78028834500583,90.24479157709538 161.3786758436545,90.04198896990056 160.98120367737283,89.84159892690695 160.59822268381686,89.62913529187244 160.23387319805624,89.44081361447206 159.8301905291737,89.24283275610287 159.44720953561045,89.03760690051786 159.07871971479472,88.86135264827499 158.7226508991589,88.68026810860647 158.35830141340557,88.49435316764357 158.00637293283944,88.3205092685912 157.85939103800774,88.37604287888826 157.7703738341079,88.58610358568512 157.69791797045764,88.75994548134986 157.62546210681467,88.890326042585 157.56335708082042,89.00139038337329 157.5033222223792,89.13659842369634 157.44742769899312,89.25973362748118 157.501252054848,89.1341840013647 157.5033222223792,89.10762533897287 157.53437473537633,89.10762533897287 157.59233942629362,88.95551604661705 157.73725115357956,88.6706102265216 157.68756713278708,88.590932544932 157.48469071459112,88.52815599573114 157.1348324015562,88.46537927553072 156.77462325085799,88.3663848693177 156.6524833664298,88.3108512357503 156.2695023728811,88.2770480889285 155.807855013074,88.26256101082618 155.35448832339898,88.23841586041635 154.9114724714018,88.15873668459972 154.60094734149607,88.00662112940154 154.329755394705,87.87865012275688 153.99645842193422,87.7192890078004 153.58863541798928,87.52129336008511 153.16425107378018,87.35468594824306 152.7377965620326,87.23154056526255 152.31962272042438,87.10839452418259 152.01944842818193,87.00456499777465 151.80415100476966,86.88866171800873 151.4646435294053,86.69548828948246 151.0920133735126,86.48299564755143 150.70075170983182,86.32121016298152 150.31777071627585,86.18840033405831 149.9347897227126,86.01212428785038 149.6470364356719,85.8672388564919 149.27854661485617,85.69337513616665 148.89763578882412,85.60402799173607 148.5374266381259,85.45913999394361 148.21655067054962,85.37703639072242 148.1026914562608,85.22248763792959 148.0074637497528,85.03654479562101 147.93293771857861,84.75159051453556 147.9619200640227,84.36279127581838 148.09855112119112,83.98364532558662 148.19377882769913,83.59000311794807 148.24139268094586,83.21084444683402 148.11511246145528,83.0200552389797 147.76525414842035,82.80752869091884 147.45886935357703,82.60949082414481 147.56858823280345,82.31001569332875 147.23322109250148,82.11921902262839 146.88750311453623,81.92600559327184 146.55006580671034,81.74003613645618 146.40308391188591,81.52749777533609 146.4092944144868,81.12173727480877 146.411364582018,80.69906248332154 146.421715419674,80.409223856077 146.4237855872052,80.1507813362914 146.42999608980608,79.92132059303185 146.4237855872052,79.69910379871544 146.4237855872052,79.38992903850158 146.43827675993816,78.82712369909314 146.44655743006297,78.39716013414363 146.46518893785833,77.93820139958734 146.4672591053968,77.50580558794718 146.47139944046648,77.06373890231225 146.47346960799769,76.66997836568225 146.49831161839393,76.31969492536336 146.38652257162175,76.31244762547612 146.12982179755636,76.23272717605687 145.69715678322245,76.1989062959019 145.35971947538928,76.17958005635774 144.90221245065186,76.14092752856232 144.46954743631795,76.10710651349109 144.08656644274743,76.0829486151506 143.65183126088232,76.04188012976374 143.33716579589964,76.01289056653695 142.95211463481974,75.99114837015986 142.67264201790385,75.9742377587736 142.26895934901404,75.94041649870996 141.87976785285719,75.90417937920392 141.5402603775001,75.87760545529818 141.13657770861028,75.84378405320786 140.75980721765518,75.81721005955478 140.57142197217763,75.59495363824499 140.5734921397161,75.19392031626921 140.5921236475042,74.82670295141907 140.59005347998027,74.51504677435878 140.60454465271323,74.10433063611526 140.6148954903765,73.69843924910128 140.62110599296284,73.36743918599495 140.62110599296284,73.18381665921333 140.61282532283803,73.01227323757485 140.62110599296284,72.88663499046925 140.62731649555644,72.64985335182246 140.60454465271323,72.41790162824691 140.6397375007582,72.20769335839032 140.64387783582788,72.05063994893499 140.6355971656958,71.7437786543378 140.6418076682894,71.35234334437882 140.6355971656958,70.93432173751899 140.6335269981646,70.57670184674498 140.6335269981646,70.19974513068337 140.6314568306334,69.89044269722217 140.62524632803252,69.47239451546011 140.6397375007582,69.19933003879669 140.61903582543164,68.96734351082159 140.61282532283803,68.64594164076334 140.60454465271323,68.7812692915486 140.61696565789316,69.09300317068664 140.57142197217763,69.25490979690221 140.2629670098031,69.39989983784108 139.8820561837856,69.35156992577868 139.60465373439365,69.29599040132052 139.5218470330874,69.10025274549662 139.16991855252854,69.04950567384185 139.0995328564095,69.05433873310358 139.34174245774193,69.06883790482061 139.72472345129063,69.14375014634606 140.08907293705852,69.20657958008451 140.4285804124156,69.25007677978647 140.56935180464643,69.4264812461679 140.56521146958403,69.76720384983855 140.4617030929512,69.99193301679588 140.11598511497868,69.97260156188531 139.85721417338937,69.96051939431527 139.45560167203803,69.95085365568957 139.04156816549948,69.93152216624367 138.66479767452984,69.91943997709495 138.27560617838026,69.90252490161583 137.84294116405363,69.89527557974361 137.45167950035102,69.88560981369119 137.02315482107224,69.87594404357696 136.60084064440161,69.8638618252262 136.30687685475277,69.76478739524464 136.30273651969037,69.36606891005795 136.2923856820271,68.9238457762458 136.2882453469574,68.72085526015871 136.27375417423173,68.49853025762786 136.25098233136669,68.24237052396347 136.22614032097772,67.86537553607195 136.19094747292547,67.51979136623777 136.15989495992835,67.15970163455131 136.14540378720267,66.98569652133301 136.11642144174402,66.63043199192543 136.0770882586221,66.25099374352067 136.05017608069465,65.89330099673134 136.021193735236,65.55010407448026 135.99842189237825,65.31566379418291 135.9694395469196,64.99662781859115 135.93010636379768,64.59057562587623 135.89905385080783,64.20143554189053 135.868001337818,63.82920842562453 135.82038748456398,63.42313560362709 135.7603526261155,63.05573019984695 135.71066860533028,62.73424565210735 135.65891441701388,62.41759106097379 135.5926690559645,62.02357963610666 135.53677453257842,61.670655690079 135.47880984166113,61.337065057950895 135.44775732867856,61.090494955376926 135.40428381048696,60.7206348388645 135.389792637754,60.45471865673062 135.36495062736503,60.111440487540676 135.3421787845,59.73914709625387 135.31940694164223,59.42245121449014 135.26558258578734,59.0428939081703 135.19312672214437,58.69475939827316 135.11032002083812,58.35387257671573 135.02544315200066,58.022651456112726 134.93642594808625,57.701096454615254 134.8370579065231,57.37228367613534 134.72112852468126,57.03863060232834 134.6466024935071,56.80893907425161 134.51618193893955,56.40999569539781 134.44786641036626,56.17787999395841 134.33814753113256,55.76683601489458 134.2636214999511,55.525042000897884 134.15390262071742,55.20103402913446 134.01934173108748,54.845587187614 133.8972018466593,54.52882379945186 133.8081846427449,54.345050669726334 133.66741325052135,53.99684491497101 133.57218554401334,53.696996837386905 133.46039649724844,53.433417469303095 133.29478309462866,53.05376113242528 133.160222205006,52.715208782790796 133.02152098031365,52.371814868694855 132.90352143095515,52.071945557583604 132.7917323841757,51.79141910586259 132.682013504942,51.50121571906311 132.58885596597247,51.25212155133886 132.4584354114122,51.201335029913025 132.13962961136713,51.35853104123089 131.777350293145,51.4842870748671 131.43784281777334,51.631807697338445 131.10040550994017,51.709195185587305 130.91823076705623,51.51330760012752 130.8333538982115,51.10701690614951 130.75468753196765,50.75876201338542 130.68637200339435,50.38389840873424 130.59321446441754,50.00177307512422 130.49798675790953,49.60271134357572 130.37998720854375,49.25201499991272 130.29097000463662,48.973872707956616 130.19367213060468,48.73200710379206 130.06739191110682,48.34501683213057 129.94111169160897,47.97495127744696 129.80241046691663,47.57101669925214 129.7092529279471,47.29527284130563 129.58918321104284,46.94937892798589 129.4504819863505,46.54300738551319 129.32627193439112,46.18500744097037 129.19585137983086,45.78346031211004 129.09027283565956,45.47382880851728 128.96606278370018,45.12306931945568 128.8501334018656,44.7868189783112 128.72178301482927,44.42153424195385 128.61827463820373,44.109465188108516 128.50648559142428,43.79739188599706 128.38848604206578,43.436929838549986 128.31188984334585,43.202263580196814 128.19182012645615,42.86114648734838 128.08210124722245,42.54663686820095 127.95996136277972,42.20551001766944 127.84196181341395,41.86679748298957 127.697050086128,41.45307752418921 127.56869969909894,41.06112541038601 127.4672614900046,40.76836668012402 127.33063043283619,40.371563753142254 127.22298172114097,40.047341626426714 127.09463133410463,39.67472247144906 126.9973334600727,39.39888360923214 126.92694776394637,39.13272015536131 126.80066754445579,38.79880163113012 126.67438732495793,38.45035972110236 126.56052811066183,38.116431250784444 126.44873906389694,37.789757384873155 126.32245884439908,37.4195213716157 126.2044592950333,37.085577873695 126.09060008072993,36.722590288482024 126.02021438461816,36.42009623967169 125.9332673482495,36.071618143143496 125.8483904793975,35.7182946595949 125.75730310795916,35.38916651074396 125.66414556898235,35.016471572473165 125.67035607158323,34.79623989416359 125.45919898324792,34.861583580144725 125.23562088971812,34.93660758225997 124.87127140395751,35.03099226804261 124.47172907013737,35.14957760387733 124.12601109217212,35.26332214492504 123.74510026614735,35.37948619947019 123.41801379597746,35.5222703758991 123.05780464527925,35.64811331875171 122.68310432185535,35.79331585507862 122.37464935948083,35.909477221295674 122.13036959061719,35.99175783255487 121.98959819839365,36.057098107381535 121.73082725680433,36.14421818383926 121.39546011650236,36.22165797359048 121.04146146839776,36.30151748252865 120.851006055389,36.173258135679134 120.8075325371974,35.78847578536988 120.76405901902035,35.50532992693843 120.72265566836722,35.24638150440296 120.66262080991146,34.89788554734878 120.60879645406385,34.537283453031705 120.51977925014944,34.20571812687558 120.41627087351662,34.00242022400198 120.19062261244835,34.15005340435164 119.85525547214638,34.297685632815046 119.55715134742786,34.41143440550513 119.4143097876804,34.27832408331051 119.21557370453229,34.37271148249238" stroke="red" stroke-dasharray="none" stroke-linecap="round" stroke-linejoin="round" stroke-width="0.5"><title>2024-05-01 58.8km</title><desc>1714551575000</desc></polyline><polyline fill="none" opacity="1" points="19.141214102746744,114.28396048717514 19.39666936174035,114.1713558829706 19.670969680824783,114.05630278711396 19.85942028172576,114.08078221707365 19.938988313209848,114.35984588990868 19.98086622451956,114.60463581697877 20.020650240272516,114.89103674738726 20.068809838281595,115.16029934951803 20.123251122982765,115.47851475290554 20.131626705246163,115.72574062570675 20.17559851212718,116.01212769457015 20.19653746777476,116.24466159894655 20.19653746777476,116.36459922665927 20.32845288841054,116.34501761556749 20.67813344784372,116.27892955594507 21.019438425035332,116.21284130777713 21.329334968737385,116.13206652620829 21.473813762757345,116.07087332235278 21.689485006012546,115.98030708398437 21.980536489623773,115.86526297334058 22.267400182099664,115.7502182913413 22.619174637111428,115.55194845595179 22.918601702986052,115.38060278671037 23.17405696197966,115.36102034380929 23.521643625870638,115.2826904066369 23.766629407036817,115.21904713763979 24.089089324130327,115.13337323016094 24.382234703305585,115.04769900578867 24.685849560315546,114.96202446451389 24.976901043919497,114.87145389058605 25.085783613329113,115.0109813840445 25.173727227083873,115.35612473049696 25.263764736402663,115.71350178319335 25.345426663458056,116.03415732244503 25.420806903821358,116.35970382543746 25.48152987522917,116.61671099101659 25.523407786538883,116.746437334652 25.626008669241855,117.04504993114278 25.720233969695983,117.32652549409613 25.816553165706864,117.60555006831783 25.906590675025654,117.87722866185868 26.005003766607842,118.15379909307558 26.10969854488212,118.46218346885507 26.216487218734983,118.79259074571746 26.28558577239164,119.02509674610883 26.356778221619606,119.1670466310261 26.448909626502427,119.42402265909368 26.53475934468588,119.68344318753043 26.62270295844064,119.95754474169917 26.695989303239912,120.18024986743512 26.75880617020448,120.32953452289985 26.86140705291473,120.59873393026828 26.86768873960682,120.68438763146696 26.959820144496916,120.92666352949891 27.054045444943768,121.23501100990143 27.160834118789353,121.55803730421212 27.26971668819897,121.88350621467362 27.347190824119025,122.12332248777602 27.437228333437815,122.34355973688253 27.550298693982768,122.66901761891677 27.638242307730252,122.98468292911639 27.709434756958217,123.10458568029026 27.780627206193458,123.29055606758811 27.864383028805605,123.56950885163496 27.952326642560365,123.83867063715115 28.038176360751095,124.14208563080865 28.121932183370518,124.3818785427593 28.136589452326007,124.48464617448553 28.24128423060756,124.72198872619083 28.356448486716545,125.02783894767708 28.46742495169019,125.36304615714653 28.580495312227868,125.74228934787425 28.699847359457635,126.0799329055535 28.808729928874527,126.39799842737375 28.925988080554816,126.74052564983685 29.043246232220554,127.0830478140233 29.15631659275823,127.42067185437008 29.281950326687365,127.77541645751808 29.39711458279635,128.11058396043882 29.518560525590146,128.4628715903109 29.62953699057107,128.76377970457725 29.688166066407575,128.96193657530057 29.72795008214598,128.90566998159557 29.803330322502006,128.92524098618924 29.933151847573754,128.96438294584186 30.268175138058723,128.83472495156275 30.60948011524306,128.71729821822555 30.869123165372002,128.6952806395566 30.992663003744383,128.96438294584186 31.145517380020465,129.24571383780494 31.30465344300319,129.52704131847713 31.463789505985915,129.8083653880385 31.62083167340461,130.0040670768667 31.69411801820388,130.104363552653 31.765310467431846,130.44928227011223 31.85744187230739,130.82599614634637 31.951667172761518,131.1709041377071 32.00401456189866,131.3225641850495 32.11289713131555,131.5329297066346 32.230155282981286,131.8068912481267 32.32438058342814,132.05394307937058 32.45001431735727,132.3743727252422 32.58192973799305,132.71681173153956 32.69918788965151,133.00298902577015 32.833197205858596,133.33808103109186 32.96301873091579,133.62669654502133 32.96092483535176,133.73920670546795 32.80597656350437,133.7905698582872 32.83738499698666,133.78567813434165 32.83529110142263,133.7685570924241 32.90438965508656,133.753881903589 33.06980740476138,133.88351241735836 33.17868997417099,134.18679607445847 33.31688708149886,134.53654569522223 33.46555366665416,134.87895280701014 33.60584466953878,135.24825767412403 33.714727238955675,135.55641485542947 33.811046434966556,135.8939156470933 33.91992900437617,136.2656499721761 33.98902755803283,136.46863396660956 34.091628440750355,136.779220499433 34.194229323460604,137.11670351878092 34.29473631060682,137.4468452051351 34.38686771549692,137.7794276400491 34.4748113292444,138.10711449872542 34.57531831639062,138.42012449412323 34.661168034574075,138.76491968458504 34.72398490154592,139.07547551044263 34.78261397737515,139.38602718427865 34.818210202000046,139.62077215090721 34.832867470955534,139.9093095891767 34.85799421774573,140.28831518544393 34.88102706896461,140.63063750625224 34.9040599201835,140.75533938398803 34.93546835367306,141.046307829105 34.973158473847434,141.42773993511946 35.02131807184924,141.78227057252298 35.07994714768574,142.13924078333548 35.13229453683016,142.48887067382566 35.17836023926793,142.79448689858873 35.205580881622154,142.9045077555911 35.24745879292459,143.16611081272276 35.297712286504975,143.48638718144684 35.329120719994535,143.7235355417015 35.356341362334206,143.96557106370346 35.3814681091244,144.21493835922774 35.36052915346954,144.27605738615966 35.42543991601269,144.55231338294107 35.45056666279561,144.88968350972027 35.46313003617979,145.2319380550889 35.46731782731513,145.4275098184935 35.49035067854129,145.5350735870179 35.51966521645954,145.77220104591834 35.544791963249736,146.06310668644983 35.56782481446862,146.32222965376423 35.59295156123699,146.58379424822851 35.61179662132781,146.88202318603726 35.64320505481737,147.21935950486113 35.65995621935144,147.42713668580836 35.689270757255144,147.7424655662071 35.70602192179649,147.9037949676822 35.73114866857213,148.21178435322327 35.75418151979102,148.48799358646102 35.77093268431781,148.71286947739463 35.78140216214524,148.857082219507 35.7939655355367,149.10150855355278 35.78768384884461,149.38259566180386 35.7939655355367,149.68812127405545 35.812810595627525,149.96431297341587 35.81699838676286,150.18184217997805 35.84003123798175,150.59000947066306 35.842125133553054,150.96395285718972 35.84631292467384,151.35988636125876 35.84421902910253,151.7118215963801 35.84631292467384,152.12729384045997 35.852594611373206,152.4841052570082 35.85468850694451,152.8164726125542 35.831655655725626,153.10973398330498 35.84631292467384,153.20504313292076 35.88400304485549,153.47630549882706 35.90284810493904,153.76467103257164 35.91331758278102,154.03592687442506 35.9342565384286,154.32428547308155 35.9447260162633,154.68595052850287 35.9342565384286,154.99385013264146 35.91122368721699,155.31640725350917 35.87981525372743,155.5998628509933 35.865157984764664,155.76846842235864 35.88819083599083,155.84421835387184 36.149927781676524,155.85154897931898 36.497514445567504,155.88820207193567 36.83881942275184,155.92729864043395 37.20315725115506,155.97128220149352 37.55911949729489,156.003048055014 37.88995499665907,156.03237034285485 38.21660270488064,156.05680555450272 38.492996919529105,156.06657963198268 38.79451788096776,156.09345832388863 39.10022663354175,156.11300644395124 39.3996536994091,156.13255454759746 39.717925825367274,156.15943316331322 40.03619795134,156.1838682415655 40.20161570100754,156.22540781572388 40.478009915670555,156.21319030161067 40.79000035493664,156.24495582497548 41.135493123249034,156.27672130497922 41.4307323979956,156.29382577625984 41.736441150562314,156.3255911895758 42.02330484304548,156.35002609339972 42.21594323507452,156.34758260417766 42.56352989895822,156.36468702338243 42.91111656283465,156.40866975790595 43.23567037549219,156.44532197319313 43.59372651720332,156.4722002277249 43.93712538995169,156.494191503798 44.274242576007964,156.52840011417902 44.65951936006604,156.55527827276637 44.97569759047474,156.57726947035553 45.182993251459266,156.58948679336754 45.432166823753505,156.60903449685247 45.61014794681978,156.6163648814163 45.92004449052911,156.63346910310793 46.11477677812218,156.79473686117672 46.11058898699412,157.11482561678713 46.10011950915941,157.4153629610264 46.09383782246732,157.7696499691774 46.087556135767954,158.07017885972527 46.0854622402112,158.40735299697917 46.07918055350456,158.74452225117602 46.07499276236922,159.084129824907 46.07708665794053,159.40907344160405 46.07289886681974,159.7169105797111 46.070804971248435,159.9929832817379 46.06452328454907,160.21041876947493 46.06452328454907,160.48648562072412 46.05614770228567,160.94577543130436 46.04777212002955,161.41971393127278 46.039396537758876,161.87898533800217 46.02683316436014,162.2942761534432 46.018457582111296,162.66314590374532 45.99961252202047,162.98071120819986 45.9263261772212,163.3397990677513 45.81325581668352,163.67201147782544 45.64993196257274,163.9675788307668 45.484514212890645,164.2387158319616 45.55151887099055,164.14100916817915 45.61014794681978,164.18497721759377 45.73787557632022,164.2851263537068 45.978673566365615,164.45366904991897 46.22365934752452,164.63686624984985 46.4037343661621,164.7467838783832 46.59637275819841,164.922651005445 46.83926464380056,165.127827642591 47.08843821610208,165.31834718789287 47.329236206140195,165.4893249406814 47.57840977844171,165.4819973484391 47.67472897445259,165.48443987944665 47.80455049951706,165.6773990197089 47.86946126205294,165.8312766825493 48.07675692304474,165.8703565620981 48.40131073570228,165.9753834136318 48.719582861660456,166.0804097918026 49.031573300933815,166.16345356965576 49.287028559920145,166.29290357433456 49.53620213222894,166.4101406938862 49.76024895774026,166.51760753535746 49.98220188769483,166.6275162924212 50.248126624508586,166.72765493091174 50.560117063781945,166.84000508627832 50.84488686070108,166.9645665819262 50.98517786359298,167.0353953707654 51.253196495978045,167.1892640668375 51.489806694880826,167.328477726036 51.720135207091516,167.46036358347192 52.036313437492936,167.57759483022892 52.390181788061454,167.68505628842286 52.68960885393608,167.77786351267787 52.99531760651007,167.8633435238662 53.2779935078579,167.97813047432646 53.5020403333765,168.09047460185866 53.6988665165336,168.17839571525838 53.87894153517118,168.26387425755092 54.1113639429459,168.3762170078444 54.408697113256494,168.52030800365173 54.76047156826826,168.67660909365986 55.11433991884405,168.74010611210724 55.440987627065624,168.76452799622348 55.69853678163054,168.788949854752 55.979118787414336,168.77918111440704 56.291109226687695,168.81581386957805 56.42511854287295,168.8744261581105 56.71407613092015,168.8915213811688 57.00093982341059,168.95501781419443 57.3610898606712,169.03072487368627 57.54535267044412,169.0966630799976 57.781962869354174,169.19923325243508 58.10023499531235,169.3457612873135 58.38291089666018,169.48007784355468 58.64046005122509,169.57532002357766 58.7660937851615,169.6314883063169 59.03411241754657,169.73649821104118 59.35657233464008,169.86348630116845 59.68322004286165,170.0002419323664 60.001492168834375,170.12722858589223 60.26532301009138,170.17118534326437 60.62756694293057,170.3470115440141 60.99609256246913,170.53748843182802 61.33111585294682,170.70354393614798 61.624261232129356,170.84762054786006 61.89437376008573,170.9892543153128 62.11004500334093,171.1113517001777 62.37387584459793,171.23833230220407 62.641894476983,171.37019604162379 62.87222298919369,171.48984953021136 63.12349045706651,171.61682807105535 63.4103541495424,171.77555027474773 63.6825605730628,171.91717840592537 63.946391414319805,172.05636383471756 64.26256964472122,172.2199666976394 64.55362112833245,172.37380117842258 64.83210923855222,172.51054208720416 65.10012787094456,172.64484041361357 65.39117935454851,172.80599738443743 65.68013694260299,172.94029400942964 65.97118842620694,173.0819150671323 66.27061549207428,173.23574386232394 66.55957308012148,173.38224653350517 66.82131002582173,173.51898152967806 67.03488737350563,173.62397392908315 67.30290600589797,173.76314917189848 67.58767580280983,173.9047652331992 67.87244559972169,174.05614696859448 68.18443603898777,174.21729418795985 68.49642647826113,174.36867389503095 68.79585354412848,174.5347021215439 69.09318671443907,174.71049542629044 69.39261378030642,174.8545472856349 69.70669811514381,175.0156889894115 70.0521908834562,175.19147866947424 70.36418132272956,175.35261804585207 70.65732670190482,175.50643186680827 70.92743922984664,175.64315441184226 71.24571135581937,175.8018492182673 71.56188958621351,175.9605429452131 71.83618990530522,176.09726282898373 72.17121319579019,176.27548576024492 72.44551351487462,176.46591423712562 72.46854636610806,176.56601063381277 72.66746644482919,176.64413435236565 72.94804845061299,176.8833866132136 73.18465864951577,177.12507773272773 73.40661157946306,177.35211862513643 73.60971944931953,177.54497958339016 73.81282731918327,177.7549276751979 74.0871276382677,178.03322804819436 74.34048900169728,178.2993191607111 74.62735269418772,178.59470115419572 74.89118353543017,178.86566812478304 75.14035710773896,179.13174974610956 75.39581236673985,179.37829973339467 75.64498593903409,179.62484711626348 75.89206561577885,179.86895087018638 76.12239412798226,180.10572907237292 76.34644095349358,180.34738682270108 76.54117324109393,180.5646325637499 76.76103227546992,180.75502604515532 76.80291018677963,180.79163999815864 76.83222472469788,180.82337204431315 76.90132327836182,180.88439508875672 77.06045934134454,181.045495159633 77.20912592649984,181.20415323373345 77.35779251165513,181.350605883541 77.52739805245801,181.5434338045725 77.74725708684855,181.78263584772685 77.96502222566778,181.99986823277868 78.13043997534987,182.15851982112144 78.30423330727353,182.30496648426015 78.55131298401102,182.5490422149178 78.78792318292108,182.8004375500841 79.02662727738789,183.05427087042517 79.27789474526071,183.31298276130838 79.44750028607086,183.5033538315074 79.47890871956042,183.5472853965348 79.67154711158219,183.72545145186632 79.85999771248316,183.89873494142194 80.09451401582191,184.13791285699153 80.30599746794178,184.35512333129918 80.43791288857028,184.54792644180816 80.47979079988727,184.58697497922003 80.58239168259752,184.73096589666056 80.6682414007737,184.90912292170106 80.81690798593627,185.06531426400215 80.84203473271918,185.13120717325182 80.73943385002349,185.26543289481742 80.60751842938043,185.42650274248263 80.52585650232504,185.56316719670394 80.46094573978917,185.68274793820638 80.40231666395994,185.8804208827005 80.33949979699537,185.95119227096075" stroke="red" stroke-dasharray="none" stroke-linecap="round" stroke-linejoin="round" stroke-width="0.5"><title>2024-05-01 52.5km</title><desc>1714541844000</desc></polyline><polyline fill="none" opacity="1" points="186.0,148.17437500342112 185.75933981575508,148.2174488582341 185.55783009211154,148.2497541537623 185.27456499487744,148.28475146481014 184.98899692937266,148.29013565797777 184.72185261002596,148.28878960990096 184.5767656090029,148.28878960990096 184.3338024564946,148.29686589623452 184.0332650972341,148.29821194346187 183.7661207778874,148.3022500842808 183.49667349027004,148.31167240788727 183.239892528145,148.3157105444443 182.9658393039863,148.30494217744763 182.72287615147798,148.27802122015328 182.47070112589427,148.2511002059664 182.19549641760386,148.29686589623452 181.981320368468,148.37359036106864 181.7682958034784,148.3857047080137 181.5713920163762,148.33320912138606 181.4458802456429,148.0491907861724 181.38485158648837,147.91054446468024 181.28467246672517,147.6682462993158 181.23170419651433,147.49325031348235 181.12807062435604,147.25632884019979 181.08776867962297,147.13786645090204 180.97837768679892,146.86728345182382 180.87819856703572,146.62092676636257 180.77341351074574,146.4068752851499 180.48323950869963,145.69334436041754 180.2966990788118,145.63275970443283 180.2114892528116,145.40522808867536 180.12858239508205,145.3796473568891 179.93283009211154,145.55736506327048 179.71750255885127,145.50351147481615 179.59199078812526,145.45504305044324 179.39508700101578,145.42407701604952 179.13024564994703,145.44157956648178 178.94715967246157,145.49004804210745 178.68577277379518,145.57621376541556 178.59710849538533,145.61525741680998 178.38753838279808,145.68257377598093 178.11233367451496,145.77681608090643 177.86476458545803,145.87913550790108 177.76228249743872,145.94779676764756 177.56307574205857,146.0487685358703 177.46059365403926,146.12012143592892 177.19229785056086,146.2332082321136 177.0736949846396,146.26955734617422 176.79388433981512,146.35302528948523 176.63843398157042,146.39879780031424 176.35286591606564,146.48899609011733 176.20777891504258,146.54015304518362 176.01317809621105,146.72323941106333 175.76100307062006,146.8551676606803 175.62512794267968,146.90228456148816 175.39367963151744,147.00863349684187 175.1046571136103,147.13113560024522 174.93423746160988,147.2065209243956 174.7050921187256,147.32094422451428 174.5565506652929,147.38421313736944 174.38267656089738,147.49055804876662 174.13395598771604,147.66286184329692 173.96238485158392,147.79208815965922 173.80117707266618,147.86208520031323 173.50639713407872,147.9738104490516 173.32100818832987,148.04246041706028 173.0838024564946,148.08284257837386 172.8304759467719,148.12053248010216 172.64048106448172,148.1420695167344 172.36873080859368,148.1407234530143 172.10388945751765,148.06938187215746 171.96571136131388,148.0155389050724 171.73311156601267,147.8486242608251 171.51663254861342,147.73420570088456 171.3289406345939,147.92938968437102 171.09864380757062,148.0478447126361 170.8959825997881,148.12995493811013 170.6138689866857,148.23494757014942 170.32714943704923,148.33590120801546 170.102610030699,148.41666354231802 169.9667349027659,148.48261906888092 169.75831627430307,148.58491676110498 169.5740788126859,148.63068125222435 169.3230552712339,148.66298549992098 169.09621289662027,148.71144171789 169.00409416580806,148.72624774773794 168.74501023541234,148.81104558719107 168.54810644831014,148.92276251412932 168.29823439098982,149.06408975324484 168.0172722620191,149.19060995178006 167.90097236437578,149.2646371449482 167.6395854657094,149.3965390778476 167.38280450357706,149.54593655690223 167.22274820880557,149.65360932960357 167.07766120777524,149.7128289668035 166.8047594677555,149.77608600256008 166.490404298871,149.87702743059162 166.29119754349813,149.93624602958062 166.00678096212505,150.01026889135846 165.7511514841317,150.10447918452337 165.47824974411196,150.2417557935587 165.24334698054736,150.35749766796198 165.08444216990756,150.43420972647345 164.85990276355733,150.5338001311702 164.65263561924075,150.6199317455439 164.46609518935293,150.69529643066198 164.29106960081845,150.77469802757514 164.26343398157042,150.79488479538486 164.09531729784067,150.85140757518093 163.86617195495637,150.96983544391696 163.63011770726007,151.0922994691855 163.39291197543207,151.2134165787411 163.14188843398006,151.360101315081 162.93577277379518,151.45161020393152 162.7457778914977,151.54850125263965 162.5177840327524,151.66153987875077 162.3370010235376,151.75439228613686 162.1424002046988,151.81360216381927 162.0295547594651,151.57676100313074 161.90864892528043,151.3372239902301 161.80501535311487,151.15824114932002 161.68295803479123,150.98867613976836 161.53902251790714,150.78142695373572 161.41696519959078,150.59839889651812 161.31908904809825,150.5243794505359 161.11182190378167,150.65626834579052 160.8815250767584,150.77469802757514 160.731832139194,150.84602446409372 160.4405066530162,150.92004204225123 160.22172466734628,150.88774351555003 160.04554759467283,150.8137257498338 159.76343398157042,150.64415615721464 159.42835209825716,150.5553330893299 159.12090583418467,150.50822969610726 158.8445496417553,150.4907341057151 158.5831627430889,150.45305121407 158.35056294779497,150.39921831845913 158.16977993858745,150.3817225784278 157.97633060388762,150.3628809853817 157.70688331627025,150.3373102074056 157.42937563970918,150.3090477089081 157.15647389968217,150.28751433465186 156.88357215966244,150.26059756566974 156.64521494370274,150.22695152449978 156.40110030706273,150.2161847725638 156.16619754349813,150.24848500107692 155.94971852609888,150.35615183825394 155.86681166836934,150.27405595726395 155.7516632548577,150.09236647155922 155.618091095188,149.87568155014287 155.49603377686435,149.68321918260608 155.40161207778146,149.54189881022467 155.28876663254778,149.35481514466937 155.19204196519422,149.19330185724448 155.04004605936643,148.96448786209749 154.87768679630972,148.71413372459756 154.73375127942563,148.49204125908454 154.6335721596697,148.33455516477352 154.4147901739998,148.38032055524036 154.29042988740548,148.4570445174786 154.0670419652015,148.5741486216557 153.87589559877233,148.65356343613712 153.69396110541857,148.7289397513132 153.45214943704923,148.82046753451505 153.19997441145824,148.93218437884298 152.96852610030328,149.05601395324175 152.9040429887391,149.09773886484436 152.71289662230993,149.17311255237018 152.49872057318134,149.25790741788387 152.29490788126714,149.33193422008753 152.07151995905588,149.41269024110625 151.75601330603968,149.79223668477334 151.60862333674595,149.84876391133457 151.46238485158392,149.88779446905482 150.67361821903614,149.8191544429783 150.4790174002046,149.85145567777454 150.22569089047465,149.89586974193753 149.94242579324055,149.93624602958062 149.69140225178853,149.96450935481607 149.45534800409223,149.98738914362912 149.2227482087983,149.99815608885 148.99014841350436,150.0089230249805 148.72876151483797,150.01026889135846 148.41440634595347,150.01834408663035 148.32228761514853,150.0277651413171 148.07932446264022,150.0223816823509 147.75,150.02507341211913 147.46443193448795,150.0318027340536 147.14316786079144,150.0371861890435 146.82766120777524,150.01834408663035 146.5156090071614,150.01699822110913 146.24846468782198,150.01565235544058 145.95713920162962,150.012960623686 145.68078300920752,150.01430648963287 145.3963664278417,150.01161475759454 145.11885875127336,150.01565235544058 144.86783520982135,150.01161475759454 144.5868730808579,150.01430648963287 144.3289406345939,150.01026889135846 144.03876663254778,150.01161475759454 143.85913510747196,150.00219369096612 143.60696008188097,150.01161475759454 143.2914534288575,150.01430648963287 143.00473387922102,150.012960623686 142.7306806550696,150.01834408663035 142.4819600818737,150.0237275473046 142.22402763561695,150.01565235544058 142.06397134083818,150.01026889135846 141.75076765608537,150.01430648963287 141.4721084953926,150.01699822110913 141.20266120777524,150.01699822110913 141.01957523029705,150.0237275473046 140.74552200613834,150.01430648963287 140.4426816786072,150.0277651413171 140.1743858751288,150.02911100570418 139.94524053223722,150.02507341211913 139.63433981576236,150.0277651413171 139.3407113613066,150.0318027340536 139.06896110541857,150.02641927678997 138.81793756396655,150.0277651413171 138.5680655066535,150.0277651413171 138.30437563970918,150.0331485980123 138.08789662230993,150.03449446183186 137.81614636642917,150.0331485980123 137.50294268167636,150.0318027340536 137.27725179119443,150.0425696417551 137.0204708290621,150.0371861890435 136.69575230296323,150.0371861890435 136.42054759467283,150.01026889135846 136.26740020470606,150.04660722980134 135.93807574206585,150.04526136725963 135.74347492322704,150.04660722980134 135.5085721596697,150.04526136725963 135.18385363357083,150.05064481656336 134.90749744114146,150.03987791568306 134.63459570112173,150.0425696417551 134.38011770726735,150.05333654036167 134.095701125887,150.05602826359336 133.82970829068654,150.0573741249964 133.57062436028355,150.0573741249964 133.38293244626402,150.06814101109467 133.11463664277835,150.06544929042138 132.8348259979466,150.0614117083478 132.60568065506232,150.0614117083478 132.37077789150499,150.0614117083478 132.08060388945887,150.06814101109467 131.80194472875883,150.06814101109467 131.7639457523037,150.06814101109467 131.71673490275862,149.859530973682 131.54516376663378,149.85818509138426 131.2676560900727,149.85145567777454 131.0730552712339,149.82453798779716 130.87845445240964,149.83665095532342 130.5767656090029,149.82319210180685 130.2946519959005,149.8151167828728 130.02520470828313,149.79896612965695 129.74539406345866,149.7814695655752 129.47940122825094,149.77204832880943 129.1926816786072,149.7787777843514 128.9094165813658,149.78819901613952 128.6411207778874,149.79627435213024 128.38664278402575,149.80569557098443 128.1137410440133,149.8110791214849 127.86041453428334,149.81646266971893 127.62090583418467,149.82319210180685 127.43206243602617,149.82453798779716 127.28121801433008,149.83395918575934 126.98643807573535,149.8406886086077 126.71468781985459,149.84876391133457 126.64214431933942,149.93355428105315 126.63293244626402,150.24983084215728 126.62026612077898,150.52034201384777 126.59953940634296,150.79892214511347 126.56154042988055,150.99809647725215 126.49820880245534,151.19726769729004 126.37384851586103,151.46641305069625 126.24142784032301,151.74631819060323 126.12282497440174,152.00199539978712 126.00882804502908,152.28054315508507 125.95585977481824,152.56043042249894 125.97082906857395,152.85511278115064 126.03416069599916,153.21571937024328 126.08597748208558,153.5023136034688 126.13433981576236,153.7660284290132 125.997313203683,153.91806562087277 125.72671443193394,153.9543928232506 125.45957011258724,153.9920653682875 125.19472876151121,154.0283923599145 125.03352098259347,154.0687555625973 124.89994882292376,154.07548275063164 124.65353121801309,154.1091186375579 124.42323439098982,154.15620873025182 124.18487717502285,154.16831758313128 124.07663766632322,154.1629358721575 124.13536335721437,154.17100843776552 124.38178096212505,154.17100843776552 124.63971340838907,154.11853667000378 124.88497952916805,154.0862462440973 125.11297338792065,154.05530117589205 125.29375639712816,154.02973780205957 125.55859774820419,153.98937447590106 125.82689355168259,153.95304737315746 125.97773797338596,153.93152015233773 125.91901228250208,153.75930107777003 125.85798362333298,153.51173208398905 125.81653019447549,153.33547079560412 125.77853121800581,153.1847721898357 125.7151995905806,152.94122871430136 125.64841351074574,152.6478939336721 125.58968781985459,152.3895384463549 125.53211361309513,152.13656029258254 125.49066018423764,151.96700829502242 125.4089048106398,151.70863901049142 125.29490788126714,151.48929014371151 125.15442681677814,151.2457142802723 125.1417604912931,150.9779100312653 125.18666837256751,150.7733522419203 125.2511514841317,150.54725823428453 125.31793756397383,150.30770187408143 125.38587512794038,150.06006584737133 125.45150972364354,149.84741802790086 125.50678096212505,149.6468798079677 125.31793756397383,149.5540120464102 125.07612589558994,149.49209982937737 124.81934493346489,149.42749545610877 124.54874616171583,149.35750701545203 124.29426816785417,149.2955938436562 124.03863868986082,149.23098847409256 123.82215967246157,149.17311255237018 123.60568065506232,149.12062020997473 123.33047594677191,149.04390024363147 123.06333162743249,148.97121774413517 122.87909416580806,148.92410849523003 122.59582906857395,148.85007932360168 122.32407881269319,148.78277970341423 122.06384339815122,148.71413372459756 121.78288126918778,148.64279535470632 121.55719037870585,148.59299285971701 121.32459058341192,148.52030778789504 121.10580859774927,148.36686016334352 120.93654042988783,148.20264223706454 120.73618219037598,148.00746244038328 120.54158137154445,147.81631794802797 120.3642528147393,147.6480545774957 120.14777379734005,147.50940388981599 119.862205731828,147.44478946155323 119.60887922210532,147.47709671665962 119.47300409416493,147.53363421590984 119.23694984646136,147.70324520798658 119.0043500511747,147.90246793341976 118.79132548617781,148.0478447126361 118.55527123848151,148.1461077070535 118.30770214943186,148.20129617974908 118.07855680654757,148.2228330798407 117.90122824973514,148.2255251897941 117.69626407369651,148.23763967753803 117.43833162743249,148.25513836172104 117.18961105424387,148.27802122015328 116.94664790173556,148.29282775370848 116.68295803479123,148.31167240788727 116.42502558853448,148.33051703419005 116.21775844421063,148.3385932940746 115.96443193448795,148.36416808325794 115.69728761514853,148.3857047080137 115.46468781985459,148.41262543776065 115.21596724666597,148.43146991473895 114.9591862845482,148.44627626995225 114.70355680654029,148.50550151872085 114.46980552712193,148.62664321550074 114.2775076765538,148.7975856503581 114.14278403274511,148.98063957301383 114.05757420675218,149.1758044615308 114.01151484135335,149.37904196121417 114.00575742067304,149.67783557808434 114.02533265097009,149.96720109681155 114.04951381780847,150.2619434054668 114.07254350050789,150.54591242460992 114.09327021494391,150.8096884048 114.11629989764333,151.09095371706007 114.13702661207208,151.3883614832157 114.15199590582779,151.7072933234267 114.14969293755712,151.9481690450002 114.14508700101578,152.25766748182923 114.12320880245534,152.5711951947087 114.10017911974865,152.872605127136 114.08175537359057,153.1417151182477 114.06218014329352,153.4229289912737 114.04030194471852,153.69471832529234 114.01842374615808,153.9880290295023 114.0472108495378,154.27326049325075 114.16120777891047,154.5302324354152" stroke="red" stroke-dasharray="none" stroke-linecap="round" stroke-linejoin="round" stroke-width="0.5"><title>2024-04-21 79.4km</title><desc>1713660889000</desc></polyline><polyline fill="none" opacity="1" points="19.194604675511073,194.45604245369395 19.458789500240528,194.4222618436179 19.94381632690056,194.30402931471326 20.470122032427753,194.34987465370614 20.608406276609458,195.01100246336136 20.717795305601612,195.7276047808009 20.77764967996336,196.33320065225416 20.814800670937984,196.47796222702164 21.54337288289389,196.31872444429973 22.040783373209706,196.56481873137272 22.117149299105222,197.044936225544 21.93139434421755,197.3416872169637 21.869476025924087,197.4912675557789 22.121277186990483,197.247595856692 22.071742532345525,196.61307220214803 21.555756546549674,196.2897720008641 22.02633576560038,196.16672370671404 22.46801976945426,195.99059460239187 23.167696766198787,195.7010643553076 23.937547857021855,195.4067048403358 24.540219488444563,195.25952365969533 25.246088317027898,195.05684638267303 25.623790058634768,195.26676210060396 25.79096951802785,195.95440352227888 25.960212921374477,196.6565002386651 26.156287595978938,197.27413448473817 26.38332142973377,197.9400026940748 26.65163414235576,198.7071746054844 26.891051639766374,199.4236609501313 27.159364352388366,200.1835461527262 27.345119307276036,200.74801594115706 27.62581568355381,201.55610012485886 27.84046585365286,202.16636565598674 28.098458846550784,202.97681168018607 28.292469577208976,203.5195050039747 28.482352419989184,204.0670092094697 28.690810758249427,204.68926678768366 28.93229219960631,205.38868337884014 29.15932603336114,206.0591385042717 29.40080747471802,206.75851318500463 29.578306653842446,207.26735511061452 29.844555422510894,208.04868275298213 30.065397424434195,208.6828889554945 30.302750977905816,208.89509090594584 30.9570212079052,208.6660091703452 31.41728070724639,208.88062265369263 31.786726673075464,209.541330171327 32.096318264564616,209.91749088779397 32.300648714946874,210.80240869004047 32.46782817433268,211.3183940051622 32.75471638244926,212.01519682368598 33.076691637594195,212.8277047954398 33.38009139724454,213.5365160771853 33.54933480058389,213.99940138890088 33.799072017711296,214.6045133782518 34.021977963580866,215.17585941486686 34.211860806361074,215.8171000038201 34.39967970519501,216.4414485782272 34.64322509049089,217.181484484654 34.87851470001624,217.97452572397015 35.08903698223003,218.82779777496398 35.17985051572032,219.3363713579165 35.206681786992704,219.92447080135207 35.24589672190632,220.44989113546035 35.31813475992385,221.1536462737713 35.44403534045705,221.97546993631113 35.54929648156394,222.61170026271975 35.66074945449509,223.2864706929231 35.73505143645161,223.9829093290191 35.799033698691346,224.53233386730972 35.82999285784172,225.13716757516704 35.91461455951503,225.9901728397308 35.970341045976966,226.65761526821007 36.01574781273666,227.12264489259178 36.06528246736707,227.7996918805693 36.10862529017322,228.28638234201026 36.137520505377324,228.79474599761306 36.158159944810905,229.57293013526032 36.18705516001501,230.2306317347884 36.19118304790754,231.2111261963273 36.19118304790754,231.95791203173212 36.18499121608329,232.68299371832654 36.23246192676743,233.19125990462635 36.27786869351985,233.957251172038 36.26548502986407,234.56906229954438 36.21595037521911,235.24107225255284 36.511094359098934,235.39281371110337 37.25824206654215,235.4602540371834 38.00332583004638,235.5204684465225 38.59980562963756,235.57104842822446 39.36140094468283,235.6288539850575 40.11061259607959,235.68665939624225 40.67406929257413,235.73483046096408 41.41708911212481,235.79745269390514 42.087870893672516,235.8528491420966 42.81231521774316,235.91065398891442 43.41705079310486,235.9564160560185 44.046553695785406,236.00217803185296 44.60794644833368,236.04793991640872 45.22300174342672,236.1009272476458 45.769946888365666,236.1394634116914 46.31070020149491,236.25266301924967 46.30657231360965,236.94870790576897 46.28593287417607,237.82054057247296 46.27354921052029,238.5165379033424 46.269421322635026,239.16435036282564 46.25910160291096,239.8675312961568 46.23846216349193,241.02580634741025 46.22195061194361,241.87099720634615 46.12700919054623,242.76190545337158 45.866952253709314,243.3638509170505 45.53878516673285,243.89836526210638 45.47686684843211,244.13913342545857 45.67706941092911,243.77798023384094 46.11049763900519,243.79001876507027 46.649187008188164,244.1824714267932 47.17549271370808,244.6375155033984 47.79467589667183,244.8710531423112 48.14761031095986,245.24663446785235 48.82251998038555,245.45368308537763 49.60475473487895,245.75221501581655 50.246641301208,246.05796547120553 50.97521351316391,246.33241516985436 51.544862041497254,246.6646393654555 52.09593507433601,246.92945231211525 52.75846108009864,247.12444898504327 53.350812991811836,247.33148067817092 53.76360178046161,247.52888125274876 54.201157896408404,247.7383165934134 54.919410388654796,248.05126239540732 55.57368061865418,248.11144379174038 56.23827056837035,248.14514530483393 56.79553543304064,248.2414350698691 57.528235532889084,248.42197729171312 58.116459556702466,248.67954840597122 58.75628217909252,248.93711663307113 59.46421495161485,249.23078903310125 60.1288049013383,249.50520083468473 60.809906402595516,249.76516688729316 61.50751945540105,250.1190048446988 61.99461022600008,250.37655693889428 62.442486061685486,250.59559429934052 62.987367262692715,250.87239676903118 63.604486501717474,251.2117761174577 64.13285615117638,251.4861642676151 64.70044073556346,251.76054914240012 65.30930419881042,252.07825385308024 65.92229554994992,252.37910653895415 66.55179845263046,252.7016162455675 67.03476133534423,252.95191916818476 67.7014152289994,253.28886110683925 68.34949362715997,253.6161714046575 68.92120609943959,253.93385047307493 69.39797715032182,254.16729365741594 69.96143384682364,254.4608992459598 70.50837899177714,254.75209452839408 70.94387116379221,254.9662771345702 71.50319997240149,255.25024650293017 72.06252878101077,255.56309005261392 72.4299108029154,255.81817472032344 72.91493762956088,256.2681756793572 73.34423796975898,256.6941043051702 73.86228789949382,257.209058325745 74.43193642782717,257.8034068121233 74.97475368488813,258.3592410956371 75.5010593904226,258.87175171632043 75.94893522610073,259.3313172588332 76.310125416152,259.7403469317542 76.5866939045518,259.98335523533933 76.94994803855661,260.3394419752276 77.15840637681686,260.61372124770605 77.31113822861516,260.7508596579937 77.71154335360188,261.15024054800415 78.18212257265259,261.5688612697868 78.66921334325161,262.08130040833385 79.23679792763869,262.68755169761425 79.7156329224672,263.15666376047193 80.13874143082649,263.673878799842 80.23987468403357,263.7749147995728 80.33894399332348,263.98660783727246 80.5308907800354,264.1838655066913 80.6856865757727,264.45088234232026 80.78681982898706,264.5663481228912 80.79301166082587,264.7660063353669 80.64027980902029,264.9440134021479 80.55772205130052,265.19418316975316 80.42975752681377,265.4996752573061 80.40292625555594,265.8003524879332 80.33688004937721,265.89656837250004 80.32656032966042,265.61513577824553 80.38228681612236,265.36497058443456 80.45658879807888,264.9512298758291 80.74347700618819,264.5422927997006 80.71664573492308,264.32579375986097 80.57423360284156,264.18145993554026 80.34307188120874,263.94330714701937 80.60312881803839,263.71236875678915 80.3719670963983,263.5848705279059 79.96124225171661,263.2384566798155 79.56290107066889,262.795809176092 79.18519932905474,262.4373546880488 78.67540517508314,261.922517669871 78.19863412419363,261.42932187527913 77.80029294316046,261.03716352954143 77.33177766804147,260.56800826266044 76.90454127179692,260.1349333725393 76.4731769876671,259.67778992336935 76.07483580662665,259.28560172597463 75.72396533628489,258.93912315542184 75.25957794905116,258.4530819223128 74.80757422549505,258.01034235705447 74.36589022164117,257.56037548126005 73.9262701617481,257.11761873400064 73.6125506823737,256.8096090136751 73.20388978161645,256.3981208420064 72.78697310508142,255.96256101410472 72.42371897108387,255.5847482946956 71.95520369597216,255.34650650996628 71.31331712963583,254.9999685988987 70.6280877404788,254.638986055028 69.99652089385927,254.32853653488382 69.40004109426809,254.0253027245726 68.83245650988829,253.74853821658144 68.16993050411111,253.4164164093636 67.56106704086415,253.09873019137194 67.07191232631885,252.85083562364525 66.35985166590399,252.4922261303127 65.76749975420535,252.1817476212873 65.1689560106679,251.86163748118634 64.5539007155894,251.54152288328987 63.965676691776025,251.23343845892668 63.39190027555742,250.95423338245564 62.86353062609851,250.68946681480338 62.190684900611814,250.34045167907243 61.62516426016373,250.0708639461809 61.02042868480203,249.75313148682653 60.467291708017,249.45946576197457 59.99258460108831,249.22356762565323 59.420872128808696,248.92989513333487 58.87805487174046,248.64825487328017 58.34555733439629,248.39068340822632 57.837827124363685,248.1258873034094 57.67890344073385,248.31124489719514 57.22277182929247,248.31846659136863 56.636611749410804,248.18366125926877 56.095858436288836,248.10422203250528 55.42507665474113,248.07533497286022 54.743975153483916,247.96941544342553 54.36008158003824,247.78405509197546 53.93490912773996,247.58184209395404 53.350812991811836,247.3025926469436 52.78942023924901,247.11722691556315 52.24453903824906,246.95111869083848 51.87715701635898,246.83556443484122 51.32814792745921,246.52019465337617 50.70690080054919,246.195190730401 50.153763823764166,246.00018616946 49.64809755767783,245.74980751576368 49.08051297329075,245.50183365917292 48.51499233285722,245.3260835766523 48.067116497179086,245.19126068404512 47.91438464538078,244.8517923959589 47.431421762667014,244.83734682559225 46.964970431494294,244.47379697981341 46.581076858055894,244.1198720652792 46.13320102237776,243.80687269818372 45.786458439913986,243.55406240269986 45.470675016607856,244.0043035649669 45.006287629381404,243.79242647055617 44.53777235427697,243.48905359114542 44.06100130339473,243.14474459475787 43.617253355594585,242.81246947939508 43.13635441682709,242.45370326793818 42.66990308565437,242.10697086430082 42.23853880153911,241.75300946787684 41.77415141430538,241.49295271958908 41.34691501806083,241.26901260363047 40.870143967171316,241.0691502253103 40.463547010360344,240.929486325751 39.98471201553912,240.76814938408825 39.54302801168524,240.63570776364577 39.10753583967016,240.52012172501964 38.66378789187729,240.40212704360238 38.24274332746427,240.3732302944718 37.59466492928914,240.3515577087528 37.03120823278732,240.3226608959685 36.44917604079819,240.30098826250833 36.0425790839945,240.13723881499936 36.038451196109236,239.72304382174661 36.04670697187976,239.3329230976833 36.048770915826026,238.90908072163802 36.05909063553554,238.3142432772529 36.08385796286166,237.8109072433199 36.096241626524716,237.32441886231754 36.143712337208854,236.78252609734227 36.20150276762433,236.3273262845105 36.226270094943175,235.80226978166866 36.29025235717563,235.3566848834398 36.30676390872395,234.8412407456526 36.343914899698575,234.3546893915427 36.33153123604279,233.851266483809 36.30263602083869,233.37192052762657 36.28199658140511,232.80825467745672 36.286124469283095,232.4445142318782 36.28199658140511,231.96995676527695 36.27786869351985,231.33880420789865 36.27580474957358,230.70040704046914 36.26961291774205,230.2113586961932 36.26961291774205,229.74398254984226 36.23865375859168,229.19950141539266 36.22007826310437,228.63814228160118 36.19118304790754,228.25987966214052 36.137520505377324,227.52983925045737 36.08385796286166,226.95157291546457 36.0425790839945,226.47449220484668 35.99098048541782,225.843188321227 35.94970160653611,225.22632497869017 35.89191117613518,224.7419792313849 35.84031257755851,224.12990578158315 35.77839425926504,223.52986514888107 35.71441199701803,223.05271318690575 35.64836579083931,222.6285697657222 35.56580803311226,222.13693915467047 35.489442107216746,221.66698826489846 35.40482040553616,221.1150849084097 35.33877419935743,220.5125551413148 35.30575109626079,220.03293011462847 35.26860010527889,219.5075002131016 35.19223417938338,218.91697974134695 35.07046148673544,218.34813745663632 34.94249696226325,217.8588253703183 34.78770116651867,217.33334557208218 34.62671353894984,216.84160125738708 34.459534079549485,216.330561658202 34.32124983534595,215.8725447747729 34.1809016472107,215.37112630874617 33.97657119683572,214.8046066512179 33.784624410109245,214.35138082748017 33.59267762339732,213.85475073486305 33.43168999582849,213.41597149046174 33.208784049951646,212.90726633947634 32.99206993592088,212.37926182717638 32.78980342948489,211.8705336244475 32.57928114726383,211.32080512417087 32.2923929391618,211.22436016548272 31.76815117758815,211.42207189316287 31.274868575157598,211.59567102561596 30.870335562292894,211.4799384170292 30.74649892569869,210.86509911583744 30.632982008821273,210.31534645187094 30.519465091943857,209.78969338956085 30.35022168859723,209.26643958128807 30.20987350046198,208.8372178420177 30.030310377398564,208.3091193676446 29.871386693768727,207.87023373041848 29.685631738881057,207.31076290230885 29.506068615824915,206.78745236600662 29.312057885159447,206.23760166287684 29.11804715449398,205.65397372909501 28.95086769509362,205.15956650772023 28.748601188672183,204.56867555717872 28.56903806560149,204.04047847105903 28.401858606193855,203.5532721626878 28.230551258922787,203.0781154122633 28.057179967683624,202.57159226101248 27.908576003770577,202.1301843596466 27.69392583368608,201.50544494104543 27.501979046959605,200.94823050682498 27.320351979957195,200.41994972734028 27.163492240273627,199.95678940496146 26.996312780873268,199.47190838117967 26.866284312440257,199.0618019689191 26.65163414235576,198.46110340328596 26.472071019285067,197.91346483979396 26.271868456795346,197.32962424371544 26.05721828671085,196.6878648803431 25.935445594055636,196.17878729428048 25.805417125637177,195.64074509171405 25.65681316172413,195.08097472428926 25.59076695553813,194.79867153123996 24.996351099900494,194.98928689050263 24.41019102001883,195.14612111926544 23.83847854774649,195.32949515897053 23.380282992358843,195.49839099783458 22.76109980939509,195.73725583696796 22.290520590329834,195.9375143319303 22.08825408390112,195.9761181772301 22.106829579381156,195.97370543881334 21.656889799771307,196.14742195334293 20.990235906108865,196.26564493662772 20.79416123151168,195.85306819279504 20.748754464751983,195.45978634481617 20.664132763085945,194.96033276122398 20.54648795832327,194.345048832889 20.344221451880003,194.06273653935568 19.766317147776135,194.33057136430034 19.324633143936808,194.30402931471326" stroke="red" stroke-dasharray="none" stroke-linecap="round" stroke-linejoin="round" stroke-width="0.5"><title>2024-04-05 108.1km</title><desc>1712276378000</desc></polyline></svg>