<?xml version="1.0" encoding="utf-8" ?>
<svg baseProfile="full" height="300mm" version="1.1" viewBox="0,0,200,300" width="200mm" xmlns="http://www.w3.org/2000/svg" xmlns:ev="http://www.w3.org/2001/xml-events" xmlns:xlink="http://www.w3.org/1999/xlink"><defs /><rect fill="#222222" height="300" width="200" x="0" y="0" /><text fill="#FFFFFF" style="font-size:12px; font-family:Arial; font-weight:bold;" x="10" y="20">Over 10km Runs</text><text fill="#FFFFFF" style="font-size:4px; font-family:Arial" x="10" y="280">Runner</text><text fill="#FFFFFF" style="font-size:9px; font-family:Arial" x="10" y="290">yihong0618</text><text fill="#FFFFFF" style="font-size:4px; font-family:Arial" x="65" y="280">SPECIAL TRACKS</text><rect fill="yellow" height="2.6" width="2.6" x="65" y="283" /><text fill="#FFFFFF" style="font-size:3px; font-family:Arial" x="70" y="285.5">Over 20.0 km</text><rect fill="red" height="2.6" width="2.6" x="65" y="287" /><text fill="#FFFFFF" style="font-size:3px; font-family:Arial" x="70" y="289.5">Over 40.0 km</text><text fill="#FFFFFF" style="font-size:4px; font-family:Arial" x="120" y="280">STATISTICS</text><text fill="#FFFFFF" style="font-size:3px; font-family:Arial" x="120" y="285">Number: 5</text><text fill="#FFFFFF" style="font-size:3px; font-family:Arial" x="120" y="290">Weekly: 1.2</text><text fill="#FFFFFF" style="font-size:3px; font-family:Arial" x="141" y="285">Total: 317.5 km</text><text fill="#FFFFFF" style="font-size:3px; font-family:Arial" x="141" y="290">Avg: 63.5 km</text><text fill="#FFFFFF" style="font-size:3px; font-family:Arial" x="167" y="285">Min: 18.7 km</text><text fill="#FFFFFF" style="font-size:3px; font-family:Arial" x="167" y="290">Max: 108.1 km</text><polyline fill="none" opacity="1" points="73.8155973876128,35.641344928357285 74.00922013062518,36.158742802756024 74.2305032654549,36.78931909610401 74.39646561653353,37.452229832604644 74.52093737991527,37.82410532938957 74.61774875142146,38.32532739483577 74.71456012292765,38.85888456304383 74.8252016903134,39.4247764958709 74.93584325769916,40.00683458572894 75.04648482520133,40.621226833580295 75.12946600071155,41.15477599436417 75.22627737221774,41.688323294350994 75.32308874378214,42.238036748138256 75.40606991923414,42.771580270229606 75.50288129079854,43.38596141495509 75.6135228581843,44.04884356712864 75.72416442562826,44.74405834842764 75.86246638494777,45.45543764512695 75.94544756051619,46.21531642210903 75.97310795233352,46.76501361031842 75.94544756051619,47.05602896923665 76.13907030347036,47.767397516348865 76.20822128310101,48.688938216655515 76.2635420668521,49.56197165491176 76.31886285054497,50.12782400054857 76.2635420668521,50.30566287699912 76.20822128310101,50.4996686882223 76.19439108716324,51.14635294927575 76.45716480980627,51.922370454863994 76.66461774869822,52.698384024814004 76.83058009983506,53.506727308558766 77.05186323472299,54.41206671688997 77.25931617361493,55.20423430518713 77.16250480210874,55.786232369122445 77.6465616596397,56.15806330664782 77.89550518628675,56.83705660041596 78.13061851705424,57.45138127016253 78.39339223969728,58.01720444211969 78.22742988856044,58.51836036151508 77.66039185546106,58.68002321125823 77.06569343060255,58.85785214869247 76.34652324242052,59.148844509691116 75.68267383793136,59.375171519015566 75.01882443332579,59.56916583205748 74.79754129849607,59.81165837746812 74.63157894735923,59.989485999933095 74.8252016903134,60.66846229408111 75.11563580483198,61.395933552106726 75.35074913559947,62.188064989226405 75.58586246636696,62.915529023943236 75.91778716864064,63.67532110174943 76.65078755281866,63.98247001999698 76.92739147134125,64.66142859938554 77.30080676142825,65.40504644460452 77.60507107182639,66.13249518857629 77.95082597003784,66.81144423011574 78.26892047637375,67.50655560483574 78.58701498270966,68.20166382266325 78.90510948904557,68.91293408011552 79.22320399532327,69.59187078796094 79.54129850171739,70.2869695355912 79.87322320399107,70.94973516915343 80.21897810214432,71.64482775046781 80.5094122166629,72.32375234083156 80.84133691893658,73.03500344375789 81.14560122933472,73.74625124190061 81.46369573567063,74.4251665117481 81.76796004606877,75.05558513764117 82.21052631578641,75.44353377082734 82.47330003837124,76.07394820274203 82.59777180175297,76.36490783415502 82.41797925473657,76.8175106060371 81.85094122163719,77.0761401605414 81.22858240490314,77.3347692781681 80.48175182478735,77.6903836014244 79.76258163654711,78.09448978416913 78.9327698808629,78.43393815333548 78.11678832117468,78.83804237324512 77.39761813287623,79.2744737326866 77.0933538225363,79.419950576048 76.34652324242052,79.77556005549559 75.6135228581843,80.11500469715975 75.00499423744623,80.42212062914041 74.28582404914778,80.76156383717898 73.45601229346357,81.14949801050534 72.7506723011611,81.4889396057988 72.0591625047382,81.81221661588643 71.60276603914099,81.99001868047344 71.16019976948155,82.20014812692534 70.57933154050261,82.49109611517633 70.02612370339921,82.83053473586915 69.41759508254472,83.21846366659156 68.72608528618002,83.70337344774453 67.97925470612245,84.25293600973964 67.27391471381998,84.75400603812886 66.59623511333484,85.15809357627586 66.00153668841813,85.57834348453616 65.3653476756881,85.9501020572643 64.97810218977975,86.12789931643056 64.99193238565931,86.11173593773856 64.59085670381319,86.35418643856246 63.940837495203596,86.64512653269048 63.23549750284292,86.93606607404945 62.55781790241599,87.16235200176015 61.85247791005531,87.40480083884904 61.06415674218442,87.7119021481194 60.44179792545037,87.90586055236054 59.70879754127236,88.16447137587238 58.865155589650385,88.4715711614117 58.04917402990395,88.7463441316504 57.205532078340184,89.03727968031308 56.47253169422038,89.31205163532286 55.67038033035351,89.57066008374386 54.82673837878974,89.87775704894739 54.1075681905495,90.10403862917155 53.47137917787768,90.28183106472716 52.93200153671205,90.47578621357388 52.60007683438016,90.55660078646906 51.97771801770432,90.79904424901179 51.34152900497429,91.07381304255978 50.594698424916714,91.36474416889541 49.79254706110805,91.62334915045358 49.018056089116726,91.88195369527966 48.17441413749475,92.1890460249997 47.37226277368609,92.49613773880992 46.61160199769074,92.80322883679764 45.837111025699414,93.07799403394165 45.048789857828524,93.33659612212796 44.260468689957634,93.62752294924576 43.40299654239789,93.86996154967346 42.72531694202917,94.12856230030593 42.50403380714124,94.1447248327604 41.85401459853165,94.4033251193905 41.065693430718966,94.67808744545619 40.29120245866943,95.00133660963911 39.51671148673631,95.29226027404366 38.89435267000226,95.48620907652366 38.14752208994469,95.69632000205456 37.23472915869206,96.0195670168614 36.44640799082117,96.37513794499682 35.83787936990848,96.8115193193662 35.353822512493934,97.24789945020166 34.96657702646917,97.65195401820529 34.745293891697656,97.94287264700688 34.17825585859828,98.37924955398194 33.44525547447847,98.78330113689299 32.65693430660758,98.99340753868455 31.951594314246904,99.12270364274445 31.315405301575083,99.20351365224633 30.859008835977875,99.23583764418436 30.084517863986548,99.44594342511846 29.116404149099253,99.60756306044641 28.245101805659942,99.78534446237609 27.34613907028688,99.9469637395232 26.488666922727134,100.07625903842563 25.645024971221574,100.22171611928206 24.773722627782263,100.35101118622697 23.8747598924092,100.4964680060948 23.100268920476083,100.64192468780675 22.36726853629807,100.77121940001962 21.49596619285876,100.90051400304947 20.63849404535722,101.04597030098375 19.822512485610787,101.17526467209973 18.96504033805104,101.27223537878308 18.17671917018015,101.46617660793709 17.31924702267861,101.59547062423371 16.53092585480772,101.74092626213678 15.714944295061287,101.87022004653409 14.88513253943529,101.96719031315297 14.304264310398139,102.08032221329631 14.0,102.16113066229445 14.373415290086996,102.12880728782329 14.650019208609592,102.64598046056926 14.968113714945503,103.24395976455708 15.1064156742068,103.47022159502376 15.424510180542711,104.00355173001299 15.631963119492866,104.45607281241973 15.618132923555095,104.7308171029872 15.81175566650927,105.15101329996833 15.894736842077691,105.32878826698288 15.714944295061287,104.8924311613082 15.604302727617323,104.55304144184629 15.43834037653869,104.19748950049689 15.300038417219184,103.92274425318465 15.17556665383745,103.68032156690606 14.981943910825066,103.3086060359492 14.70533999230247,102.80759671893611 14.608528620854486,102.48436403171218 15.147906262020115,102.38739409251139 15.880906646198127,102.25810074475885 16.558586246625055,102.14496897593199 17.31924702267861,102.01567542349221 18.079907798732165,101.88638176191307 18.868228966544848,101.74092626213678 19.642719938536175,101.62779411127849 20.417210910469294,101.54698538093362 21.164041490585078,101.38536779228889 21.938532462576404,101.23991181666497 22.643872454878874,101.12677929570782 23.32155205536401,101.01364669116447 24.096043027297128,100.86819036255474 24.925854782923125,100.75505756693019 25.728006146731786,100.60960099268414 26.502497118723113,100.48030614401796 27.26315789477667,100.36717306190985 27.982328082958702,100.25403989621555 28.715328467194922,100.10858284613641 29.420668459497392,100.02777331414109 30.126008451799862,99.91463989773183 30.63772570108995,99.84999219367455 30.95582020742586,99.8661541222391 31.42604686896084,99.73685864591971 31.993084902060218,99.639886967052 32.573953130980954,99.54291522680433 33.32078371109674,99.38129552319879 34.03995389933698,99.05805560432782 34.67614291206701,98.70249090560537 35.118709181726445,98.31460120175325 35.50595466775121,97.86206197222054 35.907030349597335,97.39335921748716 36.36342681519454,96.97314173507039 36.97195543604903,96.64989673312812 37.74644640798215,96.35897564800689 38.47944679216016,96.13270331083913 39.22627737221774,95.80945653484378 40.02842873608461,95.53469623871206 40.872070687648375,95.25993544969242 41.70188244333258,94.9690117239661 42.55935459083412,94.66192496934673 43.333845562825445,94.38716261426453 44.108336534700356,94.12856230030593 44.896657702629454,93.86996154967346 45.643488282803446,93.59519777350943 46.34882827504771,93.32043350439926 47.026507875474636,93.07799403394165 47.745678063773084,92.86787951574661 48.464848252013326,92.60927663605253 49.19784863613313,92.35067331956816 49.958509412186686,92.09206956636626 50.663849404489156,91.84962815110339 50.968113714887295,91.78497704213078 51.50749135616934,91.62334915045358 51.89473684207769,91.46172108812607 52.12985017284518,91.39706981547351 52.655397618189454,91.20311583364673 53.26392623898573,91.02532446775876 53.983096427167766,90.73439269651135 54.71609681134578,90.44346037255309 55.490587783337105,90.16869044778286 56.22358816745691,89.8939200300374 56.956588551576715,89.6191491192003 57.71724932768848,89.34437771527155 58.381098732177634,89.11809501238167 58.934306569281034,88.94030122550612 59.29389166343026,88.7948334281391 59.750288129085675,88.64936549257254 60.427967729454394,88.42308176253573 61.077986938122194,88.1806345378136 61.67268536303891,87.97051329920941 62.22589320014231,87.76039177224447 62.806761429063044,87.56643318373244 63.470610833668616,87.34014785318868 64.16212063003331,87.06537235938595 64.78447944676736,86.77443306376517 65.1855551287299,86.59663655543409 65.78025355358841,86.28953300921421 66.40261237032246,85.83695823940798 67.01114099111874,85.43287249296554 67.60583941597724,85.0449491731124 68.17287744907662,84.60853426333051 68.60161352279829,84.25293600973964 69.14099116402213,83.88117331601097 69.63887821743265,83.54173702467233 70.15059546678094,83.21846366659156 70.74529389169766,82.86286218427995 71.43680368800415,82.49109611517633 72.18363426811993,82.18398433362017 72.9857856319286,81.79605278161762 73.80176719173323,81.44044799542462 74.59008835954592,81.05251455934194 75.24010756821372,80.74539989198092 75.8901267767651,80.43828460852092 76.62312716094311,80.08267666843312 77.35612754512113,79.75939600614947 78.1029581251787,79.43611466120637 78.84978870529449,79.12899675112567 79.52746830577962,78.82187822496053 80.19131771026878,78.49859490018571 80.91048789856723,78.15914667437028 81.57433730305638,77.8520262025122 82.22435651166597,77.52874082961353 82.98501728766132,77.14079748095537 83.81482904334553,76.78518188100134 84.49250864383066,76.47805865258852 84.7967729542288,76.34874342469266 85.37764118320774,76.02545487706084 85.97233960812446,75.68600116725429 85.58509412209969,75.34654670467717 84.9350749135483,75.66983668610919 84.34037648863159,75.91230372407881 83.71801767189754,76.23559251066763 83.06799846328795,76.57504500182404 82.5839416058152,76.33257901352772 82.3073376872344,75.63750771869672 81.86477141757496,74.87777501886012 81.50518632348394,74.08570925320964 81.17326162121026,73.32596885152452 80.77218593924772,72.55005986843025 80.4126008451567,71.8388065121253 80.08067614288302,71.24070454078901 79.77641183248488,70.52944510028465 79.4444871302112,69.78585215135536 79.09873223205796,69.00992522278102 78.76680752972607,68.25015962705947 78.40722243557684,67.55505162943155 78.1029581251787,66.90843670447066 77.77103342296323,66.2456535713136 77.5497502880753,65.63136420217052 77.38378793693846,65.25955628095835 77.24548597773537,65.06556918086426 76.9965424509719,64.61293165790266 76.7199385323911,64.03096716129221 76.20822128310101,63.67532110174943 75.72416442562826,63.1095188492327 75.46139070298523,62.28506039365311 75.24010756821372,61.5575933620421 74.96350364963291,60.83012287248857 74.7422205148032,60.264310100945295 74.99116404145025,59.69849523741868 75.79331540531712,59.45600251268479 76.56780637725024,59.2620080561901 77.34229734918335,58.9871821552515 78.1029581251787,58.712355760711944 78.72531694197096,58.51836036151508 78.57318478671368,57.66154440683022 78.42105263157282,57.20888498463319 78.17210910480935,56.51372683625959 77.86784479441121,55.6892328455433 77.56358048407128,54.89706776790263 77.31463695730781,54.040231536651845 77.14867460622918,53.23189107123471 76.9965424509719,52.47204714009422 76.96888205915457,51.647531371723744 76.95505186315859,51.13018587608531 76.95505186315859,50.920013768816716 76.73376872838708,50.28949571488192 76.51248559349915,49.62664060029783 76.45716480980627,48.64043621288147 76.4018440261134,47.73506265414471 76.37418363423785,47.18536895108991 76.33269304648275,46.61950572326896 76.2635420668521,45.972802328833495 76.19439108716324,45.293760822707554 76.09757971571526,44.63088406443421 75.95927775639575,43.984172264128574 75.84863618901,43.35362562672526 75.7518248175038,42.658404527101084 75.6135228581843,41.88234003302932 75.41990011523012,40.78290859397384 75.29542835184839,39.89365679725597 75.14329619664932,38.97206311712216 75.01882443332579,38.11513769636804 74.81137149437563,37.27437601452402 74.5071071840357,36.239586062554736 74.18901267758338,35.36647659573646 73.9538993468741,34.832907246018294 73.94006915099453,34.75206324280589 73.69112562423106,34.67121919686906 73.31771033420227,35.15628283166734 72.62620053783758,35.447320274222875 71.9208605455351,35.7868632573809 71.17402996541932,36.110236826352775 70.48252016899642,36.41744108371495 69.63887821743265,36.74081331967318 68.85055704956176,37.11269054595323 68.15904725313885,37.387555740817334 67.66116019972833,37.177364753893926 67.3568958893884,36.530621444035205 66.96965040336363,36.546790060107014 66.37495197844692,36.83782485719712" stroke="#4dd2ff" stroke-dasharray="none" stroke-linecap="round" stroke-linejoin="round" stroke-width="0.5"><title>2024-05-25 18.7km</title><desc>1716643451000</desc></polyline><polyline fill="none" opacity="1" points="180.32070876813668,105.17485617888269 180.45112932268967,104.93840602354067 180.53807635907287,104.85878450796554 180.54221669414983,104.85878450796554 180.57533937465632,104.9046272322812 180.65814607597713,104.84430783927382 180.56912887207,104.86843561538626 180.61467255778552,104.851546174752 180.6250233954488,104.71401741265618 180.80305780327035,104.808116127846 180.69747925909178,105.01561450373629 180.6229532279176,105.15555421613863 180.6312338980424,105.22552375433406 180.616742725324,105.37028764307252 180.7243914370265,105.45473282575949 180.75130361494666,105.48851081237262 180.69954942662298,105.56089204590717 180.65814607597713,105.65016192149415 180.5670587045388,105.72495533537403 180.53600619154167,105.87212876510421 180.55463769932976,105.98311138691497 180.5194448512775,105.80698654304615 180.63744440065057,105.6236222647949 180.56084820193792,105.5922571766514 180.50909401361423,105.50057436705538 180.5836200447884,105.34616039129651 180.63537423311936,105.16520519952792 180.49874317595823,105.27377848474316 180.3082877629422,105.25688934056416 179.99776263303647,105.15314146965648 179.77418453950668,105.07352069447188 179.79695638236444,104.77674993205437 179.98741179536592,104.48962662130725 180.20477938630938,104.20249974031685 180.43249781490158,103.95638814339327 180.5670587045388,103.8260927065221 180.50702384607575,103.74405446163837 180.23997223436163,103.54860923324122 179.96463995250087,103.2566447609006 179.7245005187142,102.95743766933265 179.58579929401458,102.90435213516139 179.38499304334255,102.70166079096816 179.07446791342954,102.38314222596091 178.7846444588431,102.04290163155747 178.5155226795905,101.74367880838872 178.21948872241774,101.41549447783109 177.95036694316514,101.1548741854258 177.77233253535087,101.00284432256194 177.51770192882395,100.77600425275341 177.2796326625612,100.52985612295925 177.1243700976047,100.36334266422091 177.04156339629117,100.28129211228588 176.77037144950737,99.99893945450094 176.63167022480775,99.82276895215546 176.47226732478885,99.69969013199807 176.21556655073073,99.45111717994041 176.00440946238814,99.22667522399388 175.74149818573642,98.95154984838337 175.48893774674798,98.6788346160065 175.2156756324257,98.41335651507143 174.97346603109327,98.16235622872773 174.72711609469843,97.90169919517575 174.4890468284284,97.6796556957961 174.22820571931516,97.42140676397503 174.02739946863585,97.22349441110782 173.85350539589126,97.05937068440835 173.56575210883602,96.75766961148474 173.18691145034973,96.36424548514515 172.86603548278072,96.03598463768503 172.60519437365292,95.78254475848007 172.46649314896058,95.71737405375279 172.11249450086325,95.51944708096744 171.7647063553668,95.33600105306687 171.36516402154666,95.12600183536415 171.00702503838693,94.92565597195426 170.6633772279456,94.75427439447958 170.2969575746538,94.57564998655289 169.9015555759106,94.37529934240592 169.54341659273632,94.19184421405589 169.21840029009763,94.02045718354566 168.84577013421222,93.85631066445603 168.49384165365336,93.68009324798186 168.13777283802483,93.48697672459457 167.78170402238902,93.31075648584192 167.5250032483309,93.17557292416859 167.28486381452967,93.06211468036781 166.96812818203034,92.89796133951495 166.59135769107525,92.70966636245066 166.21665736764407,92.51171357478233 165.85023771434498,92.31375908765767 165.48795839612285,92.12063112090254 165.11118790516775,91.93232979577078 164.75925942460162,91.76092597045863 164.3969801063722,91.59193503604001 164.04505162580608,91.37948753249111 163.64964962705562,91.1839375318632 163.29979131402797,91.01494236803046 163.0182485295736,90.86767414368296 162.66010954641388,90.68177684506918 162.30197056326142,90.49829232706361 162.0949538099885,90.39206378070048 162.00179627100442,90.36067798013755 161.6498677904383,90.17960521936584 161.24618512156303,89.97438770432927 160.85492345787497,89.776411428953 160.471942464319,89.56636157036519 160.0972421408951,89.38045377688104 159.6997699745989,89.17281472839022 159.31678898105747,88.97483156795533 158.96279033295286,88.80340575037917 158.59844084719225,88.61990627920386 158.242372031571,88.43640534699625 157.95461874451576,88.31809476075614 157.81798768735462,88.4702082600761 157.74760199124285,88.65370892314604 157.67514612760715,88.80823466410402 157.59233942629362,88.95068716375317 157.53230456784513,89.06658007326769 157.48469071459112,89.18247240003438 157.4515680340628,89.26939126269826 157.5074625574489,89.10521091360533 157.51367306004977,89.09555320958862 157.53023440031393,89.11245418895669 157.63995327954035,88.85652374568053 157.73725115357956,88.64163655599987 157.6047604314881,88.55954429170379 157.37911217041983,88.50642561193672 157.00855218205834,88.43640534699625 156.70009721967654,88.3398253221294 156.55311532486667,88.31809476075614 156.11423980791733,88.2698045510133 155.65259244812478,88.25773198277057 155.20543626105064,88.22875779317656 154.7872624194424,88.09837348920337 154.50778980252653,87.96315935777966 154.22831718561065,87.82794443299463 153.86810803490516,87.65651008416899 153.44786402576574,87.4609284949529 153.01933934648696,87.31605217345168 152.59288483473938,87.18807733179892 152.1974828359962,87.07458961346492 151.94492239700048,86.97075993473118 151.70478296319925,86.83553918659891 151.3404334774459,86.62304783625041 150.96366298649082,86.42021335559184 150.57654165786516,86.27774521233732 150.18527999418438,86.13286145132952 149.85405318894482,85.96865875411095 149.52282638370525,85.8068696578539 149.14812606028136,85.6595681492945 148.77135556931898,85.5581468910259 148.4318480939546,85.43016228504348 148.162726314702,85.33839929972055 148.0550776030068,85.14279803214413 147.96813056662359,84.98341799358968 147.93707805364102,84.62360142757643 148.00332341467583,84.23721496437429 148.14409480691393,83.85082201980003 148.19998933028546,83.46200757653241 148.25588385367882,83.12148767283361 148.0053935822143,82.95001829774992 147.65139493411698,82.74232128868425 147.50027270423016,82.49839566547416 147.47957102889632,82.25446745864792 147.11315137561178,82.05159450675637 146.77364390024013,81.86562606414736 146.44034692746936,81.6748257115305 146.40308391188591,81.41156693334415 146.41343474954192,80.97199052189353 146.4155049170804,80.5952040613447 146.421715419674,80.31985621008243 146.4237855872052,80.06865880674195 146.42792592227488,79.88508974030628 146.421715419674,79.63388759327427 146.42585575474368,79.22326279687877 146.44448726253904,78.67011546299 146.45069776513992,78.25222678554746 146.46518893785833,77.79084954937571 146.4672591053968,77.36086662658454 146.469329272928,76.93087567064504 146.4838204456537,76.52744988503764 146.48589061319217,76.33660528289874 146.36582089628791,76.26654800650613 145.98283990273922,76.22547984878292 145.56052572606131,76.18924317815436 145.21066741303366,76.1675011483967 144.74902005322656,76.13368017237553 144.3494777194137,76.09744335719552 143.93544421286788,76.06845386397436 143.51313003618998,76.03221694608146 143.20053473874577,76.00564317003591 142.88379910624644,75.98631676817604 142.5380811282812,75.9645745466787 142.14267912952346,75.92350585004169 141.75348763337388,75.8921003266878 141.40776965540863,75.86552638882495 141.01029748912697,75.83895242028666 140.64801817089028,75.80754678153062 140.57142197217763,75.45241849912964 140.5838429773794,75.09003705094074 140.59626398257387,74.6889949286251 140.59626398257387,74.37733688621665 140.60868498777563,73.96661828959441 140.61696565789316,73.57763685824466 140.62317616050132,73.25871549844305 140.62110599296284,73.16448788692105 140.61696565789316,72.88421886360993 140.62938666309492,72.84072853670659 140.62110599296284,72.54112627262293 140.61282532283803,72.3647456955041 140.6583690085463,72.20044476309704 140.6418076682894,71.94432626311209 140.6355971656958,71.64954483670772 140.6459480033518,71.20978191601534 140.6355971656958,70.7965904110115 140.6335269981646,70.45105029461592 140.64801817089028,70.09342288843072 140.62731649555644,69.75753802995132 140.6314568306334,69.36606891005795 140.62731649555644,69.10991884169016 140.60661482023716,68.85134936908798 140.60868498777563,68.6169427548266 140.60868498777563,68.91176305758927 140.58591314491787,69.10750231802194 140.4865451033329,69.29599040132052 140.14703762796853,69.38298438016864 139.75577596428775,69.34915342750719 139.60879406945605,69.20899609333355 139.40591765125282,69.07367096002599 139.09125218627742,69.05433873310358 139.12851520187542,69.05675526236337 139.4742331798334,69.09541969587917 139.84893350325729,69.17033185080618 140.2112128214867,69.22832819021642 140.53829929165659,69.25007677978647 140.5672816371225,69.55938782691192 140.56314130205283,69.85902893610364 140.34370354357816,69.98468372310344 140.06837126172468,69.96776869561836 139.72679361882183,69.96051939431527 139.3086197772136,69.94360434905502 138.9359896213209,69.93152216624367 138.53230695243838,69.91702353849723 138.11620327836135,69.90010846124096 137.71459077701002,69.89044269722217 137.31090810812748,69.87836048648387 136.87824309379357,69.87111115699554 136.46006925217807,69.84936315481355 136.30894702228397,69.64396434195442 136.2985961846207,69.22591167899736 136.2882453469574,68.81993418832826 136.284105011895,68.6894399010962 136.26133316903724,68.401866542481 136.24063149371068,68.11428958682882 136.21578948331444,67.7445425009173 136.18059663525491,67.39170640332304 136.14954412227235,67.08478292783366 136.1391932846018,66.8793594148392 136.10400043654954,66.5047588708876 136.06466725342761,66.12773538505462 136.04396557809378,65.77487446884152 136.0170534001736,65.43409268828327 135.99014122226072,65.22140362598839 135.94873787158576,64.87336273277651 135.91975552612712,64.45280628753608 135.89284334821423,64.0999196535995 135.8535101650923,63.69385161565333 135.7996858092447,63.302279211327914 135.74379128585133,62.94212339240221 135.72722994559444,62.64239209794505 135.6361425741561,62.270139723877946 135.57610771570035,61.92447140423792 135.51814302479033,61.55945935095042 135.46638883646665,61.24037121551737 135.42912582086865,60.96237415127325 135.39807330789336,60.628773233089305 135.38151196762192,60.336264093575664 135.35666995723295,59.98089673866343 135.3318279468367,59.630358926988265 135.31319643904135,59.30399132729872 135.24488091046805,58.929267252457066 135.164144376693,58.5690428615726 135.08340784291067,58.24266017847913 134.99853097407322,57.92110825790587 134.9053734350964,57.59713409986398 134.7956545558627,57.25623098300275 134.69007601169142,56.94191866005349 134.6051991428467,56.68321221204678 134.49755043115147,56.330206187731164 134.41681389736914,56.0473138805628 134.30916518566664,55.65077520601699 134.2242883168292,55.40656200430931 134.1104291025331,55.08497035955406 133.96965771030955,54.722267609588016 133.90755268432258,54.499807087317095 133.75643045443576,54.226564582240826 133.64257124013966,53.90012015667344 133.56597504141973,53.65830647750772 133.39415113620635,53.305253930437175 133.25130957644433,52.944941279019986 133.112608351752,52.594296018894966 132.97390712706692,52.255736890554545 132.86625841536443,51.98004933905577 132.75446936858498,51.697103407754184 132.64268032182736,51.399643666522024 132.55573328544415,51.17231411005014 132.37769887762988,51.271468768023624 132.01748972693895,51.40206205395407 131.65107007364713,51.53023622291039 131.33226427360933,51.660828036019666 130.99896730083128,51.73337872213415 130.88924842160486,51.37545977821355 130.80644172029133,50.9764219408371 130.72777535404748,50.64025740690704 130.6491089878109,50.25088081859212 130.57044262155978,49.86875326926929 130.4586535747876,49.48903794360194 130.3427241929603,49.145595738727934 130.29097000463662,48.94726761633865 130.14605827735068,48.60139861707103 130.0177078903289,48.22166231068695 129.89349783836224,47.834663427898704 129.7610071162635,47.44282040575308 129.67820041494997,47.20335748521029 129.54156935778883,46.81392254730781 129.41114880323585,46.42448099576359 129.2890089188004,46.05196549651555 129.16065853177133,45.681862935900426 129.05300982006884,45.36739201342789 128.92672960057098,45.02872619627851 128.8004493810804,44.648930721941724 128.68244983171462,44.30299688463856 128.5872221252066,44.0126987271542 128.46922257584083,43.67643209929338 128.34915285893658,43.31112966889668 128.28083733036328,43.117589598190534 128.14627644073335,42.74985896162434 128.04483823163173,42.428089814920895 127.93097901732835,42.11841298685249 127.79227779263601,41.72163343570173 127.6535765679364,41.31758866274322 127.5314366835155,40.954668123033116 127.42378797180572,40.640132339345655 127.29336741725274,40.25784457433656 127.17743803541089,39.91910325047138 127.05736831851391,39.568258742710896 126.97663178473886,39.30451692029237 126.90624608862709,39.06012958584142 126.75098352367058,38.67055626668116 126.63919447690569,38.34872983237619 126.52326509507839,38.00996028030022 126.40940588077501,37.6760253901266 126.28519582880836,37.31788690937174 126.1609857768417,36.96216274015569 126.06368790280976,36.61127294309881 125.99537237422192,36.31361738383748 125.90635517031478,35.96513766714088 125.8214783014846,35.61181254081566 125.72418042743811,35.26332214492504 125.67035607158323,34.93660758225997 125.63516322353826,34.79623989416359 125.38260278453527,34.885784898004204 125.11969150787627,34.96806918740913 124.74085084939725,35.07213418882384 124.34544885064679,35.19555950765425 124.01008171033754,35.304463648295496 123.64159188950725,35.41820742002892 123.295873911542,35.56341141406483 122.92945425825746,35.70861448743926 122.56510477248958,35.810256091017436 122.26079014517745,35.9385174707877 122.0661943971063,36.006277909738856 121.9171423347434,36.08371816590443 121.62317854509456,36.173258135679134 121.27332023205963,36.25311781338496 120.94416359435854,36.32813725696542 120.83444471513212,36.04015805403287 120.793041364479,35.68441403914585 120.74956784628739,35.41336727104499 120.70816449562699,35.15441780862966 120.6439893021161,34.76719819609934 120.58809477873001,34.44773708635512 120.48044606703479,34.106489614072416 120.3686570202699,34.058085305438 120.08090373321465,34.20571812687558 119.74967692797509,34.33882887115033 119.49297615391697,34.348509622361235 119.34185392403742,34.31220678419777 119.19694219673693,34.41627476627764" stroke="red" stroke-dasharray="none" stroke-linecap="round" stroke-linejoin="round" stroke-width="0.5"><title>2024-05-01 58.8km</title><desc>1714551575000</desc></polyline><polyline fill="none" opacity="1" points="19.165321345077245,114.25226575773013 19.427191429123923,114.13960371987196 19.703726237858064,114.01469516801262 19.83151883886603,114.1714430469674 19.896462619704835,114.43840183756583 19.936266872471606,114.69066282268068 19.98445096794603,114.97720837738052 20.030540102736268,115.25885226470564 20.08081915886578,115.58212624665975 20.09548388357507,115.7755986698121 20.126908293656015,116.11845722472572 20.135288136341842,116.26294609660908 20.147857900381496,116.38049570075964 20.378303574339952,116.32416992316212 20.730256967275636,116.25315026935277 21.042406107437273,116.18213039791954 21.3692199723082,116.10376339068534 21.4655881632425,116.04988591950132 21.721173365258437,115.9519265601084 22.020752741387696,115.84661978697841 22.332901881563885,115.68743422159241 22.655525825095538,115.50865528308896 22.942535437199695,115.34456929015323 23.24211481333623,115.34456929015323 23.568928678207158,115.25150507633953 23.809849155528354,115.19272748558978 24.138757981076196,115.10211174110555 24.434147435858904,115.01884290676026 24.725346969309612,114.9331246765014 24.987217053349013,114.86454986401623 25.066825558882556,115.12415344130022 25.154813907123753,115.48416491014359 25.236517373341485,115.8196807681561 25.318220839559217,116.14294692742442 25.38944950241421,116.44906602787705 25.429253755195532,116.62783771253635 25.496292496703973,116.83354589012015 25.609420373009925,117.1519001850993 25.697408721251122,117.41637581287068 25.79377691217087,117.69554125749528 25.88176526040479,117.96490823637396 25.98441833335528,118.24161832828213 26.095451248977042,118.56729942638958 26.189724479234428,118.89787330585204 26.246288417387404,119.05213950322832 26.332181804944412,119.25048024876924 26.42017015318561,119.49534302639222 26.51234842276608,119.77448343861579 26.594051888976537,120.03158347691351 26.652710787806427,120.22746730702056 26.742794096709986,120.41845244818433 26.81821268091153,120.63881796419628 26.84335220898356,120.7489999369136 26.93762543923367,121.0232283516616 27.038183551507245,121.34397354365501 27.145026545782457,121.66716268533673 27.253964500749134,121.99034732335895 27.316813320925576,122.1617312889357 27.423656315200788,122.45308112405473 27.528404348813638,122.77380654265289 27.59963301166863,123.02108036448772 27.683431438563275,123.17531913625317 27.754660101418267,123.37607282684621 27.84264844966674,123.66495923512412 27.92854183721647,123.9293605912535 28.01653018545767,124.20844764238791 28.089853808982298,124.43612143427526 28.119183258393605,124.53894112406124 28.228121213360282,124.82536499996058 28.34124908965896,125.1313695074823 28.45437696596491,125.48877766250371 28.573789724279777,125.85842003144899 28.680632718562265,126.18889001146636 28.79166563419858,126.50956378911906 28.913173353197635,126.85960720521325 29.02211130814976,127.19251073029773 29.143619027148816,127.54499161073727 29.269316667487146,127.88522849399669 29.39291934713401,128.2303557761643 29.503952262777602,128.57792558297842 29.608700296383176,128.84961384994494 29.650599509834137,128.97199491334322 29.728113054712594,128.9083568409078 29.765822346809728,128.96709968319556 29.985793217405444,128.9303854241807 30.32517684630875,128.80066124392215 30.66665543588897,128.6880698582754 30.859391817728465,128.78352780742534 30.98927937940607,129.06010887946104 31.152686311856087,129.34647695939748 31.30561844092881,129.62549887003843 31.464835452025,129.90941245947033 31.619862541774637,129.98283782266844 31.668046637241787,130.21779742427316 31.741370260773692,130.5775747058451 31.84192837303999,130.94713604057506 31.938296563967015,131.26284934280557 31.9801957774107,131.39011240565196 32.09751357505593,131.62505776605212 32.20645153000805,131.8869211475485 32.30700964228163,132.15122885574056 32.44527704665961,132.49873996804126 32.57097468699067,132.82422101173324 32.68410256329662,133.10320113268062 32.83074981034588,133.44580371381016 32.945972647328745,133.71009368035084 32.853794377740996,133.76882437559652 32.7532362654747,133.81287229957343 32.79304051825602,133.7835070262081 32.77837579354673,133.77371859350023 32.92921296194254,133.7541417157081 33.05281564161123,133.98416898757569 33.16803847858682,134.29494689629792 33.312590764966444,134.6448729503827 33.46552289405372,135.01192258693118 33.595410455731326,135.3642847815081 33.70015848935145,135.67015040859587 33.79862164094084,136.0249494908494 33.90336967455369,136.38708365592902 33.97669329809287,136.5608081775681 34.08353629236808,136.90825332384702 34.177809522625466,137.22877909770978 34.27836763489904,137.56887412975448 34.37054590447951,137.89917748940752 34.45643929203652,138.2147963130028 34.55699740430282,138.54509049140506 34.634510949181276,138.88027311757105 34.695264808680804,139.18609246391134 34.74973378615687,139.4870147725287 34.77068339288235,139.71943177499998 34.79163299960783,140.02279362895206 34.818867488334945,140.42890088043714 34.84400701640698,140.67109399617948 34.858671741123544,140.82276920785444 34.90057095455995,141.18238228698465 34.93828024665709,141.5517749637329 34.99484418481734,141.911376765589 35.045123240939574,142.2587419318752 35.1058771004391,142.62077897597555 35.13311158918805,142.82136464094765 35.16872592061554,142.98525652161152 35.21691001608269,143.2787913308639 35.26509411153529,143.61145963497984 35.290233639600046,143.8193749081638 35.31746812834899,144.06642475706758 35.33213285304373,144.2449839048677 35.344702617083385,144.35260793443194 35.38660183052707,144.68036895620025 35.4117413585991,145.0105712845052 35.42221616196184,145.35055248678327 35.42431112263148,145.47773842173592 35.45154561136587,145.59758607010554 35.48297002145409,145.87396706820618 35.50810954951885,146.16012800385033 35.526964195567416,146.42427343503914 35.554198684309085,146.69330736479787 35.57305333036493,147.00636111153472 35.59609789775277,147.27049693332992 35.621237425817526,147.5493037137785 35.64847191456647,147.8403352973255 35.66313663927576,147.99930059122562 35.69037112800288,148.32456465370342 35.71551065607491,148.5935766079565 35.73227034146112,148.8087839318723 35.738555223477306,148.9310599336477 35.74484010548622,149.20740133049367 35.74274514481658,149.49596671978725 35.74903002683277,149.79675564682657 35.76997963355825,150.07553215625376 35.78883427960682,150.29561651513905 35.797214122292644,150.73088834030568 35.797214122292644,151.10501997591018 35.79930908296956,151.4938170676105 35.797214122292644,151.8483747909395 35.797214122292644,152.27872725382076 35.80768892566266,152.59415099445505 35.797214122292644,152.95358213969484 35.774169554897526,153.14429845286213 35.8265435717185,153.28611213438126 35.843303257090156,153.5770719832708 35.860062942469085,153.88269816052525 35.874727667163825,154.15653580737126 35.89358231321967,154.4523746456489 35.89358231321967,154.8142219981728 35.88101254918729,155.1100524798385 35.85377806044562,155.45233099160396 35.83073349305778,155.69925736523874 35.80768892566266,155.8263867543301 35.89358231321967,155.85572420709832 36.21411129607441,155.88261683966266 36.55768484633154,155.92662289868713 36.899163435919036,155.95596022516838 37.288826120966405,155.99996614559313 37.613545025153144,156.03663768241495 37.952928654071,156.0659748702983 38.24412818752171,156.07819868766455 38.54370756365097,156.10020154278027 38.84538190045714,156.12220437708856 39.15334111928678,156.14176243458496 39.452920495423314,156.16132047565588 39.77344947827805,156.18576800388837 40.07721877575386,156.20532600800107 40.217581140801485,156.21510500389195 40.531825241640036,156.24444196694276 40.848164303148224,156.27377889302807 41.19173785341263,156.30800526008534 41.48084242618643,156.3275631615361 41.78880164500879,156.35445524920578 42.065336453750206,156.38379203670047 42.26854763896699,156.36912364757882 42.626785913918866,156.3984604165871 42.97035946416872,156.4400207761082 43.303458211063116,156.46691273390752 43.661696486022265,156.50602825347232 43.994795232923934,156.52803070434493 44.35303350787581,156.56225669773266 44.732221389560436,156.58425909548896 45.002471316285664,156.60137205714636 45.23291699022957,156.6184850062309 45.4235584114067,156.6307085335975 45.662383928050986,156.6404873508618 45.97662802889681,156.66737907718198 46.07090125914692,156.92651593946175 46.068806298477284,157.2296535151927 46.06042645579146,157.5523440183133 46.05204661309108,157.90192035158725 46.04576173107489,158.1928225313768 46.041571809735615,158.5472782602119 46.035286927719426,158.86995050960468 46.03109700638015,159.2219515023553 46.03319196704251,159.53239240838775 46.02900204570324,159.83549607329041 46.02481212436396,160.08970900963322 46.02900204570324,160.27547824742214 46.01852724233322,160.6445679959379 46.01224236032431,161.12364265823453 46.003862517631205,161.59781910400488 45.9912927536061,162.03776800144078 45.98081795023609,162.44593538418667 45.97872298956645,162.78810612465168 45.9389187367924,163.12049574780212 45.85302534922084,163.47976449472117 45.7210428268736,163.7974805410213 45.55135101242195,164.0858652026909 45.45079290015565,164.2593830679798 45.52411652368028,164.17384625356863 45.605819989905285,164.2422757302138 45.77132188301039,164.35713904296063 46.010147399647394,164.53798651590841 46.27201748367952,164.71638872934454 46.40818992738059,164.80681124764124 46.62397087662248,165.01698115130785 46.88165103931533,165.21004253261526 47.126761437968526,165.4031023150692 47.37815671864519,165.50818481584793 47.59812758923363,165.50085349395704 47.66726129141898,165.5668353079982 47.799243813766225,165.7647796296751 47.84323798788682,165.87474797105824 48.13862744269136,165.9162914317003 48.461251386215736,166.04580880444337 48.783875329754665,166.1288950420858 49.06878998117463,166.2315305739212 49.33066006520676,166.36104619545767 49.55691581781139,166.46368070533754 49.78526653109293,166.57853307357618 50.021997087067575,166.68605392684367 50.306911738502095,166.78624336658504 50.61906087866373,166.90109414593644 50.82436702454288,166.99883904445596 51.029673170429305,167.1063579595684 51.30201805782417,167.2651918133597 51.524083889089525,167.39714526911666 51.77128924840508,167.5266544162787 52.11695775933913,167.63905799867825 52.44586658488697,167.73924334370895 52.741256039676955,167.8320976693958 53.05131021917623,167.91517754213783 53.31527526388527,168.04468381229162 53.52896125245752,168.14731091180693 53.717507712950464,168.23283314973742 53.906054173465236,168.32079855297707 54.16163937548117,168.4478591052066 54.47378851565736,168.5993534742829 54.83202679061651,168.73374281668657 55.18607514422911,168.7752811840237 55.49822428439802,168.802158911707 55.74123972238158,168.80948919570255 56.045009019864665,168.81193262319357 56.319448867936444,168.85347085126887 56.470286036332254,168.87546164794912 56.77824525516189,168.94876415379076 57.06315990658186,168.99763236302715 57.429778024241386,169.0953684743181 57.55338070389553,169.1466797687899 57.85296008003934,169.27617920048397 58.15672937751515,169.42033809947134 58.43326418626384,169.5376192582862 58.615525764740596,169.615806369864 58.79988230390154,169.68666321334604 59.10155664071499,169.80394303300818 59.41999066290737,169.9383254347449 59.753089409794484,170.0653771752768 60.05476374659338,170.19731478874564 60.33758343735826,170.2510669358362 60.70629651568015,170.43675521820296 61.068724711978575,170.61755554651972 61.395538576864055,170.78613837394914 61.66997842492856,170.9131854968182 61.90461402021174,171.04511831516174 62.16019922224223,171.1843799250437 62.424164266951266,171.30898171343142 62.68393939031375,171.4409122934103 62.91648002493457,171.55329701379742 63.184634990982886,171.69744184092815 63.46116979973158,171.85624443299093 63.72932476577989,171.98572882344342 64.00795453518367,172.12987097887162 64.32848351805296,172.29355675352417 64.61130320880329,172.44746919556383 64.88155313552852,172.57695030490504 65.15389802291611,172.72353182567713 65.45766732040647,172.87988443286304 65.73839205049444,173.01424911761933 66.03587646596134,173.16082789128268 66.33126592074404,173.31229165676268 66.61618057218584,173.45886855823665 66.85291112814593,173.58345820058457 67.08335680208984,173.69583260155014 67.36617649285472,173.83507839114827 67.6489961836196,173.98165200889707 67.9360057957092,174.13555331672796 68.25862973924814,174.29678216968387 68.56239903671667,174.45068139933755 68.86407337353012,174.6192365340321 69.15527290697355,174.7926760540122 69.45066236177081,174.9319152992921 69.78795103000448,175.10535249568056 70.12523969824542,175.27390290235599 70.43529387773742,175.43268115758656 70.69925892244646,175.57435930419706 70.99883829859027,175.72336470295522 71.3172723207681,175.8845825876324 71.62732650026737,176.03847134790885 71.9059562696857,176.17281784883198 72.23067517387244,176.37311483262602 72.45902588715398,176.54898393794792 72.48416541522602,176.59783623205658 72.7229909318703,176.74439250097566 73.00371566195099,176.99842118754168 73.22787645387871,177.2329067524588 73.44156244246551,177.45029230775253 73.63848874565883,177.63592331450855 73.86474449826346,177.87040247652476 74.14337426766724,178.15372832208777 74.40733931238356,178.42483862772497 74.68387412111042,178.7179273089132 74.9457442051571,178.9792616136674 75.19504452515685,179.24059299362307 75.44643980581895,179.48970990401722 75.69783508649562,179.73638187315737 75.93666060314717,179.98060897857067 76.16710627709108,180.21018012881723 76.39126706902607,180.44951786139063 76.59447825423558,180.65710472480896 76.74950534398522,180.80607768960363 76.78930959675927,180.8378259035253 76.81863904617057,180.86468974314084 76.90872235508141,180.95504970417278 77.09517385491199,181.14797926172287 77.20201684920175,181.25299088275096 77.38846834902506,181.4508021888887 77.56654000617709,181.6437276515262 77.79489071945864,181.8854927537941 78.00857670802361,182.10283500273 78.14684411239432,182.22249447886134 78.35215025828074,182.40808755572652 78.59726065692666,182.66938057249354 78.83818113424786,182.9160189630511 79.08119657222414,183.16509667518403 79.3325918529008,183.43370691801647 79.41639027979545,183.5435920363234 79.50856854937592,183.62905788214084 79.70130493122997,183.80487235328292 79.9108009984484,184.01242940105294 80.13915171172994,184.2370773043367 80.34655281827872,184.46172304770698 80.41568652047863,184.59357932594867 80.48691518333362,184.64974010739388 80.57909345289954,184.83043040148004 80.68803140786622,184.9940271652158 80.8304887335762,185.14297247640206 80.79696936282562,185.19180679798774 80.67127172248729,185.36028442408133 80.55395392484206,185.50922740078022 80.49529502601945,185.60689441113755 80.4198764418179,185.785135652819 80.32769817223743,185.94872573297835" stroke="red" stroke-dasharray="none" stroke-linecap="round" stroke-linejoin="round" stroke-width="0.5"><title>2024-05-01 52.5km</title><desc>1714541844000</desc></polyline><polyline fill="none" opacity="1" points="186.0,148.19545094104615 185.77186384804372,148.23855166045632 185.54948871002125,148.27491777910654 185.26950343260978,148.29916180056807 184.9837571412645,148.30589624279492 184.72912032518798,148.29377424423092 184.5804861655779,148.30589624279492 184.3212405383456,148.31263068145927 184.02973323305923,148.31397756876868 183.75896557795204,148.32071200315931 183.49165453120077,148.327446434002 183.23010449839785,148.3355277463097 182.96048904608324,148.3112837940098 182.7346572996903,148.28703979560578 182.4581286306493,148.26414264365576 182.19081758389802,148.33283397611194 181.99033429884003,148.39209678903353 181.78063339148503,148.40556557173113 181.5916721343092,148.29916180056807 181.4660820304489,148.01631201440432 181.4096240938452,147.89104796098036 181.30823024853453,147.6378222438916 181.25407671750872,147.4802271035851 181.16074829170975,147.2431572391224 181.10544255789864,147.1017214129206 181.005200915366,146.8498270543423 180.90035046168487,146.5911923718486 180.79319560243312,146.39856000477994 180.49707948599826,145.7452047630677 180.31503144554154,145.6091410027493 180.24705148107023,145.39493867316833 180.14335323018167,145.4218825604412 179.93595672839,145.59162773992557 179.72971242939093,145.50001951129434 179.62831858408026,145.46903422605646 179.38750820144924,145.43535448270995 179.13287138536543,145.46095109577436 178.95773656164238,145.52022726541236 178.6777512842309,145.60644665619293 178.6028581030332,145.628001412716 178.38739618173713,145.7155672360932 178.10280209317716,145.81660397675478 177.90347101091174,145.89204422063995 177.76751108195458,145.9849967640166 177.59698506938003,146.06447738646602 177.46102514043014,146.15877578698655 177.2190625550138,146.24903217383053 177.07388500376692,146.29618077840496 176.78813871242164,146.38104782700702 176.62913472772198,146.4268488564967 176.38486773672776,146.50632672284428 176.20973291299742,146.57233338758215 176.03459808927437,146.766310178632 175.7592216230114,146.88754417363725 175.62787050521,146.9346904157801 175.377842500282,147.041105578327 175.0955528172999,147.17041901026278 174.94115764374874,147.23776923640435 174.6968906527618,147.36169272257393 174.58627918514685,147.395367374741 174.37312166942138,147.5381469115473 174.13576789516082,147.70517000015025 173.97561170766858,147.81696648988327 173.80623789787205,147.89104796098036 173.4916865368359,148.010924338515 173.32461713262455,148.06614790841286 173.06191489702906,148.10520833778537 172.86027940917847,148.1213712390645 172.6263822432811,148.17120672233705 172.35907119653712,148.14157483684812 172.0929123525857,148.068841734972 171.9707788570886,148.01361817674206 171.73227288003545,147.83178281854816 171.52257197267318,147.78463989483134 171.33245851270476,147.9624351530474 171.09049592728843,148.09039232694067 170.86812078926596,148.16312530585492 170.59850533694407,148.27087710438082 170.3185200595326,148.36381229905237 170.115732368904,148.441931213928 169.9670982092939,148.5213965154917 169.75854950471694,148.61432988383967 169.56382723360002,148.6466543748984 169.31495143146458,148.68975356881492 169.09257629343483,148.7382399878079 169.00040007042116,148.75036156374244 168.730784618092,148.85137424833556 168.54643217207195,148.96046704875425 168.28142553089856,149.10592266392177 168.02678871482203,149.22309403600593 167.88737217750895,149.3025544687207 167.62812655028392,149.43453849985417 167.3804029509265,149.5948029867077 167.2455952247692,149.6917687569903 167.0612427787346,149.74159810211495 166.7870185152642,149.81162820397276 166.4655539374944,149.91397919949122 166.29157131655666,149.9597675367895 165.9885419833954,150.04057008388372 165.73736177568207,150.14426593585995 165.4596809038485,150.28432133249134 165.27532845781388,150.37724185264506 165.0759973755412,150.4728550144664 164.85592664308933,150.57116075741123 164.6600521691871,150.64657286853526 164.4676343036408,150.72602443181768 164.30863031894114,150.7987423779732 164.28673846597667,150.8122086187941 164.09432060043764,150.8862726892039 163.85466242059192,151.00881411577575 163.62422186305776,151.12192823383066 163.37649826370034,151.2525468602862 163.12416585319443,151.40336257962372 162.95594424619776,151.46934389613307 162.73011249979754,151.5824539304176 162.50543295620446,151.7036421399289 162.32453711854032,151.79251276187188 162.1517067003806,151.79251276187188 162.03994302998035,151.55148342550183 161.91435292612005,151.31583581678933 161.81872009474318,151.163672476373 161.68621677416377,150.96706936641385 161.5468002368507,150.75834357018266 161.4269711469242,150.5873205330463 161.30944646258286,150.5509610090694 161.10435436637636,150.6977451185694 160.879674822776,150.8081687480444 160.71490982413525,150.8862726892039 160.4141848965519,150.93744397753017 160.24365888397006,150.89973883761195 160.02934916545928,150.7987423779732 159.73553745459503,150.63445309503732 159.39333322665334,150.5576942620728 159.1029781241523,150.51594803616172 158.8252972523187,150.50517479438804 158.5637472195158,150.46342839656154 158.3575029205167,150.42168186208983 158.1570196354587,150.39340187399466 157.95768855318602,150.37589518327331 157.6846164925082,150.34896176600614 157.40578341788205,150.319334941315 157.13040695162636,150.30048147158504 156.87116132440133,150.27354789504898 156.6257421306218,150.24257421171296 156.38723615356867,150.23180073900403 156.14873017651553,150.28297465330616 155.9632255276956,150.37724185264506 155.87220150747453,150.26008108545193 155.7535246203406,150.07019755620513 155.6221735025465,149.86145708072672 155.5000400070494,149.6621404054149 155.40095056730206,149.51803789561654 155.29264350525773,149.3402643313102 155.19124965994706,149.171915868008 155.0368544863959,148.93487746332175 154.87785050169623,148.68975356881492 154.73267295044934,148.46348117517118 154.6347357134946,148.33148709079978 154.40083854758996,148.41768746399157 154.28216166045604,148.4863779690695 154.04480788619549,148.6062487482668 153.86391204852407,148.67897878399435 153.68186400807463,148.76248312815278 153.438749219873,148.8379059366307 153.1818079982113,148.9698947778079 152.97095488806372,149.08302698269563 152.89836611243663,149.12612470144813 152.69327401623013,149.20693253146783 152.48357310887513,149.2890866336238 152.27963321545394,149.36046599753627 152.0607146857874,149.44396587837127 151.74501112195867,149.8183618473431 151.60213797628967,149.88031119953212 151.48000448079256,149.90589888761042 150.67115812383418,149.8372160298668 150.4603050136866,149.8776177556938 150.1976027780911,149.9207127888194 149.9187697034722,149.9597675367895 149.67335050969268,149.98535506543158 149.43714893821743,150.00690241814937 149.1986429611643,150.01767608085356 148.97281121477135,150.02710302825835 148.69743474851566,150.0284497344628 148.37942677911633,150.03652996869096 148.3298820592463,150.04191678866664 148.04874457904953,150.03787667389952 147.7203667845606,150.04730360636768 147.43116388485214,150.04865031043664 147.10509049593384,150.05134371814893 146.7963001488315,150.0351832633396 146.48405319336598,150.03248985221308 146.22019875499245,150.02979644052266 145.92523484133562,150.0284497344628 145.64985837507993,150.03248985221308 145.36756869209057,150.02979644052266 145.09795323977596,150.0311431464379 144.84101201812155,150.0284497344628 144.55757013234688,150.03248985221308 144.29717230232927,150.025756321912 144.00336059146503,150.0284497344628 143.84781321512855,150.02440961542197 143.56898014050967,150.0284497344628 143.25788538782945,150.02979644052266 142.97559570484736,150.02979644052266 142.70137144137698,150.03652996869096 142.46516986990173,150.04057008388372 142.19901102594304,150.03248985221308 142.0227239994274,150.02710302825835 141.72891228857043,150.0311431464379 141.4327961721283,150.03248985221308 141.17931155883707,150.03383655785 141.0076333434772,150.04057008388372 140.7022996047308,150.0311431464379 140.40733569108124,150.0459569021532 140.15385107779002,150.0459569021532 139.90958408680308,150.04326349330404 139.59503272576694,150.04461019779865 139.3069820288365,150.04999701436282 139.04427979324828,150.04326349330404 138.78849077437917,150.04461019779865 138.53615836387326,150.0459569021532 138.28152154779673,150.04999701436282 138.05338539583317,150.05134371814893 137.7745523212143,150.04999701436282 137.46576197411196,150.04999701436282 137.2526044583865,150.06077064066176 136.9783801949161,150.05269042179134 136.65000240042718,150.05269042179134 136.4310838707679,150.02440961542197 136.21677415224985,150.06615745039835 135.9137448190886,150.06211734330736 135.72708796748339,150.06346404581564 135.4563203123762,150.06346404581564 135.14637776248856,150.06750415247552 134.87445790459606,150.05807723493945 134.60023364112567,150.05942393787063 134.34444462225656,150.07019755620513 134.05869833091128,150.07289095936812 133.7948438925232,150.07289095936812 133.53675046808348,150.0742376607359 133.35124581927084,150.08905136638896 133.07586935300787,150.08231786595115 132.7981884811743,150.07558436195995 132.5884875738193,150.07962446477995 132.3280897437944,150.07962446477995 132.04580006081233,150.0863579666393 131.7842500280094,150.08501126655392 131.75890156667447,150.05673053186638 131.7266398886277,149.86819069778448 131.50772135896113,149.873577588869 131.22888828434225,149.86415052797383 131.04799244667083,149.84125620821214 130.83713933653053,149.85203001086938 130.53411000336928,149.83990948224164 130.25988573989162,149.8291356693435 129.98796588199912,149.81297493293187 129.70682840180234,149.79816090656368 129.44066955784365,149.78873378991193 129.15377106371307,149.79681417603933 128.8703291779384,149.8062412867166 128.60301813120168,149.81432166174636 128.3472291123253,149.82374875948062 128.0753092544328,149.82778894208877 127.82873785786069,149.83452257692988 127.58907967802224,149.84125620821214 127.42316247660347,149.8426029340444 127.23765782777627,149.85203001086938 126.94615052249719,149.86145708072672 126.68575269247958,149.86819069778448 126.65118660884764,149.99612874634204 126.63620797260228,150.31798826583235 126.62814255309058,150.5873205330463 126.60048968618503,150.8606869680507 126.56246699419717,151.04921213023772 126.48411720463628,151.26466604647703 126.35852710077597,151.53128522961833 126.22832818575989,151.81271054415538 126.10849909584067,152.0645068790127 126.00019203380361,152.3499598150047 125.96101713902317,152.6259813446013 125.98867000592145,152.93969612578348 126.05204115924425,153.2897550169664 126.10043367632898,153.56844888369142 126.149978396199,153.8350199309507 125.9541039222895,153.94541641102478 125.68333626718959,153.98041997360997 125.41948182880878,154.01811601057125 125.15793179599859,154.05446565505736 125.04040711164998,154.08677636324774 124.86527228792693,154.10023913418445 124.6198530941474,154.13658854478763 124.38480372545746,154.1850542645616 124.1635807902203,154.1917855999709 124.05066491702746,154.17832292559524 124.17625502088049,154.1931318666284 124.43780505369068,154.1823617293967 124.69705068092298,154.12985718026448 124.92403463010123,154.10158541049532 125.16599721551029,154.06792846007738 125.34343644481851,154.04369540081552 125.6142040999257,154.00196057978974 125.88036294388439,153.96561078576633 125.97484357246867,153.94003123902712 125.91838563587226,153.73270038942155 125.85616668534203,153.49305404202187 125.8181439933469,153.32206766126274 125.78242570692237,153.1860847308135 125.70983693130256,152.90738251322364 125.64416137240187,152.61924918322075 125.58655123302015,152.36342441840497 125.53009329642373,152.11836641238824 125.4886139960654,151.93658957594653 125.39874217862234,151.69152337078413 125.28006529148843,151.466650787851 125.14180095696793,151.2148426518288 125.15793179599859,150.95091007191877 125.20632431308331,150.7462239028937 125.26969546640612,150.53210788175602 125.33767543087743,150.27758793515932 125.40335098977812,150.05538382865052 125.47017875145684,149.8250954871619 125.48630959048751,149.65001969629247 125.28121749428101,149.55978738844897 125.04155931444257,149.49783647904314 124.77655267327646,149.43184496185677 124.50924162653246,149.3658531031242 124.25345260766335,149.30120768584857 123.99996799437213,149.23656194081195 123.80178911488474,149.18538382686984 123.56097873226099,149.1220842965049 123.2913632799391,149.03858230763763 123.03211765271408,148.9766288657247 122.84546080110158,148.93083699777162 122.54819248188142,148.8540679089656 122.28894685464911,148.78807305961527 122.01702699675661,148.71803733563775 121.73934612492303,148.64800122691304 121.52388420361967,148.59951446471132 121.28537822656654,148.51600905307077 121.08028613036004,148.35438412177882 120.91091232057079,148.1873695399354 120.7035158187864,147.98802669058477 120.51340235881798,147.8021501439962 120.33711533230235,147.63647528513775 120.10437036918302,147.50581960932686 119.81862407783774,147.45867547994385 119.5755092896361,147.50312566377306 119.43378834674513,147.57047413176952 119.19989118084777,147.7563540569099 118.96945062330633,147.9489659021283 118.75398870201025,148.08231085922307 118.51433052217908,148.17390052669361 118.26660692282167,148.22104201077127 118.03962297364342,148.2345109742073 117.88292339452164,148.24124545058112 117.649026228617,148.2560612860907 117.39669381811837,148.27626467039863 117.14551361039776,148.29512113352666 116.90124661941081,148.3112837940098 116.63854438380804,148.33014020534029 116.38045095936832,148.34899658877566 116.1719022548059,148.35707788742639 115.91611323592952,148.3867092719738 115.6534110003413,148.40287181633084 115.42297044280713,148.43250309443283 115.17755124902033,148.44597183443693 114.91484901342483,148.46752178884617 114.659059994563,148.53890575262903 114.43322824817733,148.67089768940605 114.24657139657211,148.85002741780409 114.13480772616458,149.00760562431242 114.04378370593622,149.23656194081195 114.00460881115578,149.4466594138148 114.00921762230428,149.7469850466814 114.03226167805406,150.0311431464379 114.0541535310258,150.33145501428407 114.07374097841239,150.60617357874344 114.09678503416217,150.87549976023274 114.11982908991922,151.1582861301731 114.14287314567628,151.46126456959064 114.15209076798055,151.78039407715733 114.15209076798055,152.00795412425032 114.14287314567628,152.33245580934363 114.11867688713392,152.64483137758725 114.09678503416217,152.93834972689365 114.0795019923462,153.20897304825485 114.05991454495961,153.48901502008175 114.03687048920983,153.7650119122145 114.01613083903067,154.05581193619582 114.0622189505375,154.34391283360856 114.18896125718311,154.5929667800183" stroke="red" stroke-dasharray="none" stroke-linecap="round" stroke-linejoin="round" stroke-width="0.5"><title>2024-04-21 79.4km</title><desc>1713660889000</desc></polyline><polyline fill="none" opacity="1" points="19.174997208050627,194.38124246418192 19.468077247984183,194.46569404739057 20.060429159682826,194.25577096367488 20.50211316352943,194.47293273998366 20.625949800123635,195.1171671888933 20.716763333621202,195.81205138395853 20.737402773054782,196.38628000289282 20.90251828851615,196.44418460832276 21.618706836808997,196.31389903961644 22.05419900882407,196.5672314073363 22.124373102895333,197.18245545709942 21.856060390280618,197.3730509175639 21.85399644633435,197.42612785123492 22.126437046841602,197.17763023492444 22.006728298139933,196.48278759704408 21.63109050046478,196.26081952071945 22.0975418316375,196.1377710705383 22.61146387350891,195.93992707417783 23.298757206597656,195.6503961845974 24.078928017122962,195.370512834701 24.681599648552947,195.22091860279215 25.36682903768815,195.02065382244837 25.653717245804728,195.3994664437978 25.816768817319826,196.050912941766 25.979820388827648,196.75541934685862 26.19034267103416,197.37787609845327 26.42769622450578,198.0678664688512 26.69394499318878,198.83985895752994 26.939554322423646,199.5563411403091 27.19135548349732,200.28486226996938 27.379174382331257,200.84932955511977 27.678446254089067,201.70565286946476 27.884840648417594,202.28214541927446 28.103618706401903,203.00816764524643 28.322396764386212,203.61839439931282 28.52466327080765,204.17071998230313 28.726929777250916,204.80021015783677 28.972539106485783,205.5092702833481 29.20370082813315,206.17248688805375 29.438990437658504,206.87426968924592 29.637129056201957,207.41687049062057 29.880674441512383,208.1427296504462 30.103580387374677,208.79140156253015 30.42142775463435,208.85168612172674 31.08395376039698,208.62260395131307 31.476103109613177,208.99395705135794 31.837293299671728,209.63778222689143 32.11592573201051,210.0476989251565 32.33263984604855,210.94707864417796 32.51633085699723,211.42930521664493 32.79909117722127,212.13574879093358 33.1231303763052,212.94101963821777 33.38525125709566,213.58232285363192 33.606093259011686,214.14164030704524 33.83725498065178,214.69853332682578 34.04777726287284,215.26987701618236 34.24385193746275,215.94004257553206 34.44405449995975,216.58608288399228 34.68347199737036,217.30924070483707 34.91050583113247,218.0950463039062 35.10451656179066,218.93385196617965 35.18913826347125,219.42555134344184 35.213905590782815,220.04498111772955 35.25105658175744,220.541476932347 35.33774222737702,221.29102061022058 35.459514920032234,222.09114949195646 35.5730318368951,222.7611154284823 35.678292977994715,223.43588145751528 35.750531016012246,224.07930055191537 35.804193558542465,224.65522965821583 35.84547243740235,225.23837324986016 35.92390230725141,226.1395659744103 35.97756484978163,226.75881422809834 36.02090767257323,227.28166840218546 36.07457021510345,227.90088579777148 36.12204092579486,228.3827554650652 36.12823275762639,228.92725599862024 36.16125586070848,229.65966109651708 36.18395924410288,230.34626962616494 36.186023188034596,231.360485309071 36.194278963812394,232.0277713981959 36.17983135620307,232.71430902225075 36.241749674511084,233.28761241398206 36.27683672153944,234.09214006699221 36.25619728209858,234.6726350092231 36.21079051535344,235.31092162004825 36.64421874342952,235.4072652262421 37.393430394819006,235.46747977465202 38.13232232648443,235.52528559244274 38.72054635029781,235.57104842822446 39.49658927296696,235.6408967910611 40.24167303645663,235.69870217189782 40.81132156478998,235.7492817606617 41.523382225197565,235.81672103888377 42.19003611885273,235.86248329335103 42.92480016263289,235.9202881158908 43.50476841068303,235.96364163722137 44.12188764970051,236.00699507662466 44.716303505359974,236.05757398573223 45.294207809456566,236.1081527833394 45.84940873017331,236.14187191979363 46.30760428557551,236.37549600413513 46.30760428557551,237.11488851066315 46.28490090219566,237.96022339074443 46.30554034162924,238.55507001090882 46.26426146276208,239.29198411875404 46.25600568699156,240.06499604032615 46.23123835967999,241.1847334996346 46.212662864185404,242.01306327054226 46.09295411547646,242.8847036091429 45.81019379525969,243.45534524604045 45.48202670828323,243.98744977674505 45.48202670828323,244.1174643941231 45.72557209358638,243.6961180541457 46.18789553686656,243.85021132652764 46.71832913027174,244.24747827545434 47.27353005099576,244.71696671923382 47.86175407481642,244.8879062821179 48.278670751351456,245.27070998438649 48.916429429795244,245.47294332700403 49.72549545554648,245.81240243504544 50.35293441427348,246.09648492496854 51.10421000960923,246.40704566120257 51.60162049992505,246.69834300092043 52.24969889810018,246.97759979264447 52.85649841740815,247.15333724027187 53.38074017897452,247.3531466777531 53.84306362226198,247.5673982402841 54.31777072920522,247.79368423796768 55.03808716538333,248.07292771624634 55.67378189988813,248.11144379174038 56.338371849611576,248.16199604284157 56.93691559314175,248.28235809782382 57.624208926230494,248.45567834933536 58.224816613706935,248.7300994072284 58.868767123996804,248.98285274538466 59.57669989651913,249.28374595173227 60.22271435074799,249.51001504756823 60.93890289904084,249.83015794095263 61.584917353262426,250.15751749090668 62.08645573147078,250.42469719709334 62.5446512868657,250.64854807314987 63.09985220758972,250.9349777349198 63.68601228746411,251.2478800085646 64.22263771270082,251.5270815181393 64.79847807285842,251.81109336736336 65.40527759216639,252.1263905474134 66.03065260694711,252.43446300427604 66.64570790204016,252.75456516800296 67.14931022417295,253.01208773369217 67.82009200572065,253.3490287905497 68.43308335686015,253.65949153607653 69.00892371701775,253.98920319506578 69.49188659973152,254.21783259141557 70.05327935228706,254.51143753464203 70.59816055329429,254.79541251979208 71.05222822080395,255.02162737133767 71.57027815054607,255.2815310494134 72.14818245465722,255.62325178580795 72.50318081288424,255.87111646663107 72.97788791982748,256.33796113575045 73.40512431607203,256.756669427612 73.97270890044456,257.3269667364293 74.5217179893516,257.8924374491471 75.06453524641984,258.4458634107723 75.58464912010095,258.9583721017789 76.02014129211602,259.41552984474583 76.38545937006711,259.7812494991267 76.60423742805142,260.00019729989253 77.02115410459373,260.41402701330844 77.16769412454596,260.6377806770506 77.38234429465228,260.8037900539057 77.78894125147053,261.23204059799536 78.27809596600127,261.67471817710793 78.78376223210216,262.19437229672076 79.32657948916312,262.77175200265265 79.79922265215282,263.2312396692141 80.08611086026212,263.7340193292821 80.25741820754774,263.81099897771674 80.3647432926009,264.0106637411118 80.5504982474813,264.22476017785084 80.68671854773856,264.4412601678014 80.79197968884546,264.6361084180262 80.7878518009602,264.7876559170036 80.62273628549883,264.9800957479292 80.53605063988653,265.2639415625981 80.41427794723859,265.5694327246092 80.39570245175128,265.84605508322966 80.38538273203449,265.83162269451896 80.32140046978748,265.58145985278134 80.31314469402423,265.33851064537885 80.51953908834548,264.84779353695376 80.77546813729714,264.4893710001925 80.69910221139435,264.30654930222954 80.54224247171805,264.147781912985 80.35442357287684,263.91443997493843 80.6165444536673,263.6835012951069 80.34616779710632,263.55359726957613 79.88797224171867,263.1638807944619 79.5309099395381,262.7549119662872 79.09748171145475,262.34593587152085 78.60007122114621,261.85034333570184 78.11504439448618,261.3427107910611 77.70844743766793,260.9457391509586 77.25644371411181,260.4813939366868 76.83539914969879,260.06515943340855 76.40609880950797,259.58636014363947 75.99743790874345,259.2134191207242 75.64450349445542,258.8597210814369 75.18011610723624,258.37608434912363 74.73430421550438,257.9405619743411 74.28849232376524,257.48337492001156 73.86331987146696,257.0550545933729 73.56404799970187,256.756669427612 73.12855582767952,256.31630360298186 72.71163915115176,255.8855551035631 72.41649516727193,255.56309005261392 71.84684663894586,255.286344052789 71.1925764089392,254.939805235108 70.5279864592303,254.59085462101575 69.89848355654249,254.28040445103943 69.29993981301232,253.98198328236322 68.72616339679371,253.69318491520426 68.05950950313854,253.35384219843945 67.46715759143262,253.04818879740378 66.94910766168323,252.7906666361123 66.25355855282396,252.43686980409439 65.66946241688856,252.12879737948242 65.05853500969533,251.808686502025 64.45379943434091,251.48857116672298 63.86351146657398,251.18289296374314 63.28354321853112,250.90850119322022 62.75517356906494,250.62929216951306 62.09264756329503,250.29231124440958 61.53331875468575,250.02272294682007 60.91826345960726,249.70498982188656 60.39195775408734,249.42095194594185 59.89041937588627,249.17542485132253 59.32489873543818,248.8745302266052 58.79240119809401,248.60251809498004 58.24751999707951,248.34494611723312 57.82234754477395,248.14514530483393 57.64691230961034,248.37142561258588 57.126798435921955,248.30402320075882 56.57985329096846,248.1740322767182 55.970989827721496,248.10181477892002 55.30020804616652,248.06811320226916 54.658321479822916,247.93089912984397 54.29713128977164,247.7527603396411 53.83893573437672,247.53610319283325 53.26928720604337,247.26648255682812 52.697574733771035,247.08833861493076 52.148565644878545,246.92223018133336 51.81007883818529,246.7994536106471 51.21153509465512,246.45278681025593 50.60679951929342,246.1614863567229 50.06604620617145,245.95685159777167 49.5500602203756,245.70406496688156 48.98041169204225,245.47775838488815 48.42314682736469,245.2923779276989 48.024805646331515,245.1382943311546 47.8741377384722,244.8517923959589 47.360215696608066,244.77234164652873 46.887572533625644,244.40397548976762 46.501615016240976,244.07171859415575 46.055803124501836,243.75631086173235 45.73795575724216,243.57573196565136 45.413916558158235,244.0524571774422 44.91444212390343,243.73704918046678 44.4583105124475,243.42645233943404 43.98153946156526,243.08214240439156 43.537791513779666,242.75227419769544 43.052764687119634,242.400730600697 42.60282490748796,242.03714217735615 42.15907695970964,241.702443108632 41.69675351642945,241.4520175927246 41.263325288346095,241.22807707747234 40.7906821253564,241.04266230965004 40.37582939276763,240.8981822317037 39.913505949487444,240.74647717121843 39.46975800169457,240.6164434642924 39.04458554938901,240.50085732866137 38.62973281680752,240.41175928522716 38.13232232648443,240.3804544851664 37.49662759197963,240.34674157581867 36.937298783363076,240.3202528265956 36.35113870349596,240.2961721189622 36.04154711201409,240.06499604032615 36.037419224128826,239.64598346349703 36.04567499989935,239.27753504993416 36.04980288778461,238.8199764991623 36.06218655144039,238.22513674528636 36.08282599088125,237.72179875695474 36.10346543030755,237.23049169990009 36.14887219705997,236.6958220673314 36.19634290774411,236.23821203661464 36.23142995478702,235.73964756187343 36.2809646094247,235.28683565527717 36.31192376857507,234.75212072508475 36.3470108156107,234.27279359444947 36.32637137617712,233.76696013209403 36.29747616096574,233.26593313467492 36.29954010491929,232.75766860324256 36.28302855337097,232.3433403672043 36.2809646094247,231.86396289300137 36.27890066548571,231.23521644161337 36.2727088336469,230.5968163900361 36.26238911393739,230.1174024010088 36.270644889715186,229.70302645410993 36.23555784267228,229.08144849010023 36.21904629112396,228.59236560868703 36.18395924410288,228.18519012671095 36.12823275762639,227.45032849453128 36.08695387875923,226.92747816820338 36.03329133623629,226.37329198941734 35.98375668159861,225.74198531781258 35.94660569062398,225.19258978572543 35.882623428391526,224.64077136408923 35.82896088586131,224.00941695575057 35.76497862362157,223.44552082823066 35.70306030532811,222.9780066768526 35.653525650690426,222.57796121943284 35.54826450958353,222.03330978716076 35.47189858368802,221.570586890517 35.38934082596097,221.01627111331072 35.33567828343803,220.46676223082977 35.29852729245613,219.9389320728078 35.25931235753524,219.4062692138432 35.17056276797666,218.8085151419691 35.04879007532145,218.26618443729785 34.91463371901045,217.76722884231458 34.755710035380616,217.24897842566133 34.600914239643316,216.7668744810253 34.43992661207449,216.2630650090905 34.2954505360467,215.7712977004212 34.14684657214093,215.26987701618236 33.93219640204188,214.7057656145589 33.742313559276226,214.25494864303437 33.564814380144526,213.76795990352912 33.38731520103465,213.32194627195167 33.17472897488187,212.82529383523797 32.95388697296585,212.28523234809472 32.75368441046885,211.7861463357749 32.55967367980338,211.2677604472119 32.20673926551535,211.2557048216604 31.6763056721029,211.455827383199 31.18095912574063,211.6246040862734 30.848664150871627,211.37143856470175 30.724827514284698,210.7662410585399 30.61131059741456,210.23095342567285 30.489537904759345,209.68600810212956 30.322358445358987,209.17721999534479 30.16962659356068,208.76728769435067 30.00244713416032,208.24642193520776 29.833203730813693,207.761716751962 29.657768495642813,207.22635878724213 29.465821708923613,206.68616507223305 29.284194641921204,206.1556052494925 29.086056023370475,205.5550931402704 28.912684732138587,205.0751544499817 28.714546113587858,204.47461395571008 28.539110878416977,203.95365038456475 28.365739587192365,203.46161833010956 28.18411252018268,202.95751568030755 28.02725278049911,202.47993449113164 27.876584872647072,202.05299740265218 27.65780681467004,201.39930990604444 27.478243691599346,200.87586399882093 27.29248873671895,200.3355201600898 27.129437165196578,199.855471832685 26.974641369459277,199.40918670094106 26.82603740554623,198.9725425388042 26.61345117939345,198.3477167610181 26.43801594422257,197.82178837865467 26.237813381725573,197.23794543885015 26.031418987411598,196.59618349897755 25.913774182641646,196.08710386890925 25.779617826337926,195.5514722891512 25.637205694249133,194.99169973294738 25.503049337945413,194.82521300575172 24.892121930752182,195.02065382244837 24.30802579482406,195.1726621898597 23.752824874100043,195.36086162351603 23.27398987927154,195.53699558557855 22.66306247207831,195.75655793706392 22.190419309081335,195.9857691283578 22.07277450431866,195.97370543881334 22.037687457283027,196.0171346913503 21.556788518515532,196.18120001102398 20.88807068090682,196.29459741065511 20.789001371638733,195.77103450143113 20.73533882911579,195.39222804496603 20.64039740771841,194.83245158435602 20.514496827192488,194.23646759469193 20.25443989034102,194.1109952984607 19.660024034696107,194.36917792679378 19.241043414229352,194.34263592209754" stroke="red" stroke-dasharray="none" stroke-linecap="round" stroke-linejoin="round" stroke-width="0.5"><title>2024-04-05 108.1km</title><desc>1712276378000</desc></polyline></svg>