<?xml version="1.0" encoding="utf-8" ?>
<svg baseProfile="full" height="300mm" version="1.1" viewBox="0,0,200,300" width="200mm" xmlns="http://www.w3.org/2000/svg" xmlns:ev="http://www.w3.org/2001/xml-events" xmlns:xlink="http://www.w3.org/1999/xlink"><defs /><rect fill="#222222" height="300" width="200" x="0" y="0" /><text fill="#FFFFFF" style="font-size:12px; font-family:Arial; font-weight:bold;" x="10" y="20">Over 10km Runs</text><text fill="#FFFFFF" style="font-size:4px; font-family:Arial" x="10" y="280">Runner</text><text fill="#FFFFFF" style="font-size:9px; font-family:Arial" x="10" y="290">yihong0618</text><text fill="#FFFFFF" style="font-size:4px; font-family:Arial" x="65" y="280">SPECIAL TRACKS</text><rect fill="yellow" height="2.6" width="2.6" x="65" y="283" /><text fill="#FFFFFF" style="font-size:3px; font-family:Arial" x="70" y="285.5">Over 20.0 km</text><rect fill="red" height="2.6" width="2.6" x="65" y="287" /><text fill="#FFFFFF" style="font-size:3px; font-family:Arial" x="70" y="289.5">Over 40.0 km</text><text fill="#FFFFFF" style="font-size:4px; font-family:Arial" x="120" y="280">STATISTICS</text><text fill="#FFFFFF" style="font-size:3px; font-family:Arial" x="120" y="285">Number: 5</text><text fill="#FFFFFF" style="font-size:3px; font-family:Arial" x="120" y="290">Weekly: 1.2</text><text fill="#FFFFFF" style="font-size:3px; font-family:Arial" x="141" y="285">Total: 317.5 km</text><text fill="#FFFFFF" style="font-size:3px; font-family:Arial" x="141" y="290">Avg: 63.5 km</text><text fill="#FFFFFF" style="font-size:3px; font-family:Arial" x="167" y="285">Min: 18.7 km</text><text fill="#FFFFFF" style="font-size:3px; font-family:Arial" x="167" y="290">Max: 108.1 km</text><polyline fill="none" opacity="1" points="74.32731463696109,37.14502765337238 74.46561659616418,37.67858893833181 74.59008835954592,38.06663234034204 74.65923933917657,38.61635880821268 74.78371110250009,39.18225163812167 74.89435266994406,39.74814237470855 75.00499423744623,40.34636744878662 75.08797541295644,40.91225387925806 75.18478678446263,41.4458020250604 75.28159815591061,41.97934831009479 75.36457933147904,42.52906071812322 75.46139070298523,43.111106997326715 75.55820207454963,43.74165463419922 75.66884364193538,44.42070302918728 75.79331540531712,45.16441924175888 75.90395697270287,45.843461321957875 75.98693814827129,46.58717061851348 75.91778716864064,46.84585126557795 76.12524010753259,47.39554618840339 76.1667306952877,48.2685870067362 76.24971187085612,49.173957408434944 76.31886285054497,49.93381771777058 76.3050326546072,50.25716138565622 76.20822128310101,50.38649866155174 76.22205147903878,50.871512472309405 76.41567422205117,51.53436219401192 76.54014598537469,52.34271162706136 76.76142912020441,53.1348899283912 76.95505186315859,54.00789800002531 77.14867460622918,54.880901090975385 77.21782558580162,55.543733444807 77.46676911250688,55.899398402296356 77.78486361884279,56.529893340717535 78.0614675374236,57.19271855193074 78.28275067225331,57.75854268025432 78.39339223969728,58.34053102960752 77.93699577404186,58.61535809186171 77.34229734918335,58.760854572057724 76.69227814057376,59.00334839835705 75.98693814827129,59.2458418403985 75.35074913559947,59.50450108831865 74.79754129849607,59.66616289631929 74.76988090667874,59.876322991374764 74.70072992698988,60.345140624951455 74.97733384557068,61.07261341989215 75.25393776409328,61.816248702816665 75.44756050710566,62.576046238071285 75.73799462156603,63.3358400012512 76.33269304648275,63.83697850396857 76.80291970801773,64.33811536581197 77.1348444102332,65.08173478192475 77.46676911250688,65.80918506256421 77.79869381478056,66.5043009891524 78.11678832117468,67.19941375874623 78.43488282751059,67.87835806749354 78.76680752972607,68.57346459681867 79.07107184018241,69.28473312649294 79.4029965424561,69.96366818519891 79.7210910487338,70.64260023234237 80.02535535919014,71.32152926806884 80.3711102574016,72.00045529242198 80.6892047636793,72.69554310235253 81.02112946595298,73.42295719787944 81.32539377640933,74.1180385483749 81.62965808674926,74.78078759425262 82.04456396459136,75.2333950498869 82.36265847098548,75.81531695500598 82.55628121393966,76.26792135182768 82.65309258550406,76.70436003855139 82.09988474834245,76.9629897842533 81.5190165193053,77.20545477396809 80.84133691893658,77.51257654305664 80.08067614288302,77.91668319517339 79.33384556282545,78.27229616664408 78.4763734153239,78.6602366479201 77.72954283520812,79.11283263353107 77.31463695730781,79.30680193207809 76.70610833651153,79.61391948543314 75.93161736457841,79.95336448546732 75.24010756821372,80.29280873284733 74.645409143297,80.58376034590765 73.84325777943013,80.9716949697613 73.05493661155924,81.34346472859033 72.37725701113231,81.66674204582523 71.68574721476762,81.97385486496205 71.43680368800415,82.103165341352 70.84210526308743,82.3617859664082 70.27506723010447,82.66889739126782 69.7080291970633,83.02449932410673 69.0580099884537,83.46091874914418 68.32500960427569,83.99431857923628 67.57817902415991,84.52771655094693 66.91432961967075,84.99645868902735 66.27814060694072,85.38438213174231 65.65578179026488,85.78846800612519 65.06108336534817,86.09557255735854 65.00576258159708,86.12789931643056 64.8121398386429,86.1763894421747 64.24510180560173,86.51581989244733 63.553592009237036,86.80675967947172 62.86208221287234,87.04920907971973 62.198232808266766,87.27549484018527 61.409911640395876,87.56643318373244 60.690741452155635,87.84120777828502 60.068382635421585,88.03516601871524 59.25240107567515,88.32610291872697 58.42258931999095,88.61703926594055 57.57894736842718,88.90797506023955 56.818286592373624,89.18274724733783 56.05762581637828,89.4575189413008 55.20015366881853,89.73229014223034 54.41183250094764,90.02322381753766 53.747983096400276,90.201016346924 53.16711486742133,90.39497159811435 52.793699577392545,90.50811204787169 52.29581252404023,90.75055558721942 51.64579331537243,90.94451014233346 50.94045332306996,91.20311583364673 50.17979254707461,91.5263723335811 49.37764118326595,91.75265147749451 48.56165962351952,92.04358131400659 47.718017671839334,92.35067331956816 46.94352670002263,92.67392739689967 46.182865923969075,92.96485548306373 45.39454475603998,93.22345776227303 44.63388397998642,93.498222205395 43.804072224360425,93.77298615558539 42.98809066461399,94.03158706997056 42.614675374526996,94.12856230030593 42.18593930080533,94.29018754772551 41.42527852480998,94.54878758871928 40.63695735682268,94.88819947979937 39.87629658088554,95.1629609358788 39.11563580483198,95.43772189891024 38.52093737991527,95.58318338567915 37.67729542829329,95.84178124311438 36.79216288897442,96.19735258410219 36.08682289667195,96.6175721953914 35.57510564732365,97.02162842648977 35.118709181726445,97.50649449655612 34.93891663465183,97.73276480386266 34.45485977717908,98.16914230953262 33.81867076444905,98.62168063163699 33.00268920476083,98.91259741829708 32.269688820582815,99.05805560432782 31.53668843646301,99.18735165377439 31.21859393006889,99.20351365224633 30.471763349953108,99.38129552319879 29.572800614638254,99.52675326408644 28.646177487506066,99.72069670369092 27.74721475224942,99.88231604911562 26.8759124087519,100.02777331414109 26.032270457188133,100.15706854482414 25.174798309628386,100.28636366639694 24.289665770251304,100.4318205476884 23.418363426811993,100.59343914259807 22.713023434509523,100.72273389571637 21.89704187476309,100.83586671519151 21.02573953132378,100.98132307453488 20.195927775639575,101.11061750017689 19.36611601995537,101.20758824776567 18.536304264329374,101.35304425410868 17.70649250864517,101.53082362969872 16.8628505570814,101.67627932903997 16.088359585090075,101.8055731679924 15.25854782940587,101.95102860633051 14.497887053410523,102.04799882184307 14.16596235113684,102.12880728782329 14.0968113715644,102.12880728782329 14.5532078371034,102.38739409251139 14.829811755684204,102.95305120557896 15.064925086509902,103.42173694522353 15.28620822133962,103.74496765412914 15.562812139920425,104.26213536941214 15.618132923555095,104.65001000987832 15.701114099123515,104.92475395255315 15.90856703807367,105.34494961741439 15.81175566650927,105.15101329996833 15.631963119492866,104.71465568779968 15.521321552048903,104.3591041215841 15.327698809094727,104.00355173001299 15.230887437588535,103.7934522016003 15.092585478327237,103.47022159502376 14.81598155980464,103.03385919408174 14.594698424916714,102.61365718842717 14.774490971991327,102.45204072546039 15.562812139920425,102.29042409190151 16.240491740347352,102.20961571118096 16.973492124525364,102.06416051842098 17.734152900520712,101.95102860633051 18.49481367651606,101.78941144410055 19.29696504038293,101.67627932903997 20.07145601225784,101.5631471304223 20.818286592373624,101.46617660793709 21.59277756436495,101.30455893398903 22.325777948542964,101.17526467209973 23.0034575490281,101.06213210332498 23.736457933147904,100.9489994510659 24.538609297014773,100.81970488894149 25.36842105264077,100.67424837608996 26.156742220569868,100.54495358205168 26.917402996565215,100.41565867878671 27.664233576681,100.30252554889012 28.38340376492124,100.17323044101067 29.08874375722371,100.06009713205276 29.821744141401723,99.96312565785774 30.444102958135772,99.8661541222391 30.817518248106353,99.88231604911562 31.260084517882206,99.80150639776548 31.730311179417185,99.67221086686186 32.29734921245836,99.59140110459703 32.96119861694751,99.46210539633466 33.7080291970633,99.2196756490739 34.41336918936577,98.88027335815423 34.93891663465183,98.4762220310804 35.33999231655616,98.08833175414475 35.69957741070539,97.60346752630721 36.142143680364825,97.15092619525967 36.66769112559268,96.77919481581193 37.38686131389113,96.47211169124057 38.13369189394871,96.26200183013862 38.88052247406449,95.95491766842315 39.66884364193538,95.66399526305031 40.48482520162361,95.38923470597365 41.32846715330379,95.09831122584 42.17210910492577,94.80738719302462 43.00192086055176,94.51646260748385 43.74875144060934,94.25786251189129 44.550902804418,93.98309943181812 45.31156358047156,93.72449843546201 46.05839416058734,93.44973439838213 46.7222435650765,93.19113250124792 47.41375336155761,92.96485548306373 48.132923549739644,92.72241544967983 48.86592393391766,92.46381232430576 49.59892431809567,92.22137149752234 50.359585094149224,91.96276752599806 50.912792931252625,91.8011398219387 51.25854782940587,91.70416311766894 51.770265078754164,91.5263723335811 51.99154821358388,91.42939545524132 52.42028428736376,91.31625568623713 52.945831732591614,91.10613875057606 53.65117172495229,90.86369577421283 54.39800230500987,90.57276369587635 55.14483288512565,90.29799400325282 55.877833269303665,90.02322381753766 56.62466384941945,89.74845313867263 57.35766423359746,89.47368196678872 58.104494813713245,89.21507335458591 58.67153284669621,89.03727968031308 59.21091048786184,88.82715961727081 59.432193622749764,88.76250723216799 60.12370341911446,88.53622366934724 60.78755282360362,88.27761347377964 61.409911640395876,88.06749236823816 61.97694967343705,87.85737097435049 62.53015751054045,87.66341250867117 63.1525163272745,87.45329056023911 63.844026123697404,87.19467853555398 64.54936611599987,86.88757618890668 64.93661160196643,86.72594312744332 65.51747983094538,86.41883984056767 66.11217825586209,86.04708240601758 66.7483672684757,85.59450691954407 67.32923549751285,85.22274748336349 67.93776411830913,84.80249659904803 68.39416058390634,84.43073523980274 68.89204763737507,84.05897297777119 69.41759508254472,83.68720981314254 69.91548213601345,83.36393676223815 70.45485977712087,83.04066302871797 71.13253937760601,82.66889739126782 71.81021897803294,82.34562219012878 72.64003073371714,81.99001868047344 73.41452170570847,81.61825049176696 74.25816365733044,81.23031750628434 74.96350364963291,80.85854747267149 75.58586246636696,80.58376034590765 76.27737226273166,80.24431674358493 77.03803303878522,79.90487238869537 77.75720322702546,79.59775541900308 78.5178640030208,79.25830963048793 79.2646945831948,78.95119136368157 79.8593930080533,78.64407248081989 80.59239339223132,78.28846037297626 81.28390318859601,77.99750439758645 81.92009220132604,77.67421933193691 82.61160199769074,77.302440662359 83.44141375331674,76.91449674016621 84.21590472530806,76.62353815336246 84.68613138684304,76.41340105231211 85.10103726462694,76.17093480800395 85.75105647323653,75.8476458848454 85.95850941218669,75.37887573357148 85.21167883212911,75.52435627896921 84.6169804072124,75.79915248746693 84.02228198229568,76.09011264125002 83.37226277362788,76.42956545493507 82.76373415288981,76.63970253382286 82.43180945055792,75.96079708563047 82.09988474834245,75.21723052096786 81.64348828268703,74.4413311243552 81.32539377640933,73.68159248771553 80.95197848632233,72.90568530723976 80.57856319629354,72.1459390486998 80.24663849401986,71.51550843943551 79.90088359586662,70.8527452556882 79.61044948134804,70.12531894572021 79.2646945831948,69.36555888663861 78.91893968498334,68.57346459681867 78.57318478671368,67.86219276180782 78.24126008455642,67.21557913442666 77.9231655781623,66.55279733131465 77.63273146364372,65.87384714242944 77.45293891656911,65.40504644460452 77.32846715324558,65.1787283524609 77.14867460622918,64.87158183495922 76.83058009983506,64.32194968615659 76.51248559349915,63.691486849682406 75.84863618901,63.481331993680215 75.58586246636696,62.64070968389569 75.33691893960349,61.897078407142544 75.11563580483198,61.15344351697422 74.81137149437563,60.52296762750484 74.7422205148032,59.90865528807626 75.41990011523012,59.58533201368118 76.24971187085612,59.375171519015566 76.98271225509234,59.10034582129447 77.77103342296323,58.82551962998696 78.46254321932793,58.61535809186171 78.7529773337883,58.11420249007642 78.43488282751059,57.30588354500651 78.31041106412886,56.86938953930803 78.00614675373072,56.044897464773385 77.6880522473366,55.2527342284302 77.41144832887221,54.44440016809676 77.20399538992206,53.57139458680467 77.06569343060255,52.827719237160636 77.01037264696788,52.01937236629601 76.94122166727902,51.22718828973302 76.96888205915457,51.065517566137714 76.91356127540348,50.59667150164023 76.56780637725024,49.94998491737351 76.48482520162361,49.109288271691184 76.41567422205117,48.10691315693839 76.36035343830008,47.330876299980446 76.36035343830008,46.91052135900827 76.3050326546072,46.2638191946462 76.22205147903878,45.60094663930067 76.13907030347036,44.938071211930946 76.01459854008863,44.242857312288834 75.90395697270287,43.644647474604426 75.80714560119668,42.96559563509072 75.66884364193538,42.27037277213822 75.50288129079854,41.28412096523971 75.35074913559947,40.330199234274914 75.21244717633817,39.39243987038208 75.07414521701867,38.50317999102117 74.90818286588183,37.64625194371911 74.645409143297,36.69230752787553 74.32731463696109,35.72218846157193 74.03688052244252,35.02693267943687 73.96772954281187,34.81673844883335 73.87091817130568,34.655050382585614 73.48367268528091,34.94608877875726 72.95812524011126,35.31797036813805 72.23895505187102,35.625176216548425 71.505954667693,35.98088748080772 70.80061467539053,36.28809199795069 70.02612370339921,36.579127287172014 69.196311947715,36.95100490649929 68.44948136765743,37.258207475359086 67.84095274674473,37.419892790174345 67.50902804458747,36.78931909610401" stroke="#4dd2ff" stroke-dasharray="none" stroke-linecap="round" stroke-linejoin="round" stroke-width="0.5"><title>2024-05-25 18.7km</title><desc>1716643451000</desc></polyline><polyline fill="none" opacity="1" points="180.33727010840812,104.98424858978979 180.43870831750246,104.84672061802485 180.49460284088855,104.87084839160707 180.47804150063166,104.90704000472397 180.56912887207727,104.84430783927382 180.49460284088855,104.88532504365685 180.5153045162224,104.84430783927382 180.5173746837463,104.76468599925465 180.68919858896697,104.77674993205437 180.65814607597713,104.94081879245095 180.53186585648655,105.14349048122313 180.56291836946912,105.19415812549596 180.5070238460903,105.35098584366824 180.60846205519192,105.46920911178859 180.6726372487101,105.47162182524153 180.62295322792488,105.54400311170866 180.58776037986536,105.6236222647949 180.5070238460903,105.70324114339746 180.44077848503366,105.83111331338478 180.47390116556198,106.0 180.44284865257214,105.83835133956927 180.53600619154167,105.67428885566733 180.48839233828767,105.59466987725136 180.4097259720511,105.54400311170866 180.47804150063166,105.38717670431106 180.5711990396012,105.18691989740182 180.45319949023542,105.22552375433406 180.28551592008444,105.28342941872143 179.9791311252411,105.17485617888269 179.7534828641801,105.09282272579003 179.6727463303905,104.85637173048599 179.86734207846894,104.53788288951182 180.0619378265401,104.26764648864082 180.31863860061276,103.98775545356511 180.43663814997853,103.86952460050998 180.45112932270422,103.76094471235956 180.22341089410475,103.60893201111139 179.94393827718886,103.31938123995133 179.6727463303905,102.9912193093387 179.5609572836256,102.93813385285102 179.3601510329463,102.75474679121544 179.05790657317266,102.46277227921746 178.7577322809302,102.10805447399434 178.50310167441057,101.8088324953751 178.1760152042334,101.44927837435716 177.93380560290097,101.22002953440096 177.74749052495463,101.05352105477687 177.4804389132405,100.82668148302037 177.2258083067063,100.56605454198143 177.07675624435797,100.4043678308044 176.99187937551324,100.31990417306224 176.74138910404872,100.0665113451505 176.54886352350877,99.83000886231639 176.44121481180628,99.72864991344795 176.19279470787296,99.50662399365319 175.9671464468047,99.27252913435768 175.71665617535473,99.01429802981693 175.4599554012966,98.73675670484772 175.19083362203673,98.47610616004022 174.9382731830483,98.22269308531031 174.69399341417738,97.95479623713436 174.45592414791463,97.7206856337998 174.19508303878683,97.47450491126256 173.9818557829276,97.26211158888691 173.8121020452454,97.10281531391956 173.5574714387185,96.83731907805122 173.18898161788093,96.44630996714659 172.8556846451247,96.10839552029938 172.53273851000995,95.8211643484774 172.43751080349466,95.73668391137653 172.11249450086325,95.56530835997728 171.75435551769624,95.37462139071613 171.37551485921722,95.17669147675952 170.99667420073092,94.9666908085801 170.6509562227584,94.79289570618494 170.29488740713714,94.61909929418107 169.905695910973,94.4187490274926 169.53306575508032,94.2304664676085 169.21633012256643,94.05907972412751 168.8416297991571,93.89734740376116 168.48763115105976,93.7211303008553 168.13363250296243,93.52801412112603 167.77342335226422,93.35179419596716 167.45668771975033,93.1852289191429 167.2558814690783,93.08866878746812 166.95984751190554,92.93658576013513 166.59135769106797,92.74829109848906 166.22493803778343,92.55999489921487 165.84195704422746,92.3596267420453 165.4858882286062,92.16408505446452 165.10497740257415,91.97578408422305 164.73855774927506,91.79472400869963 164.3969801063795,91.62814748340679 164.03677095568128,91.42777122792359 163.6475794595317,91.22497902754549 163.2853001413023,91.05839838561951 162.99547668671585,90.90147349147082 162.66217971395236,90.72523349068979 162.29368989312206,90.53692076801235 162.01421727620618,90.39689236160666 161.95832275282737,90.3703351540862 161.65193795797677,90.22547711994594 161.25032545662543,90.0202600133016 160.85285329035105,89.8198697814114 160.4698722967878,89.60740594608433 160.10552281103446,89.4190840911524 159.70391030968312,89.2186886326399 159.31885914859595,89.0182914317902 158.95450966283533,88.84203703182902 158.5984408472068,88.65612339581276 158.2340913614389,88.47503724362286 157.89872422113694,88.3108512357503 157.7620931639758,88.40501688331096 157.67514612759987,88.60783389434982 157.6047604314881,88.77684670681992 157.53023440030665,88.90481272608486 157.47019954186544,89.0182914317902 157.41223485094815,89.15108495240565 157.36048066263174,89.26697685426552 157.4246558561499,89.11486861357298 157.42051552107296,89.10279648797768 157.44949786653888,89.10762533897287 157.52195373018185,88.92171384532412 157.66065495488147,88.65370892314604 157.57370791849826,88.57886014490578 157.36876133275655,88.52091253674553 157.0064820145344,88.45572130340406 156.65041319890588,88.35672685569625 156.53862415214098,88.30843672690207 156.1328713157127,88.27221906390696 155.66915378838894,88.26014649691933 155.2199274337836,88.23600134398839 154.78105191684153,88.13700595247246 154.48501795966877,87.9921338813001 154.2117558453465,87.86174823856709 153.87017820244364,87.69997243412581 153.45407452836662,87.4995620268528 153.02969018415752,87.34019829028875 152.6032356724172,87.21705282988478 152.1933425009338,87.09632134747699 151.9097295489555,86.99490641339798 151.68615145541116,86.87175910766928 151.3362931423835,86.67134149703998 150.96573315402202,86.46126333507709 150.57447149034124,86.30672185521325 150.18735016171559,86.17149721000897 149.8147200058229,85.99522103447453 149.52075621617405,85.84550596321242 149.15019622781983,85.68130121797913 148.76928540179506,85.5919540267223 148.415286753705,85.44706595299976 148.10890195886168,85.36737712405375 148.0012532471519,85.19350963135548 147.91016587571357,85.02688538618168 147.84806084974116,84.71053748863415 147.8873940328558,84.31932263009912 148.02816542507935,83.93776099745082 148.11097212639288,83.54894802176932 148.16065614718536,83.18186390946721 147.9929725770271,82.99831965931662 147.64104409646825,82.78579291069218 147.38227315487165,82.57326420085155 147.4630096886467,82.29310972304484 147.1090110405421,82.09506743261409 146.76536323011533,81.90426898103215 146.42792592227488,81.71588414875623 146.31820704304846,81.49368467337626 146.32441754564934,81.06860144170241 146.32855788070447,80.66524816481251 146.33683855083655,80.38023979269019 146.33683855083655,80.12421231467124 146.34511922096863,79.916489815967 146.33890871836775,79.6628725962837 146.33890871836775,79.34403555611789 146.3554700586319,78.7715670610487 146.36582089630247,78.35126467248665 146.37617173395847,77.88747381992653 146.38238223655935,77.45749270224042 146.38652257162903,77.01542508863349 146.39273307422263,76.6240794597943 146.41343474955647,76.31727915899137 146.29129486511374,76.31003185834379 145.99733107547218,76.23031140055537 145.5667362286622,76.19649051685155 145.22515858575935,76.17474849392784 144.765581393498,76.13126438647487 144.3391268817577,76.10227493584898 143.94993538560084,76.07811703243351 143.51934053879086,76.0370485384301 143.20674524134665,76.01289056653695 142.84239575559332,75.99114837015986 142.5422214633436,75.97182195613095 142.14060896199953,75.93800069252393 141.7493472983042,75.89934775896108 141.4181204930719,75.87277382947104 141.0082273215885,75.8413682368755 140.6335269981646,75.81237842105475 140.48861527087865,75.54422089332002 140.49068543840258,75.15526613280235 140.51138711373642,74.77838444078952 140.50724677866674,74.46672760922957 140.51966778387578,74.05842661220231 140.53001862153906,73.65978255304617 140.53622912412538,73.33119801390967 140.53622912412538,73.17898446766412 140.53001862153906,72.96153479731584 140.54036945919506,72.88180273649778 140.54036945919506,72.61844335950809 140.51966778387578,72.40582074522717 140.56314130205283,72.20286096178279 140.55900096699042,72.01681292038484 140.54865012932714,71.71478367464806 140.55486063192075,71.30160124235044 140.54865012932714,70.88841138700082 140.54450979425746,70.53320715639347 140.54865012932714,70.15624972736077 140.54657996179594,69.84694670886165 140.54450979425746,69.42164826511544 140.55279046439682,69.17274836786419 140.5320887890557,68.9359284885486 140.53001862153906,68.62177590501415 140.51966778387578,68.82476729585687 140.53001862153906,69.0978362208134 140.46791359554481,69.27182534878739 140.13875695784373,69.39748334463911 139.75577596428775,69.35156992577868 139.5197768655562,69.27424185518066 139.39142647852714,69.09058664524491 139.0519190031555,69.04950567384185 139.02086649016564,69.05675526236337 139.30447944215848,69.07850401421638 139.68124993311358,69.15341622424785 140.0435292513357,69.2138291190804 140.38303672670736,69.25007677978647 140.48447493580898,69.46997802988517 140.47826443321537,69.79136838177146 140.33956320852303,69.98951658581609 139.99798556562018,69.97018512887553 139.72679361883638,69.96051939431527 139.32104078241537,69.94843722039514 138.92149844859523,69.93152216624367 138.53437711997685,69.91943997709495 138.13483478617127,69.90252490161583 137.7166609445485,69.89285913861204 137.3212589458053,69.88560981369119 136.89066409898805,69.87352760041176 136.46834992231015,69.85902893610364 136.22407015344652,69.73095700431622 136.21785965085292,69.32015542846239 136.20543864565843,68.87793141158181 136.20129831058875,68.70635586900062 136.18473697033187,68.45986482033368 136.1619651274741,68.2037046558653 136.13712311707786,67.82670903392136 136.10400043655682,67.47870758794852 136.0708777560285,67.12586741013911 136.05845675082674,66.95427879107228 136.02740423784417,66.58692983547371 135.99014122225344,66.21232452574623 135.96322904433327,65.85463117717518 135.93631686639856,65.51143367747682 135.91147485600231,65.28182685520733 135.87835217548854,64.95795649029242 135.84108915989054,64.54223560121864 135.81210681443918,64.17001400534537 135.77691396637965,63.783283883038166 135.72722994559444,63.384461627254495 135.66926525468443,63.021889932970225 135.62165140143043,62.70040491171312 135.56575687804434,62.369246464553726 135.50779218712705,61.992155121071846 135.44361699361616,61.62956145353564 135.38979263776127,61.29838756981917 135.35666995724023,61.04698230959002 135.31733677411103,60.68679113210965 135.30284560138534,60.41845712064605 135.2759334234579,60.067925987023045 135.2552317481386,59.700466917325684 135.23245990527357,59.388605594785986 135.17242504683236,58.99937738304652 135.0978990156509,58.65124221346014 135.01716248186858,58.31760772343114 134.93228561302385,57.98880377327259 134.8411982415928,57.66724829777195 134.7397600324839,57.33601727254427 134.62590081818053,57.00478146887144 134.54723445194395,56.76783613735461 134.41888406490762,56.36647418013854 134.35056853633432,56.134358038669234 134.24084965709335,55.720895348207705 134.16839379345038,55.488772679134854 134.05660474668548,55.16476419542778 133.91790352198586,54.80689876387078 133.81853548041545,54.5167335071892 133.70674643365055,54.30636140229217 133.5742557115591,53.96540941323474 133.48316834012076,53.6728153701024 133.3548179530917,53.389890309952534 133.19334488553432,53.01506968811191 133.05878399591165,52.67409851454795 132.92008277121204,52.33312227456372 132.80415338938474,52.04292573886232 132.69443451015104,51.759980582899516 132.58264546337887,51.46010327577096 132.49155809194053,51.22310069571904 132.3528568672482,51.22793750753226 132.01541955940775,51.37545977821355 131.6510700736544,51.49879734208662 131.31984326841484,51.64148114764612 130.978265625512,51.718868603265946 130.8230030605555,51.46735841817281 130.73812619171804,51.06106691052628 130.6594598254669,50.72248515804495 130.5932144644321,50.34278396322952 130.50005692545528,49.95823940538685 130.4006888838776,49.56401407916019 130.2806191669806,49.21331714387816 130.20609313579916,48.96419813275679 130.09430408904154,48.690889697447346 129.9659537020052,48.30148001796624 129.84174365004583,47.928995007450794 129.7030424253535,47.52747841578275 129.61816555650876,47.26382815567558 129.4877450019485,46.90342060279727 129.35318411232583,46.4994671502609 129.23311439542158,46.141466525939904 129.10062367332284,45.74475660282587 128.99504512915883,45.447219656070956 128.8625544070601,45.086783548789754 128.748695192764,44.740856318341685 128.6244851408046,44.380409105786384 128.52511709922692,44.07075865274055 128.41125788493082,43.756265630130656 128.29325833555777,43.39338370410587 128.21459196931391,43.175651790985285 128.09245208487846,42.82243784402999 127.98687354071444,42.5079276937322 127.86473365628626,42.171638989462735 127.7405236043196,41.8184095693905 127.59768204456486,41.40710817883519 127.4693316575358,41.02241372674871 127.36996361596539,40.727234988617056 127.23333255880425,40.33285090456411 127.12154351203935,40.00378905092475 126.9952632925415,39.638428074043986 126.90417592110316,39.372267402986836 126.8441410626474,39.12062174308085 126.69508900029177,38.75524668219259 126.577089450926,38.41890289895855 126.4611600690987,38.07529479812547 126.35144118985772,37.75104017346348 126.22309080282866,37.38322340115701 126.10509125346289,37.044439569732276 125.99330220669799,36.68145133256439 125.92705684564135,36.386216657421755 125.83803964174876,36.03773804539014 125.75316277290403,35.677153899669065 125.66000523392722,35.35286532234022 125.57098803002737,34.98016979327076 125.56684769495769,34.78897947309633 125.34119943388214,34.87368424227316 125.11348100528267,34.95112832846826 124.74292101692845,35.04551295440615 124.34337868311559,35.16409821504021 124.00594137527514,35.280262772912465 123.62296038172644,35.3964267415231 123.29380374401808,35.53437068891617 122.93152442578867,35.667473710125705 122.55889426989597,35.80057595773178 122.25250947505265,35.91189724349897 122.02479104646045,35.9990178723001 121.88608982176083,36.06193812032325 121.61075753990735,36.15389817187861 121.26917989701178,36.23617790502067 120.92346191904653,36.31119740408576 120.76198885148187,36.1296981941141 120.71851533329755,35.75217522992352 120.67504181511322,35.47386905990061 120.63363846445282,35.217340377215805 120.56946327094192,34.85190304584103 120.51563891509431,34.50340108519413 120.4204112085863,34.16941506231524 120.31483266442956,34.01210111745786 120.06641256048897,34.16941506231524 119.7372559227806,34.31220678419777 119.44536230067752,34.4065940437049 119.31287157857878,34.288004860116416" stroke="red" stroke-dasharray="none" stroke-linecap="round" stroke-linejoin="round" stroke-width="0.5"><title>2024-05-01 58.8km</title><desc>1714551575000</desc></polyline><polyline fill="none" opacity="1" points="19.22107940546266,114.14727589454014 19.50032470298902,114.02209144372318 19.6367979686911,114.15463966475545 19.703984807201778,114.424642960028 19.743876992564765,114.67746138162693 19.79216753273795,114.96709463744992 19.836258895491483,115.24445191211817 19.89084820177959,115.5684402865154 19.899246556597063,115.76970351610908 19.937039153250225,116.10595648457638 19.947537096770247,116.26303649518195 19.955935451580444,116.38575451437646 20.170093499313225,116.33421302528404 20.524923990145908,116.26549086192426 20.835663118225057,116.19676849525058 21.167398133329698,116.1133196338069 21.27027797979099,116.05686876342406 21.520129035467107,115.96114740878329 21.81827063131641,115.85315361203902 22.129009759388282,115.70097968256596 22.452346419682726,115.52180587469775 22.74418924942438,115.35244853906806 23.04023125657841,115.35490300202946 23.371966271690326,115.25917875445703 23.611319383853697,115.20027132908399 23.940954810248513,115.11190991088552 24.23699681740254,115.02600265422916 24.528839647144196,114.940095079819 24.799686589860357,114.86400524853707 24.881570549281605,115.10700093334526 24.969753274817776,115.46535356670029 25.05373682294885,115.80651977185698 25.135620782370097,116.13050030625891 25.2070067982786,116.43975023743587 25.25109816105396,116.63364293568338 25.31408582214499,116.82507970820188 25.42746361211175,117.14168321609577 25.513546748945373,117.40919754562128 25.612227418001567,117.68897987906894 25.700410143530462,117.95894209449762 25.801190401289205,118.23626364947995 25.912468602553417,118.56021030077318 26.006950094204512,118.89151470434263 26.067838166592992,119.05839217051107 26.15182171471679,119.24735491324282 26.24000444025296,119.49521280452427 26.330286754484405,119.77251602463002 26.414270302615478,120.03263816123217 26.47725796372106,120.23877061669009 26.56124151185213,120.41790805142045 26.643125471266103,120.64857613908498 26.66412135829887,120.74918597088799 26.758602849949966,121.02402036471176 26.857283518991608,121.34302049650614 26.964362542850722,121.66692384290945 27.07354115541966,121.99082267568701 27.138628405220516,122.16994660712407 27.243607840391633,122.45457905607509 27.350686864250747,122.77355955566418 27.42207288015925,123.03855541141093 27.506056428283046,123.18086675389713 27.575342855488998,123.38206406197969 27.66352558102517,123.67158883991215 27.75170830656134,123.93657445959434 27.83779144338041,124.22118527971907 27.915476225411112,124.45181563021833 27.940671289841703,124.55486249421301 28.049849902410642,124.83455882298585 28.16322769238468,125.13878609742096 28.27660548235872,125.49453068438743 28.39418244974513,125.86498995237525 28.505460651009344,126.1986435795734 28.614639263571007,126.51757271902716 28.736415408355242,126.86838972097394 28.847693609634007,127.20448216517252 28.967370165708417,127.55528880624115 29.09334548789775,127.89627760315125 29.21722122139181,128.24462070883237 29.328499422656023,128.59295859808662 29.435578446522413,128.8701533322892 29.4796698092905,129.0075229499962 29.551055825199,128.93883824253498 29.59304759925726,128.98789876855517 29.800906880875118,128.97318062160957 30.141040250804508,128.84071688009863 30.48327320941462,128.72542375038938 30.686933313627378,128.80146821924245 30.815008224526537,129.08111348294915 30.97667655467376,129.36566135344947 31.132046118706057,129.64529983539433 31.29161486015073,129.92984080556562 31.44698442418303,130.02059883128823 31.49947414176131,130.23645433499587 31.570860157669813,130.5945738216069 31.671640415428556,130.96740469117685 31.77032108448475,131.28872123997098 31.81231285854301,131.4187182776859 31.927790237219597,131.65173001838048 32.039068438491086,131.91662474233635 32.13984869624255,132.17415838876695 32.27632196194463,132.51998480239854 32.40229728414852,132.8510903830338 32.51567507411528,133.12823439569365 32.66054669463483,133.47404663314046 32.78232283942634,133.74627818444606 32.702538468707644,133.8100436731711 32.589160678719054,133.85418890918845 32.63115245279914,133.82966378840138 32.61855492057657,133.81985373285715 32.75502818627865,133.79778109274957 32.88520268587308,134.01360156442388 33.000680064556946,134.32261375611597 33.145551685083774,134.6757655237343 33.29672207169642,135.0387214800212 33.431095748710504,135.39676708156003 33.53397559516452,135.7008562818046 33.63265626421344,136.0515348638055 33.737635699384555,136.42182609480005 33.809021715293056,136.59838672756086 33.916100739144895,136.93924305081964 34.01478140820109,137.26292932880824 34.113462077250006,137.60132380872346 34.207943568893825,137.93480920989532 34.29192711701762,138.25357755574623 34.39480696347891,138.5796975788835 34.47459133419761,138.91807292603335 34.53547940658609,139.22702003660197 34.5900687128742,139.52860731083274 34.61316418860952,139.7615378987357 34.63206048693246,140.06311825229568 34.65935514008015,140.46521931683856 34.68455020451802,140.72756200162803 34.701346914152964,140.86976521285033 34.741239099508675,141.2203659735951 34.77693210745929,141.59302673177444 34.83362100245722,141.95587490036814 34.88611072002823,142.30400769629887 34.94489920371416,142.6643932098341 34.97639303426695,142.88013153040265 35.00788686480519,143.03703087260328 35.05617740498565,143.328762778674 35.10656753386138,143.65726324232492 35.13386218699452,143.86563800179647 35.15905725143966,144.11568525378607 35.17585396106006,144.3093474582929 35.182152727182256,144.4074036570055 35.22834367865289,144.728534819802 35.25353874309076,145.05946688491713 35.26613627530605,145.40265073026603 35.26613627530605,145.54237413416195 35.29553051714174,145.65758403015207 35.32492475899198,145.9296732261555 35.35011982342985,146.22136892674462 35.37111571046262,146.48364681833846 35.396310774900485,146.75082406631373 35.41520707322343,147.0621184654574 35.44040213766857,147.33909345204665 35.46349761340389,147.60626089648213 35.49289185525413,147.91019078054524 35.50548938746215,148.05480118920605 35.53278404060984,148.38323505681728 35.55797910505498,148.655292443882 35.576875403377926,148.87587718424948 35.58317416949285,148.99842336057372 35.58947293559322,149.27047357018455 35.58737334689067,149.55967661899558 35.593672113005596,149.863581042875 35.61256841132854,150.14052275446375 35.63146470965876,150.35619189811587 35.641962653171504,150.79732711663928 35.641962653171504,151.16738411456026 35.64406224188133,151.5594910834061 35.641962653171504,151.91238171979785 35.641962653171504,152.34368524772253 35.6524605966988,152.6622565968737 35.641962653171504,153.02003154106933 35.61886717743619,153.2283226459549 35.67135689502902,153.35819733479912 35.68605401593959,153.64980013424974 35.704950314277085,153.95610167108316 35.71964743518765,154.22809406505985 35.73644414481532,154.52213632975145 35.73854373351787,154.88723365168153 35.728045790005126,155.1837178779133 35.700751136857434,155.5267527779779 35.67765566112939,155.77912523489977 35.6524605966988,155.91143591793661 35.728045790005126,155.9530891258637 36.0429840954821,155.97514079408575 36.38521705410676,156.01434370836068 36.727450012731424,156.04864620433 37.115873922819446,156.09274933935376 37.44340976051899,156.127051720081 37.78564271914365,156.15890388561093 38.081684726290405,156.1736048704206 38.37772673344443,156.190756007667 38.68216709540138,156.21280745132026 38.98870704606816,156.23485887413517 39.28684864193201,156.25200996636522 39.6101853022119,156.2765115048278 39.920924430283776,156.29856286745962 40.05949728471023,156.3108136154624 40.372336001484655,156.33531509219756 40.687274306961626,156.36716697349584 41.033706442998664,156.3990188113239 41.32135009532067,156.4210700581989 41.63208922339254,156.4455714191863 41.911334520926175,156.47497301840122 42.108695859031286,156.46272235656943 42.46982511596434,156.48967380412978 42.81415766329883,156.53377610574717 43.14799226710602,156.56072747125654 43.50702193535108,156.59747928316938 43.84085653916554,156.61953034253747 44.1956870300055,156.65383194903188 44.577812173985876,156.6783330656708 44.85705747151951,156.69548383200708 45.08381305146031,156.71018447884126 45.27697521215305,156.72488511641495 45.51212914691132,156.73468553631392 45.82706745239557,156.75918656807335 45.93834565365978,157.00174539474392 45.93834565365978,157.30800293894936 45.927847710147034,157.6289565330262 45.91944935532956,157.98175539213298 45.91525017792446,158.27330042550966 45.908951411816815,158.62608954667667 45.90265264570917,158.95192476290867 45.89845346830407,159.3047036291391 45.90055305699934,159.6158305666013 45.896353879594244,159.91960404862584 45.89215470219642,160.17927824679282 45.896353879594244,160.36300824624595 45.88795552478405,160.7255645373607 45.87955716997385,161.20079871790222 45.86905922645383,161.67602322726088 45.86066087164363,162.12184361460822 45.850162928130885,162.53091307644172 45.84596375071851,162.88118841847609 45.8102707427679,163.21186311685597 45.72418760594155,163.5694764105665 45.59611269503512,163.89034395242197 45.42814559878025,164.1818152274136 45.31266822011821,164.37531095606573 45.38615382471471,164.27978794856062 45.465938195440685,164.34836860888026 45.62550693687808,164.458587105466 45.86695963775128,164.63983416917836 46.125209048252145,164.81863057045484 46.26798108006187,164.91170212820543 46.48213912778738,165.11988716512315 46.736189360883145,165.31337512436767 46.98394082785671,165.50686148122986 47.233791883525555,165.62442202943566 47.46054746348818,165.61707451250004 47.52983389068686,165.67340541660633 47.66630715638894,165.86933793836943 47.708298930454475,165.98444752872092 47.99384299408848,166.02853190250244 48.317179654382926,166.1558862928905 48.63841672597482,166.2391560959095 48.928159967013926,166.33956928722182 49.190608554912615,166.47182014906502 49.42156331226579,166.5722323405589 49.650418480916414,166.6897875286686 49.88347282697214,166.79754593158214 50.166917301903595,166.8955076848324 50.47975601867802,167.01306124666007 50.70021283251117,167.115920128168 50.89337499321118,167.2163295519822 51.16632152462262,167.37551433972476 51.390977515868144,167.51020831319693 51.634529805436614,167.63755462870358 51.97676276406128,167.75265550913537 52.31059736786119,167.8530621971986 52.60873896373232,167.94857059772403 52.919478091804194,168.03183401305068 53.18822544581053,168.15917748624815 53.402383493536036,168.26203132346018 53.5913464768164,168.34774250870214 53.77820987140149,168.43590225701882 54.032260104497254,168.5607946645814 54.34299923256185,168.71017490302074 54.69992931210436,168.84975885313543 55.05475980294432,168.89383782209552 55.371797697131115,168.92077492886892 55.613250397997035,168.93057023272922 55.91559117125871,168.93301905805674 56.20323482360254,168.97464904928893 56.34600685541227,168.99913724479848 56.65254680608632,169.06525524450808 56.93599128101778,169.11668022609047 57.307618481470854,169.2097346670762 57.43569339237729,169.26605691191435 57.729635810814216,169.3909448837694 58.036175761488266,169.53542229325467 58.3133214703048,169.65541132744147 58.50858321970736,169.73621992174958 58.68494867077243,169.80478457058598 58.98099067793373,169.91987477902694 59.3001281608158,170.05455409067145 59.63396276463027,170.18188654445112 59.938403126594494,170.3165643465927 60.21764842411358,170.36553790046128 60.58507644716883,170.55163646950678 60.952504470224085,170.73528492086916 61.28004030792363,170.90179160316802 61.55928560545726,171.0315680479216 61.79863871762063,171.16624095533734 62.04848977329675,171.30336166404595 62.313037949905265,171.4282387526473 62.57758612651378,171.5604608253616 62.808540883866954,171.67554239113997 63.073089060460916,171.81510863642143 63.35233435798,171.97671061651636 63.62318130069616,172.10648109499198 63.89822742081742,172.25094172391073 64.21946449240932,172.41498915250486 64.50290896734077,172.56924165489 64.77795508745476,172.70145727563067 65.04880203017092,172.84346581338468 65.35114280342532,173.00261228781346 65.63458727836405,173.13972222804477 65.93062928551808,173.28417647401693 66.22877088137466,173.43597488963132 66.51431494500139,173.58287564400962 66.75366805717204,173.71018888473918 66.98462281451066,173.82036324519504 67.26386811205157,173.95991669004252 67.5494121756783,174.10681415342697 67.8349562393123,174.26105549699787 68.15829289960675,174.42264057545253 68.4627332615637,174.57443160195726 68.76507403483265,174.74335916681412 69.0569168645743,174.9171819092262 69.3550584604236,175.05917699370366 69.69099265294062,175.23054922356278 70.02902643415291,175.3994720499668 70.33976556223206,175.56104926417174 70.60641332753585,175.70548855632478 70.90455492338515,175.85237505742225 71.2236924062745,176.01394914335287 71.53443153434637,176.1681779116243 71.81367683188728,176.30282124308906 72.14121266957955,176.50111273841867 72.38476495914801,176.67981844863607 72.40156166876841,176.73612270466947 72.63461601483141,176.87076276748303 72.91806048975559,177.12535276847484 73.14271648100112,177.36035646436721 73.3589741174219,177.58067028553887 73.556335455527,177.7642635518423 73.78099144677981,177.99681295450318 74.06023674429889,178.28076488063198 74.3226853321903,178.55247427347786 74.59983104102139,178.84621060868994 74.86227962892008,179.11057015797996 75.11213068460347,179.37492672096596 75.36618091769196,179.61969865377614 75.61603197336808,179.8669157073673 75.85958426293655,180.11413014962272 76.08843943158718,180.34420857164696 76.3130954228327,180.58652276226348 76.51465593833564,180.79456829812807 76.68472262329306,180.95366069548618 76.72251521994622,180.98303148136256 76.75190946178918,181.00995466938548 76.83799259863008,181.09561915252198 77.02065681581735,181.28652744423198 77.13193501708156,181.39666613504414 77.31459923426155,181.59001947216166 77.49306427402917,181.78337121221193 77.71981985397724,182.02567050524158 77.9360774904053,182.2434929815572 78.07884952221502,182.3658642701339 78.27831044902996,182.5469726033516 78.5239623272937,182.80639561285352 78.7654150281669,183.0535790135782 79.00896731773537,183.30565444744934 79.26091796212131,183.57485822469243 79.35749904246768,183.69722255479428 79.43938300188893,183.77308811831972 79.63464475129149,183.95418556656114 79.8404044442068,184.15485948138848 80.0713592015527,184.38245098644074 80.27921848317055,184.60759309454806 80.35900285389653,184.74952939805553 80.42199051498756,184.8009199165026 80.52067118404375,184.97711512357637 80.62355103049777,185.14352049080662 80.77262182842969,185.2927948876586 80.7495263526871,185.33928999725867 80.62355103049777,185.50813988213486 80.50177488571353,185.65985903017645 80.44088681331777,185.76263595914133 80.36530162000417,185.93148279188063" stroke="red" stroke-dasharray="none" stroke-linecap="round" stroke-linejoin="round" stroke-width="0.5"><title>2024-05-01 52.5km</title><desc>1714541844000</desc></polyline><polyline fill="none" opacity="1" points="186.0,148.28363004819585 185.80143026648875,148.31871838210736 185.53012859571027,148.3592048014607 185.24497322258685,148.36595252554525 184.98290735335468,148.36595252554525 184.81204502452601,148.3565057108326 184.58807683673513,148.37270024606096 184.28906776128133,148.37404978973973 184.0235384664702,148.37135070224213 183.75108232049388,148.38619567639944 183.49478882723633,148.39429292776094 183.21425135490426,148.38889476075747 182.95218548567937,148.3511075278584 182.7362986242515,148.33626251291935 182.44421639995562,148.3457093426041 182.20177660905028,148.4388277184844 181.99166212358978,148.46042028839383 181.77462078696408,148.46716795900466 181.6557098418998,148.20535572517565 181.57143315267604,148.00157032367224 181.4860019882617,147.81127770835246 181.40518872462417,147.5804934979642 181.32668441137503,147.39154425570177 181.28050540358527,147.26467676713037 181.17313921046298,147.00014050273694 181.07500881890155,146.7625930644981 180.974569476959,146.53448937637313 180.67786935188633,145.71652193228056 180.50469807266927,145.74621803683021 180.39040502837452,145.5194460334169 180.34076259499852,145.42630636490594 180.1687457909793,145.58963779830174 179.9436231279833,145.60718567921685 179.7565981464213,145.52484541364993 179.63999615174544,145.50459772600152 179.35253182823362,145.50324787901354 179.17820607381873,145.53699401082304 178.92653048134525,145.62068403273133 178.7706763300448,145.67737696164568 178.6286758810893,145.7246208767374 178.35737421030353,145.82180780941871 178.08838148991344,145.92034380523546 177.96600711926294,145.9851341825406 177.7697463361401,146.09851655160855 177.67854279575113,146.15115802352193 177.41994035211246,146.2901844570124 177.28024885353807,146.32527826887417 177.03434563703922,146.40221436501724 176.85540198184754,146.45080534475892 176.58871821184584,146.53583911432543 176.41439245742367,146.5979269058107 176.22736747586168,146.73964790743048 175.98261873456795,146.90431223843007 175.81060193053418,146.96504854574323 175.61780457300483,147.04737952331834 175.341885001435,147.16615114584783 175.1075265368927,147.27277472959304 174.9355097328662,147.36050232710022 174.72539524741296,147.4536278865462 174.59147612480592,147.5197601178388 174.36289003623824,147.6952113168254 174.1319949972749,147.8558145320394 174.0050027258403,147.92329427199093 173.73485553025967,148.0164157276331 173.53397684636002,148.09469120858466 173.31693550973432,148.13787747548122 173.0086906327124,148.2013070402454 172.85399095660978,148.2080548477452 172.57576243465883,148.2229000117004 172.32062341659912,148.1500235867352 172.15784241413348,148.10278864475276 171.94541897828458,147.97052987782263 171.72722316646832,147.79913127493728 171.52865343295707,147.97052987782263 171.3196934226944,148.08794334119102 171.1199692139926,148.17971403228603 170.8359683160743,148.28093094159067 170.54157714139,148.38754521865212 170.30029182566795,148.46986702625145 170.15829137671244,148.52924636137413 169.9597216432012,148.63585856579812 169.78308693839062,148.69658663887822 169.52679344514036,148.72627581397137 169.30051630696107,148.78160545615538 169.1712150851381,148.7977994524308 168.97033640123846,148.8571772631385 168.71057948240923,148.985378413151 168.5154731744842,149.10143308152692 168.22339095020288,149.23907794931802 168.0940897283799,149.32004482583216 167.84934098707163,149.4360964539701 167.59073854344024,149.58993070823635 167.40025013629202,149.71002809290258 167.28826604239293,149.7721004559353 167.01927332200285,149.8382206848437 166.71795529615338,149.93267756115074 166.43972677420243,150.01498941253521 166.2215309623789,150.06896410919217 165.9525382419888,150.15127508261685 165.68700894717767,150.28351127399765 165.40762595003616,150.42923936923307 165.28063367860887,150.48321231608952 165.04512073886144,150.58710959698692 164.82923387743358,150.6856088364948 164.64336337106943,150.75172433853913 164.46441971587046,150.84212661424863 164.39976910495898,150.86911224425057 164.29702081262076,150.90419347806073 164.06497129845957,151.01618292621424 163.8236859827448,151.1470609172011 163.58009171664162,151.27254061913482 163.33418850014277,151.40341598492523 163.08366738286713,151.5410360580663 162.92896770675725,151.6071471349269 162.70269056857796,151.7177812333075 162.51451111181814,151.81627175908488 162.2893884488367,151.92420571031107 162.1843312061028,151.7245271839438 162.06888368662476,151.48841679330872 161.93842798961123,151.26174671470926 161.84260654843092,151.12277438097772 161.69945162427757,150.92038478426366 161.57130487765244,150.72473846064986 161.49049161402218,150.61004784386478 161.29192188051093,150.69910182387684 161.06679921751493,150.82998306215632 160.91094506622176,150.90014564830471 160.64541577141063,150.99459467521228 160.3729596254343,150.98514980393247 160.22865022608312,150.93387752376384 159.95965750569303,150.767915837916 159.63524997594504,150.65052700262368 159.3073790206181,150.59925337987625 159.03607734983234,150.56821924511132 158.7659301542517,150.54663023734065 158.5165635121666,150.48860959823378 158.3468556585285,150.47511638859487 158.15290382580133,150.44812992656443 157.89083795657643,150.42654071590914 157.61607286021172,150.39685549169644 157.33899881345133,150.37391686211595 157.06307924189605,150.34693018636153 156.82063945098344,150.31994345361272 156.58281756084762,150.30105270677723 156.3380688195466,150.31319676152089 156.10717378058325,150.41709542477565 156.00211653784936,150.39685549169644 155.8935958695365,150.22414009204658 155.76083122214186,150.01094130109686 155.63730237629352,149.8152810523543 155.54494436070672,149.67089536122057 155.42834236603085,149.48467589227312 155.32328512330423,149.311948161273 155.18936600070447,149.10952987951077 155.0277394734294,148.85582777050695 154.87996664849197,148.62911098429686 154.7529743770574,148.42803141984314 154.58326652342657,148.42533234375242 154.43433922329132,148.50765390781635 154.2415418657547,148.6156158106105 153.99910207484936,148.71682926574613 153.8571016258793,148.77755695387896 153.62389763652754,148.8814681061467 153.3733765192519,148.97863101628081 153.12285540197627,149.10683094741944 153.04781451431336,149.15271271541678 152.87810666067526,149.22693287358015 152.6449026713235,149.32004482583216 152.4451784626217,149.392914575953 152.22236475002137,149.47118162238348 152.09421800339624,149.5062666944441 151.75018439533596,149.91378624175468 151.59548471924063,149.97450824041243 150.7988968348145,149.92323190494335 150.63265240675537,149.92053314474379 150.39252156623843,149.96236386376677 150.10621171792445,150.00689318837067 149.84991822467418,150.03792868647088 149.60632395856373,150.06221728457513 149.3835102459634,150.07436156631866 149.14453388063703,150.0865058365098 148.90786646569904,150.0865058365098 148.58923131193296,150.09730073366245 148.41144213193184,150.11214370235393 148.25674245582195,150.10404753974854 147.94041625244427,150.10269817881817 147.63101690023177,150.12023985982614 147.3146906968468,150.11619178173078 146.98912869191554,150.1013488177441 146.68896514125663,150.09865009516307 146.4015008177521,150.09865009516307 146.1174999198265,150.0959513720145 145.83119007151254,150.09190328622935 145.55180707436375,150.09190328622935 145.27588750280847,150.0959513720145 145.01728505916253,150.09190328622935 144.74251996279781,150.0959513720145 144.47699066798668,150.09055392401297 144.19529872045678,150.09190328622935 143.95170445434633,150.0865058365098 143.76237052240322,150.09055392401297 143.44835326940665,150.09325264830113 143.15396209472965,150.0959513720145 142.87688804797654,150.09865009516307 142.60443190199294,150.09999945652544 142.3689189622528,150.09730073366245 142.20613795977988,150.09190328622935 141.89442965718627,150.09325264830113 141.62774588718457,150.09730073366245 141.33681813808653,150.0946020102283 141.12439470223762,150.10269817881817 140.90966231600032,150.0946020102283 140.5852547862596,150.09865009516307 140.3035628387297,150.10809562169106 140.08536702690617,150.10404753974854 139.78289452585886,150.10809562169106 139.47811307443044,150.10809562169106 139.20103902767733,150.1134930622875 138.9528268607828,150.10809562169106 138.69999679312605,150.10674626118725 138.43562197350548,150.11214370235393 138.21049931052403,150.1148424220819 137.95305134207592,150.1134930622875 137.64480646506127,150.11619178173078 137.40929352531384,150.12428793663912 137.15761793284764,150.12023985982614 136.84590963023948,150.1148424220819 136.52842895167123,150.1134930622875 136.4049001058229,150.12293857784334 136.06779334893508,150.1256372952903 135.848443061921,150.12698665380321 135.6544912291938,150.1256372952903 135.31622999710817,150.12698665380321 135.03684699996666,150.12023985982614 134.76208190360194,150.12293857784334 134.49308918320457,150.1256372952903 134.22294198761665,150.13643215938282 133.95394926722656,150.13643215938282 133.6884199724227,150.13778151675342 133.47368758617813,150.14452830146638 133.23702017124742,150.14857637058412 132.9564826989008,150.1431789448061 132.707116056823,150.14182958800757 132.49700157136976,150.1431789448061 132.19683802071086,150.14722701435494 131.92553634993237,150.14722701435494 131.81355225604057,150.15262443841857 131.77083667382976,149.982604485097 131.6669339062937,149.9407738323398 131.38755090914492,149.9313281821187 131.1682006221381,149.90838871679262 130.9857935413529,149.91513562263663 130.69717474265053,149.90703933519853 130.40971041913872,149.89894304262998 130.13840874836023,149.8800516733554 129.8624891767904,149.8625096625883 129.59118750601192,149.8530639545097 129.30718660808634,149.85441334180177 129.02549466054916,149.86385904888812 128.74842061379604,149.8746541341461 128.49212712054577,149.88140105779985 128.2231344001557,149.88814797789473 127.96222300612135,149.89219612823854 127.71978321520874,149.900292425079 127.48773370105482,149.90703933519853 127.37344065676007,149.9110874795606 127.09752108520479,149.91918376443027 126.81929256325384,149.9272800441695 126.66574736234179,149.9502194755787 126.66921078792802,150.24977768172812 126.65535708559037,150.5290891416762 126.64150338325271,150.81109306930193 126.59763332585135,151.05801005874764 126.56184459481301,151.20642781144943 126.4394702241625,151.48032150258314 126.30786005195114,151.75825688370333 126.18548568130063,152.02134548717913 126.06657473623636,152.28847606733507 125.99384279896185,152.57583758028977 125.99153384857345,152.85374914341992 126.0492576083052,153.21394591831904 126.10351794247254,153.51882364854555 126.15085142545286,153.78592294258578 126.10467241765582,153.99905878106074 125.8275983709027,154.03413142676618 125.55514222492639,154.07594868631077 125.29192188051093,154.1096721831127 125.06333579193597,154.14204665638044 124.98829490427306,154.15823386228203 124.74354616297205,154.1892592829854 124.5184234999906,154.23377388556673 124.26674790750985,154.26345020121062 124.15476381361805,154.2580545125811 124.12128403296083,154.2607523571778 124.33601641920541,154.26884588756366 124.5946188628368,154.22298248098923 124.85783920725953,154.1838635630511 125.07257159349683,154.15553599605573 125.26536895102618,154.1299062385151 125.51704454349965,154.09213597587586 125.78834621427814,154.05166771354652 125.96844434467494,154.02873564138008 125.9649809190887,153.91137674596484 125.90610268415185,153.6658638491872 125.85876920116425,153.4743065571056 125.81836256934912,153.30298175917324 125.76410223518906,153.10602285573896 125.69367924830294,152.811927886577 125.63364653817553,152.547506450549 125.57707725363434,152.28442867595095 125.54013404739817,152.118484525854 125.46971106051205,151.8513503932054 125.35195459063834,151.6287343512713 125.21918994323642,151.3993683132867 125.1568482827206,151.13086989818203 125.19494596414734,150.92173405885205 125.26421447582834,150.68425953697079 125.32886508673982,150.46027384153058 125.40044254882378,150.20255050294236 125.46509315973526,149.9853032321862 125.52166244428372,149.7788474337449 125.42006862713606,149.65065424607474 125.1614661834974,149.5858824621164 124.91902639258478,149.52380919434472 124.64541577141063,149.45228962059082 124.3902767533582,149.39021570373097 124.13167430971953,149.32544259935548 123.88808004360908,149.26471751573717 123.6941282108819,149.2147877862999 123.41936311451718,149.14056755756974 123.15845172049012,149.06769636802073 122.94602828464122,149.01371744109474 122.6955071673583,148.94759294476717 122.41150626944,148.87472065439033 122.16098515216436,148.81129443364716 121.87698425423878,148.73707186053525 121.63454446332616,148.68579055810005 121.40942180033744,148.62371291653562 121.17044543501106,148.48741094945217 120.99727415578673,148.32141748072445 120.81024917422474,148.1365279068532 120.60937049032509,147.93948935652952 120.428117884745,147.7653911214984 120.23070262642432,147.61558376371613 119.95247410448064,147.5238090188359 119.68809928486007,147.5359557141128 119.52070038161764,147.58724163348415 119.31174037135497,147.72490281971568 119.07969085719378,147.92599345417693 118.86034057017969,148.0906424885752 118.63175448160473,148.1972583540346 118.387005740311,148.267435400031 118.15033832536574,148.2930769168097 117.93098803835164,148.30117422719923 117.77975178782799,148.3092715324592 117.5153769682147,148.32816522477242 117.26023795016226,148.3443597959349 117.01895263444749,148.36325343633962 116.76035019080882,148.3821470487992 116.50059327197232,148.40239017398926 116.29047878651909,148.41318649430286 116.04111214443401,148.43477910755973 115.76981047365553,148.45772121915252 115.52621620754508,148.47931375712142 115.28031299104623,148.50360531870774 115.02979187377787,148.51440155347518 114.77234390532976,148.55893592542543 114.52874963922659,148.6655478820394 114.32556200493855,148.82613889651748 114.16393547766347,149.02856166874062 114.08196773883537,149.1891481196717 114.02655292948475,149.38346852068207 114.00115447519784,149.67494358039858 114.02193502870068,149.97450824041243 114.04387005740136,150.25787375199525 114.06695956129988,150.55337680618777 114.08543116441433,150.82053806921886 114.11082961870125,151.09848779860295 114.13161017221137,151.39127296615607 114.15123625052365,151.70563851320003 114.15354520091205,152.01055221509523 114.15123625052365,152.2547477666467 114.1293012218157,152.5785357798477 114.10621171792445,152.88342866205767 114.09004906519112,153.15728642405338 114.06695956129988,153.43788336700436 114.0473334829876,153.70768231302463 114.02655292948475,154.00040773074943 114.03001635506371,154.2863818524911 114.1246833210389,154.55751178881656" stroke="red" stroke-dasharray="none" stroke-linecap="round" stroke-linejoin="round" stroke-width="0.5"><title>2024-04-21 79.4km</title><desc>1713660889000</desc></polyline><polyline fill="none" opacity="1" points="19.275098489299126,194.27748723427248 19.535155426150595,194.42950054998437 20.222448759232066,194.14236343717675 20.459802312703687,194.74076275248262 20.569191341703117,195.38740244446853 20.655876987315423,196.0123092229187 20.63317360394285,196.45866073674006 21.15535142157023,196.40799424713987 21.801365875791817,196.38145461248132 21.976801110969973,196.6516749053535 21.989184774625755,197.27172188346594 21.73119178172783,197.51298074934311 21.805493763684353,197.35375018383093 21.982992942794226,196.9001782450232 21.68372107102914,196.3042482271685 21.842644754658977,196.1836127275219 22.224474384158384,196.06297659052143 22.810634464025497,195.80722587218952 23.52682301232562,195.51528051300374 24.11298309220001,195.348797603785 24.882834183015802,195.1388826401162 25.442162991632358,194.98928689050263 25.62585400257376,195.68900051533274 25.788905574096134,196.35732764511886 25.958148977435485,196.9894457747996 26.1893106990683,197.66979764542157 26.43492002831772,198.37666659553543 26.67433752573561,199.1245246030303 26.955033902006107,199.8940690560612 27.19445139941672,200.5936324273789 27.390526074028458,201.17015303540575 27.687734001861827,202.0264643259652 27.925087555318896,202.69943011554278 28.09845884655806,203.2348941123455 28.294533521155245,203.79687661513344 28.50092791548377,204.42396524073774 28.723833861346066,205.06068378021155 28.961187414817687,205.78420604710482 29.19647702434304,206.45947283632995 29.429702689922124,207.144365919954 29.64848074791371,207.761716751962 29.86932274983701,208.4152223232304 30.05094981683942,208.96019792781044 30.60615073756344,208.75523075072851 31.177863209835778,208.63707236681148 31.528733680184814,209.26643958128807 31.869284430809785,209.8789105862179 32.09631826455734,210.40938402854044 32.29445688312262,211.16408185981527 32.54006621235749,211.7258695104174 32.820762588627986,212.4564139316244 33.15718545137497,213.26408440697014 33.35326012597943,213.74626214425007 33.64221227804228,214.45504497253933 33.83622300870047,214.94925130123738 34.034361627243925,215.52782075944924 34.226308413963125,216.1979787660748 34.445086471947434,216.88740141909693 34.69275974512857,217.65393789281552 34.90328202734236,218.45660423704066 35.05394993520167,219.04472627722134 35.10142064588581,219.69790968960115 35.13650769292144,220.3510744701307 35.17572262784961,220.81623212536033 35.30575109626807,221.71277877558714 35.41514012525295,222.41167520864838 35.52452915425238,223.07199224672877 35.613278743803676,223.79253547236112 35.677261006050685,224.28654030784855 35.7164759409643,224.93475488473268 35.780458203204034,225.6046376696977 35.84856835332175,226.3757015235533 35.89810300796671,226.90579287401124 35.955893438374915,227.60934973055373 35.993044429356814,228.11050034791333 36.030195420338714,228.63091439194977 36.03845119611651,229.26455072668978 36.069410355259606,229.8379403753661 36.08592190680065,230.77749745332585 36.090049794693186,231.70978911331804 36.096241626510164,232.32406910428108 36.13339261749206,232.86365834501157 36.16022388875717,233.6079815971716 36.17879938425176,234.41972408094807 36.13132867355307,234.95926402381156 36.11894500989001,235.38317936261956 36.853709053684724,235.44339397424665 37.60085676112067,235.50842557729084 38.327365029130306,235.55177987691786 38.92384482872876,235.59995122485088 39.69369591954455,235.6601652675272 40.337646429827146,235.74446466177324 41.0228758189769,235.77336723992812 41.69778548840259,235.82876374627085 42.39127065332286,235.88656865377743 43.101267369798734,235.93955635770544 43.67297984207835,235.98290984263076 44.23643653856561,236.0286717656145 44.89070676857227,236.0816591413586 45.41494853014592,236.12501235776108 45.97634128270147,236.15873146943886 46.20956694828055,236.65006147494933 46.19511934068578,237.4713298069437 46.17860778913746,238.2588527710468 46.18273567702272,238.83442585603552 46.16003229365015,239.56169840044458 46.14558468604082,240.56346655770722 46.124945246614516,241.52425600264542 46.10843369507347,242.35257352442204 45.877271973426105,243.16159900146704 45.55736066222016,243.71056434235834 45.32207105269481,244.1078337069648 45.46861107266159,243.95374216319942 45.78852238386753,243.64314825295878 46.31689203332644,244.03801110429777 46.830814075190574,244.46175880701958 47.41903809901123,244.8830911005789 47.90406492566399,245.1094035417227 48.46958556609752,245.36941933835078 49.15481495525455,245.58128188526098 49.90196266269777,245.95203664032124 50.531465565371036,246.18556091439496 51.243526225793175,246.54426883513224 51.68933811752504,246.80667578002613 52.407590609764156,247.0522281880494 53.0288377366669,247.23759444387179 53.4416265253094,247.42295920409924 53.912205744367384,247.6492466243726 54.50455765608058,247.93089912984397 55.20423465283238,248.09218576206695 55.87088854648755,248.12107280052805 56.39925819593918,248.18606850428296 57.13608618367289,248.33772443138696 57.75733331058291,248.5615956372294 58.38270832537091,248.84323695944113 59.05761799481115,249.10080335178645 59.78825415070605,249.40169501371747 60.413629165501334,249.61592747588838 61.13394560167944,249.98421007472461 61.70153018606652,250.27786909435235 62.12463869442581,250.48968638571387 62.67571172726457,250.76889710535033 63.27012758292403,251.08661552256126 63.80056117631466,251.36822590269003 64.35782604098495,251.64501906800615 64.96256161635392,251.948284274893 65.55078564017458,252.24913866172392 66.18648037467938,252.564429833772 66.74580918329593,252.85564913583949 67.32164954345353,253.14205129777474 67.9944952689475,253.49102389981272 68.58065534881462,253.79667141380378 69.09870527856401,254.07102871391726 69.62294704013038,254.3381629395626 70.1864037366322,254.6293597762833 70.65904689962917,254.87723516979167 71.19773626881215,255.1467665459786 71.70340253489849,255.39944934209052 72.19668513732904,255.75560704484633 72.6363051972221,256.080475814937 73.07592525714426,256.53287801298757 73.47426643817744,256.9227068120508 74.11202511663578,257.5772193196826 74.64865054187976,258.12102804719507 75.18733991104818,258.6672300676819 75.66617490587669,259.14604848484123 76.09753919001378,259.5983903985725 76.444281772463,259.9424530272445 76.6052694000391,260.084407437751 76.96645959011221,260.5030475487438 77.07584861909709,260.68349352349105 77.45355036070396,260.9890454808283 77.8229963265403,261.3306814480311 78.37406935937179,261.8864305310817 78.9395899998126,262.466223712574 79.40604133098532,262.9353402861925 79.87455660608975,263.40444729920637 80.05618367309216,263.69552940854373 80.17382847786212,263.9072231762566 80.35339160092553,264.0900480454202 80.56391388313205,264.30414374389693 80.65059952875163,264.4845599214714 80.70838995915256,264.68181332436507 80.5990009301604,264.8598210420987 80.49580373299978,265.04263834664744 80.35958343274979,265.36978147917944 80.29972905840259,265.6752712369398 80.146997206597,265.98797309044676 80.25019440375763,265.7570552087145 80.32243244177516,265.43232301938406 80.22542707644607,265.21823781184503 80.52882683609641,264.6962464338303 80.61757642565499,264.4051769775306 80.55772205130052,264.26324921375453 80.3389439933162,264.0491531349635 80.39879836767068,263.77010357153813 80.4235656949968,263.6474169171088 80.04999184126791,263.4164755584461 79.60417994952877,262.9569915895463 79.28220469439111,262.6394370993021 78.77860237225104,262.12701038755586 78.31421498502459,261.65306566749496 77.89936225243582,261.22722883839924 77.40195176212728,260.75326558772576 76.9602677582734,260.2961344228279 76.55160685751616,259.87508452599286 76.1553296204147,259.4660572483499 75.79620337429515,259.10755089005033 75.35451937044854,258.6648239198148 74.88806803927582,258.1859954868505 74.45463981120702,257.75287575673974 74.00057214370463,257.29327868076507 73.63112617786828,256.9251131421479 73.30502303483809,256.59063084457375 72.85301931127469,256.14063619469925 72.41752713925962,255.70988440511428 72.11412737959472,255.49811520399453 71.51145574818656,255.15639260812168 70.81384269536647,254.77856664394494 70.16782824114489,254.46811900828288 69.54864505817386,254.15044732139904 68.98725230563286,253.86165107021588 68.34330179533572,253.55600442003924 67.7014152289994,253.22147311415392 67.24528361755074,252.97839335640674 66.55386239656946,252.636633310447 65.89546427868481,252.30208862633117 65.31755997458822,251.9892007028393 64.704568623456,251.67871539968473 64.11221671175008,251.3706328141434 63.53844029553147,251.06976692889293 62.96466387932014,250.7953738078595 62.353736472119635,250.47524435967534 61.75106484071148,250.18640193321517 61.18554420027067,249.89033467861736 60.576680737009156,249.57982102107235 60.104037574026734,249.32466712345558 59.552964541173424,249.04784601155552 58.99776362045668,248.75898564372437 58.483841578592546,248.50382263163192 57.92864065786853,248.22939887130997 57.652072169476014,248.19810472554127 57.36931184925925,248.3762400630094 56.76664021783654,248.25587849982367 56.28574127907632,248.14514530483393 55.60463977780455,248.09218576206695 54.900834893167485,248.04404061725654 54.39310468313488,247.85145902916338 54.04223421279312,247.68294881542897 53.48290540417656,247.410922576757 52.92976842739154,247.18463280910873 52.37456750667479,247.01852507175863 51.85858152087167,246.86204566984816 51.49739133080584,246.67667638379862 50.86582448417903,246.3131556488479 50.27760046036565,246.08204013737668 49.75335869878472,245.85092230058945 49.22086116143328,245.59091195459405 48.636765025505156,245.42238515828103 48.098075656329456,245.2418193615249 47.85246632708004,244.99143244106563 47.55113051137596,244.85660758406084 47.072295516547456,244.61825456119004 46.622355736923055,244.23062466569354 46.234334275599394,243.96337291497184 45.76581900049496,243.62147875362643 45.50369811969722,243.79001876507027 45.12806032202934,243.93207295693173 44.607946448355506,243.61184785846126 44.15387878083857,243.2843950198003 43.70806688909943,242.9569375116498 43.24780738976551,242.59817355745145 42.762780563112756,242.26829839789934 42.32522444715141,241.8782209257406 41.87941255541227,241.6013100560249 41.4274088318416,241.3629232407875 40.96921327645396,241.14138983996054 40.5213374407831,240.98487038758867 40.096164988484816,240.8403899459172 39.62764971335855,240.6862764725356 39.18596570951195,240.56587460156516 38.75253748144314,240.45510432252922 38.38309151560679,240.3804544851664 37.75978044475778,240.36841416607786 37.173620364876115,240.33470123904954 36.58952422895527,240.3082124759312 35.993044429356814,240.2865398288286 35.93525399894861,239.88920433886597 35.94144583078014,239.47500486982244 35.943509774711856,239.11859469258343 35.955893438374915,238.55988651980624 35.9744689338695,238.02765617113437 35.98478865358629,237.52672221402827 36.021939644560916,237.00410157446277 36.06734641130606,236.50555374197393 36.11275317806576,235.9901354154772 36.147840225094114,235.56863986019744 36.189119103961275,235.05560910685017 36.232461926774704,234.5570189308637 36.24278164648422,234.06564409666316 36.211822487341124,233.54053582521556 36.1973748797318,233.02986854462324 36.19324699185381,232.66613161388887 36.18292727213702,232.15544486289582 36.17879938425176,231.59656708373586 36.17879938425176,230.9726314025047 36.168479664527695,230.36072432157926 36.15403205691837,229.8861237262663 36.14577628115512,229.52474612610968 36.12307289778255,228.79474599761306 36.106561346241506,228.34420626446627 36.05702669159655,227.81414818180747 36.007492036958865,227.1949284428265 35.96414921415271,226.70339580541076 35.91048667162977,226.10824168814725 35.86301596093108,225.4817469709251 35.81967313813948,224.99740662285149 35.759818763770454,224.36606204211057 35.70822016519378,223.76602759469642 35.640110015068785,223.23586360011177 35.574063808882784,222.79967402272814 35.51008154664305,222.38998563998575 35.427523788916005,221.88388987373582 35.33877419936471,221.34886218957217 35.258280385576654,220.75838920076967 35.214937562763225,220.26671844283737 35.18397840362013,219.72683250953378 35.13857163686043,219.16524122373812 35.02092683209776,218.56748085921754 34.89709019550355,218.07817346090997 34.75055017553677,217.53341499062844 34.58956254797522,217.0392644574913 34.424447032513854,216.53546098093284 34.292354620149126,216.1111968208279 34.14994248806033,215.5446954824656 33.96005964529468,215.03121619710328 33.735089755486115,214.47674205974727 33.54520691269863,214.016277238974 33.41105055639491,213.606431646509 33.1922724984106,213.1097853849842 32.98175021620409,212.60348441004317 32.76916399005131,212.06582872729814 32.56276959573006,211.55468246036617 32.37495069689612,211.10380339530093 31.891987814182357,211.33527183290425 31.36568210866244,211.53298260197334 30.849696122859314,211.684881178453 30.696964271061006,211.11103681943132 30.571063690527808,210.53717806431632 30.465802549413638,210.0404651647532 30.321326473400404,209.46899086271333 30.145891238229524,208.96984339676783 30.001415162194462,208.55267314736193 29.842491478564625,208.08485468239815 29.65673652368423,207.5278006246299 29.48130128851335,207.01414134990955 29.281098726016353,206.43294487457206 29.10153560296021,205.8999674847073 28.903396984409483,205.325977937091 28.740345412894385,204.8484462377728 28.540142850404663,204.25272351604144 28.37296339099703,203.78240513604396 28.193400267940888,203.24936593813072 28.011773200938478,202.74043455891479 27.85284951730864,202.26284883279732 27.689797945793543,201.7900773736692 27.47101988781651,201.15326770138927 27.31003226024768,200.68047328224748 27.134597025069525,200.16666008950415 26.955033902006107,199.64318593839926 26.81468571387086,199.19930905706678 26.639250478699978,198.71682440253426 26.422536364669213,198.09681665808785 26.24710112948378,197.55881964572472 26.046898566986783,196.9797952478657 25.887974883364222,196.4007561680155 25.762074302831024,195.87237019498934 25.615534282864246,195.33673357768566 25.565999628219288,194.88070871638593 25.153210839576786,194.9120757974997 24.53402765662031,195.09062605378858 23.972634904057486,195.24263395532944 23.50824751683831,195.41153043674967 22.909703773308138,195.6214428937128 22.379270179895684,195.81928964969302 22.026335765607655,195.9857691283578 22.02220787772967,195.97853091539218 21.770406716648722,196.0846911422159 21.163607197340752,196.23669242588585 20.719859249555157,196.10399294861236 20.66413276307867,195.5973151232556 20.604278388731473,195.21850578456542 20.501081191570847,194.57668708163328 20.329773844277952,194.0241294586176 19.910793223811197,194.22681590408683 19.38035963040602,194.33539718818247" stroke="red" stroke-dasharray="none" stroke-linecap="round" stroke-linejoin="round" stroke-width="0.5"><title>2024-04-05 108.1km</title><desc>1712276378000</desc></polyline></svg>