<?xml version="1.0" encoding="utf-8" ?>
<svg baseProfile="full" height="300mm" version="1.1" viewBox="0,0,200,300" width="200mm" xmlns="http://www.w3.org/2000/svg" xmlns:ev="http://www.w3.org/2001/xml-events" xmlns:xlink="http://www.w3.org/1999/xlink"><defs /><rect fill="#222222" height="300" width="200" x="0" y="0" /><text fill="#FFFFFF" style="font-size:12px; font-family:Arial; font-weight:bold;" x="10" y="20">Over 10km Runs</text><text fill="#FFFFFF" style="font-size:4px; font-family:Arial" x="10" y="280">Runner</text><text fill="#FFFFFF" style="font-size:9px; font-family:Arial" x="10" y="290">yihong0618</text><text fill="#FFFFFF" style="font-size:4px; font-family:Arial" x="65" y="280">SPECIAL TRACKS</text><rect fill="yellow" height="2.6" width="2.6" x="65" y="283" /><text fill="#FFFFFF" style="font-size:3px; font-family:Arial" x="70" y="285.5">Over 20.0 km</text><rect fill="red" height="2.6" width="2.6" x="65" y="287" /><text fill="#FFFFFF" style="font-size:3px; font-family:Arial" x="70" y="289.5">Over 40.0 km</text><text fill="#FFFFFF" style="font-size:4px; font-family:Arial" x="120" y="280">STATISTICS</text><text fill="#FFFFFF" style="font-size:3px; font-family:Arial" x="120" y="285">Number: 5</text><text fill="#FFFFFF" style="font-size:3px; font-family:Arial" x="120" y="290">Weekly: 1.2</text><text fill="#FFFFFF" style="font-size:3px; font-family:Arial" x="141" y="285">Total: 317.5 km</text><text fill="#FFFFFF" style="font-size:3px; font-family:Arial" x="141" y="290">Avg: 63.5 km</text><text fill="#FFFFFF" style="font-size:3px; font-family:Arial" x="167" y="285">Min: 18.7 km</text><text fill="#FFFFFF" style="font-size:3px; font-family:Arial" x="167" y="290">Max: 108.1 km</text><polyline fill="none" opacity="1" points="72.69535151741002,35.85153802590503 73.31771033420227,35.59283878788119 73.70495582022704,35.52816391004308 73.9538993468741,35.99705615497078 74.17518248176202,36.611464507339406 74.35497502877843,37.258207475359086 74.47944679216016,37.74326290702447 74.60391855548369,38.17981148051331 74.68689973105211,38.71336915626307 74.79754129849607,39.27926162738004 74.90818286588183,39.84515200511669 75.03265462926356,40.45954490234726 75.10180560889421,41.00926277146209 75.1986169804004,41.542810578932404 75.29542835184839,42.07635652560566 75.3784095274168,42.626068585101166 75.4752208989812,43.22428240557201 75.58586246636696,43.85482957601198 75.69650403375272,44.55004523888056 75.82097579713445,45.293760822707554 75.91778716864064,46.005137563479366 75.98693814827129,46.68417591243633 75.8901267767651,46.91052135900827 76.12524010753259,47.541053337423364 76.18056089128368,48.43026068563631 76.24971187085612,49.33563013069215 76.33269304648275,50.03082088990777 76.29120245866943,50.27332855116401 76.20822128310101,50.4188329634635 76.18056089128368,51.065517566137714 76.4433346138685,51.69603242224548 76.59546676906757,52.48821407154901 76.78908951207995,53.2803916195553 77.01037264696788,54.185732366953744 77.19016519392608,55.02640112192603 77.16250480210874,55.65689965734782 77.56358048407128,55.99639779266727 77.8263542066561,56.64305882391636 78.08912792929914,57.30588354500651 78.33807145594619,57.85554089221114 78.33807145594619,58.421362569744815 77.8263542066561,58.64769065497967 77.2316557817976,58.80935336809489 76.55397618137067,59.05184711748734 75.86246638494777,59.29434048268013 75.21244717633817,59.53683346362959 74.79754129849607,59.71466140537814 74.71456012292765,59.90865528807626 74.7422205148032,60.47446937454515 75.03265462926356,61.20194155476929 75.29542835184839,61.96174213985796 75.50288129079854,62.72153895281372 75.79331540531712,63.481331993680215 76.49865539756138,63.85314423483214 76.85824049176881,64.46744074120943 77.20399538992206,65.21105952897051 77.52208989625797,65.93850919490797 77.86784479441121,66.61745909700403 78.18593930080533,67.31257135269698 78.50403380714124,68.00768045149744 78.82212831347715,68.70278639352182 79.14022281981306,69.41405432221654 79.45831732609076,70.09298880730057 79.79024202842265,70.7557552807557 80.10833653470036,71.45084874298482 80.42643104103627,72.1297741936869 80.74452554743038,72.82486141640402 81.0626200537663,73.55227489740355 81.3807145601022,74.24735566071467 81.68497887050034,74.89393958366418 82.14137533615576,75.2980531485955 82.40414905874059,75.92846817965619 82.55628121393966,76.28408576980291 82.57011140987743,76.76901751590776 82.00307337683626,77.0114828129008 81.40837495191954,77.25394772586878 80.70303495967528,77.57723367909784 79.95620437950129,77.99750439758645 79.1678832116304,78.33695298178645 78.32424126012484,78.72489329919335 77.59124087588862,79.19365320446377 77.25931617361493,79.32296602918359 76.56780637725024,79.67857573389483 75.80714560119668,80.01802059062175 75.14329619664932,80.34130070677202 74.5071071840357,80.64841618477658 73.69112562423106,81.05251455934194 72.93046484823572,81.40812024661864 72.23895505187102,81.71523358453123 71.61659623507876,81.99001868047344 71.32616212061839,82.1516567417857 70.73146369570168,82.41027728498739 70.17825585859828,82.7335523495858 69.59738762967754,83.10531782999169 68.93353822513018,83.55790067464113 68.1867076450144,84.09130016683775 67.45370726077817,84.62469780071115 66.78985785628902,85.0449491731124 66.16749903949676,85.46519939193968 65.53131002688315,85.85312164704374 65.00576258159708,86.11173593773856 65.00576258159708,86.11173593773856 64.71532846719492,86.24104291929689 64.13446023815777,86.5643098953733 63.429120245797094,86.85524959022587 62.7376104494906,87.09769891366886 62.05993084900547,87.34014785318868 61.27160968113458,87.63108607383037 60.59393008064944,87.85737097435049 59.93008067610208,88.08365554046759 59.086438724480104,88.37459234827838 58.27045716479188,88.66552860332013 57.426815213111695,88.97262738393329 56.679984633112326,89.24739945495094 55.905493661121,89.50600801261317 55.03419131768169,89.79694211784226 54.287360737565905,90.05554974729603 53.63734152901452,90.23334223919665 53.07030349591514,90.42729744942335 52.76603918557521,90.50811204787169 52.171340760658495,90.76671847621037 51.5213215520489,91.00916160609631 50.80215136386687,91.26776718818292 50.027660391817335,91.57486074966437 49.23933922400465,91.8011398219387 48.39569727232447,92.10823231370887 47.579715712578036,92.39916147469194 46.819054936640896,92.72241544967983 46.05839416058734,93.01334344371571 45.25624279672047,93.27194564104138 44.48175182478735,93.54670999718655 43.651940069161355,93.80531129371957 42.86361890123226,94.08007469282893 42.58701498270966,94.12856230030593 42.0614675374818,94.33867508867115 41.27314636961091,94.59727504779585 40.498655397619586,94.93668683138094 39.72416442568647,95.21144820046902 39.004994237446226,95.47004668567388 38.3688052247162,95.63167051717755 37.51133307721466,95.90643063925381 36.65386092977133,96.26200183013862 35.990011525165755,96.69838352689112 35.49212447175523,97.10243954476027 35.035728006099816,97.5873053589603 34.86976565502118,97.79741340164037 34.34421820973512,98.24995282225427 33.66653860924998,98.68632885420811 32.85055704956176,98.94492147155688 32.14521705725929,99.09037962694129 31.42604686896084,99.18735165377439 31.066461774869822,99.20351365224633 30.319631194754038,99.41361947756377 29.406838263501413,99.55907718774688 28.480215136427432,99.75302058643138 27.58125240105437,99.89847797430411 26.709950057673268,100.04393522393366 25.880138301989064,100.18939233545098 25.008835958549753,100.30252554889012 24.123703419114463,100.46414428026765 23.280061467492487,100.60960099268414 22.574721475190017,100.73889573221095 21.73107952362625,100.86819036255474 20.85977718018694,101.01364669116447 20.057625816436484,101.12677929570782 19.20015366881853,101.22375003309571 18.398002305009868,101.40152955883241 17.5543603534461,101.54698538093362 16.724548597761896,101.6924410648644 15.936227429891005,101.8378966106684 15.1064156742068,101.96719031315297 14.387245486024767,102.08032221329631 14.0968113715644,102.14496897593199 14.207452938950155,102.11264559804113 14.580868228978943,102.50052568226238 14.898962735256646,103.08234396671469 15.064925086509902,103.42173694522353 15.34152900497429,103.8419367337774 15.59047253173776,104.3591041215841 15.618132923555095,104.68233285220049 15.74260468693683,104.98939951446664 15.922397233953234,105.34494961741439 15.770265078754164,105.03788366803201 15.604302727617323,104.65001000987832 15.479830964293797,104.29445829364704 15.313868613156956,103.97122874444176 15.217057241592556,103.74496765412914 15.051094890513923,103.40557539185102 14.760660776053555,102.93688960278814 14.580868228978943,102.53284897826961 14.940453323128168,102.41971741238376 15.701114099123515,102.27426241917419 16.36496350367088,102.17729234695435 17.111794083786663,102.04799882184307 17.87245485978201,101.91870518751966 18.64694583171513,101.75708799115091 19.43526699958602,101.66011759148387 20.209757971635554,101.5631471304223 20.956588551634923,101.43385308679717 21.73107952362625,101.28839715727372 22.45024971186649,101.15910288164741 23.127929312351625,101.04597030098375 23.8747598924092,100.91667582075752 24.690741452155635,100.78738123131916 25.52055320783984,100.6580865328142 26.295044179831166,100.528791725068 27.055704955826513,100.399496808197 27.788705340004526,100.28636366639694 28.52170572418254,100.14090664697869 29.22704571648501,100.04393522393366 29.94621590472525,99.9469637395232 30.527084133704193,99.84999219367455 30.845178640040103,99.88231604911562 31.329235497512855,99.78534446237609 31.84095274686115,99.65604891782277 32.40799077984411,99.57523914705962 33.09950057620881,99.42978145217057 33.83250096044503,99.15502765165002 34.52401075680973,98.79946317803115 35.00806761428248,98.4115737198008 35.40914329618681,97.9913590313954 35.78255858627381,97.52265667243046 36.225124855933245,97.07011510260054 36.79216288897442,96.73070804757299 37.52516327315243,96.42362482579483 38.271993853268214,96.21351489817607 39.01882443332579,95.89026829280192 39.80714560113847,95.6155081417528 40.63695735682268,95.34074749768479 41.48059930850286,95.04982392543752 42.32424126006663,94.75889980050852 43.14022281981306,94.46797512283956 43.887053399928845,94.20937494536338 44.68920476373751,93.9346117782552 45.43603534385329,93.67601070005912 46.169035727973096,93.40124657591514 46.84671532845823,93.1426445969555 47.5520553207607,92.91636750711768 48.27122550905915,92.67392739689967 49.004225893178955,92.43148690286034 49.737226277415175,92.17288328612631 50.48405685747275,91.91427923267474 50.912792931252625,91.8011398219387 51.35535920097027,91.67183753586141 51.82558586250525,91.49404671430239 52.0330388013972,91.42939545524132 52.53092585480772,91.28393002257508 53.07030349591514,91.08997589745559 53.78947368421359,90.81520713285136 54.522474068333395,90.5242749624158 55.28313484438695,90.24950518280093 56.016135228506755,89.974734909978 56.76296580868075,89.69996414416528 57.49596619285876,89.42519288526091 58.215136381099,89.16658419117448 58.7683442182024,88.98879046057118 59.280061467550695,88.81099652354897 59.570495581952855,88.69785481976578 60.24817518243799,88.48773429093126 60.91202458698535,88.24528716862551 61.52055320778163,88.03516601871524 62.07376104488503,87.82504458045878 62.64079907798441,87.63108607383037 63.276988090598024,87.42096408102952 63.96849788707914,87.14618873230938 64.66000768338563,86.83908628836798 65.00576258159708,86.67745317574008 65.61429120245157,86.37034979161399 66.22281982324785,85.96626545298204 66.85900883597787,85.5298531693843 67.43987706495682,85.15809357627586 68.03457548987353,84.72167898905172 68.47714175947476,84.36608099819568 68.98885900882306,83.99431857923628 69.50057625817135,83.6225552575197 69.99846331152366,83.2992820701038 70.56550134456484,82.97600820005755 71.27084133692551,82.58807865499693 71.96235113329021,82.28096706802899 72.77833269297844,81.90919958581799 73.58048405684531,81.53743120084982 74.39646561653353,81.16566191305174 75.07414521701867,80.81005566263048 75.69650403375272,80.51910447963746 76.41567422205117,80.17966073400748 77.16250480210874,79.8402162357379 77.89550518628675,79.54926320958475 78.64233576640254,79.20981731353095 79.37533615058055,78.90269894945959 79.98386477131862,78.57941579536418 80.73069535149261,78.23996774882835 81.40837495191954,77.93284743904951 82.0307337687118,77.62572651318624 82.76373415288981,77.23778341030993 83.57971571257804,76.84983932426258 84.32654629269382,76.55888061450969 84.71379177871859,76.39723664797202 85.19784863613313,76.1224415130273 85.84786784474272,75.79915248746693 85.82020745286718,75.31421766898711 85.10103726462694,75.58901425474323 84.50633883982664,75.8476458848454 83.89781021891395,76.13860594636935 83.24779101030435,76.49422304840118 82.68075297732139,76.54271622556553 82.39031886286102,75.8476458848454 82.01690357277403,75.07174968367326 81.57433730305638,74.29584954965685 81.27007299265824,73.55227489740355 80.88282750674989,72.76020227305708 80.52324241254246,72.01662016102637 80.19131771026878,71.40235395269701 79.8593930080533,70.72342527547153 79.54129850171739,69.9959983509325 79.20937379944371,69.22007248767477 78.86361890123226,68.44414269081608 78.50403380714124,67.73287025488389 78.18593930080533,67.08625608118018 77.86784479441121,66.43963917570363 77.59124087588862,65.7606884847919 77.42527852475177,65.3565497387608 77.30080676142825,65.14639716915553 77.07952362654032,64.75842243623629 76.78908951207995,64.20878988110053 76.4018440261134,63.67532110174943 75.79331540531712,63.3358400012512 75.54437187855365,62.49521689231915 75.28159815591061,61.76775085969712 75.0603150211391,61.007949311475386 74.78371110250009,60.425971106262296 74.81137149437563,59.79549221973866 75.57203227042919,59.53683346362959 76.37418363423785,59.32667290234531 77.12101421435364,59.06801335378259 77.90933538222453,58.77702083913027 78.57318478671368,58.61535809186171 78.68382635415765,57.92020633263746 78.42105263157282,57.25738427249598 78.25509028037777,56.74005774287798 77.95082597003784,55.899398402296356 77.63273146364372,55.12340106569172 77.3699577410589,54.28273284363968 77.19016519392608,53.42589317234524 77.02420284290565,52.698384024814004 76.9965424509719,51.87386947602499 76.94122166727902,51.13018587608531 76.96888205915457,51.01701631570177 76.84441029577283,50.46733440342359 76.54014598537469,49.82064727257239 76.47099500574404,48.9476153102587 76.41567422205117,47.92907172490959 76.36035343830008,47.282373865760746 76.34652324242052,46.79734867757361 76.29120245866943,46.15064603484643 76.22205147903878,45.47160531800182 76.12524010753259,44.824897071448504 76.00076834420906,44.14585047046421 75.87629658088554,43.5153044994222 75.77948520932114,42.85242003548774 75.64118325005984,42.12486061031814 75.46139070298523,41.07393533203867 75.32308874378214,40.15234876217437 75.18478678446263,39.23075664040516 75.04648482520133,38.34149582119426 74.86669227806851,37.516903896976146 74.59008835954592,36.51445282630448 74.25816365733044,35.560501352360006 73.9953899346292,34.94608877875726 73.9538993468741,34.80056964987307 73.8155973876128,34.655050382585614 73.42835190164624,35.04310145445925 72.83365347678773,35.36647659573646 72.11448328848928,35.68985105340835 71.3676527083735,36.02939349820372 70.6761429120088,36.33659791792161 69.87399154820014,36.643801720652846 69.0580099884537,37.031847747581196 68.32500960427569,37.322881621774286 67.75797157123452,37.35521868473734 67.45370726077817,36.67613892717054 67.0802919708076,36.49828420682752 66.55474452552153,36.756981913524214 65.89089512103237,37.06418487202609 65.54514022276271,37.35521868473734 65.83557433722308,37.74326290702447" stroke="#4dd2ff" stroke-dasharray="none" stroke-linecap="round" stroke-linejoin="round" stroke-width="0.5"><title>2024-05-25 18.7km</title><desc>1716643451000</desc></polyline><polyline fill="none" opacity="1" points="180.38488396164757,105.30996946637606 180.34762094606413,105.1121247409701 180.47597133310046,104.89980168663351 180.54842719673616,104.8756739433029 180.52979568894807,104.86602283890716 180.60018138505984,104.88773781812597 180.64779523830657,104.85637173048599 180.5836200447884,104.84672061802485 180.616742725324,104.86602283890716 180.66021624350833,104.68747668006654 180.80512797080155,104.82259281922234 180.66228641103953,105.08317171215458 180.6333040655809,105.16761794474041 180.60846205518465,105.27136575061559 180.6312338980424,105.3895894263369 180.74923344741546,105.44266924712974 180.7388826097449,105.50781249682768 180.6891985889597,105.57536826538671 180.64986540583777,105.66222539173577 180.54014652661135,105.73701876654195 180.54428686167375,105.92038214446438 180.55049736426736,105.95898477536502 180.521515018816,105.76114560997485 180.616742725324,105.59708257759667 180.521515018816,105.59466987725136 180.531865856472,105.45473282575949 180.60639188765344,105.29549308052447 180.616742725324,105.15314146965648 180.49046250581887,105.31720765590035 180.23997223436163,105.23034923191153 179.9439382771816,105.12660124176364 179.71000934598123,105.04698037507842 179.8425000680727,104.70195344708009 180.02881514602632,104.43895743115172 180.26481424476515,104.13011424881915 180.44698898763454,103.95397527160821 180.58569021232688,103.80437672889275 180.4594099928363,103.74888024882421 180.17372687331226,103.47863461345878 179.90046475898998,103.17219153912993 179.72036018364452,102.96950254644253 179.517483765434,102.84402751634661 179.31874768230045,102.6413356425146 179.00201204978657,102.30351189802786 178.74117094065878,101.98981399433796 178.43892648088513,101.65439382754812 178.16980470162525,101.37929739096217 177.90068292237265,101.1114371839376 177.70608717429423,100.95458066462925 177.4555969028297,100.71326086111367 177.24650998203288,100.49365764716458 177.10366842227086,100.34162342886157 176.98152853784268,100.22337389999666 176.71654709365976,99.93860724210208 176.6130387170124,99.80346251396622 176.41844296893396,99.65142374884272 176.16174219487584,99.39319688415526 175.94644477147085,99.16875436487862 175.6835334948264,98.88880149632678 175.43097305582342,98.62332581108785 175.1659916116405,98.3602605283595 174.91757150771446,98.10201921436601 174.67536190638202,97.8510155411368 174.4269418024487,97.61931741911576 174.1702410283906,97.36589493387692 173.9901364530524,97.18729074823204 173.80175120757485,97.0062715816639 173.48294540752977,96.67560623708596 173.10824508410587,96.28700805892367 172.80393045679375,95.96357352775885 172.61140487623925,95.76082121069703 172.40645829050482,95.6811680271112 172.02761763201852,95.47599946937225 171.69018032418535,95.29255309592554 171.27821698516345,95.0801396828665 170.9283586721358,94.884621062316 170.58471086170903,94.71565301809096 170.20794037075393,94.53220059705745 169.8146085395274,94.33184957547019 169.4813115667639,94.16287748143623 169.13559358879866,93.98907632169357 168.76089326537476,93.81768778428159 168.41517528739496,93.63905612207236 168.0591064717737,93.44593925502704 167.70924815873877,93.27213269193635 167.4815297301393,93.15384692069892 167.22275878855726,93.03073251437672 166.8894618157792,92.85692282170021 166.51062115728564,92.66862750952532 166.12556999620574,92.46584622294176 165.7695011805772,92.27271953007585 165.4072218623478,92.07717710544603 165.0263110363303,91.89611782616521 164.67852289082657,91.71747127705385 164.32452424273652,91.53640917294433 163.9663852595695,91.3384463118673 163.56684292574937,91.14531017506488 163.2335459529786,90.98114318660737 162.95200316853152,90.83146050178584 162.57730284510762,90.63832011752856 162.2253743645415,90.45966382138795 162.08046263724827,90.3799923239967 161.94176141255593,90.32929213683929 161.56499092159356,90.13373322749794 161.15716791764862,89.92851530407097 160.77004658903024,89.72812427457757 160.39534626559907,89.5253171215627 160.0082249369807,89.33699459592935 159.61489310576872,89.12694073284001 159.23605244727514,88.9362005090934 158.8861941342402,88.76477440417875 158.51977448096295,88.57403118312504 158.16370566532714,88.3953588858858 157.93391706919647,88.3398253221294 157.79728601203533,88.51849804990707 157.72690031592356,88.69716939250611 157.6606549548669,88.8372081251855 157.56956758342858,88.9844893225636 157.51367306004977,89.10762533897287 157.47226970938937,89.21385980491686 157.46605920679576,89.23076069753733 157.5033222223792,89.11486861357298 157.52402389770577,89.10038206210265 157.54265540550114,89.08830992891853 157.67307596006867,88.78891900313829 157.73725115357956,88.634393132681 157.54886590810202,88.54505739118395 157.29630546911358,88.49435316764357 156.92781564829056,88.4122603787273 156.6938867170902,88.33258180395205 156.46202795341378,88.30360770846346 156.01280159880844,88.26739003787225 155.5532244065471,88.25290295369814 155.10606821948022,88.21427068471712 154.72308722593152,88.06457003072319 154.44775494407077,87.93418479782486 154.16000165701553,87.79414057782742 153.77702066346683,87.61304765224122 153.3567766543274,87.41988029633285 152.92618180751015,87.28466218373615 152.49972729576984,87.15910179727143 152.13123747494683,87.050443218297 151.90144887881615,86.94661343076586 151.63025693202508,86.78966053819386 151.25762677613238,86.57716876474842 150.87671595011489,86.38640743521682 150.4916647890277,86.25118325768744 150.10040312533238,86.09181088673722 149.798158665566,85.94209644313378 149.4420898499302,85.76823328771388 149.06738952649903,85.64024984881144 148.6926892030824,85.52192490486414 148.34490105758596,85.41325860468532 148.1503053095148,85.31425108494113 148.0509372679444,85.0920863213014 147.94535872375855,84.9182167509025 147.94121838869614,84.53666503842578 148.03437592766568,84.15269206159792 148.16893681731017,83.7662976991578 148.21034016795602,83.37748182904033 148.24760318353947,83.08767691118192 147.92672721597046,82.89930175908194 147.5810092380052,82.701264681451 147.5333953847512,82.418696634546 147.40090466265974,82.21099483369107 147.03241484182945,82.0105366680873 146.69704770152748,81.82456789391836 146.39894357681624,81.64342803367617 146.4092944144868,81.32220317762585 146.4175750846116,80.87296390839765 146.4175750846116,80.53240571846618 146.421715419674,80.26430317422455 146.42585575474368,80.01552054329659 146.4237855872052,79.83195105316736 146.4196452521428,79.57591747779225 146.42999608980608,79.07591917257741 146.44655743006297,78.57349447772685 146.45897843525745,78.14835732436404 146.46104860279593,77.69905611664217 146.46518893785833,77.26424014527038 146.469329272928,76.84632594203686 146.48589061319217,76.4356514131996 146.43620659239969,76.35351562800861 146.30992637291638,76.24963759749517 145.8834718611688,76.21581674219487 145.49014002994954,76.18682739808355 145.10508886886237,76.15783801745783 144.6517221792019,76.12401702723946 144.26874118563865,76.09502756749134 143.84021650635987,76.0587906914443 143.4489548426791,76.02496955565766 143.10530703223776,76.00081157109344 142.83825542052364,75.98390096680669 142.44699375683558,75.95732713495818 142.05366192561632,75.92350585004169 141.68517210478603,75.87518964250557 141.32082261902542,75.85827894590511 140.92749078781344,75.83412078633955 140.5817728098482,75.77855692310186 140.5672816371225,75.36786333835335 140.5879833124418,75.01756007642325 140.5921236475042,74.63342830007241 140.60040431763628,74.28794581590046 140.61075515529956,73.87722562344061 140.61696565789316,73.50998724228157 140.62317616050132,73.20556150862467 140.62110599296284,73.13549469803365 140.62317616050132,72.88663499046925 140.62938666309492,72.77307675363772 140.61903582543164,72.48555445589773 140.61696565789316,72.31400582692186 140.66043917609204,72.15695314336881 140.6397375007582,71.87667184355087 140.6335269981646,71.55289436627572 140.6418076682894,71.12037853550464 140.63766733323428,70.7096017797976 140.62938666309492,70.3664767479604 140.67079001374805,70.0450944339882 140.62317616050132,69.67537839688339 140.6355971656958,69.31532242506 140.62317616050132,69.03983955224612 140.60868498777563,68.76676993848923 140.60247448517475,68.63385877606743 140.60868498777563,68.99392541922134 140.57142197217763,69.13650058525309 140.40787873709633,69.33465443255227 140.05595025652292,69.3684854065541 139.6833201006375,69.3467369289774 139.61293440452573,69.13891710587268 139.33967229021073,69.05917179136668 139.07883118108293,69.05433873310358 139.19062022784783,69.05917179136668 139.56325038374052,69.10991884169016 139.92759986950114,69.18241443358056 140.28573885266087,69.23799423257333 140.57142197217763,69.27182534878739 140.5672816371225,69.6463808092376 140.56314130205283,69.93635504013037 140.2671073448655,69.98226729136331 140.02282757600915,69.96776869561836 139.64605708505405,69.96051939431527 139.22167274084495,69.94118791300025 138.84490224988986,69.92668929135289 138.44535991606972,69.90977422119613 138.02097557185334,69.8976920206187 137.62764374064136,69.8880262555831 137.21361023408826,69.87836048648387 136.78301538728556,69.86869471332102 136.37105204827094,69.84211381617934 136.30687685475277,69.55455487379913 136.29652601710404,69.12683450024088 136.2882453469574,68.79093552183986 136.284105011895,68.64835821294582 136.25719283396757,68.3390349097026 136.2344209911098,68.03454071834312 136.20543864565116,67.66237567423377 136.1743861326613,67.307121602591 136.14954412227235,67.06303228981778 136.1329827820009,66.79235596181388 136.09364959887898,66.41533719330619 136.0605269183725,66.05764700406871 136.0377550754929,65.70478501182879 136.00670256251033,65.37125294291764 135.97772021705896,65.17064799066975 135.94045720146823,64.79118564158853 135.9135450235408,64.36821067049277 135.88870301315183,64.00807155872099 135.84315932742902,63.60200189763964 135.78726480403566,63.22009650145628 135.73137028064957,62.867190935365215 135.6982476001358,62.59163076572986 135.61958123388467,62.17828431417911 135.56368671051314,61.837449189575636 135.50572201958857,61.49177435926504 135.46638883646665,61.2210323981908 135.42084515075112,60.87534829188735 135.39807330789336,60.57800745122586 135.3773716325668,60.25407077237469 135.35045945463935,59.893867160528316 135.3256174442431,59.569920832507705 135.29870526631566,59.21937674806577 135.22831957019662,58.85915690782895 135.14551286890492,58.489260856313194 135.0647763351153,58.16771238890942 134.97782929874666,57.850994835163874 134.88053142470744,57.517348717672576 134.77081254546647,57.181279973601704 134.67144450390333,56.88630910877873 134.57414662985684,56.596170134878776 134.49755043115147,56.32053471341351 134.3919718869729,55.955433577844815 134.31330552073632,55.597580472509435 134.20565680903383,55.341276846918845 134.08144675707445,55.007594253796924 133.93860519731243,54.64489028117168 133.87028966873913,54.47320840229804 133.7253779414459,54.151603680376866 133.62393973233702,53.842085106032755 133.5369926959611,53.600270815388285 133.3568881206229,53.21578084698558 133.22232723098568,52.87723088758321 133.08362600629334,52.52174805475079 132.9469949491322,52.18802446546033 132.83934623743698,51.9147544338266 132.729627358196,51.63422606029599 132.62197864649352,51.34402068530471 132.54538244778087,51.160222049275035 132.29489217632363,51.30048956246901 131.93675319315662,51.428664298840886 131.57654404246568,51.56167506066595 131.26187857749755,51.677756549963306 130.95549378265423,51.68501162354187 130.86854674626375,51.288397569249355 130.78988038003445,50.906287300815166 130.70914384624484,50.55561088466493 130.62840731247707,50.16381434196046 130.547670778702,49.77201110782153 130.43381156439864,49.421317352456754 130.31788218257134,49.07787413364167 130.26612799424765,48.89163868869582 130.1232864344929,48.509488495401456 129.99286587992538,48.14426305653615 129.86244532536512,47.74758777932584 129.73409493834333,47.36541852310984 129.64714790196012,47.123535956034175 129.5125870123302,46.71958638096112 129.38216645776993,46.34707567583973 129.25588623827207,45.9576261954262 129.1358165213751,45.6020361102037 129.0198871395478,45.28272602812467 128.90395775771321,44.96099243253775 128.77146703561448,44.564262083385984 128.65967798885686,44.23768011971515 128.55823977974796,43.94496196144428 128.4423103979134,43.596598290418115 128.3243108485476,43.255487065936904 128.24771464983496,43.03049603322688 128.1255747653995,42.68695707763618 128.0137857186346,42.35067100017841 127.90406683940819,42.04099312604376 127.75915511210769,41.627276311892274 127.62252405494655,41.22806879695236 127.51280517572013,40.89901979872593 127.39273545881588,40.54819029481223 127.27473590945738,40.19735541949922 127.15052585749072,39.83925635193373 127.03459647565614,39.50534812500882 126.95385994188109,39.23434656630525 126.86898307303636,38.980279693711054 126.72200117821194,38.588285277530304 126.61021213144704,38.26887746064676 126.50049325222062,37.94704538331462 126.38042353531637,37.58891113989375 126.26449415348179,37.25738999156056 126.13614376644546,36.877465695106366 126.0450563950144,36.5386743828949 125.97467069889535,36.23375791709077 125.88565349498822,35.880436934978206 125.80077662614349,35.546470995535856 125.70140858458035,35.17377861737077 125.70968925471243,34.90998619029233 125.58133886768337,34.81076072938049 125.37846244948014,34.89304528837965 125.03688480657001,34.98501003381898 124.65183364548284,35.09875539229142 124.28127365712862,35.21976047255339 123.92313467396161,35.32624441428197 123.56706585834036,35.45450850485577 123.21306721023575,35.59003204644614 122.84250722187426,35.74733515152184 122.49885941144748,35.83203637595216 122.20903595686832,35.96271765056554 122.0289313815083,36.03531803648366 121.8633179788958,36.10065818703697 121.55072268145886,36.19019809058227 121.19258369829186,36.27247769331734 120.88619890344853,36.32813725696542 120.82616404499277,35.9385174707877 120.78269052680844,35.62391280652082 120.73921700862411,35.35528540336236 120.69781365797098,35.08181463002256 120.63156829692161,34.687333336492884 120.56946327094192,34.379972035549144 120.45353388910007,34.04598421229275 120.32518350207829,34.09196833222268 120.0063777020332,34.23960093520145 119.68136139939452,34.363030741513285 119.4702043110592,34.29284524697141 119.28388923311286,34.33882887115033 119.21557370453229,34.46225814257377" stroke="red" stroke-dasharray="none" stroke-linecap="round" stroke-linejoin="round" stroke-width="0.5"><title>2024-05-01 58.8km</title><desc>1714551575000</desc></polyline><polyline fill="none" opacity="1" points="19.10038831521524,114.3303141845281 19.355722413412877,114.21531644769311 19.62361392625462,114.10765847419498 19.881040926877176,114.0 19.979407341743354,114.24712438950519 20.03172990285384,114.49669287773031 20.071495049291116,114.76827905790742 20.121724707940302,115.04475541012289 20.169861464157293,115.3383550012204 20.211719513048592,115.64907717984352 20.236834342373186,115.85703851325161 20.259856269258307,116.19466587664101 20.259856269258307,116.2974210535449 20.297528513248835,116.37815694405799 20.59681356276269,116.30720723708146 20.948421173365205,116.23136420645824 21.25189202776528,116.16530717091337 21.528155150386738,116.07967739991727 21.64326478481962,116.02585281035135 21.917435004987055,115.91820325583649 22.216720054493635,115.82033959014188 22.54530573822558,115.63195086913765 22.857148202398093,115.45824043035645 23.135504227459023,115.3065485586776 23.451532496517757,115.31878181098 23.742445936251897,115.24782885765126 24.01661615644116,115.16708902556093 24.33892313281831,115.07900888760196 24.63402237743867,114.99826846676297 24.924935817165533,114.90774099339251 25.132133159138903,114.8979542183115 25.207477647127234,115.20623564598463 25.297472452220973,115.57323199339226 25.377002745088248,115.90107714420083 25.456533037970075,116.2289176529448 25.527691721072188,116.52005570582878 25.55489945284353,116.64482803648389 25.644894257937267,116.91149605785722 25.75581808748393,117.22464357531317 25.841627087684174,117.48885849940234 25.935807697671407,117.76040958573503 26.025802502765146,118.02951112470691 26.130447624971566,118.31328754217975 26.243464356957702,118.6508790963835 26.33345916205144,118.96400309582714 26.383688820707903,119.0887622600385 26.473683625816193,119.316262535438 26.561585528463183,119.56088399445616 26.653673235996393,119.8421954787118 26.729017723992,120.0843652375006 26.783433187534683,120.23357968693017 26.888078309741104,120.48797587636 26.94040087085159,120.64452598900789 26.98853762705403,120.81575146340947 27.08062533460179,121.09460167020734 27.183177554361464,121.41992266959278 27.29200848144683,121.74523910108655 27.396653603660525,122.05832127830945 27.455254872096702,122.20263116999377 27.57245740896178,122.53282838864288 27.666638018949016,122.8556833417606 27.739889604497876,123.04156748638889 27.825698604705394,123.2250043252534 27.892671482906735,123.44268082348572 27.980573385568277,123.72639094307488 28.06428948332905,124.00276039241544 28.150098483536567,124.2571152033288 28.202421044639777,124.44787947962868 28.263115215515427,124.59217449176685 28.374039045054815,124.89543565709391 28.48286997215473,125.21092088424302 28.59588670413359,125.57531320558883 28.719367948331637,125.93480874147644 28.830291777871025,126.26006180341028 28.939122704963665,126.58775576211701 29.062603949176264,126.9423447532663 29.16306326648919,127.26269290287928 29.292823218020203,127.62460762466435 29.41211865733203,127.96206355950562 29.5376928039841,128.3068504203984 29.64652373107674,128.64674166935765 29.746983048389666,128.90104553264428 29.76372626794182,128.925497680224 29.857906877921778,128.90349074856567 29.901857829259825,128.9890731432588 30.18858546410047,128.87659335928765 30.525542757597577,128.75677733711564 30.860407148647937,128.6442964263697 31.002724514844886,128.83746982828052 31.14085607616289,129.1162235464326 31.30828827169171,129.40475456766762 31.461070150122396,129.68105633332743 31.61594493098528,129.96958032731345 31.745704882516293,129.9940313482639 31.798027443612227,130.29477679742376 31.87965063892625,130.66397929289997 31.980109956261003,131.0258409365597 32.059640249121,131.2898985731572 32.134984737109335,131.4317060632784 32.24172276176978,131.68108954649506 32.3463678839762,131.93536014153142 32.45101300618262,132.22141122956054 32.59123746993282,132.571024436078 32.71471871412359,132.8839604600198 32.83401415345725,133.18222367898306 32.97423861720745,133.50248565328548 33.05795471496822,133.7029527310824 32.91982315365749,133.76162569450753 32.8905225194394,133.79096212057448 32.9093586414383,133.75918099065711 32.89261542188615,133.751846877567 33.093534056519275,133.75918099065711 33.19190047138545,134.04520959279762 33.317474618030246,134.3703489354084 33.46188488667394,134.71259595320043 33.61466676510463,135.0915064065157 33.73605510685593,135.4239646763108 33.832328619282634,135.7319732348824 33.93697374149633,136.1010892179238 34.022782741696574,136.40664436533916 34.11277754679759,136.6193083737835 34.22160847389023,136.97618842312295 34.315789083870186,137.28906504825318 34.41206259630417,137.6312690282375 34.49996449895116,137.95880239838698 34.59833091382461,138.26677732189637 34.6883257189329,138.61141108265292 34.75948440202774,138.93648646607653 34.82436437779688,139.24444842025696 34.866222426680906,139.52307714473136 34.88505854867981,139.76992962475015 34.908080475557654,140.0925447513182 34.93738110977574,140.49580735631935 34.96458884153981,140.67177429834555 34.979239158659766,140.8746234241662 35.01481850021082,141.26320896985453 35.06086235397379,141.61757376761489 35.11946362241724,141.97926467490288 35.169693281073705,142.3189557356036 35.22829454950261,142.68307948509027 35.24922357394098,142.81992988823367 35.291081622825004,143.03253516523546 35.339218379041995,143.33555541513851 35.387355135258986,143.66789566021907 35.40828415969736,143.86338770099064 35.43339898902923,144.11508128091555 35.43130608658248,144.22748724156372 35.473164135466504,144.39853874683104 35.50246476967732,144.74308152698904 35.52548669656244,145.0705146111086 35.5401370136824,145.38572568342897 35.53804411122837,145.46147344335623 35.56525184300699,145.63984622515272 35.59664537966455,145.91595481718105 35.62176020899642,146.19939031310605 35.64059633099532,146.44617185175048 35.66571116032719,146.7369308956586 35.68873308721231,147.06677918799141 35.70547630675719,147.28667544858945 35.74105564830825,147.59941321315455 35.75779886786768,147.82907732897365 35.78082079473825,148.05140957699223 35.80802852652414,148.36413705140149 35.824771746076294,148.6133387451373 35.843607868075196,148.81611854392577 35.851979477847635,148.96514835255402 35.84570077051467,149.24121744085278 35.856165282733855,149.53438456447657 35.86662979495304,149.83243401664186 35.87081559983926,150.09627788396392 35.898023331625154,150.3698905835554 35.90430203895812,150.78518942074152 35.908487843837065,151.17849500932607 35.908487843837065,151.5473656333179 35.908487843837065,151.92111599235432 35.91058074629109,152.34127262196125 35.916859453624056,152.64172881203922 35.908487843837065,153.00813354630372 35.87709430717223,153.13759517216204 35.9398813805019,153.33056493714867 35.948252990267065,153.61146742939673 35.97127491715946,153.9094646254398 35.98801813671889,154.19524523506698 36.006854258717794,154.51521764837162 36.00266845381702,154.85472554867374 35.98383233181812,155.15270681669062 35.952438795167836,155.4873205759195 35.93569557562296,155.7193491888156 35.921045258503,155.8048328312343 36.07592003936588,155.80971760131433 36.412877332870266,155.85368048587043 36.75402043126087,155.89764328735146 37.09725643209822,155.92695177551468 37.49281499402423,155.97579917373332 37.80884326309024,155.99533810429966 38.152079263920314,156.03197355487828 38.42834238654905,156.03197355487828 38.72762743605563,156.06128187381364 39.03109829044115,156.07837837613806 39.3366620472807,156.10524428297504 39.642225804120244,156.12722545639917 39.964532780511945,156.15409130683474 40.20730946403637,156.18828416250835 40.40194939133653,156.18095712624017 40.715884757948515,156.21026525747584 41.044470441673184,156.24201569132128 41.36887032050436,156.27620841776843 41.66187666269252,156.29330476215 41.96953332197154,156.3177280894688 42.224867420154624,156.3494783766564 42.46973700610397,156.32993974351484 42.827623324046726,156.37145931931627 43.1541161053392,156.40320953317496 43.50153791105549,156.43495970369986 43.85523842411203,156.46915214657565 44.179638302943204,156.49357528929613 44.56263945021783,156.525325336499 44.92261867060006,156.54730611302512 45.15283793945855,156.56195995249982 45.41026494007383,156.58149839078578 45.57141842826968,156.59126760377694 45.84558864844439,156.60592141556845 46.15533821017743,156.64499820188394 46.17626723462308,156.97714823571914 46.16370981995715,157.26044892934624 46.15743111262418,157.60235896585618 46.151152405291214,157.9320531715275 46.144873697958246,158.23487928901523 46.13440918573906,158.58898547639 46.13231628329231,158.91133952721975 46.13231628329231,159.26543542155378 46.130223380860116,159.56824418861652 46.130223380860116,159.8612811797757 46.121851771073125,160.11524358776296 46.126037575959344,160.30571357526242 46.11557306374016,160.72083507074603 46.10929435640719,161.2067620043763 46.10092274663475,161.67558641630603 46.08627242952207,162.09556693453305 46.07790081974963,162.49356473597072 46.07162211242394,162.8158647182463 46.0213924537602,163.16990122322022 45.92511894132622,163.51904919373374 45.7765228677963,163.8291272676106 45.60281196493452,164.11722760423072 45.573511330723704,164.17094083208576 45.6362984040461,164.13675970142322 45.734664818919555,164.21732942916788 45.93767635599215,164.3516116892588 46.169988527290116,164.53960555252888 46.43578713769239,164.7056248452027 46.56136128433718,164.80572414090602 46.781116040976485,165.02789421120542 47.042728846477985,165.21099981876978 47.28341262755566,165.40631088008195 47.54502543307899,165.4575797622656 47.72082923837297,165.4478142695989 47.80873114102724,165.55523446374173 47.91756206811988,165.76763202567236 47.99081365366874,165.8262241156881 48.32149223983288,165.88725738605172 48.63961341133836,166.02397133129125 48.966106192609004,166.10453453039918 49.23190480301855,166.21439298919177 49.49142470608058,166.34133989624934 49.71117946271261,166.43899089241313 49.93930582912435,166.55128903190598 50.18417541508097,166.66114538362126 50.48346046459483,166.76855998211977 50.793210026320594,166.88085653275448 50.954363514516444,166.96385798311167 51.195047295586846,167.09324200705487 51.46084590598912,167.25191954588263 51.67013615040196,167.37641962731686 51.94639927303069,167.50580135985365 52.31056429829914,167.61809435655232 52.61822095757816,167.71085772817423 52.91541310464527,167.80117960351708 53.21888395903807,167.89150112867537 53.46793934989546,168.0233211044888 53.670950886975334,168.1160828625816 53.85721920449578,168.20152099722873 54.05395203423541,168.29672312103685 54.330215156856866,168.4309818652564 54.658800840581534,168.58720924821864 55.02087296341779,168.69705599963163 55.35992315936164,168.72634837921214 55.64874369664176,168.75808174886697 55.90617069727159,168.75564072195994 56.21801316145138,168.76784585390305 56.41683889362321,168.80690223316378 56.638686552701984,168.83131243694515 56.9484361144423,168.91430693853 57.25399987127457,168.95824508438818 57.567935237893835,169.06076710250636 57.70606679919729,169.11446893196444 58.03046667804301,169.26092783775857 58.32347302020935,169.40494486410353 58.59555033794459,169.50990586489206 58.735774801702064,169.57337042670588 58.95971536322031,169.6588032177242 59.271557827392826,169.78084951868186 59.5938648037918,169.91998152204178 59.926636292395415,170.04690823909004 60.20708521991037,170.16407074890412 60.52520639141585,170.2470605036233 60.8893714166843,170.43256594547165 61.24097902729409,170.6058657478079 61.56119310124632,170.76696018291295 61.82489880920184,170.89876389247001 62.048839370727364,171.02568527862422 62.314637981129636,171.1574875249553 62.57834368907788,171.2892890259045 62.82949198237475,171.41620828531268 63.05971125122596,171.52604170194718 63.34225308118039,171.68224833629574 63.61433039891563,171.8384539237577 63.8801290093179,171.96781088342686 64.1794140588172,172.12401455709914 64.48916362054297,172.2777765259725 64.76751964562573,172.42665619597392 65.02703954868048,172.55600989133018 65.31167428108165,172.70976901054928 65.61305223303498,172.85864592143844 65.8955940629894,172.99043780323518 66.1948791124887,173.1441940569366 66.48788545467687,173.29306819337035 66.76833438217727,173.4395008427091 66.98808913881658,173.55176525095885 67.23295872476592,173.6762316803124 67.51968635960657,173.81534043262764 67.80013528712152,173.9617698014772 68.09523453174916,174.12040057988816 68.41963441058033,174.27903027897446 68.71473365520069,174.43521846662588 69.02029741203296,174.60360768432474 69.3112108517671,174.7719956858764 69.60631009638746,174.9086575177771 69.95582480455778,175.09168550217692 70.28022468339623,175.25518928657402 70.59625295245496,175.42113225365574 70.84530834330508,175.54802901988296 71.15924370990979,175.70176840767272 71.47527197898307,175.867708196718 71.7724641260429,176.0092441424731 72.06965627310274,176.16054023798824 72.37731293238176,176.36308024860773 72.52590900591167,176.50461318781709 72.60753220124025,176.55829787108996 72.8712379091885,176.7388727169964 73.13912942203024,176.99997171092582 73.36097708110901,177.2244657050269 73.56608152064291,177.4367569506776 73.76281435038982,177.6270853901915 74.00977683877863,177.8808542269253 74.27766835163493,178.1565806986946 74.55602437670314,178.43962395202288 74.82600879197707,178.72510375440288 75.08134289017471,178.9837405588787 75.33458408590377,179.23993456643439 75.58154657431442,179.4912459544812 75.832694867604,179.7352350032652 76.06709994134144,179.9792215003563 76.29731921019265,180.2134461370497 76.49823784482578,180.45498783086805 76.72845711368427,180.65017121124401 76.82682352855045,180.75020206085355 76.86449577254825,180.78191906996653 76.90007511409931,180.80875650553935 77.02146345585788,180.93074446000537 77.21610338315804,181.1356827877771 77.31656270047097,181.23083211382436 77.50492392044544,181.4382075057547 77.69119223796588,181.6407016982812 77.92559731171059,181.86759069398613 78.12442304389697,182.08471895750154 78.24999719054904,182.18474365761722 78.48858806917269,182.40186897027706 78.7292718502431,182.6653441647777 78.96786272886675,182.91417911725512 79.21273231483065,183.1678904548553 79.4555089983478,183.42403852667667 79.4785309252402,183.47770729028343 79.63131280365633,183.6143181316802 79.80502370651811,183.77288328424038 80.0415216827023,184.00706984692624 80.25918353688758,184.22173879869297 80.46219507396745,184.44616331922407 80.49149570818554,184.5266628931986 80.58776922061952,184.61204092587468 80.65892790371436,184.81206823676803 80.79496656257834,184.96574659183534 80.89542587989126,185.0901521382857 80.83473170901561,185.16089225138785 80.69869305014436,185.33896124231615 80.59195502549846,185.48287902331867 80.5375395619485,185.57313209435233 80.47475248863338,185.77071192376206 80.35754995175375,185.8902347125586 80.47684539108013,185.96585085476363" stroke="red" stroke-dasharray="none" stroke-linecap="round" stroke-linejoin="round" stroke-width="0.5"><title>2024-05-01 52.5km</title><desc>1714541844000</desc></polyline><polyline fill="none" opacity="1" points="186.0,148.15083770111232 185.7675711957054,148.19926021596712 185.56966152076347,148.23423191769325 185.2992616741758,148.2759288211173 185.01620481350255,148.28265411533357 184.7561607057287,148.28265411533357 184.58011314603937,148.2692035233522 184.3603413558376,148.2893794059928 184.0646274810715,148.29072446370174 183.7988301850637,148.28668929015475 183.52727970083652,148.3028299766529 183.27183814364253,148.31090031222993 182.99108255825558,148.30686514508216 182.72988781283493,148.2692035233522 182.51701984849933,148.25306279421875 182.22475788666634,148.2597881005113 181.9796720682789,148.353942015563 181.77025601687637,148.37680786126384 181.55623741490126,148.3875682450289 181.4342698245382,148.13200667337242 181.3479720011528,147.92082824012505 181.26397545306827,147.73654865564185 181.17997890497645,147.5038414270648 181.10518745805166,147.31686548456764 181.0568606769666,147.19041976513836 180.9533032889085,146.92810814947643 180.85549908908433,146.69135045933035 180.7553936139666,146.46400512269884 180.45852910154645,145.64203039974018 180.2882347300838,145.6770091292774 180.17086969029333,145.4536817415028 180.1259948221341,145.35008879091401 179.95454981302464,145.51018663175 179.73132610988978,145.5357482853724 179.54147089846083,145.45233638391346 179.42870840924297,145.43215600301664 179.14450091093022,145.42946528314133 178.9707546265272,145.4604085273104 178.7187649822663,145.54516572376178 178.5565250743166,145.60301554950547 178.42190046984615,145.6460664119004 178.15150062326575,145.74293031969864 177.88225141433213,145.8438294394864 177.75913318630774,145.90571383708811 177.5646754243062,146.02006464941132 177.47147377505462,146.07253114878404 177.21833349314693,146.2110954787713 177.07220251222316,146.24741791760334 176.83286988206237,146.32275301576465 176.65106913414638,146.37252774664285 176.38872375107894,146.45593361597093 176.2115255537501,146.517815036731 176.02627289290103,146.65502928762544 175.78578962508618,146.8218367765594 175.60744079010328,146.88640683045014 175.4198868539679,146.96577373953642 175.14718573209393,147.0828053973637 174.90785310192587,147.1917649389743 174.74101064340357,147.27651060421067 174.52469076613488,147.3733621021047 174.3958193498911,147.4352390621425 174.16914373382315,147.60741684610184 173.93441365423496,147.77017651604365 173.81129542621784,147.8401221811073 173.5454981302173,147.93024391367817 173.33953399176244,148.01094940131043 173.12551538978005,148.05399211882832 172.82059641384694,148.1158657702781 172.6641096941239,148.12393622438321 172.38795665932412,148.1400771172439 172.13366573976236,148.0701331003729 171.96682328124007,148.02171009433187 171.76085914277792,147.8939262773083 171.54223799022293,147.72175236892144 171.34202703998744,147.88182037548995 171.13491226388578,148.0001886991904 170.9370025889366,148.09434453431913 170.65394572826335,148.19522501342453 170.36283440406987,148.30148492022727 170.11774858567514,148.38353310218372 169.9773707929853,148.44271506908808 169.77946111803612,148.5462828491518 169.60571483364038,148.6094991319851 169.3491226387996,148.64043464536644 169.12359766037116,148.69558037408115 168.98897305590071,148.7130655552637 168.79681656918547,148.76955597650158 168.53447118611803,148.89598601102898 168.34231469940278,149.01165494288125 168.0512033752093,149.15018728065934 167.92003068367194,149.23222999336213 167.67839677821758,149.34520597844858 167.42065394573,149.498528926345 167.22734682136797,149.62091697202777 167.1168856074437,149.68143809840876 166.85108831144316,149.74733855335217 166.5530731613835,149.84148146881034 166.2688656630562,149.9262094976657 166.05714833637467,149.97731502029274 165.78674848979426,150.05935240407507 165.52325246908003,150.18980420472053 165.2447981589794,150.33370309464226 165.11937865567597,150.38884149075966 164.88234730080148,150.49239344321632 164.6660274235328,150.59191011066468 164.480774762691,150.6578058544428 164.30127529005404,150.74790764620138 164.2333876690027,150.77883796507285 164.13673410681804,150.81245779169421 163.906606577817,150.92004064056164 163.66267139706906,151.05182839209556 163.4221881292542,151.17420151192255 163.17710231086676,151.30598663392448 162.92626330425264,151.44314929252687 162.7720778598159,151.50904063278267 162.54770351903426,151.61930701122583 162.35439639467222,151.72150426585904 162.13462460447045,151.82773475364684 162.02761530347925,151.63813288289384 161.91370217662188,151.40280748742225 161.781378847445,151.17285675875155 161.68702656055393,151.03703595730803 161.5454981302173,150.83531922311067 161.41547607632674,150.6389785338706 161.33493144117529,150.52063473867656 161.14162431681325,150.60401343610192 160.9184006136784,150.73580445750213 160.76076325630856,150.8057338334711 160.49956851088064,150.90255848945344 160.22341547608085,150.89448979623467 160.08188704573695,150.8447327417698 159.81493911208963,150.68201236858113 159.4939112091306,150.56232415561954 159.16482884265133,150.50987615731265 158.89442899607093,150.47625553198395 158.62402914949053,150.45608311418073 158.3731901428764,150.4009450091753 158.20634768433956,150.38615181843852 158.011889922338,150.35791022477224 157.75299645220366,150.33639277804104 157.47914469269017,150.30680622942236 157.2029916578831,150.283943849322 156.92798926071555,150.25839172888027 156.68405407997489,150.23283955717216 156.44817336274718,150.21132189912169 156.20538881964603,150.22342558624678 155.97641192827723,150.32294435536824 155.86480007671344,150.31084076282605 155.75779077572952,150.14004439716973 155.62546744654537,149.9288992671245 155.50234921852825,149.73254460335738 155.40914756928396,149.58729399974254 155.2940838047798,149.4030385352944 155.18362259085552,149.23088503511735 155.0570524499053,149.03048466953715 154.89596317959513,148.77762601621907 154.74753092338506,148.55166297055257 154.6175088694945,148.34587170727173 154.45526896155206,148.33780139386545 154.29993287946854,148.4198493417598 154.11468021861947,148.52745240635522 153.86959440023202,148.63101949707834 153.7292166075349,148.69020031350374 153.49908907853387,148.79376608030088 153.24940070955927,148.88926104080747 152.99856170294515,149.017034867622 152.92031834308,149.06545408802413 152.7546265222045,149.13808257338223 152.52219771790988,149.23088503511735 152.3231374053139,149.30351257684652 152.10106433982583,149.3828644173891 151.96874101064896,149.42052274495836 151.62930290536315,149.8239978371348 151.4739668232869,149.8872077766273 150.68002684821113,149.84013657491505 150.51663630262192,149.83072231369624 150.27960494774743,149.87241398912283 149.9942468117806,149.91679530007605 149.73880525457935,149.94772763745095 149.4960207114782,149.9719355012503 149.27279700834333,149.9853842945913 149.03461501582206,149.9974881964472 148.80103557388065,149.99614331903285 148.4834595838547,150.00824721066874 148.29705628535885,150.02438571495168 148.15207594208914,150.0163164653668 147.8391025026358,150.0136267143689 147.52843033847603,150.03111008570158 147.21430626139045,150.02573058938742 146.88867580784427,150.0136267143689 146.58951002013782,150.0109369628026 146.30185060887743,150.00959208680433 146.0187937482042,150.0069023343849 145.73343561223737,150.00286770469756 145.45613193978352,150.00286770469756 145.18112954262324,150.0069023343849 144.92223607249616,150.00286770469756 144.6483843129754,150.0069023343849 144.38373765462165,150.0015228278471 144.1029820692347,150.00286770469756 143.85444433789962,149.9974881964472 143.6726435899909,150.0015228278471 143.35967015054484,150.0042125814025 143.06510691341828,150.0069023343849 142.78895387860393,150.00959208680433 142.5185540320308,150.0109369628026 142.2826733148031,150.00824721066874 142.11928276920662,150.0042125814025 141.81091188033315,150.0042125814025 141.54511458433262,150.00824721066874 141.25170198485284,150.00555745796373 141.03768338287773,150.01228183865805 140.8305686067688,150.00555745796373 140.5037875155831,150.00959208680433 140.22188129254937,150.01900621579443 140.00556141528796,150.01497158993698 139.70639562757424,150.017661340652 139.4014766516484,150.01900621579443 139.12417297919455,150.02438571495168 138.87793652315304,150.01900621579443 138.62479624125262,150.017661340652 138.36360149583197,150.02304084037678 138.13577524211723,150.02573058938742 137.88033368492324,150.02438571495168 137.57426407133607,150.02573058938742 137.34298590468825,150.03514470644677 137.08754434749426,150.03111008570158 136.77917345862807,150.02573058938742 136.46159746860212,150.02438571495168 136.33617796529143,150.03111008570158 136.00364368587907,150.03648957974292 135.7804199827442,150.03783445290173 135.59401668424834,150.03783445290173 135.25457857896254,150.03783445290173 134.97497363122238,150.03111008570158 134.70112187170162,150.03245495942429 134.4295713874817,150.03648957974292 134.1637740914739,150.04724856101257 133.89452488254028,150.04724856101257 133.63102886182605,150.0485934330327 133.41125707162428,150.0539729196871 133.18112954262324,150.05935240407507 132.90152459488309,150.0539729196871 132.65183622590848,150.05262804823815 132.44472144980682,150.0539729196871 132.1444050244536,150.05800753319272 131.8740051778732,150.05800753319272 131.75548950042867,150.06338701587174 131.712915907563,149.9020015469423 131.61626234538562,149.85358550744604 131.33780803528498,149.844171256168 131.1157349697969,149.81996314949083 130.93738613482128,149.82668762818594 130.65087736120768,149.81996314949083 130.3620673123005,149.8105488733563 130.09281810336688,149.791720300208 129.8178157062066,149.77423660021304 129.5474158596262,149.76616719211688 129.26435899894568,149.76616719211688 128.98360341355874,149.77558150106597 128.70629974110489,149.78499580305197 128.4508581839109,149.79306519921192 128.18275961262407,149.7997896921106 127.92271550484293,149.80382438614197 127.68108159938856,149.81189377037117 127.44980343273346,149.81861825332817 127.33358903058979,149.82130804551343 127.06318918400939,149.83072231369624 126.78473487390875,149.8387916808806 126.62249496595905,149.85493039991707 126.6270975165462,150.15080329094963 126.6132898647993,150.43053133910144 126.60063285070646,150.7115980455992 126.55690862019401,150.96038397462326 126.52354012849537,151.1042741588326 126.40157253811776,151.37994707448797 126.27039984658768,151.65561402453113 126.14728161857056,151.91782827062616 126.02991657877283,152.1840710601573 125.95512513184804,152.4704775463133 125.95052258126088,152.74612090179107 126.00690382587345,153.10512062460748 126.06213443283195,153.41032966324838 126.10931057628477,153.6765412705654 126.07249017163849,153.8956910975694 125.79633713683143,153.93199162537894 125.52363601495745,153.97232542391066 125.2624412695368,154.00593682518775 125.03001246524218,154.03954813783093 124.9586729312432,154.05433708731744 124.71473775050254,154.08525938078583 124.49036340972089,154.1296260186491 124.23722312782047,154.16054812947004 124.12561127625668,154.15651481492114 124.08303768338374,154.15785925324508 124.29360437242576,154.16592588021467 124.55249784255284,154.12155936870477 124.81599386326707,154.082570488682 125.02886182759539,154.0529926380732 125.22331958961149,154.0287925274306 125.47070668328524,153.9911478195445 125.74110652987292,153.9508140805765 125.92175664014212,153.9266137759305 125.92750982836151,153.81636736218115 125.86882730846992,153.57301519514567 125.82050052737759,153.37806121176436 125.78022820979822,153.20730596252997 125.72729887812602,153.01503550237612 125.65710998178838,152.72191830937481 125.59727682424273,152.45703137644068 125.54089557963744,152.1961728729366 125.50292453735165,152.02674644791932 125.43618755393982,151.76318975274262 125.3176718764953,151.53996910353362 125.18649918496521,151.31271032808127 125.11861156391387,151.04644932688643 125.15658260619239,150.8366640119175 125.224470227251,150.59863418177065 125.28890593537653,150.37808279806904 125.36024546936824,150.11987144682553 125.42468117747921,149.90334643430106 125.48221305973857,149.69623210777627 125.39016204813379,149.5644303278823 125.13126857800671,149.49987385631448 124.89078531019913,149.4380069306144 124.61808418832516,149.36672510005337 124.36379326877068,149.30620247784373 124.10605043628311,149.24029973982215 123.86211525554245,149.17977651668116 123.66650685588684,149.13001276213254 123.39610700929916,149.0573842307449 123.13606290152529,148.9847552850606 122.9197430242566,148.92961080885743 122.67465720586915,148.86505111859242 122.39160034519591,148.7910760710438 122.14191197622131,148.7292057011955 121.85885511554079,148.65522986431915 121.61607057243964,148.6041190350279 121.39169623166526,148.5422477566135 121.15351423914399,148.4090889852796 120.97861731709418,148.2436473594389 120.7933646562451,148.060717530293 120.59315370601689,147.86298894978063 120.4113529581009,147.68946950182635 120.21689519609208,147.53746990227137 119.94189279892453,147.444655094906 119.67954741585709,147.45272597459007 119.50580113146134,147.50518656778058 119.30098763065325,147.6370096681694 119.06970946399815,147.83743197032527 118.84993767379638,148.00422396355225 118.62096078243485,148.1131756177756 118.37932687698049,148.18311939814703 118.142295522106,148.20867568357517 117.92252373190422,148.2167460788387 117.77639275098772,148.22616153351373 117.50944481734041,148.2436473594389 117.25630453543272,148.26113316134524 117.01582126762514,148.2799639980749 116.75807843513758,148.2974497500927 116.49918496500322,148.31897064269106 116.2886182759612,148.32973107534144 116.04238181992696,148.35125191336374 115.77198197334656,148.37277271500807 115.52804679259862,148.39429348026806 115.28411161185068,148.41850429769602 115.03327260523656,148.4306096891487 114.77668041039578,148.4736509877439 114.53389586729463,148.57721851614406 114.33023300412606,148.73593075596 114.16569182088278,148.93902573633477 114.08514718573133,149.0950435209552 114.02761530347925,149.2887181112037 114.00115063765406,149.5778795515953 114.02186211525259,149.8764486601467 114.04372423051245,150.16021731555338 114.06673698341183,150.45608311418073 114.08514718573133,150.72101165569438 114.11046121392428,150.99803763779164 114.13002205389057,151.28850501250054 114.15073353150365,151.60182581977097 114.15303480678995,151.90841554492636 114.15073353150365,152.14776555283788 114.13002205389057,152.47182216252259 114.1058586633444,152.77704636964882 114.0897497363112,153.0499939836327 114.06673698341183,153.3296583813435 114.04832678109233,153.5985606685299 114.02646466583974,153.88896876625586 114.02876594112604,154.1739925020811 114.12081695273082,154.44556579255277 114.23933263016079,154.6297483454009" stroke="red" stroke-dasharray="none" stroke-linecap="round" stroke-linejoin="round" stroke-width="0.5"><title>2024-04-21 79.4km</title><desc>1713660889000</desc></polyline><polyline fill="none" opacity="1" points="19.297801872671698,194.42708764811323 19.436086116867955,194.32574553940503 19.815851802421093,194.3595262922954 20.420587377782795,194.1882091008374 20.585702893236885,194.89277298345405 20.70128375406057,195.57318732731255 20.775585736017092,196.23669242588585 20.767329960239294,196.48520028167331 21.431919909962744,196.35008954993282 22.003632382227806,196.50450174951584 22.09238197178638,196.85192538092815 22.016016045890865,197.30308568016153 21.817877427340136,197.53469392225816 22.024271821661387,197.29826048346695 22.07793436418433,196.74094340657393 21.60735514512635,196.3042482271685 21.987120830686763,196.17878729428048 22.37720623594214,196.03643655484848 23.064499569045438,195.73966860037035 23.786879949169816,195.4525479651038 24.377167916929466,195.29089022037078 25.130507456196938,195.0930388855304 25.582511179767607,195.12199284650524 25.764138246777293,195.84100443313764 25.929253762231383,196.5213905204928 26.110880829233793,197.14144103610852 26.342042550873884,197.80731311430463 26.595907655879273,198.55036483206277 26.83738909724343,199.28133043479647 27.11395758562867,200.06051883484724 27.324479867849732,200.67806104073316 27.565961309199338,201.38483690853172 27.81982641421928,202.13500853580445 28.06543574346142,202.86827146890755 28.255318586234353,203.4037315096175 28.439009597175755,203.92711951456477 28.64746793545055,204.5542045667662 28.87862965709064,205.23674297342586 29.11391926660872,205.93373112691734 29.35746465191187,206.62346318931304 29.549411438623792,207.17571616863643 29.80534048759,207.93534367028042 30.01792671374278,208.56955301617018 30.19542589285993,208.95296382342713 30.831120627364726,208.7045915180861 31.34710661317513,208.75764213996626 31.716552579011477,209.4183532105344 32.05297544175119,209.87408804394363 32.25111406030919,210.62398115311225 32.41416563181701,211.22677129441217 32.70311778385803,211.88499998553743 33.0003257116914,212.64929305448277 33.33674857443111,213.43525866701566 33.49154437016841,213.85957243806115 33.76192102673667,214.50808226050867 33.9827630286527,215.06737708725814 34.1809016472107,215.68451413735056 34.35840082632785,216.2968133585291 34.59781832374574,217.0440854898352 34.83929976509535,217.83231062359118 35.053949935194396,218.65907418557617 35.173658683896065,219.19416471651857 35.20255389910017,219.8256518686685 35.241768834028335,220.4137387463852 35.30162320838281,221.05724273862688 35.42752378890873,221.87906986030612 35.526593098184094,222.51289292419824 35.644237902954046,223.1876662649247 35.7247317167421,223.89615688167396 35.78871397898183,224.40943741719093 35.82999285784172,225.08656457019242 35.898103007959435,225.8190924085684 35.95795738232118,226.53473021613536 36.00749203695159,227.0069907380257 36.0632185234208,227.73945719393123 36.10862529017322,228.24542364201807 36.13339261749934,228.6839188630911 36.15609600087191,229.44524228960654 36.18086332818348,230.05958295104392 36.189119103961275,231.02081236888625 36.193246991846536,231.85914497808153 36.18705516001501,232.5721853764935 36.23452587070642,233.0443215485284 36.26961291774205,233.8006827099598 36.26754897380306,234.52088878687027 36.2180143191581,235.12064180915877 36.36249039518589,235.37836218686243 37.1178938784069,235.45061971703035 37.86091369797214,235.51324272573947 38.515183927964245,235.56863986019744 39.20247726105299,235.61681117272929 39.96407257609826,235.6722080570962 40.55229659991892,235.722787704266 41.28912458765262,235.78781851534768 41.95990636919305,235.8432149868022 42.67815886143944,235.9010198578908 43.31591753988323,235.94678194421613 43.92478100313747,235.9973609860608 44.47998192386149,236.04071436175946 45.11774060231255,236.09370170968577 45.668813635158585,236.1322378858622 46.23846216349193,236.1731825021343 46.30657231360965,236.78975141838055 46.292124706014874,237.65677342689924 46.27561315445928,238.42743215682458 46.27148526657402,239.0126338428745 46.263229490803496,239.70859502427993 46.242590051369916,240.81630978390058 46.22195061194361,241.70966688105545 46.170352013352385,242.59095006456118 45.91855085228599,243.27476398327053 45.594511653194786,243.814095808586 45.44384374534275,244.13431808692803 45.621342924459896,243.85984212172662 46.01142832972255,243.72260290892154 46.56250136256858,244.12468740683835 47.072295516547456,244.550841136288 47.674967147970165,244.87586832636953 48.07537227294961,245.22255892607973 48.723450671110186,245.42960776062318 49.43963921941031,245.67035987257805 50.13312438433786,246.0146310085238 50.82454560531187,246.25537698897278 51.46643217165547,246.61889863822398 51.92462772704312,246.87167520227922 52.64288021928223,247.09074597470135 53.26206340225326,247.28333393927824 53.672788246949494,247.48314224619025 54.11034436291084,247.69498530025703 54.77493431263429,248.01033895586443 55.45190792600624,248.10181477892002 56.12062576360768,248.1307018052794 56.64693146913487,248.19810472554127 57.39614312052436,248.37864728784007 58.007070527703036,248.6289972935101 58.626253710674064,248.8889732586067 59.32799465137214,249.17301770996164 60.02973559207021,249.4618728733367 60.66955821446027,249.69295438989138 61.385746762753115,250.06123575437414 61.893476972792996,250.32600955926318 62.33309703269333,250.54023340536878 62.89242584130261,250.82425744854845 63.49922536061058,251.1564167076267 64.03172289795475,251.43321242352795 64.59311565051757,251.70759793037905 65.19578728193301,252.02048968683266 65.79845891335572,252.31652950460375 66.43208970391424,252.636633310447 66.93775597000058,252.90378420240268 67.57138676057366,253.21906639648114 68.24629643000662,253.56322446650483 68.81800890227169,253.8664643707889 69.29684389710019,254.12156785950538 69.85410876177048,254.40554765946945 70.40518179461651,254.69915020586632 70.83654607874632,254.91573984551906 71.41651432678918,255.20692936831074 71.95107580807962,255.4836763238127 72.35354487701261,255.77726510562388 72.85301931126742,256.20079641709526 73.27406387568044,256.62431992936945 73.7281315431901,257.0767114305363 74.33286711855908,257.7023445903542 74.87155648773478,258.2509627430409 75.40405402507895,258.7755064610865 75.8684414123054,259.2422921899997 76.2688465372994,259.69222617117157 76.5681184090572,259.96891917019275 76.84881478533498,260.233578925463 77.11093566612544,260.5607904146109 77.23477230271965,260.7316122111188 77.63724137164536,261.0660343104846 78.0665417118289,261.4605980200249 78.54950459453539,261.95619894835545 79.16868777750642,262.6009453482293 79.62481938896235,263.05803073588686 80.09952649589832,263.5608141791181 80.20685158095148,263.7412361822644 80.31624060993636,263.96976868962884 80.49167584511451,264.1333484596671 80.72902939857886,264.4244213527163 80.75173278196598,264.5134263786822 80.81365110025945,264.7323291679113 80.6671110802854,264.8983090163183 80.5701057149563,265.11720814616274 80.45039696625463,265.42029581330826 80.3987983676634,265.745028172254 80.3121127220511,265.95189232406847 80.33688004937721,265.65843332433724 80.44420513441582,265.4130794866451 80.39054259189288,265.0883424459644 80.70013418337476,264.60002553313825 80.73728517436393,264.352254862828 80.62789614537178,264.2175434764504 80.38022287217609,263.9842022455068 80.57423360284156,263.7243968551338 80.4091180873802,263.60892685155886 80.04380000944366,263.31784364712075 79.6021160055825,262.851140579578 79.28633258227637,262.53117888535417 78.76415476464172,262.0091265721003 78.29357554558374,261.5351794244325 77.90555408426007,261.13339932515737 77.39988781817374,260.6474044417446 76.97677930981445,260.20711308691716 76.55573474540142,259.76440727431145 76.15945750830724,259.36981447921244 75.80652309401194,259.0233371768609 75.35451937044127,258.5469223662094 74.8880680392831,258.0825287371081 74.44844797936821,257.6445945500018 74.01295580735314,257.20183942381846 73.6620853370041,256.860142141255 73.30502303483081,256.48956329413886 72.86746691886947,256.0491923552672 72.43610263473965,255.6473164350209 72.07078455678857,255.41388827514675 71.45572926171008,255.07216442768367 70.76430804073607,254.70396333113422 70.11416569862195,254.3911080932612 69.51768589903077,254.0830618539021 68.95010131463641,253.799078071017 68.2958310846443,253.48380383066615 67.6704560698563,253.15408492394636 67.2122605144541,252.9158179533024 66.48988013432245,252.55720947363443 65.8706969513587,252.2395113823277 65.2845368714843,251.9194020466075 64.6612258006353,251.6041020274206 64.07093783288292,251.29361152255842 63.50954508032737,251.0047793804806 62.95847204748861,250.7424203723367 62.30626576142822,250.40303409337503 61.72423356943909,250.13104005356945 61.138073489564704,249.81330842617353 60.55397735363658,249.51001504756823 60.09784574218793,249.2717102991246 59.52819721386186,248.98766706770584 58.9771241810231,248.69880594337337 58.459074251273705,248.44364226300422 57.89561755477189,248.1571815475363 57.70573471199896,248.23421335149214 57.334224802223616,248.3425388888718 56.73568105868617,248.21495542470984 56.22795084866084,248.12107280052805 55.546849347396346,248.087371252117 54.85542812641506,248.00793169243298 54.42199989833898,247.81534980168908 54.0339784370226,247.62998820729808 53.43543469347787,247.34351734713346 52.89468138036318,247.14370782589322 52.34980017934868,246.9800071640184 51.92669167099666,246.85241613337348 51.45404850799241,246.59241712294533 50.8307374371434,246.2433397498753 50.252833133046806,246.04111318987452 49.738911091175396,245.7931424780545 49.1919659462219,245.5331314780051 48.61199769817904,245.36701179817646 48.12490692758729,245.22255892607973 47.93708802875335,244.89512905254014 47.51810740827932,244.86383036432017 47.06610368471593,244.53398774914422 46.64505912029563,244.16321010296633 46.22607849982887,243.87669600359914 45.80090604752331,243.56610105130676 45.53259333490132,243.90799603711275 45.113612714434566,243.85502672463736 44.61620222412603,243.55406240269986 44.15800666871655,243.20975438103596 43.7080668891067,242.8798880075592 43.235423726102454,242.51871501070855 42.7565887312885,242.19124658296641 42.31696867136634,241.8083915430725 41.86909283568821,241.54351954023514 41.42947277578787,241.31235602236666 40.96921327644668,241.10286207377067 40.541976880209404,240.96079037711752 40.07758949298295,240.79704563610358 39.627649713351275,240.65978811511195 39.19215754134348,240.54179415158796 38.752537481435866,240.42620764009007 38.36245207615866,240.3732302944718 37.70818184617383,240.3611899716052 37.14266120573302,240.3298851025811 36.55856506979762,240.3058044050449 36.03638725216297,240.21911368476503 36.03638725216297,239.79769579708773 36.04464302792621,239.40516817647222 36.04670697187976,239.0102256360533 36.05909063553554,238.4153908131957 36.07766613103013,237.91205699772763 36.09004979468591,237.42075401413786 36.13339261749934,236.8860888149229 36.17467149635195,236.4068062676597 36.22214220705064,235.86730036745757 36.25929319803254,235.44580255543224 36.308827852677496,234.93758632436766 36.339787011813314,234.44621964228645 36.339787011813314,233.94520748213108 36.30469996477768,233.47068106660663 36.286124469283095,232.89979109956766 36.28406052535138,232.5529143058684 36.28406052535138,232.06390546976036 36.28199658140511,231.45925451052244 36.27580474957358,230.8304969618166 36.27580474957358,230.31013284776782 36.25929319803254,229.8018027957405 36.242781646491494,229.34405518983112 36.2180143191581,228.66946311038737 36.20150276762433,228.29120100779073 36.147840225094114,227.61657794233724 36.0921137386249,227.05277057732928 36.05496274765028,226.57569197337034 35.99923626118107,225.9612579269724 35.95795738232118,225.35403633070564 35.91048667162249,224.8552351242579 35.85269624121429,224.24075494169847 35.79284186685982,223.6310779237665 35.72679566068109,223.13464907908383 35.65662156660255,222.68640796742875 35.586447472538566,222.25261789482647 35.503889714804245,221.77543932607477 35.419268013145484,221.22353858300266 35.34702997512795,220.62342180855376 35.30987898415333,220.13656853402244 35.27479193711042,219.61596150139303 35.21287361882423,219.03026444100942 35.09522881406156,218.44214202934018 34.96932823351381,217.96006321174536 34.816596381722775,217.42494383613666 34.65354481020768,216.93079096143993 34.49049323869258,216.42698509738148 34.35427293844259,215.98102328600908 34.211860806361074,215.47478583470001 34.017850075695605,214.90826874322192 33.842414840524725,214.41165073640695 33.60918917493109,213.912611106216 33.47709676257364,213.51722898598746 33.245935040933546,213.00129326210845 33.0312848708345,212.47811291412108 32.82489047652052,211.95733165376987 32.62056002613099,211.42448300124306 32.387334360551904,211.17131526488265 31.86928443080251,211.38349412926073 31.363618164716172,211.566737928355 30.89510288960446,211.58843775472815 30.77126625301753,210.9711902142426 30.65568539218657,210.4117952433753 30.538040587423893,209.90784581849948 30.385308735625586,209.35807014509192 30.238768715658807,208.9119705220055 30.063333480487927,208.4103994722991 29.90853768474335,207.9787501938663 29.718654841977695,207.40481283493136 29.541155662860547,206.88873921105915 29.34508098824881,206.31718613579324 29.157262089422147,205.76491241717667 28.99214657396078,205.25603704914283 28.7878161235858,204.684443150687 28.59793328080559,204.13936561224364 28.436945653236762,203.65698526679262 28.273894081721664,203.19389055619286 28.08194729500974,202.65360153294932 27.916831779548374,202.16395357134388 27.73726865647768,201.63087661951795 27.5329382061027,201.04471882759572 27.36163085881708,200.5333260839525 27.198579287309258,200.06051883484724 27.019016164253117,199.53704225144793 26.886923751881113,199.12211219721212 26.68878513333766,198.57448948266028 26.494774402679468,197.9930783101281 26.309019447777246,197.43577818956146 26.09436927769275,196.8036724148733 25.958148977435485,196.2752957653829 25.83431234084128,195.74931965144788 25.68158048904297,195.20161604985697 25.632045834398014,194.79625866839342 25.109868016770633,194.9579199154632 24.5071963853552,195.12199284650524 23.943739688853384,195.29089022037078 23.4814162455732,195.45737355183155 22.870488838387246,195.69141328383375 22.385462011719937,195.8892594335266 22.11302141121996,195.97129270013647 22.141916626424063,195.9688799612086 21.768342772702454,196.11605656932443 21.11407254270307,196.24875597649225 20.806544895167463,195.95922900294136 20.75701024052978,195.53217001567828 20.686836146458518,195.0954517170194 20.573319229581102,194.44639085591734 20.408203714119736,194.0 19.879834064660827,194.28231306936868 19.41131878955639,194.26542264204545" stroke="red" stroke-dasharray="none" stroke-linecap="round" stroke-linejoin="round" stroke-width="0.5"><title>2024-04-05 108.1km</title><desc>1712276378000</desc></polyline></svg>