<?xml version="1.0" encoding="utf-8" ?>
<svg baseProfile="full" height="300mm" version="1.1" viewBox="0,0,200,300" width="200mm" xmlns="http://www.w3.org/2000/svg" xmlns:ev="http://www.w3.org/2001/xml-events" xmlns:xlink="http://www.w3.org/1999/xlink"><defs /><rect fill="#222222" height="300" width="200" x="0" y="0" /><text fill="#FFFFFF" style="font-size:12px; font-family:Arial; font-weight:bold;" x="10" y="20">Over 10km Runs</text><text fill="#FFFFFF" style="font-size:4px; font-family:Arial" x="10" y="280">Runner</text><text fill="#FFFFFF" style="font-size:9px; font-family:Arial" x="10" y="290">yihong0618</text><text fill="#FFFFFF" style="font-size:4px; font-family:Arial" x="65" y="280">SPECIAL TRACKS</text><rect fill="yellow" height="2.6" width="2.6" x="65" y="283" /><text fill="#FFFFFF" style="font-size:3px; font-family:Arial" x="70" y="285.5">Over 20.0 km</text><rect fill="red" height="2.6" width="2.6" x="65" y="287" /><text fill="#FFFFFF" style="font-size:3px; font-family:Arial" x="70" y="289.5">Over 40.0 km</text><text fill="#FFFFFF" style="font-size:4px; font-family:Arial" x="120" y="280">STATISTICS</text><text fill="#FFFFFF" style="font-size:3px; font-family:Arial" x="120" y="285">Number: 5</text><text fill="#FFFFFF" style="font-size:3px; font-family:Arial" x="120" y="290">Weekly: 1.2</text><text fill="#FFFFFF" style="font-size:3px; font-family:Arial" x="141" y="285">Total: 317.5 km</text><text fill="#FFFFFF" style="font-size:3px; font-family:Arial" x="141" y="290">Avg: 63.5 km</text><text fill="#FFFFFF" style="font-size:3px; font-family:Arial" x="167" y="285">Min: 18.7 km</text><text fill="#FFFFFF" style="font-size:3px; font-family:Arial" x="167" y="290">Max: 108.1 km</text><polyline fill="none" opacity="1" points="74.2305032654549,36.78931909610401 74.39646561653353,37.452229832604644 74.52093737991527,37.82410532938957 74.61774875142146,38.32532739483577 74.71456012292765,38.85888456304383 74.8252016903134,39.4247764958709 74.93584325769916,40.00683458572894 75.04648482520133,40.621226833580295 75.12946600071155,41.15477599436417 75.22627737221774,41.688323294350994 75.32308874378214,42.238036748138256 75.40606991923414,42.771580270229606 75.50288129079854,43.38596141495509 75.6135228581843,44.04884356712864 75.72416442562826,44.74405834842764 75.86246638494777,45.45543764512695 75.94544756051619,46.21531642210903 75.97310795233352,46.76501361031842 75.94544756051619,47.05602896923665 76.13907030347036,47.767397516348865 76.20822128310101,48.688938216655515 76.2635420668521,49.56197165491176 76.31886285054497,50.12782400054857 76.2635420668521,50.30566287699912 76.20822128310101,50.4996686882223 76.19439108716324,51.14635294927575 76.45716480980627,51.922370454863994 76.66461774869822,52.698384024814004 76.83058009983506,53.506727308558766 77.05186323472299,54.41206671688997 77.25931617361493,55.20423430518713 77.16250480210874,55.786232369122445 77.6465616596397,56.15806330664782 77.89550518628675,56.83705660041596 78.13061851705424,57.45138127016253 78.39339223969728,58.01720444211969 78.22742988856044,58.51836036151508 77.66039185546106,58.68002321125823 77.06569343060255,58.85785214869247 76.34652324242052,59.148844509691116 75.68267383793136,59.375171519015566 75.01882443332579,59.56916583205748 74.79754129849607,59.81165837746812 74.63157894735923,59.989485999933095 74.8252016903134,60.66846229408111 75.11563580483198,61.395933552106726 75.35074913559947,62.188064989226405 75.58586246636696,62.915529023943236 75.91778716864064,63.67532110174943 76.65078755281866,63.98247001999698 76.92739147134125,64.66142859938554 77.30080676142825,65.40504644460452 77.60507107182639,66.13249518857629 77.95082597003784,66.81144423011574 78.26892047637375,67.50655560483574 78.58701498270966,68.20166382266325 78.90510948904557,68.91293408011552 79.22320399532327,69.59187078796094 79.54129850171739,70.2869695355912 79.87322320399107,70.94973516915343 80.21897810214432,71.64482775046781 80.5094122166629,72.32375234083156 80.84133691893658,73.03500344375789 81.14560122933472,73.74625124190061 81.46369573567063,74.4251665117481 81.76796004606877,75.05558513764117 82.21052631578641,75.44353377082734 82.47330003837124,76.07394820274203 82.59777180175297,76.36490783415502 82.41797925473657,76.8175106060371 81.85094122163719,77.0761401605414 81.22858240490314,77.3347692781681 80.48175182478735,77.6903836014244 79.76258163654711,78.09448978416913 78.9327698808629,78.43393815333548 78.11678832117468,78.83804237324512 77.39761813287623,79.2744737326866 77.0933538225363,79.419950576048 76.34652324242052,79.77556005549559 75.6135228581843,80.11500469715975 75.00499423744623,80.42212062914041 74.28582404914778,80.76156383717898 73.45601229346357,81.14949801050534 72.7506723011611,81.4889396057988 72.0591625047382,81.81221661588643 71.60276603914099,81.99001868047344 71.16019976948155,82.20014812692534 70.57933154050261,82.49109611517633 70.02612370339921,82.83053473586915 69.41759508254472,83.21846366659156 68.72608528618002,83.70337344774453 67.97925470612245,84.25293600973964 67.27391471381998,84.75400603812886 66.59623511333484,85.15809357627586 66.00153668841813,85.57834348453616 65.3653476756881,85.9501020572643 64.97810218977975,86.12789931643056 64.99193238565931,86.11173593773856 64.59085670381319,86.35418643856246 63.940837495203596,86.64512653269048 63.23549750284292,86.93606607404945 62.55781790241599,87.16235200176015 61.85247791005531,87.40480083884904 61.06415674218442,87.7119021481194 60.44179792545037,87.90586055236054 59.70879754127236,88.16447137587238 58.865155589650385,88.4715711614117 58.04917402990395,88.7463441316504 57.205532078340184,89.03727968031308 56.47253169422038,89.31205163532286 55.67038033035351,89.57066008374386 54.82673837878974,89.87775704894739 54.1075681905495,90.10403862917155 53.47137917787768,90.28183106472716 52.93200153671205,90.47578621357388 52.60007683438016,90.55660078646906 51.97771801770432,90.79904424901179 51.34152900497429,91.07381304255978 50.594698424916714,91.36474416889541 49.79254706110805,91.62334915045358 49.018056089116726,91.88195369527966 48.17441413749475,92.1890460249997 47.37226277368609,92.49613773880992 46.61160199769074,92.80322883679764 45.837111025699414,93.07799403394165 45.048789857828524,93.33659612212796 44.260468689957634,93.62752294924576 43.40299654239789,93.86996154967346 42.72531694202917,94.12856230030593 42.50403380714124,94.1447248327604 41.85401459853165,94.4033251193905 41.065693430718966,94.67808744545619 40.29120245866943,95.00133660963911 39.51671148673631,95.29226027404366 38.89435267000226,95.48620907652366 38.14752208994469,95.69632000205456 37.23472915869206,96.0195670168614 36.44640799082117,96.37513794499682 35.83787936990848,96.8115193193662 35.353822512493934,97.24789945020166 34.96657702646917,97.65195401820529 34.745293891697656,97.94287264700688 34.17825585859828,98.37924955398194 33.44525547447847,98.78330113689299 32.65693430660758,98.99340753868455 31.951594314246904,99.12270364274445 31.315405301575083,99.20351365224633 30.859008835977875,99.23583764418436 30.084517863986548,99.44594342511846 29.116404149099253,99.60756306044641 28.245101805659942,99.78534446237609 27.34613907028688,99.9469637395232 26.488666922727134,100.07625903842563 25.645024971221574,100.22171611928206 24.773722627782263,100.35101118622697 23.8747598924092,100.4964680060948 23.100268920476083,100.64192468780675 22.36726853629807,100.77121940001962 21.49596619285876,100.90051400304947 20.63849404535722,101.04597030098375 19.822512485610787,101.17526467209973 18.96504033805104,101.27223537878308 18.17671917018015,101.46617660793709 17.31924702267861,101.59547062423371 16.53092585480772,101.74092626213678 15.714944295061287,101.87022004653409 14.88513253943529,101.96719031315297 14.304264310398139,102.08032221329631 14.0,102.16113066229445 14.373415290086996,102.12880728782329 14.650019208609592,102.64598046056926 14.968113714945503,103.24395976455708 15.1064156742068,103.47022159502376 15.424510180542711,104.00355173001299 15.631963119492866,104.45607281241973 15.618132923555095,104.7308171029872 15.81175566650927,105.15101329996833 15.894736842077691,105.32878826698288 15.714944295061287,104.8924311613082 15.604302727617323,104.55304144184629 15.43834037653869,104.19748950049689 15.300038417219184,103.92274425318465 15.17556665383745,103.68032156690606 14.981943910825066,103.3086060359492 14.70533999230247,102.80759671893611 14.608528620854486,102.48436403171218 15.147906262020115,102.38739409251139 15.880906646198127,102.25810074475885 16.558586246625055,102.14496897593199 17.31924702267861,102.01567542349221 18.079907798732165,101.88638176191307 18.868228966544848,101.74092626213678 19.642719938536175,101.62779411127849 20.417210910469294,101.54698538093362 21.164041490585078,101.38536779228889 21.938532462576404,101.23991181666497 22.643872454878874,101.12677929570782 23.32155205536401,101.01364669116447 24.096043027297128,100.86819036255474 24.925854782923125,100.75505756693019 25.728006146731786,100.60960099268414 26.502497118723113,100.48030614401796 27.26315789477667,100.36717306190985 27.982328082958702,100.25403989621555 28.715328467194922,100.10858284613641 29.420668459497392,100.02777331414109 30.126008451799862,99.91463989773183 30.63772570108995,99.84999219367455 30.95582020742586,99.8661541222391 31.42604686896084,99.73685864591971 31.993084902060218,99.639886967052 32.573953130980954,99.54291522680433 33.32078371109674,99.38129552319879 34.03995389933698,99.05805560432782 34.67614291206701,98.70249090560537 35.118709181726445,98.31460120175325 35.50595466775121,97.86206197222054 35.907030349597335,97.39335921748716 36.36342681519454,96.97314173507039 36.97195543604903,96.64989673312812 37.74644640798215,96.35897564800689 38.47944679216016,96.13270331083913 39.22627737221774,95.80945653484378 40.02842873608461,95.53469623871206 40.872070687648375,95.25993544969242 41.70188244333258,94.9690117239661 42.55935459083412,94.66192496934673 43.333845562825445,94.38716261426453 44.108336534700356,94.12856230030593 44.896657702629454,93.86996154967346 45.643488282803446,93.59519777350943 46.34882827504771,93.32043350439926 47.026507875474636,93.07799403394165 47.745678063773084,92.86787951574661 48.464848252013326,92.60927663605253 49.19784863613313,92.35067331956816 49.958509412186686,92.09206956636626 50.663849404489156,91.84962815110339 50.968113714887295,91.78497704213078 51.50749135616934,91.62334915045358 51.89473684207769,91.46172108812607 52.12985017284518,91.39706981547351 52.655397618189454,91.20311583364673 53.26392623898573,91.02532446775876 53.983096427167766,90.73439269651135 54.71609681134578,90.44346037255309 55.490587783337105,90.16869044778286 56.22358816745691,89.8939200300374 56.956588551576715,89.6191491192003 57.71724932768848,89.34437771527155 58.381098732177634,89.11809501238167 58.934306569281034,88.94030122550612 59.29389166343026,88.7948334281391 59.750288129085675,88.64936549257254 60.427967729454394,88.42308176253573 61.077986938122194,88.1806345378136 61.67268536303891,87.97051329920941 62.22589320014231,87.76039177224447 62.806761429063044,87.56643318373244 63.470610833668616,87.34014785318868 64.16212063003331,87.06537235938595 64.78447944676736,86.77443306376517 65.1855551287299,86.59663655543409 65.78025355358841,86.28953300921421 66.40261237032246,85.83695823940798 67.01114099111874,85.43287249296554 67.60583941597724,85.0449491731124 68.17287744907662,84.60853426333051 68.60161352279829,84.25293600973964 69.14099116402213,83.88117331601097 69.63887821743265,83.54173702467233 70.15059546678094,83.21846366659156 70.74529389169766,82.86286218427995 71.43680368800415,82.49109611517633 72.18363426811993,82.18398433362017 72.9857856319286,81.79605278161762 73.80176719173323,81.44044799542462 74.59008835954592,81.05251455934194 75.24010756821372,80.74539989198092 75.8901267767651,80.43828460852092 76.62312716094311,80.08267666843312 77.35612754512113,79.75939600614947 78.1029581251787,79.43611466120637 78.84978870529449,79.12899675112567 79.52746830577962,78.82187822496053 80.19131771026878,78.49859490018571 80.91048789856723,78.15914667437028 81.57433730305638,77.8520262025122 82.22435651166597,77.52874082961353 82.98501728766132,77.14079748095537 83.81482904334553,76.78518188100134 84.49250864383066,76.47805865258852 84.7967729542288,76.34874342469266 85.37764118320774,76.02545487706084 85.97233960812446,75.68600116725429 85.58509412209969,75.34654670467717 84.9350749135483,75.66983668610919 84.34037648863159,75.91230372407881 83.71801767189754,76.23559251066763 83.06799846328795,76.57504500182404 82.5839416058152,76.33257901352772 82.3073376872344,75.63750771869672 81.86477141757496,74.87777501886012 81.50518632348394,74.08570925320964 81.17326162121026,73.32596885152452 80.77218593924772,72.55005986843025 80.4126008451567,71.8388065121253 80.08067614288302,71.24070454078901 79.77641183248488,70.52944510028465 79.4444871302112,69.78585215135536 79.09873223205796,69.00992522278102 78.76680752972607,68.25015962705947 78.40722243557684,67.55505162943155 78.1029581251787,66.90843670447066 77.77103342296323,66.2456535713136 77.5497502880753,65.63136420217052 77.38378793693846,65.25955628095835 77.24548597773537,65.06556918086426 76.9965424509719,64.61293165790266 76.7199385323911,64.03096716129221 76.20822128310101,63.67532110174943 75.72416442562826,63.1095188492327 75.46139070298523,62.28506039365311 75.24010756821372,61.5575933620421 74.96350364963291,60.83012287248857 74.7422205148032,60.264310100945295 74.99116404145025,59.69849523741868 75.79331540531712,59.45600251268479 76.56780637725024,59.2620080561901 77.34229734918335,58.9871821552515 78.1029581251787,58.712355760711944 78.72531694197096,58.51836036151508 78.57318478671368,57.66154440683022 78.42105263157282,57.20888498463319 78.17210910480935,56.51372683625959 77.86784479441121,55.6892328455433 77.56358048407128,54.89706776790263 77.31463695730781,54.040231536651845 77.14867460622918,53.23189107123471 76.9965424509719,52.47204714009422 76.96888205915457,51.647531371723744 76.95505186315859,51.13018587608531 76.95505186315859,50.920013768816716 76.73376872838708,50.28949571488192 76.51248559349915,49.62664060029783 76.45716480980627,48.64043621288147 76.4018440261134,47.73506265414471 76.37418363423785,47.18536895108991 76.33269304648275,46.61950572326896 76.2635420668521,45.972802328833495 76.19439108716324,45.293760822707554 76.09757971571526,44.63088406443421 75.95927775639575,43.984172264128574 75.84863618901,43.35362562672526 75.7518248175038,42.658404527101084 75.6135228581843,41.88234003302932 75.41990011523012,40.78290859397384 75.29542835184839,39.89365679725597 75.14329619664932,38.97206311712216 75.01882443332579,38.11513769636804 74.81137149437563,37.27437601452402 74.5071071840357,36.239586062554736 74.18901267758338,35.36647659573646 73.9538993468741,34.832907246018294 73.94006915099453,34.75206324280589 73.69112562423106,34.67121919686906 73.31771033420227,35.15628283166734 72.62620053783758,35.447320274222875 71.9208605455351,35.7868632573809 71.17402996541932,36.110236826352775 70.48252016899642,36.41744108371495 69.63887821743265,36.74081331967318 68.85055704956176,37.11269054595323 68.15904725313885,37.387555740817334 67.66116019972833,37.177364753893926 67.3568958893884,36.530621444035205 66.96965040336363,36.546790060107014" stroke="#4dd2ff" stroke-dasharray="none" stroke-linecap="round" stroke-linejoin="round" stroke-width="0.5"><title>2024-05-25 18.7km</title><desc>1716643451000</desc></polyline><polyline fill="none" opacity="1" points="180.33312977333844,105.02526554560973 180.45526965776662,104.84430783927382 180.52358518633991,104.88049949398555 180.48425200322527,104.89256336628205 180.57947970973328,104.86119728520316 180.54842719673616,104.88532504365685 180.52772552141687,104.83948228102781 180.54221669413528,104.8153544746674 180.6747074162413,104.73814532489814 180.71404059935594,104.88532504365685 180.56498853700032,105.13625223725467 180.58776037985808,105.17726892309292 180.52358518633991,105.33409675596158 180.60846205518465,105.44266924712974 180.69747925909905,105.45473282575949 180.66021624350105,105.53193957971598 180.61674272531673,105.60432067713373 180.5567078668755,105.6863523132979 180.45940999282902,105.78285974750906 180.49253267335735,105.97828606662006 180.47804150062439,105.88177944904419 180.52772552141687,105.71771727365194 180.5194448512775,105.60190797753967 180.4242171447695,105.58260637173044 180.48839233828767,105.41130391322804 180.59190071492776,105.21104731554624 180.51530451620783,105.17968166705577 180.37660329152277,105.31962038523307 180.06814832914097,105.19657086769075 179.8321492304094,105.08317171215458 179.66032532519603,104.94323156111204 179.8507807381975,104.59337747326754 180.03502564861992,104.33761871729075 180.29586675774772,104.033599907174 180.4221469772383,103.91295641279976 180.49460284088127,103.78266073083978 180.31656843307428,103.6692546313825 180.03295548108144,103.38453048006704 179.73692152391595,103.05878244107407 179.63548331480706,102.95743766933265 179.43053672907263,102.78370273989822 179.1531342796734,102.53757601843063 178.84674948483007,102.18285936262691 178.59211887831043,101.88122526523512 178.26710257567174,101.51925914557796 178.02282280680083,101.2827715484782 177.8158060535352,101.08489230944178 177.55910527947708,100.87494540839907 177.3024045054117,100.60949256986532 177.1326507677295,100.4381532073512 177.03121255863516,100.33197042880602 176.82626597288618,100.12925649502904 176.58819670661615,99.86138178007423 176.50331983778597,99.7648495891408 176.27560140917922,99.56937066578394 176.03546197538526,99.3159695969789 175.80153304419218,99.07704604061837 175.5386217675259,98.79709205945619 175.27778065839811,98.5364421961931 175.02522021940968,98.27578938858824 174.77265978042124,98.01754712917864 174.53459051415848,97.77136957413859 174.2758195725619,97.52760293634674 174.0460309764312,97.30314226945484 173.87834740627295,97.13901910935965 173.64855881014955,96.90731383681123 173.29248999452102,96.5332014534215 172.95091235162545,96.17597880566973 172.63210655158036,95.86943874504504 172.5141070022146,95.74633883414026 172.22635371515935,95.61116954780482 171.84958322419698,95.41806919327064 171.49558457609965,95.22738100675633 171.098112409818,95.01013937956486 170.7503242643288,94.82910312718195 170.40046595129388,94.65772083225238 170.01955512526183,94.46461249515778 169.6345039641892,94.26908865649239 169.31776833167532,94.1049439070539 168.94720834331383,93.93838407004478 168.58699919261562,93.76216728071267 168.23714087958797,93.57146540256872 167.87486156136583,93.39041785643713 167.53949442106386,93.21419687979687 167.33661800285336,93.11522286397849 167.06128572099988,92.97521011606841 166.7031467378256,92.79174384918224 166.33258674947865,92.60103394548423 165.94132508579787,92.40549430518331 165.59146677276294,92.20995300659342 165.21469628180785,92.0168241703359 164.84413629344635,91.83817855650705 164.50048848301958,91.65711740034567 164.1402793323141,91.47122646736716 163.763508841359,91.26843464922422 163.38466818286543,91.09702588804976 163.07828338802938,90.93285855575414 162.77189859317878,90.76869005439221 162.39512810222368,90.57554914422508 162.0659714645226,90.41137809826614 161.99558576840354,90.36792086098103 161.75958666967927,90.26893462577573 161.36625483846,90.06371790601588 160.96464233710867,89.86332805192251 160.5816613435527,89.65086461717146 160.21317152272968,89.46495750525719 159.81362918890954,89.26456244559085 159.4285780278151,89.05933678349174 159.06008820699935,88.88066824852467 158.70401939136354,88.70441279609622 158.33759973807173,88.51366907548254 157.9856712575056,88.33741081632616 157.8159175198307,88.35914135948588 157.7186196457842,88.5643732565295 157.64616378213395,88.74304424348338 157.5737079184837,88.87583934997929 157.5053923899104,88.99414707311007 157.44535753146192,89.12935515593381 157.3915331756143,89.25007598820594 157.432936526282,89.15349937296924 157.44121719639952,89.11003976408938 157.47226970939664,89.11003976408938 157.51574322758097,88.98931819833888 157.6606549548742,88.69716939250611 157.6523742847421,88.6005904604117 157.45363820160128,88.53298496712523 157.11620089376083,88.47503724362286 156.75392157553142,88.37604287888826 156.61936068590148,88.31809476075614 156.25915153520327,88.28429162456268 155.79957434294192,88.26497552448018 155.34413748574298,88.24083037660057 154.89698129866883,88.17563835097644 154.56989482849895,88.02110836838983 154.30077304924635,87.89313744220271 153.97782691414614,87.73860556528234 153.5762144127948,87.54543926186489 153.1539002361169,87.37158820434706 152.7274457243766,87.2460282915381 152.3030613801675,87.12046769455992 151.98632574766089,87.0166382225616 151.7710283242559,86.90314965985817 151.4460120216172,86.71963505661006 151.07338186571724,86.50472793953486 150.68419036956766,86.33811317720392 150.30327954355016,86.20530344571489 149.9161582149245,86.03144227652592 149.62840492787655,85.88655696665046 149.25991510705353,85.71269339210994 148.88107444856723,85.61368715918434 148.51672496279207,85.47362883473033 148.18342799003585,85.38428083806684 148.0550776030068,85.25146560805297 147.95984989649878,85.04137449882364 147.87290286013013,84.79264346726814 147.8936045354494,84.40625983951031 148.02195492247847,84.0246996469632 148.12753346664977,83.63105814094706 148.1751473198965,83.25190014568216 148.09027045106632,83.03937573700932 147.746622640625,82.8292644506364 147.41539583538543,82.63364187467778 147.51269370942464,82.32933678703375 147.21665975225187,82.14337058732053 146.86266110415454,81.94774218500243 146.5252237963141,81.76177290372107 146.34097888589895,81.56131082763932 146.3513297235695,81.17487298530432 146.35339989109343,80.74012266046157 146.3596103936943,80.44062321691854 146.3637507287567,80.18218104958942 146.3699612313576,79.9358129181619 146.3637507287567,79.73533494413641 146.3616805612255,79.43582242939374 146.3761717339512,78.88509570018141 146.38859273915295,78.44063996077239 146.40929441447952,77.99134445837262 146.40722424694832,77.55653400878873 146.411364582018,77.10963693136728 146.411364582018,76.71587718002047 146.43620659240696,76.33418951829663 146.3285578806972,76.31486339235926 146.11533062483795,76.2399745010589 145.6826656104895,76.20132207470851 145.33694763252424,76.18199583718524 144.89186161298858,76.14575909808445 144.455056263585,76.10952230193288 144.0782857726299,76.08778019684723 143.63734008814936,76.04671172008784 143.31439395304915,76.00564317003591 142.9189919542987,75.99356417077252 142.6540105101085,75.97665356115795 142.25446817628836,75.94283230465226 141.86320651260758,75.91142680767007 141.51334819957265,75.87760545529818 141.1220865358846,75.84861568512133 140.74117570985982,75.82204169705437 140.51138711372914,75.6456862713203 140.51345728126762,75.23740619506862 140.5341589565869,74.87743727837187 140.5279484539933,74.54887012957806 140.54450979426474,74.15023456844756 140.55486063192802,73.74192795452291 140.55900096698315,73.40126422843241 140.56107113451435,73.18864884974391 140.55693079944467,73.05817934901097 140.56107113451435,72.89629949538357 140.56935180464643,72.6788471528107 140.54450979426474,72.4396472016906 140.56107113451435,72.22460673852765 140.58591314490332,72.08205071661723 140.5755623072473,71.77518984108792 140.5817728098409,71.40066905174535 140.5755623072473,70.98506464988532 140.58591314490332,70.61053099347919 140.5714219721849,70.24324045173853 140.5755623072473,69.93393860331344 140.56314130205283,69.53039009299391 140.5776324747858,69.22591167899736 140.56314130205283,68.98184273739571 140.55279046438955,68.67494049012566 140.54450979426474,68.73293807912705 140.55693079944467,69.08575359359384 140.51552744879154,69.22591167899736 140.23398466434446,69.39506685119704 139.86549484352145,69.35398642379187 139.5466890434691,69.32015542846239 139.4990751902369,69.10991884169016 139.1533572122571,69.04950567384185 139.02500682523532,69.05433873310358 139.24237441616424,69.0640048485966 139.6274255772587,69.13408406438066 139.9876347279569,69.20174655280971 140.33128253838368,69.24766027085388 140.50931694619794,69.38540087488582 140.50931694619794,69.74303929250345 140.43893125008617,69.99434944751374 140.09114310458244,69.97501799464226 139.84065283313248,69.96293582833641 139.44525083438202,69.95327009072207 139.02500682523532,69.93393860331344 138.65237666933535,69.92185641542892 138.26732550825545,69.90494134172877 137.8243096562437,69.89527557974361 137.43511816009413,69.88560981369119 137.0086636483611,69.87594404357696 136.58427930414473,69.86627826939912 136.24477182877308,69.79620128511306 136.24477182877308,69.414398791645 136.23442099111708,68.97459312524916 136.22614032097772,68.73535464216366 136.21785965085292,68.54444537995005 136.19301764045667,68.2762031052007 136.16817563006043,67.90645862335441 136.13505294953939,67.56329175734027 136.10400043654954,67.19595253402258 136.08743909629266,67.01469746500698 136.058456750834,66.67151728630961 136.0211937352433,66.28482925571006 135.99221138978464,65.93438760874051 135.9652992118572,65.58877440640936 135.94252736899216,65.33016532420879 135.9114748560096,65.0425499364228 135.8721416728804,64.63891554885049 135.84522949496022,64.24010814327266 135.8141769819631,63.872715802350285 135.7665631287091,63.466643749239665 135.7065282702606,63.09440472953793 135.65684424948267,62.76808634264853 135.60509006116627,62.465935555646865 135.53677453257842,62.055004108156936 135.48295017672353,61.711749853106085 135.427055653352,61.38299449052829 135.39186280529248,61.12917279353678 135.34838928710087,60.75206109334613 135.3338981143752,60.488562705424556 135.30905610398622,60.14770250833317 135.28421409358998,59.77299219937595 135.26351241826342,59.45387924526767 135.2138283974782,59.08641035083383 135.14344270136644,58.735858885995185 135.0564956649905,58.387719721449685 134.97575913120818,58.05891677523141 134.88674192730105,57.737362281584865 134.7894440532691,57.40613226780442 134.67351467143453,57.07731526517273 134.5969184727146,56.84037068222642 134.4706382532313,56.45593498311064 134.40025255711953,56.218983987086176 134.29053367787128,55.81519451207896 134.21393747915863,55.55647536674405 134.1083589349946,55.237303805532065 133.97586821290315,54.88911158638257 133.84130732326594,54.55058630948042 133.76471112456784,54.38615794492216 133.61979939727462,54.03553470414954 133.52250152322813,53.72601456449229 133.4189931465953,53.47452637733659 133.2492394089204,53.09245251150969 133.1167486868144,52.75631897738094 132.97804746212933,52.41050739759703 132.8538374101554,52.100965339603135 132.74411853092897,51.820439242672364 132.63439965169528,51.537491343136935 132.54124211272574,51.28114237025147 132.4253127308839,51.19166139403933 132.11892793604056,51.341602291759045 131.75457845027995,51.47219517850317 131.4067903047835,51.619715878719944 131.0817740021448,51.701940119652136 130.86647657873255,51.556838319200324 130.78159970990237,51.150548396059094 130.70500351118244,50.79503881135679 130.63461781507795,50.42259429013575 130.54353044363233,50.04530666223582 130.4503729046628,49.643827115482054 130.33237335529702,49.29071279065647 130.23093514618813,48.995640487233686 130.14812844488188,48.77312443642586 130.02184822538402,48.386134858519654 129.89556800588616,48.02090745536043 129.75893694872502,47.616973686575875 129.6512882370298,47.30494812051802 129.54363952533458,46.9953371610718 129.40493830063497,46.58654753808878 129.2786580811371,46.22854827331139 129.15030769410805,45.82458293163472 129.03851864734315,45.49801892031064 128.91844893044617,45.1593550326852 128.8087300512052,44.83520062610478 128.67830949663767,44.462659304344925 128.57066078494245,44.14575250565758 128.46094190570875,43.838518068077974 128.34087218881177,43.47079899703567 128.25599531996704,43.21919833906213 128.14627644073335,42.902274349236905 128.03448739396117,42.59018461134292 127.91234750953299,42.23696164190187 127.79641812770569,41.91518529442328 127.65357656794367,41.499046777333206 127.52108584585221,41.102256502590535 127.423787971813,40.80949829780366 127.28508674712066,40.41027653630226 127.17743803541816,40.08847453837916 127.0470174808579,39.7134364319827 126.94764943928749,39.42791943532757 126.86484273797396,39.144818561255306 126.76133436133387,38.844776209611155 126.62470330418,38.4793967493606 126.5129142574151,38.15272805942914 126.40112521064293,37.83089435029433 126.27691515868355,37.46065900193389 126.16098577684897,37.131555890688105 126.04091605994472,36.75646937316378 125.96639002877055,36.45155580689243 125.88358332745702,36.11275819446564 125.79663629108836,35.75701530730839 125.70968925470515,35.4278877149427 125.61239138067322,35.047933067902704 125.62274221832922,34.82286141836994 125.4322868053132,34.84948291162618 125.21698938192276,34.92450695337902 124.85471006368607,35.01889168904381 124.45723789740441,35.1374770875409 124.10323924930708,35.25122168868984 123.72853892588319,35.3649657248734 123.3952419531197,35.50774999184068 123.03710296995996,35.63117296287783 122.66447281405271,35.78605575012807 122.34566701401491,35.89737710647205 122.09103640750254,35.98207777598327 121.94198434513964,36.05225809341755 121.70391507887689,36.134538191712636 121.3809689437694,36.20955802370372 121.01661945800879,36.29667752021851 120.7951115320102,36.21923798412536 120.75370818135707,35.82235625187241 120.71023466316547,35.53437068891617 120.66676114498114,35.27300250530425 120.61293678912625,34.94386795651553 120.55290193067776,34.57116577072338 120.47216539690271,34.2468615304515 120.36865702026262,34.0 120.16578060205939,34.13553215013417 119.83248362928134,34.28316447222096 119.52402866691409,34.40175368089149 119.36669593441911,34.27590388847602" stroke="red" stroke-dasharray="none" stroke-linecap="round" stroke-linejoin="round" stroke-width="0.5"><title>2024-05-01 58.8km</title><desc>1714551575000</desc></polyline><polyline fill="none" opacity="1" points="19.215748974253074,114.16678223753115 19.492678209629958,114.05150640717511 19.67100385363301,114.09565466518507 19.74862795748777,114.37280569949871 19.79058693254774,114.61806934075867 19.832545907600434,114.90747710342293 19.878700780165673,115.17971331465924 19.935345396494085,115.49854445687197 19.937443345253996,115.73643868657746 19.985696166564594,116.03318992623099 20.004577705345582,116.25145907752449 20.004577705345582,116.37653373349531 20.151434118044563,116.34465202244428 20.50598745728348,116.28088846896935 20.841659257748688,116.2122198308698 21.156351570687548,116.12883621147739 21.288522342118085,116.07242947555642 21.513002858686377,115.97923543759862 21.806715684091614,115.86396860985587 22.098330560744216,115.74379620119544 22.444492104972596,115.55004753815592 22.744498776635737,115.37837015606783 23.006742370751454,115.36610743732672 23.35500186373247,115.28026822469474 23.594168021569203,115.21895430699806 23.921448027016595,115.13311455008079 24.217258801174466,115.0448218974343 24.519363421590242,114.9589814964329 24.806782400737575,114.870688181285 24.907483940885868,115.03010642267327 24.997695737256436,115.37837015606783 25.08580958487437,115.73398618118154 25.16762958624895,116.05771465233192 25.2431557413438,116.37898617099017 25.299800357679487,116.62668102352472 25.34595523023745,116.76646804084521 25.45085266787646,117.06811084158107 25.543162413014215,117.34767871786607 25.639668055649963,117.62724322724534 25.729879852013255,117.89944754088538 25.830581392161548,118.17655315831507 25.935478829807835,118.48798649757191 26.03827831869421,118.81903310436428 26.105412678793073,119.03972821989191 26.18093883388792,119.18930927210567 26.273248579025676,119.4467825968477 26.359264477890974,119.70915723826147 26.447378325516183,119.98133714449068 26.520806531865674,120.2044732463055 26.585842943204625,120.35649881288737 26.684446534593008,120.62131516496447 26.69074038085091,120.70223067020379 26.785148074734025,120.95478331269078 26.881653717362497,121.266179391896 26.986551155008783,121.59228262111355 27.097742438912974,121.91592941910494 27.17117064526974,122.14149876281226 27.265578339145577,122.37687313371862 27.378867571802402,122.70050899922535 27.462785521922342,123.01433341102347 27.536213728271832,123.13201647238202 27.605446037116053,123.32079847132991 27.693559884741262,123.60274275596385 27.78167373236647,123.86997374529165 27.865591682479135,124.17397590383189 27.9495096325918,124.41178127096828 27.96419527386024,124.5147477881892 28.073288609019073,124.75990432581784 28.1865778416759,125.06389483993007 28.297769125572813,125.40465367211618 28.411058358222363,125.78217920483257 28.528543488391733,126.12047609475849 28.63763682355784,126.43915706579901 28.757219902465295,126.78234707031152 28.872607083874755,127.1255320067703 28.987994265284215,127.46626060871495 29.113871190456848,127.81924036723103 29.231356320611667,128.15750760553783 29.348841450788314,128.51047686646052 29.46213068344514,128.80706494851074 29.51667735101364,128.99334974283192 29.56283222357888,128.93207201473342 29.632064532415825,128.95658312536034 29.776822996376723,128.98599642398403 30.114592745587288,128.8560874075447 30.4565583923104,128.74088446481437 30.704116345157672,128.73598219927408 30.82999327032303,129.00805637353915 30.9852414780471,129.28993166391228 31.142587634509255,129.57180353639706 31.302031739738595,129.85367199117536 31.46147584496066,130.0301444145225 31.52861020504497,130.1526939203868 31.597842513896467,130.50073099463407 31.69434815652494,130.8781737636691 31.78875585040805,131.21884736554603 31.841204569231195,131.36835003219858 31.948199955630116,131.57912265063896 32.065685085784935,131.8560651634616 32.16009277966805,132.10359506039094 32.28806765360059,132.42954625190941 32.42023842503113,132.77019712601577 32.535625606447866,133.04712545447546 32.67409022414358,133.39266856740505 32.802065098061576,133.67939193390885 32.7852815080405,133.77986680718277 32.63422919782897,133.83132937905975 32.67199227538367,133.82152699319886 32.66779637787113,133.80682340665408 32.74961637923843,133.789669210606 32.90696253570786,133.93915535091037 33.01815381961205,134.24057530225946 33.15871638604585,134.59345223326272 33.30767074751202,134.94142285352973 33.44613536520774,135.30899179905828 33.55313075159938,135.6152948171257 33.649636394227855,135.9558990374553 33.760827678132046,136.3283526208179 33.82796203823091,136.52437842766085 33.932859475877194,136.84291684127857 34.033561016010935,137.17615236033453 34.13426255615923,137.5093831069371 34.228670250035066,137.8426090814046 34.316784097660275,138.17093000682144 34.41538768904138,138.48699577529987 34.501403587913956,138.83245810039807 34.56434205050027,139.1411647755085 34.623084615588596,139.44986735582643 34.654553846878116,139.68261659391464 34.671337436899194,139.97661230467747 34.696512821938086,140.3612510855055 34.71749230946443,140.6895364824104 34.73847179699078,140.8144797081368 34.77413692578557,141.11826043986548 34.80980205459491,141.4979807798627 34.862250773418054,141.85564717742454 34.91889538973919,142.21085836662496 34.97344205731497,142.56606413638474 35.01540103237494,142.85512414270488 35.042674366166466,142.97025721367027 35.086731289971794,143.2397153671227 35.1370820600423,143.5606114636539 35.1685512913391,143.79331960702802 35.193726676370716,144.0358235135409 35.21890206140961,144.27587539839078 35.20002052262862,144.34446119670065 35.26295898522221,144.62860020926928 35.28813437025383,144.9666231399733 35.30282001152227,145.3095399405156 35.30282001152227,145.48834455522046 35.327995396561164,145.601015251239 35.35946462784341,145.8483989977376 35.3846400128823,146.1423168653455 35.4056195004232,146.39949195712325 35.432892834200175,146.66401194642822 35.45177437298116,146.96281795087634 35.48114565551805,147.293459472221 35.4979292455464,147.50898623366265 35.52939847683592,147.82492526875285 35.54408411811164,147.97921951941498 35.56925950314326,148.29270310378706 35.594434888174874,148.56944682514586 35.61121847819595,148.79230884846947 35.619610273213766,148.9319026564226 35.63429591448221,149.18170001492035 35.62590411947167,149.46822898146274 35.6321979657223,149.77434577935855 35.651079504503286,150.05107190387025 35.659471299513825,150.26167542479925 35.68045078704745,150.68777440205304 35.68045078704745,151.05509485378934 35.68464668455272,151.45179443926645 35.68254873579281,151.80441062471436 35.68464668455272,152.2231354163814 35.69094053081062,152.57329130905418 35.69094053081062,152.91119900151534 35.66786309453164,153.18788788481106 35.69303847957053,153.285830065357 35.72240976210014,153.56496302241612 35.74338924962649,153.85878357714864 35.75387899339694,154.1305642934949 35.77276053217065,154.4170324297047 35.781152327188465,154.7842941221934 35.77276053217065,155.08789275368508 35.747585147139034,155.41597070180615 35.71821386460215,155.69262986159265 35.703528223319154,155.85176859918283 35.73289950587059,155.92521688101624 36.007730792502116,155.9325616964743 36.355990285475855,155.9717340065199 36.69585798345361,156.0084579874274 37.06719491270633,156.0549749468828 37.415454405701894,156.08680228673438 37.751126206159825,156.11862958314669 38.07421031410922,156.14311208929394 38.35323749824602,156.15045683612334 38.65534211866179,156.17493930885576 38.96164263659011,156.19697351232935 39.261649308253254,156.21411121175333 39.58053751869738,156.2410418568379 39.89942572913424,156.26552423446628 40.056771885603666,156.3022477527138 40.342092915998364,156.29735128695575 40.65468728018459,156.32673006609548 41.002946773165604,156.36100526163682 41.294561649818206,156.37814284051638 41.60086216774653,156.4075215178691 41.88828114689386,156.43445193960542 42.079194483405445,156.42955550160514 42.43374782265164,156.44914124743627 42.782007315632654,156.493209115426 43.10718937232741,156.52993227514526 43.465938609078876,156.55686255551154 43.807904255801986,156.57889639814493 44.14777195377246,156.6107230229718 44.53379452430818,156.64010140733262 44.84219299097458,156.6596869763489 45.051987866267154,156.67437614231312 45.29115402410389,156.6915134909177 45.486263258120744,156.69885806502498 45.7946617248017,156.71844358469934 45.9729873687902,156.89471252158546 45.96879147129221,157.21297250560747 45.96039967628167,157.518987625499 45.95200788126385,157.8715120668803 45.94571403500595,158.17017443840086 45.94361608626059,158.5128970380265 45.93732223999541,158.8482707072908 45.933126342482865,159.19098334448609 45.933126342482865,159.514107791083 45.92893044498487,159.82254058795115 45.92683249622496,160.09425181641018 45.92473454748688,160.30231683400598 45.92263659872697,160.59850030549205 45.91424480371643,161.06357420271343 45.90375505994598,161.53598188186152 45.897461213688075,161.99369418971582 45.88487352116499,162.40734090562546 45.87857967491436,162.7744768195771 45.85340428988275,163.09510412673626 45.77787813478062,163.45488677662252 45.662490953363886,163.78529452899784 45.49885095064383,164.0789863824757 45.34150479416712,164.33596372302236 45.41073710301134,164.238067926879 45.47577351435757,164.2894632710504 45.60584633703547,164.38980623590032 45.8492083923702,164.55867512979967 46.096766345217475,164.7446742368229 46.26670019419544,164.84746258121777 46.46810327448475,165.03345938726852 46.7114653298122,165.23413848968266 46.96112123141211,165.42747404217153 47.20448328675411,165.5889936559288 47.44994329084875,165.5816518795491 47.54015508721204,165.59633543000928 47.674423807395215,165.78966798305373 47.73316637247626,165.93405454166168 47.95554894028464,165.9756572826609 48.27863304823404,166.08578182748533 48.59961920742353,166.18366987571608 48.90801767411176,166.2693215812469 49.16606537072221,166.40146931058007 49.40942742604966,166.5140390085853 49.63810384012322,166.62660816388052 49.85838845917897,166.734282500247 50.13112179705786,166.83461495766642 50.44161821248417,166.94718256745 50.718547447861056,167.06953804953082 50.86750180931995,167.14539812642943 51.13603924968629,167.29956462015252 51.36891156126512,167.43904771361304 51.60388182158931,167.56874177229838 51.9248679807788,167.6861999208504 52.27732337127236,167.79386937134768 52.575232094182866,167.8844092068466 52.88363056086382,167.97250168283426 53.16475569375325,168.08751080413822 53.38713826156163,168.20007237441132 53.58014954682585,168.28571668400582 53.7626710883269,168.37380764620866 53.99973929740372,168.488814791217 54.29974596906686,168.63318466091187 54.65429930831306,168.787341333129 55.008852647551976,168.84606741680363 55.33403470425401,168.87298348914555 55.585788554599276,168.89500570706878 55.87320753374661,168.88521805721575 56.1837039491802,168.92436863200783 56.31377677186538,168.97820056517412 56.60958754602325,169.00266958469365 56.89700652517058,169.06384202132722 57.25995165942004,169.14214250642362 57.42988550841255,169.20576145727864 57.67954140999791,169.31342390242753 57.996331671689404,169.46023552785118 58.27955475333147,169.59236520173545 58.529210654931376,169.68534489457306 58.66138142636191,169.7416218972612 58.93411476423353,169.85172868429072 59.257198872182926,169.97896254732586 59.58447887764487,170.11353607136152 59.90126913932909,170.24321527918983 60.167708630950074,170.28481034430115 60.53065376519953,170.4658703530513 60.90199069445953,170.6567158700782 61.235564546179376,170.82309274101863 61.52508147407934,170.96255479343563 61.79152096569305,171.10690937430627 62.013903533501434,171.22924306661298 62.278245076369785,171.35646942706444 62.54468456799077,171.48858837573607 62.77336098204978,171.6060268139845 63.02931072990759,171.73569773711642 63.31672970904765,171.89472713197574 63.58736509818118,172.03418278741083 63.853804589802166,172.17608417888914 64.17269280023902,172.3400036790099 64.46220972814626,172.49413589125652 64.73913896353042,172.63114144858264 65.00977435264213,172.76569969615775 65.301389229302,172.92716857040432 65.59090615720197,173.06417158871045 65.88461898261448,173.2060667251335 66.18462565427762,173.3577467802279 66.47204463343223,173.50453299289256 66.73009233002813,173.64153262616128 66.9461810515786,173.74428182405245 67.21681644070486,173.88372644141782 67.50213747109956,174.02806297602183 67.78745850150153,174.18218405423067 68.10424876318575,174.34119679977266 68.41474517861934,174.4928694873579 68.71265390152257,174.6616653533365 69.01056262444035,174.8377988702632 69.3105692961035,174.97968323804162 69.62945750654762,175.14358307346265 69.975619050776,175.31971295870972 70.28611546620232,175.47871796515392 70.57143649659702,175.63038327106915 70.85046368074109,175.76981663567312 71.16935189117066,175.92881858026703 71.48614215286216,176.08781944329712 71.75887549074832,176.22480393494152 72.09664523995889,176.40826405020925 72.36728062908514,176.5966149372871 72.37986832160823,176.68956676384914 72.58966319688625,176.77762604808595 72.87288627853559,177.01978736938509 73.10785653885978,177.25950014619593 73.32814115791552,177.4869804063128 73.52954423819028,177.67776859522928 73.7372411647375,177.8930149392745 74.01417040012166,178.17185384776167 74.2701201479722,178.4384598697834 74.55334322960698,178.73441345320862 74.81768477247533,179.00345891489633 75.06734067408252,179.2725012810315 75.32329042193305,179.5170825641635 75.57504427227832,179.76410706358547 75.82050427636568,180.01112895368533 76.0512786391846,180.24591961870283 76.27575915573834,180.48804502321582 76.46667249226448,180.7081568521462 76.68276121381496,180.88913613741897 76.72262224011502,180.9233753041226 76.7519935226519,180.95272312141242 76.82332378025603,181.01875557566018 76.989061731736,181.18750433400055 77.12752634942444,181.33424139511226 77.28487250590115,181.49320550582888 77.45480635487911,181.68396101265535 77.67928687144013,181.92607153108656 77.89537559298333,182.1437243025921 78.0569176469653,182.29290087518348 78.23524329096836,182.44941297788682 78.48489919255371,182.69640650977453 78.72196740163054,182.94584287555517 78.96113355946,183.20016741221662 79.21498535856517,183.46182534812942 79.36813561752206,183.63789259249825 79.4100945925893,183.6867999252354 79.60520382660616,183.86775616744853 79.79611716312502,184.04626568374078 80.02898947469657,184.28590645462828 80.2408822987345,184.50353727302354 80.36256332640914,184.68693245850955 80.40662025022175,184.72605657870554 80.51151768786076,184.87766192663912 80.59963153548597,185.05371851739255 80.75068384569022,185.21021215272594 80.76536948696594,185.2713421947792 80.65837410056702,185.4131632773424 80.52620332913648,185.57209967611743 80.4506771740198,185.70169317158798 80.38354281393549,185.83128594942173" stroke="red" stroke-dasharray="none" stroke-linecap="round" stroke-linejoin="round" stroke-width="0.5"><title>2024-05-01 52.5km</title><desc>1714541844000</desc></polyline><polyline fill="none" opacity="1" points="186.0,148.263470760171 185.8049781225418,148.29854392845664 185.53148590386263,148.34171077253905 185.25453175837174,148.35385142114228 184.99719519817882,148.3511535002317 184.80101934511913,148.33226803786874 184.59099578477617,148.35924726125995 184.30250188321952,148.3605962209358 184.03477954257687,148.35520038138748 183.7624412994992,148.37138789318487 183.50625871491502,148.37948164139198 183.22238071578613,148.3781326837152 182.9581203019552,148.3444086954496 182.75040469282976,148.32687218634783 182.45614091324387,148.32282529621352 182.1976503774422,148.41860135204115 181.99108874393278,148.44423144230223 181.78221915919858,148.4590698920947 181.64605003766337,148.23784030702427 181.5468081355284,147.9950229348833 181.4706457455177,147.83584015132692 181.3760197458032,147.5903170509473 181.3137050630612,147.41494051652444 181.253698331544,147.26519403007114 181.16022630743828,147.02640545791746 181.05983042969456,146.78491416629186 180.96174250316108,146.55016406170398 180.8694244546641,146.38421741716138 180.50361418748798,145.76088635447013 180.37206096837326,145.5477055403835 180.32936387094378,145.40738204804256 180.17242318849458,145.55040405395448 179.94970589649165,145.61381895866907 179.75237606783048,145.51802185339056 179.64967223887652,145.50183072229174 179.3669482153491,145.4896873604839 179.1903899475874,145.51667259325313 178.93766928982222,145.59762794913058 178.7461093391903,145.6637411087513 178.64109755901882,145.6974721806655 178.3722212427674,145.79596640032923 178.092959146059,145.89715829998204 177.96717580497352,145.95382541327035 177.7813857323781,146.06850808684794 177.66829612295987,146.12247604719778 177.44327087973943,146.25874413136808 177.25978875835426,146.31001293483496 177.05091917362734,146.3774715729587 176.8385876620814,146.43548571655447 176.60779254083172,146.50968946931607 176.41854054140276,146.57309960707425 176.22928854198108,146.69856980225086 176.00657124997815,146.87125794618896 175.7919317872147,146.95085560082862 175.62575929991726,147.0169617502388 175.3591909348761,147.13298396018035 175.1041623259007,147.24900511549822 174.942605741031,147.3299494830435 174.70719471735356,147.44192167865003 174.59872101036308,147.48509141943578 174.37138781593967,147.64562761201432 174.13136088984174,147.8183029436168 174.00903947558254,147.89789469284733 173.76093472023786,147.9828819450404 173.51859984293696,148.0786605511521 173.31434616062324,148.12182813870913 173.02469828345784,148.17983435464703 172.8585257961604,148.18792822428622 172.59311140672799,148.213558777632 172.33692882214382,148.15015678871896 172.13844501786662,148.09619740120252 171.95842482330045,147.98962694082275 171.73570753129752,147.8048127674474 171.5314538489838,147.9248748342061 171.3214302886554,148.05572771089464 171.1090987771022,148.16094863886065 170.84714631448878,148.25402796762955 170.55865241292486,148.35924726125995 170.3082397063772,148.44423144230223 170.161684804385,148.49953830387676 169.96550895132532,148.5953130340895 169.79356658599136,148.67489993940035 169.5408459282262,148.70592520877562 169.3065888801575,148.75988201943255 169.15195614892582,148.78146467985243 168.98809161283862,148.83137444233944 168.7134454185507,148.95277575290856 168.53227124837576,149.06743148639453 168.2449313224206,149.21445909689191 168.0972224448269,149.29404214320402 167.86181142114947,149.40195056635548 167.59639703171706,149.54762549122552 167.39675925183838,149.6852058388913 167.2952093984859,149.74860020614597 167.0367188626915,149.8133430649268 166.74360905870708,149.9050615530332 166.4424214254832,149.9954305956253 166.24278364559723,150.04263805018036 165.96698347570782,150.12356470917894 165.70618498870317,150.25034877732924 165.4234609651685,150.39196779095073 165.29421569727128,150.45535865021884 165.0564967223836,150.559211080179 164.83608738159091,150.65901651590593 164.65375923580723,150.72240604987928 164.46450723638554,150.81546671069464 164.37911304152658,150.85457895999298 164.30064270029834,150.8855989346257 164.08023335951293,150.98135577245557 163.83212860416825,151.11757200918782 163.60133348291856,151.2295109976667 163.34630487394315,151.3643759460947 163.09127626496047,151.51137711821593 162.94356738736678,151.5734138025873 162.71392624171858,151.68400018850116 162.50159473017993,151.79728281084954 162.2973410478735,151.89572998835683 162.17963553603477,151.74603603467767 162.0665459266238,151.510028491296 161.93153078069008,151.26997063169074 161.83805875659164,151.1418480176908 161.70419758626667,150.93684916246548 161.56802846473147,150.73589314417495 161.47801836744475,150.59967283730475 161.30607600211079,150.66171394929552 161.08220473450638,150.7992822966471 160.91603224720893,150.87615808075498 160.6702354430745,150.9732636730805 160.38404949272808,150.97730972341014 160.24557241997536,150.93280309932197 159.98361995736195,150.77905175024716 159.6674306412533,150.6428319036304 159.32700783741893,150.5929292200144 159.05813152116025,150.55111871337522 158.78463930248108,150.5376314239702 158.5261487666794,150.4931232679046 158.35882230378047,150.46614855238022 158.16495440193103,150.43782503977127 157.91223374416586,150.41489643593832 157.63989550109545,150.38522406400443 157.36063340438704,150.36094661751304 157.0825252832874,150.33666912487388 156.83211257673247,150.31104283258173 156.59900950426527,150.29081151287755 156.35552065134834,150.29485777938226 156.1224175788957,150.38522406400443 155.99548026220145,150.40006025858838 155.89162245763873,150.2368611703232 155.7623771897488,150.03049900709993 155.6365938486706,149.8308775326941 155.54196784895612,149.67711291829164 155.42541631272616,149.49771852817503 155.2984789960392,149.3196704762704 155.19462119147647,149.12948004224563 155.03191063099803,148.87723729532627 154.88420175339706,148.64927031218576 154.73880082701362,148.42399716479486 154.60032375426817,148.39162225407108 154.4110717548392,148.4752572722 154.26336287724553,148.5804747426364 154.00371836583508,148.69243597048626 153.8629333418794,148.7531374305736 153.6425240010867,148.8529569819175 153.3955732213508,148.9379378768699 153.13823666115786,149.06743148639453 153.03207090539217,149.1375733099103 152.89013190582045,149.20097039581924 152.65702883336053,149.29404214320402 152.45623707787308,149.37092698809647 152.23813568829792,149.44781137008067 152.0846569326677,149.49636968862706 151.75231195807282,149.8902247834376 151.60114115365286,149.95901329717162 150.79451220489136,149.9306886599161 150.64795730289916,149.8996663660855 150.416008206048,149.94417659025385 150.13213020691182,149.98733787160927 149.87248569550866,150.01970873690334 149.63130479380925,150.04398683203272 149.4039715993713,150.05747464271553 149.15932877085288,150.06826488100887 148.9343035276397,150.0696136601564 148.62273011395155,150.08175266605213 148.39655089512962,150.10063554119006 148.2857692369289,150.09119410711264 147.97650377445825,150.08714777608657 147.6568525315306,150.10737941839943 147.3487410446687,150.10063554119006 147.0210119724943,150.09119410711264 146.7209783148719,150.0844502213531 146.426714535286,150.0831014437763 146.14745243857033,150.08040388818972 145.8554966101874,150.07635755374667 145.579696440298,150.07905511018635 145.30505024601734,150.08175266605213 145.04194380779518,150.07905511018635 144.77075954032625,150.0831014437763 144.5030371996836,150.07770633203927 144.2237751029752,150.07635755374667 143.9479749330785,150.0750087753122 143.79103425063659,150.07635755374667 143.48176878815866,150.07905511018635 143.18404308175377,150.08175266605213 142.90593496064685,150.0831014437763 142.63590466878668,150.08714777608657 142.39933966950775,150.08714777608657 142.21354959691234,150.08175266605213 141.92736364655866,150.07905511018635 141.66194925712625,150.08175266605213 141.3572996970761,150.07905511018635 141.13689035629068,150.0844502213531 140.94533040565148,150.08175266605213 140.6129854310566,150.0844502213531 140.3267994807029,150.09524043685542 140.10754411551898,150.09119410711264 139.81905021396233,150.09254288383545 139.50863077588292,150.09389166041638 139.227060727957,150.09793798930878 138.98126392382983,150.09389166041638 138.7296972416807,150.09119410711264 138.4654368278425,150.09793798930878 138.2311797797811,150.09928676531945 137.97961309762468,150.09793798930878 137.679579439995,150.09928676531945 137.4383985382883,150.1114257430163 137.18683185613918,150.10603064324368 136.882182296089,150.10063554119006 136.56368502876285,150.09928676531945 136.41713012677064,150.0898453302434 136.10555671308975,150.11277451760725 135.86552978699183,150.11277451760725 135.68435561680963,150.11277451760725 135.352010642222,150.11277451760725 135.0669786674698,150.110076968288 134.79464042440668,150.10737941839943 134.51884025451,150.1114257430163 134.2557338162951,150.1222159357303 133.97877967078966,150.12356470917894 133.71798118377774,150.12356470917894 133.4744923308681,150.12356470917894 133.27023864856164,150.13435489163476 132.988668600643,150.13030857428203 132.73248601605883,150.12761102866716 132.53169426057138,150.13030857428203 132.23050662734022,150.1316573468739 131.96047633548733,150.13435489163476 131.80930553106737,150.1384012077051 131.76776240923937,150.00622088633645 131.69390797044616,149.92933986610024 131.420415751767,149.9212471002047 131.18154280127055,149.9010151630364 131.01306236276287,149.9010151630364 130.7361082172647,149.89561997437522 130.4395364864613,149.88617838873597 130.17296812142013,149.86864399689603 129.89716795153072,149.85245838305673 129.6225217572428,149.84166796243426 129.3432596605344,149.83897035585596 129.06168961261574,149.8484119763907 128.7801195646971,149.8578535899469 128.52278300450416,149.86594639601208 128.25506066385424,149.87403919695043 127.99310820124083,149.87673679611908 127.7461574215049,149.88482959021985 127.51536230025522,149.892922379192 127.3907329347785,149.8942711768541 127.13685830140457,149.90371275650705 126.85298030227568,149.91315432918145 126.656804449216,149.91989830539205 126.66488227845548,150.18560813381646 126.64872661996196,150.4769384454239 126.64064879072976,150.75477505227536 126.59910566889448,151.01372411869124 126.56910230313952,151.15533466915076 126.45255076690955,151.42776198003594 126.32215152340359,151.70153208860756 126.19636818232539,151.96855343978586 126.07866267048666,152.2301750079332 125.99442245123646,152.5187616584417 125.9828826951707,152.79385688392085 126.03365762184694,153.14580831705916 126.09135640216118,153.46269116224812 126.13866940201115,153.73102410917727 126.14097735322866,153.97777757587028 125.86171525652026,154.0128350590012 125.58822303784109,154.05328588160046 125.3262705752204,154.08699480264477 125.08278172231076,154.1234003375357 125.01354318593803,154.13958054198338 124.77582421105035,154.17059254326068 124.54849101661966,154.21104286664558 124.29692433445598,154.2474480482524 124.17229496898653,154.25014472425028 124.09497860336705,154.24340303319423 124.29346240763698,154.25418973717115 124.55656884585915,154.21508789194468 124.82198323529883,154.17328923546938 125.02854486880824,154.1449739389118 125.23972240475268,154.11800693149962 125.47397945282137,154.08294973681404 125.74516372028302,154.04249900808918 125.94480150016898,154.0155317844892 125.9690349878947,153.92788791487965 125.90902825637022,153.6851786780644 125.85479140288226,153.47078168522603 125.82017213469226,153.31436400003895 125.76939720801602,153.13097531053518 125.7001586716433,152.83835702570013 125.63784398890857,152.57135385059064 125.58014520858706,152.3070421824914 125.54206401358533,152.1222904742208 125.47859535524185,151.8714554123053 125.3608898434104,151.6408446395899 125.23626047793368,151.41967016342642 125.14509640504548,151.15668333350823 125.18779350247496,150.94089522432387 125.24895420960092,150.69947795688222 125.31357684355316,150.4863795943602 125.38281537992589,150.22337354907904 125.44974596508837,150.00622088633645 125.51206064782309,149.79311095681442 125.45782379432785,149.64609000848577 125.19240940489544,149.5813463017912 124.95469043001503,149.52064877865905 124.68004423572711,149.44781137008067 124.42386165114294,149.3871132122449 124.16537111534853,149.32101933447848 123.91842033560533,149.2576228445787 123.72339845816168,149.20906361817106 123.454522141903,149.1375733099103 123.19603160610131,149.06608260139728 122.9652364848589,149.0040337374794 122.73674931482674,148.94603126593574 122.44594746205257,148.87049276845573 122.19784270670789,148.80844295407314 121.913964707579,148.73425256280188 121.66932187905331,148.68299349520294 121.44083470902115,148.62094276961852 121.19965380731446,148.49953830387676 121.0173256615235,148.33361700039495 120.83730546695733,148.1542037335912 120.63420576025965,147.9532039212654 120.45187761447596,147.7791813934482 120.26147163943824,147.61999591838776 119.99374929879559,147.5188176778347 119.72141105571791,147.51611958044123 119.52985110508598,147.57008141994265 119.34290705687454,147.68340054039072 119.11211193563213,147.88305559079345 118.8859327168102,148.0597746856938 118.6632154248,148.17174047987191 118.41741862067283,148.2459341398926 118.18200759699539,148.2769604516825 117.95467440257198,148.28505425974618 117.82312118346454,148.29449702933744 117.54501306235761,148.31203358290986 117.29575433141144,148.32822114943974 117.05341945410328,148.347106617789 116.79723686951911,148.3646430990966 116.53759235811594,148.38487747067302 116.3194909685335,148.39971598944794 116.08061801803706,148.41860135204115 115.80827977496665,148.44153354048922 115.55902104402048,148.46176779020516 115.31784014232107,148.48739779381413 115.06858141137491,148.50088724872967 114.80893689996446,148.53730870581603 114.56198612023582,148.63308315269842 114.35311653550161,148.78686033925442 114.18232814577641,148.9864981343344 114.09924190212769,149.1389221873551 114.03231131697248,149.3385544782468 114.00115397560876,149.61776467719665 114.01961758529796,149.91585192009552 114.04038914621196,150.20044456027244 114.06462263394496,150.49986693788378 114.08193226803996,150.76556470151627 114.10731973137445,151.04339503068877 114.1292452678972,151.33200848831893 114.15001682880393,151.64354186566925 114.15463273123169,151.95641622670064 114.15117080441269,152.19106696971357 114.1327071947162,152.51741313785078 114.10962768258469,152.824872150617 114.08885612167796,153.10265770482238 114.06923853636545,153.38043722127168 114.04962095106748,153.65281709826922 114.02884939015348,153.94002325574183 114.02423348772572,154.22722296015763 114.10616575577296,154.50497803885082" stroke="red" stroke-dasharray="none" stroke-linecap="round" stroke-linejoin="round" stroke-width="0.5"><title>2024-04-21 79.4km</title><desc>1713660889000</desc></polyline><polyline fill="none" opacity="1" points="19.254459049865545,194.2992034841991 19.479428939681384,194.46086825105158 20.18736171220371,194.16649274531846 20.46805808847421,194.68285382682916 20.579511061405356,195.31501831464448 20.670324594917474,195.91821238480588 20.63936543577438,196.4297084707341 21.09549704721576,196.4297084707341 21.760086996931932,196.35250224858282 21.993312662518292,196.60583418803435 22.028399709553923,197.26448407810494 21.784854324250773,197.49850528926436 21.78279038031178,197.37063832674176 22.007760270120343,196.96531944981325 21.77247066059499,196.33320065225416 21.791046156082302,196.20532716448906 22.197643112893275,196.079865688067 22.765227697280352,195.83376617428803 23.479352301634208,195.54423393851903 24.096471540666244,195.3656872296233 24.83949136020965,195.15818524609676 25.44009904768609,194.97722267442987 25.636173722297826,195.62626844473743 25.795097405927663,196.2897720008641 25.962276865328022,196.94843100715298 26.18724675512931,197.5998333171301 26.430792140439735,198.30429194044518 26.67846541362087,199.06662679304463 26.94884207018913,199.81687454410348 27.190323511546012,200.52126479616345 27.382270298257936,201.08331404181445 27.685670057908283,201.96374965859104 27.916831779548374,202.61742100807714 28.096394902619068,203.18424264993155 28.29040563327726,203.73899064381294 28.5071197473153,204.35402159268415 28.721769917407073,204.99556565288185 28.96325135875668,205.71908998083927 29.196477024350315,206.3943586934438 29.431766633868392,207.09131155503383 29.644352860013896,207.68213730711977 29.873450637729547,208.3597594760413 30.048885872900428,208.9264387544299 30.56487185869628,208.77934463162273 31.17167137800425,208.5984899051382 31.512222128636495,209.20615611540234 31.865156542924524,209.83068511772763 32.09425432061835,210.32016890109844 32.308904490717396,211.12791480016858 32.53593832447223,211.65835927746775 32.810442868911196,212.37685081971722 33.144801787726465,213.18934594813618 33.35945195781096,213.70045569600006 33.64427622198127,214.41165073640695 33.8341590647542,214.8938042934551 34.03436162723665,215.4675537899857 34.236628133679915,216.1642302709115 34.447150415886426,216.8319591064028 34.69069580118958,217.57439284856628 34.90328202734236,218.3746516059673 35.05807782307238,218.97241700483755 35.12206008531939,219.64247418261402 35.15095530052349,220.28358967315216 35.188106291498116,220.727057555614 35.309878984160605,221.61396755920032 35.42545984497701,222.3369666078961 35.53691281790816,223.02620445316643 35.62772635142028,223.71783137490274 35.68964466970647,224.24798421612286 35.73711538039788,224.86005451153687 35.794905810806085,225.5178913625059 35.86507990487735,226.32269171412008 35.90842272769078,226.88169807862687 35.964149214145436,227.53224866300116 36.009555980905134,228.05990390787338 36.050834859772294,228.61164000842473 36.05702669159655,229.1898644646917 36.07353824315214,229.77048351397934 36.1086252901805,230.67872531515422 36.11068923412677,231.63511081614524 36.11481712201203,232.23253038423536 36.14371233721613,232.80825467745672 36.176735440298216,233.53330948074654 36.19737487973907,234.34987199980606 36.154032056925644,234.9014567797658 36.12513684172882,235.3735450100994 36.806238342986035,235.43135106456793 37.55338605042925,235.5011998527334 38.27989431844617,235.54937130686085 38.874310174098355,235.59513409460124 39.64622520885314,235.6553481499268 40.34177431771241,235.73964756187343 40.975405108285486,235.76614159880046 41.64618688983319,235.8239466640789 42.33348022292921,235.888977188426 43.0661803227631,235.9347392987729 43.62344518743339,235.978092792795 44.20547737942252,236.02385472538663 44.855619721529365,236.0816591413586 45.36128598762298,236.11778682737895 45.93506240383431,236.1539144565195 46.230206387714134,236.5874415690687 46.21782272405835,237.3942618876954 46.201311172502756,238.1986455474489 46.21782272405835,238.75495428065005 46.18273567702272,239.50390274974052 46.17035201335966,240.45510432252922 46.14764862998709,241.44720169065477 46.13526496632403,242.27311412775634 45.92680662806379,243.10140463498465 45.60689531686512,243.6575945744844 45.33445471635787,244.09820301577383 45.468611072668864,243.994672830353 45.74930744894664,243.5998092338359 46.27767709840555,243.99226514607108 46.80604674787173,244.4111984123665 47.38188710803661,244.87586832636953 47.88961731806194,245.04680670662674 48.42830668724491,245.33812129643775 49.1032163566706,245.5475766107793 49.86893955960841,245.92555435626673 50.46954724708485,246.1614863567229 51.20224734691874,246.5081575530421 51.66663473415247,246.78260187326669 52.37250356272125,247.03537663608586 52.99168674569228,247.21833568172042 53.39621975855698,247.38925663166447 53.89363024888735,247.62998820729808 54.45915088932816,247.89960457751476 55.16501971789694,248.0897785072175 55.83580149945192,248.116258296639 56.37449086862762,248.17884676849462 57.08861547298147,248.32328105288252 57.71605443171575,248.53270915258872 58.34349339045002,248.81916518647085 59.003955452280934,249.06951039276828 59.74078344001464,249.3752167055609 60.36409451086365,249.58463521832527 61.090602778880566,249.9505112586994 61.65818736326037,250.24417070891286 62.12463869442581,250.48246537382693 62.646816512067744,250.7424203723367 63.23297659193486,251.05291832287367 63.76547412929358,251.34174986003927 64.32273899395659,251.61613645868056 64.92334668143303,251.9194020466075 65.50950676130742,252.2178499889451 66.14932938371203,252.53554837960473 66.72516974386235,252.83639508099623 67.27624277670111,253.11317056923508 67.95528033402661,253.45973691716972 68.54350435783272,253.7677915075583 69.08012978306215,254.05418230737087 69.59198788098729,254.3092837134409 70.15750852143537,254.60288748896164 70.67349450723123,254.874828625414 71.1626492217838,255.11788833534956 71.6641875999776,255.3657584630182 72.21526063281635,255.72913605397662 72.60947392597154,256.02994097432384 73.05528581771068,256.48956329413886 73.44537122297334,256.87217382192466 74.08106595748541,257.5242815002639 74.61562743878312,258.06809147922286 75.15844469584408,258.61670090969164 75.64553546645038,259.1027386861715 76.08102763847273,259.5598935606431 76.45253754824807,259.92561092042706 76.5846299606128,260.04350540928317 76.97058747798292,260.46214626441724 77.0882322827456,260.69311726906744 77.43703880915564,260.9457391509586 77.80029294316046,261.2945933812134 78.35962175176974,261.84553170538493 78.90243900884525,262.40607987062504 79.36889034000342,262.89444332430685 79.83740561511513,263.34671156735203 80.06237550493097,263.6835012951069 80.20065974911995,263.88316716433656 80.35545554486453,264.0635866410721 80.54946627553,264.26324921375453 80.6650471363464,264.4653155965625 80.7042620712673,264.68181332436507 80.64853558479808,264.8429825331423 80.52676289215742,265.0209890047827 80.40086231160967,265.3336997440947 80.32449638571416,265.6536224898973 80.14493326266529,265.98797309044676 80.28528145080054,265.76186602153575 80.31624060995091,265.4708100366006 80.22336313249252,265.2735633933007 80.5412104997522,264.70105746830814 80.63408797719603,264.4172047139018 80.58868121045089,264.27046590083046 80.3781589282371,264.0708033907267 80.38847864796116,263.8013765357464 80.48342006934399,263.6522281707694 80.11397410350764,263.4597772396737 79.66403432389052,263.00510552407286 79.34412301269185,262.6803345142762 78.85084041026857,262.179937618499 78.38026119120332,261.70599398836566 77.9488969070735,261.2560993808893 77.47212585619127,260.7893545034585 77.01186635685735,260.3250061334893 76.61146123186336,259.9159868538427 76.21518399476918,259.4973360616368 75.82922647738451,259.117175294783 75.41850163268828,258.70813454286144 74.95205030152283,258.2293070113592 74.52068601739302,257.79859433543425 74.0624904619981,257.3341855990784 73.68066083250596,256.95398908363495 73.36487740919256,256.63394537309796 72.91287368562917,256.1815451630482 72.47944545754581,255.74598123351097 72.18842936155124,255.52939941328623 71.58575773013581,255.1852707704038 70.89433650915453,254.81466493421613 70.25451388676447,254.49940461884034 69.62294704013766,254.17692012960106 69.05949034364312,253.8881242109237 68.4299874409553,253.58729127168954 67.77984509884845,253.25035370663318 67.28243460852536,252.98561358426377 66.64054804218904,252.67032818862208 65.9718302045876,252.33097037379957 65.39392590048374,252.02048968683266 64.78919032512931,251.71241168196684 64.1885826376456,251.4019226401324 63.61067833354173,251.09383634464393 63.03071008550614,250.8170365417809 62.44042211773922,250.50894240630623 61.825366822668,250.2008441407488 61.268101957997715,249.92162651992658 60.65304666291922,249.60629909348063 60.16389194837393,249.34151699651375 59.62520257919823,249.07191754497035 59.070001658466936,248.78305747973536 58.54575989689329,248.52548752575603 58.00294263983233,248.25828573726358 57.68509527256538,248.19810472554127 57.44567777515476,248.3954978546135 56.84507008767832,248.27032192069964 56.366235092857096,248.14755255388081 55.68513359158533,248.0945930166563 54.9854565948408,248.05126239540732 54.44470328171883,247.86830998255937 54.10208858714759,247.69979989241438 53.56546316191816,247.43981047177658 53.006134353301604,247.2014842515946 52.44474160073878,247.03537663608586 51.9143080073336,246.87408258475807 51.57169331276236,246.7079726019747 50.94012646614283,246.3444523622711 50.35190244232217,246.10129985214007 49.823532792855985,245.8749971837551 49.29309919945081,245.61739462445257 48.71313095140067,245.43683036070433 48.16412186251546,245.25385712546085 47.887553374122945,245.01310064783684 47.62749643727875,244.86142277115323 47.13627777877991,244.6543688145739 46.680146167338535,244.26433187284965 46.29418864994659,243.994672830353 45.829801262727415,243.65518685486495 45.55736066222744,243.7394568915115 45.19617047216161,243.96337291497184 44.67192871058069,243.64074053181503 44.224052874902554,243.3156958606287 43.767921263461176,242.98823879883275 43.311789652005245,242.63188316087508 42.82469888140622,242.29719276184187 42.389206709391146,241.91193158618626 41.943394817652006,241.62298146194553 41.487263206196076,241.38218691375005 41.02906765080843,241.15824571733174 40.57706392723776,240.99450238469763 40.164275138602534,240.85724604430106 39.6875040877203,240.70072465462 39.24994797175896,240.57550677448307 38.81858368762187,240.46473654192414 38.45739349757059,240.3804544851664 37.844402146431094,240.3732302944718 37.245858402893646,240.33710930691268 36.66589015484351,240.3082124759312 36.069410355259606,240.2889479017431 35.95589343838219,239.93014225261868 35.96208527021372,239.50871905952408 35.96621315809898,239.1595339807791 35.9744689338695,238.62731753821754 35.99304442934954,238.0685974053995 36.007492036958865,237.57007270020767 36.040515140055504,237.05226987331844 36.08385796286166,236.54890615742806 36.127200785675086,236.04793991640872 36.1664157205887,235.61199404602849 36.20563065550232,235.10619011346353 36.24897347831575,234.60278369822117 36.26548502987134,234.11622728618568 36.234525870713696,233.59352894845142 36.21801431916538,233.0852716768186 36.232461926774704,232.7046735486747 36.20563065550232,232.1939876559536 36.19943882368534,231.6495646990934 36.20150276762433,231.03285759465507 36.189119103961275,230.40167924243542 36.176735440298216,229.9367161357295 36.17054360847396,229.5849761217196 36.14784022510139,228.8622057302091 36.13132867355307,228.39962071993978 36.08385796286166,227.90329517130886 36.03432330823125,227.2599834431203 35.99098048541782,226.75640473424937 35.935253998955886,226.16848066217608 35.88984723219619,225.53716834804436 35.84650440938276,225.0696968770353 35.78458609109657,224.42389585730416 35.73298749251262,223.82145312210196 35.666941286333895,223.28406083389746 35.60295902409416,222.84064245800073 35.5410407058007,222.44541449685858 35.45229111624212,221.89834990796044 35.36560547062254,221.39706339411532 35.285111656841764,220.82105236248753 35.237640946143074,220.3197422676949 35.206681786992704,219.77021667093686 35.16540290812554,219.2206778861364 35.0518859912554,218.62050861913667 34.93011329860019,218.1215607463473 34.78357327863341,217.5864451457619 34.624649595003575,217.08506422371465 34.46159802349575,216.58849344801638 34.32950561112375,216.15699844405026 34.164390095662384,215.5929089082183 33.99927458021557,215.08425214976342 33.77224074646074,214.52013617244847 33.5844218476268,214.06690471452566 33.43168999582849,213.61607515654032 33.23355137727776,213.15800394113467 33.023029095063976,212.65652598995075 32.8083789249722,212.11404948370728 32.60404847459722,211.60772647200247 32.428613239419064,211.13032593926255 31.96216190825362,211.3183940051622 31.42760042696318,211.51610492010514 30.91574232903804,211.67764793578135 30.727923430211376,211.17372639939822 30.60408679361717,210.5926356312666 30.49676170857856,210.0862789420189 30.358477464375028,209.51480578473456 30.180978285250603,209.01324795672917 30.038566153169086,208.6057241216622 29.877578525607532,208.12343801070347 29.695951458605123,207.58326548981495 29.520516223434242,207.06478432640324 29.322377604876237,206.48358913848097 29.142814481827372,205.96025966796333 28.938484031445114,205.374212907549 28.775432459930016,204.9087411945493 28.577293841379287,204.30337261048226 28.408050438039936,203.8234076363242 28.232615202854504,203.29278136049834 28.050988135852094,202.78385094815894 27.89000050829054,202.31109026844024 27.733140768599696,201.85520463520697 27.510234822730126,201.20151147975776 27.349247195161297,200.73354253105754 27.165556184219895,200.19801991127315 26.99218489298073,199.68660821363846 26.851836704845482,199.2523817468791 26.680529357559863,198.76989821341522 26.46175129958283,198.14747940095913 26.28631606441195,197.61430871298398 26.09024138980749,197.044936225544 25.91893404252187,196.4490099854902 25.795097405927663,195.9206251290925 25.65268527383887,195.38740244446853 25.592830899484397,194.92172719840528 25.229576765479578,194.89036013054465 24.610393582523102,195.07614905800438 24.04487294206774,195.22574423847072 23.584613442733826,195.39222804496603 22.988133643149922,195.60214067938796 22.428804834533366,195.79516208831228 22.051103092933772,195.99059460239187 22.024271821668663,195.97853091539218 21.807557707637898,196.0822784152715 21.24410101112153,196.22704158081797 20.74462657686672,196.16672370671404 20.688900090412062,195.6310939947507 20.633173603935575,195.25952365969533 20.532040350721218,194.63459627657903 20.36898877920612,194.06273653935568 19.987159149706713,194.20027373386438 19.423702453212172,194.38606827735202" stroke="red" stroke-dasharray="none" stroke-linecap="round" stroke-linejoin="round" stroke-width="0.5"><title>2024-04-05 108.1km</title><desc>1712276378000</desc></polyline></svg>