<?xml version="1.0" encoding="utf-8" ?>
<svg baseProfile="full" height="300mm" version="1.1" viewBox="0,0,200,300" width="200mm" xmlns="http://www.w3.org/2000/svg" xmlns:ev="http://www.w3.org/2001/xml-events" xmlns:xlink="http://www.w3.org/1999/xlink"><defs /><rect fill="#222222" height="300" width="200" x="0" y="0" /><text fill="#FFFFFF" style="font-size:12px; font-family:Arial; font-weight:bold;" x="10" y="20">Over 10km Runs</text><text fill="#FFFFFF" style="font-size:4px; font-family:Arial" x="10" y="280">Runner</text><text fill="#FFFFFF" style="font-size:9px; font-family:Arial" x="10" y="290">yihong0618</text><text fill="#FFFFFF" style="font-size:4px; font-family:Arial" x="65" y="280">SPECIAL TRACKS</text><rect fill="yellow" height="2.6" width="2.6" x="65" y="283" /><text fill="#FFFFFF" style="font-size:3px; font-family:Arial" x="70" y="285.5">Over 20.0 km</text><rect fill="red" height="2.6" width="2.6" x="65" y="287" /><text fill="#FFFFFF" style="font-size:3px; font-family:Arial" x="70" y="289.5">Over 40.0 km</text><text fill="#FFFFFF" style="font-size:4px; font-family:Arial" x="120" y="280">STATISTICS</text><text fill="#FFFFFF" style="font-size:3px; font-family:Arial" x="120" y="285">Number: 5</text><text fill="#FFFFFF" style="font-size:3px; font-family:Arial" x="120" y="290">Weekly: 1.2</text><text fill="#FFFFFF" style="font-size:3px; font-family:Arial" x="141" y="285">Total: 317.5 km</text><text fill="#FFFFFF" style="font-size:3px; font-family:Arial" x="141" y="290">Avg: 63.5 km</text><text fill="#FFFFFF" style="font-size:3px; font-family:Arial" x="167" y="285">Min: 18.7 km</text><text fill="#FFFFFF" style="font-size:3px; font-family:Arial" x="167" y="290">Max: 108.1 km</text><polyline fill="none" opacity="1" points="72.55704955820693,35.90004408430832 73.22089896269608,35.641344928357285 73.63580484059639,35.511995186287095 73.92623895499855,35.90004408430832 74.13369189394871,36.49828420682752 74.32731463696109,37.14502765337238 74.46561659616418,37.67858893833181 74.59008835954592,38.06663234034204 74.65923933917657,38.61635880821268 74.78371110250009,39.18225163812167 74.89435266994406,39.74814237470855 75.00499423744623,40.34636744878662 75.08797541295644,40.91225387925806 75.18478678446263,41.4458020250604 75.28159815591061,41.97934831009479 75.36457933147904,42.52906071812322 75.46139070298523,43.111106997326715 75.55820207454963,43.74165463419922 75.66884364193538,44.42070302918728 75.79331540531712,45.16441924175888 75.90395697270287,45.843461321957875 75.98693814827129,46.58717061851348 75.91778716864064,46.84585126557795 76.12524010753259,47.39554618840339 76.1667306952877,48.2685870067362 76.24971187085612,49.173957408434944 76.31886285054497,49.93381771777058 76.3050326546072,50.25716138565622 76.20822128310101,50.38649866155174 76.22205147903878,50.871512472309405 76.41567422205117,51.53436219401192 76.54014598537469,52.34271162706136 76.76142912020441,53.1348899283912 76.95505186315859,54.00789800002531 77.14867460622918,54.880901090975385 77.21782558580162,55.543733444807 77.46676911250688,55.899398402296356 77.78486361884279,56.529893340717535 78.0614675374236,57.19271855193074 78.28275067225331,57.75854268025432 78.39339223969728,58.34053102960752 77.93699577404186,58.61535809186171 77.34229734918335,58.760854572057724 76.69227814057376,59.00334839835705 75.98693814827129,59.2458418403985 75.35074913559947,59.50450108831865 74.79754129849607,59.66616289631929 74.76988090667874,59.876322991374764 74.70072992698988,60.345140624951455 74.97733384557068,61.07261341989215 75.25393776409328,61.816248702816665 75.44756050710566,62.576046238071285 75.73799462156603,63.3358400012512 76.33269304648275,63.83697850396857 76.80291970801773,64.33811536581197 77.1348444102332,65.08173478192475 77.46676911250688,65.80918506256421 77.79869381478056,66.5043009891524 78.11678832117468,67.19941375874623 78.43488282751059,67.87835806749354 78.76680752972607,68.57346459681867 79.07107184018241,69.28473312649294 79.4029965424561,69.96366818519891 79.7210910487338,70.64260023234237 80.02535535919014,71.32152926806884 80.3711102574016,72.00045529242198 80.6892047636793,72.69554310235253 81.02112946595298,73.42295719787944 81.32539377640933,74.1180385483749 81.62965808674926,74.78078759425262 82.04456396459136,75.2333950498869 82.36265847098548,75.81531695500598 82.55628121393966,76.26792135182768 82.65309258550406,76.70436003855139 82.09988474834245,76.9629897842533 81.5190165193053,77.20545477396809 80.84133691893658,77.51257654305664 80.08067614288302,77.91668319517339 79.33384556282545,78.27229616664408 78.4763734153239,78.6602366479201 77.72954283520812,79.11283263353107 77.31463695730781,79.30680193207809 76.70610833651153,79.61391948543314 75.93161736457841,79.95336448546732 75.24010756821372,80.29280873284733 74.645409143297,80.58376034590765 73.84325777943013,80.9716949697613 73.05493661155924,81.34346472859033 72.37725701113231,81.66674204582523 71.68574721476762,81.97385486496205 71.43680368800415,82.103165341352 70.84210526308743,82.3617859664082 70.27506723010447,82.66889739126782 69.7080291970633,83.02449932410673 69.0580099884537,83.46091874914418 68.32500960427569,83.99431857923628 67.57817902415991,84.52771655094693 66.91432961967075,84.99645868902735 66.27814060694072,85.38438213174231 65.65578179026488,85.78846800612519 65.06108336534817,86.09557255735854 65.00576258159708,86.12789931643056 64.8121398386429,86.1763894421747 64.24510180560173,86.51581989244733 63.553592009237036,86.80675967947172 62.86208221287234,87.04920907971973 62.198232808266766,87.27549484018527 61.409911640395876,87.56643318373244 60.690741452155635,87.84120777828502 60.068382635421585,88.03516601871524 59.25240107567515,88.32610291872697 58.42258931999095,88.61703926594055 57.57894736842718,88.90797506023955 56.818286592373624,89.18274724733783 56.05762581637828,89.4575189413008 55.20015366881853,89.73229014223034 54.41183250094764,90.02322381753766 53.747983096400276,90.201016346924 53.16711486742133,90.39497159811435 52.793699577392545,90.50811204787169 52.29581252404023,90.75055558721942 51.64579331537243,90.94451014233346 50.94045332306996,91.20311583364673 50.17979254707461,91.5263723335811 49.37764118326595,91.75265147749451 48.56165962351952,92.04358131400659 47.718017671839334,92.35067331956816 46.94352670002263,92.67392739689967 46.182865923969075,92.96485548306373 45.39454475603998,93.22345776227303 44.63388397998642,93.498222205395 43.804072224360425,93.77298615558539 42.98809066461399,94.03158706997056 42.614675374526996,94.12856230030593 42.18593930080533,94.29018754772551 41.42527852480998,94.54878758871928 40.63695735682268,94.88819947979937 39.87629658088554,95.1629609358788 39.11563580483198,95.43772189891024 38.52093737991527,95.58318338567915 37.67729542829329,95.84178124311438 36.79216288897442,96.19735258410219 36.08682289667195,96.6175721953914 35.57510564732365,97.02162842648977 35.118709181726445,97.50649449655612 34.93891663465183,97.73276480386266 34.45485977717908,98.16914230953262 33.81867076444905,98.62168063163699 33.00268920476083,98.91259741829708 32.269688820582815,99.05805560432782 31.53668843646301,99.18735165377439 31.21859393006889,99.20351365224633 30.471763349953108,99.38129552319879 29.572800614638254,99.52675326408644 28.646177487506066,99.72069670369092 27.74721475224942,99.88231604911562 26.8759124087519,100.02777331414109 26.032270457188133,100.15706854482414 25.174798309628386,100.28636366639694 24.289665770251304,100.4318205476884 23.418363426811993,100.59343914259807 22.713023434509523,100.72273389571637 21.89704187476309,100.83586671519151 21.02573953132378,100.98132307453488 20.195927775639575,101.11061750017689 19.36611601995537,101.20758824776567 18.536304264329374,101.35304425410868 17.70649250864517,101.53082362969872 16.8628505570814,101.67627932903997 16.088359585090075,101.8055731679924 15.25854782940587,101.95102860633051 14.497887053410523,102.04799882184307 14.16596235113684,102.12880728782329 14.0968113715644,102.12880728782329 14.5532078371034,102.38739409251139 14.829811755684204,102.95305120557896 15.064925086509902,103.42173694522353 15.28620822133962,103.74496765412914 15.562812139920425,104.26213536941214 15.618132923555095,104.65001000987832 15.701114099123515,104.92475395255315 15.90856703807367,105.34494961741439 15.81175566650927,105.15101329996833 15.631963119492866,104.71465568779968 15.521321552048903,104.3591041215841 15.327698809094727,104.00355173001299 15.230887437588535,103.7934522016003 15.092585478327237,103.47022159502376 14.81598155980464,103.03385919408174 14.594698424916714,102.61365718842717 14.774490971991327,102.45204072546039 15.562812139920425,102.29042409190151 16.240491740347352,102.20961571118096 16.973492124525364,102.06416051842098 17.734152900520712,101.95102860633051 18.49481367651606,101.78941144410055 19.29696504038293,101.67627932903997 20.07145601225784,101.5631471304223 20.818286592373624,101.46617660793709 21.59277756436495,101.30455893398903 22.325777948542964,101.17526467209973 23.0034575490281,101.06213210332498 23.736457933147904,100.9489994510659 24.538609297014773,100.81970488894149 25.36842105264077,100.67424837608996 26.156742220569868,100.54495358205168 26.917402996565215,100.41565867878671 27.664233576681,100.30252554889012 28.38340376492124,100.17323044101067 29.08874375722371,100.06009713205276 29.821744141401723,99.96312565785774 30.444102958135772,99.8661541222391 30.817518248106353,99.88231604911562 31.260084517882206,99.80150639776548 31.730311179417185,99.67221086686186 32.29734921245836,99.59140110459703 32.96119861694751,99.46210539633466 33.7080291970633,99.2196756490739 34.41336918936577,98.88027335815423 34.93891663465183,98.4762220310804 35.33999231655616,98.08833175414475 35.69957741070539,97.60346752630721 36.142143680364825,97.15092619525967 36.66769112559268,96.77919481581193 37.38686131389113,96.47211169124057 38.13369189394871,96.26200183013862 38.88052247406449,95.95491766842315 39.66884364193538,95.66399526305031 40.48482520162361,95.38923470597365 41.32846715330379,95.09831122584 42.17210910492577,94.80738719302462 43.00192086055176,94.51646260748385 43.74875144060934,94.25786251189129 44.550902804418,93.98309943181812 45.31156358047156,93.72449843546201 46.05839416058734,93.44973439838213 46.7222435650765,93.19113250124792 47.41375336155761,92.96485548306373 48.132923549739644,92.72241544967983 48.86592393391766,92.46381232430576 49.59892431809567,92.22137149752234 50.359585094149224,91.96276752599806 50.912792931252625,91.8011398219387 51.25854782940587,91.70416311766894 51.770265078754164,91.5263723335811 51.99154821358388,91.42939545524132 52.42028428736376,91.31625568623713 52.945831732591614,91.10613875057606 53.65117172495229,90.86369577421283 54.39800230500987,90.57276369587635 55.14483288512565,90.29799400325282 55.877833269303665,90.02322381753766 56.62466384941945,89.74845313867263 57.35766423359746,89.47368196678872 58.104494813713245,89.21507335458591 58.67153284669621,89.03727968031308 59.21091048786184,88.82715961727081 59.432193622749764,88.76250723216799 60.12370341911446,88.53622366934724 60.78755282360362,88.27761347377964 61.409911640395876,88.06749236823816 61.97694967343705,87.85737097435049 62.53015751054045,87.66341250867117 63.1525163272745,87.45329056023911 63.844026123697404,87.19467853555398 64.54936611599987,86.88757618890668 64.93661160196643,86.72594312744332 65.51747983094538,86.41883984056767 66.11217825586209,86.04708240601758 66.7483672684757,85.59450691954407 67.32923549751285,85.22274748336349 67.93776411830913,84.80249659904803 68.39416058390634,84.43073523980274 68.89204763737507,84.05897297777119 69.41759508254472,83.68720981314254 69.91548213601345,83.36393676223815 70.45485977712087,83.04066302871797 71.13253937760601,82.66889739126782 71.81021897803294,82.34562219012878 72.64003073371714,81.99001868047344 73.41452170570847,81.61825049176696 74.25816365733044,81.23031750628434 74.96350364963291,80.85854747267149 75.58586246636696,80.58376034590765 76.27737226273166,80.24431674358493 77.03803303878522,79.90487238869537 77.75720322702546,79.59775541900308 78.5178640030208,79.25830963048793 79.2646945831948,78.95119136368157 79.8593930080533,78.64407248081989 80.59239339223132,78.28846037297626 81.28390318859601,77.99750439758645 81.92009220132604,77.67421933193691 82.61160199769074,77.302440662359 83.44141375331674,76.91449674016621 84.21590472530806,76.62353815336246 84.68613138684304,76.41340105231211 85.10103726462694,76.17093480800395 85.75105647323653,75.8476458848454 85.95850941218669,75.37887573357148 85.21167883212911,75.52435627896921 84.6169804072124,75.79915248746693 84.02228198229568,76.09011264125002 83.37226277362788,76.42956545493507 82.76373415288981,76.63970253382286 82.43180945055792,75.96079708563047 82.09988474834245,75.21723052096786 81.64348828268703,74.4413311243552 81.32539377640933,73.68159248771553 80.95197848632233,72.90568530723976 80.57856319629354,72.1459390486998 80.24663849401986,71.51550843943551 79.90088359586662,70.8527452556882 79.61044948134804,70.12531894572021 79.2646945831948,69.36555888663861 78.91893968498334,68.57346459681867 78.57318478671368,67.86219276180782 78.24126008455642,67.21557913442666 77.9231655781623,66.55279733131465 77.63273146364372,65.87384714242944 77.45293891656911,65.40504644460452 77.32846715324558,65.1787283524609 77.14867460622918,64.87158183495922 76.83058009983506,64.32194968615659 76.51248559349915,63.691486849682406 75.84863618901,63.481331993680215 75.58586246636696,62.64070968389569 75.33691893960349,61.897078407142544 75.11563580483198,61.15344351697422 74.81137149437563,60.52296762750484 74.7422205148032,59.90865528807626 75.41990011523012,59.58533201368118 76.24971187085612,59.375171519015566 76.98271225509234,59.10034582129447 77.77103342296323,58.82551962998696 78.46254321932793,58.61535809186171 78.7529773337883,58.11420249007642 78.43488282751059,57.30588354500651 78.31041106412886,56.86938953930803 78.00614675373072,56.044897464773385 77.6880522473366,55.2527342284302 77.41144832887221,54.44440016809676 77.20399538992206,53.57139458680467 77.06569343060255,52.827719237160636 77.01037264696788,52.01937236629601 76.94122166727902,51.22718828973302 76.96888205915457,51.065517566137714 76.91356127540348,50.59667150164023 76.56780637725024,49.94998491737351 76.48482520162361,49.109288271691184 76.41567422205117,48.10691315693839 76.36035343830008,47.330876299980446 76.36035343830008,46.91052135900827 76.3050326546072,46.2638191946462 76.22205147903878,45.60094663930067 76.13907030347036,44.938071211930946 76.01459854008863,44.242857312288834 75.90395697270287,43.644647474604426 75.80714560119668,42.96559563509072 75.66884364193538,42.27037277213822 75.50288129079854,41.28412096523971 75.35074913559947,40.330199234274914 75.21244717633817,39.39243987038208 75.07414521701867,38.50317999102117 74.90818286588183,37.64625194371911 74.645409143297,36.69230752787553 74.32731463696109,35.72218846157193 74.03688052244252,35.02693267943687 73.96772954281187,34.81673844883335 73.87091817130568,34.655050382585614 73.48367268528091,34.94608877875726 72.95812524011126,35.31797036813805 72.23895505187102,35.625176216548425 71.505954667693,35.98088748080772 70.80061467539053,36.28809199795069 70.02612370339921,36.579127287172014 69.196311947715,36.95100490649929 68.44948136765743,37.258207475359086 67.84095274674473,37.419892790174345 67.50902804458747,36.78931909610401 67.14944295043824,36.46594696266402 66.66538609290728,36.708476126834285 66.0153668843559,36.9995106162678 65.53131002688315,37.27437601452402 65.76642335765064,37.74326290702447 66.31963119475404,37.516903896976146" stroke="#4dd2ff" stroke-dasharray="none" stroke-linecap="round" stroke-linejoin="round" stroke-width="0.5"><title>2024-05-25 18.7km</title><desc>1716643451000</desc></polyline><polyline fill="none" opacity="1" points="180.40972597204382,105.32685857172874 180.33312977333844,105.14349048122313 180.4635503278987,104.91910386315612 180.54428686167375,104.86602283890716 180.531865856472,104.86361006218249 180.58776037986536,104.89497613998356 180.65607590843865,104.851546174752 180.57326920712512,104.85878450796554 180.616742725324,104.85637173048599 180.63951456818177,104.6923022700812 180.8071981383182,104.8153544746674 180.67677758376522,105.051805889967 180.6291637305112,105.1627924540553 180.61881289284793,105.24723839548824 180.6229532279176,105.37993853671651 180.7388826097449,105.44749467934344 180.74509311234578,105.49816165661832 180.69333892402938,105.56813015678017 180.65400574091473,105.65740000439655 180.55256753180583,105.72978070859972 180.54014652661135,105.89866813623485 180.55256753180583,105.97346074531742 180.5153045162151,105.78285974750906 180.6291637305112,105.60190797753967 180.54428686167375,105.5922571766514 180.5194448512775,105.4788599641015 180.59190071492776,105.32444584315272 180.62709356298,105.15796696236066 180.49253267335735,105.29549308052447 180.27516508242115,105.24241292144688 179.96671012003935,105.14107773348769 179.74106185897108,105.0614569167119 179.81765805767645,104.73814532489814 180.00811347069248,104.46549844938636 180.23583189929195,104.16630702293332 180.44077848504094,103.95638814339327 180.58154987726448,103.8116153903702 180.4883923382804,103.74646735535862 180.2068495538333,103.51482840878816 179.9335874395183,103.2132117140045 179.722430351183,102.96467659635528 179.55060644596233,102.87057036804799 179.35187036281422,102.67270473938152 179.0372048978461,102.34453361642227 178.76187261598534,102.01635782820449 178.47618949647585,101.70265602224026 178.1987870470839,101.39860251101891 177.91724426262954,101.12591619351406 177.73713968729135,100.97871250621392 177.4907897508965,100.74945899248632 177.26307132228976,100.51055027626535 177.11194909240294,100.34886317625205 177.01465121836372,100.25715954149382 176.741389104056,99.96756672373158 176.62752988974535,99.81794234412337 176.44535514686868,99.67555695303417 176.19279470787296,99.42698374103202 175.97749728446797,99.20012818161376 175.71251584027777,98.92017569368181 175.46202556881326,98.65228694335747 175.18876345450553,98.3843950829214 174.94448368563462,98.13098100094976 174.70020391677826,97.87756413571515 174.45592414791463,97.65069334268628 174.19508303878683,97.39003052859698 174.00876796084776,97.20418579798206 173.82866338549502,97.03282114830836 173.5243487581829,96.716637960777 173.1475782672278,96.32321313467037 172.8329128022524,95.99977911114001 172.60726454118412,95.76806239556026 172.43751080350194,95.70289164990936 172.07109115021012,95.49772328539802 171.7274433397688,95.31427708473348 171.31962033581658,95.10427766923385 170.967691855265,94.90393161712018 170.62404404483095,94.73496371436886 170.25348405646946,94.55392530203426 169.858082057719,94.35598834498705 169.51236407974648,94.17977474654981 169.17699693945178,94.00355980170389 168.8022966160279,93.83458530231292 168.45450847053144,93.66078166841908 168.09843965489563,93.4652510145097 167.7444410067983,93.29144459697454 167.50844190806674,93.1659169251543 167.2558814690783,93.05004462157558 166.92879499889386,92.87623507448006 166.55202450794604,92.68793992000428 166.17111368192855,92.48757287465924 165.80883436369186,92.29444636377775 165.44862521300092,92.1013182352508 165.06564421944495,91.91301675239993 164.7157859064173,91.73919863399169 164.36385742585117,91.5629650371975 164.00571844269143,91.3601740260001 163.60617610886402,91.16462386155035 163.26459846597572,90.99804278351985 162.98512584905984,90.85077445120987 162.61870619576075,90.66004849153614 162.26470754766342,90.47897808232119 162.08874330738763,90.38482090743491 161.97488409308426,90.34619221161302 161.60846443978517,90.15546207713123 161.20064143584023,89.95024434715378 160.81144993968337,89.75226786441817 160.43467944872828,89.54704654473971 160.0537686227035,89.3587241966452 159.65629645642184,89.15108495240565 159.27745579792827,88.95551604661705 158.9255273173767,88.784090085368 158.55703749653912,88.59817598191876 158.2030388484418,88.41708937439944 157.94633807439095,88.33499631025916 157.8055666821674,88.49676765700497 157.73725115357956,88.67785363846633 157.6668654574678,88.82272139920133 157.58405875616154,88.97000268914235 157.52195373017457,89.08830992891853 157.47848021199025,89.19937331566689 157.45777853666368,89.25731921804072 157.5033222223792,89.11245418895669 157.51781339511945,89.09555320958862 157.53437473537633,89.10521091360533 157.6565146198118,88.82272139920133 157.73725115357956,88.63680760737043 157.57577808602946,88.55230084258255 157.33563865222823,88.49918214612262 156.9671488314052,88.42433286602318 156.69802705214533,88.33741081632616 156.5075716391366,88.3108512357503 156.0645557871394,88.2698045510133 155.6008382598011,88.25773198277057 155.15575224026543,88.2215142400837 154.7520695713829,88.07905723328804 154.4788074570606,87.948672082357 154.19519450508233,87.81104251161196 153.8225643491969,87.63477887845511 153.4043905075814,87.44161170470761 152.97172549323295,87.30156449120477 152.54734114903113,87.17358956908902 152.16021982040547,87.06010177940152 151.92422072167392,86.95868668591174 151.6716602826782,86.81622187209359 151.3011002943167,86.6013156558729 150.92018946829194,86.40331040160345 150.53513830721204,86.26325687723511 150.14180647600006,86.11112880859037 149.82714101101737,85.95417022464244 149.4834932005906,85.78755148088385 149.10672270962823,85.64990900108205 148.73202238620433,85.5412433045658 148.38630440823908,85.42291785212365 148.1565158121084,85.32874001684831 148.04886710040591,85.11864961232641 147.95570956143638,84.95443968628751 147.93914822116494,84.58013327401386 148.01988475494727,84.19616102176224 148.15858597963233,83.80976738851314 148.20412966535514,83.42095225220874 148.25588385367882,83.09975218890031 147.96813056662359,82.92345250570725 147.61620208605746,82.72300054145671 147.51683404448704,82.45733862337147 147.44023784578167,82.23273115642769 147.07174802495138,82.02985801305294 146.7343107171182,81.84630458139327 146.41343474954192,81.657919274925 146.40515407940984,81.36809271712809 146.4175750846116,80.92126962671864 146.4155049170804,80.56380491131131 146.421715419674,80.29087203418203 146.42585575474368,80.04208969035062 146.42585575474368,79.85852041206272 146.4196452521428,79.6097333962316 146.42792592227488,79.15079883720318 146.44655743006297,78.62180502105002 146.45483810020232,78.20149989795391 146.46104860279593,77.74495287876562 146.4672591053968,77.31255343663724 146.4672591053968,76.88980869840816 146.4838204456537,76.4791349455063 146.4631187703344,76.35593139058437 146.34304905343015,76.25205337097577 145.933155881954,76.22064829599367 145.5211925429321,76.18924317815436 145.15891322471725,76.1626695834384 144.69933603244135,76.12884860031409 144.31221470382297,76.09744335719552 143.88783035961387,76.06362227821592 143.47379685306805,76.02738535271783 143.15292088549904,76.00322737068927 142.86516759845108,75.98148516517722 142.49253744254383,75.9621587430247 142.09713544379338,75.92350585004169 141.72036495283828,75.88726870390747 141.36429613720975,75.86311057477542 140.9688941384593,75.83653660344135 140.61075515529956,75.80029932034813 140.5672816371225,75.40893302668337 140.5879833124418,75.05621449124192 140.59626398257387,74.66000366090157 140.59833415010507,74.33384938188283 140.60868498777563,73.92313000890681 140.61696565789316,73.54622813272181 140.62317616050132,73.2248902464089 140.61903582543164,73.14999129704665 140.62110599296284,72.8793866091255 140.62938666309492,72.8093188050243 140.61903582543164,72.50971613183901 140.61903582543164,72.34058386728248 140.66250934361597,72.18353136519909 140.6418076682894,71.9104990782107 140.6335269981646,71.60363591389614 140.6459480033518,71.16387211538677 140.6355971656958,70.7506797855367 140.6335269981646,70.40755536661345 140.66457951114717,70.07167509649844 140.62524632803252,69.71645825011365 140.6335269981646,69.34432043020206 140.62317616050132,69.07608748724488 140.60454465271323,68.80785141507113 140.60454465271323,68.62177590501415 140.60868498777563,68.95526081502976 140.57556230724003,69.11716841116322 140.44514175268705,69.31290592298501 140.09942377471452,69.37573489450006 139.71644278116582,69.3467369289774 139.61293440452573,69.17274836786419 139.3748651382557,69.0664213768323 139.08297151614534,69.05433873310358 139.15749754733406,69.05675526236337 139.51770669801772,69.10508579409543 139.8903368539104,69.17516488467663 140.25261617213982,69.23316121189964 140.56314130205283,69.25249328846985 140.5672816371225,69.60288435921939 140.56314130205283,69.90494134172877 140.30230019292503,69.98226729136331 140.05595025652292,69.9653522621029 139.68746043570718,69.96051939431527 139.265146259022,69.94360434905502 138.89251610314386,69.92910572892652 138.48676326671557,69.91460709965395 138.06651925757615,69.90010846124096 137.6711172588184,69.8880262555831 137.26122408734227,69.87836048648387 136.83062924053957,69.87111115699554 136.41245539892407,69.84453026264782 136.30687685475277,69.59805141524157 136.29652601710404,69.17758140123078 136.2882453469574,68.80301830399003 136.284105011895,68.67977362813144 136.25926300150604,68.36803414616224 136.236491158641,68.07562350331864 136.20957898072083,67.7010424527889 136.1785264677237,67.35062239613035 136.14954412227235,67.07269924259344 136.1371231170706,66.83344096678047 136.09986010148714,66.45883967450209 136.06259708588914,66.09631648207687 136.03982524303137,65.74103820593518 136.01291306510393,65.40267283707726 135.98393071965256,65.19481735480258 135.94459753652336,64.83227422391246 135.915615191072,64.40930000909611 135.88870301315183,64.05157859679821 135.8472996624987,63.64792680253595 135.7934753066438,63.261187893132956 135.73758078325045,62.90586578242073 135.72101944299357,62.61338563613026 135.62786190402403,62.22421206494073 135.56782704556827,61.880960338110526 135.51193252218945,61.52561688003516 135.46638883646665,61.23070180888499 135.42498548580625,60.91886126279496 135.39807330789336,60.60218164705111 135.37944180009072,60.2951674697415 135.35459978969448,59.934964502414005 135.32768761178158,59.59651361367287 135.30905610397895,59.26289285632811 135.2366002403287,58.89542090591203 135.15379353902244,58.527943075298026 135.07305700525467,58.20155980803611 134.98818013640994,57.887260425373825 134.89502259743313,57.56086805142513 134.78323355066823,57.21754662160674 134.67972517402814,56.9129049979274 134.590707970121,56.63969121471746 134.49755043115147,56.330206187731164 134.40439289217466,55.99895587233914 134.31537568826752,55.62417785467005 134.2160076466971,55.372710464393094 134.09593792980013,55.04628233928088 133.9530963700381,54.68357897797796 133.8972018466593,54.487716779764014 133.73986911416432,54.19029320867958 133.63429057000758,53.87352077668402 133.55769437128765,53.63170681725387 133.37551962841098,53.2617265280096 133.23474823618017,52.91350433640764 133.09811717903358,52.55802206549561 132.95941595433396,52.21704410068378 132.85383741016267,51.94861107454199 132.74204836339777,51.66566475556283 132.63025931661832,51.36820460675153 132.55159295038175,51.16505887434687 132.33422535944555,51.28597916983381 131.97815654381702,51.4165723731694 131.6138070580564,51.54474646107519 131.2970714255498,51.668083114949695 130.97205512291112,51.71645024922509 130.8788975839343,51.331928715022514 130.79816105015925,50.94256386552115 130.71949468392268,50.59914342082811 130.63875815013307,50.2049291082094 130.5621619514277,49.820382239544415 130.4462325696004,49.457596265432585 130.33237335528975,49.1117349611759 130.2806191669806,48.92066249385607 130.1336372721562,48.55302491473594 130.00528688512713,48.18296271625877 129.87900666562928,47.79112564494426 129.74651594353054,47.401700688127676 129.6657794097555,47.16707500638768 129.52707818507042,46.76554507458604 129.3966576305029,46.38577836846525 129.2724475785435,46.00600537267201 129.15030769410805,45.647997043784926 129.03644847981195,45.32626857390096 128.9143085953765,44.99727840228297 128.78595820834016,44.60538688973793 128.67002882651286,44.26670981598727 128.57480112000485,43.97883036931307 128.45473140310787,43.63772483273897 128.33466168621817,43.27484103011193 128.2642759901064,43.07404285707344 128.13592560307006,42.71598873785115 128.0303470588915,42.38938044023416 127.9185580121266,42.08454182992682 127.77571645237913,41.67324521561568 127.63908539521071,41.27161904561581 127.52108584585221,40.925634231554795 127.40722663154884,40.594161363187595 127.28508674711338,40.22880979993897 127.1650170302164,39.88038963744475 127.04701748085063,39.536803455450354 126.96628094707557,39.27064160381997 126.88347424576205,39.021414521375846 126.73649235095218,38.629420809033036 126.62677347170393,38.31243333427483 126.51084408987663,37.97850285340064 126.39491470804205,37.63246830641947 126.27484499114507,37.28642853205383 126.1506349391857,36.918604298964055 126.05333706514648,36.57255373962653 125.98295136902743,36.27005770921642 125.8960043326515,35.92157732972373 125.81112746380677,35.58035182006461 125.71382958977483,35.217340377215805 125.69519808197947,34.92450695337902 125.61032121314202,34.80108017359453 125.38260278453527,34.88820502838644 125.07621798969194,34.977749672612845 124.69737733119837,35.086654849095794 124.31232617011847,35.20765999329524 123.96660819215322,35.316564076401846 123.606399041455,35.43272786086709 123.25240039335768,35.57551170534316 122.88598074006586,35.727974827656 122.53198209196853,35.817516188295485 122.23387796726456,35.95303758172486 122.04963305684214,36.02079797771876 121.89230032435444,36.09097817649308 121.58798569704231,36.18051811789155 121.23191688141378,36.262797755396605 120.9131110813687,36.3353971900724 120.83030438006244,35.98933781879714 120.78890102940204,35.65295341812998 120.74542751122499,35.38190627766926 120.70402416057186,35.120536353921125 120.63777879951522,34.72605572745124 120.5798141086052,34.418694946278265 120.46802506184031,34.075026825097666 120.35209568000573,34.07744704117249 120.0457108851624,34.22265953730857 119.71034374485316,34.35334999643965 119.47848498119129,34.31704716594686 119.3128715785715,34.324307736647825 119.20522286686901,34.44047655478789" stroke="red" stroke-dasharray="none" stroke-linecap="round" stroke-linejoin="round" stroke-width="0.5"><title>2024-05-01 58.8km</title><desc>1714551575000</desc></polyline><polyline fill="none" opacity="1" points="19.08992597215547,114.34251314162611 19.345234122272814,114.22752715207935 19.611005721177207,114.11988017609292 19.88096269959351,114.00244654041126 19.987689877096273,114.21774108404134 20.044192500485224,114.4697310176598 20.083953605833813,114.73639698898296 20.13208547019167,115.01773849087112 20.180217334564077,115.30641578206269 20.226256509173254,115.62689228716226 20.249276096488757,115.82015460005641 20.274388373538386,116.16508712386349 20.274388373538386,116.28250978925826 20.299500650609843,116.38036155549526 20.57573569827946,116.31431165864706 20.92730757714162,116.23603005542282 21.230747591624095,116.16508712386349 21.536280295877077,116.08435869595087 21.63672940411925,116.03787856430063 21.904593692772323,115.93268634284868 22.20384832775744,115.83238633772635 22.52612255004351,115.65624869177555 22.840026013313036,115.47766332146239 23.124631819999195,115.3210941922207 23.432257214000856,115.32843339380997 23.739882608002517,115.24280923049628 23.999376137639047,115.17675608812533 24.325835739437025,115.08623851283664 24.618812305147003,115.00550632275372 24.909696181115578,114.91743452154878 25.14198474393197,114.88073783881373 25.21732157511724,115.17675608812533 25.305214544823684,115.53637647193136 25.384736755528138,115.86663516881526 25.464258966225316,116.19444284604106 25.535410417884123,116.48799802069334 25.566800764208892,116.63232795004842 25.6484156646693,116.87939913060109 25.761420911447203,117.19740766064933 25.847221191397693,117.45670369116124 25.943484920135234,117.73311984694374 26.03137788984168,117.99974823364028 26.136012377610314,118.27860399591009 26.246924934624985,118.6161617418893 26.34109597360657,118.93659244141236 26.391320527727657,119.0711230930774 26.481306187197333,119.28881649221876 26.567106467147823,119.53341337598067 26.66127750614396,119.81225067265768 26.738707027077908,120.05928792934537 26.79311696071818,120.22560855867596 26.893566068960354,120.45552040335133 26.956346761609893,120.63895906823745 26.994015177202527,120.78815477779426 27.088186216176837,121.06208538206556 27.188635324426286,121.38492800721178 27.29536250192905,121.71021185953396 27.40418236919504,122.02815406832451 27.462777682339947,122.17978650814439 27.575782929125126,122.4977222729849 27.674139347611344,122.81809928434814 27.745290799284703,123.0259751281501 27.831091079249745,123.20694787363391 27.900149841159873,123.41237468269537 27.988042810873594,123.69605632981438 28.071750401075406,123.96750706821695 28.157550681040448,124.23161824821727 28.220331373697263,124.44192684992049 28.26846323805512,124.56175299042116 28.377283105328388,124.86253832785951 28.48610297259438,125.17310120614093 28.601200909120962,125.53501175083511 28.72466960467864,125.89936192862297 28.831396782188676,126.22702766692782 28.942309339210624,126.54979834319056 29.065778034761024,126.90190668250216 29.170412522515107,127.22711310601699 29.295973907821462,127.58410137091778 29.417349913623184,127.9239686520923 29.542911298922263,128.26872101974368 29.651731166188256,128.6110232633182 29.754272964186384,128.87508154122588 29.781477931013796,128.93865067752995 29.871463590483472,128.89953122965562 29.90494662655692,128.9753250999711 30.16653284594213,128.88975135737928 30.50764127603179,128.76750260582776 30.846657016350946,128.65258819167684 31.0057014377453,128.80906725367277 31.1396335820682,129.0853480192418 31.3070487624791,129.37385008384445 31.461907804361545,129.65012412018405 31.616766846236715,129.9386191582107 31.756977059834753,129.97284714489433 31.807201613948564,130.25644851964717 31.886723824653018,130.62072450739652 31.98717293289519,130.9849947734856 32.072973212860234,131.27591792362182 32.1357539055025,131.40793226707137 32.24457377276849,131.64995661186913 32.34920826052257,131.90420168848505 32.45384274828393,132.18289020548036 32.59405296186742,132.53246843554007 32.71752165743237,132.85270680598296 32.83471228371491,133.14116201167963 32.977015187061625,133.47116992431256 33.07327891579189,133.70095043935544 32.9539955997534,133.75472852913117 32.89540028660849,133.78895088498575 32.92260525342135,133.75961744020242 32.903771045625035,133.7498396170231 33.092113123588206,133.74006178973832 33.19674761134229,134.0113949675906 33.31812361714401,134.32916852888593 33.46251921023941,134.67382570211157 33.6152855623659,135.05025392855168 33.74084694767225,135.39001182461652 33.83920336615847,135.69798950386212 33.9417451641566,136.0597358434843 34.03800889289414,136.39459060504305 34.11962379334727,136.5827915253285 34.22635097085731,136.93719171279372 34.31842932008294,137.25248112383088 34.418878428325115,137.59220678066595 34.50886408779479,137.92459541654534 34.6009424370277,138.23253946393197 34.69511347600201,138.57469472527555 34.768357617438596,138.90218146613552 34.83113831008086,139.21011254543737 34.87927017445327,139.49848874143208 34.898104382249585,139.73554106747906 34.91903127980913,140.04834868005855 34.94832893637067,140.45890227595737 34.97762659293949,140.6544014367919 34.99018273148249,140.83279298475463 35.027851147060574,141.21889602540614 35.06970494216512,141.57811270964157 35.12830025530275,141.93732383722454 35.17852480943111,142.2818680654418 35.237120122576016,142.64351182776227 35.26013970987697,142.80478358185428 35.30199350498151,143.00026299456476 35.35012536935392,143.29836593134678 35.39825723371905,143.63800313912543 35.42127682102728,143.82858874946032 35.44638909808418,144.08025709543836 35.45266716735205,144.22197205142402 35.486150203425495,144.36368614284765 35.51544786000886,144.70330777432537 35.53846744731709,145.03070809991914 35.55102358584554,145.36299027968562 35.55102358584554,145.45094653176056 35.5782285526584,145.60242596306853 35.60961889899045,145.88095008181153 35.63473117604735,146.16680031077158 35.653565383836394,146.41844332809706 35.680770350663806,146.70428694451766 35.7016972482088,147.02677295694957 35.718438766249164,147.26374846175713 35.751921802337165,147.5617966964055 35.77284869988944,147.82075353443724 35.79168290767848,148.0137477917433 35.81888787450589,148.3337727113958 35.84190746180684,148.590278053136 35.85655629009125,148.7954802882341 35.867019738863746,148.92983791306142 35.86492704910779,149.21076498244838 35.8691124286197,149.50145985352174 35.87748318764352,149.79947939255726 35.89213201592065,150.07551047513152 35.91515160322888,150.3197830355948 35.919336982748064,150.7448111720205 35.92142967248947,151.13074952963507 35.9235223622527,151.50935371824562 35.9235223622527,151.8732964488354 35.92561505200865,152.30073868994623 35.93189312127652,152.60116481986552 35.9235223622527,152.96997533034664 35.89422470568388,153.12140576648198 35.95282001882151,153.29481682887854 35.965376157349965,153.57569115820843 35.98630305490224,153.88587017135433 36.003044572949875,154.15941043501516 36.01978609099024,154.4695816629046 36.01978609099024,154.81882462982685 36.000951883186644,155.11433381351162 35.973746916373784,155.45868275379325 35.95282001882151,155.69068803061418 35.93398581103247,155.79570018462982 36.05536181682692,155.805468732995 36.39228486739739,155.84454288543202 36.7333932974725,155.8885012284718 37.07659441731812,155.9178067443354 37.4721127810335,155.9642070689606 37.78810893405171,155.9935124894546 38.12921736414137,156.02770210003473 38.41382317084208,156.0252599866635 38.713077805812645,156.0570074405423 39.01233244079049,156.076544313697 39.319957834799425,156.09852327638873 39.62339784928918,156.12050221831123 39.943579381812015,156.14736534135045 40.21353636022832,156.1693442371161 40.38513692014385,156.1742284333577 40.69904038342065,156.20353358926332 41.021314605699445,156.232838708258 41.35405227676529,156.26947005507463 41.64493615271931,156.28656466384746 41.95465423647693,156.31098551174 42.22251852513,156.3427325756711 42.444343639173894,156.32563800817115 42.80219358729664,156.36226920886293 43.13493125835521,156.39890035186727 43.47603968844487,156.42820522474176 43.83388963656762,156.46239419643825 44.16034923835832,156.4868148597434 44.53494070452143,156.51856168370978 44.901161411668,156.54054022877062 45.14600611302012,156.55763463834774 45.39294350412092,156.57472903536473 45.56454406404373,156.58693931126618 45.82613028342894,156.59914958075024 46.14003374669119,156.62601215105678 46.18607292130764,156.9361504891367 46.17770216228382,157.22674880191698 46.17351678277919,157.5612986671622 46.16514602375537,157.89828563883202 46.158867954487505,158.19375570678494 46.15049719547096,158.5527101628013 46.14631181595905,158.8701482651668 46.14421912621037,159.2266505097923 46.14421912621037,159.53187069460182 46.14212643644714,159.82976173478164 46.135848367186554,160.08614031462275 46.14212643644714,160.26438280576986 46.12957029791869,160.66725463962393 46.123292228650826,161.15069163533553 46.11701415938296,161.62435248849397 46.10236533110583,162.04917412680516 46.091901882326056,162.45201507046295 46.087716502814146,162.77916561647544 46.04167732820497,163.1258425211854 45.95169166873529,163.4798382588615 45.8093887653813,163.79232657524517 45.63569551571709,164.07795675811758 45.57710020257218,164.18293107300815 45.64615896448959,164.1267820797275 45.73614462395926,164.20001987017895 45.92448670192243,164.32696482792198 46.158867954487505,164.51493974417644 46.42673224314058,164.6858247148739 46.5502009386837,164.7785903166441 46.77202605274215,164.99829684672477 47.0315195823714,165.18626634371503 47.27427159396029,165.3791165884104 47.5337651236041,165.44990931548273 47.73047796058381,165.44502706535422 47.807907481525035,165.53290741108867 47.925098107800295,165.74040135596806 47.97950804143329,165.823398416278 48.301782263726636,165.8722200782904 48.621963796249474,166.00892018743616 48.946330708298774,166.0870341752634 49.21838037645648,166.1944404807382 49.479966595848964,166.3238156001171 49.69969902014418,166.4238977466175 49.927802203448664,166.53618452100636 50.17055421504483,166.64602975472917 50.46353078074753,166.75099249404593 50.775341554261104,166.86327769150557 50.94694211419119,166.94871171825253 51.179230677000305,167.07075978429566 51.4470949656461,167.23430319016188 51.660549320673454,167.35634975976063 51.926320919563295,167.48815933666447 52.286263557449274,167.60288187983315 52.59807433097012,167.69563586335062 52.89523627619201,167.785948597686 53.200768980437715,167.8738201112228 53.458169820311014,168.003185902935 53.6653461060705,168.10081998701025 53.84950280452176,168.18624947490207 54.04412295174552,168.27900113560645 54.311987240398594,168.41080549186518 54.632168772935984,168.5645762983222 54.994204100563366,168.68661589847943 55.339497910150385,168.71834608979407 55.64084523489146,168.74763545880523 55.88987531574821,168.75007623790043 56.19750070975715,168.75983935170007 56.42560389305436,168.79889176598408 56.61813135052944,168.81841794857792 56.92994212403573,168.9038448049905 57.22501137950894,168.94533773651347 57.57030518909596,169.05029011578517 57.68749581538577,169.0942235295297 58.00767734792316,169.24066764365125 58.30483929314505,169.38467012492583 58.57898165106599,169.49450192759105 58.729655313436524,169.56040076067438 58.94520235820528,169.6409435257592 59.25073506246554,169.7629774878078 59.5709165949811,169.89965476648467 59.90365426604694,170.0290093096246 60.19244545225229,170.14860060685533 60.495885466749314,170.221819465487 60.862106173888606,170.40730621098191 61.217863432262675,170.58302913417538 61.54223034429742,170.74654788628868 61.808001943201816,170.8758977280886 62.03191974699439,171.0028063090358 62.297691345898784,171.14191684412071 62.56137025503995,171.26882397634472 62.81667840515729,171.39817091917575 63.042688898713095,171.50555274140243 63.32310932589462,171.65930312544333 63.59725168382283,171.81793341091543 63.863023282712675,171.94727730608793 64.15390715867397,172.09614391953255 64.46990331169945,172.25477123167548 64.75032373888098,172.40607627721874 65.01190995827346,172.5354169084021 65.29233038546226,172.6867201320656 65.59577039995202,172.83802237353666 65.87619082713354,172.97224128179005 66.17335277235543,173.12110134882096 66.46842202782864,173.27240077063107 66.75093514476612,173.41637834074572 66.97694563831465,173.53595225687968 67.2155122703989,173.65552555964314 67.5022107668483,173.79218001175286 67.78472388379305,173.94103484262814 68.07560775974707,174.09720938111423 68.39788198204042,174.25582307584227 68.69504392726958,174.41199550546844 69.00057663150801,174.5779275656114 69.29146050747659,174.75117889748435 69.58443707317929,174.8878269270881 69.93182357253681,175.06595619171094 70.26037586409075,175.23188359744927 70.57218663759704,175.39536973932627 70.82749478772166,175.52713385519382 71.13512018171605,175.6808577159136 71.45320902449748,175.844340709682 71.75664903898723,175.99074241779635 72.04334753543662,176.134703201069 72.3593436884621,176.33722279830909 72.53931500740146,176.4958212548063 72.59791032054636,176.5397406366501 72.85112578090775,176.71053744637175 73.12526813883596,176.9667303153874 73.34918594262854,177.1936416489316 73.55636222838802,177.41079128774436 73.75307506536774,177.5986606921797 73.99164169743744,177.84508449962414 74.26578405536566,178.12566289246206 74.53574103377468,178.40379814170774 74.80988339168835,178.6892492907973 75.06728423156892,178.95029984749453 75.3184070021889,179.20646811433107 75.56743708303839,179.45775425222382 75.81646716389514,179.70171878654583 76.05294110622344,179.9481203763553 76.28522966904711,180.1774422899798 76.49449864456255,180.41895974045292 76.71423106884322,180.619002604255 76.83351438488171,180.73853959437656 76.87327549023757,180.77269290762888 76.90466583655507,180.79708810077318 77.01348570382106,180.90686615424056 77.20601316129614,181.1069048345853 77.308554959287,181.20448405626848 77.49689703725016,181.4093990934507 77.67896104594547,181.60943346526983 77.9133422985251,181.83873905006294 78.11842589452135,182.06072422477155 78.24398727982043,182.1656175835924 78.47209046313219,182.36808482645756 78.71484247472836,182.6315335485142 78.95131641705666,182.8827827995974 79.1961611184015,183.13159007178 79.44519119925826,183.39503017454808 79.48913768411876,183.46820745311197 79.61888444893702,183.58772984799361 79.79885576787638,183.75115743804963 80.02695895118813,183.97556360758426 80.2466913754688,184.19265013137374 80.45386766122101,184.4170520560565 80.49781414607423,184.51705656663944 80.58570711578795,184.58779120565487 80.66104394697322,184.7853592342708 80.78869802204281,184.9414611853481 80.9079813380813,185.07804953618506 80.85566409420426,185.13658715615384 80.72382463963731,185.31219913528548 80.61291208261537,185.4585414420053 80.55640945922642,185.54878540716345 80.48944338705769,185.74146730026223 80.37853083004302,185.87805097008095 80.46642379975674,185.94878148502903" stroke="red" stroke-dasharray="none" stroke-linecap="round" stroke-linejoin="round" stroke-width="0.5"><title>2024-05-01 52.5km</title><desc>1714541844000</desc></polyline><polyline fill="none" opacity="1" points="186.0,148.1499065594644 185.77567584839562,148.19428394769238 185.58126158368395,148.2292478415511 185.30862146097934,148.27228019444374 185.0325301974808,148.28438301748156 184.77599539847142,148.28169350224925 184.5804307534927,148.2628668796824 184.37106154533103,148.28976204624905 184.08346647919097,148.29110680308804 183.81657825780712,148.28572777488898 183.5450885153623,148.3018648526604 183.28970409662725,148.30993338387816 183.0067105515409,148.30858862903187 182.74327347095095,148.27496971166966 182.53620502332342,148.25748783954805 182.24285805585532,148.25345355795798 181.98517287658615,148.3489312126403 181.77925480922568,148.37448144945392 181.57103598133108,148.3892736683756 181.43529111011594,148.16873334912452 181.3363584073595,147.92667250199702 181.26043330989341,147.76798567042533 181.16610212819796,147.52322752506188 181.10398159390752,147.34839739608833 181.0441618201512,147.19911746176604 180.9509810187228,146.96107286244478 180.85089793569932,146.72033396427832 180.75311561320996,146.48631525021938 180.66108519204863,146.3208856312358 180.29641464816814,145.6994966270413 180.1652712980067,145.4869800019169 180.12270722821995,145.34709370330347 179.96625551223406,145.48967010796332 179.74423212117108,145.55288743636265 179.5475170959253,145.4573887978113 179.44513325237494,145.44124811201436 179.16329008755565,145.4291425842248 178.98728190707334,145.4560437414466 178.73534862912493,145.5367468717477 178.54438550520717,145.60265404833444 178.4397009011227,145.63628002727546 178.17166229947907,145.7344673770467 177.8932702754464,145.8353440018791 177.76787882660574,145.8918345623606 177.58266760400875,146.0061599290848 177.46993033807667,146.05995974614416 177.24560618647956,146.19580327167023 177.06269572440942,146.2469123413748 176.85447689652938,146.31416080447434 176.64280692784087,146.37199419843728 176.41273087493028,146.44596676100628 176.2240685115321,146.50917933730125 176.0354061481412,146.63425861587984 175.81338275707094,146.80640873035372 175.59941202785558,146.88575838948873 175.43375726976228,146.95165857770553 175.16801942863822,147.06731930731712 174.91378539016296,147.18297898558922 174.75273215312336,147.26367116179426 174.51805457914452,147.3752944953485 174.4099188342734,147.41832973591863 174.18329392215674,147.578365759814 173.94401482711692,147.7505031018709 173.82207451907016,147.82984687399585 173.57474276219,147.9145693387827 173.33316290662333,148.01004953580286 173.1295455997897,148.05308262985454 172.8408001533753,148.11090812085877 172.67514539527474,148.11897677313027 172.41055793442501,148.1445274715852 172.15517351568997,148.08132301874775 171.9573081101771,148.02753174781174 171.77784878890088,147.92129331976685 171.5558253978379,147.73705495587274 171.3522080910043,147.85674295566878 171.1428388828499,147.98718814540553 170.9311689141614,148.09208124565794 170.67003259410558,148.18487057523998 170.38243752795097,148.28976204624905 170.13280501054396,148.37448144945392 169.9867067169398,148.4296159962396 169.79114207196108,148.52509232943612 169.61973541253246,148.60443127273356 169.36780213459133,148.6353598793694 169.13427494087955,148.689148581474 168.9801239854205,148.7106639986714 168.81676998785406,148.76041826164328 168.5429794848751,148.88144133268452 168.3623697833391,148.9957398432516 168.07592509745882,149.14230937258253 167.92867642359488,149.22164446890292 167.69399884960876,149.32921669114603 167.42941138875904,149.47443774929434 167.2303956029864,149.6115894498107 167.1291621397031,149.6747863047367 166.87147696043394,149.73932744981084 166.57928037322563,149.83076017858457 166.27903112417698,149.92084766619246 166.08001533839706,149.96790804057855 165.8050744551656,150.04858256340867 165.54508851536957,150.1749716214399 165.263245350543,150.31614940499185 165.13440276090114,150.3793427628607 164.89742442640272,150.48287162881752 164.6777017958666,150.58236610940912 164.49594171406352,150.64555814611322 164.30727935066534,150.7383288659039 164.22215121109184,150.7773192565619 164.1439253530989,150.80824258495159 163.92420272256277,150.90370108151092 163.67687096567533,151.03949292113612 163.44679491275747,151.15108315102316 163.1925608742822,151.2855279124351 162.93832683580695,151.4320710857619 162.791078161943,151.49391448781898 162.56215248928493,151.60415632932836 162.3504825206037,151.71708600684087 162.14686521377735,151.81522646102076 162.02952642679156,151.66599889580175 161.9167891608522,151.430726660642 161.78219466989685,151.19141672847672 161.68901386846846,151.06369329498557 161.5555697577729,150.85933313690384 161.41982488655776,150.65900321983918 161.330095225916,150.52320732275803 161.1586885664874,150.5850551386402 160.93551479516464,150.72219487622988 160.76986003706406,150.79883114512995 160.52482904070348,150.89563419398746 160.23953473509027,150.89966763838947 160.10148910333373,150.85529967972798 159.84035278327065,150.70202736038846 159.52514859077928,150.56623192212555 159.18578641272325,150.51648471597036 158.91774781107233,150.47480447469843 158.64510768836772,150.46135920647157 158.38742250909854,150.41698972060476 158.2206173707309,150.39009904785962 158.0273534862863,150.361863780362 157.7754202083379,150.33900661318967 157.50393046590034,150.3094266888893 157.22553844186768,150.28522488153158 156.9482967981021,150.2610230281698 156.6986642806878,150.23547657749168 156.46628746723582,150.21530829075527 156.22355723140936,150.21934195065842 155.99118041797192,150.3094266888893 155.8646385888569,150.3242166596301 155.76110436504678,150.16152603660157 155.6322617754122,149.95580681806132 155.5068703265788,149.75680728695897 155.41253914487606,149.60352174362197 155.29635073815734,149.42468627703784 155.1698089090496,149.247192953997 155.06627468523948,149.057595079802 154.90407106793282,148.80613822371924 154.7568223940616,148.57888149752398 154.6118744807245,148.35431021412842 154.47382884897524,148.32203617110463 154.28516648558434,148.4054106148651 154.1379178117204,148.51030026835997 153.87908225218416,148.62191266832815 153.73873585990077,148.68242500614542 153.51901322936465,148.78193355837539 153.27283185274428,148.8666496857286 153.01629705374216,148.9957398432516 152.91046206940518,149.06566313197527 152.768965296862,149.12886269708451 152.53658848341001,149.22164446890292 152.3364223173703,149.29828977035777 152.1190004473683,149.374934610345 151.96599987217633,149.423341639952 151.63469035597518,149.8159696346238 151.48399054131733,149.88454382995587 150.67987473636458,149.85630744131322 150.53377644276043,149.82538180095253 150.30255000958277,149.8697533484783 150.01955646448914,149.91278015597436 149.76072090496018,149.94505016617313 149.52029142966785,149.96925262014793 149.29366651753662,149.98269840802914 149.0497859014431,149.9934550281141 148.82546174985328,149.99479960498684 148.51485907840834,150.0069007904367 148.28938454655145,150.02572483383938 148.1789480411462,150.0163128156173 147.87064613024268,150.0122790913947 147.55199079695012,150.0324476997348 147.24483926630637,150.02572483383938 146.9181312711662,150.0163128156173 146.61903240237734,150.0095899411981 146.32568543490197,150.00824536589062 146.04729341086932,150.00555621484364 145.75624720392807,150.00152248721406 145.4813063206966,150.00421163911142 145.20751581772493,150.0069007904367 144.94522911740205,150.00421163911142 144.674889755217,150.00824536589062 144.40800153384043,150.0028670632346 144.12960950980778,150.00152248721406 143.85466862656904,150.00017791105074 143.69821691058314,150.00152248721406 143.38991499967233,150.00421163911142 143.0931168914176,150.0069007904367 142.81587524764473,150.00824536589062 142.54668626573402,150.0122790913947 142.31085831148812,150.0122790913947 142.1256470888984,150.0069007904367 141.84035278327792,150.00421163911142 141.57576532242092,150.0069007904367 141.27206493257108,150.00421163911142 141.05234230203496,150.0095899411981 140.86137917810993,150.0069007904367 140.53006966190878,150.0095899411981 140.2447753562883,150.020346538563 140.02620310601924,150.0163128156173 139.7386080398719,150.01765739007442 139.4291557487013,150.01900196438874 139.14846296413452,150.02303568648495 138.90343196778122,150.01900196438874 138.65264907010715,150.0163128156173 138.38921198950993,150.02303568648495 138.15568479580543,150.02438026023174 137.90490189812408,150.02303568648495 137.60580302932794,150.02438026023174 137.36537355402834,150.03648141757003 137.11459065635427,150.0311031268402 136.81089026650443,150.02572483383938 136.49338531347166,150.02438026023174 136.3472870198675,150.0149682410156 136.03668434842984,150.03782598989983 135.7974052533973,150.03782598989983 135.6167955518613,150.03782598989983 135.28548603566014,150.03782598989983 135.00134211029945,150.03513684510108 134.7298523678619,150.0324476997348 134.45491148462315,150.03648141757003 134.19262478430028,150.04723799221665 133.91653352079447,150.04858256340867 133.65654758099845,150.04858256340867 133.413817345172,150.04858256340867 133.21020003833837,150.05933912782984 132.92950725377887,150.05530541723692 132.67412283504382,150.0526162761298 132.4739566690041,150.05530541723692 132.1737074199482,150.05664998757493 131.90451843803748,150.05933912782984 131.75381862337963,150.06337283714402 131.7124049338454,149.93160433853154 131.6387805969207,149.85496284981855 131.3661404742088,149.8468952978501 131.12801175943605,149.82672639557313 130.96005624080863,149.82672639557313 130.6839649773101,149.82134801623306 130.38831724930787,149.811935846923 130.1225794081911,149.79445608546575 129.84763852495234,149.7783208997389 129.57384802198067,149.76756409789323 129.295455997948,149.76487489601368 129.0147632133885,149.774287100111 128.73407042883628,149.7836992972516 128.47753562983416,149.79176688926327 128.21064740844304,149.7998344761636 127.94951108838723,149.80252367065623 127.70332971175958,149.8105912507417 127.47325365884171,149.818658825714 127.3490125902681,149.8200034210431 127.0959289320599,149.82941558438688 126.81293538697355,149.8388277407721 126.61737074198754,149.84555070536135 126.62542340384243,150.11043268473168 126.60931808013265,150.40085532377088 126.60126541828504,150.6778262992184 126.55985172875808,150.93596858049932 126.5299418418872,151.07713792725735 126.4137534351612,151.34871646001102 126.28376046525955,151.6216336068146 126.15836901641887,151.88782302274194 126.04103022943309,152.14862947927395 125.95705247011938,152.43631700540027 125.94554866747058,152.71055514055934 125.99616539911221,153.06141002916047 126.05368441234168,153.37730558996827 126.10085000318941,153.64480251522127 126.10315076372353,153.89078719355257 125.82475873969088,153.92573545112555 125.55211861698626,153.96606024460743 125.29098229692318,153.99966414169194 125.04825206109672,154.03595625101752 124.97922924521845,154.0520860442066 124.74225091071276,154.0830014240828 124.5156259985888,154.12332571990555 124.26484310090746,154.1596174770475 124.14060203233385,154.16230575124519 124.06352655460796,154.15558506469097 124.26139196011354,154.16633816147078 124.5236786604437,154.12735814247026 124.7882661213007,154.0856897144413 124.99418418866117,154.05746263739547 125.20470377707534,154.03057964874824 125.4382309707944,153.9956316787211 125.70857033296488,153.95530697882168 125.9075861187448,153.92842377465968 125.93174410429492,153.84105296944927 125.87192433053133,153.59909992073972 125.81785645810305,153.38537090600585 125.78334505016392,153.2294405578259 125.73272831852228,153.04662323654702 125.66370550265128,152.75491663710727 125.60158496836084,152.48874534061997 125.5440659551241,152.22525716544715 125.50610340639832,152.04108107204047 125.4428324918481,151.79102751515893 125.32549370486231,151.5611352364158 125.20125263628142,151.3406498543727 125.11037259538716,151.07848238969746 125.15293666516664,150.86336659279823 125.21390681919729,150.62270148818607 125.27832811401458,150.41026705773857 125.34735092988558,150.14808043756875 125.41407298522972,149.93160433853154 125.47619351952017,149.71915837712277 125.42212564707734,149.5725954892041 125.15753818622761,149.5080534988574 124.92055985172192,149.44754508572987 124.64676934875024,149.374934610345 124.39138493001519,149.314425564492 124.13369975074602,149.24853760968472 123.88751837411837,149.18533863872653 123.69310410941398,149.1369307040868 123.42506550776307,149.06566313197527 123.16738032849389,148.9943951608584 122.93730427557603,148.93253961720075 122.70952898319229,148.87471785892467 122.41963315651083,148.79941471018537 122.17230139961612,148.73755821902432 121.88930785453704,148.66359897631628 121.64542723844352,148.61249961214617 121.41765194605978,148.55064221262273 121.1772224707529,148.4296159962396 120.99546238894982,148.26421163936357 120.81600306767359,148.08535735490477 120.61353614110703,147.88498378025088 120.43177605930396,147.71150343932095 120.24196331564599,147.55281392463075 119.97507509426941,147.45195091634105 119.70358535181731,147.44926122517518 119.51262222789956,147.50305494045642 119.3262606250355,147.6160210023554 119.09618457211764,147.81505400484457 118.87071004026075,147.9912225113967 118.6486866491905,148.1028394634668 118.40365565283719,148.17680196474066 118.16897807885834,148.2077316105424 117.94235316673439,148.2158002014312 117.81120981658023,148.22521355100525 117.53396817280736,148.24269546745836 117.28548603566014,148.2588325997931 117.04390618009347,148.27765922832714 116.78852176135842,148.2951410727419 116.52968620182219,148.31531240184268 116.31226433181291,148.33010468953216 116.07413561704743,148.3489312126403 115.8026458746026,148.37179195325916 115.5541637374481,148.39196316087873 115.31373426215578,148.41751331131036 115.06525212500128,148.4309607383011 114.80641656546504,148.46726872021463 114.56023518885195,148.56274477096485 114.35201636095735,148.71604284728528 114.1817600817958,148.91505864821283 114.09893270274915,149.06700780683968 114.03221064740501,149.2660181207275 114.00115038026706,149.54435840869064 114.01955646448914,149.84151692703563 114.04026330925262,150.1252228866215 114.06442129481002,150.42371237991574 114.08167699877959,150.68858233208448 114.10698536460404,150.96554704941173 114.12884258962731,151.253261299139 114.14954943439079,151.56382405898057 114.15415095545177,151.8757236245183 114.15069981465786,152.10964328657428 114.13229373042122,152.43497268627743 114.10928612512362,152.74147377567988 114.08857928036741,153.018393857541 114.069022815871,153.29530792045807 114.04946635137458,153.56683916711063 114.0287595066111,153.85315050128247 114.02415798555012,154.1394554025037 114.10583498433698,154.416345103803 114.23467757397157,154.62602456409513 114.26228670032287,154.63140091515106" stroke="red" stroke-dasharray="none" stroke-linecap="round" stroke-linejoin="round" stroke-width="0.5"><title>2024-04-21 79.4km</title><desc>1713660889000</desc></polyline><polyline fill="none" opacity="1" points="19.32050525604427,194.41743603809846 19.429894285036426,194.30644222959017 19.791084475102252,194.37400374251956 20.412331602012273,194.16649274531846 20.5815750053589,194.8710572981381 20.697155866175308,195.54182115445838 20.773521792070824,196.20532716448906 20.765266016293026,196.48278759704408 21.40508863869036,196.35974034300307 21.989184774625755,196.48037491215655 22.09238197178638,196.81332301624388 22.030463653492916,197.29584788474313 21.81994137127913,197.53710649574896 22.005696326174075,197.30791087582475 22.079998308130598,196.767482623427 21.63625036033045,196.29701011516954 21.985056886740495,196.17878729428048 22.371014404125162,196.04126201817417 23.039732241726597,195.75173241357516 23.757984733965714,195.46219913753885 24.34620875778637,195.29812865133135 25.10780407283164,195.100277379217 25.576319347943354,195.0930388855304 25.757946414945764,195.81928964969302 25.923061930399854,196.49485101762912 26.10262505346327,197.1149022538557 26.335850719042355,197.7856002005865 26.587651880116027,198.52141521771227 26.82706937752664,199.2523817468791 27.103637865919154,200.0339834441329 27.324479867849732,200.6732365569478 27.555641589489824,201.3510665453323 27.81982641421928,202.12777227118386 28.059243911622616,202.83932732550602 28.244998866517562,203.3772000012159 28.43075382141251,203.90541241620303 28.639212159672752,204.53249806395797 28.868309937366575,205.20780182932504 29.103599546891928,205.9072025550904 29.347144932202355,206.59452380072617 29.547347494692076,207.17089305625086 29.797084711812204,207.9112288993565 30.009670937964984,208.54543891405228 30.17891434131161,208.96019792781044 30.81048118793842,208.71182570104793 31.3326590055658,208.73593962770428 31.702104971409426,209.39424000342115 32.03646389021014,209.88132185697577 32.242858284531394,210.59022443550384 32.40590985604649,211.2050711249576 32.69279806414852,211.85847831655155 32.98381416013581,212.61312834280943 33.324364910782606,213.41114969378214 33.48328859439789,213.83546391190612 33.759857082790404,214.50084991029325 33.97450725288218,215.0480912862804 34.174709815379174,215.6604075336545 34.35014505055733,216.2751179967363 34.58956254797522,217.0175697994091 34.83310793326382,217.80338541031233 35.0456941594166,218.62291896894567 35.17985051572032,219.1724721003593 35.200489955161174,219.80637007598125 35.241768834028335,220.40891842353813 35.29543137655128,221.01868121094594 35.42545984496974,221.86219980528404 35.526593098184094,222.50566310220165 35.642173959015054,223.16838730245217 35.7247317167421,223.89133729163404 35.78665003502829,224.3877497399153 35.827928913902724,225.0696968770353 35.89603906402044,225.78294849208578 35.95382949443592,226.50099694932214 36.00336414906633,226.98771498884707 36.0632185234208,227.720182060777 36.10656134623423,228.2285582736895 36.13132867355307,228.66946311038737 36.151968112979375,229.41392252073638 36.178799384244485,230.02103657006774 36.189119103961275,230.9822676038748 36.193246991846536,231.83746434839122 36.18705516001501,232.53364321904883 36.23246192676743,233.01300669521152 36.26961291774205,233.76936888929777 36.26754897380306,234.51607143003457 36.2180143191581,235.0941470267644 36.33153123604279,235.3735450100994 37.0889986632028,235.45061971703035 37.836146370653296,235.51324272573947 38.511056040078984,235.5662312919194 39.171518101909896,235.61440260950803 39.935177360901434,235.66739094202057 40.531657160492614,235.722787704266 41.26229331638751,235.78540997007804 41.93307509794249,235.84080644734786 42.647199702281796,235.8986113245046 43.29734204439592,235.94437341563025 43.90414156370389,235.99495246279002 44.45521459654992,236.03830584302705 45.09710116289352,236.09129319652675 45.64611025177146,236.12982937674315 46.211630892219546,236.17077399731716 46.30863625755592,236.76807544842632 46.292124706014874,237.62546486894098 46.27561315445928,238.39853292149564 46.27561315445928,238.98373534440907 46.261165546864504,239.68451367496345 46.24465399530891,240.77296542862496 46.224014555882604,241.67595592362704 46.17860778913018,242.55001689528035 45.9288705719955,243.25790965961824 45.604831372911576,243.7972418807749 45.43765191351849,244.1295027473916 45.613087148689374,243.87188061004053 45.99078889030352,243.70815662828318 46.53773403525702,244.11264905105418 47.04959213317488,244.53398774914422 47.652263764590316,244.8734607344686 48.06092466534756,245.2081135888984 48.69868334379862,245.42238515828103 49.40661611632095,245.6535073068717 50.112484944897005,246.00500111681686 50.79358644615422,246.2433397498753 51.44785667616088,246.60686158961653 51.895732511839014,246.85963828610875 52.62017683590966,247.0835238946238 53.241423962812405,247.27611191974756 53.652148807515914,247.47351297005116 54.09383281136979,247.687763410122 54.74603909741563,247.99830263623699 55.4271405986874,248.10181477892002 56.095858436288836,248.12829455446808 56.62216414180875,248.1908829935437 57.36931184925197,248.37142561258588 57.98230320039147,248.61696129796474 58.60148638335522,248.87934457160736 59.30116338010703,249.16098199935368 60.00703220869036,249.4522444263912 60.644790887141426,249.68091895159705 61.360979435434274,250.04679345910517 61.8769654212374,250.3187884959534 62.312457593252475,250.53060541019295 62.8738503458153,250.81462957235271 63.47652197723801,251.14438203566533 64.01108345852845,251.4235848024 64.570412267145,251.69797042418577 65.17514784249943,252.01086231167756 65.7736915860296,252.30449544000658 66.4073223765954,252.62459941341876 66.9233083624058,252.8941571971518 67.5466194332621,253.20703280430644 68.22152910268778,253.548784371309 68.79530551891366,253.85443111745735 69.28033234555915,254.1119413641518 69.8334693223369,254.3935146882559 70.38454235518293,254.68711738828824 70.82003452719073,254.90611368262944 71.3979388312946,255.19970983794155 71.9263084807535,255.46923743456864 72.33496938151802,255.77485865542985 72.8344438157801,256.1815451630482 73.2575523241394,256.60988175621424 73.70336421587126,257.0502419601162 74.3122276791255,257.683094593016 74.85298099224747,258.2293070113592 75.38547852959891,258.7610696380798 75.84986591681081,259.2254495706602 76.25646287362906,259.6801959653021 76.56605446511821,259.96410714647027 76.82611140196241,260.20711308691716 77.10680777824018,260.551166613699 77.22445258300286,260.7171766153933 77.62485770798958,261.0515989245414 78.04383832845633,261.4365394509059 78.5247372672311,261.932140897321 79.15011228201911,262.58410518689743 79.60624389347504,263.03637952757526 80.07888705647929,263.5391634437092 80.19859580517368,263.7340193292821 80.3121127220511,263.96736309610424 80.48548401328298,264.126131729623 80.73934911830293,264.4051769775306 80.74760489407345,264.50861530499424 80.8198429320837,264.72511262561784 80.67330291211692,264.89349802306424 80.57423360284156,265.10036982544807 80.45039696625463,265.4130794866451 80.3987983676634,265.728190310665 80.30798483417311,265.9591084818694 80.33894399332348,265.6752712369398 80.44833302230836,265.4154849291117 80.37609498429083,265.11720814616274 80.69187840759696,264.6144586938826 80.73728517436393,264.35706596919226 80.62996008931077,264.2271657444762 80.38847864795389,263.99623020182844 80.56597782707104,263.7243968551338 80.42562963892851,263.6161437437495 80.06237550493097,263.3346832716488 79.62069150107709,262.8679805455413 79.30490807776368,262.54561334330174 78.78479420408257,262.0307787467391 78.31421498501732,261.55683204495836 77.92412957975466,261.15024054800415 77.41639936971478,260.6642460202711 76.9891629734775,260.21914301729885 76.57224629694247,259.7812494991267 76.17596905984828,259.3842509202532 75.82097070161399,259.03777383529814 75.3689669780506,258.56376548228945 74.9025156468706,258.096965985942 74.4670234748628,257.66384457955974 74.02946735890146,257.21868352477577 73.67240505672817,256.86976748629604 73.3235985303254,256.5064079167205 72.87985058252525,256.06363088040416 72.44229446657118,255.65453582487135 72.09555188410741,255.42592071244326 71.48256053296791,255.08660356624387 70.78907536804763,254.7159961398902 70.13893302593351,254.40314106573533 69.54038928240334,254.09268836135016 68.97280469802354,253.80870469736328 68.32059841195587,253.49583727798017 67.69315945322887,253.16371182035437 67.23909178571921,252.93025844605472 66.51671140559483,252.57165019164313 65.89133639079228,252.24913866172392 65.30724025486415,251.93143631279963 64.68599312795413,251.61613645868056 64.09364121625549,251.30564611638147 63.530184519753675,251.01681412553262 62.974983599029656,250.75204827877315 62.33103308873979,250.41506915351783 61.74693695282622,250.14066821613415 61.16284081689082,249.82534379514072 60.572552849123895,249.52205057536958 60.11848518162151,249.2813388217146 59.54883665329544,248.99729570930685 58.99776362045668,248.70843470601721 58.48177763464628,248.45327113257372 57.9141930502592,248.1668105371482 57.71192654383049,248.2221771491495 57.35692818559619,248.34494611723312 56.75632049811975,248.2197699079261 56.250654232026136,248.1234800520997 55.57368061865418,248.087371252117 54.880195453733904,248.01515348194152 54.434383561994764,247.82257165172632 54.054617876441625,247.63961741785351 53.460202020796714,247.3555540097841 52.91532081979676,247.15092988705692 52.37043961877498,246.98722927664312 51.930819558874646,246.85241613337348 51.47881583531125,246.60686158961653 50.85344082052325,246.25296954166333 50.27347257247311,246.0459281286603 49.75748658666271,245.80277245856632 49.21260538565548,245.54035404552997 48.632637137619895,245.3790494965142 48.135226647296804,245.2249664813953 47.93915197269962,244.91438976254722 47.54081079165917,244.86142277115323 47.08467918020324,244.5460258840867 46.657442783958686,244.17284076689612 46.24465399530891,243.8911421782068 45.8050339354013,243.57091650898474 45.54704094251065,243.88873448307277 45.13425215386815,243.8670652154633 44.632713775659795,243.56369332209033 44.17658216421114,243.22179321015392 43.72664238458674,242.89192700961758 43.253999221589766,242.530754202131 42.77516422676854,242.20569381796304 42.33348022290738,241.82043110695668 41.88973227512906,241.5531513029673 41.44598432733619,241.3219878820746 40.98778877193399,241.11008603485243 40.556424487811455,240.9680143829155 40.098228932409256,240.80426969342625 39.64416126490687,240.66460418237148 39.20454120499926,240.5442021977251 38.769049032984185,240.43102375635135 38.38309151559952,240.3756383582895 37.732949173485395,240.3611899716052 37.16536458910559,240.3298851025811 36.581268453170196,240.3058044050449 36.03638725216297,240.2335621608836 36.03638725216297,239.8121445384677 36.0425790839945,239.417209000836 36.04670697187976,239.02949128350156 36.061154579489084,238.43706522718458 36.07766613103013,237.93373188709666 36.08798585073964,237.4376126241259 36.13132867355307,236.90535624569748 36.17467149635195,236.42125714410577 36.22214220705064,235.88656865377743 36.25722925407899,235.46747977465202 36.308827852677496,234.95685539155602 36.339787011813314,234.46548912222534 36.339787011813314,233.966886119415 36.30676390872395,233.48754257954351 36.28818841323664,232.92147072497391 36.28406052535138,232.5721853764935 36.28406052535138,232.08076801700372 36.28199658140511,231.4833444951164 36.27786869351985,230.8545876069984 36.27580474957358,230.3269966847729 36.25929319803254,229.8090303162262 36.242781646491494,229.3729658353477 36.2180143191581,228.68632815432102 36.20150276762433,228.29601967254894 36.14990416904038,227.64549076668845 36.096241626524716,227.07686519286472 36.05496274765028,226.59737757992116 36.00130020513461,225.98294411495772 35.96002132626745,225.3757230933661 35.912550615561486,224.87933205051195 35.85269624121429,224.2600330017558 35.794905810806085,223.65276631734923 35.728859604620084,223.14910832375426 35.66074945449509,222.70568733553955 35.59057536042383,222.27430759356503 35.503889714804245,221.794719460966 35.423395901030744,221.24763932983115 35.34909391907422,220.64752318693536 35.30987898415333,220.15826023685986 35.276855881063966,219.6352434544151 35.21700150670222,219.05436749628097 35.09935670193954,218.4614249709084 34.975520065345336,217.97934655935023 34.82278821354703,217.44181716059575 34.659736642039206,216.94766465014618 34.494621126585116,216.4414485782272 34.360464770266844,216.00271892655837 34.2180526381926,215.49166059681556 34.024041907527135,214.92996540072272 33.848606672356254,214.4188831148058 33.6133170628309,213.92707617618726 33.48741648229043,213.5365160771853 33.25419081670407,213.01816984834477 33.03954064660502,212.49981187604135 32.83314625228377,211.97420901011174 32.628815801908786,211.44618296255976 32.40178196816123,211.15202617961586 31.88992387023609,211.37384967812432 31.38219366021076,211.561915741926 30.901294721443264,211.61013756052125 30.777458084841783,210.99289060557203 30.657749336140114,210.43349616540763 30.544232419255422,209.9319584841087 30.39150056746439,209.3773607433177 30.24083265961235,208.91438189471046 30.071589256273,208.4345137168093 29.91679346052115,207.9980419556723 29.724846673794673,207.42410508098146 29.547347494692076,206.90803189257713 29.35127282008034,206.33406765503605 29.1634539212464,205.78661774970533 28.99833840579231,205.2753311085762 28.79607189935632,204.71097314160943 28.60618905658339,204.1586606142937 28.445201429007284,203.67869260110092 28.275958025667933,203.201126483209 28.088139126833994,202.66807372685798 27.923023611379904,202.17601399199702 27.745524432262755,201.65499801720944 27.53913003793423,201.0616042418369 27.369886634594877,200.5598608946675 27.206835063087055,200.07981728147024 27.02520799607737,199.55392878008934 26.88898769582738,199.1245246030303 26.699104853047174,198.60343902975 26.498902290557453,198.00514093294078 26.315211279608775,197.45749143587818 26.10262505346327,196.835036854407 25.964340809267014,196.29459741065511 25.838440228733816,195.77103450143113 25.6877723208745,195.22574423847072 25.640301610183087,194.80591011826255 25.138763231974735,194.95068137664566 24.527835824781505,195.11475435970533 23.966443072225957,195.2836517871183 23.502055684999505,195.45013517136067 22.897320109637803,195.6769366689914 22.408165395099786,195.87719569299043 22.117149299105222,195.97129270013647 22.143980570363055,195.97129270013647 21.78898221214331,196.10881839765534 21.13677592608292,196.2463432668792 20.808608839106455,195.9833563909615 20.759074184468773,195.54423393851903 20.68890009039751,195.1195800178266 20.577447117466363,194.46328114935022 20.420587377782795,194.00241294701482 19.900473504094407,194.27266139814128 19.427830341097433,194.2605968033713 19.28335426506237,194.41984894098823" stroke="red" stroke-dasharray="none" stroke-linecap="round" stroke-linejoin="round" stroke-width="0.5"><title>2024-04-05 108.1km</title><desc>1712276378000</desc></polyline></svg>