<?xml version="1.0" encoding="utf-8" ?>
<svg baseProfile="full" height="200mm" version="1.1" viewBox="0,0,200,200" width="200mm" xmlns="http://www.w3.org/2000/svg" xmlns:ev="http://www.w3.org/2001/xml-events" xmlns:xlink="http://www.w3.org/1999/xlink"><defs /><rect fill="#1a1a1a" height="200" width="200" x="0" y="0" /><rect fill="#1a1a1a" height="200" width="180" x="10" y="0" /><text alignment-baseline="middle" fill="#e1ed5e" style="dominant-baseline: central; font-size:9.0px; font-family:Arial;" text-anchor="middle" x="100.0" y="100.0">2024</text><line stroke="#e1ed5e" stroke-width="0.3" x1="100.0" x2="100.0" y1="15.0" y2="10.0" /><path d="M 100.0 14.0 a86.0,86.0 0 0,1 42.35913384403234,11.155469271406648" fill="none" id="id1" stroke="none" /><text fill="#e1ed5e" style="font-size:6.75px; font-family:Arial;" text-anchor="middle"><textPath startOffset="22.145653131862478" xlink:href="#id1">January</textPath></text><line stroke="#e1ed5e" stroke-width="0.3" x1="143.13028292997686" x2="145.6673583964461" y1="26.7553504044142" y2="22.446841604673864" /><path d="M 143.63769802327073 25.89364864446614 a86.0,86.0 0 0,1 29.32050498858742,28.57503671076993" fill="none" id="id2" stroke="none" /><text fill="#e1ed5e" style="font-size:6.75px; font-family:Arial;" text-anchor="middle"><textPath startOffset="20.669276256404974" xlink:href="#id2">February</textPath></text><line stroke="#e1ed5e" stroke-width="0.3" x1="172.87174338648825" x2="177.1583165268699" y1="56.24261187166439" y2="53.66864786411523" /><path d="M 173.72905801456457 55.72781907015455 a86.0,86.0 0 0,1 12.242430191666344,42.057860355516425" fill="none" id="id3" stroke="none" /><text fill="#e1ed5e" style="font-size:6.75px; font-family:Arial;" text-anchor="middle"><textPath startOffset="22.145653131862474" xlink:href="#id3">March</textPath></text><path d="M 118.18653347947321 89.5 l 3.9162574734344924 -2.2610523065032884 a25.522104613006576,25.522104613006576 0 0,0 0.21580353493828547,0.3813041683406134 l -3.9544943733941538 2.193491368063557" fill="#ff2403" stroke="none" /><path d="M 119.31412917781788 91.75594674310238 l 2.854609448220113 -1.2184630278748372 a24.10377951088112,24.10377951088112 0 0,0 0.15917006034048856,0.38195020099126925 l -2.875105353097085 1.16928031744229" fill="#ff0f01" stroke="none" /><path d="M 119.58574465831526 92.42381321644754 l 2.4092900585512242 -0.931965152092931 a23.58326104583903,23.58326104583903 0 0,0 0.1428127228868995,0.37882771462966697 l -2.4249334652525647 0.8904691572691062" fill="#ff0801" stroke="none" /><path d="M 120.16314734710363 94.1308016681162 l 2.7475331510525582 -0.7997668572942075 a23.8615669557358,23.8615669557358 0 0,0 0.11110571420929387,0.39427498366181063 l -2.760857357336434 0.7524839497293837" fill="#ff0c01" stroke="none" /><path d="M 120.65975698304385 96.23510406497455 l 2.890184800618433 -0.5266879477939302 a23.93778290145429,23.93778290145429 0 0,0 0.07020060613415882,0.4048984410967083 l -2.8988002242448263 0.47699647377662935" fill="#ff0d01" stroke="none" /><path d="M 120.86939407059847 97.66154086499901 l 4.172701181145499 -0.4675598707691308 a25.198814997101763,25.198814997101763 0 0,0 0.04447903734474644,0.43029433818046375 l -4.180112610971911 0.39586101030573567" fill="#ff1f03" stroke="none" /><path d="M 120.99303781780057 99.45929381324524 l 6.40505745580553 -0.16497155975859656 a27.407181644662433,27.407181644662433 0 0,0 0.00807672468075135,0.47042872135307473 l -6.4069456120849475 0.054995922436455416" fill="#ff3f05" stroke="none" /><line stroke="#e1ed5e" stroke-width="0.3" x1="184.99686870605535" x2="189.99668451229388" y1="99.2704041080226" y2="99.22748670261217" /><path d="M 185.99683186730306 99.26182062694052 a86.0,86.0 0 0,1 -10.086455211305974,41.156179273409016" fill="none" id="id4" stroke="none" /><text fill="#e1ed5e" style="font-size:6.75px; font-family:Arial;" text-anchor="middle"><textPath startOffset="21.40746469413373" xlink:href="#id4">April</textPath></text><path d="M 120.98066250479742 100.90099992219065 l 2.071076568903351 0.08894093916272175 a23.07298544252477,23.07298544252477 0 0,0 -0.02039037791928081,0.39556788430080925 l -2.0692446015274975 -0.12448061684026165" fill="#ff0000" stroke="none" /><path d="M 120.96210409425399 101.26102812881392 l 61.07665390075815 3.6742198319585744 a82.18707006456964,82.18707006456964 0 0,0 -0.09680869318317283,1.4075771522957228 l -61.00458124640991 -4.722140408408641" fill="#4be3ff" stroke="none" /><path d="M 120.82617615685814 102.69636545807757 l 3.768517940379106 0.48791009573966876 a24.79997154311501,24.79997154311501 0 0,0 -0.05828640880607004,0.4217314187786452 l -3.7595870150178254 -0.552529822718399" fill="#ff1902" stroke="none" /><path d="M 120.35273937422433 105.17358676015961 l 4.411864371091166 1.1214786706699553 a25.55217109055353,25.55217109055353 0 0,0 -0.11171229020905148,0.4241897617985052 l -4.391962600077385 -1.1970489368412638" fill="#ff2403" stroke="none" /><path d="M 119.83427380445688 106.89939002012753 l 42.42337957030094 14.757053598889309 a65.91674259211501,65.91674259211501 0 0,0 -0.3809354605826782,1.0655442809171378 l -42.16380393967432 -15.483132836187368" fill="#36ff70" stroke="none" /><line stroke="#e1ed5e" stroke-width="0.3" x1="174.33088141563837" x2="178.70328620479359" y1="141.23008692659167" y2="143.65538615756765" /><path d="M 175.20536237346943 141.71514677278685 a86.0,86.0 0 0,1 -30.301960400862466,31.631185727798858" fill="none" id="id5" stroke="none" /><text fill="#e1ed5e" style="font-size:6.75px; font-family:Arial;" text-anchor="middle"><textPath startOffset="22.145653131862474" xlink:href="#id5">May</textPath></text><path d="M 118.36410011445183 110.18625677009912 l 55.092300343355504 30.558770310297355 a84.0,84.0 0 0,0 -0.7102665399144867,1.254972919603509 l -54.559600438419636 -31.499999999999986" fill="#4dd2ff" stroke="none" /><path d="M 117.21940702142032 112.02048342749411 l 3.5805906732526314 2.499530372615764 a25.36672436192307,25.36672436192307 0 0,0 -0.2523202723313308,0.35492006196742015 l -3.53715530239134 -2.5606276612926884" fill="#ff2203" stroke="none" /><path d="M 112.7482090630111 116.68781488649013 l 6.416866210836834 8.399883854158059 a31.570440895777466,31.570440895777466 0 0,0 -0.4334877271936543,0.3252972719396311 l -6.271725494732413 -8.508800153361705" fill="#ff7a0b" stroke="none" /><line stroke="#e1ed5e" stroke-width="0.3" x1="143.1302829299769" x2="145.66735839644613" y1="173.24464959558577" y2="177.55315839532614" /><path d="M 143.63769802327073 174.10635135553383 a86.0,86.0 0 0,1 -40.68552437913181,11.842963189579606" fill="none" id="id6" stroke="none" /><text fill="#e1ed5e" style="font-size:6.75px; font-family:Arial;" text-anchor="middle"><textPath startOffset="21.407464694133747" xlink:href="#id6">June</textPath></text><line stroke="#e1ed5e" stroke-width="0.3" x1="101.45913802915013" x2="101.54496967792366" y1="184.9874750549273" y2="189.98673829345242" /><path d="M 101.47630435890484 185.9873277026323 a86.0,86.0 0 0,1 -42.54439059252881,-10.42667462771756" fill="none" id="id7" stroke="none" /><text fill="#e1ed5e" style="font-size:6.75px; font-family:Arial;" text-anchor="middle"><textPath startOffset="22.145653131862474" xlink:href="#id7">July</textPath></text><line stroke="#e1ed5e" stroke-width="0.3" x1="58.13341422392154" x2="55.67067388415222" y1="173.97424548756322" y2="178.32567169271397" /><path d="M 57.64086615596768 174.84453072859336 a86.0,86.0 0 0,1 -31.369924170532247,-30.572349798747897" fill="none" id="id8" stroke="none" /><text fill="#e1ed5e" style="font-size:6.75px; font-family:Arial;" text-anchor="middle"><textPath startOffset="22.145653131862474" xlink:href="#id8">August</textPath></text><line stroke="#e1ed5e" stroke-width="0.3" x1="26.387840678322732" x2="22.057713659400548" y1="142.50000000000003" y2="145.00000000000006" /><path d="M 25.521815274538298 143.00000000000003 a86.0,86.0 0 0,1 -11.493303480769221,-40.785679425670985" fill="none" id="id9" stroke="none" /><text fill="#e1ed5e" style="font-size:6.75px; font-family:Arial;" text-anchor="middle"><textPath startOffset="21.40746469413373" xlink:href="#id9">September</textPath></text><line stroke="#e1ed5e" stroke-width="0.3" x1="15.003131293944662" x2="10.003315487706104" y1="100.72959589197737" y2="100.7725132973878" /><path d="M 14.003168132696942 100.73817937305945 a86.0,86.0 0 0,1 10.791469493833604,-42.45332614584628" fill="none" id="id10" stroke="none" /><text fill="#e1ed5e" style="font-size:6.75px; font-family:Arial;" text-anchor="middle"><textPath startOffset="22.145653131862435" xlink:href="#id10">October</textPath></text><line stroke="#e1ed5e" stroke-width="0.3" x1="26.387840678322718" x2="22.05771365940052" y1="57.49999999999999" y2="54.99999999999999" /><path d="M 25.521815274538284 56.99999999999999 a86.0,86.0 0 0,1 29.574782752854787,-30.34633250058573" fill="none" id="id11" stroke="none" /><text fill="#e1ed5e" style="font-size:6.75px; font-family:Arial;" text-anchor="middle"><textPath startOffset="21.40746469413373" xlink:href="#id11">November</textPath></text><line stroke="#e1ed5e" stroke-width="0.3" x1="56.869717070023135" x2="54.33264160355391" y1="26.7553504044142" y2="22.446841604673864" /><path d="M 56.362301976729285 25.89364864446614 a86.0,86.0 0 0,1 42.16139366436587,-11.88097634709845" fill="none" id="id12" stroke="none" /><text fill="#e1ed5e" style="font-size:6.75px; font-family:Arial;" text-anchor="middle"><textPath startOffset="22.145653131862474" xlink:href="#id12">December</textPath></text></svg>